%TF.GenerationSoftware,KiCad,Pcbnew,9.0.7*%
%TF.CreationDate,2026-01-31T17:54:30-05:00*%
%TF.ProjectId,ProJect 1 LED Torch,50726f4a-6563-4742-9031-204c45442054,1*%
%TF.SameCoordinates,Original*%
%TF.FileFunction,Legend,Top*%
%TF.FilePolarity,Positive*%
%FSLAX46Y46*%
G04 Gerber Fmt 4.6, Leading zero omitted, Abs format (unit mm)*
G04 Created by KiCad (PCBNEW 9.0.7) date 2026-01-31 17:54:30*
%MOMM*%
%LPD*%
G01*
G04 APERTURE LIST*
%ADD10C,0.100000*%
%ADD11C,0.150000*%
%ADD12C,0.120000*%
G04 APERTURE END LIST*
D10*
X55803884Y-116991466D02*
X56565789Y-116991466D01*
X55803884Y-108991466D02*
X56565789Y-108991466D01*
X56184836Y-109372419D02*
X56184836Y-108610514D01*
D11*
X75166667Y-109241846D02*
X75309524Y-109289465D01*
X75309524Y-109289465D02*
X75547619Y-109289465D01*
X75547619Y-109289465D02*
X75642857Y-109241846D01*
X75642857Y-109241846D02*
X75690476Y-109194226D01*
X75690476Y-109194226D02*
X75738095Y-109098988D01*
X75738095Y-109098988D02*
X75738095Y-109003750D01*
X75738095Y-109003750D02*
X75690476Y-108908512D01*
X75690476Y-108908512D02*
X75642857Y-108860893D01*
X75642857Y-108860893D02*
X75547619Y-108813274D01*
X75547619Y-108813274D02*
X75357143Y-108765655D01*
X75357143Y-108765655D02*
X75261905Y-108718036D01*
X75261905Y-108718036D02*
X75214286Y-108670417D01*
X75214286Y-108670417D02*
X75166667Y-108575179D01*
X75166667Y-108575179D02*
X75166667Y-108479941D01*
X75166667Y-108479941D02*
X75214286Y-108384703D01*
X75214286Y-108384703D02*
X75261905Y-108337084D01*
X75261905Y-108337084D02*
X75357143Y-108289465D01*
X75357143Y-108289465D02*
X75595238Y-108289465D01*
X75595238Y-108289465D02*
X75738095Y-108337084D01*
X76071429Y-108289465D02*
X76309524Y-109289465D01*
X76309524Y-109289465D02*
X76500000Y-108575179D01*
X76500000Y-108575179D02*
X76690476Y-109289465D01*
X76690476Y-109289465D02*
X76928572Y-108289465D01*
X77833333Y-109289465D02*
X77261905Y-109289465D01*
X77547619Y-109289465D02*
X77547619Y-108289465D01*
X77547619Y-108289465D02*
X77452381Y-108432322D01*
X77452381Y-108432322D02*
X77357143Y-108527560D01*
X77357143Y-108527560D02*
X77261905Y-108575179D01*
X55261905Y-107454819D02*
X55261905Y-106454819D01*
X55261905Y-106454819D02*
X55500000Y-106454819D01*
X55500000Y-106454819D02*
X55642857Y-106502438D01*
X55642857Y-106502438D02*
X55738095Y-106597676D01*
X55738095Y-106597676D02*
X55785714Y-106692914D01*
X55785714Y-106692914D02*
X55833333Y-106883390D01*
X55833333Y-106883390D02*
X55833333Y-107026247D01*
X55833333Y-107026247D02*
X55785714Y-107216723D01*
X55785714Y-107216723D02*
X55738095Y-107311961D01*
X55738095Y-107311961D02*
X55642857Y-107407200D01*
X55642857Y-107407200D02*
X55500000Y-107454819D01*
X55500000Y-107454819D02*
X55261905Y-107454819D01*
X56785714Y-107454819D02*
X56214286Y-107454819D01*
X56500000Y-107454819D02*
X56500000Y-106454819D01*
X56500000Y-106454819D02*
X56404762Y-106597676D01*
X56404762Y-106597676D02*
X56309524Y-106692914D01*
X56309524Y-106692914D02*
X56214286Y-106740533D01*
X51954819Y-113684597D02*
X51954819Y-114160787D01*
X51954819Y-114160787D02*
X50954819Y-114160787D01*
X51431009Y-113351263D02*
X51431009Y-113017930D01*
X51954819Y-112875073D02*
X51954819Y-113351263D01*
X51954819Y-113351263D02*
X50954819Y-113351263D01*
X50954819Y-113351263D02*
X50954819Y-112875073D01*
X51954819Y-112446501D02*
X50954819Y-112446501D01*
X50954819Y-112446501D02*
X50954819Y-112208406D01*
X50954819Y-112208406D02*
X51002438Y-112065549D01*
X51002438Y-112065549D02*
X51097676Y-111970311D01*
X51097676Y-111970311D02*
X51192914Y-111922692D01*
X51192914Y-111922692D02*
X51383390Y-111875073D01*
X51383390Y-111875073D02*
X51526247Y-111875073D01*
X51526247Y-111875073D02*
X51716723Y-111922692D01*
X51716723Y-111922692D02*
X51811961Y-111970311D01*
X51811961Y-111970311D02*
X51907200Y-112065549D01*
X51907200Y-112065549D02*
X51954819Y-112208406D01*
X51954819Y-112208406D02*
X51954819Y-112446501D01*
X66833333Y-115454819D02*
X66500000Y-114978628D01*
X66261905Y-115454819D02*
X66261905Y-114454819D01*
X66261905Y-114454819D02*
X66642857Y-114454819D01*
X66642857Y-114454819D02*
X66738095Y-114502438D01*
X66738095Y-114502438D02*
X66785714Y-114550057D01*
X66785714Y-114550057D02*
X66833333Y-114645295D01*
X66833333Y-114645295D02*
X66833333Y-114788152D01*
X66833333Y-114788152D02*
X66785714Y-114883390D01*
X66785714Y-114883390D02*
X66738095Y-114931009D01*
X66738095Y-114931009D02*
X66642857Y-114978628D01*
X66642857Y-114978628D02*
X66261905Y-114978628D01*
X67785714Y-115454819D02*
X67214286Y-115454819D01*
X67500000Y-115454819D02*
X67500000Y-114454819D01*
X67500000Y-114454819D02*
X67404762Y-114597676D01*
X67404762Y-114597676D02*
X67309524Y-114692914D01*
X67309524Y-114692914D02*
X67214286Y-114740533D01*
X98630378Y-120587749D02*
X98773235Y-120635368D01*
X98773235Y-120635368D02*
X98820854Y-120682987D01*
X98820854Y-120682987D02*
X98868473Y-120778225D01*
X98868473Y-120778225D02*
X98868473Y-120921082D01*
X98868473Y-120921082D02*
X98820854Y-121016320D01*
X98820854Y-121016320D02*
X98773235Y-121063940D01*
X98773235Y-121063940D02*
X98677997Y-121111559D01*
X98677997Y-121111559D02*
X98297045Y-121111559D01*
X98297045Y-121111559D02*
X98297045Y-120111559D01*
X98297045Y-120111559D02*
X98630378Y-120111559D01*
X98630378Y-120111559D02*
X98725616Y-120159178D01*
X98725616Y-120159178D02*
X98773235Y-120206797D01*
X98773235Y-120206797D02*
X98820854Y-120302035D01*
X98820854Y-120302035D02*
X98820854Y-120397273D01*
X98820854Y-120397273D02*
X98773235Y-120492511D01*
X98773235Y-120492511D02*
X98725616Y-120540130D01*
X98725616Y-120540130D02*
X98630378Y-120587749D01*
X98630378Y-120587749D02*
X98297045Y-120587749D01*
X99154188Y-120111559D02*
X99725616Y-120111559D01*
X99439902Y-121111559D02*
X99439902Y-120111559D01*
X100582759Y-121111559D02*
X100011331Y-121111559D01*
X100297045Y-121111559D02*
X100297045Y-120111559D01*
X100297045Y-120111559D02*
X100201807Y-120254416D01*
X100201807Y-120254416D02*
X100106569Y-120349654D01*
X100106569Y-120349654D02*
X100011331Y-120397273D01*
X97047618Y-125931009D02*
X97190475Y-125978628D01*
X97190475Y-125978628D02*
X97238094Y-126026247D01*
X97238094Y-126026247D02*
X97285713Y-126121485D01*
X97285713Y-126121485D02*
X97285713Y-126264342D01*
X97285713Y-126264342D02*
X97238094Y-126359580D01*
X97238094Y-126359580D02*
X97190475Y-126407200D01*
X97190475Y-126407200D02*
X97095237Y-126454819D01*
X97095237Y-126454819D02*
X96714285Y-126454819D01*
X96714285Y-126454819D02*
X96714285Y-125454819D01*
X96714285Y-125454819D02*
X97047618Y-125454819D01*
X97047618Y-125454819D02*
X97142856Y-125502438D01*
X97142856Y-125502438D02*
X97190475Y-125550057D01*
X97190475Y-125550057D02*
X97238094Y-125645295D01*
X97238094Y-125645295D02*
X97238094Y-125740533D01*
X97238094Y-125740533D02*
X97190475Y-125835771D01*
X97190475Y-125835771D02*
X97142856Y-125883390D01*
X97142856Y-125883390D02*
X97047618Y-125931009D01*
X97047618Y-125931009D02*
X96714285Y-125931009D01*
X98142856Y-126454819D02*
X98142856Y-125931009D01*
X98142856Y-125931009D02*
X98095237Y-125835771D01*
X98095237Y-125835771D02*
X97999999Y-125788152D01*
X97999999Y-125788152D02*
X97809523Y-125788152D01*
X97809523Y-125788152D02*
X97714285Y-125835771D01*
X98142856Y-126407200D02*
X98047618Y-126454819D01*
X98047618Y-126454819D02*
X97809523Y-126454819D01*
X97809523Y-126454819D02*
X97714285Y-126407200D01*
X97714285Y-126407200D02*
X97666666Y-126311961D01*
X97666666Y-126311961D02*
X97666666Y-126216723D01*
X97666666Y-126216723D02*
X97714285Y-126121485D01*
X97714285Y-126121485D02*
X97809523Y-126073866D01*
X97809523Y-126073866D02*
X98047618Y-126073866D01*
X98047618Y-126073866D02*
X98142856Y-126026247D01*
X98476190Y-125788152D02*
X98857142Y-125788152D01*
X98619047Y-125454819D02*
X98619047Y-126311961D01*
X98619047Y-126311961D02*
X98666666Y-126407200D01*
X98666666Y-126407200D02*
X98761904Y-126454819D01*
X98761904Y-126454819D02*
X98857142Y-126454819D01*
X99904762Y-125550057D02*
X99952381Y-125502438D01*
X99952381Y-125502438D02*
X100047619Y-125454819D01*
X100047619Y-125454819D02*
X100285714Y-125454819D01*
X100285714Y-125454819D02*
X100380952Y-125502438D01*
X100380952Y-125502438D02*
X100428571Y-125550057D01*
X100428571Y-125550057D02*
X100476190Y-125645295D01*
X100476190Y-125645295D02*
X100476190Y-125740533D01*
X100476190Y-125740533D02*
X100428571Y-125883390D01*
X100428571Y-125883390D02*
X99857143Y-126454819D01*
X99857143Y-126454819D02*
X100476190Y-126454819D01*
X101095238Y-125454819D02*
X101190476Y-125454819D01*
X101190476Y-125454819D02*
X101285714Y-125502438D01*
X101285714Y-125502438D02*
X101333333Y-125550057D01*
X101333333Y-125550057D02*
X101380952Y-125645295D01*
X101380952Y-125645295D02*
X101428571Y-125835771D01*
X101428571Y-125835771D02*
X101428571Y-126073866D01*
X101428571Y-126073866D02*
X101380952Y-126264342D01*
X101380952Y-126264342D02*
X101333333Y-126359580D01*
X101333333Y-126359580D02*
X101285714Y-126407200D01*
X101285714Y-126407200D02*
X101190476Y-126454819D01*
X101190476Y-126454819D02*
X101095238Y-126454819D01*
X101095238Y-126454819D02*
X101000000Y-126407200D01*
X101000000Y-126407200D02*
X100952381Y-126359580D01*
X100952381Y-126359580D02*
X100904762Y-126264342D01*
X100904762Y-126264342D02*
X100857143Y-126073866D01*
X100857143Y-126073866D02*
X100857143Y-125835771D01*
X100857143Y-125835771D02*
X100904762Y-125645295D01*
X100904762Y-125645295D02*
X100952381Y-125550057D01*
X100952381Y-125550057D02*
X101000000Y-125502438D01*
X101000000Y-125502438D02*
X101095238Y-125454819D01*
X101761905Y-125454819D02*
X102380952Y-125454819D01*
X102380952Y-125454819D02*
X102047619Y-125835771D01*
X102047619Y-125835771D02*
X102190476Y-125835771D01*
X102190476Y-125835771D02*
X102285714Y-125883390D01*
X102285714Y-125883390D02*
X102333333Y-125931009D01*
X102333333Y-125931009D02*
X102380952Y-126026247D01*
X102380952Y-126026247D02*
X102380952Y-126264342D01*
X102380952Y-126264342D02*
X102333333Y-126359580D01*
X102333333Y-126359580D02*
X102285714Y-126407200D01*
X102285714Y-126407200D02*
X102190476Y-126454819D01*
X102190476Y-126454819D02*
X101904762Y-126454819D01*
X101904762Y-126454819D02*
X101809524Y-126407200D01*
X101809524Y-126407200D02*
X101761905Y-126359580D01*
X102761905Y-125550057D02*
X102809524Y-125502438D01*
X102809524Y-125502438D02*
X102904762Y-125454819D01*
X102904762Y-125454819D02*
X103142857Y-125454819D01*
X103142857Y-125454819D02*
X103238095Y-125502438D01*
X103238095Y-125502438D02*
X103285714Y-125550057D01*
X103285714Y-125550057D02*
X103333333Y-125645295D01*
X103333333Y-125645295D02*
X103333333Y-125740533D01*
X103333333Y-125740533D02*
X103285714Y-125883390D01*
X103285714Y-125883390D02*
X102714286Y-126454819D01*
X102714286Y-126454819D02*
X103333333Y-126454819D01*
D12*
%TO.C,SW1*%
X73880000Y-114136740D02*
X73880000Y-111936740D01*
X74500000Y-109916740D02*
X79500000Y-109916740D01*
X74500000Y-116156740D02*
X79500000Y-116156740D01*
X80120000Y-111936740D02*
X80120000Y-114136740D01*
X78750000Y-113036740D02*
G75*
G02*
X75250000Y-113036740I-1750000J0D01*
G01*
X75250000Y-113036740D02*
G75*
G02*
X78750000Y-113036740I1750000J0D01*
G01*
%TO.C,D1*%
X54455000Y-115601740D02*
X57545000Y-115601740D01*
X54455170Y-115601740D02*
G75*
G02*
X56000000Y-110051740I1544830J2560000D01*
G01*
X56000000Y-110051740D02*
G75*
G02*
X57544830Y-115601740I0J-2990000D01*
G01*
X58500000Y-113041740D02*
G75*
G02*
X53500000Y-113041740I-2500000J0D01*
G01*
X53500000Y-113041740D02*
G75*
G02*
X58500000Y-113041740I2500000J0D01*
G01*
%TO.C,R1*%
X69500000Y-110166740D02*
X69500000Y-111116740D01*
X69500000Y-115906740D02*
X69500000Y-114956740D01*
X70420000Y-111116740D02*
X68580000Y-111116740D01*
X68580000Y-114956740D01*
X70420000Y-114956740D01*
X70420000Y-111116740D01*
%TO.C,BT1*%
X85106093Y-109426740D02*
X88724093Y-109426740D01*
X85106093Y-111136740D02*
X85106093Y-109426740D01*
X85106093Y-114936740D02*
X85106093Y-116646740D01*
X88724093Y-116646740D02*
X85106093Y-116646740D01*
X91568793Y-104926740D02*
X107263393Y-104926740D01*
X95556093Y-121146740D02*
X91568793Y-121146740D01*
X97756093Y-118946740D02*
X95556093Y-121146740D01*
X101076093Y-118946740D02*
X97756093Y-118946740D01*
X101076093Y-118946740D02*
X103276093Y-121146740D01*
X107263393Y-121146740D02*
X103276093Y-121146740D01*
X110108093Y-109426740D02*
X113726093Y-109426740D01*
X113726093Y-111136740D02*
X113726093Y-109426740D01*
X113726093Y-114936740D02*
X113726093Y-116646740D01*
X113726093Y-116646740D02*
X110108093Y-116646740D01*
X88724093Y-109426740D02*
G75*
G02*
X91570721Y-104924950I10692020J-3610010D01*
G01*
X91570722Y-121148529D02*
G75*
G02*
X88724093Y-116646740I7845366J8111785D01*
G01*
X107261464Y-104924951D02*
G75*
G02*
X110108093Y-109426740I-7845371J-8111789D01*
G01*
X110108093Y-116646740D02*
G75*
G02*
X107261464Y-121148529I-10692020J3610012D01*
G01*
%TD*%
M02*
