M48
; DRILL file {KiCad 9.0.7} date 2026-03-01T19:28:46-0500
; FORMAT={-:-/ absolute / metric / decimal}
; #@! TF.CreationDate,2026-03-01T19:28:46-05:00
; #@! TF.GenerationSoftware,Kicad,Pcbnew,9.0.7
; #@! TF.FileFunction,Plated,1,2,PTH
FMAT,2
METRIC
; #@! TA.AperFunction,Plated,PTH,ViaDrill
T1C0.500
; #@! TA.AperFunction,Plated,PTH,ComponentDrill
T2C0.700
; #@! TA.AperFunction,Plated,PTH,ComponentDrill
T3C0.800
; #@! TA.AperFunction,Plated,PTH,ComponentDrill
T4C0.900
; #@! TA.AperFunction,Plated,PTH,ComponentDrill
T5C1.000
; #@! TA.AperFunction,Plated,PTH,ComponentDrill
T6C1.100
; #@! TA.AperFunction,Plated,PTH,ComponentDrill
T7C1.520
%
G90
G05
T1
X73.152Y-137.668
X80.264Y-139.192
T2
X86.36Y-128.016
X86.36Y-140.716
X86.36Y-146.304
X91.44Y-128.016
X91.44Y-140.716
X91.44Y-146.304
T3
X67.838Y-116.84
X69.87Y-148.844
X70.338Y-116.84
X72.37Y-148.844
X74.716Y-115.824
X77.216Y-115.824
T4
X84.464Y-120.904
X86.964Y-120.904
X89.18Y-132.588
X89.18Y-135.128
X89.464Y-120.904
T5
X74.168Y-108.712
X74.168Y-156.972
X76.708Y-108.712
X76.708Y-156.972
X79.248Y-108.712
X79.248Y-156.972
X96.825Y-108.585
X96.825Y-111.125
X96.825Y-154.28
X96.825Y-156.82
T6
X70.612Y-121.412
X71.12Y-142.748
X73.152Y-121.412
X73.66Y-142.748
X75.692Y-121.412
X76.2Y-142.748
T7
X85.344Y-110.236
X85.344Y-154.94
X90.424Y-110.236
X90.424Y-154.94
T5
G00X73.66Y-131.138
M15
G01X73.66Y-133.138
M16
G05
G00X75.66Y-136.838
M15
G01X77.66Y-136.838
M16
G05
G00X79.66Y-131.138
M15
G01X79.66Y-133.138
M16
G05
M30
