%TF.GenerationSoftware,KiCad,Pcbnew,9.0.7*%
%TF.CreationDate,2026-03-01T19:28:42-05:00*%
%TF.ProjectId,Breadboard_PS,42726561-6462-46f6-9172-645f50532e6b,rev?*%
%TF.SameCoordinates,Original*%
%TF.FileFunction,Copper,L2,Bot*%
%TF.FilePolarity,Positive*%
%FSLAX46Y46*%
G04 Gerber Fmt 4.6, Leading zero omitted, Abs format (unit mm)*
G04 Created by KiCad (PCBNEW 9.0.7) date 2026-03-01 19:28:42*
%MOMM*%
%LPD*%
G01*
G04 APERTURE LIST*
G04 Aperture macros list*
%AMRoundRect*
0 Rectangle with rounded corners*
0 $1 Rounding radius*
0 $2 $3 $4 $5 $6 $7 $8 $9 X,Y pos of 4 corners*
0 Add a 4 corners polygon primitive as box body*
4,1,4,$2,$3,$4,$5,$6,$7,$8,$9,$2,$3,0*
0 Add four circle primitives for the rounded corners*
1,1,$1+$1,$2,$3*
1,1,$1+$1,$4,$5*
1,1,$1+$1,$6,$7*
1,1,$1+$1,$8,$9*
0 Add four rect primitives between the rounded corners*
20,1,$1+$1,$2,$3,$4,$5,0*
20,1,$1+$1,$4,$5,$6,$7,0*
20,1,$1+$1,$6,$7,$8,$9,0*
20,1,$1+$1,$8,$9,$2,$3,0*%
G04 Aperture macros list end*
%TA.AperFunction,ComponentPad*%
%ADD10C,1.400000*%
%TD*%
%TA.AperFunction,ComponentPad*%
%ADD11R,3.500000X3.500000*%
%TD*%
%TA.AperFunction,ComponentPad*%
%ADD12RoundRect,0.750000X-0.750000X-1.000000X0.750000X-1.000000X0.750000X1.000000X-0.750000X1.000000X0*%
%TD*%
%TA.AperFunction,ComponentPad*%
%ADD13RoundRect,0.875000X-0.875000X-0.875000X0.875000X-0.875000X0.875000X0.875000X-0.875000X0.875000X0*%
%TD*%
%TA.AperFunction,ComponentPad*%
%ADD14R,1.800000X1.800000*%
%TD*%
%TA.AperFunction,ComponentPad*%
%ADD15C,1.800000*%
%TD*%
%TA.AperFunction,ComponentPad*%
%ADD16R,3.000000X3.000000*%
%TD*%
%TA.AperFunction,ComponentPad*%
%ADD17C,3.000000*%
%TD*%
%TA.AperFunction,ComponentPad*%
%ADD18R,1.900000X1.900000*%
%TD*%
%TA.AperFunction,ComponentPad*%
%ADD19C,1.900000*%
%TD*%
%TA.AperFunction,ComponentPad*%
%ADD20O,1.905000X2.000000*%
%TD*%
%TA.AperFunction,ComponentPad*%
%ADD21R,1.905000X2.000000*%
%TD*%
%TA.AperFunction,ComponentPad*%
%ADD22C,1.700000*%
%TD*%
%TA.AperFunction,ComponentPad*%
%ADD23R,1.700000X1.700000*%
%TD*%
%TA.AperFunction,ComponentPad*%
%ADD24C,1.600000*%
%TD*%
%TA.AperFunction,ViaPad*%
%ADD25C,0.900000*%
%TD*%
%TA.AperFunction,Conductor*%
%ADD26C,0.350000*%
%TD*%
%TA.AperFunction,Conductor*%
%ADD27C,0.250000*%
%TD*%
G04 APERTURE END LIST*
D10*
%TO.P,R3,2*%
%TO.N,Net-(U2-ADJ)*%
X91440000Y-146304000D03*
%TO.P,R3,1*%
%TO.N,GND*%
X86360000Y-146304000D03*
%TD*%
D11*
%TO.P,J6,1*%
%TO.N,/PWR_input*%
X79660000Y-132138500D03*
D12*
%TO.P,J6,2*%
%TO.N,GND*%
X73660000Y-132138500D03*
D13*
%TO.P,J6,3*%
X76660000Y-136838500D03*
%TD*%
D10*
%TO.P,R2,1*%
%TO.N,Net-(D1-A)*%
X86360000Y-128016000D03*
%TO.P,R2,2*%
%TO.N,/12v*%
X91440000Y-128016000D03*
%TD*%
%TO.P,R1,1*%
%TO.N,Net-(U2-ADJ)*%
X91440000Y-140716000D03*
%TO.P,R1,2*%
%TO.N,/3.3v*%
X86360000Y-140716000D03*
%TD*%
D14*
%TO.P,D1,1,K*%
%TO.N,GND*%
X89180000Y-135128000D03*
D15*
%TO.P,D1,2,A*%
%TO.N,Net-(D1-A)*%
X89180000Y-132588000D03*
%TD*%
D16*
%TO.P,J5,1,Pin_1*%
%TO.N,GND*%
X85344000Y-110236000D03*
D17*
%TO.P,J5,2,Pin_2*%
%TO.N,/PWR_OUT_TOP*%
X90424000Y-110236000D03*
%TD*%
D16*
%TO.P,J7,1,Pin_1*%
%TO.N,GND*%
X85344000Y-154940000D03*
D17*
%TO.P,J7,2,Pin_2*%
%TO.N,/PWR_OUT_BOT*%
X90424000Y-154940000D03*
%TD*%
D18*
%TO.P,S1,1*%
%TO.N,/12v*%
X89464000Y-120904000D03*
D19*
%TO.P,S1,2*%
%TO.N,/PWR_input*%
X86964000Y-120904000D03*
%TO.P,S1,3*%
%TO.N,unconnected-(S1-Pad3)*%
X84464000Y-120904000D03*
%TD*%
D20*
%TO.P,U1,3,VO*%
%TO.N,/5v*%
X70612000Y-121412000D03*
%TO.P,U1,2,GND*%
%TO.N,GND*%
X73152000Y-121412000D03*
D21*
%TO.P,U1,1,VI*%
%TO.N,/12v*%
X75692000Y-121412000D03*
%TD*%
D22*
%TO.P,J1,2,Pin_2*%
%TO.N,/PWR_OUT_TOP*%
X96824800Y-111125000D03*
D23*
%TO.P,J1,1,Pin_1*%
%TO.N,GND*%
X96824800Y-108585000D03*
%TD*%
D22*
%TO.P,J4,3,Pin_3*%
%TO.N,/5v*%
X79248000Y-156972000D03*
%TO.P,J4,2,Pin_2*%
%TO.N,/PWR_OUT_BOT*%
X76708000Y-156972000D03*
D23*
%TO.P,J4,1,Pin_1*%
%TO.N,/3.3v*%
X74168000Y-156972000D03*
%TD*%
D22*
%TO.P,J3,3,Pin_3*%
%TO.N,/5v*%
X79248000Y-108712000D03*
%TO.P,J3,2,Pin_2*%
%TO.N,/PWR_OUT_TOP*%
X76708000Y-108712000D03*
D23*
%TO.P,J3,1,Pin_1*%
%TO.N,/3.3v*%
X74168000Y-108712000D03*
%TD*%
D22*
%TO.P,J2,2,Pin_2*%
%TO.N,/PWR_OUT_BOT*%
X96824800Y-156819600D03*
D23*
%TO.P,J2,1,Pin_1*%
%TO.N,GND*%
X96824800Y-154279600D03*
%TD*%
D20*
%TO.P,U2,3,VI*%
%TO.N,/12v*%
X76200000Y-142748000D03*
%TO.P,U2,2,VO*%
%TO.N,/3.3v*%
X73660000Y-142748000D03*
D21*
%TO.P,U2,1,ADJ*%
%TO.N,Net-(U2-ADJ)*%
X71120000Y-142748000D03*
%TD*%
D24*
%TO.P,C3,2*%
%TO.N,GND*%
X72370000Y-148844000D03*
%TO.P,C3,1*%
%TO.N,/3.3v*%
X69870000Y-148844000D03*
%TD*%
%TO.P,C1,2*%
%TO.N,GND*%
X74716000Y-115824000D03*
%TO.P,C1,1*%
%TO.N,/12v*%
X77216000Y-115824000D03*
%TD*%
%TO.P,C2,2*%
%TO.N,GND*%
X67838000Y-116840000D03*
%TO.P,C2,1*%
%TO.N,/5v*%
X70338000Y-116840000D03*
%TD*%
D25*
%TO.N,/12v*%
X73152000Y-137668000D03*
%TO.N,Net-(U2-ADJ)*%
X80264000Y-139192000D03*
%TD*%
D26*
%TO.N,/12v*%
X74824000Y-144124000D02*
X76200000Y-142748000D01*
X69956000Y-144124000D02*
X74824000Y-144124000D01*
X69791500Y-143959500D02*
X69956000Y-144124000D01*
X69791500Y-141028500D02*
X69791500Y-143959500D01*
X73152000Y-137668000D02*
X69791500Y-141028500D01*
D27*
%TO.N,/PWR_OUT_TOP*%
X90740000Y-110552000D02*
X90424000Y-110236000D01*
D26*
%TO.N,Net-(U2-ADJ)*%
X74676000Y-139192000D02*
X71120000Y-142748000D01*
X80264000Y-139192000D02*
X74676000Y-139192000D01*
%TD*%
%TA.AperFunction,Conductor*%
%TO.N,GND*%
G36*
X99003039Y-106191685D02*
G01*
X99048794Y-106244489D01*
X99060000Y-106296000D01*
X99060000Y-113160000D01*
X99040315Y-113227039D01*
X98987511Y-113272794D01*
X98936000Y-113284000D01*
X93472000Y-113284000D01*
X93472000Y-151384000D01*
X98936000Y-151384000D01*
X99003039Y-151403685D01*
X99048794Y-151456489D01*
X99060000Y-151508000D01*
X99060000Y-159896000D01*
X99040315Y-159963039D01*
X98987511Y-160008794D01*
X98936000Y-160020000D01*
X66069272Y-160020000D01*
X66013818Y-160006909D01*
X65091788Y-159545894D01*
X65040630Y-159498307D01*
X65023249Y-159436215D01*
X65008257Y-157922000D01*
X67264409Y-157922000D01*
X68766409Y-157922000D01*
X69764409Y-157922000D01*
X71266409Y-157922000D01*
X71266409Y-156420000D01*
X69764409Y-156420000D01*
X69764409Y-157922000D01*
X68766409Y-157922000D01*
X68766409Y-156420000D01*
X67264409Y-156420000D01*
X67264409Y-157922000D01*
X65008257Y-157922000D01*
X64989961Y-156074135D01*
X72817500Y-156074135D01*
X72817500Y-157869870D01*
X72817501Y-157869876D01*
X72823908Y-157929483D01*
X72874202Y-158064328D01*
X72874206Y-158064335D01*
X72960452Y-158179544D01*
X72960455Y-158179547D01*
X73075664Y-158265793D01*
X73075671Y-158265797D01*
X73210517Y-158316091D01*
X73210516Y-158316091D01*
X73217444Y-158316835D01*
X73270127Y-158322500D01*
X75065872Y-158322499D01*
X75125483Y-158316091D01*
X75260331Y-158265796D01*
X75375546Y-158179546D01*
X75461796Y-158064331D01*
X75510810Y-157932916D01*
X75552681Y-157876984D01*
X75618145Y-157852566D01*
X75686418Y-157867417D01*
X75714673Y-157888569D01*
X75828213Y-158002109D01*
X76000179Y-158127048D01*
X76000181Y-158127049D01*
X76000184Y-158127051D01*
X76189588Y-158223557D01*
X76391757Y-158289246D01*
X76601713Y-158322500D01*
X76601714Y-158322500D01*
X76814286Y-158322500D01*
X76814287Y-158322500D01*
X77024243Y-158289246D01*
X77226412Y-158223557D01*
X77415816Y-158127051D01*
X77502138Y-158064335D01*
X77587786Y-158002109D01*
X77587788Y-158002106D01*
X77587792Y-158002104D01*
X77738104Y-157851792D01*
X77738106Y-157851788D01*
X77738109Y-157851786D01*
X77863048Y-157679820D01*
X77863047Y-157679820D01*
X77863051Y-157679816D01*
X77867514Y-157671054D01*
X77915488Y-157620259D01*
X77983308Y-157603463D01*
X78049444Y-157625999D01*
X78088486Y-157671056D01*
X78092951Y-157679820D01*
X78217890Y-157851786D01*
X78368213Y-158002109D01*
X78540179Y-158127048D01*
X78540181Y-158127049D01*
X78540184Y-158127051D01*
X78729588Y-158223557D01*
X78931757Y-158289246D01*
X79141713Y-158322500D01*
X79141714Y-158322500D01*
X79354286Y-158322500D01*
X79354287Y-158322500D01*
X79564243Y-158289246D01*
X79766412Y-158223557D01*
X79955816Y-158127051D01*
X80042138Y-158064335D01*
X80127786Y-158002109D01*
X80127788Y-158002106D01*
X80127792Y-158002104D01*
X80207896Y-157922000D01*
X82264409Y-157922000D01*
X83595014Y-157922000D01*
X83591262Y-157921478D01*
X83545084Y-157913572D01*
X83537499Y-157912028D01*
X83476788Y-157897685D01*
X83469305Y-157895668D01*
X83424436Y-157882058D01*
X83423589Y-157881772D01*
X87264409Y-157881772D01*
X87264409Y-157922000D01*
X88766409Y-157922000D01*
X88766409Y-157443860D01*
X88742150Y-157427651D01*
X88738815Y-157425343D01*
X88718865Y-157411047D01*
X88715605Y-157408629D01*
X88583591Y-157307330D01*
X92264409Y-157307330D01*
X92264409Y-157922000D01*
X93766409Y-157922000D01*
X93766409Y-156713313D01*
X95474300Y-156713313D01*
X95474300Y-156925887D01*
X95478604Y-156953063D01*
X95506484Y-157129091D01*
X95507554Y-157135843D01*
X95545176Y-157251632D01*
X95573244Y-157338014D01*
X95669751Y-157527420D01*
X95794690Y-157699386D01*
X95945013Y-157849709D01*
X96116979Y-157974648D01*
X96116981Y-157974649D01*
X96116984Y-157974651D01*
X96306388Y-158071157D01*
X96508557Y-158136846D01*
X96718513Y-158170100D01*
X96718514Y-158170100D01*
X96931086Y-158170100D01*
X96931087Y-158170100D01*
X97141043Y-158136846D01*
X97343212Y-158071157D01*
X97532616Y-157974651D01*
X97554589Y-157958686D01*
X97704586Y-157849709D01*
X97704588Y-157849706D01*
X97704592Y-157849704D01*
X97854904Y-157699392D01*
X97854906Y-157699388D01*
X97854909Y-157699386D01*
X97979848Y-157527420D01*
X97979847Y-157527420D01*
X97979851Y-157527416D01*
X98076357Y-157338012D01*
X98142046Y-157135843D01*
X98175300Y-156925887D01*
X98175300Y-156713313D01*
X98142046Y-156503357D01*
X98076357Y-156301188D01*
X97979851Y-156111784D01*
X97979849Y-156111781D01*
X97979848Y-156111779D01*
X97854909Y-155939813D01*
X97740981Y-155825885D01*
X97707496Y-155764562D01*
X97712480Y-155694870D01*
X97754352Y-155638937D01*
X97785329Y-155622022D01*
X97916886Y-155572954D01*
X97916893Y-155572950D01*
X98031987Y-155486790D01*
X98031990Y-155486787D01*
X98118150Y-155371693D01*
X98118154Y-155371686D01*
X98168396Y-155236979D01*
X98168398Y-155236972D01*
X98174799Y-155177444D01*
X98174800Y-155177427D01*
X98174800Y-154529600D01*
X97257812Y-154529600D01*
X97290725Y-154472593D01*
X97324800Y-154345426D01*
X97324800Y-154213774D01*
X97290725Y-154086607D01*
X97257812Y-154029600D01*
X98174800Y-154029600D01*
X98174800Y-153381772D01*
X98174799Y-153381755D01*
X98168398Y-153322227D01*
X98168396Y-153322220D01*
X98118154Y-153187513D01*
X98118150Y-153187506D01*
X98031990Y-153072412D01*
X98031987Y-153072409D01*
X97916893Y-152986249D01*
X97916886Y-152986245D01*
X97782179Y-152936003D01*
X97782172Y-152936001D01*
X97722644Y-152929600D01*
X97074800Y-152929600D01*
X97074800Y-153846588D01*
X97017793Y-153813675D01*
X96890626Y-153779600D01*
X96758974Y-153779600D01*
X96631807Y-153813675D01*
X96574800Y-153846588D01*
X96574800Y-152929600D01*
X95926955Y-152929600D01*
X95867427Y-152936001D01*
X95867420Y-152936003D01*
X95732713Y-152986245D01*
X95732706Y-152986249D01*
X95617612Y-153072409D01*
X95617609Y-153072412D01*
X95531449Y-153187506D01*
X95531445Y-153187513D01*
X95481203Y-153322220D01*
X95481201Y-153322227D01*
X95474800Y-153381755D01*
X95474800Y-154029600D01*
X96391788Y-154029600D01*
X96358875Y-154086607D01*
X96324800Y-154213774D01*
X96324800Y-154345426D01*
X96358875Y-154472593D01*
X96391788Y-154529600D01*
X95474800Y-154529600D01*
X95474800Y-155177444D01*
X95481201Y-155236972D01*
X95481203Y-155236979D01*
X95531445Y-155371686D01*
X95531449Y-155371693D01*
X95617609Y-155486787D01*
X95617612Y-155486790D01*
X95732706Y-155572950D01*
X95732713Y-155572954D01*
X95864270Y-155622022D01*
X95920204Y-155663893D01*
X95944621Y-155729358D01*
X95929769Y-155797631D01*
X95908619Y-155825885D01*
X95794689Y-155939815D01*
X95669751Y-156111779D01*
X95573244Y-156301185D01*
X95507553Y-156503360D01*
X95479246Y-156682086D01*
X95474300Y-156713313D01*
X93766409Y-156713313D01*
X93766409Y-156420000D01*
X93031890Y-156420000D01*
X92947051Y-156566947D01*
X92944966Y-156570426D01*
X92932001Y-156591276D01*
X92929800Y-156594689D01*
X92911651Y-156621850D01*
X92909343Y-156625185D01*
X92895047Y-156645135D01*
X92892629Y-156648395D01*
X92713114Y-156882341D01*
X92710595Y-156885516D01*
X92695049Y-156904460D01*
X92692430Y-156907547D01*
X92670896Y-156932107D01*
X92668166Y-156935120D01*
X92651362Y-156953063D01*
X92648536Y-156955982D01*
X92439982Y-157164536D01*
X92437063Y-157167362D01*
X92419120Y-157184166D01*
X92416107Y-157186896D01*
X92391547Y-157208430D01*
X92388460Y-157211049D01*
X92369516Y-157226595D01*
X92366341Y-157229115D01*
X92264409Y-157307330D01*
X88583591Y-157307330D01*
X88481659Y-157229114D01*
X88478484Y-157226595D01*
X88459540Y-157211049D01*
X88456453Y-157208430D01*
X88431893Y-157186896D01*
X88428880Y-157184166D01*
X88410937Y-157167362D01*
X88408018Y-157164536D01*
X88236530Y-156993048D01*
X88209970Y-157064261D01*
X88206581Y-157072441D01*
X88184323Y-157121177D01*
X88180362Y-157129091D01*
X88146185Y-157191681D01*
X88141667Y-157199295D01*
X88112703Y-157244362D01*
X88107655Y-157251632D01*
X87978757Y-157423816D01*
X87973204Y-157430707D01*
X87938124Y-157471192D01*
X87932092Y-157477671D01*
X87881671Y-157528092D01*
X87875192Y-157534124D01*
X87834707Y-157569204D01*
X87827816Y-157574757D01*
X87655632Y-157703655D01*
X87648362Y-157708703D01*
X87603295Y-157737667D01*
X87595681Y-157742185D01*
X87533091Y-157776362D01*
X87525177Y-157780323D01*
X87476441Y-157802581D01*
X87468261Y-157805970D01*
X87270904Y-157879579D01*
X87264409Y-157881772D01*
X83423589Y-157881772D01*
X83417096Y-157879579D01*
X83219739Y-157805970D01*
X83211559Y-157802581D01*
X83162823Y-157780323D01*
X83154909Y-157776362D01*
X83092319Y-157742185D01*
X83084705Y-157737667D01*
X83039638Y-157708703D01*
X83032368Y-157703655D01*
X82860184Y-157574757D01*
X82853293Y-157569204D01*
X82812808Y-157534124D01*
X82806329Y-157528092D01*
X82755908Y-157477671D01*
X82749876Y-157471192D01*
X82714796Y-157430707D01*
X82709243Y-157423816D01*
X82580345Y-157251632D01*
X82575297Y-157244362D01*
X82546333Y-157199295D01*
X82541815Y-157191681D01*
X82507638Y-157129091D01*
X82503677Y-157121177D01*
X82481419Y-157072441D01*
X82478030Y-157064261D01*
X82404421Y-156866904D01*
X82401942Y-156859564D01*
X82388332Y-156814695D01*
X82386315Y-156807212D01*
X82371972Y-156746501D01*
X82370428Y-156738916D01*
X82362522Y-156692738D01*
X82361455Y-156685069D01*
X82350289Y-156581217D01*
X82349977Y-156577905D01*
X82348364Y-156557856D01*
X82348142Y-156554542D01*
X82346713Y-156527855D01*
X82346580Y-156524539D01*
X82346044Y-156504491D01*
X82346000Y-156501177D01*
X82346000Y-156420000D01*
X82264409Y-156420000D01*
X82264409Y-157922000D01*
X80207896Y-157922000D01*
X80278104Y-157851792D01*
X80278106Y-157851788D01*
X80278109Y-157851786D01*
X80403048Y-157679820D01*
X80403047Y-157679820D01*
X80403051Y-157679816D01*
X80499557Y-157490412D01*
X80565246Y-157288243D01*
X80598500Y-157078287D01*
X80598500Y-156865713D01*
X80565246Y-156655757D01*
X80499557Y-156453588D01*
X80403051Y-156264184D01*
X80403049Y-156264181D01*
X80403048Y-156264179D01*
X80278109Y-156092213D01*
X80127786Y-155941890D01*
X79955820Y-155816951D01*
X79766414Y-155720444D01*
X79766413Y-155720443D01*
X79766412Y-155720443D01*
X79564243Y-155654754D01*
X79564241Y-155654753D01*
X79564240Y-155654753D01*
X79402957Y-155629208D01*
X79354287Y-155621500D01*
X79141713Y-155621500D01*
X79093042Y-155629208D01*
X78931760Y-155654753D01*
X78729585Y-155720444D01*
X78540179Y-155816951D01*
X78368213Y-155941890D01*
X78217890Y-156092213D01*
X78092949Y-156264182D01*
X78088484Y-156272946D01*
X78040509Y-156323742D01*
X77972688Y-156340536D01*
X77906553Y-156317998D01*
X77867516Y-156272946D01*
X77863050Y-156264182D01*
X77738109Y-156092213D01*
X77587786Y-155941890D01*
X77415820Y-155816951D01*
X77226414Y-155720444D01*
X77226413Y-155720443D01*
X77226412Y-155720443D01*
X77024243Y-155654754D01*
X77024241Y-155654753D01*
X77024240Y-155654753D01*
X76862957Y-155629208D01*
X76814287Y-155621500D01*
X76601713Y-155621500D01*
X76553042Y-155629208D01*
X76391760Y-155654753D01*
X76189585Y-155720444D01*
X76000179Y-155816951D01*
X75828215Y-155941889D01*
X75714673Y-156055431D01*
X75653350Y-156088915D01*
X75583658Y-156083931D01*
X75527725Y-156042059D01*
X75510810Y-156011082D01*
X75461797Y-155879671D01*
X75461793Y-155879664D01*
X75375547Y-155764455D01*
X75375544Y-155764452D01*
X75260335Y-155678206D01*
X75260328Y-155678202D01*
X75125482Y-155627908D01*
X75125483Y-155627908D01*
X75065883Y-155621501D01*
X75065881Y-155621500D01*
X75065873Y-155621500D01*
X75065864Y-155621500D01*
X73270129Y-155621500D01*
X73270123Y-155621501D01*
X73210516Y-155627908D01*
X73075671Y-155678202D01*
X73075664Y-155678206D01*
X72960455Y-155764452D01*
X72960452Y-155764455D01*
X72874206Y-155879664D01*
X72874202Y-155879671D01*
X72823908Y-156014517D01*
X72817501Y-156074116D01*
X72817500Y-156074135D01*
X64989961Y-156074135D01*
X64983504Y-155422000D01*
X67264409Y-155422000D01*
X68766409Y-155422000D01*
X69764409Y-155422000D01*
X71266409Y-155422000D01*
X71266409Y-155049114D01*
X72264409Y-155049114D01*
X72279972Y-155033551D01*
X72286451Y-155027519D01*
X72326936Y-154992439D01*
X72333827Y-154986886D01*
X72506126Y-154857902D01*
X72513396Y-154852854D01*
X72558463Y-154823890D01*
X72566077Y-154819372D01*
X72628667Y-154785195D01*
X72636581Y-154781233D01*
X72685318Y-154758975D01*
X72693498Y-154755587D01*
X72890982Y-154681931D01*
X72898321Y-154679452D01*
X72943172Y-154665847D01*
X72950648Y-154663832D01*
X73011363Y-154649484D01*
X73018955Y-154647939D01*
X73065160Y-154640028D01*
X73072833Y-154638959D01*
X73176755Y-154627788D01*
X73180064Y-154627477D01*
X73200101Y-154625865D01*
X73203413Y-154625643D01*
X73230095Y-154624214D01*
X73233413Y-154624081D01*
X73253464Y-154623545D01*
X73256778Y-154623501D01*
X73766409Y-154623500D01*
X74764409Y-154623500D01*
X75079248Y-154623500D01*
X75082572Y-154623545D01*
X75102673Y-154624084D01*
X75105993Y-154624217D01*
X75132680Y-154625649D01*
X75135989Y-154625871D01*
X75155982Y-154627481D01*
X75159285Y-154627792D01*
X75263175Y-154638962D01*
X75270843Y-154640029D01*
X75317029Y-154647936D01*
X75324619Y-154649481D01*
X75385330Y-154663826D01*
X75392809Y-154665842D01*
X75437672Y-154679450D01*
X75445012Y-154681929D01*
X75642502Y-154755587D01*
X75650682Y-154758975D01*
X75699419Y-154781233D01*
X75707333Y-154785195D01*
X75765442Y-154816925D01*
X75785139Y-154807846D01*
X75789608Y-154805891D01*
X75825825Y-154790893D01*
X75830353Y-154789121D01*
X75857963Y-154778936D01*
X75862560Y-154777342D01*
X76101993Y-154699545D01*
X76106653Y-154698131D01*
X76134995Y-154690138D01*
X76139700Y-154688911D01*
X76151594Y-154686055D01*
X77264409Y-154686055D01*
X77276300Y-154688911D01*
X77281005Y-154690138D01*
X77309347Y-154698131D01*
X77314007Y-154699545D01*
X77553440Y-154777342D01*
X77558037Y-154778936D01*
X77585647Y-154789121D01*
X77590175Y-154790893D01*
X77626392Y-154805891D01*
X77630861Y-154807846D01*
X77657636Y-154820189D01*
X77662019Y-154822314D01*
X77886361Y-154936622D01*
X77890654Y-154938917D01*
X77916350Y-154953307D01*
X77920550Y-154955769D01*
X77953973Y-154976250D01*
X77958073Y-154978874D01*
X77978000Y-154992187D01*
X77997927Y-154978874D01*
X78002027Y-154976250D01*
X78035450Y-154955769D01*
X78039650Y-154953307D01*
X78065346Y-154938917D01*
X78069639Y-154936622D01*
X78293981Y-154822314D01*
X78298364Y-154820189D01*
X78325139Y-154807846D01*
X78329608Y-154805891D01*
X78365825Y-154790893D01*
X78370353Y-154789121D01*
X78397963Y-154778936D01*
X78402560Y-154777342D01*
X78641993Y-154699545D01*
X78646653Y-154698131D01*
X78674995Y-154690138D01*
X78679700Y-154688911D01*
X78717817Y-154679758D01*
X78722577Y-154678713D01*
X78731595Y-154676919D01*
X79764409Y-154676919D01*
X79773423Y-154678713D01*
X79778183Y-154679758D01*
X79816300Y-154688911D01*
X79821005Y-154690138D01*
X79849347Y-154698131D01*
X79854007Y-154699545D01*
X80093440Y-154777342D01*
X80098037Y-154778936D01*
X80125647Y-154789121D01*
X80130175Y-154790893D01*
X80166392Y-154805891D01*
X80170861Y-154807846D01*
X80197636Y-154820189D01*
X80202019Y-154822314D01*
X80426361Y-154936622D01*
X80430654Y-154938917D01*
X80456350Y-154953307D01*
X80460550Y-154955769D01*
X80493973Y-154976250D01*
X80498073Y-154978874D01*
X80522568Y-154995240D01*
X80526565Y-154998026D01*
X80730269Y-155146025D01*
X80734157Y-155148968D01*
X80757316Y-155167227D01*
X80761081Y-155170317D01*
X80790888Y-155195778D01*
X80794527Y-155199012D01*
X80816132Y-155218986D01*
X80819636Y-155222356D01*
X80997644Y-155400364D01*
X81001014Y-155403868D01*
X81017777Y-155422000D01*
X81266409Y-155422000D01*
X81266409Y-153920000D01*
X79764409Y-153920000D01*
X79764409Y-154676919D01*
X78731595Y-154676919D01*
X78751477Y-154672964D01*
X78756272Y-154672108D01*
X78766409Y-154670502D01*
X78766409Y-153920000D01*
X77264409Y-153920000D01*
X77264409Y-154686055D01*
X76151594Y-154686055D01*
X76177817Y-154679758D01*
X76182577Y-154678713D01*
X76211477Y-154672964D01*
X76216272Y-154672108D01*
X76266409Y-154664166D01*
X76266409Y-153920000D01*
X74764409Y-153920000D01*
X74764409Y-154623500D01*
X73766409Y-154623500D01*
X73766409Y-153920000D01*
X72264409Y-153920000D01*
X72264409Y-155049114D01*
X71266409Y-155049114D01*
X71266409Y-153920000D01*
X69764409Y-153920000D01*
X69764409Y-155422000D01*
X68766409Y-155422000D01*
X68766409Y-153920000D01*
X67264409Y-153920000D01*
X67264409Y-155422000D01*
X64983504Y-155422000D01*
X64963407Y-153392155D01*
X83344000Y-153392155D01*
X83344000Y-154690000D01*
X84624936Y-154690000D01*
X84613207Y-154718316D01*
X84584000Y-154865147D01*
X84584000Y-155014853D01*
X84613207Y-155161684D01*
X84624936Y-155190000D01*
X83344000Y-155190000D01*
X83344000Y-156487844D01*
X83350401Y-156547372D01*
X83350403Y-156547379D01*
X83400645Y-156682086D01*
X83400649Y-156682093D01*
X83486809Y-156797187D01*
X83486812Y-156797190D01*
X83601906Y-156883350D01*
X83601913Y-156883354D01*
X83736620Y-156933596D01*
X83736627Y-156933598D01*
X83796155Y-156939999D01*
X83796172Y-156940000D01*
X85094000Y-156940000D01*
X85094000Y-155659064D01*
X85122316Y-155670793D01*
X85269147Y-155700000D01*
X85418853Y-155700000D01*
X85565684Y-155670793D01*
X85594000Y-155659064D01*
X85594000Y-156940000D01*
X86891828Y-156940000D01*
X86891844Y-156939999D01*
X86951372Y-156933598D01*
X86951379Y-156933596D01*
X87086086Y-156883354D01*
X87086093Y-156883350D01*
X87201187Y-156797190D01*
X87201190Y-156797187D01*
X87287350Y-156682093D01*
X87287354Y-156682086D01*
X87337596Y-156547379D01*
X87337598Y-156547372D01*
X87343999Y-156487844D01*
X87344000Y-156487827D01*
X87344000Y-155190000D01*
X86063064Y-155190000D01*
X86074793Y-155161684D01*
X86104000Y-155014853D01*
X86104000Y-154865147D01*
X86092806Y-154808872D01*
X88423500Y-154808872D01*
X88423500Y-155071127D01*
X88442967Y-155218986D01*
X88457730Y-155331116D01*
X88482745Y-155424472D01*
X88525602Y-155584418D01*
X88525605Y-155584428D01*
X88625953Y-155826690D01*
X88625958Y-155826700D01*
X88757075Y-156053803D01*
X88916718Y-156261851D01*
X88916726Y-156261860D01*
X89102140Y-156447274D01*
X89102148Y-156447281D01*
X89310196Y-156606924D01*
X89537299Y-156738041D01*
X89537309Y-156738046D01*
X89779571Y-156838394D01*
X89779581Y-156838398D01*
X90032884Y-156906270D01*
X90281188Y-156938960D01*
X90289074Y-156939999D01*
X90292880Y-156940500D01*
X90292887Y-156940500D01*
X90555113Y-156940500D01*
X90555120Y-156940500D01*
X90815116Y-156906270D01*
X91068419Y-156838398D01*
X91290278Y-156746501D01*
X91310690Y-156738046D01*
X91310691Y-156738045D01*
X91310697Y-156738043D01*
X91537803Y-156606924D01*
X91745851Y-156447282D01*
X91745855Y-156447277D01*
X91745860Y-156447274D01*
X91931274Y-156261860D01*
X91931277Y-156261855D01*
X91931282Y-156261851D01*
X92090924Y-156053803D01*
X92222043Y-155826697D01*
X92322398Y-155584419D01*
X92390270Y-155331116D01*
X92424500Y-155071120D01*
X92424500Y-154808880D01*
X92424106Y-154805891D01*
X92417930Y-154758975D01*
X92390270Y-154548884D01*
X92322398Y-154295581D01*
X92310351Y-154266497D01*
X92222046Y-154053309D01*
X92222041Y-154053299D01*
X92145081Y-153920000D01*
X93247054Y-153920000D01*
X93250686Y-153928768D01*
X93252178Y-153932542D01*
X93260835Y-153955544D01*
X93262205Y-153959375D01*
X93272702Y-153990308D01*
X93273941Y-153994165D01*
X93281056Y-154017624D01*
X93282169Y-154021520D01*
X93358491Y-154306357D01*
X93359477Y-154310293D01*
X93365050Y-154334194D01*
X93365907Y-154338162D01*
X93372279Y-154370198D01*
X93373005Y-154374188D01*
X93377004Y-154398408D01*
X93377599Y-154402422D01*
X93416093Y-154694805D01*
X93416556Y-154698833D01*
X93418963Y-154723263D01*
X93419296Y-154727313D01*
X93421432Y-154759910D01*
X93421631Y-154763961D01*
X93422434Y-154788492D01*
X93422500Y-154792549D01*
X93422500Y-155087451D01*
X93422434Y-155091508D01*
X93421631Y-155116039D01*
X93421432Y-155120090D01*
X93419296Y-155152687D01*
X93418963Y-155156737D01*
X93416556Y-155181167D01*
X93416093Y-155185195D01*
X93384916Y-155422000D01*
X93766409Y-155422000D01*
X93766409Y-153920000D01*
X93247054Y-153920000D01*
X92145081Y-153920000D01*
X92090924Y-153826196D01*
X91931281Y-153618148D01*
X91931274Y-153618140D01*
X91745860Y-153432726D01*
X91745851Y-153432718D01*
X91537803Y-153273075D01*
X91310700Y-153141958D01*
X91310690Y-153141953D01*
X91068428Y-153041605D01*
X91068421Y-153041603D01*
X91068419Y-153041602D01*
X90815116Y-152973730D01*
X90757339Y-152966123D01*
X90555127Y-152939500D01*
X90555120Y-152939500D01*
X90292880Y-152939500D01*
X90292872Y-152939500D01*
X90061772Y-152969926D01*
X90032884Y-152973730D01*
X89947364Y-152996645D01*
X89779581Y-153041602D01*
X89779571Y-153041605D01*
X89537309Y-153141953D01*
X89537299Y-153141958D01*
X89310196Y-153273075D01*
X89102148Y-153432718D01*
X88916718Y-153618148D01*
X88757075Y-153826196D01*
X88625958Y-154053299D01*
X88625953Y-154053309D01*
X88525605Y-154295571D01*
X88525602Y-154295581D01*
X88504540Y-154374188D01*
X88457730Y-154548885D01*
X88423500Y-154808872D01*
X86092806Y-154808872D01*
X86074793Y-154718316D01*
X86063064Y-154690000D01*
X87344000Y-154690000D01*
X87344000Y-153392172D01*
X87343999Y-153392155D01*
X87337598Y-153332627D01*
X87337596Y-153332620D01*
X87287354Y-153197913D01*
X87287350Y-153197906D01*
X87201190Y-153082812D01*
X87201187Y-153082809D01*
X87086093Y-152996649D01*
X87086086Y-152996645D01*
X86951379Y-152946403D01*
X86951372Y-152946401D01*
X86891844Y-152940000D01*
X85594000Y-152940000D01*
X85594000Y-154220935D01*
X85565684Y-154209207D01*
X85418853Y-154180000D01*
X85269147Y-154180000D01*
X85122316Y-154209207D01*
X85094000Y-154220935D01*
X85094000Y-152940000D01*
X83796155Y-152940000D01*
X83736627Y-152946401D01*
X83736620Y-152946403D01*
X83601913Y-152996645D01*
X83601906Y-152996649D01*
X83486812Y-153082809D01*
X83486809Y-153082812D01*
X83400649Y-153197906D01*
X83400645Y-153197913D01*
X83350403Y-153332620D01*
X83350401Y-153332627D01*
X83344000Y-153392155D01*
X64963407Y-153392155D01*
X64958752Y-152922000D01*
X67264409Y-152922000D01*
X68766409Y-152922000D01*
X69764409Y-152922000D01*
X71266409Y-152922000D01*
X72264409Y-152922000D01*
X73766409Y-152922000D01*
X74764409Y-152922000D01*
X76266409Y-152922000D01*
X77264409Y-152922000D01*
X78766409Y-152922000D01*
X79764409Y-152922000D01*
X81266409Y-152922000D01*
X82264409Y-152922000D01*
X82438398Y-152922000D01*
X82478030Y-152815739D01*
X82481419Y-152807559D01*
X82503677Y-152758823D01*
X82507638Y-152750909D01*
X82541815Y-152688319D01*
X82546333Y-152680705D01*
X82575297Y-152635638D01*
X82580345Y-152628368D01*
X82709243Y-152456184D01*
X82714796Y-152449293D01*
X82749876Y-152408808D01*
X82755908Y-152402329D01*
X82806329Y-152351908D01*
X82812808Y-152345876D01*
X82853293Y-152310796D01*
X82860184Y-152305243D01*
X83032368Y-152176345D01*
X83039638Y-152171297D01*
X83084705Y-152142333D01*
X83092319Y-152137815D01*
X83154909Y-152103638D01*
X83162823Y-152099677D01*
X83211559Y-152077419D01*
X83219739Y-152074030D01*
X83417096Y-152000421D01*
X83423592Y-151998227D01*
X87264409Y-151998227D01*
X87270904Y-152000421D01*
X87468261Y-152074030D01*
X87476441Y-152077419D01*
X87525177Y-152099677D01*
X87533091Y-152103638D01*
X87595681Y-152137815D01*
X87603295Y-152142333D01*
X87648362Y-152171297D01*
X87655632Y-152176345D01*
X87827816Y-152305243D01*
X87834707Y-152310796D01*
X87875192Y-152345876D01*
X87881671Y-152351908D01*
X87932092Y-152402329D01*
X87938124Y-152408808D01*
X87973204Y-152449293D01*
X87978757Y-152456184D01*
X88107655Y-152628368D01*
X88112703Y-152635638D01*
X88141667Y-152680705D01*
X88146185Y-152688319D01*
X88180362Y-152750909D01*
X88184323Y-152758823D01*
X88206581Y-152807559D01*
X88209970Y-152815739D01*
X88236530Y-152886951D01*
X88408018Y-152715464D01*
X88410937Y-152712638D01*
X88428880Y-152695834D01*
X88431893Y-152693104D01*
X88456453Y-152671570D01*
X88459540Y-152668951D01*
X88478484Y-152653405D01*
X88481659Y-152650886D01*
X88583592Y-152572669D01*
X92264409Y-152572669D01*
X92366341Y-152650886D01*
X92369516Y-152653405D01*
X92388460Y-152668951D01*
X92391547Y-152671570D01*
X92416107Y-152693104D01*
X92419120Y-152695834D01*
X92437063Y-152712638D01*
X92439982Y-152715464D01*
X92646518Y-152922000D01*
X93766409Y-152922000D01*
X93766409Y-152508000D01*
X93057786Y-152508000D01*
X92990747Y-152488315D01*
X92970105Y-152471681D01*
X92384319Y-151885895D01*
X92350834Y-151824572D01*
X92348000Y-151798214D01*
X92348000Y-151420000D01*
X92264409Y-151420000D01*
X92264409Y-152572669D01*
X88583592Y-152572669D01*
X88715605Y-152471371D01*
X88718865Y-152468953D01*
X88738815Y-152454657D01*
X88742150Y-152452349D01*
X88766409Y-152436139D01*
X88766409Y-152012461D01*
X89764409Y-152012461D01*
X89790357Y-152005509D01*
X89794293Y-152004523D01*
X89818194Y-151998950D01*
X89822162Y-151998093D01*
X89854198Y-151991721D01*
X89858188Y-151990995D01*
X89882408Y-151986996D01*
X89886422Y-151986401D01*
X90178805Y-151947907D01*
X90182833Y-151947444D01*
X90207263Y-151945037D01*
X90211313Y-151944704D01*
X90243910Y-151942568D01*
X90247961Y-151942369D01*
X90272492Y-151941566D01*
X90276549Y-151941500D01*
X90571451Y-151941500D01*
X90575508Y-151941566D01*
X90600039Y-151942369D01*
X90604090Y-151942568D01*
X90636687Y-151944704D01*
X90640737Y-151945037D01*
X90665167Y-151947444D01*
X90669195Y-151947907D01*
X90961578Y-151986401D01*
X90965592Y-151986996D01*
X90989812Y-151990995D01*
X90993802Y-151991721D01*
X91025838Y-151998093D01*
X91029806Y-151998950D01*
X91053707Y-152004523D01*
X91057643Y-152005509D01*
X91266409Y-152061447D01*
X91266409Y-151420000D01*
X89764409Y-151420000D01*
X89764409Y-152012461D01*
X88766409Y-152012461D01*
X88766409Y-151420000D01*
X87264409Y-151420000D01*
X87264409Y-151998227D01*
X83423592Y-151998227D01*
X83424436Y-151997942D01*
X83469305Y-151984332D01*
X83476788Y-151982315D01*
X83537499Y-151967972D01*
X83545084Y-151966428D01*
X83591262Y-151958522D01*
X83598931Y-151957455D01*
X83702783Y-151946289D01*
X83706095Y-151945977D01*
X83726144Y-151944364D01*
X83729458Y-151944142D01*
X83756145Y-151942713D01*
X83759461Y-151942580D01*
X83766409Y-151942394D01*
X83766409Y-151942000D01*
X84764409Y-151942000D01*
X85294546Y-151942000D01*
X85341998Y-151951439D01*
X85344000Y-151952268D01*
X85346002Y-151951439D01*
X85393454Y-151942000D01*
X86266409Y-151942000D01*
X86266409Y-151420000D01*
X84764409Y-151420000D01*
X84764409Y-151942000D01*
X83766409Y-151942000D01*
X83766409Y-151420000D01*
X82264409Y-151420000D01*
X82264409Y-152922000D01*
X81266409Y-152922000D01*
X81266409Y-151420000D01*
X79764409Y-151420000D01*
X79764409Y-152922000D01*
X78766409Y-152922000D01*
X78766409Y-151420000D01*
X77264409Y-151420000D01*
X77264409Y-152922000D01*
X76266409Y-152922000D01*
X76266409Y-151420000D01*
X74764409Y-151420000D01*
X74764409Y-152922000D01*
X73766409Y-152922000D01*
X73766409Y-151420000D01*
X72264409Y-151420000D01*
X72264409Y-152922000D01*
X71266409Y-152922000D01*
X71266409Y-151420000D01*
X69764409Y-151420000D01*
X69764409Y-152922000D01*
X68766409Y-152922000D01*
X68766409Y-151420000D01*
X67264409Y-151420000D01*
X67264409Y-152922000D01*
X64958752Y-152922000D01*
X64933999Y-150422000D01*
X67264409Y-150422000D01*
X68197431Y-150422000D01*
X74764409Y-150422000D01*
X76266409Y-150422000D01*
X77264409Y-150422000D01*
X78766409Y-150422000D01*
X79764409Y-150422000D01*
X81266409Y-150422000D01*
X82264409Y-150422000D01*
X83766409Y-150422000D01*
X84764409Y-150422000D01*
X86266409Y-150422000D01*
X87264409Y-150422000D01*
X88766409Y-150422000D01*
X89764409Y-150422000D01*
X91266409Y-150422000D01*
X91266409Y-148920000D01*
X89764409Y-148920000D01*
X89764409Y-150422000D01*
X88766409Y-150422000D01*
X88766409Y-148920000D01*
X87264409Y-148920000D01*
X87264409Y-150422000D01*
X86266409Y-150422000D01*
X86266409Y-148920000D01*
X84764409Y-148920000D01*
X84764409Y-150422000D01*
X83766409Y-150422000D01*
X83766409Y-148920000D01*
X82264409Y-148920000D01*
X82264409Y-150422000D01*
X81266409Y-150422000D01*
X81266409Y-148920000D01*
X79764409Y-148920000D01*
X79764409Y-150422000D01*
X78766409Y-150422000D01*
X78766409Y-148920000D01*
X77264409Y-148920000D01*
X77264409Y-150422000D01*
X76266409Y-150422000D01*
X76266409Y-148920000D01*
X74764409Y-148920000D01*
X74764409Y-150422000D01*
X68197431Y-150422000D01*
X68158494Y-150383063D01*
X68155124Y-150379559D01*
X68135150Y-150357954D01*
X68131916Y-150354315D01*
X68106455Y-150324508D01*
X68103365Y-150320743D01*
X68085106Y-150297584D01*
X68082163Y-150293696D01*
X67938790Y-150096358D01*
X67936005Y-150092363D01*
X67919639Y-150067869D01*
X67917014Y-150063767D01*
X67896533Y-150030344D01*
X67894071Y-150026144D01*
X67879681Y-150000448D01*
X67877386Y-149996155D01*
X67766651Y-149778827D01*
X67764525Y-149774443D01*
X67752182Y-149747667D01*
X67750228Y-149743200D01*
X67735230Y-149706984D01*
X67733457Y-149702453D01*
X67723273Y-149674844D01*
X67721680Y-149670250D01*
X67646308Y-149438283D01*
X67644894Y-149433620D01*
X67636891Y-149405241D01*
X67635660Y-149400522D01*
X67626512Y-149362403D01*
X67625470Y-149357652D01*
X67619730Y-149328789D01*
X67618875Y-149324001D01*
X67580723Y-149083125D01*
X67580055Y-149078301D01*
X67576595Y-149049067D01*
X67576119Y-149044230D01*
X67573041Y-149005151D01*
X67572754Y-149000286D01*
X67571596Y-148970834D01*
X67571500Y-148965962D01*
X67571500Y-148920000D01*
X67264409Y-148920000D01*
X67264409Y-150422000D01*
X64933999Y-150422000D01*
X64917362Y-148741648D01*
X68569500Y-148741648D01*
X68569500Y-148946351D01*
X68601522Y-149148534D01*
X68664781Y-149343223D01*
X68728691Y-149468653D01*
X68757585Y-149525359D01*
X68757715Y-149525613D01*
X68878028Y-149691213D01*
X69022786Y-149835971D01*
X69143226Y-149923474D01*
X69188390Y-149956287D01*
X69275061Y-150000448D01*
X69370776Y-150049218D01*
X69370778Y-150049218D01*
X69370781Y-150049220D01*
X69428177Y-150067869D01*
X69565465Y-150112477D01*
X69666557Y-150128488D01*
X69767648Y-150144500D01*
X69767649Y-150144500D01*
X69972351Y-150144500D01*
X69972352Y-150144500D01*
X70174534Y-150112477D01*
X70369219Y-150049220D01*
X70551610Y-149956287D01*
X70644590Y-149888732D01*
X70717213Y-149835971D01*
X70717215Y-149835968D01*
X70717219Y-149835966D01*
X70861966Y-149691219D01*
X70861968Y-149691215D01*
X70861971Y-149691213D01*
X70982286Y-149525611D01*
X70982415Y-149525359D01*
X71009795Y-149471621D01*
X71057769Y-149420826D01*
X71125589Y-149404030D01*
X71191725Y-149426567D01*
X71230765Y-149471621D01*
X71258141Y-149525350D01*
X71258147Y-149525359D01*
X71290523Y-149569921D01*
X71290524Y-149569922D01*
X71970000Y-148890446D01*
X71970000Y-148896661D01*
X71997259Y-148998394D01*
X72049920Y-149089606D01*
X72124394Y-149164080D01*
X72215606Y-149216741D01*
X72317339Y-149244000D01*
X72323553Y-149244000D01*
X71644076Y-149923474D01*
X71688650Y-149955859D01*
X71870968Y-150048755D01*
X72065582Y-150111990D01*
X72267683Y-150144000D01*
X72472317Y-150144000D01*
X72674417Y-150111990D01*
X72869031Y-150048755D01*
X73051349Y-149955859D01*
X73095921Y-149923474D01*
X72416447Y-149244000D01*
X72422661Y-149244000D01*
X72524394Y-149216741D01*
X72615606Y-149164080D01*
X72690080Y-149089606D01*
X72742741Y-148998394D01*
X72770000Y-148896661D01*
X72770000Y-148890447D01*
X73449474Y-149569921D01*
X73481859Y-149525349D01*
X73574755Y-149343031D01*
X73637990Y-149148417D01*
X73670000Y-148946317D01*
X73670000Y-148741682D01*
X73637990Y-148539582D01*
X73574755Y-148344968D01*
X73481859Y-148162650D01*
X73449474Y-148118077D01*
X73449474Y-148118076D01*
X72770000Y-148797551D01*
X72770000Y-148791339D01*
X72742741Y-148689606D01*
X72690080Y-148598394D01*
X72615606Y-148523920D01*
X72524394Y-148471259D01*
X72422661Y-148444000D01*
X72416446Y-148444000D01*
X72938446Y-147922000D01*
X74764409Y-147922000D01*
X76266409Y-147922000D01*
X77264409Y-147922000D01*
X78766409Y-147922000D01*
X79764409Y-147922000D01*
X81266409Y-147922000D01*
X82264409Y-147922000D01*
X83766409Y-147922000D01*
X87830869Y-147922000D01*
X88766409Y-147922000D01*
X88766409Y-146420000D01*
X88557962Y-146420000D01*
X88557905Y-146422897D01*
X88556750Y-146452311D01*
X88556463Y-146457169D01*
X88553389Y-146496250D01*
X88552912Y-146501095D01*
X88549449Y-146530367D01*
X88548781Y-146535198D01*
X88513099Y-146760475D01*
X88512244Y-146765264D01*
X88506502Y-146794135D01*
X88505460Y-146798886D01*
X88496312Y-146837001D01*
X88495081Y-146841718D01*
X88487081Y-146870086D01*
X88485667Y-146874748D01*
X88415181Y-147091683D01*
X88413585Y-147096284D01*
X88403386Y-147123929D01*
X88401611Y-147128465D01*
X88386609Y-147164681D01*
X88384659Y-147169139D01*
X88372330Y-147195883D01*
X88370205Y-147200265D01*
X88266656Y-147403489D01*
X88264359Y-147407786D01*
X88249962Y-147433492D01*
X88247501Y-147437691D01*
X88227017Y-147471117D01*
X88224391Y-147475219D01*
X88208026Y-147499710D01*
X88205242Y-147503704D01*
X88044947Y-147724323D01*
X88005217Y-147759627D01*
X87883685Y-147827685D01*
X87830869Y-147922000D01*
X83766409Y-147922000D01*
X83766409Y-147311882D01*
X85705669Y-147311882D01*
X85705670Y-147311883D01*
X85731059Y-147330329D01*
X85899362Y-147416085D01*
X86078997Y-147474451D01*
X86265553Y-147504000D01*
X86454447Y-147504000D01*
X86641002Y-147474451D01*
X86820637Y-147416085D01*
X86988937Y-147330331D01*
X87014328Y-147311883D01*
X87014328Y-147311882D01*
X86360001Y-146657554D01*
X86360000Y-146657554D01*
X85705669Y-147311882D01*
X83766409Y-147311882D01*
X83766409Y-146420000D01*
X82264409Y-146420000D01*
X82264409Y-147922000D01*
X81266409Y-147922000D01*
X81266409Y-146420000D01*
X79764409Y-146420000D01*
X79764409Y-147922000D01*
X78766409Y-147922000D01*
X78766409Y-146420000D01*
X77264409Y-146420000D01*
X77264409Y-147922000D01*
X76266409Y-147922000D01*
X76266409Y-146420000D01*
X74764409Y-146420000D01*
X74764409Y-147922000D01*
X72938446Y-147922000D01*
X73095922Y-147764524D01*
X73095921Y-147764523D01*
X73051359Y-147732147D01*
X73051350Y-147732141D01*
X72869031Y-147639244D01*
X72674417Y-147576009D01*
X72472317Y-147544000D01*
X72267683Y-147544000D01*
X72065582Y-147576009D01*
X71870968Y-147639244D01*
X71688644Y-147732143D01*
X71644077Y-147764523D01*
X71644077Y-147764524D01*
X72323554Y-148444000D01*
X72317339Y-148444000D01*
X72215606Y-148471259D01*
X72124394Y-148523920D01*
X72049920Y-148598394D01*
X71997259Y-148689606D01*
X71970000Y-148791339D01*
X71970000Y-148797553D01*
X71290524Y-148118077D01*
X71290523Y-148118077D01*
X71258143Y-148162644D01*
X71230765Y-148216378D01*
X71182790Y-148267174D01*
X71114969Y-148283969D01*
X71048834Y-148261431D01*
X71009795Y-148216378D01*
X70982284Y-148162385D01*
X70861971Y-147996786D01*
X70717213Y-147852028D01*
X70551613Y-147731715D01*
X70551612Y-147731714D01*
X70551610Y-147731713D01*
X70473365Y-147691845D01*
X70369223Y-147638781D01*
X70174534Y-147575522D01*
X69999995Y-147547878D01*
X69972352Y-147543500D01*
X69767648Y-147543500D01*
X69743329Y-147547351D01*
X69565465Y-147575522D01*
X69370776Y-147638781D01*
X69188386Y-147731715D01*
X69022786Y-147852028D01*
X68878028Y-147996786D01*
X68757715Y-148162386D01*
X68664781Y-148344776D01*
X68601522Y-148539465D01*
X68569500Y-148741648D01*
X64917362Y-148741648D01*
X64909247Y-147922000D01*
X67264409Y-147922000D01*
X67760633Y-147922000D01*
X67764525Y-147913557D01*
X67766651Y-147909173D01*
X67877386Y-147691845D01*
X67879681Y-147687552D01*
X67894071Y-147661856D01*
X67896533Y-147657656D01*
X67917014Y-147624233D01*
X67919639Y-147620131D01*
X67936005Y-147595637D01*
X67938790Y-147591642D01*
X68082163Y-147394304D01*
X68085106Y-147390416D01*
X68103365Y-147367257D01*
X68106455Y-147363492D01*
X68131916Y-147333685D01*
X68135150Y-147330046D01*
X68155124Y-147308441D01*
X68158494Y-147304937D01*
X68330937Y-147132494D01*
X68334441Y-147129124D01*
X68356046Y-147109150D01*
X68359685Y-147105916D01*
X68389492Y-147080455D01*
X68393257Y-147077365D01*
X68416416Y-147059106D01*
X68420304Y-147056163D01*
X68617642Y-146912790D01*
X68621637Y-146910005D01*
X68646131Y-146893639D01*
X68650233Y-146891014D01*
X68683656Y-146870533D01*
X68687856Y-146868071D01*
X68713552Y-146853681D01*
X68717844Y-146851387D01*
X68766409Y-146826641D01*
X68766409Y-146546000D01*
X72264409Y-146546000D01*
X72491902Y-146546000D01*
X72496767Y-146546095D01*
X72526181Y-146547250D01*
X72531040Y-146547537D01*
X72570120Y-146550611D01*
X72574964Y-146551088D01*
X72604237Y-146554551D01*
X72609067Y-146555219D01*
X72849885Y-146593362D01*
X72854674Y-146594217D01*
X72883536Y-146599957D01*
X72888286Y-146600999D01*
X72926405Y-146610147D01*
X72931124Y-146611378D01*
X72959503Y-146619381D01*
X72964166Y-146620795D01*
X73196058Y-146696143D01*
X73200652Y-146697736D01*
X73228261Y-146707920D01*
X73232792Y-146709693D01*
X73269008Y-146724691D01*
X73273476Y-146726646D01*
X73300251Y-146738989D01*
X73304634Y-146741114D01*
X73521884Y-146851808D01*
X73526175Y-146854102D01*
X73551854Y-146868482D01*
X73556049Y-146870940D01*
X73589474Y-146891419D01*
X73593583Y-146894049D01*
X73618095Y-146910427D01*
X73622090Y-146913212D01*
X73766409Y-147018064D01*
X73766409Y-146420000D01*
X72264409Y-146420000D01*
X72264409Y-146546000D01*
X68766409Y-146546000D01*
X68766409Y-146420000D01*
X67264409Y-146420000D01*
X67264409Y-147922000D01*
X64909247Y-147922000D01*
X64892292Y-146209552D01*
X85160000Y-146209552D01*
X85160000Y-146398447D01*
X85189548Y-146585002D01*
X85247914Y-146764637D01*
X85333666Y-146932933D01*
X85352116Y-146958328D01*
X86006446Y-146304000D01*
X86006446Y-146303999D01*
X85960369Y-146257922D01*
X86010000Y-146257922D01*
X86010000Y-146350078D01*
X86033852Y-146439095D01*
X86079930Y-146518905D01*
X86145095Y-146584070D01*
X86224905Y-146630148D01*
X86313922Y-146654000D01*
X86406078Y-146654000D01*
X86495095Y-146630148D01*
X86574905Y-146584070D01*
X86640070Y-146518905D01*
X86686148Y-146439095D01*
X86710000Y-146350078D01*
X86710000Y-146303999D01*
X86713554Y-146303999D01*
X86713554Y-146304000D01*
X87367882Y-146958328D01*
X87367883Y-146958328D01*
X87386331Y-146932937D01*
X87472085Y-146764637D01*
X87530451Y-146585002D01*
X87560000Y-146398447D01*
X87560000Y-146209552D01*
X87559994Y-146209513D01*
X90239500Y-146209513D01*
X90239500Y-146398486D01*
X90269059Y-146585118D01*
X90327454Y-146764836D01*
X90391952Y-146891419D01*
X90413240Y-146933199D01*
X90524310Y-147086073D01*
X90657927Y-147219690D01*
X90810801Y-147330760D01*
X90882431Y-147367257D01*
X90979163Y-147416545D01*
X90979165Y-147416545D01*
X90979168Y-147416547D01*
X91044242Y-147437691D01*
X91158881Y-147474940D01*
X91345514Y-147504500D01*
X91345519Y-147504500D01*
X91534486Y-147504500D01*
X91721118Y-147474940D01*
X91732884Y-147471117D01*
X91900832Y-147416547D01*
X92069199Y-147330760D01*
X92222073Y-147219690D01*
X92355690Y-147086073D01*
X92466760Y-146933199D01*
X92552547Y-146764832D01*
X92610940Y-146585118D01*
X92611106Y-146584070D01*
X92640500Y-146398486D01*
X92640500Y-146209513D01*
X92610940Y-146022881D01*
X92552545Y-145843163D01*
X92507290Y-145754347D01*
X92466760Y-145674801D01*
X92355690Y-145521927D01*
X92222073Y-145388310D01*
X92069199Y-145277240D01*
X91900836Y-145191454D01*
X91721118Y-145133059D01*
X91534486Y-145103500D01*
X91534481Y-145103500D01*
X91345519Y-145103500D01*
X91345514Y-145103500D01*
X91158881Y-145133059D01*
X90979163Y-145191454D01*
X90810800Y-145277240D01*
X90723579Y-145340610D01*
X90657927Y-145388310D01*
X90657925Y-145388312D01*
X90657924Y-145388312D01*
X90524312Y-145521924D01*
X90524312Y-145521925D01*
X90524310Y-145521927D01*
X90476610Y-145587579D01*
X90413240Y-145674800D01*
X90327454Y-145843163D01*
X90269059Y-146022881D01*
X90239500Y-146209513D01*
X87559994Y-146209513D01*
X87530451Y-146022997D01*
X87472085Y-145843362D01*
X87386329Y-145675059D01*
X87367883Y-145649670D01*
X87367882Y-145649669D01*
X86713554Y-146303999D01*
X86710000Y-146303999D01*
X86710000Y-146257922D01*
X86686148Y-146168905D01*
X86640070Y-146089095D01*
X86574905Y-146023930D01*
X86495095Y-145977852D01*
X86406078Y-145954000D01*
X86313922Y-145954000D01*
X86224905Y-145977852D01*
X86145095Y-146023930D01*
X86079930Y-146089095D01*
X86033852Y-146168905D01*
X86010000Y-146257922D01*
X85960369Y-146257922D01*
X85352116Y-145649669D01*
X85352116Y-145649670D01*
X85333669Y-145675060D01*
X85247914Y-145843362D01*
X85189548Y-146022997D01*
X85160000Y-146209552D01*
X64892292Y-146209552D01*
X64884494Y-145422000D01*
X67264409Y-145422000D01*
X68766409Y-145422000D01*
X68766409Y-145301095D01*
X68543785Y-145078471D01*
X68539587Y-145074062D01*
X68514856Y-145046775D01*
X68510881Y-145042167D01*
X68479792Y-145004284D01*
X68479552Y-145003977D01*
X77264409Y-145003977D01*
X77264409Y-145422000D01*
X78766409Y-145422000D01*
X79764409Y-145422000D01*
X81266409Y-145422000D01*
X82264409Y-145422000D01*
X83766409Y-145422000D01*
X83766409Y-145296116D01*
X85705669Y-145296116D01*
X86360000Y-145950446D01*
X86360001Y-145950446D01*
X87014328Y-145296116D01*
X86988933Y-145277666D01*
X86820637Y-145191914D01*
X86641002Y-145133548D01*
X86454447Y-145104000D01*
X86265553Y-145104000D01*
X86078997Y-145133548D01*
X85899362Y-145191914D01*
X85731060Y-145277669D01*
X85705670Y-145296116D01*
X85705669Y-145296116D01*
X83766409Y-145296116D01*
X83766409Y-144820583D01*
X84764409Y-144820583D01*
X84836312Y-144780312D01*
X84904395Y-144658750D01*
X84939701Y-144619022D01*
X85160336Y-144458731D01*
X85164330Y-144455947D01*
X85188828Y-144439579D01*
X85192932Y-144436952D01*
X85226350Y-144416476D01*
X85230546Y-144414017D01*
X85256229Y-144399634D01*
X85260522Y-144397339D01*
X85455591Y-144297945D01*
X87264409Y-144297945D01*
X87459493Y-144397347D01*
X87463788Y-144399643D01*
X87489500Y-144414043D01*
X87493702Y-144416506D01*
X87527123Y-144436988D01*
X87531224Y-144439613D01*
X87555701Y-144455969D01*
X87559692Y-144458750D01*
X87780309Y-144619035D01*
X87815613Y-144658764D01*
X87883683Y-144780311D01*
X88005232Y-144848382D01*
X88044961Y-144883686D01*
X88205255Y-145104314D01*
X88208041Y-145108311D01*
X88224407Y-145132806D01*
X88227031Y-145136906D01*
X88247512Y-145170329D01*
X88249973Y-145174528D01*
X88264363Y-145200223D01*
X88266659Y-145204517D01*
X88370205Y-145407735D01*
X88372330Y-145412117D01*
X88376886Y-145422000D01*
X88766409Y-145422000D01*
X88766409Y-144874967D01*
X89764409Y-144874967D01*
X89778158Y-144858870D01*
X89781393Y-144855230D01*
X89801386Y-144833602D01*
X89804760Y-144830093D01*
X89966093Y-144668760D01*
X89969602Y-144665386D01*
X89991230Y-144645393D01*
X89994870Y-144642158D01*
X90024677Y-144616700D01*
X90028440Y-144613612D01*
X90051573Y-144595375D01*
X90055456Y-144592435D01*
X90240047Y-144458320D01*
X90244045Y-144455534D01*
X90268543Y-144439166D01*
X90272642Y-144436542D01*
X90306066Y-144416060D01*
X90310264Y-144413599D01*
X90335960Y-144399208D01*
X90340257Y-144396912D01*
X90543562Y-144293324D01*
X90547944Y-144291199D01*
X90574719Y-144278856D01*
X90579187Y-144276901D01*
X90615403Y-144261903D01*
X90619933Y-144260131D01*
X90647541Y-144249947D01*
X90652136Y-144248353D01*
X90869132Y-144177845D01*
X90873796Y-144176430D01*
X90902176Y-144168427D01*
X90906894Y-144167197D01*
X90945013Y-144158049D01*
X90949763Y-144157007D01*
X90978625Y-144151267D01*
X90983414Y-144150412D01*
X91208765Y-144114719D01*
X91213595Y-144114051D01*
X91242867Y-144110588D01*
X91247711Y-144110111D01*
X91266409Y-144108640D01*
X91266409Y-143920000D01*
X89764409Y-143920000D01*
X89764409Y-144874967D01*
X88766409Y-144874967D01*
X88766409Y-143920000D01*
X87264409Y-143920000D01*
X87264409Y-144297945D01*
X85455591Y-144297945D01*
X85463734Y-144293796D01*
X85468112Y-144291673D01*
X85494856Y-144279343D01*
X85499319Y-144277390D01*
X85535536Y-144262388D01*
X85540071Y-144260614D01*
X85567716Y-144250415D01*
X85572317Y-144248819D01*
X85789252Y-144178333D01*
X85793914Y-144176919D01*
X85822282Y-144168919D01*
X85826999Y-144167688D01*
X85865114Y-144158540D01*
X85869865Y-144157498D01*
X85898736Y-144151756D01*
X85903525Y-144150901D01*
X86128802Y-144115219D01*
X86133633Y-144114551D01*
X86162905Y-144111088D01*
X86167750Y-144110611D01*
X86206831Y-144107537D01*
X86211689Y-144107250D01*
X86241103Y-144106095D01*
X86245968Y-144106000D01*
X86266409Y-144106000D01*
X86266409Y-143920000D01*
X84764409Y-143920000D01*
X84764409Y-144820583D01*
X83766409Y-144820583D01*
X83766409Y-143920000D01*
X82264409Y-143920000D01*
X82264409Y-145422000D01*
X81266409Y-145422000D01*
X81266409Y-143920000D01*
X79764409Y-143920000D01*
X79764409Y-145422000D01*
X78766409Y-145422000D01*
X78766409Y-143920000D01*
X78377860Y-143920000D01*
X78323044Y-144027583D01*
X78320749Y-144031876D01*
X78306359Y-144057572D01*
X78303897Y-144061773D01*
X78283415Y-144095197D01*
X78280790Y-144099298D01*
X78264422Y-144123795D01*
X78261637Y-144127791D01*
X78104162Y-144344536D01*
X78101222Y-144348419D01*
X78082984Y-144371553D01*
X78079896Y-144375316D01*
X78054438Y-144405123D01*
X78051203Y-144408763D01*
X78031210Y-144430391D01*
X78027836Y-144433900D01*
X77838400Y-144623336D01*
X77834891Y-144626710D01*
X77813263Y-144646703D01*
X77809623Y-144649938D01*
X77779816Y-144675396D01*
X77776053Y-144678484D01*
X77752919Y-144696722D01*
X77749036Y-144699662D01*
X77532291Y-144857137D01*
X77528295Y-144859922D01*
X77503798Y-144876290D01*
X77499697Y-144878915D01*
X77466273Y-144899397D01*
X77462072Y-144901859D01*
X77436376Y-144916249D01*
X77432083Y-144918544D01*
X77264409Y-145003977D01*
X68479552Y-145003977D01*
X68476049Y-144999487D01*
X68454116Y-144969914D01*
X68450611Y-144964938D01*
X68349458Y-144813552D01*
X68346201Y-144808408D01*
X68327266Y-144776816D01*
X68324266Y-144771520D01*
X68301165Y-144728299D01*
X68298428Y-144722863D01*
X68282689Y-144689584D01*
X68280224Y-144684022D01*
X68210552Y-144515821D01*
X68208362Y-144510143D01*
X68195959Y-144475480D01*
X68194050Y-144469703D01*
X68179823Y-144422807D01*
X68178199Y-144416937D01*
X68169250Y-144381209D01*
X68167917Y-144375272D01*
X68132396Y-144196696D01*
X68131355Y-144190701D01*
X68125951Y-144154274D01*
X68125206Y-144148231D01*
X68120403Y-144099461D01*
X68119955Y-144093390D01*
X68118149Y-144056615D01*
X68118000Y-144050533D01*
X68118000Y-143920000D01*
X67264409Y-143920000D01*
X67264409Y-145422000D01*
X64884494Y-145422000D01*
X64844870Y-141420000D01*
X65968926Y-141420000D01*
X65983797Y-142922000D01*
X66266409Y-142922000D01*
X67264409Y-142922000D01*
X68118000Y-142922000D01*
X68118000Y-141420000D01*
X67264409Y-141420000D01*
X67264409Y-142922000D01*
X66266409Y-142922000D01*
X66266409Y-141420000D01*
X65968926Y-141420000D01*
X64844870Y-141420000D01*
X64840335Y-140961964D01*
X69116000Y-140961964D01*
X69116000Y-144026035D01*
X69141957Y-144156528D01*
X69141959Y-144156536D01*
X69192878Y-144279465D01*
X69192883Y-144279475D01*
X69266804Y-144390105D01*
X69266807Y-144390109D01*
X69525390Y-144648692D01*
X69525398Y-144648698D01*
X69636020Y-144722613D01*
X69636023Y-144722614D01*
X69636031Y-144722620D01*
X69636037Y-144722622D01*
X69636038Y-144722623D01*
X69649741Y-144728299D01*
X69758964Y-144773540D01*
X69758968Y-144773540D01*
X69758969Y-144773541D01*
X69889466Y-144799500D01*
X69889469Y-144799500D01*
X74890532Y-144799500D01*
X74890533Y-144799499D01*
X75021036Y-144773541D01*
X75143969Y-144722620D01*
X75254606Y-144648695D01*
X75678338Y-144224961D01*
X75739657Y-144191479D01*
X75804332Y-144194713D01*
X75859755Y-144212722D01*
X76085646Y-144248500D01*
X76085647Y-144248500D01*
X76314353Y-144248500D01*
X76314354Y-144248500D01*
X76540245Y-144212722D01*
X76540248Y-144212721D01*
X76540249Y-144212721D01*
X76757755Y-144142049D01*
X76757755Y-144142048D01*
X76757758Y-144142048D01*
X76961538Y-144038217D01*
X77146566Y-143903786D01*
X77308286Y-143742066D01*
X77442717Y-143557038D01*
X77546548Y-143353258D01*
X77617222Y-143135745D01*
X77651076Y-142922000D01*
X79764409Y-142922000D01*
X81266409Y-142922000D01*
X82264409Y-142922000D01*
X83766409Y-142922000D01*
X83766409Y-142722614D01*
X87264409Y-142722614D01*
X87264409Y-142922000D01*
X88766409Y-142922000D01*
X89764409Y-142922000D01*
X91266409Y-142922000D01*
X91266409Y-142911359D01*
X91247711Y-142909889D01*
X91242867Y-142909412D01*
X91213595Y-142905949D01*
X91208765Y-142905281D01*
X90983414Y-142869588D01*
X90978625Y-142868733D01*
X90949763Y-142862993D01*
X90945013Y-142861951D01*
X90906894Y-142852803D01*
X90902176Y-142851573D01*
X90873796Y-142843570D01*
X90869132Y-142842155D01*
X90652136Y-142771647D01*
X90647541Y-142770053D01*
X90619933Y-142759869D01*
X90615403Y-142758097D01*
X90579187Y-142743099D01*
X90574719Y-142741144D01*
X90547944Y-142728801D01*
X90543562Y-142726676D01*
X90340257Y-142623088D01*
X90335960Y-142620792D01*
X90310264Y-142606401D01*
X90306066Y-142603940D01*
X90272642Y-142583458D01*
X90268543Y-142580834D01*
X90244045Y-142564466D01*
X90240047Y-142561680D01*
X90055456Y-142427565D01*
X90051573Y-142424625D01*
X90028440Y-142406388D01*
X90024677Y-142403300D01*
X89994870Y-142377842D01*
X89991230Y-142374607D01*
X89969602Y-142354614D01*
X89966093Y-142351240D01*
X89804760Y-142189907D01*
X89801386Y-142186398D01*
X89781393Y-142164770D01*
X89778158Y-142161130D01*
X89764409Y-142145032D01*
X89764409Y-142922000D01*
X88766409Y-142922000D01*
X88766409Y-141420000D01*
X88442897Y-141420000D01*
X88415647Y-141503864D01*
X88414053Y-141508459D01*
X88403869Y-141536067D01*
X88402097Y-141540597D01*
X88387099Y-141576813D01*
X88385144Y-141581281D01*
X88372801Y-141608056D01*
X88370676Y-141612438D01*
X88267088Y-141815743D01*
X88264792Y-141820040D01*
X88250401Y-141845736D01*
X88247940Y-141849934D01*
X88227458Y-141883358D01*
X88224834Y-141887457D01*
X88208466Y-141911955D01*
X88205680Y-141915953D01*
X88071565Y-142100544D01*
X88068625Y-142104427D01*
X88050388Y-142127560D01*
X88047300Y-142131323D01*
X88021842Y-142161130D01*
X88018607Y-142164770D01*
X87998614Y-142186398D01*
X87995240Y-142189907D01*
X87833907Y-142351240D01*
X87830398Y-142354614D01*
X87808770Y-142374607D01*
X87805130Y-142377842D01*
X87775323Y-142403300D01*
X87771560Y-142406388D01*
X87748427Y-142424625D01*
X87744544Y-142427565D01*
X87559953Y-142561680D01*
X87555955Y-142564466D01*
X87531457Y-142580834D01*
X87527358Y-142583458D01*
X87493934Y-142603940D01*
X87489736Y-142606401D01*
X87464040Y-142620792D01*
X87459743Y-142623088D01*
X87264409Y-142722614D01*
X83766409Y-142722614D01*
X83766409Y-141420000D01*
X82264409Y-141420000D01*
X82264409Y-142922000D01*
X81266409Y-142922000D01*
X81266409Y-141420000D01*
X79764409Y-141420000D01*
X79764409Y-142922000D01*
X77651076Y-142922000D01*
X77653000Y-142909854D01*
X77653000Y-142586146D01*
X77617222Y-142360255D01*
X77617221Y-142360251D01*
X77617221Y-142360250D01*
X77546549Y-142142744D01*
X77538812Y-142127560D01*
X77442717Y-141938962D01*
X77308286Y-141753934D01*
X77146566Y-141592214D01*
X76961538Y-141457783D01*
X76887385Y-141420000D01*
X76757755Y-141353950D01*
X76540248Y-141283278D01*
X76370826Y-141256444D01*
X76314354Y-141247500D01*
X76085646Y-141247500D01*
X76016688Y-141258422D01*
X75859753Y-141283278D01*
X75859750Y-141283278D01*
X75642244Y-141353950D01*
X75438461Y-141457783D01*
X75332896Y-141534480D01*
X75253434Y-141592214D01*
X75253432Y-141592216D01*
X75253431Y-141592216D01*
X75091715Y-141753932D01*
X75030318Y-141838438D01*
X74974987Y-141881103D01*
X74905374Y-141887082D01*
X74843579Y-141854476D01*
X74829682Y-141838438D01*
X74813193Y-141815743D01*
X74768286Y-141753934D01*
X74606566Y-141592214D01*
X74421538Y-141457783D01*
X74347385Y-141420000D01*
X74217755Y-141353950D01*
X74000247Y-141283278D01*
X73843315Y-141258422D01*
X73780180Y-141228493D01*
X73743249Y-141169181D01*
X73744247Y-141099318D01*
X73775030Y-141048270D01*
X74201788Y-140621513D01*
X85159500Y-140621513D01*
X85159500Y-140810486D01*
X85189059Y-140997118D01*
X85247454Y-141176836D01*
X85333240Y-141345199D01*
X85444310Y-141498073D01*
X85577927Y-141631690D01*
X85730801Y-141742760D01*
X85810347Y-141783290D01*
X85899163Y-141828545D01*
X85899165Y-141828545D01*
X85899168Y-141828547D01*
X85952070Y-141845736D01*
X86078881Y-141886940D01*
X86265514Y-141916500D01*
X86265519Y-141916500D01*
X86454486Y-141916500D01*
X86641118Y-141886940D01*
X86659082Y-141881103D01*
X86820832Y-141828547D01*
X86989199Y-141742760D01*
X87142073Y-141631690D01*
X87275690Y-141498073D01*
X87386760Y-141345199D01*
X87472547Y-141176832D01*
X87530940Y-140997118D01*
X87557177Y-140831464D01*
X87560500Y-140810486D01*
X87560500Y-140621513D01*
X90239500Y-140621513D01*
X90239500Y-140810486D01*
X90269059Y-140997118D01*
X90327454Y-141176836D01*
X90413240Y-141345199D01*
X90524310Y-141498073D01*
X90657927Y-141631690D01*
X90810801Y-141742760D01*
X90890347Y-141783290D01*
X90979163Y-141828545D01*
X90979165Y-141828545D01*
X90979168Y-141828547D01*
X91032070Y-141845736D01*
X91158881Y-141886940D01*
X91345514Y-141916500D01*
X91345519Y-141916500D01*
X91534486Y-141916500D01*
X91721118Y-141886940D01*
X91739082Y-141881103D01*
X91900832Y-141828547D01*
X92069199Y-141742760D01*
X92222073Y-141631690D01*
X92355690Y-141498073D01*
X92466760Y-141345199D01*
X92552547Y-141176832D01*
X92610940Y-140997118D01*
X92637177Y-140831464D01*
X92640500Y-140810486D01*
X92640500Y-140621513D01*
X92610940Y-140434881D01*
X92554020Y-140259701D01*
X92552547Y-140255168D01*
X92552545Y-140255165D01*
X92552545Y-140255163D01*
X92476529Y-140105974D01*
X92466760Y-140086801D01*
X92355690Y-139933927D01*
X92222073Y-139800310D01*
X92069199Y-139689240D01*
X92064614Y-139686904D01*
X91900836Y-139603454D01*
X91721118Y-139545059D01*
X91534486Y-139515500D01*
X91534481Y-139515500D01*
X91345519Y-139515500D01*
X91345514Y-139515500D01*
X91158881Y-139545059D01*
X90979163Y-139603454D01*
X90810800Y-139689240D01*
X90723579Y-139752610D01*
X90657927Y-139800310D01*
X90657925Y-139800312D01*
X90657924Y-139800312D01*
X90524312Y-139933924D01*
X90524312Y-139933925D01*
X90524310Y-139933927D01*
X90519008Y-139941225D01*
X90413240Y-140086800D01*
X90327454Y-140255163D01*
X90269059Y-140434881D01*
X90239500Y-140621513D01*
X87560500Y-140621513D01*
X87530940Y-140434881D01*
X87474020Y-140259701D01*
X87472547Y-140255168D01*
X87472545Y-140255165D01*
X87472545Y-140255163D01*
X87396529Y-140105974D01*
X87386760Y-140086801D01*
X87275690Y-139933927D01*
X87142073Y-139800310D01*
X86989199Y-139689240D01*
X86984614Y-139686904D01*
X86820836Y-139603454D01*
X86641118Y-139545059D01*
X86454486Y-139515500D01*
X86454481Y-139515500D01*
X86265519Y-139515500D01*
X86265514Y-139515500D01*
X86078881Y-139545059D01*
X85899163Y-139603454D01*
X85730800Y-139689240D01*
X85643579Y-139752610D01*
X85577927Y-139800310D01*
X85577925Y-139800312D01*
X85577924Y-139800312D01*
X85444312Y-139933924D01*
X85444312Y-139933925D01*
X85444310Y-139933927D01*
X85439008Y-139941225D01*
X85333240Y-140086800D01*
X85247454Y-140255163D01*
X85189059Y-140434881D01*
X85159500Y-140621513D01*
X74201788Y-140621513D01*
X74401301Y-140422000D01*
X82264409Y-140422000D01*
X83766409Y-140422000D01*
X83766409Y-138920000D01*
X87628331Y-138920000D01*
X87744544Y-139004435D01*
X87748427Y-139007375D01*
X87771560Y-139025612D01*
X87775323Y-139028700D01*
X87805130Y-139054158D01*
X87808770Y-139057393D01*
X87830398Y-139077386D01*
X87833907Y-139080760D01*
X87995240Y-139242093D01*
X87998614Y-139245602D01*
X88018607Y-139267230D01*
X88021842Y-139270870D01*
X88047300Y-139300677D01*
X88050388Y-139304440D01*
X88068625Y-139327573D01*
X88071565Y-139331456D01*
X88205680Y-139516047D01*
X88208466Y-139520045D01*
X88224834Y-139544543D01*
X88227458Y-139548642D01*
X88247940Y-139582066D01*
X88250401Y-139586264D01*
X88264792Y-139611960D01*
X88267088Y-139616257D01*
X88370676Y-139819562D01*
X88372801Y-139823944D01*
X88385144Y-139850719D01*
X88387099Y-139855187D01*
X88402097Y-139891403D01*
X88403869Y-139895933D01*
X88414053Y-139923541D01*
X88415647Y-139928136D01*
X88486155Y-140145132D01*
X88487570Y-140149796D01*
X88495573Y-140178176D01*
X88496803Y-140182894D01*
X88505951Y-140221013D01*
X88506993Y-140225763D01*
X88512733Y-140254625D01*
X88513588Y-140259414D01*
X88539340Y-140422000D01*
X88766409Y-140422000D01*
X88766409Y-138920000D01*
X87628331Y-138920000D01*
X83766409Y-138920000D01*
X82264409Y-138920000D01*
X82264409Y-140422000D01*
X74401301Y-140422000D01*
X74919482Y-139903819D01*
X74980805Y-139870334D01*
X75007163Y-139867500D01*
X79543927Y-139867500D01*
X79610966Y-139887185D01*
X79631608Y-139903819D01*
X79658088Y-139930299D01*
X79658092Y-139930302D01*
X79813762Y-140034318D01*
X79813768Y-140034321D01*
X79813769Y-140034322D01*
X79986749Y-140105973D01*
X80170379Y-140142499D01*
X80170383Y-140142500D01*
X80170384Y-140142500D01*
X80357617Y-140142500D01*
X80357618Y-140142499D01*
X80541251Y-140105973D01*
X80714231Y-140034322D01*
X80869908Y-139930302D01*
X81002302Y-139797908D01*
X81106322Y-139642231D01*
X81177973Y-139469251D01*
X81214500Y-139285616D01*
X81214500Y-139098384D01*
X81177973Y-138914749D01*
X81106322Y-138741769D01*
X81106321Y-138741768D01*
X81106318Y-138741762D01*
X81002302Y-138586092D01*
X81002299Y-138586088D01*
X80869911Y-138453700D01*
X80869907Y-138453697D01*
X80714237Y-138349681D01*
X80714228Y-138349676D01*
X80541251Y-138278027D01*
X80541243Y-138278025D01*
X80357620Y-138241500D01*
X80357616Y-138241500D01*
X80170384Y-138241500D01*
X80170379Y-138241500D01*
X79986756Y-138278025D01*
X79986748Y-138278027D01*
X79813771Y-138349676D01*
X79813762Y-138349681D01*
X79658092Y-138453697D01*
X79658088Y-138453700D01*
X79631608Y-138480181D01*
X79570285Y-138513666D01*
X79543927Y-138516500D01*
X78874586Y-138516500D01*
X78807547Y-138496815D01*
X78761792Y-138444011D01*
X78751848Y-138374853D01*
X78767641Y-138329740D01*
X78780120Y-138308474D01*
X78862762Y-138089487D01*
X78895154Y-137922000D01*
X82264409Y-137922000D01*
X83766409Y-137922000D01*
X84764409Y-137922000D01*
X86266409Y-137922000D01*
X87264409Y-137922000D01*
X88766409Y-137922000D01*
X88766409Y-137526000D01*
X89764409Y-137526000D01*
X89764409Y-137922000D01*
X91266409Y-137922000D01*
X91266409Y-136942818D01*
X91214757Y-137011816D01*
X91209204Y-137018707D01*
X91174124Y-137059192D01*
X91168092Y-137065671D01*
X91117671Y-137116092D01*
X91111192Y-137122124D01*
X91070707Y-137157204D01*
X91063816Y-137162757D01*
X90891632Y-137291655D01*
X90884362Y-137296703D01*
X90839295Y-137325667D01*
X90831681Y-137330185D01*
X90769091Y-137364362D01*
X90761177Y-137368323D01*
X90712441Y-137390581D01*
X90704261Y-137393970D01*
X90506904Y-137467579D01*
X90499564Y-137470058D01*
X90454695Y-137483668D01*
X90447212Y-137485685D01*
X90386501Y-137500028D01*
X90378916Y-137501572D01*
X90332738Y-137509478D01*
X90325069Y-137510545D01*
X90221217Y-137521711D01*
X90217905Y-137522023D01*
X90197856Y-137523636D01*
X90194542Y-137523858D01*
X90167855Y-137525287D01*
X90164539Y-137525420D01*
X90144491Y-137525956D01*
X90141177Y-137526000D01*
X89764409Y-137526000D01*
X88766409Y-137526000D01*
X88218823Y-137526000D01*
X88215509Y-137525956D01*
X88195461Y-137525420D01*
X88192145Y-137525287D01*
X88165458Y-137523858D01*
X88162144Y-137523636D01*
X88142095Y-137522023D01*
X88138783Y-137521711D01*
X88034931Y-137510545D01*
X88027262Y-137509478D01*
X87981084Y-137501572D01*
X87973499Y-137500028D01*
X87912788Y-137485685D01*
X87905305Y-137483668D01*
X87860436Y-137470058D01*
X87853096Y-137467579D01*
X87655739Y-137393970D01*
X87647559Y-137390581D01*
X87598823Y-137368323D01*
X87590909Y-137364362D01*
X87528319Y-137330185D01*
X87520705Y-137325667D01*
X87475638Y-137296703D01*
X87468368Y-137291655D01*
X87296184Y-137162757D01*
X87289293Y-137157204D01*
X87264409Y-137135642D01*
X87264409Y-137922000D01*
X86266409Y-137922000D01*
X86266409Y-136420000D01*
X84764409Y-136420000D01*
X84764409Y-137922000D01*
X83766409Y-137922000D01*
X83766409Y-136420000D01*
X82264409Y-136420000D01*
X82264409Y-137922000D01*
X78895154Y-137922000D01*
X78907205Y-137859691D01*
X78907205Y-137859690D01*
X78909998Y-137807117D01*
X78910000Y-137807078D01*
X78910000Y-137088500D01*
X78093012Y-137088500D01*
X78125925Y-137031493D01*
X78160000Y-136904326D01*
X78160000Y-136838498D01*
X79897731Y-136838498D01*
X79898561Y-136840500D01*
X79908000Y-136887954D01*
X79908000Y-137276139D01*
X79999719Y-137257896D01*
X80005714Y-137256855D01*
X80042142Y-137251451D01*
X80048185Y-137250706D01*
X80096954Y-137245903D01*
X80103025Y-137245455D01*
X80139800Y-137243649D01*
X80145882Y-137243500D01*
X80382118Y-137243500D01*
X80388200Y-137243649D01*
X80424975Y-137245455D01*
X80431046Y-137245903D01*
X80479815Y-137250706D01*
X80485858Y-137251451D01*
X80522286Y-137256855D01*
X80528281Y-137257896D01*
X80759987Y-137303985D01*
X80765924Y-137305318D01*
X80801652Y-137314267D01*
X80807522Y-137315891D01*
X80854418Y-137330118D01*
X80860197Y-137332027D01*
X80894859Y-137344430D01*
X80900535Y-137346620D01*
X81118783Y-137437021D01*
X81124346Y-137439487D01*
X81157626Y-137455227D01*
X81163061Y-137457963D01*
X81206282Y-137481064D01*
X81211578Y-137484064D01*
X81243170Y-137502999D01*
X81248314Y-137506256D01*
X81266409Y-137518346D01*
X81266409Y-136420000D01*
X79907999Y-136420000D01*
X79907999Y-136789046D01*
X79898559Y-136836501D01*
X79897731Y-136838498D01*
X78160000Y-136838498D01*
X78160000Y-136772674D01*
X78125925Y-136645507D01*
X78093012Y-136588500D01*
X78909999Y-136588500D01*
X78909999Y-135869923D01*
X78909998Y-135869911D01*
X78907205Y-135817308D01*
X78862762Y-135587512D01*
X78780120Y-135368524D01*
X78661660Y-135166658D01*
X78661655Y-135166651D01*
X78622960Y-135120756D01*
X82264409Y-135120756D01*
X82264409Y-135422000D01*
X83766409Y-135422000D01*
X84764409Y-135422000D01*
X86266409Y-135422000D01*
X86266409Y-133920000D01*
X84764409Y-133920000D01*
X84764409Y-135422000D01*
X83766409Y-135422000D01*
X83766409Y-133920000D01*
X82908500Y-133920000D01*
X82908500Y-133949748D01*
X82908455Y-133953072D01*
X82907916Y-133973174D01*
X82907783Y-133976494D01*
X82906351Y-134003180D01*
X82906129Y-134006489D01*
X82904519Y-134026482D01*
X82904208Y-134029785D01*
X82893038Y-134133675D01*
X82891971Y-134141343D01*
X82884064Y-134187529D01*
X82882519Y-134195119D01*
X82868174Y-134255830D01*
X82866158Y-134263309D01*
X82852550Y-134308172D01*
X82850071Y-134315512D01*
X82776413Y-134513002D01*
X82773025Y-134521182D01*
X82750767Y-134569919D01*
X82746805Y-134577833D01*
X82712628Y-134640423D01*
X82708110Y-134648037D01*
X82679146Y-134693104D01*
X82674098Y-134700374D01*
X82545114Y-134872673D01*
X82539561Y-134879564D01*
X82504481Y-134920049D01*
X82498449Y-134926528D01*
X82448028Y-134976949D01*
X82441549Y-134982981D01*
X82401064Y-135018061D01*
X82394173Y-135023614D01*
X82264409Y-135120756D01*
X78622960Y-135120756D01*
X78510788Y-134987713D01*
X78510786Y-134987711D01*
X78331848Y-134836844D01*
X78331841Y-134836839D01*
X78129975Y-134718379D01*
X77910984Y-134635736D01*
X77905840Y-134634741D01*
X77843760Y-134602680D01*
X77808869Y-134542146D01*
X77812244Y-134472358D01*
X77852814Y-134415473D01*
X77917697Y-134389552D01*
X77929374Y-134388999D01*
X81457872Y-134388999D01*
X81517483Y-134382591D01*
X81652331Y-134332296D01*
X81767546Y-134246046D01*
X81853796Y-134130831D01*
X81904091Y-133995983D01*
X81910500Y-133936373D01*
X81910499Y-131420000D01*
X82908499Y-131420000D01*
X82908500Y-132922000D01*
X83766409Y-132922000D01*
X84764409Y-132922000D01*
X86266409Y-132922000D01*
X86266409Y-132477778D01*
X87779500Y-132477778D01*
X87779500Y-132698221D01*
X87813985Y-132915952D01*
X87882103Y-133125603D01*
X87882104Y-133125606D01*
X87982187Y-133322025D01*
X88111752Y-133500358D01*
X88111756Y-133500363D01*
X88162316Y-133550923D01*
X88195801Y-133612246D01*
X88190817Y-133681938D01*
X88148945Y-133737871D01*
X88117969Y-133754785D01*
X88037918Y-133784643D01*
X88037906Y-133784649D01*
X87922812Y-133870809D01*
X87922809Y-133870812D01*
X87836649Y-133985906D01*
X87836645Y-133985913D01*
X87786403Y-134120620D01*
X87786401Y-134120627D01*
X87780000Y-134180155D01*
X87780000Y-134878000D01*
X88804722Y-134878000D01*
X88760667Y-134954306D01*
X88730000Y-135068756D01*
X88730000Y-135187244D01*
X88760667Y-135301694D01*
X88804722Y-135378000D01*
X87780000Y-135378000D01*
X87780000Y-136075844D01*
X87786401Y-136135372D01*
X87786403Y-136135379D01*
X87836645Y-136270086D01*
X87836649Y-136270093D01*
X87922809Y-136385187D01*
X87922812Y-136385190D01*
X88037906Y-136471350D01*
X88037913Y-136471354D01*
X88172620Y-136521596D01*
X88172627Y-136521598D01*
X88232155Y-136527999D01*
X88232172Y-136528000D01*
X88930000Y-136528000D01*
X88930000Y-135503277D01*
X89006306Y-135547333D01*
X89120756Y-135578000D01*
X89239244Y-135578000D01*
X89353694Y-135547333D01*
X89430000Y-135503277D01*
X89430000Y-136528000D01*
X90127828Y-136528000D01*
X90127844Y-136527999D01*
X90187372Y-136521598D01*
X90187379Y-136521596D01*
X90322086Y-136471354D01*
X90322093Y-136471350D01*
X90437187Y-136385190D01*
X90437190Y-136385187D01*
X90523350Y-136270093D01*
X90523354Y-136270086D01*
X90573596Y-136135379D01*
X90573598Y-136135372D01*
X90579999Y-136075844D01*
X90580000Y-136075827D01*
X90580000Y-135378000D01*
X89555278Y-135378000D01*
X89599333Y-135301694D01*
X89630000Y-135187244D01*
X89630000Y-135068756D01*
X89599333Y-134954306D01*
X89555278Y-134878000D01*
X90580000Y-134878000D01*
X90580000Y-134180172D01*
X90579999Y-134180155D01*
X90573598Y-134120627D01*
X90573596Y-134120620D01*
X90523354Y-133985913D01*
X90523350Y-133985906D01*
X90437190Y-133870812D01*
X90437187Y-133870809D01*
X90322093Y-133784649D01*
X90322087Y-133784646D01*
X90242030Y-133754786D01*
X90186097Y-133712914D01*
X90161680Y-133647450D01*
X90176532Y-133579177D01*
X90197681Y-133550925D01*
X90248242Y-133500365D01*
X90377815Y-133322022D01*
X90477895Y-133125606D01*
X90546015Y-132915951D01*
X90580500Y-132698222D01*
X90580500Y-132477778D01*
X90546015Y-132260049D01*
X90477895Y-132050394D01*
X90477895Y-132050393D01*
X90443237Y-131982375D01*
X90377815Y-131853978D01*
X90361260Y-131831192D01*
X90248247Y-131675641D01*
X90248243Y-131675636D01*
X90092363Y-131519756D01*
X90092358Y-131519752D01*
X89914025Y-131390187D01*
X89914024Y-131390186D01*
X89914022Y-131390185D01*
X89851096Y-131358122D01*
X89717606Y-131290104D01*
X89717603Y-131290103D01*
X89507952Y-131221985D01*
X89399086Y-131204742D01*
X89290222Y-131187500D01*
X89069778Y-131187500D01*
X88997201Y-131198995D01*
X88852047Y-131221985D01*
X88642396Y-131290103D01*
X88642393Y-131290104D01*
X88445974Y-131390187D01*
X88267641Y-131519752D01*
X88267636Y-131519756D01*
X88111756Y-131675636D01*
X88111752Y-131675641D01*
X87982187Y-131853974D01*
X87882104Y-132050393D01*
X87882103Y-132050396D01*
X87813985Y-132260047D01*
X87779500Y-132477778D01*
X86266409Y-132477778D01*
X86266409Y-131420000D01*
X84764409Y-131420000D01*
X84764409Y-132922000D01*
X83766409Y-132922000D01*
X83766409Y-131420000D01*
X82908499Y-131420000D01*
X81910499Y-131420000D01*
X81910499Y-130340628D01*
X81904091Y-130281017D01*
X81898777Y-130266770D01*
X81853797Y-130146171D01*
X81853793Y-130146164D01*
X81767547Y-130030955D01*
X81767544Y-130030952D01*
X81652335Y-129944706D01*
X81652328Y-129944702D01*
X81517482Y-129894408D01*
X81517483Y-129894408D01*
X81457883Y-129888001D01*
X81457881Y-129888000D01*
X81457873Y-129888000D01*
X81457864Y-129888000D01*
X77862129Y-129888000D01*
X77862123Y-129888001D01*
X77802516Y-129894408D01*
X77667671Y-129944702D01*
X77667664Y-129944706D01*
X77552455Y-130030952D01*
X77552452Y-130030955D01*
X77466206Y-130146164D01*
X77466202Y-130146171D01*
X77415908Y-130281017D01*
X77409916Y-130336758D01*
X77409501Y-130340623D01*
X77409500Y-130340635D01*
X77409500Y-133936370D01*
X77409501Y-133936376D01*
X77415908Y-133995983D01*
X77466202Y-134130828D01*
X77466206Y-134130835D01*
X77552452Y-134246044D01*
X77552455Y-134246047D01*
X77667664Y-134332293D01*
X77667673Y-134332298D01*
X77716506Y-134350511D01*
X77772440Y-134392381D01*
X77796858Y-134457845D01*
X77782007Y-134526118D01*
X77732603Y-134575524D01*
X77666598Y-134590518D01*
X77628625Y-134588501D01*
X77628579Y-134588500D01*
X76910000Y-134588500D01*
X76910000Y-136338500D01*
X76410000Y-136338500D01*
X76410000Y-134588500D01*
X75691423Y-134588500D01*
X75691411Y-134588501D01*
X75638808Y-134591294D01*
X75409012Y-134635737D01*
X75190024Y-134718379D01*
X74988158Y-134836839D01*
X74988151Y-134836844D01*
X74809213Y-134987711D01*
X74809211Y-134987713D01*
X74658344Y-135166651D01*
X74658339Y-135166658D01*
X74539879Y-135368524D01*
X74457237Y-135587512D01*
X74412794Y-135817308D01*
X74412794Y-135817309D01*
X74410001Y-135869882D01*
X74410000Y-135869921D01*
X74410000Y-136588500D01*
X75226988Y-136588500D01*
X75194075Y-136645507D01*
X75160000Y-136772674D01*
X75160000Y-136904326D01*
X75194075Y-137031493D01*
X75226988Y-137088500D01*
X74410001Y-137088500D01*
X74410001Y-137807088D01*
X74412794Y-137859691D01*
X74457237Y-138089487D01*
X74539879Y-138308475D01*
X74568231Y-138356789D01*
X74585183Y-138424571D01*
X74562799Y-138490758D01*
X74508184Y-138534336D01*
X74485478Y-138541164D01*
X74478968Y-138542458D01*
X74478959Y-138542461D01*
X74356038Y-138593376D01*
X74356020Y-138593386D01*
X74245398Y-138667301D01*
X74245390Y-138667307D01*
X71701517Y-141211181D01*
X71640194Y-141244666D01*
X71613836Y-141247500D01*
X70827162Y-141247500D01*
X70760123Y-141227815D01*
X70714368Y-141175011D01*
X70704424Y-141105853D01*
X70733449Y-141042297D01*
X70739481Y-141035819D01*
X71844999Y-139930302D01*
X73120482Y-138654819D01*
X73181805Y-138621334D01*
X73208163Y-138618500D01*
X73245617Y-138618500D01*
X73245618Y-138618499D01*
X73429251Y-138581973D01*
X73602231Y-138510322D01*
X73757908Y-138406302D01*
X73890302Y-138273908D01*
X73994322Y-138118231D01*
X74065973Y-137945251D01*
X74102500Y-137761616D01*
X74102500Y-137574384D01*
X74065973Y-137390749D01*
X73994322Y-137217769D01*
X73994321Y-137217768D01*
X73994318Y-137217762D01*
X73890302Y-137062092D01*
X73890299Y-137062088D01*
X73757911Y-136929700D01*
X73757907Y-136929697D01*
X73602237Y-136825681D01*
X73602228Y-136825676D01*
X73429251Y-136754027D01*
X73429243Y-136754025D01*
X73245620Y-136717500D01*
X73245616Y-136717500D01*
X73058384Y-136717500D01*
X73058379Y-136717500D01*
X72874756Y-136754025D01*
X72874748Y-136754027D01*
X72701771Y-136825676D01*
X72701762Y-136825681D01*
X72546092Y-136929697D01*
X72546088Y-136929700D01*
X72413700Y-137062088D01*
X72413697Y-137062092D01*
X72309681Y-137217762D01*
X72309676Y-137217771D01*
X72238027Y-137390748D01*
X72238025Y-137390756D01*
X72201500Y-137574379D01*
X72201500Y-137611836D01*
X72181815Y-137678875D01*
X72165181Y-137699517D01*
X69266807Y-140597890D01*
X69266804Y-140597894D01*
X69192883Y-140708524D01*
X69192878Y-140708534D01*
X69141959Y-140831463D01*
X69141957Y-140831471D01*
X69116000Y-140961964D01*
X64840335Y-140961964D01*
X64820118Y-138920000D01*
X65944173Y-138920000D01*
X65959044Y-140422000D01*
X66266409Y-140422000D01*
X67264409Y-140422000D01*
X68231337Y-140422000D01*
X68280224Y-140303978D01*
X68282689Y-140298416D01*
X68298428Y-140265137D01*
X68301165Y-140259701D01*
X68324266Y-140216480D01*
X68327266Y-140211184D01*
X68346201Y-140179592D01*
X68349458Y-140174448D01*
X68450611Y-140023062D01*
X68454116Y-140018086D01*
X68476049Y-139988513D01*
X68479792Y-139983716D01*
X68510881Y-139945833D01*
X68514856Y-139941225D01*
X68539587Y-139913938D01*
X68543785Y-139909529D01*
X68766409Y-139686904D01*
X68766409Y-138920000D01*
X67264409Y-138920000D01*
X67264409Y-140422000D01*
X66266409Y-140422000D01*
X66266409Y-138920000D01*
X65944173Y-138920000D01*
X64820118Y-138920000D01*
X64795365Y-136420000D01*
X65919421Y-136420000D01*
X65934292Y-137922000D01*
X66266409Y-137922000D01*
X67264409Y-137922000D01*
X68766409Y-137922000D01*
X69764409Y-137922000D01*
X70531313Y-137922000D01*
X71259685Y-137193627D01*
X71263985Y-137172012D01*
X71265318Y-137166076D01*
X71266409Y-137161720D01*
X71266409Y-136420000D01*
X69764409Y-136420000D01*
X69764409Y-137922000D01*
X68766409Y-137922000D01*
X68766409Y-136420000D01*
X67264409Y-136420000D01*
X67264409Y-137922000D01*
X66266409Y-137922000D01*
X66266409Y-136420000D01*
X65919421Y-136420000D01*
X64795365Y-136420000D01*
X64770613Y-133920000D01*
X65894668Y-133920000D01*
X65909539Y-135422000D01*
X66266409Y-135422000D01*
X67264409Y-135422000D01*
X68766409Y-135422000D01*
X69764409Y-135422000D01*
X71266409Y-135422000D01*
X71266409Y-134674059D01*
X71225041Y-134632691D01*
X71221198Y-134628673D01*
X71198497Y-134603839D01*
X71194838Y-134599650D01*
X71166123Y-134565259D01*
X71162650Y-134560905D01*
X71142242Y-134534103D01*
X71138970Y-134529599D01*
X70985313Y-134307807D01*
X70982247Y-134303163D01*
X70964336Y-134274658D01*
X70961481Y-134269879D01*
X70939372Y-134230913D01*
X70936737Y-134226017D01*
X70921453Y-134196022D01*
X70919038Y-134191006D01*
X70807459Y-133945358D01*
X70805272Y-133940242D01*
X70797152Y-133920000D01*
X69764409Y-133920000D01*
X69764409Y-135422000D01*
X68766409Y-135422000D01*
X68766409Y-133920000D01*
X67264409Y-133920000D01*
X67264409Y-135422000D01*
X66266409Y-135422000D01*
X66266409Y-133920000D01*
X65894668Y-133920000D01*
X64770613Y-133920000D01*
X64745860Y-131420000D01*
X65869916Y-131420000D01*
X65884787Y-132922000D01*
X66266409Y-132922000D01*
X67264409Y-132922000D01*
X68766409Y-132922000D01*
X69764409Y-132922000D01*
X70662001Y-132922000D01*
X70662001Y-132187954D01*
X70671440Y-132140501D01*
X70672268Y-132138501D01*
X70671439Y-132136499D01*
X70662000Y-132089046D01*
X70662000Y-131420000D01*
X69764409Y-131420000D01*
X69764409Y-132922000D01*
X68766409Y-132922000D01*
X68766409Y-131420000D01*
X67264409Y-131420000D01*
X67264409Y-132922000D01*
X66266409Y-132922000D01*
X66266409Y-131420000D01*
X65869916Y-131420000D01*
X64745860Y-131420000D01*
X64742437Y-131074303D01*
X71660000Y-131074303D01*
X71660000Y-131888500D01*
X73160000Y-131888500D01*
X73160000Y-132388500D01*
X71660001Y-132388500D01*
X71660001Y-133202697D01*
X71670400Y-133334832D01*
X71725377Y-133553019D01*
X71818428Y-133757874D01*
X71818431Y-133757880D01*
X71946559Y-133942823D01*
X71946569Y-133942835D01*
X72105664Y-134101930D01*
X72105676Y-134101940D01*
X72290619Y-134230068D01*
X72290625Y-134230071D01*
X72495480Y-134323122D01*
X72713667Y-134378099D01*
X72845810Y-134388499D01*
X73409999Y-134388499D01*
X73410000Y-134388498D01*
X73410000Y-133571512D01*
X73467007Y-133604425D01*
X73594174Y-133638500D01*
X73725826Y-133638500D01*
X73852993Y-133604425D01*
X73910000Y-133571512D01*
X73910000Y-134388499D01*
X74474182Y-134388499D01*
X74474197Y-134388498D01*
X74606332Y-134378099D01*
X74824519Y-134323122D01*
X75029374Y-134230071D01*
X75029380Y-134230068D01*
X75214323Y-134101940D01*
X75214335Y-134101930D01*
X75373430Y-133942835D01*
X75373440Y-133942823D01*
X75501568Y-133757880D01*
X75501571Y-133757874D01*
X75594622Y-133553019D01*
X75649599Y-133334832D01*
X75659999Y-133202696D01*
X75660000Y-133202684D01*
X75660000Y-132388500D01*
X74160000Y-132388500D01*
X74160000Y-131888500D01*
X75659999Y-131888500D01*
X75659999Y-131074317D01*
X75659998Y-131074302D01*
X75649599Y-130942167D01*
X75594622Y-130723980D01*
X75501571Y-130519125D01*
X75501568Y-130519119D01*
X75373440Y-130334176D01*
X75373430Y-130334164D01*
X75214335Y-130175069D01*
X75214323Y-130175059D01*
X75029380Y-130046931D01*
X75029374Y-130046928D01*
X74824519Y-129953877D01*
X74606332Y-129898900D01*
X74474196Y-129888500D01*
X73910000Y-129888500D01*
X73910000Y-130705488D01*
X73852993Y-130672575D01*
X73725826Y-130638500D01*
X73594174Y-130638500D01*
X73467007Y-130672575D01*
X73410000Y-130705488D01*
X73410000Y-129888500D01*
X72845817Y-129888500D01*
X72845802Y-129888501D01*
X72713667Y-129898900D01*
X72495480Y-129953877D01*
X72290625Y-130046928D01*
X72290619Y-130046931D01*
X72105676Y-130175059D01*
X72105664Y-130175069D01*
X71946569Y-130334164D01*
X71946559Y-130334176D01*
X71818431Y-130519119D01*
X71818428Y-130519125D01*
X71725377Y-130723980D01*
X71670400Y-130942167D01*
X71660000Y-131074303D01*
X64742437Y-131074303D01*
X64721108Y-128920000D01*
X65845164Y-128920000D01*
X65860034Y-130422000D01*
X66266409Y-130422000D01*
X67264409Y-130422000D01*
X68766409Y-130422000D01*
X69764409Y-130422000D01*
X70773903Y-130422000D01*
X70774268Y-130420786D01*
X70775988Y-130415492D01*
X70790787Y-130373202D01*
X70792742Y-130367994D01*
X70805272Y-130336758D01*
X70807459Y-130331642D01*
X70919038Y-130085994D01*
X70921453Y-130080978D01*
X70936737Y-130050983D01*
X70939372Y-130046087D01*
X70961481Y-130007121D01*
X70964336Y-130002342D01*
X70982247Y-129973837D01*
X70985313Y-129969193D01*
X71138970Y-129747401D01*
X71142242Y-129742897D01*
X71162650Y-129716095D01*
X71166123Y-129711741D01*
X71194838Y-129677350D01*
X71198497Y-129673161D01*
X71221198Y-129648327D01*
X71225041Y-129644309D01*
X71266409Y-129602941D01*
X71266409Y-128920000D01*
X74801381Y-128920000D01*
X74824731Y-128924849D01*
X74829816Y-128926017D01*
X75090094Y-128991601D01*
X75095459Y-128993082D01*
X75127714Y-129002768D01*
X75133008Y-129004488D01*
X75175298Y-129019287D01*
X75180506Y-129021242D01*
X75211742Y-129033772D01*
X75216858Y-129035959D01*
X75462506Y-129147538D01*
X75467522Y-129149953D01*
X75497517Y-129165237D01*
X75502413Y-129167872D01*
X75541379Y-129189981D01*
X75546158Y-129192836D01*
X75574663Y-129210747D01*
X75579307Y-129213813D01*
X75801099Y-129367470D01*
X75805603Y-129370742D01*
X75832405Y-129391150D01*
X75836759Y-129394623D01*
X75871150Y-129423338D01*
X75875339Y-129426997D01*
X75900173Y-129449698D01*
X75904191Y-129453541D01*
X76094959Y-129644309D01*
X76098802Y-129648327D01*
X76121503Y-129673161D01*
X76125162Y-129677350D01*
X76153877Y-129711741D01*
X76157350Y-129716095D01*
X76177758Y-129742897D01*
X76181030Y-129747401D01*
X76266409Y-129870638D01*
X76266409Y-129156243D01*
X82264409Y-129156243D01*
X82394173Y-129253386D01*
X82401064Y-129258939D01*
X82441549Y-129294019D01*
X82448028Y-129300051D01*
X82498449Y-129350472D01*
X82504481Y-129356951D01*
X82539561Y-129397436D01*
X82545114Y-129404327D01*
X82674098Y-129576626D01*
X82679146Y-129583896D01*
X82708110Y-129628963D01*
X82712628Y-129636577D01*
X82746805Y-129699167D01*
X82750767Y-129707081D01*
X82773025Y-129755818D01*
X82776413Y-129763998D01*
X82850069Y-129961482D01*
X82852548Y-129968821D01*
X82866153Y-130013672D01*
X82868168Y-130021148D01*
X82882516Y-130081863D01*
X82884061Y-130089455D01*
X82891972Y-130135660D01*
X82893041Y-130143333D01*
X82904212Y-130247256D01*
X82904522Y-130250561D01*
X82906135Y-130270601D01*
X82906358Y-130273922D01*
X82907786Y-130300605D01*
X82907919Y-130303918D01*
X82908455Y-130323966D01*
X82908499Y-130327280D01*
X82908499Y-130422000D01*
X83766409Y-130422000D01*
X84764409Y-130422000D01*
X86266409Y-130422000D01*
X86266409Y-130214500D01*
X86245929Y-130214500D01*
X86241064Y-130214405D01*
X86211650Y-130213250D01*
X86206791Y-130212963D01*
X86167711Y-130209889D01*
X86162867Y-130209412D01*
X86133595Y-130205949D01*
X86128765Y-130205281D01*
X85903414Y-130169588D01*
X85898625Y-130168733D01*
X85869763Y-130162993D01*
X85865013Y-130161951D01*
X85826894Y-130152803D01*
X85822176Y-130151573D01*
X85793796Y-130143570D01*
X85789132Y-130142155D01*
X85572136Y-130071647D01*
X85567541Y-130070053D01*
X85539933Y-130059869D01*
X85535403Y-130058097D01*
X85499187Y-130043099D01*
X85494719Y-130041144D01*
X85467944Y-130028801D01*
X85463562Y-130026676D01*
X85455590Y-130022614D01*
X87264409Y-130022614D01*
X87264409Y-130422000D01*
X88147863Y-130422000D01*
X88206774Y-130391983D01*
X88211155Y-130389858D01*
X88237913Y-130377522D01*
X88242378Y-130375569D01*
X88278596Y-130360568D01*
X88283127Y-130358794D01*
X88310759Y-130348600D01*
X88315361Y-130347005D01*
X88562304Y-130266770D01*
X88566964Y-130265356D01*
X88595331Y-130257356D01*
X88595592Y-130257288D01*
X89764409Y-130257288D01*
X89764669Y-130257356D01*
X89793036Y-130265356D01*
X89797696Y-130266770D01*
X90044639Y-130347005D01*
X90049241Y-130348600D01*
X90076873Y-130358794D01*
X90081404Y-130360568D01*
X90117622Y-130375569D01*
X90122087Y-130377522D01*
X90148845Y-130389858D01*
X90153226Y-130391983D01*
X90212137Y-130422000D01*
X91266409Y-130422000D01*
X91266409Y-130211359D01*
X91247711Y-130209889D01*
X91242867Y-130209412D01*
X91213595Y-130205949D01*
X91208765Y-130205281D01*
X90983414Y-130169588D01*
X90978625Y-130168733D01*
X90949763Y-130162993D01*
X90945013Y-130161951D01*
X90906894Y-130152803D01*
X90902176Y-130151573D01*
X90873796Y-130143570D01*
X90869132Y-130142155D01*
X90652136Y-130071647D01*
X90647541Y-130070053D01*
X90619933Y-130059869D01*
X90615403Y-130058097D01*
X90579187Y-130043099D01*
X90574719Y-130041144D01*
X90547944Y-130028801D01*
X90543562Y-130026676D01*
X90340257Y-129923088D01*
X90335960Y-129920792D01*
X90310264Y-129906401D01*
X90306066Y-129903940D01*
X90272642Y-129883458D01*
X90268543Y-129880834D01*
X90244045Y-129864466D01*
X90240047Y-129861680D01*
X90055456Y-129727565D01*
X90051573Y-129724625D01*
X90028440Y-129706388D01*
X90024677Y-129703300D01*
X89994870Y-129677842D01*
X89991230Y-129674607D01*
X89969602Y-129654614D01*
X89966093Y-129651240D01*
X89804760Y-129489907D01*
X89801386Y-129486398D01*
X89781393Y-129464770D01*
X89778158Y-129461130D01*
X89764409Y-129445032D01*
X89764409Y-130257288D01*
X88595592Y-130257288D01*
X88600046Y-130256126D01*
X88638162Y-130246977D01*
X88642917Y-130245934D01*
X88671789Y-130240192D01*
X88676578Y-130239337D01*
X88766409Y-130225108D01*
X88766409Y-128920000D01*
X88366823Y-128920000D01*
X88267088Y-129115743D01*
X88264792Y-129120040D01*
X88250401Y-129145736D01*
X88247940Y-129149934D01*
X88227458Y-129183358D01*
X88224834Y-129187457D01*
X88208466Y-129211955D01*
X88205680Y-129215953D01*
X88071565Y-129400544D01*
X88068625Y-129404427D01*
X88050388Y-129427560D01*
X88047300Y-129431323D01*
X88021842Y-129461130D01*
X88018607Y-129464770D01*
X87998614Y-129486398D01*
X87995240Y-129489907D01*
X87833907Y-129651240D01*
X87830398Y-129654614D01*
X87808770Y-129674607D01*
X87805130Y-129677842D01*
X87775323Y-129703300D01*
X87771560Y-129706388D01*
X87748427Y-129724625D01*
X87744544Y-129727565D01*
X87559953Y-129861680D01*
X87555955Y-129864466D01*
X87531457Y-129880834D01*
X87527358Y-129883458D01*
X87493934Y-129903940D01*
X87489736Y-129906401D01*
X87464040Y-129920792D01*
X87459743Y-129923088D01*
X87264409Y-130022614D01*
X85455590Y-130022614D01*
X85260257Y-129923088D01*
X85255960Y-129920792D01*
X85230264Y-129906401D01*
X85226066Y-129903940D01*
X85192642Y-129883458D01*
X85188543Y-129880834D01*
X85164045Y-129864466D01*
X85160047Y-129861680D01*
X84975456Y-129727565D01*
X84971573Y-129724625D01*
X84948440Y-129706388D01*
X84944677Y-129703300D01*
X84914870Y-129677842D01*
X84911230Y-129674607D01*
X84889602Y-129654614D01*
X84886093Y-129651240D01*
X84764409Y-129529556D01*
X84764409Y-130422000D01*
X83766409Y-130422000D01*
X83766409Y-128920000D01*
X82264409Y-128920000D01*
X82264409Y-129156243D01*
X76266409Y-129156243D01*
X76266409Y-128920000D01*
X74801381Y-128920000D01*
X71266409Y-128920000D01*
X69764409Y-128920000D01*
X69764409Y-130422000D01*
X68766409Y-130422000D01*
X68766409Y-128920000D01*
X67264409Y-128920000D01*
X67264409Y-130422000D01*
X66266409Y-130422000D01*
X66266409Y-128920000D01*
X65845164Y-128920000D01*
X64721108Y-128920000D01*
X64696355Y-126420000D01*
X65820411Y-126420000D01*
X65835282Y-127922000D01*
X66266409Y-127922000D01*
X67264409Y-127922000D01*
X68766409Y-127922000D01*
X69764409Y-127922000D01*
X71266409Y-127922000D01*
X72264409Y-127922000D01*
X73766409Y-127922000D01*
X74764409Y-127922000D01*
X76266409Y-127922000D01*
X77264409Y-127922000D01*
X78766409Y-127922000D01*
X79764409Y-127922000D01*
X81266409Y-127922000D01*
X82264409Y-127922000D01*
X83766409Y-127922000D01*
X83766409Y-127921513D01*
X85159500Y-127921513D01*
X85159500Y-128110486D01*
X85189059Y-128297118D01*
X85247454Y-128476836D01*
X85333240Y-128645199D01*
X85444310Y-128798073D01*
X85577927Y-128931690D01*
X85730801Y-129042760D01*
X85810347Y-129083290D01*
X85899163Y-129128545D01*
X85899165Y-129128545D01*
X85899168Y-129128547D01*
X85984407Y-129156243D01*
X86078881Y-129186940D01*
X86265514Y-129216500D01*
X86265519Y-129216500D01*
X86454486Y-129216500D01*
X86641118Y-129186940D01*
X86652142Y-129183358D01*
X86820832Y-129128547D01*
X86989199Y-129042760D01*
X87142073Y-128931690D01*
X87275690Y-128798073D01*
X87386760Y-128645199D01*
X87472547Y-128476832D01*
X87530940Y-128297118D01*
X87560500Y-128110486D01*
X87560500Y-127921513D01*
X87530940Y-127734881D01*
X87503846Y-127651497D01*
X87472547Y-127555168D01*
X87472545Y-127555165D01*
X87472545Y-127555163D01*
X87386759Y-127386800D01*
X87275690Y-127233927D01*
X87142073Y-127100310D01*
X86989199Y-126989240D01*
X86820836Y-126903454D01*
X86641118Y-126845059D01*
X86454486Y-126815500D01*
X86454481Y-126815500D01*
X86265519Y-126815500D01*
X86265514Y-126815500D01*
X86078881Y-126845059D01*
X85899163Y-126903454D01*
X85730800Y-126989240D01*
X85643579Y-127052610D01*
X85577927Y-127100310D01*
X85577925Y-127100312D01*
X85577924Y-127100312D01*
X85444312Y-127233924D01*
X85444312Y-127233925D01*
X85444310Y-127233927D01*
X85396610Y-127299579D01*
X85333240Y-127386800D01*
X85247454Y-127555163D01*
X85189059Y-127734881D01*
X85159500Y-127921513D01*
X83766409Y-127921513D01*
X83766409Y-126420000D01*
X87873147Y-126420000D01*
X87995240Y-126542093D01*
X87998614Y-126545602D01*
X88018607Y-126567230D01*
X88021842Y-126570870D01*
X88047300Y-126600677D01*
X88050388Y-126604440D01*
X88068625Y-126627573D01*
X88071565Y-126631456D01*
X88205680Y-126816047D01*
X88208466Y-126820045D01*
X88224834Y-126844543D01*
X88227458Y-126848642D01*
X88247940Y-126882066D01*
X88250401Y-126886264D01*
X88264792Y-126911960D01*
X88267088Y-126916257D01*
X88370676Y-127119562D01*
X88372801Y-127123944D01*
X88385144Y-127150719D01*
X88387099Y-127155187D01*
X88402097Y-127191403D01*
X88403869Y-127195933D01*
X88414053Y-127223541D01*
X88415647Y-127228136D01*
X88486155Y-127445132D01*
X88487570Y-127449796D01*
X88495573Y-127478176D01*
X88496803Y-127482894D01*
X88505951Y-127521013D01*
X88506993Y-127525763D01*
X88512733Y-127554625D01*
X88513588Y-127559414D01*
X88549281Y-127784765D01*
X88549949Y-127789595D01*
X88553412Y-127818867D01*
X88553889Y-127823711D01*
X88556963Y-127862791D01*
X88557250Y-127867650D01*
X88558405Y-127897064D01*
X88558500Y-127901929D01*
X88558500Y-127922000D01*
X88766409Y-127922000D01*
X88766409Y-127921513D01*
X90239500Y-127921513D01*
X90239500Y-128110486D01*
X90269059Y-128297118D01*
X90327454Y-128476836D01*
X90413240Y-128645199D01*
X90524310Y-128798073D01*
X90657927Y-128931690D01*
X90810801Y-129042760D01*
X90890347Y-129083290D01*
X90979163Y-129128545D01*
X90979165Y-129128545D01*
X90979168Y-129128547D01*
X91064407Y-129156243D01*
X91158881Y-129186940D01*
X91345514Y-129216500D01*
X91345519Y-129216500D01*
X91534486Y-129216500D01*
X91721118Y-129186940D01*
X91732142Y-129183358D01*
X91900832Y-129128547D01*
X92069199Y-129042760D01*
X92222073Y-128931690D01*
X92355690Y-128798073D01*
X92466760Y-128645199D01*
X92552547Y-128476832D01*
X92610940Y-128297118D01*
X92640500Y-128110486D01*
X92640500Y-127921513D01*
X92610940Y-127734881D01*
X92583846Y-127651497D01*
X92552547Y-127555168D01*
X92552545Y-127555165D01*
X92552545Y-127555163D01*
X92466759Y-127386800D01*
X92355690Y-127233927D01*
X92222073Y-127100310D01*
X92069199Y-126989240D01*
X91900836Y-126903454D01*
X91721118Y-126845059D01*
X91534486Y-126815500D01*
X91534481Y-126815500D01*
X91345519Y-126815500D01*
X91345514Y-126815500D01*
X91158881Y-126845059D01*
X90979163Y-126903454D01*
X90810800Y-126989240D01*
X90723579Y-127052610D01*
X90657927Y-127100310D01*
X90657925Y-127100312D01*
X90657924Y-127100312D01*
X90524312Y-127233924D01*
X90524312Y-127233925D01*
X90524310Y-127233927D01*
X90476610Y-127299579D01*
X90413240Y-127386800D01*
X90327454Y-127555163D01*
X90269059Y-127734881D01*
X90239500Y-127921513D01*
X88766409Y-127921513D01*
X88766409Y-126420000D01*
X87873147Y-126420000D01*
X83766409Y-126420000D01*
X82264409Y-126420000D01*
X82264409Y-127922000D01*
X81266409Y-127922000D01*
X81266409Y-126420000D01*
X79764409Y-126420000D01*
X79764409Y-127922000D01*
X78766409Y-127922000D01*
X78766409Y-126420000D01*
X77264409Y-126420000D01*
X77264409Y-127922000D01*
X76266409Y-127922000D01*
X76266409Y-126420000D01*
X74764409Y-126420000D01*
X74764409Y-127922000D01*
X73766409Y-127922000D01*
X73766409Y-126420000D01*
X72264409Y-126420000D01*
X72264409Y-127922000D01*
X71266409Y-127922000D01*
X71266409Y-126420000D01*
X69764409Y-126420000D01*
X69764409Y-127922000D01*
X68766409Y-127922000D01*
X68766409Y-126420000D01*
X67264409Y-126420000D01*
X67264409Y-127922000D01*
X66266409Y-127922000D01*
X66266409Y-126420000D01*
X65820411Y-126420000D01*
X64696355Y-126420000D01*
X64671603Y-123920000D01*
X65795659Y-123920000D01*
X65810529Y-125422000D01*
X66266409Y-125422000D01*
X67264409Y-125422000D01*
X68766409Y-125422000D01*
X69764409Y-125422000D01*
X71266409Y-125422000D01*
X72264409Y-125422000D01*
X73766409Y-125422000D01*
X74764409Y-125422000D01*
X76266409Y-125422000D01*
X77264409Y-125422000D01*
X78766409Y-125422000D01*
X79764409Y-125422000D01*
X81266409Y-125422000D01*
X82264409Y-125422000D01*
X83766409Y-125422000D01*
X84764409Y-125422000D01*
X86266409Y-125422000D01*
X87264409Y-125422000D01*
X88766409Y-125422000D01*
X89764409Y-125422000D01*
X91266409Y-125422000D01*
X91266409Y-123920000D01*
X89764409Y-123920000D01*
X89764409Y-125422000D01*
X88766409Y-125422000D01*
X88766409Y-123920000D01*
X87264409Y-123920000D01*
X87264409Y-125422000D01*
X86266409Y-125422000D01*
X86266409Y-123920000D01*
X84764409Y-123920000D01*
X84764409Y-125422000D01*
X83766409Y-125422000D01*
X83766409Y-123920000D01*
X82264409Y-123920000D01*
X82264409Y-125422000D01*
X81266409Y-125422000D01*
X81266409Y-123920000D01*
X79764409Y-123920000D01*
X79764409Y-125422000D01*
X78766409Y-125422000D01*
X78766409Y-123920000D01*
X77264409Y-123920000D01*
X77264409Y-125422000D01*
X76266409Y-125422000D01*
X76266409Y-123920000D01*
X74764409Y-123920000D01*
X74764409Y-125422000D01*
X73766409Y-125422000D01*
X73766409Y-123920000D01*
X72264409Y-123920000D01*
X72264409Y-125422000D01*
X71266409Y-125422000D01*
X71266409Y-123920000D01*
X69764409Y-123920000D01*
X69764409Y-125422000D01*
X68766409Y-125422000D01*
X68766409Y-123920000D01*
X67264409Y-123920000D01*
X67264409Y-125422000D01*
X66266409Y-125422000D01*
X66266409Y-123920000D01*
X65795659Y-123920000D01*
X64671603Y-123920000D01*
X64646850Y-121420000D01*
X65770906Y-121420000D01*
X65785777Y-122922000D01*
X66266409Y-122922000D01*
X67264409Y-122922000D01*
X68644966Y-122922000D01*
X78053619Y-122922000D01*
X78766409Y-122922000D01*
X79764409Y-122922000D01*
X81266409Y-122922000D01*
X81266409Y-121420000D01*
X79764409Y-121420000D01*
X79764409Y-122922000D01*
X78766409Y-122922000D01*
X78766409Y-121420000D01*
X78142999Y-121420000D01*
X78143000Y-122473248D01*
X78142955Y-122476572D01*
X78142416Y-122496674D01*
X78142283Y-122499994D01*
X78140851Y-122526680D01*
X78140629Y-122529989D01*
X78139019Y-122549982D01*
X78138708Y-122553285D01*
X78127538Y-122657175D01*
X78126471Y-122664843D01*
X78118564Y-122711029D01*
X78117019Y-122718619D01*
X78102674Y-122779330D01*
X78100658Y-122786809D01*
X78087050Y-122831672D01*
X78084571Y-122839012D01*
X78053619Y-122922000D01*
X68644966Y-122922000D01*
X68550363Y-122791791D01*
X68547578Y-122787795D01*
X68531210Y-122763298D01*
X68528585Y-122759197D01*
X68508103Y-122725773D01*
X68505641Y-122721572D01*
X68491251Y-122695876D01*
X68488956Y-122691583D01*
X68367331Y-122452881D01*
X68365207Y-122448502D01*
X68352878Y-122421760D01*
X68350927Y-122417299D01*
X68335925Y-122381083D01*
X68334150Y-122376549D01*
X68323951Y-122348905D01*
X68322355Y-122344302D01*
X68239562Y-122089490D01*
X68238147Y-122084826D01*
X68230145Y-122056449D01*
X68228915Y-122051732D01*
X68219767Y-122013614D01*
X68218725Y-122008863D01*
X68212985Y-121980000D01*
X68212130Y-121975212D01*
X68170223Y-121710627D01*
X68169555Y-121705803D01*
X68166095Y-121676569D01*
X68165619Y-121671732D01*
X68162541Y-121632653D01*
X68162254Y-121627788D01*
X68161096Y-121598336D01*
X68161000Y-121593464D01*
X68161000Y-121420000D01*
X67264409Y-121420000D01*
X67264409Y-122922000D01*
X66266409Y-122922000D01*
X66266409Y-121420000D01*
X65770906Y-121420000D01*
X64646850Y-121420000D01*
X64645168Y-121250146D01*
X69159000Y-121250146D01*
X69159000Y-121573853D01*
X69194778Y-121799746D01*
X69194778Y-121799749D01*
X69265450Y-122017255D01*
X69330325Y-122144578D01*
X69369283Y-122221038D01*
X69503714Y-122406066D01*
X69665434Y-122567786D01*
X69850462Y-122702217D01*
X70026261Y-122791791D01*
X70054244Y-122806049D01*
X70271751Y-122876721D01*
X70271752Y-122876721D01*
X70271755Y-122876722D01*
X70497646Y-122912500D01*
X70497647Y-122912500D01*
X70726353Y-122912500D01*
X70726354Y-122912500D01*
X70952245Y-122876722D01*
X70952248Y-122876721D01*
X70952249Y-122876721D01*
X71169755Y-122806049D01*
X71169755Y-122806048D01*
X71169758Y-122806048D01*
X71373538Y-122702217D01*
X71558566Y-122567786D01*
X71720286Y-122406066D01*
X71781992Y-122321134D01*
X71837319Y-122278470D01*
X71906932Y-122272491D01*
X71968727Y-122305096D01*
X71982626Y-122321135D01*
X72044097Y-122405741D01*
X72044097Y-122405742D01*
X72205757Y-122567402D01*
X72390723Y-122701788D01*
X72594429Y-122805582D01*
X72811871Y-122876234D01*
X72902000Y-122890509D01*
X72902000Y-121902747D01*
X72939708Y-121924518D01*
X73079591Y-121962000D01*
X73224409Y-121962000D01*
X73364292Y-121924518D01*
X73402000Y-121902747D01*
X73402000Y-122890508D01*
X73492128Y-122876234D01*
X73709570Y-122805582D01*
X73913276Y-122701788D01*
X74096059Y-122568988D01*
X74161865Y-122545508D01*
X74229919Y-122561333D01*
X74278614Y-122611439D01*
X74285127Y-122625974D01*
X74295701Y-122654326D01*
X74295706Y-122654335D01*
X74381952Y-122769544D01*
X74381955Y-122769547D01*
X74497164Y-122855793D01*
X74497171Y-122855797D01*
X74632017Y-122906091D01*
X74632016Y-122906091D01*
X74638944Y-122906835D01*
X74691627Y-122912500D01*
X76692372Y-122912499D01*
X76751983Y-122906091D01*
X76886831Y-122855796D01*
X77002046Y-122769546D01*
X77088296Y-122654331D01*
X77138591Y-122519483D01*
X77145000Y-122459873D01*
X77144999Y-120789837D01*
X83013500Y-120789837D01*
X83013500Y-121018162D01*
X83049215Y-121243660D01*
X83119770Y-121460803D01*
X83204854Y-121627788D01*
X83223421Y-121664228D01*
X83357621Y-121848937D01*
X83519063Y-122010379D01*
X83703772Y-122144579D01*
X83799884Y-122193550D01*
X83907196Y-122248229D01*
X83907198Y-122248229D01*
X83907201Y-122248231D01*
X84000267Y-122278470D01*
X84124339Y-122318784D01*
X84349838Y-122354500D01*
X84349843Y-122354500D01*
X84578162Y-122354500D01*
X84803660Y-122318784D01*
X84845787Y-122305096D01*
X85020799Y-122248231D01*
X85224228Y-122144579D01*
X85408937Y-122010379D01*
X85570379Y-121848937D01*
X85613683Y-121789333D01*
X85669012Y-121746670D01*
X85738626Y-121740691D01*
X85800421Y-121773297D01*
X85814313Y-121789329D01*
X85857621Y-121848937D01*
X86019063Y-122010379D01*
X86203772Y-122144579D01*
X86299884Y-122193550D01*
X86407196Y-122248229D01*
X86407198Y-122248229D01*
X86407201Y-122248231D01*
X86500267Y-122278470D01*
X86624339Y-122318784D01*
X86849838Y-122354500D01*
X86849843Y-122354500D01*
X87078162Y-122354500D01*
X87303660Y-122318784D01*
X87345787Y-122305096D01*
X87520799Y-122248231D01*
X87724228Y-122144579D01*
X87878564Y-122032446D01*
X87944368Y-122008967D01*
X88012422Y-122024792D01*
X88061117Y-122074897D01*
X88067629Y-122089429D01*
X88070202Y-122096327D01*
X88070206Y-122096335D01*
X88156452Y-122211544D01*
X88156455Y-122211547D01*
X88271664Y-122297793D01*
X88271671Y-122297797D01*
X88406517Y-122348091D01*
X88406516Y-122348091D01*
X88413444Y-122348835D01*
X88466127Y-122354500D01*
X90461872Y-122354499D01*
X90521483Y-122348091D01*
X90656331Y-122297796D01*
X90771546Y-122211546D01*
X90857796Y-122096331D01*
X90908091Y-121961483D01*
X90914500Y-121901873D01*
X90914499Y-119906128D01*
X90908091Y-119846517D01*
X90889854Y-119797622D01*
X90857797Y-119711671D01*
X90857793Y-119711664D01*
X90771547Y-119596455D01*
X90771544Y-119596452D01*
X90656335Y-119510206D01*
X90656328Y-119510202D01*
X90521482Y-119459908D01*
X90521483Y-119459908D01*
X90461883Y-119453501D01*
X90461881Y-119453500D01*
X90461873Y-119453500D01*
X90461864Y-119453500D01*
X88466129Y-119453500D01*
X88466123Y-119453501D01*
X88406516Y-119459908D01*
X88271671Y-119510202D01*
X88271664Y-119510206D01*
X88156455Y-119596452D01*
X88156452Y-119596455D01*
X88070206Y-119711664D01*
X88070202Y-119711672D01*
X88067629Y-119718571D01*
X88025757Y-119774504D01*
X87960292Y-119798919D01*
X87892019Y-119784066D01*
X87878571Y-119775559D01*
X87724228Y-119663421D01*
X87702722Y-119652463D01*
X87520803Y-119559770D01*
X87303660Y-119489215D01*
X87078162Y-119453500D01*
X87078157Y-119453500D01*
X86849843Y-119453500D01*
X86849838Y-119453500D01*
X86624339Y-119489215D01*
X86407196Y-119559770D01*
X86203771Y-119663421D01*
X86019061Y-119797622D01*
X85857623Y-119959060D01*
X85857616Y-119959069D01*
X85814317Y-120018664D01*
X85758987Y-120061330D01*
X85689373Y-120067308D01*
X85627579Y-120034701D01*
X85613683Y-120018664D01*
X85570383Y-119959069D01*
X85570379Y-119959063D01*
X85408937Y-119797621D01*
X85224228Y-119663421D01*
X85202722Y-119652463D01*
X85020803Y-119559770D01*
X84803660Y-119489215D01*
X84578162Y-119453500D01*
X84578157Y-119453500D01*
X84349843Y-119453500D01*
X84349838Y-119453500D01*
X84124339Y-119489215D01*
X83907196Y-119559770D01*
X83703771Y-119663421D01*
X83519061Y-119797622D01*
X83357622Y-119959061D01*
X83223421Y-120143771D01*
X83119770Y-120347196D01*
X83049215Y-120564339D01*
X83013500Y-120789837D01*
X77144999Y-120789837D01*
X77144999Y-120364128D01*
X77138591Y-120304517D01*
X77128841Y-120278377D01*
X77088297Y-120169671D01*
X77088293Y-120169664D01*
X77002047Y-120054455D01*
X77002044Y-120054452D01*
X76886835Y-119968206D01*
X76886828Y-119968202D01*
X76751982Y-119917908D01*
X76751983Y-119917908D01*
X76692383Y-119911501D01*
X76692381Y-119911500D01*
X76692373Y-119911500D01*
X76692364Y-119911500D01*
X74691629Y-119911500D01*
X74691623Y-119911501D01*
X74632016Y-119917908D01*
X74497171Y-119968202D01*
X74497164Y-119968206D01*
X74381955Y-120054452D01*
X74381952Y-120054455D01*
X74295706Y-120169664D01*
X74295702Y-120169671D01*
X74285127Y-120198026D01*
X74243256Y-120253960D01*
X74177791Y-120278377D01*
X74109518Y-120263525D01*
X74096060Y-120255011D01*
X73913279Y-120122213D01*
X73709568Y-120018417D01*
X73492124Y-119947765D01*
X73402000Y-119933490D01*
X73402000Y-120921252D01*
X73364292Y-120899482D01*
X73224409Y-120862000D01*
X73079591Y-120862000D01*
X72939708Y-120899482D01*
X72902000Y-120921252D01*
X72902000Y-119933490D01*
X72901999Y-119933490D01*
X72811875Y-119947765D01*
X72594431Y-120018417D01*
X72390723Y-120122211D01*
X72205757Y-120256597D01*
X72044097Y-120418257D01*
X71982627Y-120502864D01*
X71927297Y-120545529D01*
X71857684Y-120551508D01*
X71795889Y-120518902D01*
X71781991Y-120502864D01*
X71720286Y-120417934D01*
X71558566Y-120256214D01*
X71373538Y-120121783D01*
X71266625Y-120067308D01*
X71169755Y-120017950D01*
X70952248Y-119947278D01*
X70766812Y-119917908D01*
X70726354Y-119911500D01*
X70497646Y-119911500D01*
X70457188Y-119917908D01*
X70271753Y-119947278D01*
X70271750Y-119947278D01*
X70054244Y-120017950D01*
X69850461Y-120121783D01*
X69784550Y-120169671D01*
X69665434Y-120256214D01*
X69665432Y-120256216D01*
X69665431Y-120256216D01*
X69503716Y-120417931D01*
X69503716Y-120417932D01*
X69503714Y-120417934D01*
X69500760Y-120422000D01*
X69369283Y-120602961D01*
X69265450Y-120806744D01*
X69194778Y-121024250D01*
X69194778Y-121024253D01*
X69159000Y-121250146D01*
X64645168Y-121250146D01*
X64622098Y-118920000D01*
X65746154Y-118920000D01*
X65761024Y-120422000D01*
X66266409Y-120422000D01*
X66266409Y-119069106D01*
X67264409Y-119069106D01*
X67264409Y-120422000D01*
X68344590Y-120422000D01*
X68350927Y-120406701D01*
X68352878Y-120402240D01*
X68365207Y-120375498D01*
X68367331Y-120371119D01*
X68488956Y-120132417D01*
X68491251Y-120128124D01*
X68505641Y-120102428D01*
X68508103Y-120098227D01*
X68528585Y-120064803D01*
X68531210Y-120060702D01*
X68547578Y-120036205D01*
X68550363Y-120032209D01*
X68707838Y-119815464D01*
X68710778Y-119811581D01*
X68729016Y-119788447D01*
X68732104Y-119784684D01*
X68757562Y-119754877D01*
X68760797Y-119751237D01*
X68766409Y-119745166D01*
X68766409Y-119043873D01*
X77264409Y-119043873D01*
X77269002Y-119045587D01*
X77277182Y-119048975D01*
X77325919Y-119071233D01*
X77333833Y-119075195D01*
X77396423Y-119109372D01*
X77404037Y-119113890D01*
X77449104Y-119142854D01*
X77456374Y-119147902D01*
X77628673Y-119276886D01*
X77635564Y-119282439D01*
X77676049Y-119317519D01*
X77682528Y-119323551D01*
X77732949Y-119373972D01*
X77738981Y-119380451D01*
X77774061Y-119420936D01*
X77779614Y-119427827D01*
X77908598Y-119600126D01*
X77913646Y-119607396D01*
X77942610Y-119652463D01*
X77947128Y-119660077D01*
X77981305Y-119722667D01*
X77985267Y-119730581D01*
X78007525Y-119779318D01*
X78010913Y-119787498D01*
X78084569Y-119984982D01*
X78087048Y-119992321D01*
X78100653Y-120037172D01*
X78102668Y-120044648D01*
X78117016Y-120105363D01*
X78118561Y-120112955D01*
X78126472Y-120159160D01*
X78127541Y-120166833D01*
X78138712Y-120270756D01*
X78139022Y-120274061D01*
X78140635Y-120294101D01*
X78140858Y-120297422D01*
X78142286Y-120324105D01*
X78142419Y-120327418D01*
X78142955Y-120347466D01*
X78142999Y-120350780D01*
X78142999Y-120422000D01*
X78766409Y-120422000D01*
X79764409Y-120422000D01*
X81266409Y-120422000D01*
X81266409Y-118920000D01*
X79764409Y-118920000D01*
X79764409Y-120422000D01*
X78766409Y-120422000D01*
X78766409Y-118920000D01*
X77264409Y-118920000D01*
X77264409Y-119043873D01*
X68766409Y-119043873D01*
X68766409Y-118945860D01*
X68741474Y-118957355D01*
X68737008Y-118959309D01*
X68700792Y-118974307D01*
X68696261Y-118976080D01*
X68668652Y-118986264D01*
X68664058Y-118987857D01*
X68432166Y-119063205D01*
X68427503Y-119064619D01*
X68399124Y-119072622D01*
X68394405Y-119073853D01*
X68356286Y-119083001D01*
X68351536Y-119084043D01*
X68322674Y-119089783D01*
X68317885Y-119090638D01*
X68077067Y-119128781D01*
X68072237Y-119129449D01*
X68042964Y-119132912D01*
X68038120Y-119133389D01*
X67999040Y-119136463D01*
X67994181Y-119136750D01*
X67964767Y-119137905D01*
X67959902Y-119138000D01*
X67716098Y-119138000D01*
X67711233Y-119137905D01*
X67681819Y-119136750D01*
X67676960Y-119136463D01*
X67637880Y-119133389D01*
X67633036Y-119132912D01*
X67603763Y-119129449D01*
X67598933Y-119128781D01*
X67358115Y-119090638D01*
X67353326Y-119089783D01*
X67324464Y-119084043D01*
X67319714Y-119083001D01*
X67281595Y-119073853D01*
X67276876Y-119072622D01*
X67264409Y-119069106D01*
X66266409Y-119069106D01*
X66266409Y-118920000D01*
X65746154Y-118920000D01*
X64622098Y-118920000D01*
X64600491Y-116737682D01*
X66538000Y-116737682D01*
X66538000Y-116942317D01*
X66570009Y-117144417D01*
X66633244Y-117339031D01*
X66726141Y-117521350D01*
X66726147Y-117521359D01*
X66758523Y-117565921D01*
X66758524Y-117565922D01*
X67438000Y-116886446D01*
X67438000Y-116892661D01*
X67465259Y-116994394D01*
X67517920Y-117085606D01*
X67592394Y-117160080D01*
X67683606Y-117212741D01*
X67785339Y-117240000D01*
X67791553Y-117240000D01*
X67112076Y-117919474D01*
X67156650Y-117951859D01*
X67338968Y-118044755D01*
X67533582Y-118107990D01*
X67735683Y-118140000D01*
X67940317Y-118140000D01*
X68142417Y-118107990D01*
X68337031Y-118044755D01*
X68519349Y-117951859D01*
X68563921Y-117919474D01*
X67884447Y-117240000D01*
X67890661Y-117240000D01*
X67992394Y-117212741D01*
X68083606Y-117160080D01*
X68158080Y-117085606D01*
X68210741Y-116994394D01*
X68238000Y-116892661D01*
X68238000Y-116886447D01*
X68917474Y-117565921D01*
X68949859Y-117521349D01*
X68977233Y-117467624D01*
X69025207Y-117416827D01*
X69093028Y-117400031D01*
X69159163Y-117422567D01*
X69198203Y-117467621D01*
X69225713Y-117521611D01*
X69346028Y-117687213D01*
X69490786Y-117831971D01*
X69611226Y-117919474D01*
X69656390Y-117952287D01*
X69772607Y-118011503D01*
X69838776Y-118045218D01*
X69838778Y-118045218D01*
X69838781Y-118045220D01*
X69943137Y-118079127D01*
X70033465Y-118108477D01*
X70134557Y-118124488D01*
X70235648Y-118140500D01*
X70235649Y-118140500D01*
X70440351Y-118140500D01*
X70440352Y-118140500D01*
X70642534Y-118108477D01*
X70837219Y-118045220D01*
X71019610Y-117952287D01*
X71061296Y-117922000D01*
X72366360Y-117922000D01*
X73766409Y-117922000D01*
X79764409Y-117922000D01*
X81266409Y-117922000D01*
X82264409Y-117922000D01*
X83766409Y-117922000D01*
X84764409Y-117922000D01*
X86266409Y-117922000D01*
X87264409Y-117922000D01*
X88766409Y-117922000D01*
X89764409Y-117922000D01*
X91266409Y-117922000D01*
X91266409Y-116420000D01*
X89764409Y-116420000D01*
X89764409Y-117922000D01*
X88766409Y-117922000D01*
X88766409Y-116420000D01*
X87264409Y-116420000D01*
X87264409Y-117922000D01*
X86266409Y-117922000D01*
X86266409Y-116420000D01*
X84764409Y-116420000D01*
X84764409Y-117922000D01*
X83766409Y-117922000D01*
X83766409Y-116420000D01*
X82264409Y-116420000D01*
X82264409Y-117922000D01*
X81266409Y-117922000D01*
X81266409Y-116420000D01*
X79764409Y-116420000D01*
X79764409Y-117922000D01*
X73766409Y-117922000D01*
X73766409Y-117919265D01*
X73564107Y-117816188D01*
X73559813Y-117813893D01*
X73534116Y-117799502D01*
X73529916Y-117797040D01*
X73496492Y-117776558D01*
X73492393Y-117773934D01*
X73467895Y-117757566D01*
X73463897Y-117754780D01*
X73224089Y-117580547D01*
X73188785Y-117540818D01*
X73120720Y-117419278D01*
X72999176Y-117351211D01*
X72959447Y-117315906D01*
X72785212Y-117076090D01*
X72782427Y-117072095D01*
X72766049Y-117047583D01*
X72763419Y-117043474D01*
X72742940Y-117010049D01*
X72740482Y-117005854D01*
X72726102Y-116980175D01*
X72723808Y-116975884D01*
X72636500Y-116804531D01*
X72636500Y-116961962D01*
X72636404Y-116966834D01*
X72635246Y-116996286D01*
X72634959Y-117001151D01*
X72631881Y-117040230D01*
X72631405Y-117045067D01*
X72627945Y-117074301D01*
X72627277Y-117079125D01*
X72589125Y-117320001D01*
X72588270Y-117324789D01*
X72582530Y-117353652D01*
X72581488Y-117358403D01*
X72572340Y-117396522D01*
X72571109Y-117401241D01*
X72563106Y-117429620D01*
X72561692Y-117434283D01*
X72486320Y-117666250D01*
X72484727Y-117670844D01*
X72474543Y-117698453D01*
X72472770Y-117702984D01*
X72457772Y-117739200D01*
X72455818Y-117743667D01*
X72443475Y-117770443D01*
X72441349Y-117774827D01*
X72366360Y-117922000D01*
X71061296Y-117922000D01*
X71112590Y-117884732D01*
X71185213Y-117831971D01*
X71185215Y-117831968D01*
X71185219Y-117831966D01*
X71329966Y-117687219D01*
X71329968Y-117687215D01*
X71329971Y-117687213D01*
X71407467Y-117580547D01*
X71450287Y-117521610D01*
X71543220Y-117339219D01*
X71606477Y-117144534D01*
X71638500Y-116942352D01*
X71638500Y-116737648D01*
X71627978Y-116671213D01*
X71606477Y-116535465D01*
X71557273Y-116384031D01*
X71543220Y-116340781D01*
X71543218Y-116340778D01*
X71543218Y-116340776D01*
X71483717Y-116224000D01*
X71450287Y-116158390D01*
X71418092Y-116114077D01*
X71329971Y-115992786D01*
X71185213Y-115848028D01*
X71019613Y-115727715D01*
X71019612Y-115727714D01*
X71019610Y-115727713D01*
X71007774Y-115721682D01*
X73416000Y-115721682D01*
X73416000Y-115926317D01*
X73448009Y-116128417D01*
X73511244Y-116323031D01*
X73604141Y-116505350D01*
X73604147Y-116505359D01*
X73636523Y-116549921D01*
X73636524Y-116549922D01*
X74316000Y-115870446D01*
X74316000Y-115876661D01*
X74343259Y-115978394D01*
X74395920Y-116069606D01*
X74470394Y-116144080D01*
X74561606Y-116196741D01*
X74663339Y-116224000D01*
X74669553Y-116224000D01*
X73990076Y-116903474D01*
X74034650Y-116935859D01*
X74216968Y-117028755D01*
X74411582Y-117091990D01*
X74613683Y-117124000D01*
X74818317Y-117124000D01*
X75020417Y-117091990D01*
X75215031Y-117028755D01*
X75397349Y-116935859D01*
X75441921Y-116903474D01*
X74762447Y-116224000D01*
X74768661Y-116224000D01*
X74870394Y-116196741D01*
X74961606Y-116144080D01*
X75036080Y-116069606D01*
X75088741Y-115978394D01*
X75116000Y-115876661D01*
X75116000Y-115870447D01*
X75795474Y-116549921D01*
X75827859Y-116505349D01*
X75855233Y-116451624D01*
X75903207Y-116400827D01*
X75971028Y-116384031D01*
X76037163Y-116406567D01*
X76076203Y-116451621D01*
X76103713Y-116505611D01*
X76224028Y-116671213D01*
X76368786Y-116815971D01*
X76474343Y-116892661D01*
X76534390Y-116936287D01*
X76620525Y-116980175D01*
X76716776Y-117029218D01*
X76716778Y-117029218D01*
X76716781Y-117029220D01*
X76821137Y-117063127D01*
X76911465Y-117092477D01*
X77012557Y-117108488D01*
X77113648Y-117124500D01*
X77113649Y-117124500D01*
X77318351Y-117124500D01*
X77318352Y-117124500D01*
X77520534Y-117092477D01*
X77715219Y-117029220D01*
X77897610Y-116936287D01*
X78030139Y-116840000D01*
X78063213Y-116815971D01*
X78063215Y-116815968D01*
X78063219Y-116815966D01*
X78207966Y-116671219D01*
X78207968Y-116671215D01*
X78207971Y-116671213D01*
X78263782Y-116594394D01*
X78328287Y-116505610D01*
X78421220Y-116323219D01*
X78484477Y-116128534D01*
X78516500Y-115926352D01*
X78516500Y-115721648D01*
X78502741Y-115634780D01*
X78484477Y-115519465D01*
X78452809Y-115422000D01*
X79764409Y-115422000D01*
X81266409Y-115422000D01*
X82264409Y-115422000D01*
X83766409Y-115422000D01*
X84764409Y-115422000D01*
X86266409Y-115422000D01*
X87264409Y-115422000D01*
X88766409Y-115422000D01*
X89764409Y-115422000D01*
X91266409Y-115422000D01*
X91266409Y-113920000D01*
X89764409Y-113920000D01*
X89764409Y-115422000D01*
X88766409Y-115422000D01*
X88766409Y-113920000D01*
X87264409Y-113920000D01*
X87264409Y-115422000D01*
X86266409Y-115422000D01*
X86266409Y-113920000D01*
X84764409Y-113920000D01*
X84764409Y-115422000D01*
X83766409Y-115422000D01*
X83766409Y-113920000D01*
X82264409Y-113920000D01*
X82264409Y-115422000D01*
X81266409Y-115422000D01*
X81266409Y-113920000D01*
X79764409Y-113920000D01*
X79764409Y-115422000D01*
X78452809Y-115422000D01*
X78425946Y-115339326D01*
X78421220Y-115324781D01*
X78421218Y-115324778D01*
X78421218Y-115324776D01*
X78372842Y-115229834D01*
X78328287Y-115142390D01*
X78296092Y-115098077D01*
X78207971Y-114976786D01*
X78063213Y-114832028D01*
X77897613Y-114711715D01*
X77897612Y-114711714D01*
X77897610Y-114711713D01*
X77840653Y-114682691D01*
X77715223Y-114618781D01*
X77520534Y-114555522D01*
X77345995Y-114527878D01*
X77318352Y-114523500D01*
X77113648Y-114523500D01*
X77089329Y-114527351D01*
X76911465Y-114555522D01*
X76716776Y-114618781D01*
X76534386Y-114711715D01*
X76368786Y-114832028D01*
X76224028Y-114976786D01*
X76103714Y-115142386D01*
X76076203Y-115196379D01*
X76028227Y-115247174D01*
X75960406Y-115263968D01*
X75894272Y-115241429D01*
X75855234Y-115196376D01*
X75827861Y-115142652D01*
X75795474Y-115098077D01*
X75795474Y-115098076D01*
X75116000Y-115777551D01*
X75116000Y-115771339D01*
X75088741Y-115669606D01*
X75036080Y-115578394D01*
X74961606Y-115503920D01*
X74870394Y-115451259D01*
X74768661Y-115424000D01*
X74762446Y-115424000D01*
X75441922Y-114744524D01*
X75441921Y-114744523D01*
X75397359Y-114712147D01*
X75397350Y-114712141D01*
X75215031Y-114619244D01*
X75020417Y-114556009D01*
X74818317Y-114524000D01*
X74613683Y-114524000D01*
X74411582Y-114556009D01*
X74216968Y-114619244D01*
X74034644Y-114712143D01*
X73990077Y-114744523D01*
X73990077Y-114744524D01*
X74669554Y-115424000D01*
X74663339Y-115424000D01*
X74561606Y-115451259D01*
X74470394Y-115503920D01*
X74395920Y-115578394D01*
X74343259Y-115669606D01*
X74316000Y-115771339D01*
X74316000Y-115777553D01*
X73636524Y-115098077D01*
X73636523Y-115098077D01*
X73604143Y-115142644D01*
X73511244Y-115324968D01*
X73448009Y-115519582D01*
X73416000Y-115721682D01*
X71007774Y-115721682D01*
X70962653Y-115698691D01*
X70837223Y-115634781D01*
X70642534Y-115571522D01*
X70467995Y-115543878D01*
X70440352Y-115539500D01*
X70235648Y-115539500D01*
X70211329Y-115543351D01*
X70033465Y-115571522D01*
X69838776Y-115634781D01*
X69656386Y-115727715D01*
X69490786Y-115848028D01*
X69346028Y-115992786D01*
X69225714Y-116158386D01*
X69198203Y-116212379D01*
X69150227Y-116263174D01*
X69082406Y-116279968D01*
X69016272Y-116257429D01*
X68977234Y-116212376D01*
X68949861Y-116158652D01*
X68917474Y-116114077D01*
X68917474Y-116114076D01*
X68238000Y-116793551D01*
X68238000Y-116787339D01*
X68210741Y-116685606D01*
X68158080Y-116594394D01*
X68083606Y-116519920D01*
X67992394Y-116467259D01*
X67890661Y-116440000D01*
X67884446Y-116440000D01*
X68563922Y-115760524D01*
X68563921Y-115760523D01*
X68519359Y-115728147D01*
X68519350Y-115728141D01*
X68337031Y-115635244D01*
X68142417Y-115572009D01*
X67940317Y-115540000D01*
X67735683Y-115540000D01*
X67533582Y-115572009D01*
X67338968Y-115635244D01*
X67156644Y-115728143D01*
X67112077Y-115760523D01*
X67112077Y-115760524D01*
X67791554Y-116440000D01*
X67785339Y-116440000D01*
X67683606Y-116467259D01*
X67592394Y-116519920D01*
X67517920Y-116594394D01*
X67465259Y-116685606D01*
X67438000Y-116787339D01*
X67438000Y-116793553D01*
X66758524Y-116114077D01*
X66758523Y-116114077D01*
X66726143Y-116158644D01*
X66633244Y-116340968D01*
X66570009Y-116535582D01*
X66538000Y-116737682D01*
X64600491Y-116737682D01*
X64572593Y-113920000D01*
X65696649Y-113920000D01*
X65711519Y-115422000D01*
X66027749Y-115422000D01*
X72264409Y-115422000D01*
X72453026Y-115422000D01*
X72465362Y-115344115D01*
X72466217Y-115339326D01*
X72471957Y-115310464D01*
X72472999Y-115305714D01*
X72482147Y-115267595D01*
X72483378Y-115262876D01*
X72491381Y-115234497D01*
X72492795Y-115229834D01*
X72568143Y-114997942D01*
X72569736Y-114993348D01*
X72579920Y-114965739D01*
X72581693Y-114961208D01*
X72596691Y-114924992D01*
X72598646Y-114920524D01*
X72610989Y-114893749D01*
X72613114Y-114889366D01*
X72723805Y-114672122D01*
X72726097Y-114667834D01*
X72740470Y-114642166D01*
X72742930Y-114637969D01*
X72763408Y-114604545D01*
X72766034Y-114600441D01*
X72782416Y-114575920D01*
X72785204Y-114571920D01*
X72959441Y-114332098D01*
X72999169Y-114296793D01*
X73120719Y-114228719D01*
X73188793Y-114107169D01*
X73224098Y-114067441D01*
X73427038Y-113920000D01*
X72264409Y-113920000D01*
X72264409Y-115422000D01*
X66027749Y-115422000D01*
X66081441Y-115348098D01*
X66121169Y-115312793D01*
X66242720Y-115244718D01*
X66266409Y-115202420D01*
X66266409Y-114610893D01*
X67264409Y-114610893D01*
X67276876Y-114607378D01*
X67281595Y-114606147D01*
X67319714Y-114596999D01*
X67324464Y-114595957D01*
X67353326Y-114590217D01*
X67358115Y-114589362D01*
X67598933Y-114551219D01*
X67603763Y-114550551D01*
X67633036Y-114547088D01*
X67637880Y-114546611D01*
X67676960Y-114543537D01*
X67681819Y-114543250D01*
X67711233Y-114542095D01*
X67716098Y-114542000D01*
X67959902Y-114542000D01*
X67964767Y-114542095D01*
X67994181Y-114543250D01*
X67999040Y-114543537D01*
X68038120Y-114546611D01*
X68042964Y-114547088D01*
X68072237Y-114550551D01*
X68077067Y-114551219D01*
X68317885Y-114589362D01*
X68322674Y-114590217D01*
X68351536Y-114595957D01*
X68356286Y-114596999D01*
X68394405Y-114606147D01*
X68399124Y-114607378D01*
X68427503Y-114615381D01*
X68432166Y-114616795D01*
X68664058Y-114692143D01*
X68668652Y-114693736D01*
X68696261Y-114703920D01*
X68700792Y-114705693D01*
X68737008Y-114720691D01*
X68741476Y-114722646D01*
X68766409Y-114734139D01*
X68766409Y-114610373D01*
X69764409Y-114610373D01*
X69776759Y-114606891D01*
X69781478Y-114605660D01*
X69819597Y-114596512D01*
X69824348Y-114595470D01*
X69853211Y-114589730D01*
X69857999Y-114588875D01*
X70098875Y-114550723D01*
X70103699Y-114550055D01*
X70132933Y-114546595D01*
X70137770Y-114546119D01*
X70176849Y-114543041D01*
X70181714Y-114542754D01*
X70211166Y-114541596D01*
X70216038Y-114541500D01*
X70459962Y-114541500D01*
X70464834Y-114541596D01*
X70494286Y-114542754D01*
X70499151Y-114543041D01*
X70538230Y-114546119D01*
X70543067Y-114546595D01*
X70572301Y-114550055D01*
X70577125Y-114550723D01*
X70818001Y-114588875D01*
X70822789Y-114589730D01*
X70851652Y-114595470D01*
X70856403Y-114596512D01*
X70894522Y-114605660D01*
X70899241Y-114606891D01*
X70927620Y-114614894D01*
X70932283Y-114616308D01*
X71164250Y-114691680D01*
X71168844Y-114693273D01*
X71196453Y-114703457D01*
X71200984Y-114705230D01*
X71237200Y-114720228D01*
X71241667Y-114722182D01*
X71266409Y-114733587D01*
X71266409Y-113920000D01*
X69764409Y-113920000D01*
X69764409Y-114610373D01*
X68766409Y-114610373D01*
X68766409Y-113920000D01*
X67264409Y-113920000D01*
X67264409Y-114610893D01*
X66266409Y-114610893D01*
X66266409Y-113920000D01*
X65696649Y-113920000D01*
X64572593Y-113920000D01*
X64547840Y-111420000D01*
X65671896Y-111420000D01*
X65686767Y-112922000D01*
X66266409Y-112922000D01*
X67264409Y-112922000D01*
X68766409Y-112922000D01*
X69764409Y-112922000D01*
X71266409Y-112922000D01*
X72264409Y-112922000D01*
X73766409Y-112922000D01*
X74764409Y-112922000D01*
X76266409Y-112922000D01*
X77264409Y-112922000D01*
X78766409Y-112922000D01*
X79764409Y-112922000D01*
X81266409Y-112922000D01*
X81266409Y-112603330D01*
X92264409Y-112603330D01*
X92264409Y-112922000D01*
X92348000Y-112922000D01*
X92348000Y-112869786D01*
X92367685Y-112802747D01*
X92384319Y-112782105D01*
X92970105Y-112196319D01*
X93031428Y-112162834D01*
X93057786Y-112160000D01*
X93766409Y-112160000D01*
X93766409Y-111420000D01*
X93179124Y-111420000D01*
X93137822Y-111519712D01*
X93136206Y-111523439D01*
X93126068Y-111545812D01*
X93124333Y-111549480D01*
X93109885Y-111578775D01*
X93108031Y-111582384D01*
X93096468Y-111604015D01*
X93094499Y-111607558D01*
X92947051Y-111862947D01*
X92944966Y-111866426D01*
X92932001Y-111887276D01*
X92929800Y-111890689D01*
X92911651Y-111917850D01*
X92909343Y-111921185D01*
X92895047Y-111941135D01*
X92892629Y-111944395D01*
X92713114Y-112178341D01*
X92710595Y-112181516D01*
X92695049Y-112200460D01*
X92692430Y-112203547D01*
X92670896Y-112228107D01*
X92668166Y-112231120D01*
X92651362Y-112249063D01*
X92648536Y-112251982D01*
X92439982Y-112460536D01*
X92437063Y-112463362D01*
X92419120Y-112480166D01*
X92416107Y-112482896D01*
X92391547Y-112504430D01*
X92388460Y-112507049D01*
X92369516Y-112522595D01*
X92366341Y-112525115D01*
X92264409Y-112603330D01*
X81266409Y-112603330D01*
X81266409Y-111420000D01*
X79764409Y-111420000D01*
X79764409Y-112922000D01*
X78766409Y-112922000D01*
X78766409Y-111420000D01*
X77264409Y-111420000D01*
X77264409Y-112922000D01*
X76266409Y-112922000D01*
X76266409Y-111420000D01*
X74764409Y-111420000D01*
X74764409Y-112922000D01*
X73766409Y-112922000D01*
X73766409Y-111420000D01*
X72264409Y-111420000D01*
X72264409Y-112922000D01*
X71266409Y-112922000D01*
X71266409Y-111420000D01*
X69764409Y-111420000D01*
X69764409Y-112922000D01*
X68766409Y-112922000D01*
X68766409Y-111420000D01*
X67264409Y-111420000D01*
X67264409Y-112922000D01*
X66266409Y-112922000D01*
X66266409Y-111420000D01*
X65671896Y-111420000D01*
X64547840Y-111420000D01*
X64523088Y-108920000D01*
X65647144Y-108920000D01*
X65662014Y-110422000D01*
X66266409Y-110422000D01*
X67264409Y-110422000D01*
X68766409Y-110422000D01*
X69764409Y-110422000D01*
X71266409Y-110422000D01*
X71266409Y-108920000D01*
X69764409Y-108920000D01*
X69764409Y-110422000D01*
X68766409Y-110422000D01*
X68766409Y-108920000D01*
X67264409Y-108920000D01*
X67264409Y-110422000D01*
X66266409Y-110422000D01*
X66266409Y-108920000D01*
X65647144Y-108920000D01*
X64523088Y-108920000D01*
X64516415Y-108246010D01*
X64535435Y-108178783D01*
X64541192Y-108170410D01*
X64727500Y-107922000D01*
X67264409Y-107922000D01*
X68766409Y-107922000D01*
X69764409Y-107922000D01*
X71266409Y-107922000D01*
X71266409Y-107814135D01*
X72817500Y-107814135D01*
X72817500Y-109609870D01*
X72817501Y-109609876D01*
X72823908Y-109669483D01*
X72874202Y-109804328D01*
X72874206Y-109804335D01*
X72960452Y-109919544D01*
X72960455Y-109919547D01*
X73075664Y-110005793D01*
X73075671Y-110005797D01*
X73210517Y-110056091D01*
X73210516Y-110056091D01*
X73217444Y-110056835D01*
X73270127Y-110062500D01*
X75065872Y-110062499D01*
X75125483Y-110056091D01*
X75260331Y-110005796D01*
X75375546Y-109919546D01*
X75461796Y-109804331D01*
X75510810Y-109672916D01*
X75552681Y-109616984D01*
X75618145Y-109592566D01*
X75686418Y-109607417D01*
X75714673Y-109628569D01*
X75828213Y-109742109D01*
X76000179Y-109867048D01*
X76000181Y-109867049D01*
X76000184Y-109867051D01*
X76189588Y-109963557D01*
X76391757Y-110029246D01*
X76601713Y-110062500D01*
X76601714Y-110062500D01*
X76814286Y-110062500D01*
X76814287Y-110062500D01*
X77024243Y-110029246D01*
X77226412Y-109963557D01*
X77415816Y-109867051D01*
X77446325Y-109844885D01*
X77587786Y-109742109D01*
X77587788Y-109742106D01*
X77587792Y-109742104D01*
X77738104Y-109591792D01*
X77738106Y-109591788D01*
X77738109Y-109591786D01*
X77863048Y-109419820D01*
X77863047Y-109419820D01*
X77863051Y-109419816D01*
X77867514Y-109411054D01*
X77915488Y-109360259D01*
X77983308Y-109343463D01*
X78049444Y-109365999D01*
X78088486Y-109411056D01*
X78092951Y-109419820D01*
X78217890Y-109591786D01*
X78368213Y-109742109D01*
X78540179Y-109867048D01*
X78540181Y-109867049D01*
X78540184Y-109867051D01*
X78729588Y-109963557D01*
X78931757Y-110029246D01*
X79141713Y-110062500D01*
X79141714Y-110062500D01*
X79354286Y-110062500D01*
X79354287Y-110062500D01*
X79564243Y-110029246D01*
X79766412Y-109963557D01*
X79955816Y-109867051D01*
X79986325Y-109844885D01*
X80127786Y-109742109D01*
X80127788Y-109742106D01*
X80127792Y-109742104D01*
X80278104Y-109591792D01*
X80278106Y-109591788D01*
X80278109Y-109591786D01*
X80403048Y-109419820D01*
X80403047Y-109419820D01*
X80403051Y-109419816D01*
X80499557Y-109230412D01*
X80565246Y-109028243D01*
X80598500Y-108818287D01*
X80598500Y-108688155D01*
X83344000Y-108688155D01*
X83344000Y-109986000D01*
X84624936Y-109986000D01*
X84613207Y-110014316D01*
X84584000Y-110161147D01*
X84584000Y-110310853D01*
X84613207Y-110457684D01*
X84624936Y-110486000D01*
X83344000Y-110486000D01*
X83344000Y-111783844D01*
X83350401Y-111843372D01*
X83350403Y-111843379D01*
X83400645Y-111978086D01*
X83400649Y-111978093D01*
X83486809Y-112093187D01*
X83486812Y-112093190D01*
X83601906Y-112179350D01*
X83601913Y-112179354D01*
X83736620Y-112229596D01*
X83736627Y-112229598D01*
X83796155Y-112235999D01*
X83796172Y-112236000D01*
X85094000Y-112236000D01*
X85094000Y-110955064D01*
X85122316Y-110966793D01*
X85269147Y-110996000D01*
X85418853Y-110996000D01*
X85565684Y-110966793D01*
X85594000Y-110955064D01*
X85594000Y-112236000D01*
X86891828Y-112236000D01*
X86891844Y-112235999D01*
X86951372Y-112229598D01*
X86951379Y-112229596D01*
X87086086Y-112179354D01*
X87086093Y-112179350D01*
X87201187Y-112093190D01*
X87201190Y-112093187D01*
X87287350Y-111978093D01*
X87287354Y-111978086D01*
X87337596Y-111843379D01*
X87337598Y-111843372D01*
X87343999Y-111783844D01*
X87344000Y-111783827D01*
X87344000Y-110486000D01*
X86063064Y-110486000D01*
X86074793Y-110457684D01*
X86104000Y-110310853D01*
X86104000Y-110161147D01*
X86092806Y-110104872D01*
X88423500Y-110104872D01*
X88423500Y-110367127D01*
X88430091Y-110417184D01*
X88457730Y-110627116D01*
X88506401Y-110808760D01*
X88525602Y-110880418D01*
X88525605Y-110880428D01*
X88625953Y-111122690D01*
X88625958Y-111122700D01*
X88757075Y-111349803D01*
X88916718Y-111557851D01*
X88916726Y-111557860D01*
X89102140Y-111743274D01*
X89102148Y-111743281D01*
X89310196Y-111902924D01*
X89537299Y-112034041D01*
X89537309Y-112034046D01*
X89680096Y-112093190D01*
X89779581Y-112134398D01*
X90032884Y-112202270D01*
X90281188Y-112234960D01*
X90289074Y-112235999D01*
X90292880Y-112236500D01*
X90292887Y-112236500D01*
X90555113Y-112236500D01*
X90555120Y-112236500D01*
X90815116Y-112202270D01*
X91068419Y-112134398D01*
X91310697Y-112034043D01*
X91537803Y-111902924D01*
X91745851Y-111743282D01*
X91745855Y-111743277D01*
X91745860Y-111743274D01*
X91931274Y-111557860D01*
X91931277Y-111557855D01*
X91931282Y-111557851D01*
X92090924Y-111349803D01*
X92222043Y-111122697D01*
X92265115Y-111018713D01*
X95474300Y-111018713D01*
X95474300Y-111231287D01*
X95507554Y-111441243D01*
X95561593Y-111607558D01*
X95573244Y-111643414D01*
X95669751Y-111832820D01*
X95794690Y-112004786D01*
X95945013Y-112155109D01*
X96116979Y-112280048D01*
X96116981Y-112280049D01*
X96116984Y-112280051D01*
X96306388Y-112376557D01*
X96508557Y-112442246D01*
X96718513Y-112475500D01*
X96718514Y-112475500D01*
X96931086Y-112475500D01*
X96931087Y-112475500D01*
X97141043Y-112442246D01*
X97343212Y-112376557D01*
X97532616Y-112280051D01*
X97592561Y-112236499D01*
X97704586Y-112155109D01*
X97704588Y-112155106D01*
X97704592Y-112155104D01*
X97854904Y-112004792D01*
X97854906Y-112004788D01*
X97854909Y-112004786D01*
X97979848Y-111832820D01*
X97979847Y-111832820D01*
X97979851Y-111832816D01*
X98076357Y-111643412D01*
X98142046Y-111441243D01*
X98175300Y-111231287D01*
X98175300Y-111018713D01*
X98142046Y-110808757D01*
X98076357Y-110606588D01*
X97979851Y-110417184D01*
X97979849Y-110417181D01*
X97979848Y-110417179D01*
X97854909Y-110245213D01*
X97740981Y-110131285D01*
X97707496Y-110069962D01*
X97712480Y-110000270D01*
X97754352Y-109944337D01*
X97785329Y-109927422D01*
X97916886Y-109878354D01*
X97916893Y-109878350D01*
X98031987Y-109792190D01*
X98031990Y-109792187D01*
X98118150Y-109677093D01*
X98118154Y-109677086D01*
X98168396Y-109542379D01*
X98168398Y-109542372D01*
X98174799Y-109482844D01*
X98174800Y-109482827D01*
X98174800Y-108835000D01*
X97257812Y-108835000D01*
X97290725Y-108777993D01*
X97324800Y-108650826D01*
X97324800Y-108519174D01*
X97290725Y-108392007D01*
X97257812Y-108335000D01*
X98174800Y-108335000D01*
X98174800Y-107687172D01*
X98174799Y-107687155D01*
X98168398Y-107627627D01*
X98168396Y-107627620D01*
X98118154Y-107492913D01*
X98118150Y-107492906D01*
X98031990Y-107377812D01*
X98031987Y-107377809D01*
X97916893Y-107291649D01*
X97916886Y-107291645D01*
X97782179Y-107241403D01*
X97782172Y-107241401D01*
X97722644Y-107235000D01*
X97074800Y-107235000D01*
X97074800Y-108151988D01*
X97017793Y-108119075D01*
X96890626Y-108085000D01*
X96758974Y-108085000D01*
X96631807Y-108119075D01*
X96574800Y-108151988D01*
X96574800Y-107235000D01*
X95926955Y-107235000D01*
X95867427Y-107241401D01*
X95867420Y-107241403D01*
X95732713Y-107291645D01*
X95732706Y-107291649D01*
X95617612Y-107377809D01*
X95617609Y-107377812D01*
X95531449Y-107492906D01*
X95531445Y-107492913D01*
X95481203Y-107627620D01*
X95481201Y-107627627D01*
X95474800Y-107687155D01*
X95474800Y-108335000D01*
X96391788Y-108335000D01*
X96358875Y-108392007D01*
X96324800Y-108519174D01*
X96324800Y-108650826D01*
X96358875Y-108777993D01*
X96391788Y-108835000D01*
X95474800Y-108835000D01*
X95474800Y-109482844D01*
X95481201Y-109542372D01*
X95481203Y-109542379D01*
X95531445Y-109677086D01*
X95531449Y-109677093D01*
X95617609Y-109792187D01*
X95617612Y-109792190D01*
X95732706Y-109878350D01*
X95732713Y-109878354D01*
X95864270Y-109927422D01*
X95920204Y-109969293D01*
X95944621Y-110034758D01*
X95929769Y-110103031D01*
X95908619Y-110131285D01*
X95794689Y-110245215D01*
X95669751Y-110417179D01*
X95573244Y-110606585D01*
X95507553Y-110808760D01*
X95496202Y-110880428D01*
X95474300Y-111018713D01*
X92265115Y-111018713D01*
X92322398Y-110880419D01*
X92390270Y-110627116D01*
X92424500Y-110367120D01*
X92424500Y-110104880D01*
X92390270Y-109844884D01*
X92322398Y-109591581D01*
X92274523Y-109476000D01*
X92222046Y-109349309D01*
X92222041Y-109349299D01*
X92090924Y-109122196D01*
X91937705Y-108922520D01*
X91935771Y-108920000D01*
X93123090Y-108920000D01*
X93124333Y-108922520D01*
X93126068Y-108926188D01*
X93136206Y-108948561D01*
X93137822Y-108952288D01*
X93250686Y-109224767D01*
X93252178Y-109228542D01*
X93260835Y-109251544D01*
X93262205Y-109255375D01*
X93272702Y-109286308D01*
X93273941Y-109290165D01*
X93281056Y-109313624D01*
X93282169Y-109317520D01*
X93358491Y-109602357D01*
X93359477Y-109606293D01*
X93365050Y-109630194D01*
X93365907Y-109634162D01*
X93372279Y-109666198D01*
X93373005Y-109670188D01*
X93377004Y-109694408D01*
X93377599Y-109698422D01*
X93416093Y-109990805D01*
X93416556Y-109994833D01*
X93418963Y-110019263D01*
X93419296Y-110023313D01*
X93421432Y-110055910D01*
X93421631Y-110059961D01*
X93422434Y-110084492D01*
X93422500Y-110088549D01*
X93422500Y-110383451D01*
X93422434Y-110387508D01*
X93421631Y-110412039D01*
X93421432Y-110416090D01*
X93421045Y-110422000D01*
X93766409Y-110422000D01*
X93766409Y-108920000D01*
X93123090Y-108920000D01*
X91935771Y-108920000D01*
X91931282Y-108914149D01*
X91931281Y-108914148D01*
X91931274Y-108914140D01*
X91745860Y-108728726D01*
X91745851Y-108728718D01*
X91537803Y-108569075D01*
X91310700Y-108437958D01*
X91310690Y-108437953D01*
X91068428Y-108337605D01*
X91068421Y-108337603D01*
X91068419Y-108337602D01*
X90815116Y-108269730D01*
X90757339Y-108262123D01*
X90555127Y-108235500D01*
X90555120Y-108235500D01*
X90292880Y-108235500D01*
X90292872Y-108235500D01*
X90061772Y-108265926D01*
X90032884Y-108269730D01*
X89947364Y-108292645D01*
X89779581Y-108337602D01*
X89779571Y-108337605D01*
X89537309Y-108437953D01*
X89537299Y-108437958D01*
X89310196Y-108569075D01*
X89102148Y-108728718D01*
X88916718Y-108914148D01*
X88757075Y-109122196D01*
X88625958Y-109349299D01*
X88625953Y-109349309D01*
X88525605Y-109591571D01*
X88525602Y-109591581D01*
X88485269Y-109742109D01*
X88457730Y-109844885D01*
X88423500Y-110104872D01*
X86092806Y-110104872D01*
X86074793Y-110014316D01*
X86063064Y-109986000D01*
X87344000Y-109986000D01*
X87344000Y-108688172D01*
X87343999Y-108688155D01*
X87337598Y-108628627D01*
X87337596Y-108628620D01*
X87287354Y-108493913D01*
X87287350Y-108493906D01*
X87201190Y-108378812D01*
X87201187Y-108378809D01*
X87086093Y-108292649D01*
X87086086Y-108292645D01*
X86951379Y-108242403D01*
X86951372Y-108242401D01*
X86891844Y-108236000D01*
X85594000Y-108236000D01*
X85594000Y-109516935D01*
X85565684Y-109505207D01*
X85418853Y-109476000D01*
X85269147Y-109476000D01*
X85122316Y-109505207D01*
X85094000Y-109516935D01*
X85094000Y-108236000D01*
X83796155Y-108236000D01*
X83736627Y-108242401D01*
X83736620Y-108242403D01*
X83601913Y-108292645D01*
X83601906Y-108292649D01*
X83486812Y-108378809D01*
X83486809Y-108378812D01*
X83400649Y-108493906D01*
X83400645Y-108493913D01*
X83350403Y-108628620D01*
X83350401Y-108628627D01*
X83344000Y-108688155D01*
X80598500Y-108688155D01*
X80598500Y-108605713D01*
X80565246Y-108395757D01*
X80499557Y-108193588D01*
X80403051Y-108004184D01*
X80403049Y-108004181D01*
X80403048Y-108004179D01*
X80278109Y-107832213D01*
X80127786Y-107681890D01*
X79955820Y-107556951D01*
X79766414Y-107460444D01*
X79766413Y-107460443D01*
X79766412Y-107460443D01*
X79564243Y-107394754D01*
X79564241Y-107394753D01*
X79564240Y-107394753D01*
X79402957Y-107369208D01*
X79354287Y-107361500D01*
X79141713Y-107361500D01*
X79093042Y-107369208D01*
X78931760Y-107394753D01*
X78729585Y-107460444D01*
X78540179Y-107556951D01*
X78368213Y-107681890D01*
X78217890Y-107832213D01*
X78092949Y-108004182D01*
X78088484Y-108012946D01*
X78040509Y-108063742D01*
X77972688Y-108080536D01*
X77906553Y-108057998D01*
X77867516Y-108012946D01*
X77863050Y-108004182D01*
X77738109Y-107832213D01*
X77587786Y-107681890D01*
X77415820Y-107556951D01*
X77226414Y-107460444D01*
X77226413Y-107460443D01*
X77226412Y-107460443D01*
X77024243Y-107394754D01*
X77024241Y-107394753D01*
X77024240Y-107394753D01*
X76862957Y-107369208D01*
X76814287Y-107361500D01*
X76601713Y-107361500D01*
X76553042Y-107369208D01*
X76391760Y-107394753D01*
X76189585Y-107460444D01*
X76000179Y-107556951D01*
X75828215Y-107681889D01*
X75714673Y-107795431D01*
X75653350Y-107828915D01*
X75583658Y-107823931D01*
X75527725Y-107782059D01*
X75510810Y-107751082D01*
X75461797Y-107619671D01*
X75461793Y-107619664D01*
X75375547Y-107504455D01*
X75375544Y-107504452D01*
X75260335Y-107418206D01*
X75260328Y-107418202D01*
X75125482Y-107367908D01*
X75125483Y-107367908D01*
X75065883Y-107361501D01*
X75065881Y-107361500D01*
X75065873Y-107361500D01*
X75065864Y-107361500D01*
X73270129Y-107361500D01*
X73270123Y-107361501D01*
X73210516Y-107367908D01*
X73075671Y-107418202D01*
X73075664Y-107418206D01*
X72960455Y-107504452D01*
X72960452Y-107504455D01*
X72874206Y-107619664D01*
X72874202Y-107619671D01*
X72823908Y-107754517D01*
X72817501Y-107814116D01*
X72817500Y-107814135D01*
X71266409Y-107814135D01*
X71266409Y-107296000D01*
X87269657Y-107296000D01*
X87270904Y-107296421D01*
X87468261Y-107370030D01*
X87476441Y-107373419D01*
X87525177Y-107395677D01*
X87533091Y-107399638D01*
X87595681Y-107433815D01*
X87603295Y-107438333D01*
X87648362Y-107467297D01*
X87655632Y-107472345D01*
X87827816Y-107601243D01*
X87834707Y-107606796D01*
X87875192Y-107641876D01*
X87881671Y-107647908D01*
X87932092Y-107698329D01*
X87938124Y-107704808D01*
X87973204Y-107745293D01*
X87978757Y-107752184D01*
X88105882Y-107922000D01*
X88514091Y-107922000D01*
X88583592Y-107868669D01*
X92264409Y-107868669D01*
X92333909Y-107922000D01*
X93766409Y-107922000D01*
X93766409Y-107296000D01*
X92264409Y-107296000D01*
X92264409Y-107868669D01*
X88583592Y-107868669D01*
X88715605Y-107767371D01*
X88718865Y-107764953D01*
X88738815Y-107750657D01*
X88742150Y-107748349D01*
X88766409Y-107732139D01*
X88766409Y-107296000D01*
X87269657Y-107296000D01*
X71266409Y-107296000D01*
X69764409Y-107296000D01*
X69764409Y-107922000D01*
X68766409Y-107922000D01*
X68766409Y-107296000D01*
X67264409Y-107296000D01*
X67264409Y-107922000D01*
X64727500Y-107922000D01*
X66002800Y-106221600D01*
X66058771Y-106179779D01*
X66102000Y-106172000D01*
X98936000Y-106172000D01*
X99003039Y-106191685D01*
G37*
%TD.AperFunction*%
%TD*%
M02*
