%TF.GenerationSoftware,KiCad,Pcbnew,9.0.7*%
%TF.CreationDate,2026-03-01T19:28:42-05:00*%
%TF.ProjectId,Breadboard_PS,42726561-6462-46f6-9172-645f50532e6b,rev?*%
%TF.SameCoordinates,Original*%
%TF.FileFunction,Legend,Top*%
%TF.FilePolarity,Positive*%
%FSLAX46Y46*%
G04 Gerber Fmt 4.6, Leading zero omitted, Abs format (unit mm)*
G04 Created by KiCad (PCBNEW 9.0.7) date 2026-03-01 19:28:42*
%MOMM*%
%LPD*%
G01*
G04 APERTURE LIST*
%ADD10C,0.100000*%
%ADD11C,0.150000*%
%ADD12C,0.120000*%
G04 APERTURE END LIST*
D10*
X79788000Y-163457419D02*
X80407047Y-163457419D01*
X80407047Y-163457419D02*
X80073714Y-163838371D01*
X80073714Y-163838371D02*
X80216571Y-163838371D01*
X80216571Y-163838371D02*
X80311809Y-163885990D01*
X80311809Y-163885990D02*
X80359428Y-163933609D01*
X80359428Y-163933609D02*
X80407047Y-164028847D01*
X80407047Y-164028847D02*
X80407047Y-164266942D01*
X80407047Y-164266942D02*
X80359428Y-164362180D01*
X80359428Y-164362180D02*
X80311809Y-164409800D01*
X80311809Y-164409800D02*
X80216571Y-164457419D01*
X80216571Y-164457419D02*
X79930857Y-164457419D01*
X79930857Y-164457419D02*
X79835619Y-164409800D01*
X79835619Y-164409800D02*
X79788000Y-164362180D01*
X81311809Y-163457419D02*
X80835619Y-163457419D01*
X80835619Y-163457419D02*
X80788000Y-163933609D01*
X80788000Y-163933609D02*
X80835619Y-163885990D01*
X80835619Y-163885990D02*
X80930857Y-163838371D01*
X80930857Y-163838371D02*
X81168952Y-163838371D01*
X81168952Y-163838371D02*
X81264190Y-163885990D01*
X81264190Y-163885990D02*
X81311809Y-163933609D01*
X81311809Y-163933609D02*
X81359428Y-164028847D01*
X81359428Y-164028847D02*
X81359428Y-164266942D01*
X81359428Y-164266942D02*
X81311809Y-164362180D01*
X81311809Y-164362180D02*
X81264190Y-164409800D01*
X81264190Y-164409800D02*
X81168952Y-164457419D01*
X81168952Y-164457419D02*
X80930857Y-164457419D01*
X80930857Y-164457419D02*
X80835619Y-164409800D01*
X80835619Y-164409800D02*
X80788000Y-164362180D01*
X81788000Y-164362180D02*
X81835619Y-164409800D01*
X81835619Y-164409800D02*
X81788000Y-164457419D01*
X81788000Y-164457419D02*
X81740381Y-164409800D01*
X81740381Y-164409800D02*
X81788000Y-164362180D01*
X81788000Y-164362180D02*
X81788000Y-164457419D01*
X82740380Y-163457419D02*
X82264190Y-163457419D01*
X82264190Y-163457419D02*
X82216571Y-163933609D01*
X82216571Y-163933609D02*
X82264190Y-163885990D01*
X82264190Y-163885990D02*
X82359428Y-163838371D01*
X82359428Y-163838371D02*
X82597523Y-163838371D01*
X82597523Y-163838371D02*
X82692761Y-163885990D01*
X82692761Y-163885990D02*
X82740380Y-163933609D01*
X82740380Y-163933609D02*
X82787999Y-164028847D01*
X82787999Y-164028847D02*
X82787999Y-164266942D01*
X82787999Y-164266942D02*
X82740380Y-164362180D01*
X82740380Y-164362180D02*
X82692761Y-164409800D01*
X82692761Y-164409800D02*
X82597523Y-164457419D01*
X82597523Y-164457419D02*
X82359428Y-164457419D01*
X82359428Y-164457419D02*
X82264190Y-164409800D01*
X82264190Y-164409800D02*
X82216571Y-164362180D01*
X83645142Y-163457419D02*
X83454666Y-163457419D01*
X83454666Y-163457419D02*
X83359428Y-163505038D01*
X83359428Y-163505038D02*
X83311809Y-163552657D01*
X83311809Y-163552657D02*
X83216571Y-163695514D01*
X83216571Y-163695514D02*
X83168952Y-163885990D01*
X83168952Y-163885990D02*
X83168952Y-164266942D01*
X83168952Y-164266942D02*
X83216571Y-164362180D01*
X83216571Y-164362180D02*
X83264190Y-164409800D01*
X83264190Y-164409800D02*
X83359428Y-164457419D01*
X83359428Y-164457419D02*
X83549904Y-164457419D01*
X83549904Y-164457419D02*
X83645142Y-164409800D01*
X83645142Y-164409800D02*
X83692761Y-164362180D01*
X83692761Y-164362180D02*
X83740380Y-164266942D01*
X83740380Y-164266942D02*
X83740380Y-164028847D01*
X83740380Y-164028847D02*
X83692761Y-163933609D01*
X83692761Y-163933609D02*
X83645142Y-163885990D01*
X83645142Y-163885990D02*
X83549904Y-163838371D01*
X83549904Y-163838371D02*
X83359428Y-163838371D01*
X83359428Y-163838371D02*
X83264190Y-163885990D01*
X83264190Y-163885990D02*
X83216571Y-163933609D01*
X83216571Y-163933609D02*
X83168952Y-164028847D01*
X99568000Y-155948000D02*
X99568000Y-165686420D01*
X64008000Y-165686420D02*
X64008000Y-155948000D01*
X99568000Y-165100000D02*
X64008000Y-165100000D01*
X99568000Y-165100000D02*
X98441496Y-165686421D01*
X99568000Y-165100000D02*
X98441496Y-164513579D01*
X64008000Y-165100000D02*
X65134504Y-164513579D01*
X64008000Y-165100000D02*
X65134504Y-165686421D01*
X91934360Y-123840419D02*
X92124836Y-123840419D01*
X92124836Y-123840419D02*
X92220074Y-123888038D01*
X92220074Y-123888038D02*
X92315312Y-123983276D01*
X92315312Y-123983276D02*
X92362931Y-124173752D01*
X92362931Y-124173752D02*
X92362931Y-124507085D01*
X92362931Y-124507085D02*
X92315312Y-124697561D01*
X92315312Y-124697561D02*
X92220074Y-124792800D01*
X92220074Y-124792800D02*
X92124836Y-124840419D01*
X92124836Y-124840419D02*
X91934360Y-124840419D01*
X91934360Y-124840419D02*
X91839122Y-124792800D01*
X91839122Y-124792800D02*
X91743884Y-124697561D01*
X91743884Y-124697561D02*
X91696265Y-124507085D01*
X91696265Y-124507085D02*
X91696265Y-124173752D01*
X91696265Y-124173752D02*
X91743884Y-123983276D01*
X91743884Y-123983276D02*
X91839122Y-123888038D01*
X91839122Y-123888038D02*
X91934360Y-123840419D01*
X92791503Y-124840419D02*
X92791503Y-123840419D01*
X92791503Y-123840419D02*
X93362931Y-124840419D01*
X93362931Y-124840419D02*
X93362931Y-123840419D01*
X81908360Y-123840419D02*
X82098836Y-123840419D01*
X82098836Y-123840419D02*
X82194074Y-123888038D01*
X82194074Y-123888038D02*
X82289312Y-123983276D01*
X82289312Y-123983276D02*
X82336931Y-124173752D01*
X82336931Y-124173752D02*
X82336931Y-124507085D01*
X82336931Y-124507085D02*
X82289312Y-124697561D01*
X82289312Y-124697561D02*
X82194074Y-124792800D01*
X82194074Y-124792800D02*
X82098836Y-124840419D01*
X82098836Y-124840419D02*
X81908360Y-124840419D01*
X81908360Y-124840419D02*
X81813122Y-124792800D01*
X81813122Y-124792800D02*
X81717884Y-124697561D01*
X81717884Y-124697561D02*
X81670265Y-124507085D01*
X81670265Y-124507085D02*
X81670265Y-124173752D01*
X81670265Y-124173752D02*
X81717884Y-123983276D01*
X81717884Y-123983276D02*
X81813122Y-123888038D01*
X81813122Y-123888038D02*
X81908360Y-123840419D01*
X83098836Y-124316609D02*
X82765503Y-124316609D01*
X82765503Y-124840419D02*
X82765503Y-123840419D01*
X82765503Y-123840419D02*
X83241693Y-123840419D01*
X83955979Y-124316609D02*
X83622646Y-124316609D01*
X83622646Y-124840419D02*
X83622646Y-123840419D01*
X83622646Y-123840419D02*
X84098836Y-123840419D01*
X91743884Y-137667466D02*
X92505789Y-137667466D01*
X91235884Y-130047466D02*
X91997789Y-130047466D01*
X91616836Y-130428419D02*
X91616836Y-129666514D01*
X90743693Y-118236419D02*
X90172265Y-118236419D01*
X90457979Y-118236419D02*
X90457979Y-117236419D01*
X90457979Y-117236419D02*
X90362741Y-117379276D01*
X90362741Y-117379276D02*
X90267503Y-117474514D01*
X90267503Y-117474514D02*
X90172265Y-117522133D01*
X91124646Y-117331657D02*
X91172265Y-117284038D01*
X91172265Y-117284038D02*
X91267503Y-117236419D01*
X91267503Y-117236419D02*
X91505598Y-117236419D01*
X91505598Y-117236419D02*
X91600836Y-117284038D01*
X91600836Y-117284038D02*
X91648455Y-117331657D01*
X91648455Y-117331657D02*
X91696074Y-117426895D01*
X91696074Y-117426895D02*
X91696074Y-117522133D01*
X91696074Y-117522133D02*
X91648455Y-117664990D01*
X91648455Y-117664990D02*
X91077027Y-118236419D01*
X91077027Y-118236419D02*
X91696074Y-118236419D01*
X92029408Y-117569752D02*
X92267503Y-118236419D01*
X92267503Y-118236419D02*
X92505598Y-117569752D01*
X78043693Y-114680419D02*
X77472265Y-114680419D01*
X77757979Y-114680419D02*
X77757979Y-113680419D01*
X77757979Y-113680419D02*
X77662741Y-113823276D01*
X77662741Y-113823276D02*
X77567503Y-113918514D01*
X77567503Y-113918514D02*
X77472265Y-113966133D01*
X78424646Y-113775657D02*
X78472265Y-113728038D01*
X78472265Y-113728038D02*
X78567503Y-113680419D01*
X78567503Y-113680419D02*
X78805598Y-113680419D01*
X78805598Y-113680419D02*
X78900836Y-113728038D01*
X78900836Y-113728038D02*
X78948455Y-113775657D01*
X78948455Y-113775657D02*
X78996074Y-113870895D01*
X78996074Y-113870895D02*
X78996074Y-113966133D01*
X78996074Y-113966133D02*
X78948455Y-114108990D01*
X78948455Y-114108990D02*
X78377027Y-114680419D01*
X78377027Y-114680419D02*
X78996074Y-114680419D01*
X79329408Y-114013752D02*
X79567503Y-114680419D01*
X79567503Y-114680419D02*
X79805598Y-114013752D01*
X67772646Y-146700419D02*
X68391693Y-146700419D01*
X68391693Y-146700419D02*
X68058360Y-147081371D01*
X68058360Y-147081371D02*
X68201217Y-147081371D01*
X68201217Y-147081371D02*
X68296455Y-147128990D01*
X68296455Y-147128990D02*
X68344074Y-147176609D01*
X68344074Y-147176609D02*
X68391693Y-147271847D01*
X68391693Y-147271847D02*
X68391693Y-147509942D01*
X68391693Y-147509942D02*
X68344074Y-147605180D01*
X68344074Y-147605180D02*
X68296455Y-147652800D01*
X68296455Y-147652800D02*
X68201217Y-147700419D01*
X68201217Y-147700419D02*
X67915503Y-147700419D01*
X67915503Y-147700419D02*
X67820265Y-147652800D01*
X67820265Y-147652800D02*
X67772646Y-147605180D01*
X68820265Y-147605180D02*
X68867884Y-147652800D01*
X68867884Y-147652800D02*
X68820265Y-147700419D01*
X68820265Y-147700419D02*
X68772646Y-147652800D01*
X68772646Y-147652800D02*
X68820265Y-147605180D01*
X68820265Y-147605180D02*
X68820265Y-147700419D01*
X69201217Y-146700419D02*
X69820264Y-146700419D01*
X69820264Y-146700419D02*
X69486931Y-147081371D01*
X69486931Y-147081371D02*
X69629788Y-147081371D01*
X69629788Y-147081371D02*
X69725026Y-147128990D01*
X69725026Y-147128990D02*
X69772645Y-147176609D01*
X69772645Y-147176609D02*
X69820264Y-147271847D01*
X69820264Y-147271847D02*
X69820264Y-147509942D01*
X69820264Y-147509942D02*
X69772645Y-147605180D01*
X69772645Y-147605180D02*
X69725026Y-147652800D01*
X69725026Y-147652800D02*
X69629788Y-147700419D01*
X69629788Y-147700419D02*
X69344074Y-147700419D01*
X69344074Y-147700419D02*
X69248836Y-147652800D01*
X69248836Y-147652800D02*
X69201217Y-147605180D01*
X70153598Y-147033752D02*
X70391693Y-147700419D01*
X70391693Y-147700419D02*
X70629788Y-147033752D01*
X71836646Y-153812419D02*
X72455693Y-153812419D01*
X72455693Y-153812419D02*
X72122360Y-154193371D01*
X72122360Y-154193371D02*
X72265217Y-154193371D01*
X72265217Y-154193371D02*
X72360455Y-154240990D01*
X72360455Y-154240990D02*
X72408074Y-154288609D01*
X72408074Y-154288609D02*
X72455693Y-154383847D01*
X72455693Y-154383847D02*
X72455693Y-154621942D01*
X72455693Y-154621942D02*
X72408074Y-154717180D01*
X72408074Y-154717180D02*
X72360455Y-154764800D01*
X72360455Y-154764800D02*
X72265217Y-154812419D01*
X72265217Y-154812419D02*
X71979503Y-154812419D01*
X71979503Y-154812419D02*
X71884265Y-154764800D01*
X71884265Y-154764800D02*
X71836646Y-154717180D01*
X72884265Y-154717180D02*
X72931884Y-154764800D01*
X72931884Y-154764800D02*
X72884265Y-154812419D01*
X72884265Y-154812419D02*
X72836646Y-154764800D01*
X72836646Y-154764800D02*
X72884265Y-154717180D01*
X72884265Y-154717180D02*
X72884265Y-154812419D01*
X73265217Y-153812419D02*
X73884264Y-153812419D01*
X73884264Y-153812419D02*
X73550931Y-154193371D01*
X73550931Y-154193371D02*
X73693788Y-154193371D01*
X73693788Y-154193371D02*
X73789026Y-154240990D01*
X73789026Y-154240990D02*
X73836645Y-154288609D01*
X73836645Y-154288609D02*
X73884264Y-154383847D01*
X73884264Y-154383847D02*
X73884264Y-154621942D01*
X73884264Y-154621942D02*
X73836645Y-154717180D01*
X73836645Y-154717180D02*
X73789026Y-154764800D01*
X73789026Y-154764800D02*
X73693788Y-154812419D01*
X73693788Y-154812419D02*
X73408074Y-154812419D01*
X73408074Y-154812419D02*
X73312836Y-154764800D01*
X73312836Y-154764800D02*
X73265217Y-154717180D01*
X74217598Y-154145752D02*
X74455693Y-154812419D01*
X74455693Y-154812419D02*
X74693788Y-154145752D01*
X72852646Y-110632419D02*
X73471693Y-110632419D01*
X73471693Y-110632419D02*
X73138360Y-111013371D01*
X73138360Y-111013371D02*
X73281217Y-111013371D01*
X73281217Y-111013371D02*
X73376455Y-111060990D01*
X73376455Y-111060990D02*
X73424074Y-111108609D01*
X73424074Y-111108609D02*
X73471693Y-111203847D01*
X73471693Y-111203847D02*
X73471693Y-111441942D01*
X73471693Y-111441942D02*
X73424074Y-111537180D01*
X73424074Y-111537180D02*
X73376455Y-111584800D01*
X73376455Y-111584800D02*
X73281217Y-111632419D01*
X73281217Y-111632419D02*
X72995503Y-111632419D01*
X72995503Y-111632419D02*
X72900265Y-111584800D01*
X72900265Y-111584800D02*
X72852646Y-111537180D01*
X73900265Y-111537180D02*
X73947884Y-111584800D01*
X73947884Y-111584800D02*
X73900265Y-111632419D01*
X73900265Y-111632419D02*
X73852646Y-111584800D01*
X73852646Y-111584800D02*
X73900265Y-111537180D01*
X73900265Y-111537180D02*
X73900265Y-111632419D01*
X74281217Y-110632419D02*
X74900264Y-110632419D01*
X74900264Y-110632419D02*
X74566931Y-111013371D01*
X74566931Y-111013371D02*
X74709788Y-111013371D01*
X74709788Y-111013371D02*
X74805026Y-111060990D01*
X74805026Y-111060990D02*
X74852645Y-111108609D01*
X74852645Y-111108609D02*
X74900264Y-111203847D01*
X74900264Y-111203847D02*
X74900264Y-111441942D01*
X74900264Y-111441942D02*
X74852645Y-111537180D01*
X74852645Y-111537180D02*
X74805026Y-111584800D01*
X74805026Y-111584800D02*
X74709788Y-111632419D01*
X74709788Y-111632419D02*
X74424074Y-111632419D01*
X74424074Y-111632419D02*
X74328836Y-111584800D01*
X74328836Y-111584800D02*
X74281217Y-111537180D01*
X75233598Y-110965752D02*
X75471693Y-111632419D01*
X75471693Y-111632419D02*
X75709788Y-110965752D01*
X79520074Y-110632419D02*
X79043884Y-110632419D01*
X79043884Y-110632419D02*
X78996265Y-111108609D01*
X78996265Y-111108609D02*
X79043884Y-111060990D01*
X79043884Y-111060990D02*
X79139122Y-111013371D01*
X79139122Y-111013371D02*
X79377217Y-111013371D01*
X79377217Y-111013371D02*
X79472455Y-111060990D01*
X79472455Y-111060990D02*
X79520074Y-111108609D01*
X79520074Y-111108609D02*
X79567693Y-111203847D01*
X79567693Y-111203847D02*
X79567693Y-111441942D01*
X79567693Y-111441942D02*
X79520074Y-111537180D01*
X79520074Y-111537180D02*
X79472455Y-111584800D01*
X79472455Y-111584800D02*
X79377217Y-111632419D01*
X79377217Y-111632419D02*
X79139122Y-111632419D01*
X79139122Y-111632419D02*
X79043884Y-111584800D01*
X79043884Y-111584800D02*
X78996265Y-111537180D01*
X79901027Y-110965752D02*
X80139122Y-111632419D01*
X80139122Y-111632419D02*
X80377217Y-110965752D01*
X79520074Y-153812419D02*
X79043884Y-153812419D01*
X79043884Y-153812419D02*
X78996265Y-154288609D01*
X78996265Y-154288609D02*
X79043884Y-154240990D01*
X79043884Y-154240990D02*
X79139122Y-154193371D01*
X79139122Y-154193371D02*
X79377217Y-154193371D01*
X79377217Y-154193371D02*
X79472455Y-154240990D01*
X79472455Y-154240990D02*
X79520074Y-154288609D01*
X79520074Y-154288609D02*
X79567693Y-154383847D01*
X79567693Y-154383847D02*
X79567693Y-154621942D01*
X79567693Y-154621942D02*
X79520074Y-154717180D01*
X79520074Y-154717180D02*
X79472455Y-154764800D01*
X79472455Y-154764800D02*
X79377217Y-154812419D01*
X79377217Y-154812419D02*
X79139122Y-154812419D01*
X79139122Y-154812419D02*
X79043884Y-154764800D01*
X79043884Y-154764800D02*
X78996265Y-154717180D01*
X79901027Y-154145752D02*
X80139122Y-154812419D01*
X80139122Y-154812419D02*
X80377217Y-154145752D01*
X83631693Y-135572038D02*
X83536455Y-135524419D01*
X83536455Y-135524419D02*
X83393598Y-135524419D01*
X83393598Y-135524419D02*
X83250741Y-135572038D01*
X83250741Y-135572038D02*
X83155503Y-135667276D01*
X83155503Y-135667276D02*
X83107884Y-135762514D01*
X83107884Y-135762514D02*
X83060265Y-135952990D01*
X83060265Y-135952990D02*
X83060265Y-136095847D01*
X83060265Y-136095847D02*
X83107884Y-136286323D01*
X83107884Y-136286323D02*
X83155503Y-136381561D01*
X83155503Y-136381561D02*
X83250741Y-136476800D01*
X83250741Y-136476800D02*
X83393598Y-136524419D01*
X83393598Y-136524419D02*
X83488836Y-136524419D01*
X83488836Y-136524419D02*
X83631693Y-136476800D01*
X83631693Y-136476800D02*
X83679312Y-136429180D01*
X83679312Y-136429180D02*
X83679312Y-136095847D01*
X83679312Y-136095847D02*
X83488836Y-136095847D01*
X84107884Y-136524419D02*
X84107884Y-135524419D01*
X84107884Y-135524419D02*
X84679312Y-136524419D01*
X84679312Y-136524419D02*
X84679312Y-135524419D01*
X85155503Y-136524419D02*
X85155503Y-135524419D01*
X85155503Y-135524419D02*
X85393598Y-135524419D01*
X85393598Y-135524419D02*
X85536455Y-135572038D01*
X85536455Y-135572038D02*
X85631693Y-135667276D01*
X85631693Y-135667276D02*
X85679312Y-135762514D01*
X85679312Y-135762514D02*
X85726931Y-135952990D01*
X85726931Y-135952990D02*
X85726931Y-136095847D01*
X85726931Y-136095847D02*
X85679312Y-136286323D01*
X85679312Y-136286323D02*
X85631693Y-136381561D01*
X85631693Y-136381561D02*
X85536455Y-136476800D01*
X85536455Y-136476800D02*
X85393598Y-136524419D01*
X85393598Y-136524419D02*
X85155503Y-136524419D01*
X85155693Y-114744038D02*
X85060455Y-114696419D01*
X85060455Y-114696419D02*
X84917598Y-114696419D01*
X84917598Y-114696419D02*
X84774741Y-114744038D01*
X84774741Y-114744038D02*
X84679503Y-114839276D01*
X84679503Y-114839276D02*
X84631884Y-114934514D01*
X84631884Y-114934514D02*
X84584265Y-115124990D01*
X84584265Y-115124990D02*
X84584265Y-115267847D01*
X84584265Y-115267847D02*
X84631884Y-115458323D01*
X84631884Y-115458323D02*
X84679503Y-115553561D01*
X84679503Y-115553561D02*
X84774741Y-115648800D01*
X84774741Y-115648800D02*
X84917598Y-115696419D01*
X84917598Y-115696419D02*
X85012836Y-115696419D01*
X85012836Y-115696419D02*
X85155693Y-115648800D01*
X85155693Y-115648800D02*
X85203312Y-115601180D01*
X85203312Y-115601180D02*
X85203312Y-115267847D01*
X85203312Y-115267847D02*
X85012836Y-115267847D01*
X85631884Y-115696419D02*
X85631884Y-114696419D01*
X85631884Y-114696419D02*
X86203312Y-115696419D01*
X86203312Y-115696419D02*
X86203312Y-114696419D01*
X86679503Y-115696419D02*
X86679503Y-114696419D01*
X86679503Y-114696419D02*
X86917598Y-114696419D01*
X86917598Y-114696419D02*
X87060455Y-114744038D01*
X87060455Y-114744038D02*
X87155693Y-114839276D01*
X87155693Y-114839276D02*
X87203312Y-114934514D01*
X87203312Y-114934514D02*
X87250931Y-115124990D01*
X87250931Y-115124990D02*
X87250931Y-115267847D01*
X87250931Y-115267847D02*
X87203312Y-115458323D01*
X87203312Y-115458323D02*
X87155693Y-115553561D01*
X87155693Y-115553561D02*
X87060455Y-115648800D01*
X87060455Y-115648800D02*
X86917598Y-115696419D01*
X86917598Y-115696419D02*
X86679503Y-115696419D01*
X84139693Y-149288038D02*
X84044455Y-149240419D01*
X84044455Y-149240419D02*
X83901598Y-149240419D01*
X83901598Y-149240419D02*
X83758741Y-149288038D01*
X83758741Y-149288038D02*
X83663503Y-149383276D01*
X83663503Y-149383276D02*
X83615884Y-149478514D01*
X83615884Y-149478514D02*
X83568265Y-149668990D01*
X83568265Y-149668990D02*
X83568265Y-149811847D01*
X83568265Y-149811847D02*
X83615884Y-150002323D01*
X83615884Y-150002323D02*
X83663503Y-150097561D01*
X83663503Y-150097561D02*
X83758741Y-150192800D01*
X83758741Y-150192800D02*
X83901598Y-150240419D01*
X83901598Y-150240419D02*
X83996836Y-150240419D01*
X83996836Y-150240419D02*
X84139693Y-150192800D01*
X84139693Y-150192800D02*
X84187312Y-150145180D01*
X84187312Y-150145180D02*
X84187312Y-149811847D01*
X84187312Y-149811847D02*
X83996836Y-149811847D01*
X84615884Y-150240419D02*
X84615884Y-149240419D01*
X84615884Y-149240419D02*
X85187312Y-150240419D01*
X85187312Y-150240419D02*
X85187312Y-149240419D01*
X85663503Y-150240419D02*
X85663503Y-149240419D01*
X85663503Y-149240419D02*
X85901598Y-149240419D01*
X85901598Y-149240419D02*
X86044455Y-149288038D01*
X86044455Y-149288038D02*
X86139693Y-149383276D01*
X86139693Y-149383276D02*
X86187312Y-149478514D01*
X86187312Y-149478514D02*
X86234931Y-149668990D01*
X86234931Y-149668990D02*
X86234931Y-149811847D01*
X86234931Y-149811847D02*
X86187312Y-150002323D01*
X86187312Y-150002323D02*
X86139693Y-150097561D01*
X86139693Y-150097561D02*
X86044455Y-150192800D01*
X86044455Y-150192800D02*
X85901598Y-150240419D01*
X85901598Y-150240419D02*
X85663503Y-150240419D01*
X93916038Y-154112306D02*
X93868419Y-154207544D01*
X93868419Y-154207544D02*
X93868419Y-154350401D01*
X93868419Y-154350401D02*
X93916038Y-154493258D01*
X93916038Y-154493258D02*
X94011276Y-154588496D01*
X94011276Y-154588496D02*
X94106514Y-154636115D01*
X94106514Y-154636115D02*
X94296990Y-154683734D01*
X94296990Y-154683734D02*
X94439847Y-154683734D01*
X94439847Y-154683734D02*
X94630323Y-154636115D01*
X94630323Y-154636115D02*
X94725561Y-154588496D01*
X94725561Y-154588496D02*
X94820800Y-154493258D01*
X94820800Y-154493258D02*
X94868419Y-154350401D01*
X94868419Y-154350401D02*
X94868419Y-154255163D01*
X94868419Y-154255163D02*
X94820800Y-154112306D01*
X94820800Y-154112306D02*
X94773180Y-154064687D01*
X94773180Y-154064687D02*
X94439847Y-154064687D01*
X94439847Y-154064687D02*
X94439847Y-154255163D01*
X94868419Y-153636115D02*
X93868419Y-153636115D01*
X93868419Y-153636115D02*
X94868419Y-153064687D01*
X94868419Y-153064687D02*
X93868419Y-153064687D01*
X94868419Y-152588496D02*
X93868419Y-152588496D01*
X93868419Y-152588496D02*
X93868419Y-152350401D01*
X93868419Y-152350401D02*
X93916038Y-152207544D01*
X93916038Y-152207544D02*
X94011276Y-152112306D01*
X94011276Y-152112306D02*
X94106514Y-152064687D01*
X94106514Y-152064687D02*
X94296990Y-152017068D01*
X94296990Y-152017068D02*
X94439847Y-152017068D01*
X94439847Y-152017068D02*
X94630323Y-152064687D01*
X94630323Y-152064687D02*
X94725561Y-152112306D01*
X94725561Y-152112306D02*
X94820800Y-152207544D01*
X94820800Y-152207544D02*
X94868419Y-152350401D01*
X94868419Y-152350401D02*
X94868419Y-152588496D01*
X94364838Y-109027306D02*
X94317219Y-109122544D01*
X94317219Y-109122544D02*
X94317219Y-109265401D01*
X94317219Y-109265401D02*
X94364838Y-109408258D01*
X94364838Y-109408258D02*
X94460076Y-109503496D01*
X94460076Y-109503496D02*
X94555314Y-109551115D01*
X94555314Y-109551115D02*
X94745790Y-109598734D01*
X94745790Y-109598734D02*
X94888647Y-109598734D01*
X94888647Y-109598734D02*
X95079123Y-109551115D01*
X95079123Y-109551115D02*
X95174361Y-109503496D01*
X95174361Y-109503496D02*
X95269600Y-109408258D01*
X95269600Y-109408258D02*
X95317219Y-109265401D01*
X95317219Y-109265401D02*
X95317219Y-109170163D01*
X95317219Y-109170163D02*
X95269600Y-109027306D01*
X95269600Y-109027306D02*
X95221980Y-108979687D01*
X95221980Y-108979687D02*
X94888647Y-108979687D01*
X94888647Y-108979687D02*
X94888647Y-109170163D01*
X95317219Y-108551115D02*
X94317219Y-108551115D01*
X94317219Y-108551115D02*
X95317219Y-107979687D01*
X95317219Y-107979687D02*
X94317219Y-107979687D01*
X95317219Y-107503496D02*
X94317219Y-107503496D01*
X94317219Y-107503496D02*
X94317219Y-107265401D01*
X94317219Y-107265401D02*
X94364838Y-107122544D01*
X94364838Y-107122544D02*
X94460076Y-107027306D01*
X94460076Y-107027306D02*
X94555314Y-106979687D01*
X94555314Y-106979687D02*
X94745790Y-106932068D01*
X94745790Y-106932068D02*
X94888647Y-106932068D01*
X94888647Y-106932068D02*
X95079123Y-106979687D01*
X95079123Y-106979687D02*
X95174361Y-107027306D01*
X95174361Y-107027306D02*
X95269600Y-107122544D01*
X95269600Y-107122544D02*
X95317219Y-107265401D01*
X95317219Y-107265401D02*
X95317219Y-107503496D01*
X107577419Y-135000761D02*
X107577419Y-135476951D01*
X107577419Y-135476951D02*
X108053609Y-135524570D01*
X108053609Y-135524570D02*
X108005990Y-135476951D01*
X108005990Y-135476951D02*
X107958371Y-135381713D01*
X107958371Y-135381713D02*
X107958371Y-135143618D01*
X107958371Y-135143618D02*
X108005990Y-135048380D01*
X108005990Y-135048380D02*
X108053609Y-135000761D01*
X108053609Y-135000761D02*
X108148847Y-134953142D01*
X108148847Y-134953142D02*
X108386942Y-134953142D01*
X108386942Y-134953142D02*
X108482180Y-135000761D01*
X108482180Y-135000761D02*
X108529800Y-135048380D01*
X108529800Y-135048380D02*
X108577419Y-135143618D01*
X108577419Y-135143618D02*
X108577419Y-135381713D01*
X108577419Y-135381713D02*
X108529800Y-135476951D01*
X108529800Y-135476951D02*
X108482180Y-135524570D01*
X107910752Y-134095999D02*
X108577419Y-134095999D01*
X107529800Y-134334094D02*
X108244085Y-134572189D01*
X108244085Y-134572189D02*
X108244085Y-133953142D01*
X108482180Y-133572189D02*
X108529800Y-133524570D01*
X108529800Y-133524570D02*
X108577419Y-133572189D01*
X108577419Y-133572189D02*
X108529800Y-133619808D01*
X108529800Y-133619808D02*
X108482180Y-133572189D01*
X108482180Y-133572189D02*
X108577419Y-133572189D01*
X108005990Y-132953142D02*
X107958371Y-133048380D01*
X107958371Y-133048380D02*
X107910752Y-133095999D01*
X107910752Y-133095999D02*
X107815514Y-133143618D01*
X107815514Y-133143618D02*
X107767895Y-133143618D01*
X107767895Y-133143618D02*
X107672657Y-133095999D01*
X107672657Y-133095999D02*
X107625038Y-133048380D01*
X107625038Y-133048380D02*
X107577419Y-132953142D01*
X107577419Y-132953142D02*
X107577419Y-132762666D01*
X107577419Y-132762666D02*
X107625038Y-132667428D01*
X107625038Y-132667428D02*
X107672657Y-132619809D01*
X107672657Y-132619809D02*
X107767895Y-132572190D01*
X107767895Y-132572190D02*
X107815514Y-132572190D01*
X107815514Y-132572190D02*
X107910752Y-132619809D01*
X107910752Y-132619809D02*
X107958371Y-132667428D01*
X107958371Y-132667428D02*
X108005990Y-132762666D01*
X108005990Y-132762666D02*
X108005990Y-132953142D01*
X108005990Y-132953142D02*
X108053609Y-133048380D01*
X108053609Y-133048380D02*
X108101228Y-133095999D01*
X108101228Y-133095999D02*
X108196466Y-133143618D01*
X108196466Y-133143618D02*
X108386942Y-133143618D01*
X108386942Y-133143618D02*
X108482180Y-133095999D01*
X108482180Y-133095999D02*
X108529800Y-133048380D01*
X108529800Y-133048380D02*
X108577419Y-132953142D01*
X108577419Y-132953142D02*
X108577419Y-132762666D01*
X108577419Y-132762666D02*
X108529800Y-132667428D01*
X108529800Y-132667428D02*
X108482180Y-132619809D01*
X108482180Y-132619809D02*
X108386942Y-132572190D01*
X108386942Y-132572190D02*
X108196466Y-132572190D01*
X108196466Y-132572190D02*
X108101228Y-132619809D01*
X108101228Y-132619809D02*
X108053609Y-132667428D01*
X108053609Y-132667428D02*
X108005990Y-132762666D01*
X107577419Y-131715047D02*
X107577419Y-131905523D01*
X107577419Y-131905523D02*
X107625038Y-132000761D01*
X107625038Y-132000761D02*
X107672657Y-132048380D01*
X107672657Y-132048380D02*
X107815514Y-132143618D01*
X107815514Y-132143618D02*
X108005990Y-132191237D01*
X108005990Y-132191237D02*
X108386942Y-132191237D01*
X108386942Y-132191237D02*
X108482180Y-132143618D01*
X108482180Y-132143618D02*
X108529800Y-132095999D01*
X108529800Y-132095999D02*
X108577419Y-132000761D01*
X108577419Y-132000761D02*
X108577419Y-131810285D01*
X108577419Y-131810285D02*
X108529800Y-131715047D01*
X108529800Y-131715047D02*
X108482180Y-131667428D01*
X108482180Y-131667428D02*
X108386942Y-131619809D01*
X108386942Y-131619809D02*
X108148847Y-131619809D01*
X108148847Y-131619809D02*
X108053609Y-131667428D01*
X108053609Y-131667428D02*
X108005990Y-131715047D01*
X108005990Y-131715047D02*
X107958371Y-131810285D01*
X107958371Y-131810285D02*
X107958371Y-132000761D01*
X107958371Y-132000761D02*
X108005990Y-132095999D01*
X108005990Y-132095999D02*
X108053609Y-132143618D01*
X108053609Y-132143618D02*
X108148847Y-132191237D01*
X107910752Y-130762666D02*
X108577419Y-130762666D01*
X107529800Y-131000761D02*
X108244085Y-131238856D01*
X108244085Y-131238856D02*
X108244085Y-130619809D01*
X89908000Y-105664000D02*
X109806420Y-105664000D01*
X109806420Y-160528000D02*
X90416000Y-160528000D01*
X109220000Y-105664000D02*
X109220000Y-160528000D01*
X109220000Y-105664000D02*
X109806421Y-106790504D01*
X109220000Y-105664000D02*
X108633579Y-106790504D01*
X109220000Y-160528000D02*
X108633579Y-159401496D01*
X109220000Y-160528000D02*
X109806421Y-159401496D01*
D11*
X87767333Y-144588033D02*
X87534000Y-144254700D01*
X87367333Y-144588033D02*
X87367333Y-143888033D01*
X87367333Y-143888033D02*
X87634000Y-143888033D01*
X87634000Y-143888033D02*
X87700667Y-143921366D01*
X87700667Y-143921366D02*
X87734000Y-143954700D01*
X87734000Y-143954700D02*
X87767333Y-144021366D01*
X87767333Y-144021366D02*
X87767333Y-144121366D01*
X87767333Y-144121366D02*
X87734000Y-144188033D01*
X87734000Y-144188033D02*
X87700667Y-144221366D01*
X87700667Y-144221366D02*
X87634000Y-144254700D01*
X87634000Y-144254700D02*
X87367333Y-144254700D01*
X88000667Y-143888033D02*
X88434000Y-143888033D01*
X88434000Y-143888033D02*
X88200667Y-144154700D01*
X88200667Y-144154700D02*
X88300667Y-144154700D01*
X88300667Y-144154700D02*
X88367333Y-144188033D01*
X88367333Y-144188033D02*
X88400667Y-144221366D01*
X88400667Y-144221366D02*
X88434000Y-144288033D01*
X88434000Y-144288033D02*
X88434000Y-144454700D01*
X88434000Y-144454700D02*
X88400667Y-144521366D01*
X88400667Y-144521366D02*
X88367333Y-144554700D01*
X88367333Y-144554700D02*
X88300667Y-144588033D01*
X88300667Y-144588033D02*
X88100667Y-144588033D01*
X88100667Y-144588033D02*
X88034000Y-144554700D01*
X88034000Y-144554700D02*
X88000667Y-144521366D01*
X91448000Y-143888033D02*
X91114666Y-143888033D01*
X91114666Y-143888033D02*
X91081333Y-144221366D01*
X91081333Y-144221366D02*
X91114666Y-144188033D01*
X91114666Y-144188033D02*
X91181333Y-144154700D01*
X91181333Y-144154700D02*
X91348000Y-144154700D01*
X91348000Y-144154700D02*
X91414666Y-144188033D01*
X91414666Y-144188033D02*
X91448000Y-144221366D01*
X91448000Y-144221366D02*
X91481333Y-144288033D01*
X91481333Y-144288033D02*
X91481333Y-144454700D01*
X91481333Y-144454700D02*
X91448000Y-144521366D01*
X91448000Y-144521366D02*
X91414666Y-144554700D01*
X91414666Y-144554700D02*
X91348000Y-144588033D01*
X91348000Y-144588033D02*
X91181333Y-144588033D01*
X91181333Y-144588033D02*
X91114666Y-144554700D01*
X91114666Y-144554700D02*
X91081333Y-144521366D01*
X92081333Y-143888033D02*
X91948000Y-143888033D01*
X91948000Y-143888033D02*
X91881333Y-143921366D01*
X91881333Y-143921366D02*
X91848000Y-143954700D01*
X91848000Y-143954700D02*
X91781333Y-144054700D01*
X91781333Y-144054700D02*
X91748000Y-144188033D01*
X91748000Y-144188033D02*
X91748000Y-144454700D01*
X91748000Y-144454700D02*
X91781333Y-144521366D01*
X91781333Y-144521366D02*
X91814667Y-144554700D01*
X91814667Y-144554700D02*
X91881333Y-144588033D01*
X91881333Y-144588033D02*
X92014667Y-144588033D01*
X92014667Y-144588033D02*
X92081333Y-144554700D01*
X92081333Y-144554700D02*
X92114667Y-144521366D01*
X92114667Y-144521366D02*
X92148000Y-144454700D01*
X92148000Y-144454700D02*
X92148000Y-144288033D01*
X92148000Y-144288033D02*
X92114667Y-144221366D01*
X92114667Y-144221366D02*
X92081333Y-144188033D01*
X92081333Y-144188033D02*
X92014667Y-144154700D01*
X92014667Y-144154700D02*
X91881333Y-144154700D01*
X91881333Y-144154700D02*
X91814667Y-144188033D01*
X91814667Y-144188033D02*
X91781333Y-144221366D01*
X91781333Y-144221366D02*
X91748000Y-144288033D01*
X92581334Y-143888033D02*
X92648000Y-143888033D01*
X92648000Y-143888033D02*
X92714667Y-143921366D01*
X92714667Y-143921366D02*
X92748000Y-143954700D01*
X92748000Y-143954700D02*
X92781334Y-144021366D01*
X92781334Y-144021366D02*
X92814667Y-144154700D01*
X92814667Y-144154700D02*
X92814667Y-144321366D01*
X92814667Y-144321366D02*
X92781334Y-144454700D01*
X92781334Y-144454700D02*
X92748000Y-144521366D01*
X92748000Y-144521366D02*
X92714667Y-144554700D01*
X92714667Y-144554700D02*
X92648000Y-144588033D01*
X92648000Y-144588033D02*
X92581334Y-144588033D01*
X92581334Y-144588033D02*
X92514667Y-144554700D01*
X92514667Y-144554700D02*
X92481334Y-144521366D01*
X92481334Y-144521366D02*
X92448000Y-144454700D01*
X92448000Y-144454700D02*
X92414667Y-144321366D01*
X92414667Y-144321366D02*
X92414667Y-144154700D01*
X92414667Y-144154700D02*
X92448000Y-144021366D01*
X92448000Y-144021366D02*
X92481334Y-143954700D01*
X92481334Y-143954700D02*
X92514667Y-143921366D01*
X92514667Y-143921366D02*
X92581334Y-143888033D01*
X82570666Y-131696033D02*
X82570666Y-132196033D01*
X82570666Y-132196033D02*
X82537333Y-132296033D01*
X82537333Y-132296033D02*
X82470666Y-132362700D01*
X82470666Y-132362700D02*
X82370666Y-132396033D01*
X82370666Y-132396033D02*
X82304000Y-132396033D01*
X83203999Y-131696033D02*
X83070666Y-131696033D01*
X83070666Y-131696033D02*
X83003999Y-131729366D01*
X83003999Y-131729366D02*
X82970666Y-131762700D01*
X82970666Y-131762700D02*
X82903999Y-131862700D01*
X82903999Y-131862700D02*
X82870666Y-131996033D01*
X82870666Y-131996033D02*
X82870666Y-132262700D01*
X82870666Y-132262700D02*
X82903999Y-132329366D01*
X82903999Y-132329366D02*
X82937333Y-132362700D01*
X82937333Y-132362700D02*
X83003999Y-132396033D01*
X83003999Y-132396033D02*
X83137333Y-132396033D01*
X83137333Y-132396033D02*
X83203999Y-132362700D01*
X83203999Y-132362700D02*
X83237333Y-132329366D01*
X83237333Y-132329366D02*
X83270666Y-132262700D01*
X83270666Y-132262700D02*
X83270666Y-132096033D01*
X83270666Y-132096033D02*
X83237333Y-132029366D01*
X83237333Y-132029366D02*
X83203999Y-131996033D01*
X83203999Y-131996033D02*
X83137333Y-131962700D01*
X83137333Y-131962700D02*
X83003999Y-131962700D01*
X83003999Y-131962700D02*
X82937333Y-131996033D01*
X82937333Y-131996033D02*
X82903999Y-132029366D01*
X82903999Y-132029366D02*
X82870666Y-132096033D01*
X87259333Y-126412033D02*
X87026000Y-126078700D01*
X86859333Y-126412033D02*
X86859333Y-125712033D01*
X86859333Y-125712033D02*
X87126000Y-125712033D01*
X87126000Y-125712033D02*
X87192667Y-125745366D01*
X87192667Y-125745366D02*
X87226000Y-125778700D01*
X87226000Y-125778700D02*
X87259333Y-125845366D01*
X87259333Y-125845366D02*
X87259333Y-125945366D01*
X87259333Y-125945366D02*
X87226000Y-126012033D01*
X87226000Y-126012033D02*
X87192667Y-126045366D01*
X87192667Y-126045366D02*
X87126000Y-126078700D01*
X87126000Y-126078700D02*
X86859333Y-126078700D01*
X87526000Y-125778700D02*
X87559333Y-125745366D01*
X87559333Y-125745366D02*
X87626000Y-125712033D01*
X87626000Y-125712033D02*
X87792667Y-125712033D01*
X87792667Y-125712033D02*
X87859333Y-125745366D01*
X87859333Y-125745366D02*
X87892667Y-125778700D01*
X87892667Y-125778700D02*
X87926000Y-125845366D01*
X87926000Y-125845366D02*
X87926000Y-125912033D01*
X87926000Y-125912033D02*
X87892667Y-126012033D01*
X87892667Y-126012033D02*
X87492667Y-126412033D01*
X87492667Y-126412033D02*
X87926000Y-126412033D01*
X89016000Y-126108033D02*
X89449333Y-126108033D01*
X89449333Y-126108033D02*
X89216000Y-126374700D01*
X89216000Y-126374700D02*
X89316000Y-126374700D01*
X89316000Y-126374700D02*
X89382666Y-126408033D01*
X89382666Y-126408033D02*
X89416000Y-126441366D01*
X89416000Y-126441366D02*
X89449333Y-126508033D01*
X89449333Y-126508033D02*
X89449333Y-126674700D01*
X89449333Y-126674700D02*
X89416000Y-126741366D01*
X89416000Y-126741366D02*
X89382666Y-126774700D01*
X89382666Y-126774700D02*
X89316000Y-126808033D01*
X89316000Y-126808033D02*
X89116000Y-126808033D01*
X89116000Y-126808033D02*
X89049333Y-126774700D01*
X89049333Y-126774700D02*
X89016000Y-126741366D01*
X89682667Y-126108033D02*
X90116000Y-126108033D01*
X90116000Y-126108033D02*
X89882667Y-126374700D01*
X89882667Y-126374700D02*
X89982667Y-126374700D01*
X89982667Y-126374700D02*
X90049333Y-126408033D01*
X90049333Y-126408033D02*
X90082667Y-126441366D01*
X90082667Y-126441366D02*
X90116000Y-126508033D01*
X90116000Y-126508033D02*
X90116000Y-126674700D01*
X90116000Y-126674700D02*
X90082667Y-126741366D01*
X90082667Y-126741366D02*
X90049333Y-126774700D01*
X90049333Y-126774700D02*
X89982667Y-126808033D01*
X89982667Y-126808033D02*
X89782667Y-126808033D01*
X89782667Y-126808033D02*
X89716000Y-126774700D01*
X89716000Y-126774700D02*
X89682667Y-126741366D01*
X90549334Y-126108033D02*
X90616000Y-126108033D01*
X90616000Y-126108033D02*
X90682667Y-126141366D01*
X90682667Y-126141366D02*
X90716000Y-126174700D01*
X90716000Y-126174700D02*
X90749334Y-126241366D01*
X90749334Y-126241366D02*
X90782667Y-126374700D01*
X90782667Y-126374700D02*
X90782667Y-126541366D01*
X90782667Y-126541366D02*
X90749334Y-126674700D01*
X90749334Y-126674700D02*
X90716000Y-126741366D01*
X90716000Y-126741366D02*
X90682667Y-126774700D01*
X90682667Y-126774700D02*
X90616000Y-126808033D01*
X90616000Y-126808033D02*
X90549334Y-126808033D01*
X90549334Y-126808033D02*
X90482667Y-126774700D01*
X90482667Y-126774700D02*
X90449334Y-126741366D01*
X90449334Y-126741366D02*
X90416000Y-126674700D01*
X90416000Y-126674700D02*
X90382667Y-126541366D01*
X90382667Y-126541366D02*
X90382667Y-126374700D01*
X90382667Y-126374700D02*
X90416000Y-126241366D01*
X90416000Y-126241366D02*
X90449334Y-126174700D01*
X90449334Y-126174700D02*
X90482667Y-126141366D01*
X90482667Y-126141366D02*
X90549334Y-126108033D01*
X87767333Y-139508033D02*
X87534000Y-139174700D01*
X87367333Y-139508033D02*
X87367333Y-138808033D01*
X87367333Y-138808033D02*
X87634000Y-138808033D01*
X87634000Y-138808033D02*
X87700667Y-138841366D01*
X87700667Y-138841366D02*
X87734000Y-138874700D01*
X87734000Y-138874700D02*
X87767333Y-138941366D01*
X87767333Y-138941366D02*
X87767333Y-139041366D01*
X87767333Y-139041366D02*
X87734000Y-139108033D01*
X87734000Y-139108033D02*
X87700667Y-139141366D01*
X87700667Y-139141366D02*
X87634000Y-139174700D01*
X87634000Y-139174700D02*
X87367333Y-139174700D01*
X88434000Y-139508033D02*
X88034000Y-139508033D01*
X88234000Y-139508033D02*
X88234000Y-138808033D01*
X88234000Y-138808033D02*
X88167333Y-138908033D01*
X88167333Y-138908033D02*
X88100667Y-138974700D01*
X88100667Y-138974700D02*
X88034000Y-139008033D01*
X89016000Y-138808033D02*
X89449333Y-138808033D01*
X89449333Y-138808033D02*
X89216000Y-139074700D01*
X89216000Y-139074700D02*
X89316000Y-139074700D01*
X89316000Y-139074700D02*
X89382666Y-139108033D01*
X89382666Y-139108033D02*
X89416000Y-139141366D01*
X89416000Y-139141366D02*
X89449333Y-139208033D01*
X89449333Y-139208033D02*
X89449333Y-139374700D01*
X89449333Y-139374700D02*
X89416000Y-139441366D01*
X89416000Y-139441366D02*
X89382666Y-139474700D01*
X89382666Y-139474700D02*
X89316000Y-139508033D01*
X89316000Y-139508033D02*
X89116000Y-139508033D01*
X89116000Y-139508033D02*
X89049333Y-139474700D01*
X89049333Y-139474700D02*
X89016000Y-139441366D01*
X89682667Y-138808033D02*
X90116000Y-138808033D01*
X90116000Y-138808033D02*
X89882667Y-139074700D01*
X89882667Y-139074700D02*
X89982667Y-139074700D01*
X89982667Y-139074700D02*
X90049333Y-139108033D01*
X90049333Y-139108033D02*
X90082667Y-139141366D01*
X90082667Y-139141366D02*
X90116000Y-139208033D01*
X90116000Y-139208033D02*
X90116000Y-139374700D01*
X90116000Y-139374700D02*
X90082667Y-139441366D01*
X90082667Y-139441366D02*
X90049333Y-139474700D01*
X90049333Y-139474700D02*
X89982667Y-139508033D01*
X89982667Y-139508033D02*
X89782667Y-139508033D01*
X89782667Y-139508033D02*
X89716000Y-139474700D01*
X89716000Y-139474700D02*
X89682667Y-139441366D01*
X90549334Y-138808033D02*
X90616000Y-138808033D01*
X90616000Y-138808033D02*
X90682667Y-138841366D01*
X90682667Y-138841366D02*
X90716000Y-138874700D01*
X90716000Y-138874700D02*
X90749334Y-138941366D01*
X90749334Y-138941366D02*
X90782667Y-139074700D01*
X90782667Y-139074700D02*
X90782667Y-139241366D01*
X90782667Y-139241366D02*
X90749334Y-139374700D01*
X90749334Y-139374700D02*
X90716000Y-139441366D01*
X90716000Y-139441366D02*
X90682667Y-139474700D01*
X90682667Y-139474700D02*
X90616000Y-139508033D01*
X90616000Y-139508033D02*
X90549334Y-139508033D01*
X90549334Y-139508033D02*
X90482667Y-139474700D01*
X90482667Y-139474700D02*
X90449334Y-139441366D01*
X90449334Y-139441366D02*
X90416000Y-139374700D01*
X90416000Y-139374700D02*
X90382667Y-139241366D01*
X90382667Y-139241366D02*
X90382667Y-139074700D01*
X90382667Y-139074700D02*
X90416000Y-138941366D01*
X90416000Y-138941366D02*
X90449334Y-138874700D01*
X90449334Y-138874700D02*
X90482667Y-138841366D01*
X90482667Y-138841366D02*
X90549334Y-138808033D01*
X88891333Y-130364033D02*
X88891333Y-129664033D01*
X88891333Y-129664033D02*
X89058000Y-129664033D01*
X89058000Y-129664033D02*
X89158000Y-129697366D01*
X89158000Y-129697366D02*
X89224667Y-129764033D01*
X89224667Y-129764033D02*
X89258000Y-129830700D01*
X89258000Y-129830700D02*
X89291333Y-129964033D01*
X89291333Y-129964033D02*
X89291333Y-130064033D01*
X89291333Y-130064033D02*
X89258000Y-130197366D01*
X89258000Y-130197366D02*
X89224667Y-130264033D01*
X89224667Y-130264033D02*
X89158000Y-130330700D01*
X89158000Y-130330700D02*
X89058000Y-130364033D01*
X89058000Y-130364033D02*
X88891333Y-130364033D01*
X89958000Y-130364033D02*
X89558000Y-130364033D01*
X89758000Y-130364033D02*
X89758000Y-129664033D01*
X89758000Y-129664033D02*
X89691333Y-129764033D01*
X89691333Y-129764033D02*
X89624667Y-129830700D01*
X89624667Y-129830700D02*
X89558000Y-129864033D01*
X88450000Y-137984033D02*
X88116666Y-137984033D01*
X88116666Y-137984033D02*
X88116666Y-137284033D01*
X88683333Y-137617366D02*
X88916667Y-137617366D01*
X89016667Y-137984033D02*
X88683333Y-137984033D01*
X88683333Y-137984033D02*
X88683333Y-137284033D01*
X88683333Y-137284033D02*
X89016667Y-137284033D01*
X89316666Y-137984033D02*
X89316666Y-137284033D01*
X89316666Y-137284033D02*
X89483333Y-137284033D01*
X89483333Y-137284033D02*
X89583333Y-137317366D01*
X89583333Y-137317366D02*
X89650000Y-137384033D01*
X89650000Y-137384033D02*
X89683333Y-137450700D01*
X89683333Y-137450700D02*
X89716666Y-137584033D01*
X89716666Y-137584033D02*
X89716666Y-137684033D01*
X89716666Y-137684033D02*
X89683333Y-137817366D01*
X89683333Y-137817366D02*
X89650000Y-137884033D01*
X89650000Y-137884033D02*
X89583333Y-137950700D01*
X89583333Y-137950700D02*
X89483333Y-137984033D01*
X89483333Y-137984033D02*
X89316666Y-137984033D01*
X88666666Y-114932033D02*
X88666666Y-115432033D01*
X88666666Y-115432033D02*
X88633333Y-115532033D01*
X88633333Y-115532033D02*
X88566666Y-115598700D01*
X88566666Y-115598700D02*
X88466666Y-115632033D01*
X88466666Y-115632033D02*
X88400000Y-115632033D01*
X89333333Y-114932033D02*
X88999999Y-114932033D01*
X88999999Y-114932033D02*
X88966666Y-115265366D01*
X88966666Y-115265366D02*
X88999999Y-115232033D01*
X88999999Y-115232033D02*
X89066666Y-115198700D01*
X89066666Y-115198700D02*
X89233333Y-115198700D01*
X89233333Y-115198700D02*
X89299999Y-115232033D01*
X89299999Y-115232033D02*
X89333333Y-115265366D01*
X89333333Y-115265366D02*
X89366666Y-115332033D01*
X89366666Y-115332033D02*
X89366666Y-115498700D01*
X89366666Y-115498700D02*
X89333333Y-115565366D01*
X89333333Y-115565366D02*
X89299999Y-115598700D01*
X89299999Y-115598700D02*
X89233333Y-115632033D01*
X89233333Y-115632033D02*
X89066666Y-115632033D01*
X89066666Y-115632033D02*
X88999999Y-115598700D01*
X88999999Y-115598700D02*
X88966666Y-115565366D01*
X88158666Y-149984033D02*
X88158666Y-150484033D01*
X88158666Y-150484033D02*
X88125333Y-150584033D01*
X88125333Y-150584033D02*
X88058666Y-150650700D01*
X88058666Y-150650700D02*
X87958666Y-150684033D01*
X87958666Y-150684033D02*
X87892000Y-150684033D01*
X88425333Y-149984033D02*
X88891999Y-149984033D01*
X88891999Y-149984033D02*
X88591999Y-150684033D01*
X86334666Y-118138700D02*
X86434666Y-118172033D01*
X86434666Y-118172033D02*
X86601333Y-118172033D01*
X86601333Y-118172033D02*
X86667999Y-118138700D01*
X86667999Y-118138700D02*
X86701333Y-118105366D01*
X86701333Y-118105366D02*
X86734666Y-118038700D01*
X86734666Y-118038700D02*
X86734666Y-117972033D01*
X86734666Y-117972033D02*
X86701333Y-117905366D01*
X86701333Y-117905366D02*
X86667999Y-117872033D01*
X86667999Y-117872033D02*
X86601333Y-117838700D01*
X86601333Y-117838700D02*
X86467999Y-117805366D01*
X86467999Y-117805366D02*
X86401333Y-117772033D01*
X86401333Y-117772033D02*
X86367999Y-117738700D01*
X86367999Y-117738700D02*
X86334666Y-117672033D01*
X86334666Y-117672033D02*
X86334666Y-117605366D01*
X86334666Y-117605366D02*
X86367999Y-117538700D01*
X86367999Y-117538700D02*
X86401333Y-117505366D01*
X86401333Y-117505366D02*
X86467999Y-117472033D01*
X86467999Y-117472033D02*
X86634666Y-117472033D01*
X86634666Y-117472033D02*
X86734666Y-117505366D01*
X87401333Y-118172033D02*
X87001333Y-118172033D01*
X87201333Y-118172033D02*
X87201333Y-117472033D01*
X87201333Y-117472033D02*
X87134666Y-117572033D01*
X87134666Y-117572033D02*
X87068000Y-117638700D01*
X87068000Y-117638700D02*
X87001333Y-117672033D01*
X85034666Y-123901366D02*
X85268000Y-123901366D01*
X85368000Y-124268033D02*
X85034666Y-124268033D01*
X85034666Y-124268033D02*
X85034666Y-123568033D01*
X85034666Y-123568033D02*
X85368000Y-123568033D01*
X86034666Y-123601366D02*
X85967999Y-123568033D01*
X85967999Y-123568033D02*
X85867999Y-123568033D01*
X85867999Y-123568033D02*
X85767999Y-123601366D01*
X85767999Y-123601366D02*
X85701333Y-123668033D01*
X85701333Y-123668033D02*
X85667999Y-123734700D01*
X85667999Y-123734700D02*
X85634666Y-123868033D01*
X85634666Y-123868033D02*
X85634666Y-123968033D01*
X85634666Y-123968033D02*
X85667999Y-124101366D01*
X85667999Y-124101366D02*
X85701333Y-124168033D01*
X85701333Y-124168033D02*
X85767999Y-124234700D01*
X85767999Y-124234700D02*
X85867999Y-124268033D01*
X85867999Y-124268033D02*
X85934666Y-124268033D01*
X85934666Y-124268033D02*
X86034666Y-124234700D01*
X86034666Y-124234700D02*
X86067999Y-124201366D01*
X86067999Y-124201366D02*
X86067999Y-123968033D01*
X86067999Y-123968033D02*
X85934666Y-123968033D01*
X86734666Y-124268033D02*
X86334666Y-124268033D01*
X86534666Y-124268033D02*
X86534666Y-123568033D01*
X86534666Y-123568033D02*
X86467999Y-123668033D01*
X86467999Y-123668033D02*
X86401333Y-123734700D01*
X86401333Y-123734700D02*
X86334666Y-123768033D01*
X87001333Y-123634700D02*
X87034666Y-123601366D01*
X87034666Y-123601366D02*
X87101333Y-123568033D01*
X87101333Y-123568033D02*
X87268000Y-123568033D01*
X87268000Y-123568033D02*
X87334666Y-123601366D01*
X87334666Y-123601366D02*
X87368000Y-123634700D01*
X87368000Y-123634700D02*
X87401333Y-123701366D01*
X87401333Y-123701366D02*
X87401333Y-123768033D01*
X87401333Y-123768033D02*
X87368000Y-123868033D01*
X87368000Y-123868033D02*
X86968000Y-124268033D01*
X86968000Y-124268033D02*
X87401333Y-124268033D01*
X88068000Y-124268033D02*
X87668000Y-124268033D01*
X87868000Y-124268033D02*
X87868000Y-123568033D01*
X87868000Y-123568033D02*
X87801333Y-123668033D01*
X87801333Y-123668033D02*
X87734667Y-123734700D01*
X87734667Y-123734700D02*
X87668000Y-123768033D01*
X88468000Y-123868033D02*
X88401334Y-123834700D01*
X88401334Y-123834700D02*
X88368000Y-123801366D01*
X88368000Y-123801366D02*
X88334667Y-123734700D01*
X88334667Y-123734700D02*
X88334667Y-123701366D01*
X88334667Y-123701366D02*
X88368000Y-123634700D01*
X88368000Y-123634700D02*
X88401334Y-123601366D01*
X88401334Y-123601366D02*
X88468000Y-123568033D01*
X88468000Y-123568033D02*
X88601334Y-123568033D01*
X88601334Y-123568033D02*
X88668000Y-123601366D01*
X88668000Y-123601366D02*
X88701334Y-123634700D01*
X88701334Y-123634700D02*
X88734667Y-123701366D01*
X88734667Y-123701366D02*
X88734667Y-123734700D01*
X88734667Y-123734700D02*
X88701334Y-123801366D01*
X88701334Y-123801366D02*
X88668000Y-123834700D01*
X88668000Y-123834700D02*
X88601334Y-123868033D01*
X88601334Y-123868033D02*
X88468000Y-123868033D01*
X88468000Y-123868033D02*
X88401334Y-123901366D01*
X88401334Y-123901366D02*
X88368000Y-123934700D01*
X88368000Y-123934700D02*
X88334667Y-124001366D01*
X88334667Y-124001366D02*
X88334667Y-124134700D01*
X88334667Y-124134700D02*
X88368000Y-124201366D01*
X88368000Y-124201366D02*
X88401334Y-124234700D01*
X88401334Y-124234700D02*
X88468000Y-124268033D01*
X88468000Y-124268033D02*
X88601334Y-124268033D01*
X88601334Y-124268033D02*
X88668000Y-124234700D01*
X88668000Y-124234700D02*
X88701334Y-124201366D01*
X88701334Y-124201366D02*
X88734667Y-124134700D01*
X88734667Y-124134700D02*
X88734667Y-124001366D01*
X88734667Y-124001366D02*
X88701334Y-123934700D01*
X88701334Y-123934700D02*
X88668000Y-123901366D01*
X88668000Y-123901366D02*
X88601334Y-123868033D01*
X72618666Y-118996033D02*
X72618666Y-119562700D01*
X72618666Y-119562700D02*
X72652000Y-119629366D01*
X72652000Y-119629366D02*
X72685333Y-119662700D01*
X72685333Y-119662700D02*
X72752000Y-119696033D01*
X72752000Y-119696033D02*
X72885333Y-119696033D01*
X72885333Y-119696033D02*
X72952000Y-119662700D01*
X72952000Y-119662700D02*
X72985333Y-119629366D01*
X72985333Y-119629366D02*
X73018666Y-119562700D01*
X73018666Y-119562700D02*
X73018666Y-118996033D01*
X73718666Y-119696033D02*
X73318666Y-119696033D01*
X73518666Y-119696033D02*
X73518666Y-118996033D01*
X73518666Y-118996033D02*
X73451999Y-119096033D01*
X73451999Y-119096033D02*
X73385333Y-119162700D01*
X73385333Y-119162700D02*
X73318666Y-119196033D01*
X70243333Y-125792033D02*
X69909999Y-125792033D01*
X69909999Y-125792033D02*
X69909999Y-125092033D01*
X70476666Y-125792033D02*
X70476666Y-125092033D01*
X70476666Y-125092033D02*
X70710000Y-125592033D01*
X70710000Y-125592033D02*
X70943333Y-125092033D01*
X70943333Y-125092033D02*
X70943333Y-125792033D01*
X71210000Y-125092033D02*
X71676666Y-125092033D01*
X71676666Y-125092033D02*
X71376666Y-125792033D01*
X72043333Y-125392033D02*
X71976667Y-125358700D01*
X71976667Y-125358700D02*
X71943333Y-125325366D01*
X71943333Y-125325366D02*
X71910000Y-125258700D01*
X71910000Y-125258700D02*
X71910000Y-125225366D01*
X71910000Y-125225366D02*
X71943333Y-125158700D01*
X71943333Y-125158700D02*
X71976667Y-125125366D01*
X71976667Y-125125366D02*
X72043333Y-125092033D01*
X72043333Y-125092033D02*
X72176667Y-125092033D01*
X72176667Y-125092033D02*
X72243333Y-125125366D01*
X72243333Y-125125366D02*
X72276667Y-125158700D01*
X72276667Y-125158700D02*
X72310000Y-125225366D01*
X72310000Y-125225366D02*
X72310000Y-125258700D01*
X72310000Y-125258700D02*
X72276667Y-125325366D01*
X72276667Y-125325366D02*
X72243333Y-125358700D01*
X72243333Y-125358700D02*
X72176667Y-125392033D01*
X72176667Y-125392033D02*
X72043333Y-125392033D01*
X72043333Y-125392033D02*
X71976667Y-125425366D01*
X71976667Y-125425366D02*
X71943333Y-125458700D01*
X71943333Y-125458700D02*
X71910000Y-125525366D01*
X71910000Y-125525366D02*
X71910000Y-125658700D01*
X71910000Y-125658700D02*
X71943333Y-125725366D01*
X71943333Y-125725366D02*
X71976667Y-125758700D01*
X71976667Y-125758700D02*
X72043333Y-125792033D01*
X72043333Y-125792033D02*
X72176667Y-125792033D01*
X72176667Y-125792033D02*
X72243333Y-125758700D01*
X72243333Y-125758700D02*
X72276667Y-125725366D01*
X72276667Y-125725366D02*
X72310000Y-125658700D01*
X72310000Y-125658700D02*
X72310000Y-125525366D01*
X72310000Y-125525366D02*
X72276667Y-125458700D01*
X72276667Y-125458700D02*
X72243333Y-125425366D01*
X72243333Y-125425366D02*
X72176667Y-125392033D01*
X72743334Y-125092033D02*
X72810000Y-125092033D01*
X72810000Y-125092033D02*
X72876667Y-125125366D01*
X72876667Y-125125366D02*
X72910000Y-125158700D01*
X72910000Y-125158700D02*
X72943334Y-125225366D01*
X72943334Y-125225366D02*
X72976667Y-125358700D01*
X72976667Y-125358700D02*
X72976667Y-125525366D01*
X72976667Y-125525366D02*
X72943334Y-125658700D01*
X72943334Y-125658700D02*
X72910000Y-125725366D01*
X72910000Y-125725366D02*
X72876667Y-125758700D01*
X72876667Y-125758700D02*
X72810000Y-125792033D01*
X72810000Y-125792033D02*
X72743334Y-125792033D01*
X72743334Y-125792033D02*
X72676667Y-125758700D01*
X72676667Y-125758700D02*
X72643334Y-125725366D01*
X72643334Y-125725366D02*
X72610000Y-125658700D01*
X72610000Y-125658700D02*
X72576667Y-125525366D01*
X72576667Y-125525366D02*
X72576667Y-125358700D01*
X72576667Y-125358700D02*
X72610000Y-125225366D01*
X72610000Y-125225366D02*
X72643334Y-125158700D01*
X72643334Y-125158700D02*
X72676667Y-125125366D01*
X72676667Y-125125366D02*
X72743334Y-125092033D01*
X73610001Y-125092033D02*
X73276667Y-125092033D01*
X73276667Y-125092033D02*
X73243334Y-125425366D01*
X73243334Y-125425366D02*
X73276667Y-125392033D01*
X73276667Y-125392033D02*
X73343334Y-125358700D01*
X73343334Y-125358700D02*
X73510001Y-125358700D01*
X73510001Y-125358700D02*
X73576667Y-125392033D01*
X73576667Y-125392033D02*
X73610001Y-125425366D01*
X73610001Y-125425366D02*
X73643334Y-125492033D01*
X73643334Y-125492033D02*
X73643334Y-125658700D01*
X73643334Y-125658700D02*
X73610001Y-125725366D01*
X73610001Y-125725366D02*
X73576667Y-125758700D01*
X73576667Y-125758700D02*
X73510001Y-125792033D01*
X73510001Y-125792033D02*
X73343334Y-125792033D01*
X73343334Y-125792033D02*
X73276667Y-125758700D01*
X73276667Y-125758700D02*
X73243334Y-125725366D01*
X73776668Y-125858700D02*
X74310001Y-125858700D01*
X74376667Y-125092033D02*
X74776667Y-125092033D01*
X74576667Y-125792033D02*
X74576667Y-125092033D01*
X75143334Y-125092033D02*
X75276667Y-125092033D01*
X75276667Y-125092033D02*
X75343334Y-125125366D01*
X75343334Y-125125366D02*
X75410000Y-125192033D01*
X75410000Y-125192033D02*
X75443334Y-125325366D01*
X75443334Y-125325366D02*
X75443334Y-125558700D01*
X75443334Y-125558700D02*
X75410000Y-125692033D01*
X75410000Y-125692033D02*
X75343334Y-125758700D01*
X75343334Y-125758700D02*
X75276667Y-125792033D01*
X75276667Y-125792033D02*
X75143334Y-125792033D01*
X75143334Y-125792033D02*
X75076667Y-125758700D01*
X75076667Y-125758700D02*
X75010000Y-125692033D01*
X75010000Y-125692033D02*
X74976667Y-125558700D01*
X74976667Y-125558700D02*
X74976667Y-125325366D01*
X74976667Y-125325366D02*
X75010000Y-125192033D01*
X75010000Y-125192033D02*
X75076667Y-125125366D01*
X75076667Y-125125366D02*
X75143334Y-125092033D01*
X75710000Y-125158700D02*
X75743333Y-125125366D01*
X75743333Y-125125366D02*
X75810000Y-125092033D01*
X75810000Y-125092033D02*
X75976667Y-125092033D01*
X75976667Y-125092033D02*
X76043333Y-125125366D01*
X76043333Y-125125366D02*
X76076667Y-125158700D01*
X76076667Y-125158700D02*
X76110000Y-125225366D01*
X76110000Y-125225366D02*
X76110000Y-125292033D01*
X76110000Y-125292033D02*
X76076667Y-125392033D01*
X76076667Y-125392033D02*
X75676667Y-125792033D01*
X75676667Y-125792033D02*
X76110000Y-125792033D01*
X76376667Y-125158700D02*
X76410000Y-125125366D01*
X76410000Y-125125366D02*
X76476667Y-125092033D01*
X76476667Y-125092033D02*
X76643334Y-125092033D01*
X76643334Y-125092033D02*
X76710000Y-125125366D01*
X76710000Y-125125366D02*
X76743334Y-125158700D01*
X76743334Y-125158700D02*
X76776667Y-125225366D01*
X76776667Y-125225366D02*
X76776667Y-125292033D01*
X76776667Y-125292033D02*
X76743334Y-125392033D01*
X76743334Y-125392033D02*
X76343334Y-125792033D01*
X76343334Y-125792033D02*
X76776667Y-125792033D01*
X77210001Y-125092033D02*
X77276667Y-125092033D01*
X77276667Y-125092033D02*
X77343334Y-125125366D01*
X77343334Y-125125366D02*
X77376667Y-125158700D01*
X77376667Y-125158700D02*
X77410001Y-125225366D01*
X77410001Y-125225366D02*
X77443334Y-125358700D01*
X77443334Y-125358700D02*
X77443334Y-125525366D01*
X77443334Y-125525366D02*
X77410001Y-125658700D01*
X77410001Y-125658700D02*
X77376667Y-125725366D01*
X77376667Y-125725366D02*
X77343334Y-125758700D01*
X77343334Y-125758700D02*
X77276667Y-125792033D01*
X77276667Y-125792033D02*
X77210001Y-125792033D01*
X77210001Y-125792033D02*
X77143334Y-125758700D01*
X77143334Y-125758700D02*
X77110001Y-125725366D01*
X77110001Y-125725366D02*
X77076667Y-125658700D01*
X77076667Y-125658700D02*
X77043334Y-125525366D01*
X77043334Y-125525366D02*
X77043334Y-125358700D01*
X77043334Y-125358700D02*
X77076667Y-125225366D01*
X77076667Y-125225366D02*
X77110001Y-125158700D01*
X77110001Y-125158700D02*
X77143334Y-125125366D01*
X77143334Y-125125366D02*
X77210001Y-125092033D01*
X93746666Y-110868033D02*
X93746666Y-111368033D01*
X93746666Y-111368033D02*
X93713333Y-111468033D01*
X93713333Y-111468033D02*
X93646666Y-111534700D01*
X93646666Y-111534700D02*
X93546666Y-111568033D01*
X93546666Y-111568033D02*
X93480000Y-111568033D01*
X94446666Y-111568033D02*
X94046666Y-111568033D01*
X94246666Y-111568033D02*
X94246666Y-110868033D01*
X94246666Y-110868033D02*
X94179999Y-110968033D01*
X94179999Y-110968033D02*
X94113333Y-111034700D01*
X94113333Y-111034700D02*
X94046666Y-111068033D01*
X76474666Y-154048033D02*
X76474666Y-154548033D01*
X76474666Y-154548033D02*
X76441333Y-154648033D01*
X76441333Y-154648033D02*
X76374666Y-154714700D01*
X76374666Y-154714700D02*
X76274666Y-154748033D01*
X76274666Y-154748033D02*
X76208000Y-154748033D01*
X77107999Y-154281366D02*
X77107999Y-154748033D01*
X76941333Y-154014700D02*
X76774666Y-154514700D01*
X76774666Y-154514700D02*
X77207999Y-154514700D01*
X71394666Y-107820033D02*
X71394666Y-108320033D01*
X71394666Y-108320033D02*
X71361333Y-108420033D01*
X71361333Y-108420033D02*
X71294666Y-108486700D01*
X71294666Y-108486700D02*
X71194666Y-108520033D01*
X71194666Y-108520033D02*
X71128000Y-108520033D01*
X71661333Y-107820033D02*
X72094666Y-107820033D01*
X72094666Y-107820033D02*
X71861333Y-108086700D01*
X71861333Y-108086700D02*
X71961333Y-108086700D01*
X71961333Y-108086700D02*
X72027999Y-108120033D01*
X72027999Y-108120033D02*
X72061333Y-108153366D01*
X72061333Y-108153366D02*
X72094666Y-108220033D01*
X72094666Y-108220033D02*
X72094666Y-108386700D01*
X72094666Y-108386700D02*
X72061333Y-108453366D01*
X72061333Y-108453366D02*
X72027999Y-108486700D01*
X72027999Y-108486700D02*
X71961333Y-108520033D01*
X71961333Y-108520033D02*
X71761333Y-108520033D01*
X71761333Y-108520033D02*
X71694666Y-108486700D01*
X71694666Y-108486700D02*
X71661333Y-108453366D01*
X96591466Y-151515633D02*
X96591466Y-152015633D01*
X96591466Y-152015633D02*
X96558133Y-152115633D01*
X96558133Y-152115633D02*
X96491466Y-152182300D01*
X96491466Y-152182300D02*
X96391466Y-152215633D01*
X96391466Y-152215633D02*
X96324800Y-152215633D01*
X96891466Y-151582300D02*
X96924799Y-151548966D01*
X96924799Y-151548966D02*
X96991466Y-151515633D01*
X96991466Y-151515633D02*
X97158133Y-151515633D01*
X97158133Y-151515633D02*
X97224799Y-151548966D01*
X97224799Y-151548966D02*
X97258133Y-151582300D01*
X97258133Y-151582300D02*
X97291466Y-151648966D01*
X97291466Y-151648966D02*
X97291466Y-151715633D01*
X97291466Y-151715633D02*
X97258133Y-151815633D01*
X97258133Y-151815633D02*
X96858133Y-152215633D01*
X96858133Y-152215633D02*
X97291466Y-152215633D01*
X79730666Y-140840033D02*
X79730666Y-141406700D01*
X79730666Y-141406700D02*
X79764000Y-141473366D01*
X79764000Y-141473366D02*
X79797333Y-141506700D01*
X79797333Y-141506700D02*
X79864000Y-141540033D01*
X79864000Y-141540033D02*
X79997333Y-141540033D01*
X79997333Y-141540033D02*
X80064000Y-141506700D01*
X80064000Y-141506700D02*
X80097333Y-141473366D01*
X80097333Y-141473366D02*
X80130666Y-141406700D01*
X80130666Y-141406700D02*
X80130666Y-140840033D01*
X80430666Y-140906700D02*
X80463999Y-140873366D01*
X80463999Y-140873366D02*
X80530666Y-140840033D01*
X80530666Y-140840033D02*
X80697333Y-140840033D01*
X80697333Y-140840033D02*
X80763999Y-140873366D01*
X80763999Y-140873366D02*
X80797333Y-140906700D01*
X80797333Y-140906700D02*
X80830666Y-140973366D01*
X80830666Y-140973366D02*
X80830666Y-141040033D01*
X80830666Y-141040033D02*
X80797333Y-141140033D01*
X80797333Y-141140033D02*
X80397333Y-141540033D01*
X80397333Y-141540033D02*
X80830666Y-141540033D01*
X70143333Y-145604033D02*
X69809999Y-145604033D01*
X69809999Y-145604033D02*
X69809999Y-144904033D01*
X70376666Y-145604033D02*
X70376666Y-144904033D01*
X70376666Y-144904033D02*
X70610000Y-145404033D01*
X70610000Y-145404033D02*
X70843333Y-144904033D01*
X70843333Y-144904033D02*
X70843333Y-145604033D01*
X71110000Y-144904033D02*
X71543333Y-144904033D01*
X71543333Y-144904033D02*
X71310000Y-145170700D01*
X71310000Y-145170700D02*
X71410000Y-145170700D01*
X71410000Y-145170700D02*
X71476666Y-145204033D01*
X71476666Y-145204033D02*
X71510000Y-145237366D01*
X71510000Y-145237366D02*
X71543333Y-145304033D01*
X71543333Y-145304033D02*
X71543333Y-145470700D01*
X71543333Y-145470700D02*
X71510000Y-145537366D01*
X71510000Y-145537366D02*
X71476666Y-145570700D01*
X71476666Y-145570700D02*
X71410000Y-145604033D01*
X71410000Y-145604033D02*
X71210000Y-145604033D01*
X71210000Y-145604033D02*
X71143333Y-145570700D01*
X71143333Y-145570700D02*
X71110000Y-145537366D01*
X72210000Y-145604033D02*
X71810000Y-145604033D01*
X72010000Y-145604033D02*
X72010000Y-144904033D01*
X72010000Y-144904033D02*
X71943333Y-145004033D01*
X71943333Y-145004033D02*
X71876667Y-145070700D01*
X71876667Y-145070700D02*
X71810000Y-145104033D01*
X72443334Y-144904033D02*
X72910000Y-144904033D01*
X72910000Y-144904033D02*
X72610000Y-145604033D01*
X73010001Y-145670700D02*
X73543334Y-145670700D01*
X73610000Y-144904033D02*
X74010000Y-144904033D01*
X73810000Y-145604033D02*
X73810000Y-144904033D01*
X74376667Y-144904033D02*
X74510000Y-144904033D01*
X74510000Y-144904033D02*
X74576667Y-144937366D01*
X74576667Y-144937366D02*
X74643333Y-145004033D01*
X74643333Y-145004033D02*
X74676667Y-145137366D01*
X74676667Y-145137366D02*
X74676667Y-145370700D01*
X74676667Y-145370700D02*
X74643333Y-145504033D01*
X74643333Y-145504033D02*
X74576667Y-145570700D01*
X74576667Y-145570700D02*
X74510000Y-145604033D01*
X74510000Y-145604033D02*
X74376667Y-145604033D01*
X74376667Y-145604033D02*
X74310000Y-145570700D01*
X74310000Y-145570700D02*
X74243333Y-145504033D01*
X74243333Y-145504033D02*
X74210000Y-145370700D01*
X74210000Y-145370700D02*
X74210000Y-145137366D01*
X74210000Y-145137366D02*
X74243333Y-145004033D01*
X74243333Y-145004033D02*
X74310000Y-144937366D01*
X74310000Y-144937366D02*
X74376667Y-144904033D01*
X74976666Y-145337366D02*
X75510000Y-145337366D01*
X75810000Y-144970700D02*
X75843333Y-144937366D01*
X75843333Y-144937366D02*
X75910000Y-144904033D01*
X75910000Y-144904033D02*
X76076667Y-144904033D01*
X76076667Y-144904033D02*
X76143333Y-144937366D01*
X76143333Y-144937366D02*
X76176667Y-144970700D01*
X76176667Y-144970700D02*
X76210000Y-145037366D01*
X76210000Y-145037366D02*
X76210000Y-145104033D01*
X76210000Y-145104033D02*
X76176667Y-145204033D01*
X76176667Y-145204033D02*
X75776667Y-145604033D01*
X75776667Y-145604033D02*
X76210000Y-145604033D01*
X76476667Y-144970700D02*
X76510000Y-144937366D01*
X76510000Y-144937366D02*
X76576667Y-144904033D01*
X76576667Y-144904033D02*
X76743334Y-144904033D01*
X76743334Y-144904033D02*
X76810000Y-144937366D01*
X76810000Y-144937366D02*
X76843334Y-144970700D01*
X76843334Y-144970700D02*
X76876667Y-145037366D01*
X76876667Y-145037366D02*
X76876667Y-145104033D01*
X76876667Y-145104033D02*
X76843334Y-145204033D01*
X76843334Y-145204033D02*
X76443334Y-145604033D01*
X76443334Y-145604033D02*
X76876667Y-145604033D01*
X77310001Y-144904033D02*
X77376667Y-144904033D01*
X77376667Y-144904033D02*
X77443334Y-144937366D01*
X77443334Y-144937366D02*
X77476667Y-144970700D01*
X77476667Y-144970700D02*
X77510001Y-145037366D01*
X77510001Y-145037366D02*
X77543334Y-145170700D01*
X77543334Y-145170700D02*
X77543334Y-145337366D01*
X77543334Y-145337366D02*
X77510001Y-145470700D01*
X77510001Y-145470700D02*
X77476667Y-145537366D01*
X77476667Y-145537366D02*
X77443334Y-145570700D01*
X77443334Y-145570700D02*
X77376667Y-145604033D01*
X77376667Y-145604033D02*
X77310001Y-145604033D01*
X77310001Y-145604033D02*
X77243334Y-145570700D01*
X77243334Y-145570700D02*
X77210001Y-145537366D01*
X77210001Y-145537366D02*
X77176667Y-145470700D01*
X77176667Y-145470700D02*
X77143334Y-145337366D01*
X77143334Y-145337366D02*
X77143334Y-145170700D01*
X77143334Y-145170700D02*
X77176667Y-145037366D01*
X77176667Y-145037366D02*
X77210001Y-144970700D01*
X77210001Y-144970700D02*
X77243334Y-144937366D01*
X77243334Y-144937366D02*
X77310001Y-144904033D01*
X68971333Y-151125366D02*
X68938000Y-151158700D01*
X68938000Y-151158700D02*
X68838000Y-151192033D01*
X68838000Y-151192033D02*
X68771333Y-151192033D01*
X68771333Y-151192033D02*
X68671333Y-151158700D01*
X68671333Y-151158700D02*
X68604667Y-151092033D01*
X68604667Y-151092033D02*
X68571333Y-151025366D01*
X68571333Y-151025366D02*
X68538000Y-150892033D01*
X68538000Y-150892033D02*
X68538000Y-150792033D01*
X68538000Y-150792033D02*
X68571333Y-150658700D01*
X68571333Y-150658700D02*
X68604667Y-150592033D01*
X68604667Y-150592033D02*
X68671333Y-150525366D01*
X68671333Y-150525366D02*
X68771333Y-150492033D01*
X68771333Y-150492033D02*
X68838000Y-150492033D01*
X68838000Y-150492033D02*
X68938000Y-150525366D01*
X68938000Y-150525366D02*
X68971333Y-150558700D01*
X69204667Y-150492033D02*
X69638000Y-150492033D01*
X69638000Y-150492033D02*
X69404667Y-150758700D01*
X69404667Y-150758700D02*
X69504667Y-150758700D01*
X69504667Y-150758700D02*
X69571333Y-150792033D01*
X69571333Y-150792033D02*
X69604667Y-150825366D01*
X69604667Y-150825366D02*
X69638000Y-150892033D01*
X69638000Y-150892033D02*
X69638000Y-151058700D01*
X69638000Y-151058700D02*
X69604667Y-151125366D01*
X69604667Y-151125366D02*
X69571333Y-151158700D01*
X69571333Y-151158700D02*
X69504667Y-151192033D01*
X69504667Y-151192033D02*
X69304667Y-151192033D01*
X69304667Y-151192033D02*
X69238000Y-151158700D01*
X69238000Y-151158700D02*
X69204667Y-151125366D01*
X72019333Y-151192033D02*
X71619333Y-151192033D01*
X71819333Y-151192033D02*
X71819333Y-150492033D01*
X71819333Y-150492033D02*
X71752666Y-150592033D01*
X71752666Y-150592033D02*
X71686000Y-150658700D01*
X71686000Y-150658700D02*
X71619333Y-150692033D01*
X72619333Y-150725366D02*
X72619333Y-151192033D01*
X72319333Y-150725366D02*
X72319333Y-151092033D01*
X72319333Y-151092033D02*
X72352667Y-151158700D01*
X72352667Y-151158700D02*
X72419333Y-151192033D01*
X72419333Y-151192033D02*
X72519333Y-151192033D01*
X72519333Y-151192033D02*
X72586000Y-151158700D01*
X72586000Y-151158700D02*
X72619333Y-151125366D01*
X75849333Y-118123366D02*
X75816000Y-118156700D01*
X75816000Y-118156700D02*
X75716000Y-118190033D01*
X75716000Y-118190033D02*
X75649333Y-118190033D01*
X75649333Y-118190033D02*
X75549333Y-118156700D01*
X75549333Y-118156700D02*
X75482667Y-118090033D01*
X75482667Y-118090033D02*
X75449333Y-118023366D01*
X75449333Y-118023366D02*
X75416000Y-117890033D01*
X75416000Y-117890033D02*
X75416000Y-117790033D01*
X75416000Y-117790033D02*
X75449333Y-117656700D01*
X75449333Y-117656700D02*
X75482667Y-117590033D01*
X75482667Y-117590033D02*
X75549333Y-117523366D01*
X75549333Y-117523366D02*
X75649333Y-117490033D01*
X75649333Y-117490033D02*
X75716000Y-117490033D01*
X75716000Y-117490033D02*
X75816000Y-117523366D01*
X75816000Y-117523366D02*
X75849333Y-117556700D01*
X76516000Y-118190033D02*
X76116000Y-118190033D01*
X76316000Y-118190033D02*
X76316000Y-117490033D01*
X76316000Y-117490033D02*
X76249333Y-117590033D01*
X76249333Y-117590033D02*
X76182667Y-117656700D01*
X76182667Y-117656700D02*
X76116000Y-117690033D01*
X75516000Y-114090033D02*
X75116000Y-114090033D01*
X75316000Y-114090033D02*
X75316000Y-113390033D01*
X75316000Y-113390033D02*
X75249333Y-113490033D01*
X75249333Y-113490033D02*
X75182667Y-113556700D01*
X75182667Y-113556700D02*
X75116000Y-113590033D01*
X75949334Y-113390033D02*
X76016000Y-113390033D01*
X76016000Y-113390033D02*
X76082667Y-113423366D01*
X76082667Y-113423366D02*
X76116000Y-113456700D01*
X76116000Y-113456700D02*
X76149334Y-113523366D01*
X76149334Y-113523366D02*
X76182667Y-113656700D01*
X76182667Y-113656700D02*
X76182667Y-113823366D01*
X76182667Y-113823366D02*
X76149334Y-113956700D01*
X76149334Y-113956700D02*
X76116000Y-114023366D01*
X76116000Y-114023366D02*
X76082667Y-114056700D01*
X76082667Y-114056700D02*
X76016000Y-114090033D01*
X76016000Y-114090033D02*
X75949334Y-114090033D01*
X75949334Y-114090033D02*
X75882667Y-114056700D01*
X75882667Y-114056700D02*
X75849334Y-114023366D01*
X75849334Y-114023366D02*
X75816000Y-113956700D01*
X75816000Y-113956700D02*
X75782667Y-113823366D01*
X75782667Y-113823366D02*
X75782667Y-113656700D01*
X75782667Y-113656700D02*
X75816000Y-113523366D01*
X75816000Y-113523366D02*
X75849334Y-113456700D01*
X75849334Y-113456700D02*
X75882667Y-113423366D01*
X75882667Y-113423366D02*
X75949334Y-113390033D01*
X76782667Y-113623366D02*
X76782667Y-114090033D01*
X76482667Y-113623366D02*
X76482667Y-113990033D01*
X76482667Y-113990033D02*
X76516001Y-114056700D01*
X76516001Y-114056700D02*
X76582667Y-114090033D01*
X76582667Y-114090033D02*
X76682667Y-114090033D01*
X76682667Y-114090033D02*
X76749334Y-114056700D01*
X76749334Y-114056700D02*
X76782667Y-114023366D01*
X68971333Y-119121366D02*
X68938000Y-119154700D01*
X68938000Y-119154700D02*
X68838000Y-119188033D01*
X68838000Y-119188033D02*
X68771333Y-119188033D01*
X68771333Y-119188033D02*
X68671333Y-119154700D01*
X68671333Y-119154700D02*
X68604667Y-119088033D01*
X68604667Y-119088033D02*
X68571333Y-119021366D01*
X68571333Y-119021366D02*
X68538000Y-118888033D01*
X68538000Y-118888033D02*
X68538000Y-118788033D01*
X68538000Y-118788033D02*
X68571333Y-118654700D01*
X68571333Y-118654700D02*
X68604667Y-118588033D01*
X68604667Y-118588033D02*
X68671333Y-118521366D01*
X68671333Y-118521366D02*
X68771333Y-118488033D01*
X68771333Y-118488033D02*
X68838000Y-118488033D01*
X68838000Y-118488033D02*
X68938000Y-118521366D01*
X68938000Y-118521366D02*
X68971333Y-118554700D01*
X69238000Y-118554700D02*
X69271333Y-118521366D01*
X69271333Y-118521366D02*
X69338000Y-118488033D01*
X69338000Y-118488033D02*
X69504667Y-118488033D01*
X69504667Y-118488033D02*
X69571333Y-118521366D01*
X69571333Y-118521366D02*
X69604667Y-118554700D01*
X69604667Y-118554700D02*
X69638000Y-118621366D01*
X69638000Y-118621366D02*
X69638000Y-118688033D01*
X69638000Y-118688033D02*
X69604667Y-118788033D01*
X69604667Y-118788033D02*
X69204667Y-119188033D01*
X69204667Y-119188033D02*
X69638000Y-119188033D01*
X68746000Y-114424033D02*
X68812666Y-114424033D01*
X68812666Y-114424033D02*
X68879333Y-114457366D01*
X68879333Y-114457366D02*
X68912666Y-114490700D01*
X68912666Y-114490700D02*
X68946000Y-114557366D01*
X68946000Y-114557366D02*
X68979333Y-114690700D01*
X68979333Y-114690700D02*
X68979333Y-114857366D01*
X68979333Y-114857366D02*
X68946000Y-114990700D01*
X68946000Y-114990700D02*
X68912666Y-115057366D01*
X68912666Y-115057366D02*
X68879333Y-115090700D01*
X68879333Y-115090700D02*
X68812666Y-115124033D01*
X68812666Y-115124033D02*
X68746000Y-115124033D01*
X68746000Y-115124033D02*
X68679333Y-115090700D01*
X68679333Y-115090700D02*
X68646000Y-115057366D01*
X68646000Y-115057366D02*
X68612666Y-114990700D01*
X68612666Y-114990700D02*
X68579333Y-114857366D01*
X68579333Y-114857366D02*
X68579333Y-114690700D01*
X68579333Y-114690700D02*
X68612666Y-114557366D01*
X68612666Y-114557366D02*
X68646000Y-114490700D01*
X68646000Y-114490700D02*
X68679333Y-114457366D01*
X68679333Y-114457366D02*
X68746000Y-114424033D01*
X69279333Y-115057366D02*
X69312667Y-115090700D01*
X69312667Y-115090700D02*
X69279333Y-115124033D01*
X69279333Y-115124033D02*
X69246000Y-115090700D01*
X69246000Y-115090700D02*
X69279333Y-115057366D01*
X69279333Y-115057366D02*
X69279333Y-115124033D01*
X69979333Y-115124033D02*
X69579333Y-115124033D01*
X69779333Y-115124033D02*
X69779333Y-114424033D01*
X69779333Y-114424033D02*
X69712666Y-114524033D01*
X69712666Y-114524033D02*
X69646000Y-114590700D01*
X69646000Y-114590700D02*
X69579333Y-114624033D01*
X70579333Y-114657366D02*
X70579333Y-115124033D01*
X70279333Y-114657366D02*
X70279333Y-115024033D01*
X70279333Y-115024033D02*
X70312667Y-115090700D01*
X70312667Y-115090700D02*
X70379333Y-115124033D01*
X70379333Y-115124033D02*
X70479333Y-115124033D01*
X70479333Y-115124033D02*
X70546000Y-115090700D01*
X70546000Y-115090700D02*
X70579333Y-115057366D01*
D12*
%TO.C,R3*%
X86980000Y-147224000D02*
X90820000Y-147224000D01*
X86980000Y-145384000D02*
X90820000Y-145384000D01*
%TO.C,J6*%
X65860000Y-127538500D02*
X80560000Y-127538500D01*
X65860000Y-136738500D02*
X65860000Y-127538500D01*
X74660000Y-136738500D02*
X65860000Y-136738500D01*
X79710000Y-127338500D02*
X80760000Y-127338500D01*
X80560000Y-127538500D02*
X80560000Y-130138500D01*
X80560000Y-134038500D02*
X80560000Y-136738500D01*
X80560000Y-136738500D02*
X78660000Y-136738500D01*
X80760000Y-128388500D02*
X80760000Y-127338500D01*
%TO.C,R2*%
X86980000Y-127096000D02*
X90820000Y-127096000D01*
X86980000Y-128936000D02*
X90820000Y-128936000D01*
%TO.C,R1*%
X90820000Y-141636000D02*
X86980000Y-141636000D01*
X90820000Y-139796000D02*
X86980000Y-139796000D01*
%TO.C,D1*%
X87635000Y-136418000D02*
X90725000Y-136418000D01*
X87635170Y-136418000D02*
G75*
G02*
X89180000Y-130868000I1544830J2560000D01*
G01*
X89180000Y-130868000D02*
G75*
G02*
X90724830Y-136418000I0J-2990000D01*
G01*
X91680000Y-133858000D02*
G75*
G02*
X86680000Y-133858000I-2500000J0D01*
G01*
X86680000Y-133858000D02*
G75*
G02*
X91680000Y-133858000I2500000J0D01*
G01*
%TO.C,J5*%
X82804000Y-106426000D02*
X82804000Y-114046000D01*
X92964000Y-114046000D02*
X92964000Y-106426000D01*
X92964000Y-112776000D02*
X82804000Y-112776000D01*
X82804000Y-114046000D02*
X92964000Y-114046000D01*
X92964000Y-106426000D02*
X82804000Y-106426000D01*
%TO.C,J7*%
X82804000Y-151130000D02*
X82804000Y-158750000D01*
X92964000Y-158750000D02*
X92964000Y-151130000D01*
X92964000Y-157480000D02*
X82804000Y-157480000D01*
X82804000Y-158750000D02*
X92964000Y-158750000D01*
X92964000Y-151130000D02*
X82804000Y-151130000D01*
D10*
%TO.C,S1*%
X81164000Y-118804000D02*
X81664000Y-118804000D01*
X81164000Y-118804000D02*
X81164000Y-119304000D01*
X93064000Y-118804000D02*
X92564000Y-118804000D01*
X93064000Y-118804000D02*
X93064000Y-119304000D01*
X93064000Y-123004000D02*
X92564000Y-123004000D01*
X93064000Y-123004000D02*
X93064000Y-122504000D01*
X81164000Y-123004000D02*
X81164000Y-122504000D01*
X81164000Y-123004000D02*
X81664000Y-123004000D01*
D12*
%TO.C,U1*%
X68042000Y-120052000D02*
X78262000Y-120052000D01*
X68042000Y-124672000D02*
X68042000Y-120052000D01*
X71302000Y-124672000D02*
X71302000Y-123292000D01*
X75002000Y-124672000D02*
X75002000Y-123292000D01*
X78262000Y-120052000D02*
X78262000Y-124672000D01*
X78262000Y-123292000D02*
X68042000Y-123292000D01*
X78262000Y-124672000D02*
X68042000Y-124672000D01*
%TO.C,J1*%
X98204800Y-109855000D02*
X98204800Y-112505000D01*
X95444800Y-112505000D02*
X98204800Y-112505000D01*
X95444800Y-109855000D02*
X98204800Y-109855000D01*
X95444800Y-109855000D02*
X95444800Y-112505000D01*
X95444800Y-108585000D02*
X95444800Y-107205000D01*
X95444800Y-107205000D02*
X96824800Y-107205000D01*
%TO.C,J4*%
X75438000Y-155592000D02*
X80628000Y-155592000D01*
X80628000Y-158352000D02*
X80628000Y-155592000D01*
X75438000Y-158352000D02*
X75438000Y-155592000D01*
X75438000Y-158352000D02*
X80628000Y-158352000D01*
X74168000Y-158352000D02*
X72788000Y-158352000D01*
X72788000Y-158352000D02*
X72788000Y-156972000D01*
%TO.C,J3*%
X75438000Y-107332000D02*
X80628000Y-107332000D01*
X80628000Y-110092000D02*
X80628000Y-107332000D01*
X75438000Y-110092000D02*
X75438000Y-107332000D01*
X75438000Y-110092000D02*
X80628000Y-110092000D01*
X74168000Y-110092000D02*
X72788000Y-110092000D01*
X72788000Y-110092000D02*
X72788000Y-108712000D01*
%TO.C,J2*%
X98204800Y-155549600D02*
X98204800Y-158199600D01*
X95444800Y-158199600D02*
X98204800Y-158199600D01*
X95444800Y-155549600D02*
X98204800Y-155549600D01*
X95444800Y-155549600D02*
X95444800Y-158199600D01*
X95444800Y-154279600D02*
X95444800Y-152899600D01*
X95444800Y-152899600D02*
X96824800Y-152899600D01*
%TO.C,U2*%
X78770000Y-144108000D02*
X68550000Y-144108000D01*
X78770000Y-139488000D02*
X78770000Y-144108000D01*
X75510000Y-139488000D02*
X75510000Y-140868000D01*
X71810000Y-139488000D02*
X71810000Y-140868000D01*
X68550000Y-144108000D02*
X68550000Y-139488000D01*
X68550000Y-140868000D02*
X78770000Y-140868000D01*
X68550000Y-139488000D02*
X78770000Y-139488000D01*
%TO.C,C3*%
X71885000Y-149764000D02*
X70355000Y-149764000D01*
X70355000Y-147924000D02*
X71885000Y-147924000D01*
%TO.C,C1*%
X75201000Y-114904000D02*
X76731000Y-114904000D01*
X76731000Y-116744000D02*
X75201000Y-116744000D01*
%TO.C,C2*%
X68323000Y-115920000D02*
X69853000Y-115920000D01*
X69853000Y-117760000D02*
X68323000Y-117760000D01*
%TD*%
M02*
