%TF.GenerationSoftware,KiCad,Pcbnew,9.0.7*%
%TF.CreationDate,2026-03-26T23:34:29-04:00*%
%TF.ProjectId,MCU Datalogger,4d435520-4461-4746-916c-6f676765722e,1*%
%TF.SameCoordinates,Original*%
%TF.FileFunction,Legend,Bot*%
%TF.FilePolarity,Positive*%
%FSLAX46Y46*%
G04 Gerber Fmt 4.6, Leading zero omitted, Abs format (unit mm)*
G04 Created by KiCad (PCBNEW 9.0.7) date 2026-03-26 23:34:29*
%MOMM*%
%LPD*%
G01*
G04 APERTURE LIST*
%ADD10C,0.300000*%
%ADD11C,0.250000*%
%ADD12C,0.010000*%
G04 APERTURE END LIST*
D10*
X156245489Y-109585912D02*
X156245489Y-108085912D01*
X156245489Y-108085912D02*
X155888346Y-108085912D01*
X155888346Y-108085912D02*
X155674060Y-108157341D01*
X155674060Y-108157341D02*
X155531203Y-108300198D01*
X155531203Y-108300198D02*
X155459774Y-108443055D01*
X155459774Y-108443055D02*
X155388346Y-108728769D01*
X155388346Y-108728769D02*
X155388346Y-108943055D01*
X155388346Y-108943055D02*
X155459774Y-109228769D01*
X155459774Y-109228769D02*
X155531203Y-109371626D01*
X155531203Y-109371626D02*
X155674060Y-109514484D01*
X155674060Y-109514484D02*
X155888346Y-109585912D01*
X155888346Y-109585912D02*
X156245489Y-109585912D01*
X154102632Y-109585912D02*
X154102632Y-108800198D01*
X154102632Y-108800198D02*
X154174060Y-108657341D01*
X154174060Y-108657341D02*
X154316917Y-108585912D01*
X154316917Y-108585912D02*
X154602632Y-108585912D01*
X154602632Y-108585912D02*
X154745489Y-108657341D01*
X154102632Y-109514484D02*
X154245489Y-109585912D01*
X154245489Y-109585912D02*
X154602632Y-109585912D01*
X154602632Y-109585912D02*
X154745489Y-109514484D01*
X154745489Y-109514484D02*
X154816917Y-109371626D01*
X154816917Y-109371626D02*
X154816917Y-109228769D01*
X154816917Y-109228769D02*
X154745489Y-109085912D01*
X154745489Y-109085912D02*
X154602632Y-109014484D01*
X154602632Y-109014484D02*
X154245489Y-109014484D01*
X154245489Y-109014484D02*
X154102632Y-108943055D01*
X153602631Y-108585912D02*
X153031203Y-108585912D01*
X153388346Y-108085912D02*
X153388346Y-109371626D01*
X153388346Y-109371626D02*
X153316917Y-109514484D01*
X153316917Y-109514484D02*
X153174060Y-109585912D01*
X153174060Y-109585912D02*
X153031203Y-109585912D01*
X151888346Y-109585912D02*
X151888346Y-108800198D01*
X151888346Y-108800198D02*
X151959774Y-108657341D01*
X151959774Y-108657341D02*
X152102631Y-108585912D01*
X152102631Y-108585912D02*
X152388346Y-108585912D01*
X152388346Y-108585912D02*
X152531203Y-108657341D01*
X151888346Y-109514484D02*
X152031203Y-109585912D01*
X152031203Y-109585912D02*
X152388346Y-109585912D01*
X152388346Y-109585912D02*
X152531203Y-109514484D01*
X152531203Y-109514484D02*
X152602631Y-109371626D01*
X152602631Y-109371626D02*
X152602631Y-109228769D01*
X152602631Y-109228769D02*
X152531203Y-109085912D01*
X152531203Y-109085912D02*
X152388346Y-109014484D01*
X152388346Y-109014484D02*
X152031203Y-109014484D01*
X152031203Y-109014484D02*
X151888346Y-108943055D01*
X149816917Y-109585912D02*
X149959774Y-109514484D01*
X149959774Y-109514484D02*
X150031203Y-109371626D01*
X150031203Y-109371626D02*
X150031203Y-108085912D01*
X149031203Y-109585912D02*
X149174060Y-109514484D01*
X149174060Y-109514484D02*
X149245489Y-109443055D01*
X149245489Y-109443055D02*
X149316917Y-109300198D01*
X149316917Y-109300198D02*
X149316917Y-108871626D01*
X149316917Y-108871626D02*
X149245489Y-108728769D01*
X149245489Y-108728769D02*
X149174060Y-108657341D01*
X149174060Y-108657341D02*
X149031203Y-108585912D01*
X149031203Y-108585912D02*
X148816917Y-108585912D01*
X148816917Y-108585912D02*
X148674060Y-108657341D01*
X148674060Y-108657341D02*
X148602632Y-108728769D01*
X148602632Y-108728769D02*
X148531203Y-108871626D01*
X148531203Y-108871626D02*
X148531203Y-109300198D01*
X148531203Y-109300198D02*
X148602632Y-109443055D01*
X148602632Y-109443055D02*
X148674060Y-109514484D01*
X148674060Y-109514484D02*
X148816917Y-109585912D01*
X148816917Y-109585912D02*
X149031203Y-109585912D01*
X147245489Y-108585912D02*
X147245489Y-109800198D01*
X147245489Y-109800198D02*
X147316917Y-109943055D01*
X147316917Y-109943055D02*
X147388346Y-110014484D01*
X147388346Y-110014484D02*
X147531203Y-110085912D01*
X147531203Y-110085912D02*
X147745489Y-110085912D01*
X147745489Y-110085912D02*
X147888346Y-110014484D01*
X147245489Y-109514484D02*
X147388346Y-109585912D01*
X147388346Y-109585912D02*
X147674060Y-109585912D01*
X147674060Y-109585912D02*
X147816917Y-109514484D01*
X147816917Y-109514484D02*
X147888346Y-109443055D01*
X147888346Y-109443055D02*
X147959774Y-109300198D01*
X147959774Y-109300198D02*
X147959774Y-108871626D01*
X147959774Y-108871626D02*
X147888346Y-108728769D01*
X147888346Y-108728769D02*
X147816917Y-108657341D01*
X147816917Y-108657341D02*
X147674060Y-108585912D01*
X147674060Y-108585912D02*
X147388346Y-108585912D01*
X147388346Y-108585912D02*
X147245489Y-108657341D01*
X145888346Y-108585912D02*
X145888346Y-109800198D01*
X145888346Y-109800198D02*
X145959774Y-109943055D01*
X145959774Y-109943055D02*
X146031203Y-110014484D01*
X146031203Y-110014484D02*
X146174060Y-110085912D01*
X146174060Y-110085912D02*
X146388346Y-110085912D01*
X146388346Y-110085912D02*
X146531203Y-110014484D01*
X145888346Y-109514484D02*
X146031203Y-109585912D01*
X146031203Y-109585912D02*
X146316917Y-109585912D01*
X146316917Y-109585912D02*
X146459774Y-109514484D01*
X146459774Y-109514484D02*
X146531203Y-109443055D01*
X146531203Y-109443055D02*
X146602631Y-109300198D01*
X146602631Y-109300198D02*
X146602631Y-108871626D01*
X146602631Y-108871626D02*
X146531203Y-108728769D01*
X146531203Y-108728769D02*
X146459774Y-108657341D01*
X146459774Y-108657341D02*
X146316917Y-108585912D01*
X146316917Y-108585912D02*
X146031203Y-108585912D01*
X146031203Y-108585912D02*
X145888346Y-108657341D01*
X144602631Y-109514484D02*
X144745488Y-109585912D01*
X144745488Y-109585912D02*
X145031203Y-109585912D01*
X145031203Y-109585912D02*
X145174060Y-109514484D01*
X145174060Y-109514484D02*
X145245488Y-109371626D01*
X145245488Y-109371626D02*
X145245488Y-108800198D01*
X145245488Y-108800198D02*
X145174060Y-108657341D01*
X145174060Y-108657341D02*
X145031203Y-108585912D01*
X145031203Y-108585912D02*
X144745488Y-108585912D01*
X144745488Y-108585912D02*
X144602631Y-108657341D01*
X144602631Y-108657341D02*
X144531203Y-108800198D01*
X144531203Y-108800198D02*
X144531203Y-108943055D01*
X144531203Y-108943055D02*
X145245488Y-109085912D01*
X143888346Y-109585912D02*
X143888346Y-108585912D01*
X143888346Y-108871626D02*
X143816917Y-108728769D01*
X143816917Y-108728769D02*
X143745489Y-108657341D01*
X143745489Y-108657341D02*
X143602631Y-108585912D01*
X143602631Y-108585912D02*
X143459774Y-108585912D01*
X141959775Y-108585912D02*
X141674061Y-109585912D01*
X141674061Y-109585912D02*
X141388346Y-108871626D01*
X141388346Y-108871626D02*
X141102632Y-109585912D01*
X141102632Y-109585912D02*
X140816918Y-108585912D01*
X140245489Y-109585912D02*
X140245489Y-108585912D01*
X140245489Y-108085912D02*
X140316917Y-108157341D01*
X140316917Y-108157341D02*
X140245489Y-108228769D01*
X140245489Y-108228769D02*
X140174060Y-108157341D01*
X140174060Y-108157341D02*
X140245489Y-108085912D01*
X140245489Y-108085912D02*
X140245489Y-108228769D01*
X139745488Y-108585912D02*
X139174060Y-108585912D01*
X139531203Y-108085912D02*
X139531203Y-109371626D01*
X139531203Y-109371626D02*
X139459774Y-109514484D01*
X139459774Y-109514484D02*
X139316917Y-109585912D01*
X139316917Y-109585912D02*
X139174060Y-109585912D01*
X138674060Y-109585912D02*
X138674060Y-108085912D01*
X138031203Y-109585912D02*
X138031203Y-108800198D01*
X138031203Y-108800198D02*
X138102631Y-108657341D01*
X138102631Y-108657341D02*
X138245488Y-108585912D01*
X138245488Y-108585912D02*
X138459774Y-108585912D01*
X138459774Y-108585912D02*
X138602631Y-108657341D01*
X138602631Y-108657341D02*
X138674060Y-108728769D01*
X156459774Y-111000828D02*
X155888346Y-111000828D01*
X156245489Y-110500828D02*
X156245489Y-111786542D01*
X156245489Y-111786542D02*
X156174060Y-111929400D01*
X156174060Y-111929400D02*
X156031203Y-112000828D01*
X156031203Y-112000828D02*
X155888346Y-112000828D01*
X155388346Y-112000828D02*
X155388346Y-110500828D01*
X154745489Y-112000828D02*
X154745489Y-111215114D01*
X154745489Y-111215114D02*
X154816917Y-111072257D01*
X154816917Y-111072257D02*
X154959774Y-111000828D01*
X154959774Y-111000828D02*
X155174060Y-111000828D01*
X155174060Y-111000828D02*
X155316917Y-111072257D01*
X155316917Y-111072257D02*
X155388346Y-111143685D01*
X153459774Y-111929400D02*
X153602631Y-112000828D01*
X153602631Y-112000828D02*
X153888346Y-112000828D01*
X153888346Y-112000828D02*
X154031203Y-111929400D01*
X154031203Y-111929400D02*
X154102631Y-111786542D01*
X154102631Y-111786542D02*
X154102631Y-111215114D01*
X154102631Y-111215114D02*
X154031203Y-111072257D01*
X154031203Y-111072257D02*
X153888346Y-111000828D01*
X153888346Y-111000828D02*
X153602631Y-111000828D01*
X153602631Y-111000828D02*
X153459774Y-111072257D01*
X153459774Y-111072257D02*
X153388346Y-111215114D01*
X153388346Y-111215114D02*
X153388346Y-111357971D01*
X153388346Y-111357971D02*
X154102631Y-111500828D01*
X151674060Y-111572257D02*
X150959775Y-111572257D01*
X151816917Y-112000828D02*
X151316917Y-110500828D01*
X151316917Y-110500828D02*
X150816917Y-112000828D01*
X150531203Y-110500828D02*
X149674061Y-110500828D01*
X150102632Y-112000828D02*
X150102632Y-110500828D01*
X149174061Y-112000828D02*
X149174061Y-110500828D01*
X149174061Y-110500828D02*
X148674061Y-111572257D01*
X148674061Y-111572257D02*
X148174061Y-110500828D01*
X148174061Y-110500828D02*
X148174061Y-112000828D01*
X147459775Y-111215114D02*
X146959775Y-111215114D01*
X146745489Y-112000828D02*
X147459775Y-112000828D01*
X147459775Y-112000828D02*
X147459775Y-110500828D01*
X147459775Y-110500828D02*
X146745489Y-110500828D01*
X145316917Y-110572257D02*
X145459775Y-110500828D01*
X145459775Y-110500828D02*
X145674060Y-110500828D01*
X145674060Y-110500828D02*
X145888346Y-110572257D01*
X145888346Y-110572257D02*
X146031203Y-110715114D01*
X146031203Y-110715114D02*
X146102632Y-110857971D01*
X146102632Y-110857971D02*
X146174060Y-111143685D01*
X146174060Y-111143685D02*
X146174060Y-111357971D01*
X146174060Y-111357971D02*
X146102632Y-111643685D01*
X146102632Y-111643685D02*
X146031203Y-111786542D01*
X146031203Y-111786542D02*
X145888346Y-111929400D01*
X145888346Y-111929400D02*
X145674060Y-112000828D01*
X145674060Y-112000828D02*
X145531203Y-112000828D01*
X145531203Y-112000828D02*
X145316917Y-111929400D01*
X145316917Y-111929400D02*
X145245489Y-111857971D01*
X145245489Y-111857971D02*
X145245489Y-111357971D01*
X145245489Y-111357971D02*
X145531203Y-111357971D01*
X144674060Y-111572257D02*
X143959775Y-111572257D01*
X144816917Y-112000828D02*
X144316917Y-110500828D01*
X144316917Y-110500828D02*
X143816917Y-112000828D01*
X143459775Y-110500828D02*
X142531203Y-110500828D01*
X142531203Y-110500828D02*
X143031203Y-111072257D01*
X143031203Y-111072257D02*
X142816918Y-111072257D01*
X142816918Y-111072257D02*
X142674061Y-111143685D01*
X142674061Y-111143685D02*
X142602632Y-111215114D01*
X142602632Y-111215114D02*
X142531203Y-111357971D01*
X142531203Y-111357971D02*
X142531203Y-111715114D01*
X142531203Y-111715114D02*
X142602632Y-111857971D01*
X142602632Y-111857971D02*
X142674061Y-111929400D01*
X142674061Y-111929400D02*
X142816918Y-112000828D01*
X142816918Y-112000828D02*
X143245489Y-112000828D01*
X143245489Y-112000828D02*
X143388346Y-111929400D01*
X143388346Y-111929400D02*
X143459775Y-111857971D01*
X141959775Y-110643685D02*
X141888347Y-110572257D01*
X141888347Y-110572257D02*
X141745490Y-110500828D01*
X141745490Y-110500828D02*
X141388347Y-110500828D01*
X141388347Y-110500828D02*
X141245490Y-110572257D01*
X141245490Y-110572257D02*
X141174061Y-110643685D01*
X141174061Y-110643685D02*
X141102632Y-110786542D01*
X141102632Y-110786542D02*
X141102632Y-110929400D01*
X141102632Y-110929400D02*
X141174061Y-111143685D01*
X141174061Y-111143685D02*
X142031204Y-112000828D01*
X142031204Y-112000828D02*
X141102632Y-112000828D01*
X140245490Y-111143685D02*
X140388347Y-111072257D01*
X140388347Y-111072257D02*
X140459776Y-111000828D01*
X140459776Y-111000828D02*
X140531204Y-110857971D01*
X140531204Y-110857971D02*
X140531204Y-110786542D01*
X140531204Y-110786542D02*
X140459776Y-110643685D01*
X140459776Y-110643685D02*
X140388347Y-110572257D01*
X140388347Y-110572257D02*
X140245490Y-110500828D01*
X140245490Y-110500828D02*
X139959776Y-110500828D01*
X139959776Y-110500828D02*
X139816919Y-110572257D01*
X139816919Y-110572257D02*
X139745490Y-110643685D01*
X139745490Y-110643685D02*
X139674061Y-110786542D01*
X139674061Y-110786542D02*
X139674061Y-110857971D01*
X139674061Y-110857971D02*
X139745490Y-111000828D01*
X139745490Y-111000828D02*
X139816919Y-111072257D01*
X139816919Y-111072257D02*
X139959776Y-111143685D01*
X139959776Y-111143685D02*
X140245490Y-111143685D01*
X140245490Y-111143685D02*
X140388347Y-111215114D01*
X140388347Y-111215114D02*
X140459776Y-111286542D01*
X140459776Y-111286542D02*
X140531204Y-111429400D01*
X140531204Y-111429400D02*
X140531204Y-111715114D01*
X140531204Y-111715114D02*
X140459776Y-111857971D01*
X140459776Y-111857971D02*
X140388347Y-111929400D01*
X140388347Y-111929400D02*
X140245490Y-112000828D01*
X140245490Y-112000828D02*
X139959776Y-112000828D01*
X139959776Y-112000828D02*
X139816919Y-111929400D01*
X139816919Y-111929400D02*
X139745490Y-111857971D01*
X139745490Y-111857971D02*
X139674061Y-111715114D01*
X139674061Y-111715114D02*
X139674061Y-111429400D01*
X139674061Y-111429400D02*
X139745490Y-111286542D01*
X139745490Y-111286542D02*
X139816919Y-111215114D01*
X139816919Y-111215114D02*
X139959776Y-111143685D01*
X139031205Y-112000828D02*
X139031205Y-110500828D01*
X139031205Y-110500828D02*
X138459776Y-110500828D01*
X138459776Y-110500828D02*
X138316919Y-110572257D01*
X138316919Y-110572257D02*
X138245490Y-110643685D01*
X138245490Y-110643685D02*
X138174062Y-110786542D01*
X138174062Y-110786542D02*
X138174062Y-111000828D01*
X138174062Y-111000828D02*
X138245490Y-111143685D01*
X138245490Y-111143685D02*
X138316919Y-111215114D01*
X138316919Y-111215114D02*
X138459776Y-111286542D01*
X138459776Y-111286542D02*
X139031205Y-111286542D01*
X137531205Y-111857971D02*
X137459776Y-111929400D01*
X137459776Y-111929400D02*
X137531205Y-112000828D01*
X137531205Y-112000828D02*
X137602633Y-111929400D01*
X137602633Y-111929400D02*
X137531205Y-111857971D01*
X137531205Y-111857971D02*
X137531205Y-112000828D01*
D11*
X130197431Y-107063778D02*
X129435527Y-107063778D01*
X128245050Y-106539969D02*
X128197431Y-106492350D01*
X128197431Y-106492350D02*
X128102193Y-106444731D01*
X128102193Y-106444731D02*
X127864098Y-106444731D01*
X127864098Y-106444731D02*
X127768860Y-106492350D01*
X127768860Y-106492350D02*
X127721241Y-106539969D01*
X127721241Y-106539969D02*
X127673622Y-106635207D01*
X127673622Y-106635207D02*
X127673622Y-106730445D01*
X127673622Y-106730445D02*
X127721241Y-106873302D01*
X127721241Y-106873302D02*
X128292669Y-107444731D01*
X128292669Y-107444731D02*
X127673622Y-107444731D01*
X127245050Y-107444731D02*
X127245050Y-106444731D01*
X127245050Y-106444731D02*
X126911717Y-107159016D01*
X126911717Y-107159016D02*
X126578384Y-106444731D01*
X126578384Y-106444731D02*
X126578384Y-107444731D01*
X126102193Y-107444731D02*
X126102193Y-106444731D01*
X126102193Y-106825683D02*
X126006955Y-106778064D01*
X126006955Y-106778064D02*
X125816479Y-106778064D01*
X125816479Y-106778064D02*
X125721241Y-106825683D01*
X125721241Y-106825683D02*
X125673622Y-106873302D01*
X125673622Y-106873302D02*
X125626003Y-106968540D01*
X125626003Y-106968540D02*
X125626003Y-107254254D01*
X125626003Y-107254254D02*
X125673622Y-107349492D01*
X125673622Y-107349492D02*
X125721241Y-107397112D01*
X125721241Y-107397112D02*
X125816479Y-107444731D01*
X125816479Y-107444731D02*
X126006955Y-107444731D01*
X126006955Y-107444731D02*
X126102193Y-107397112D01*
X125197431Y-107444731D02*
X125197431Y-106778064D01*
X125197431Y-106444731D02*
X125245050Y-106492350D01*
X125245050Y-106492350D02*
X125197431Y-106539969D01*
X125197431Y-106539969D02*
X125149812Y-106492350D01*
X125149812Y-106492350D02*
X125197431Y-106444731D01*
X125197431Y-106444731D02*
X125197431Y-106539969D01*
X124864098Y-106778064D02*
X124483146Y-106778064D01*
X124721241Y-106444731D02*
X124721241Y-107301873D01*
X124721241Y-107301873D02*
X124673622Y-107397112D01*
X124673622Y-107397112D02*
X124578384Y-107444731D01*
X124578384Y-107444731D02*
X124483146Y-107444731D01*
X123387907Y-106920921D02*
X123054574Y-106920921D01*
X122911717Y-107444731D02*
X123387907Y-107444731D01*
X123387907Y-107444731D02*
X123387907Y-106444731D01*
X123387907Y-106444731D02*
X122911717Y-106444731D01*
X122483145Y-106920921D02*
X122149812Y-106920921D01*
X122006955Y-107444731D02*
X122483145Y-107444731D01*
X122483145Y-107444731D02*
X122483145Y-106444731D01*
X122483145Y-106444731D02*
X122006955Y-106444731D01*
X121578383Y-107444731D02*
X121578383Y-106444731D01*
X121578383Y-106444731D02*
X121197431Y-106444731D01*
X121197431Y-106444731D02*
X121102193Y-106492350D01*
X121102193Y-106492350D02*
X121054574Y-106539969D01*
X121054574Y-106539969D02*
X121006955Y-106635207D01*
X121006955Y-106635207D02*
X121006955Y-106778064D01*
X121006955Y-106778064D02*
X121054574Y-106873302D01*
X121054574Y-106873302D02*
X121102193Y-106920921D01*
X121102193Y-106920921D02*
X121197431Y-106968540D01*
X121197431Y-106968540D02*
X121578383Y-106968540D01*
X120006955Y-107444731D02*
X120340288Y-106968540D01*
X120578383Y-107444731D02*
X120578383Y-106444731D01*
X120578383Y-106444731D02*
X120197431Y-106444731D01*
X120197431Y-106444731D02*
X120102193Y-106492350D01*
X120102193Y-106492350D02*
X120054574Y-106539969D01*
X120054574Y-106539969D02*
X120006955Y-106635207D01*
X120006955Y-106635207D02*
X120006955Y-106778064D01*
X120006955Y-106778064D02*
X120054574Y-106873302D01*
X120054574Y-106873302D02*
X120102193Y-106920921D01*
X120102193Y-106920921D02*
X120197431Y-106968540D01*
X120197431Y-106968540D02*
X120578383Y-106968540D01*
X119387907Y-106444731D02*
X119197431Y-106444731D01*
X119197431Y-106444731D02*
X119102193Y-106492350D01*
X119102193Y-106492350D02*
X119006955Y-106587588D01*
X119006955Y-106587588D02*
X118959336Y-106778064D01*
X118959336Y-106778064D02*
X118959336Y-107111397D01*
X118959336Y-107111397D02*
X119006955Y-107301873D01*
X119006955Y-107301873D02*
X119102193Y-107397112D01*
X119102193Y-107397112D02*
X119197431Y-107444731D01*
X119197431Y-107444731D02*
X119387907Y-107444731D01*
X119387907Y-107444731D02*
X119483145Y-107397112D01*
X119483145Y-107397112D02*
X119578383Y-107301873D01*
X119578383Y-107301873D02*
X119626002Y-107111397D01*
X119626002Y-107111397D02*
X119626002Y-106778064D01*
X119626002Y-106778064D02*
X119578383Y-106587588D01*
X119578383Y-106587588D02*
X119483145Y-106492350D01*
X119483145Y-106492350D02*
X119387907Y-106444731D01*
X118530764Y-107444731D02*
X118530764Y-106444731D01*
X118530764Y-106444731D02*
X118197431Y-107159016D01*
X118197431Y-107159016D02*
X117864098Y-106444731D01*
X117864098Y-106444731D02*
X117864098Y-107444731D01*
X130197431Y-108673722D02*
X129435527Y-108673722D01*
X127626003Y-109054675D02*
X127959336Y-108578484D01*
X128197431Y-109054675D02*
X128197431Y-108054675D01*
X128197431Y-108054675D02*
X127816479Y-108054675D01*
X127816479Y-108054675D02*
X127721241Y-108102294D01*
X127721241Y-108102294D02*
X127673622Y-108149913D01*
X127673622Y-108149913D02*
X127626003Y-108245151D01*
X127626003Y-108245151D02*
X127626003Y-108388008D01*
X127626003Y-108388008D02*
X127673622Y-108483246D01*
X127673622Y-108483246D02*
X127721241Y-108530865D01*
X127721241Y-108530865D02*
X127816479Y-108578484D01*
X127816479Y-108578484D02*
X128197431Y-108578484D01*
X127340288Y-108054675D02*
X126768860Y-108054675D01*
X127054574Y-109054675D02*
X127054574Y-108054675D01*
X125864098Y-108959436D02*
X125911717Y-109007056D01*
X125911717Y-109007056D02*
X126054574Y-109054675D01*
X126054574Y-109054675D02*
X126149812Y-109054675D01*
X126149812Y-109054675D02*
X126292669Y-109007056D01*
X126292669Y-109007056D02*
X126387907Y-108911817D01*
X126387907Y-108911817D02*
X126435526Y-108816579D01*
X126435526Y-108816579D02*
X126483145Y-108626103D01*
X126483145Y-108626103D02*
X126483145Y-108483246D01*
X126483145Y-108483246D02*
X126435526Y-108292770D01*
X126435526Y-108292770D02*
X126387907Y-108197532D01*
X126387907Y-108197532D02*
X126292669Y-108102294D01*
X126292669Y-108102294D02*
X126149812Y-108054675D01*
X126149812Y-108054675D02*
X126054574Y-108054675D01*
X126054574Y-108054675D02*
X125911717Y-108102294D01*
X125911717Y-108102294D02*
X125864098Y-108149913D01*
X130197431Y-110283666D02*
X129435527Y-110283666D01*
X128197431Y-110664619D02*
X128197431Y-109664619D01*
X127768860Y-109759857D02*
X127721241Y-109712238D01*
X127721241Y-109712238D02*
X127626003Y-109664619D01*
X127626003Y-109664619D02*
X127387908Y-109664619D01*
X127387908Y-109664619D02*
X127292670Y-109712238D01*
X127292670Y-109712238D02*
X127245051Y-109759857D01*
X127245051Y-109759857D02*
X127197432Y-109855095D01*
X127197432Y-109855095D02*
X127197432Y-109950333D01*
X127197432Y-109950333D02*
X127245051Y-110093190D01*
X127245051Y-110093190D02*
X127816479Y-110664619D01*
X127816479Y-110664619D02*
X127197432Y-110664619D01*
X126197432Y-110569380D02*
X126245051Y-110617000D01*
X126245051Y-110617000D02*
X126387908Y-110664619D01*
X126387908Y-110664619D02*
X126483146Y-110664619D01*
X126483146Y-110664619D02*
X126626003Y-110617000D01*
X126626003Y-110617000D02*
X126721241Y-110521761D01*
X126721241Y-110521761D02*
X126768860Y-110426523D01*
X126768860Y-110426523D02*
X126816479Y-110236047D01*
X126816479Y-110236047D02*
X126816479Y-110093190D01*
X126816479Y-110093190D02*
X126768860Y-109902714D01*
X126768860Y-109902714D02*
X126721241Y-109807476D01*
X126721241Y-109807476D02*
X126626003Y-109712238D01*
X126626003Y-109712238D02*
X126483146Y-109664619D01*
X126483146Y-109664619D02*
X126387908Y-109664619D01*
X126387908Y-109664619D02*
X126245051Y-109712238D01*
X126245051Y-109712238D02*
X126197432Y-109759857D01*
X125721241Y-110617000D02*
X125721241Y-110664619D01*
X125721241Y-110664619D02*
X125768860Y-110759857D01*
X125768860Y-110759857D02*
X125816479Y-110807476D01*
X124578384Y-110617000D02*
X124435527Y-110664619D01*
X124435527Y-110664619D02*
X124197432Y-110664619D01*
X124197432Y-110664619D02*
X124102194Y-110617000D01*
X124102194Y-110617000D02*
X124054575Y-110569380D01*
X124054575Y-110569380D02*
X124006956Y-110474142D01*
X124006956Y-110474142D02*
X124006956Y-110378904D01*
X124006956Y-110378904D02*
X124054575Y-110283666D01*
X124054575Y-110283666D02*
X124102194Y-110236047D01*
X124102194Y-110236047D02*
X124197432Y-110188428D01*
X124197432Y-110188428D02*
X124387908Y-110140809D01*
X124387908Y-110140809D02*
X124483146Y-110093190D01*
X124483146Y-110093190D02*
X124530765Y-110045571D01*
X124530765Y-110045571D02*
X124578384Y-109950333D01*
X124578384Y-109950333D02*
X124578384Y-109855095D01*
X124578384Y-109855095D02*
X124530765Y-109759857D01*
X124530765Y-109759857D02*
X124483146Y-109712238D01*
X124483146Y-109712238D02*
X124387908Y-109664619D01*
X124387908Y-109664619D02*
X124149813Y-109664619D01*
X124149813Y-109664619D02*
X124006956Y-109712238D01*
X123578384Y-110664619D02*
X123578384Y-109664619D01*
X123578384Y-109664619D02*
X123197432Y-109664619D01*
X123197432Y-109664619D02*
X123102194Y-109712238D01*
X123102194Y-109712238D02*
X123054575Y-109759857D01*
X123054575Y-109759857D02*
X123006956Y-109855095D01*
X123006956Y-109855095D02*
X123006956Y-109997952D01*
X123006956Y-109997952D02*
X123054575Y-110093190D01*
X123054575Y-110093190D02*
X123102194Y-110140809D01*
X123102194Y-110140809D02*
X123197432Y-110188428D01*
X123197432Y-110188428D02*
X123578384Y-110188428D01*
X122578384Y-110664619D02*
X122578384Y-109664619D01*
X122054575Y-110617000D02*
X122054575Y-110664619D01*
X122054575Y-110664619D02*
X122102194Y-110759857D01*
X122102194Y-110759857D02*
X122149813Y-110807476D01*
X120340290Y-109712238D02*
X120435528Y-109664619D01*
X120435528Y-109664619D02*
X120578385Y-109664619D01*
X120578385Y-109664619D02*
X120721242Y-109712238D01*
X120721242Y-109712238D02*
X120816480Y-109807476D01*
X120816480Y-109807476D02*
X120864099Y-109902714D01*
X120864099Y-109902714D02*
X120911718Y-110093190D01*
X120911718Y-110093190D02*
X120911718Y-110236047D01*
X120911718Y-110236047D02*
X120864099Y-110426523D01*
X120864099Y-110426523D02*
X120816480Y-110521761D01*
X120816480Y-110521761D02*
X120721242Y-110617000D01*
X120721242Y-110617000D02*
X120578385Y-110664619D01*
X120578385Y-110664619D02*
X120483147Y-110664619D01*
X120483147Y-110664619D02*
X120340290Y-110617000D01*
X120340290Y-110617000D02*
X120292671Y-110569380D01*
X120292671Y-110569380D02*
X120292671Y-110236047D01*
X120292671Y-110236047D02*
X120483147Y-110236047D01*
X119864099Y-110664619D02*
X119864099Y-109664619D01*
X119864099Y-109664619D02*
X119483147Y-109664619D01*
X119483147Y-109664619D02*
X119387909Y-109712238D01*
X119387909Y-109712238D02*
X119340290Y-109759857D01*
X119340290Y-109759857D02*
X119292671Y-109855095D01*
X119292671Y-109855095D02*
X119292671Y-109997952D01*
X119292671Y-109997952D02*
X119340290Y-110093190D01*
X119340290Y-110093190D02*
X119387909Y-110140809D01*
X119387909Y-110140809D02*
X119483147Y-110188428D01*
X119483147Y-110188428D02*
X119864099Y-110188428D01*
X118864099Y-110664619D02*
X118864099Y-109664619D01*
X118197433Y-109664619D02*
X118006957Y-109664619D01*
X118006957Y-109664619D02*
X117911719Y-109712238D01*
X117911719Y-109712238D02*
X117816481Y-109807476D01*
X117816481Y-109807476D02*
X117768862Y-109997952D01*
X117768862Y-109997952D02*
X117768862Y-110331285D01*
X117768862Y-110331285D02*
X117816481Y-110521761D01*
X117816481Y-110521761D02*
X117911719Y-110617000D01*
X117911719Y-110617000D02*
X118006957Y-110664619D01*
X118006957Y-110664619D02*
X118197433Y-110664619D01*
X118197433Y-110664619D02*
X118292671Y-110617000D01*
X118292671Y-110617000D02*
X118387909Y-110521761D01*
X118387909Y-110521761D02*
X118435528Y-110331285D01*
X118435528Y-110331285D02*
X118435528Y-109997952D01*
X118435528Y-109997952D02*
X118387909Y-109807476D01*
X118387909Y-109807476D02*
X118292671Y-109712238D01*
X118292671Y-109712238D02*
X118197433Y-109664619D01*
X117387909Y-110617000D02*
X117292671Y-110664619D01*
X117292671Y-110664619D02*
X117102195Y-110664619D01*
X117102195Y-110664619D02*
X117006957Y-110617000D01*
X117006957Y-110617000D02*
X116959338Y-110521761D01*
X116959338Y-110521761D02*
X116959338Y-110474142D01*
X116959338Y-110474142D02*
X117006957Y-110378904D01*
X117006957Y-110378904D02*
X117102195Y-110331285D01*
X117102195Y-110331285D02*
X117245052Y-110331285D01*
X117245052Y-110331285D02*
X117340290Y-110283666D01*
X117340290Y-110283666D02*
X117387909Y-110188428D01*
X117387909Y-110188428D02*
X117387909Y-110140809D01*
X117387909Y-110140809D02*
X117340290Y-110045571D01*
X117340290Y-110045571D02*
X117245052Y-109997952D01*
X117245052Y-109997952D02*
X117102195Y-109997952D01*
X117102195Y-109997952D02*
X117006957Y-110045571D01*
D12*
%TO.C,REF\u002A\u002A*%
X122255406Y-96874949D02*
X122281127Y-96890647D01*
X122307778Y-96912227D01*
X122307778Y-97559684D01*
X122281127Y-97581264D01*
X122249767Y-97598739D01*
X122213966Y-97599575D01*
X122182528Y-97579082D01*
X122178652Y-97574416D01*
X122173186Y-97564949D01*
X122168979Y-97551267D01*
X122165867Y-97530748D01*
X122163687Y-97500768D01*
X122162276Y-97458704D01*
X122161471Y-97401932D01*
X122161107Y-97327830D01*
X122161022Y-97233773D01*
X122161022Y-96912227D01*
X122187673Y-96890647D01*
X122211386Y-96875877D01*
X122234400Y-96869067D01*
X122255406Y-96874949D01*
G36*
X122255406Y-96874949D02*
G01*
X122281127Y-96890647D01*
X122307778Y-96912227D01*
X122307778Y-97559684D01*
X122281127Y-97581264D01*
X122249767Y-97598739D01*
X122213966Y-97599575D01*
X122182528Y-97579082D01*
X122178652Y-97574416D01*
X122173186Y-97564949D01*
X122168979Y-97551267D01*
X122165867Y-97530748D01*
X122163687Y-97500768D01*
X122162276Y-97458704D01*
X122161471Y-97401932D01*
X122161107Y-97327830D01*
X122161022Y-97233773D01*
X122161022Y-96912227D01*
X122187673Y-96890647D01*
X122211386Y-96875877D01*
X122234400Y-96869067D01*
X122255406Y-96874949D01*
G37*
X129386137Y-96873463D02*
X129420291Y-96896776D01*
X129448000Y-96924485D01*
X129448000Y-97237537D01*
X129447959Y-97321567D01*
X129447701Y-97395789D01*
X129447030Y-97452541D01*
X129445752Y-97494512D01*
X129443673Y-97524389D01*
X129440599Y-97544861D01*
X129436334Y-97558614D01*
X129430684Y-97568337D01*
X129423455Y-97576717D01*
X129391991Y-97598181D01*
X129356826Y-97599947D01*
X129323822Y-97580267D01*
X129318516Y-97574398D01*
X129313066Y-97565314D01*
X129308900Y-97551973D01*
X129305846Y-97531757D01*
X129303732Y-97502049D01*
X129302386Y-97460232D01*
X129301638Y-97403689D01*
X129301314Y-97329802D01*
X129301245Y-97235956D01*
X129301284Y-97160294D01*
X129301539Y-97082385D01*
X129302183Y-97022375D01*
X129303387Y-96977648D01*
X129305324Y-96945585D01*
X129308164Y-96923571D01*
X129312079Y-96908987D01*
X129317242Y-96899218D01*
X129323822Y-96891645D01*
X129353006Y-96872623D01*
X129386137Y-96873463D01*
G36*
X129386137Y-96873463D02*
G01*
X129420291Y-96896776D01*
X129448000Y-96924485D01*
X129448000Y-97237537D01*
X129447959Y-97321567D01*
X129447701Y-97395789D01*
X129447030Y-97452541D01*
X129445752Y-97494512D01*
X129443673Y-97524389D01*
X129440599Y-97544861D01*
X129436334Y-97558614D01*
X129430684Y-97568337D01*
X129423455Y-97576717D01*
X129391991Y-97598181D01*
X129356826Y-97599947D01*
X129323822Y-97580267D01*
X129318516Y-97574398D01*
X129313066Y-97565314D01*
X129308900Y-97551973D01*
X129305846Y-97531757D01*
X129303732Y-97502049D01*
X129302386Y-97460232D01*
X129301638Y-97403689D01*
X129301314Y-97329802D01*
X129301245Y-97235956D01*
X129301284Y-97160294D01*
X129301539Y-97082385D01*
X129302183Y-97022375D01*
X129303387Y-96977648D01*
X129305324Y-96945585D01*
X129308164Y-96923571D01*
X129312079Y-96908987D01*
X129317242Y-96899218D01*
X129323822Y-96891645D01*
X129353006Y-96872623D01*
X129386137Y-96873463D01*
G37*
X128854562Y-91632850D02*
X128937313Y-91660053D01*
X129012406Y-91705484D01*
X129084298Y-91771302D01*
X129122846Y-91815567D01*
X129162256Y-91873961D01*
X129187446Y-91934586D01*
X129200861Y-92003865D01*
X129204948Y-92088222D01*
X129204669Y-92134307D01*
X129202460Y-92175450D01*
X129196894Y-92207582D01*
X129186586Y-92238122D01*
X129170148Y-92274489D01*
X129156200Y-92301728D01*
X129097665Y-92387429D01*
X129025619Y-92456617D01*
X128941947Y-92507741D01*
X128848531Y-92539250D01*
X128815434Y-92546225D01*
X128774960Y-92553094D01*
X128741999Y-92554919D01*
X128707698Y-92551947D01*
X128663200Y-92544426D01*
X128611934Y-92532002D01*
X128521434Y-92494112D01*
X128442345Y-92439836D01*
X128376528Y-92371770D01*
X128325840Y-92292511D01*
X128292140Y-92204654D01*
X128277286Y-92110795D01*
X128283136Y-92013530D01*
X128309399Y-91917220D01*
X128354418Y-91828494D01*
X128415373Y-91753419D01*
X128490184Y-91693641D01*
X128576768Y-91650809D01*
X128673043Y-91626571D01*
X128776928Y-91622576D01*
X128854562Y-91632850D01*
G36*
X128854562Y-91632850D02*
G01*
X128937313Y-91660053D01*
X129012406Y-91705484D01*
X129084298Y-91771302D01*
X129122846Y-91815567D01*
X129162256Y-91873961D01*
X129187446Y-91934586D01*
X129200861Y-92003865D01*
X129204948Y-92088222D01*
X129204669Y-92134307D01*
X129202460Y-92175450D01*
X129196894Y-92207582D01*
X129186586Y-92238122D01*
X129170148Y-92274489D01*
X129156200Y-92301728D01*
X129097665Y-92387429D01*
X129025619Y-92456617D01*
X128941947Y-92507741D01*
X128848531Y-92539250D01*
X128815434Y-92546225D01*
X128774960Y-92553094D01*
X128741999Y-92554919D01*
X128707698Y-92551947D01*
X128663200Y-92544426D01*
X128611934Y-92532002D01*
X128521434Y-92494112D01*
X128442345Y-92439836D01*
X128376528Y-92371770D01*
X128325840Y-92292511D01*
X128292140Y-92204654D01*
X128277286Y-92110795D01*
X128283136Y-92013530D01*
X128309399Y-91917220D01*
X128354418Y-91828494D01*
X128415373Y-91753419D01*
X128490184Y-91693641D01*
X128576768Y-91650809D01*
X128673043Y-91626571D01*
X128776928Y-91622576D01*
X128854562Y-91632850D01*
G37*
X121555767Y-96869068D02*
X121649890Y-96869158D01*
X121724405Y-96869498D01*
X121781811Y-96870239D01*
X121824611Y-96871535D01*
X121855304Y-96873537D01*
X121876391Y-96876396D01*
X121890373Y-96880266D01*
X121899750Y-96885298D01*
X121907022Y-96891645D01*
X121925828Y-96924362D01*
X121927275Y-96961939D01*
X121910917Y-96995178D01*
X121909557Y-96996631D01*
X121898354Y-97004992D01*
X121881252Y-97010547D01*
X121854082Y-97013840D01*
X121812678Y-97015418D01*
X121752873Y-97015822D01*
X121613511Y-97015822D01*
X121613511Y-97279589D01*
X121613436Y-97355417D01*
X121613028Y-97422083D01*
X121612046Y-97471867D01*
X121610250Y-97507784D01*
X121607399Y-97532850D01*
X121603253Y-97550081D01*
X121597571Y-97562492D01*
X121590114Y-97573100D01*
X121587824Y-97575906D01*
X121556646Y-97598548D01*
X121522266Y-97600112D01*
X121489334Y-97580267D01*
X121482355Y-97572191D01*
X121476883Y-97561593D01*
X121472863Y-97545749D01*
X121470072Y-97521773D01*
X121468288Y-97486774D01*
X121467289Y-97437864D01*
X121466852Y-97372154D01*
X121466756Y-97286756D01*
X121466756Y-97015822D01*
X121320820Y-97015822D01*
X121309720Y-97015821D01*
X121253202Y-97015596D01*
X121214358Y-97014457D01*
X121188965Y-97011657D01*
X121172804Y-97006450D01*
X121161652Y-96998089D01*
X121151289Y-96985826D01*
X121135441Y-96955138D01*
X121138543Y-96921358D01*
X121164187Y-96888822D01*
X121169129Y-96885105D01*
X121179338Y-96880269D01*
X121194764Y-96876506D01*
X121217886Y-96873683D01*
X121251183Y-96871670D01*
X121297137Y-96870333D01*
X121358228Y-96869542D01*
X121436935Y-96869163D01*
X121535740Y-96869067D01*
X121555767Y-96869068D01*
G36*
X121555767Y-96869068D02*
G01*
X121649890Y-96869158D01*
X121724405Y-96869498D01*
X121781811Y-96870239D01*
X121824611Y-96871535D01*
X121855304Y-96873537D01*
X121876391Y-96876396D01*
X121890373Y-96880266D01*
X121899750Y-96885298D01*
X121907022Y-96891645D01*
X121925828Y-96924362D01*
X121927275Y-96961939D01*
X121910917Y-96995178D01*
X121909557Y-96996631D01*
X121898354Y-97004992D01*
X121881252Y-97010547D01*
X121854082Y-97013840D01*
X121812678Y-97015418D01*
X121752873Y-97015822D01*
X121613511Y-97015822D01*
X121613511Y-97279589D01*
X121613436Y-97355417D01*
X121613028Y-97422083D01*
X121612046Y-97471867D01*
X121610250Y-97507784D01*
X121607399Y-97532850D01*
X121603253Y-97550081D01*
X121597571Y-97562492D01*
X121590114Y-97573100D01*
X121587824Y-97575906D01*
X121556646Y-97598548D01*
X121522266Y-97600112D01*
X121489334Y-97580267D01*
X121482355Y-97572191D01*
X121476883Y-97561593D01*
X121472863Y-97545749D01*
X121470072Y-97521773D01*
X121468288Y-97486774D01*
X121467289Y-97437864D01*
X121466852Y-97372154D01*
X121466756Y-97286756D01*
X121466756Y-97015822D01*
X121320820Y-97015822D01*
X121309720Y-97015821D01*
X121253202Y-97015596D01*
X121214358Y-97014457D01*
X121188965Y-97011657D01*
X121172804Y-97006450D01*
X121161652Y-96998089D01*
X121151289Y-96985826D01*
X121135441Y-96955138D01*
X121138543Y-96921358D01*
X121164187Y-96888822D01*
X121169129Y-96885105D01*
X121179338Y-96880269D01*
X121194764Y-96876506D01*
X121217886Y-96873683D01*
X121251183Y-96871670D01*
X121297137Y-96870333D01*
X121358228Y-96869542D01*
X121436935Y-96869163D01*
X121535740Y-96869067D01*
X121555767Y-96869068D01*
G37*
X120879734Y-96891645D02*
X120885366Y-96897835D01*
X120890456Y-96906041D01*
X120894543Y-96917817D01*
X120897721Y-96935276D01*
X120900087Y-96960530D01*
X120901738Y-96995690D01*
X120902769Y-97042869D01*
X120903277Y-97104177D01*
X120903359Y-97181727D01*
X120903109Y-97277631D01*
X120902625Y-97394000D01*
X120902557Y-97408175D01*
X120901971Y-97469937D01*
X120900648Y-97513620D01*
X120898103Y-97543001D01*
X120893848Y-97561855D01*
X120887396Y-97573959D01*
X120878262Y-97583089D01*
X120844804Y-97600506D01*
X120809856Y-97597604D01*
X120778953Y-97573100D01*
X120769944Y-97559897D01*
X120762492Y-97541361D01*
X120758124Y-97515333D01*
X120756069Y-97476787D01*
X120755556Y-97420700D01*
X120755556Y-97298045D01*
X120258845Y-97298045D01*
X120258845Y-97432871D01*
X120258772Y-97468662D01*
X120258009Y-97514992D01*
X120255833Y-97545526D01*
X120251536Y-97564557D01*
X120244412Y-97576374D01*
X120233755Y-97585271D01*
X120201504Y-97600341D01*
X120166217Y-97597673D01*
X120135486Y-97573100D01*
X120130831Y-97566845D01*
X120124895Y-97556321D01*
X120120364Y-97542391D01*
X120117048Y-97522317D01*
X120114759Y-97493360D01*
X120113308Y-97452780D01*
X120112505Y-97397840D01*
X120112162Y-97325799D01*
X120112089Y-97233920D01*
X120112089Y-96924485D01*
X120139798Y-96896776D01*
X120171177Y-96874533D01*
X120204406Y-96871844D01*
X120236267Y-96891645D01*
X120244553Y-96901415D01*
X120251965Y-96917307D01*
X120256302Y-96941275D01*
X120258338Y-96978148D01*
X120258845Y-97032756D01*
X120258845Y-97151289D01*
X120755556Y-97151289D01*
X120755556Y-97035776D01*
X120755994Y-96984078D01*
X120757958Y-96949554D01*
X120762474Y-96926978D01*
X120770567Y-96911126D01*
X120783265Y-96896776D01*
X120814643Y-96874533D01*
X120847872Y-96871844D01*
X120879734Y-96891645D01*
G36*
X120879734Y-96891645D02*
G01*
X120885366Y-96897835D01*
X120890456Y-96906041D01*
X120894543Y-96917817D01*
X120897721Y-96935276D01*
X120900087Y-96960530D01*
X120901738Y-96995690D01*
X120902769Y-97042869D01*
X120903277Y-97104177D01*
X120903359Y-97181727D01*
X120903109Y-97277631D01*
X120902625Y-97394000D01*
X120902557Y-97408175D01*
X120901971Y-97469937D01*
X120900648Y-97513620D01*
X120898103Y-97543001D01*
X120893848Y-97561855D01*
X120887396Y-97573959D01*
X120878262Y-97583089D01*
X120844804Y-97600506D01*
X120809856Y-97597604D01*
X120778953Y-97573100D01*
X120769944Y-97559897D01*
X120762492Y-97541361D01*
X120758124Y-97515333D01*
X120756069Y-97476787D01*
X120755556Y-97420700D01*
X120755556Y-97298045D01*
X120258845Y-97298045D01*
X120258845Y-97432871D01*
X120258772Y-97468662D01*
X120258009Y-97514992D01*
X120255833Y-97545526D01*
X120251536Y-97564557D01*
X120244412Y-97576374D01*
X120233755Y-97585271D01*
X120201504Y-97600341D01*
X120166217Y-97597673D01*
X120135486Y-97573100D01*
X120130831Y-97566845D01*
X120124895Y-97556321D01*
X120120364Y-97542391D01*
X120117048Y-97522317D01*
X120114759Y-97493360D01*
X120113308Y-97452780D01*
X120112505Y-97397840D01*
X120112162Y-97325799D01*
X120112089Y-97233920D01*
X120112089Y-96924485D01*
X120139798Y-96896776D01*
X120171177Y-96874533D01*
X120204406Y-96871844D01*
X120236267Y-96891645D01*
X120244553Y-96901415D01*
X120251965Y-96917307D01*
X120256302Y-96941275D01*
X120258338Y-96978148D01*
X120258845Y-97032756D01*
X120258845Y-97151289D01*
X120755556Y-97151289D01*
X120755556Y-97035776D01*
X120755994Y-96984078D01*
X120757958Y-96949554D01*
X120762474Y-96926978D01*
X120770567Y-96911126D01*
X120783265Y-96896776D01*
X120814643Y-96874533D01*
X120847872Y-96871844D01*
X120879734Y-96891645D01*
G37*
X125585133Y-97480396D02*
X125583163Y-97513175D01*
X125580235Y-97536095D01*
X125576158Y-97551897D01*
X125570743Y-97563319D01*
X125563803Y-97573100D01*
X125540406Y-97602845D01*
X125374714Y-97602251D01*
X125339918Y-97601953D01*
X125241435Y-97598522D01*
X125160473Y-97590839D01*
X125093379Y-97578282D01*
X125036496Y-97560227D01*
X124986169Y-97536052D01*
X124982810Y-97534135D01*
X124924998Y-97497417D01*
X124882644Y-97460451D01*
X124849828Y-97416966D01*
X124820628Y-97360689D01*
X124816346Y-97351073D01*
X124793769Y-97287887D01*
X124788034Y-97242333D01*
X124937279Y-97242333D01*
X124942892Y-97267061D01*
X124948618Y-97282939D01*
X124981548Y-97342847D01*
X125028886Y-97388600D01*
X125092652Y-97421736D01*
X125174861Y-97443790D01*
X125177655Y-97444292D01*
X125223940Y-97450255D01*
X125280336Y-97454483D01*
X125335274Y-97456089D01*
X125429156Y-97456089D01*
X125429156Y-97015822D01*
X125341667Y-97016270D01*
X125274747Y-97018746D01*
X125182349Y-97029998D01*
X125103034Y-97049537D01*
X125041060Y-97076511D01*
X125010120Y-97097240D01*
X124982000Y-97127006D01*
X124958660Y-97169434D01*
X124951533Y-97185400D01*
X124939709Y-97217902D01*
X124937279Y-97242333D01*
X124788034Y-97242333D01*
X124786797Y-97232509D01*
X124795399Y-97177483D01*
X124819541Y-97115351D01*
X124820337Y-97113658D01*
X124860788Y-97044236D01*
X124911473Y-96987638D01*
X124974198Y-96943070D01*
X125050774Y-96909741D01*
X125143009Y-96886861D01*
X125252712Y-96873636D01*
X125381691Y-96869275D01*
X125385263Y-96869270D01*
X125445283Y-96869410D01*
X125487214Y-96870446D01*
X125515328Y-96873040D01*
X125533897Y-96877853D01*
X125547194Y-96885544D01*
X125559491Y-96896776D01*
X125587200Y-96924485D01*
X125587200Y-97233920D01*
X125587175Y-97295526D01*
X125586950Y-97374311D01*
X125586332Y-97435021D01*
X125585775Y-97456089D01*
X125585133Y-97480396D01*
G36*
X125585133Y-97480396D02*
G01*
X125583163Y-97513175D01*
X125580235Y-97536095D01*
X125576158Y-97551897D01*
X125570743Y-97563319D01*
X125563803Y-97573100D01*
X125540406Y-97602845D01*
X125374714Y-97602251D01*
X125339918Y-97601953D01*
X125241435Y-97598522D01*
X125160473Y-97590839D01*
X125093379Y-97578282D01*
X125036496Y-97560227D01*
X124986169Y-97536052D01*
X124982810Y-97534135D01*
X124924998Y-97497417D01*
X124882644Y-97460451D01*
X124849828Y-97416966D01*
X124820628Y-97360689D01*
X124816346Y-97351073D01*
X124793769Y-97287887D01*
X124788034Y-97242333D01*
X124937279Y-97242333D01*
X124942892Y-97267061D01*
X124948618Y-97282939D01*
X124981548Y-97342847D01*
X125028886Y-97388600D01*
X125092652Y-97421736D01*
X125174861Y-97443790D01*
X125177655Y-97444292D01*
X125223940Y-97450255D01*
X125280336Y-97454483D01*
X125335274Y-97456089D01*
X125429156Y-97456089D01*
X125429156Y-97015822D01*
X125341667Y-97016270D01*
X125274747Y-97018746D01*
X125182349Y-97029998D01*
X125103034Y-97049537D01*
X125041060Y-97076511D01*
X125010120Y-97097240D01*
X124982000Y-97127006D01*
X124958660Y-97169434D01*
X124951533Y-97185400D01*
X124939709Y-97217902D01*
X124937279Y-97242333D01*
X124788034Y-97242333D01*
X124786797Y-97232509D01*
X124795399Y-97177483D01*
X124819541Y-97115351D01*
X124820337Y-97113658D01*
X124860788Y-97044236D01*
X124911473Y-96987638D01*
X124974198Y-96943070D01*
X125050774Y-96909741D01*
X125143009Y-96886861D01*
X125252712Y-96873636D01*
X125381691Y-96869275D01*
X125385263Y-96869270D01*
X125445283Y-96869410D01*
X125487214Y-96870446D01*
X125515328Y-96873040D01*
X125533897Y-96877853D01*
X125547194Y-96885544D01*
X125559491Y-96896776D01*
X125587200Y-96924485D01*
X125587200Y-97233920D01*
X125587175Y-97295526D01*
X125586950Y-97374311D01*
X125586332Y-97435021D01*
X125585775Y-97456089D01*
X125585133Y-97480396D01*
G37*
X132676817Y-97054427D02*
X132676870Y-97135041D01*
X132676622Y-97235956D01*
X132676583Y-97311617D01*
X132676328Y-97389526D01*
X132675684Y-97449536D01*
X132674480Y-97494264D01*
X132672543Y-97526326D01*
X132669703Y-97548340D01*
X132665788Y-97562924D01*
X132660626Y-97572694D01*
X132654045Y-97580267D01*
X132647077Y-97586501D01*
X132634079Y-97593801D01*
X132614931Y-97598554D01*
X132585528Y-97601292D01*
X132541762Y-97602545D01*
X132479528Y-97602845D01*
X132430582Y-97602469D01*
X132323722Y-97598041D01*
X132234494Y-97587953D01*
X132159696Y-97571365D01*
X132096125Y-97547435D01*
X132040579Y-97515321D01*
X131989854Y-97474182D01*
X131983866Y-97468330D01*
X131946999Y-97419821D01*
X131915899Y-97359013D01*
X131894417Y-97294769D01*
X131889136Y-97256026D01*
X132036353Y-97256026D01*
X132054635Y-97306961D01*
X132084305Y-97352878D01*
X132131002Y-97395287D01*
X132192392Y-97425090D01*
X132271538Y-97444226D01*
X132273028Y-97444464D01*
X132321999Y-97450256D01*
X132380693Y-97454396D01*
X132436734Y-97456004D01*
X132529867Y-97456089D01*
X132529867Y-97015822D01*
X132453667Y-97015808D01*
X132450639Y-97015817D01*
X132399519Y-97017782D01*
X132339416Y-97022507D01*
X132282708Y-97029035D01*
X132232750Y-97038331D01*
X132157998Y-97064600D01*
X132100489Y-97103899D01*
X132058988Y-97156933D01*
X132037771Y-97208200D01*
X132036353Y-97256026D01*
X131889136Y-97256026D01*
X131886400Y-97235956D01*
X131887679Y-97214739D01*
X131899991Y-97157323D01*
X131922520Y-97097413D01*
X131951750Y-97043363D01*
X131984167Y-97003532D01*
X132003708Y-96986510D01*
X132058420Y-96947322D01*
X132118723Y-96917193D01*
X132187919Y-96895232D01*
X132269311Y-96880550D01*
X132366200Y-96872259D01*
X132481889Y-96869467D01*
X132521371Y-96869066D01*
X132567082Y-96868653D01*
X132602883Y-96870457D01*
X132629974Y-96876739D01*
X132649556Y-96889759D01*
X132662830Y-96911778D01*
X132670998Y-96945055D01*
X132675260Y-96991851D01*
X132675857Y-97015822D01*
X132676817Y-97054427D01*
G36*
X132676817Y-97054427D02*
G01*
X132676870Y-97135041D01*
X132676622Y-97235956D01*
X132676583Y-97311617D01*
X132676328Y-97389526D01*
X132675684Y-97449536D01*
X132674480Y-97494264D01*
X132672543Y-97526326D01*
X132669703Y-97548340D01*
X132665788Y-97562924D01*
X132660626Y-97572694D01*
X132654045Y-97580267D01*
X132647077Y-97586501D01*
X132634079Y-97593801D01*
X132614931Y-97598554D01*
X132585528Y-97601292D01*
X132541762Y-97602545D01*
X132479528Y-97602845D01*
X132430582Y-97602469D01*
X132323722Y-97598041D01*
X132234494Y-97587953D01*
X132159696Y-97571365D01*
X132096125Y-97547435D01*
X132040579Y-97515321D01*
X131989854Y-97474182D01*
X131983866Y-97468330D01*
X131946999Y-97419821D01*
X131915899Y-97359013D01*
X131894417Y-97294769D01*
X131889136Y-97256026D01*
X132036353Y-97256026D01*
X132054635Y-97306961D01*
X132084305Y-97352878D01*
X132131002Y-97395287D01*
X132192392Y-97425090D01*
X132271538Y-97444226D01*
X132273028Y-97444464D01*
X132321999Y-97450256D01*
X132380693Y-97454396D01*
X132436734Y-97456004D01*
X132529867Y-97456089D01*
X132529867Y-97015822D01*
X132453667Y-97015808D01*
X132450639Y-97015817D01*
X132399519Y-97017782D01*
X132339416Y-97022507D01*
X132282708Y-97029035D01*
X132232750Y-97038331D01*
X132157998Y-97064600D01*
X132100489Y-97103899D01*
X132058988Y-97156933D01*
X132037771Y-97208200D01*
X132036353Y-97256026D01*
X131889136Y-97256026D01*
X131886400Y-97235956D01*
X131887679Y-97214739D01*
X131899991Y-97157323D01*
X131922520Y-97097413D01*
X131951750Y-97043363D01*
X131984167Y-97003532D01*
X132003708Y-96986510D01*
X132058420Y-96947322D01*
X132118723Y-96917193D01*
X132187919Y-96895232D01*
X132269311Y-96880550D01*
X132366200Y-96872259D01*
X132481889Y-96869467D01*
X132521371Y-96869066D01*
X132567082Y-96868653D01*
X132602883Y-96870457D01*
X132629974Y-96876739D01*
X132649556Y-96889759D01*
X132662830Y-96911778D01*
X132670998Y-96945055D01*
X132675260Y-96991851D01*
X132675857Y-97015822D01*
X132676817Y-97054427D01*
G37*
X127731893Y-96867892D02*
X127743301Y-96874029D01*
X127753850Y-96884691D01*
X127765136Y-96898811D01*
X127769589Y-96904772D01*
X127775588Y-96915268D01*
X127780167Y-96929093D01*
X127783519Y-96948998D01*
X127785833Y-96977732D01*
X127787301Y-97018045D01*
X127788113Y-97072687D01*
X127788460Y-97144407D01*
X127788534Y-97235956D01*
X127788511Y-97294486D01*
X127788292Y-97373573D01*
X127787683Y-97434516D01*
X127786492Y-97480062D01*
X127784529Y-97512963D01*
X127781603Y-97535968D01*
X127777523Y-97551826D01*
X127772097Y-97563286D01*
X127765136Y-97573100D01*
X127734708Y-97597493D01*
X127699765Y-97600372D01*
X127662784Y-97581282D01*
X127658600Y-97577807D01*
X127650424Y-97569279D01*
X127644364Y-97557728D01*
X127639981Y-97539896D01*
X127636839Y-97512524D01*
X127634502Y-97472354D01*
X127632531Y-97416128D01*
X127630489Y-97340589D01*
X127624845Y-97121458D01*
X127359556Y-97362099D01*
X127285722Y-97428875D01*
X127220542Y-97486991D01*
X127168348Y-97531949D01*
X127127273Y-97564871D01*
X127095455Y-97586879D01*
X127071026Y-97599094D01*
X127052124Y-97602639D01*
X127036883Y-97598636D01*
X127023439Y-97588207D01*
X127009927Y-97572474D01*
X127003682Y-97563991D01*
X126998050Y-97553413D01*
X126993839Y-97539255D01*
X126990887Y-97518803D01*
X126989032Y-97489342D01*
X126988113Y-97448161D01*
X126987968Y-97392544D01*
X126988435Y-97319779D01*
X126989352Y-97227151D01*
X126992667Y-96912199D01*
X127019318Y-96890633D01*
X127045383Y-96874441D01*
X127078241Y-96871670D01*
X127112772Y-96890623D01*
X127117084Y-96894208D01*
X127125216Y-96902737D01*
X127131245Y-96914329D01*
X127135606Y-96932235D01*
X127138734Y-96959706D01*
X127141063Y-96999994D01*
X127143029Y-97056351D01*
X127145067Y-97132029D01*
X127150711Y-97351878D01*
X127331334Y-97188084D01*
X127418072Y-97109451D01*
X127493843Y-97041058D01*
X127555980Y-96985708D01*
X127606078Y-96942338D01*
X127645735Y-96909881D01*
X127676548Y-96887273D01*
X127700114Y-96873448D01*
X127718030Y-96867343D01*
X127731893Y-96867892D01*
G36*
X127731893Y-96867892D02*
G01*
X127743301Y-96874029D01*
X127753850Y-96884691D01*
X127765136Y-96898811D01*
X127769589Y-96904772D01*
X127775588Y-96915268D01*
X127780167Y-96929093D01*
X127783519Y-96948998D01*
X127785833Y-96977732D01*
X127787301Y-97018045D01*
X127788113Y-97072687D01*
X127788460Y-97144407D01*
X127788534Y-97235956D01*
X127788511Y-97294486D01*
X127788292Y-97373573D01*
X127787683Y-97434516D01*
X127786492Y-97480062D01*
X127784529Y-97512963D01*
X127781603Y-97535968D01*
X127777523Y-97551826D01*
X127772097Y-97563286D01*
X127765136Y-97573100D01*
X127734708Y-97597493D01*
X127699765Y-97600372D01*
X127662784Y-97581282D01*
X127658600Y-97577807D01*
X127650424Y-97569279D01*
X127644364Y-97557728D01*
X127639981Y-97539896D01*
X127636839Y-97512524D01*
X127634502Y-97472354D01*
X127632531Y-97416128D01*
X127630489Y-97340589D01*
X127624845Y-97121458D01*
X127359556Y-97362099D01*
X127285722Y-97428875D01*
X127220542Y-97486991D01*
X127168348Y-97531949D01*
X127127273Y-97564871D01*
X127095455Y-97586879D01*
X127071026Y-97599094D01*
X127052124Y-97602639D01*
X127036883Y-97598636D01*
X127023439Y-97588207D01*
X127009927Y-97572474D01*
X127003682Y-97563991D01*
X126998050Y-97553413D01*
X126993839Y-97539255D01*
X126990887Y-97518803D01*
X126989032Y-97489342D01*
X126988113Y-97448161D01*
X126987968Y-97392544D01*
X126988435Y-97319779D01*
X126989352Y-97227151D01*
X126992667Y-96912199D01*
X127019318Y-96890633D01*
X127045383Y-96874441D01*
X127078241Y-96871670D01*
X127112772Y-96890623D01*
X127117084Y-96894208D01*
X127125216Y-96902737D01*
X127131245Y-96914329D01*
X127135606Y-96932235D01*
X127138734Y-96959706D01*
X127141063Y-96999994D01*
X127143029Y-97056351D01*
X127145067Y-97132029D01*
X127150711Y-97351878D01*
X127331334Y-97188084D01*
X127418072Y-97109451D01*
X127493843Y-97041058D01*
X127555980Y-96985708D01*
X127606078Y-96942338D01*
X127645735Y-96909881D01*
X127676548Y-96887273D01*
X127700114Y-96873448D01*
X127718030Y-96867343D01*
X127731893Y-96867892D01*
G37*
X128529150Y-96874179D02*
X128635157Y-96890494D01*
X128728969Y-96918545D01*
X128807765Y-96957452D01*
X128868719Y-97006334D01*
X128894789Y-97039195D01*
X128924297Y-97088394D01*
X128949568Y-97142252D01*
X128967218Y-97193419D01*
X128973858Y-97234544D01*
X128972298Y-97254259D01*
X128959357Y-97305592D01*
X128936194Y-97362118D01*
X128906302Y-97416035D01*
X128873173Y-97459539D01*
X128862977Y-97469887D01*
X128795892Y-97521662D01*
X128715766Y-97561554D01*
X128629556Y-97585956D01*
X128574592Y-97594068D01*
X128481139Y-97600673D01*
X128391358Y-97598586D01*
X128308869Y-97588340D01*
X128237286Y-97570470D01*
X128180228Y-97545508D01*
X128141311Y-97513988D01*
X128139936Y-97512012D01*
X128132848Y-97486786D01*
X128128609Y-97439535D01*
X128127200Y-97370071D01*
X128128060Y-97307838D01*
X128132780Y-97260456D01*
X128144470Y-97228353D01*
X128166239Y-97208800D01*
X128201198Y-97199070D01*
X128252456Y-97196433D01*
X128323123Y-97198161D01*
X128371743Y-97201173D01*
X128421939Y-97209366D01*
X128454433Y-97223419D01*
X128471892Y-97244654D01*
X128476983Y-97274394D01*
X128476877Y-97278936D01*
X128468175Y-97313730D01*
X128444165Y-97337147D01*
X128402900Y-97350347D01*
X128342431Y-97354489D01*
X128273956Y-97354489D01*
X128273956Y-97392841D01*
X128274006Y-97401976D01*
X128276227Y-97419227D01*
X128285494Y-97429521D01*
X128306875Y-97436459D01*
X128345436Y-97443641D01*
X128350910Y-97444575D01*
X128447860Y-97454478D01*
X128537852Y-97451559D01*
X128618760Y-97436829D01*
X128688459Y-97411299D01*
X128744824Y-97375978D01*
X128785729Y-97331879D01*
X128809051Y-97280012D01*
X128812663Y-97221388D01*
X128807145Y-97192494D01*
X128780461Y-97136604D01*
X128734273Y-97090945D01*
X128669291Y-97056108D01*
X128586229Y-97032690D01*
X128561555Y-97028241D01*
X128472226Y-97017742D01*
X128392419Y-97018971D01*
X128314326Y-97031906D01*
X128279183Y-97038696D01*
X128233745Y-97039713D01*
X128202430Y-97027182D01*
X128182277Y-97000395D01*
X128175893Y-96972148D01*
X128185379Y-96940924D01*
X128194708Y-96927499D01*
X128228943Y-96903967D01*
X128281565Y-96886095D01*
X128350081Y-96874599D01*
X128432000Y-96870192D01*
X128529150Y-96874179D01*
G36*
X128529150Y-96874179D02*
G01*
X128635157Y-96890494D01*
X128728969Y-96918545D01*
X128807765Y-96957452D01*
X128868719Y-97006334D01*
X128894789Y-97039195D01*
X128924297Y-97088394D01*
X128949568Y-97142252D01*
X128967218Y-97193419D01*
X128973858Y-97234544D01*
X128972298Y-97254259D01*
X128959357Y-97305592D01*
X128936194Y-97362118D01*
X128906302Y-97416035D01*
X128873173Y-97459539D01*
X128862977Y-97469887D01*
X128795892Y-97521662D01*
X128715766Y-97561554D01*
X128629556Y-97585956D01*
X128574592Y-97594068D01*
X128481139Y-97600673D01*
X128391358Y-97598586D01*
X128308869Y-97588340D01*
X128237286Y-97570470D01*
X128180228Y-97545508D01*
X128141311Y-97513988D01*
X128139936Y-97512012D01*
X128132848Y-97486786D01*
X128128609Y-97439535D01*
X128127200Y-97370071D01*
X128128060Y-97307838D01*
X128132780Y-97260456D01*
X128144470Y-97228353D01*
X128166239Y-97208800D01*
X128201198Y-97199070D01*
X128252456Y-97196433D01*
X128323123Y-97198161D01*
X128371743Y-97201173D01*
X128421939Y-97209366D01*
X128454433Y-97223419D01*
X128471892Y-97244654D01*
X128476983Y-97274394D01*
X128476877Y-97278936D01*
X128468175Y-97313730D01*
X128444165Y-97337147D01*
X128402900Y-97350347D01*
X128342431Y-97354489D01*
X128273956Y-97354489D01*
X128273956Y-97392841D01*
X128274006Y-97401976D01*
X128276227Y-97419227D01*
X128285494Y-97429521D01*
X128306875Y-97436459D01*
X128345436Y-97443641D01*
X128350910Y-97444575D01*
X128447860Y-97454478D01*
X128537852Y-97451559D01*
X128618760Y-97436829D01*
X128688459Y-97411299D01*
X128744824Y-97375978D01*
X128785729Y-97331879D01*
X128809051Y-97280012D01*
X128812663Y-97221388D01*
X128807145Y-97192494D01*
X128780461Y-97136604D01*
X128734273Y-97090945D01*
X128669291Y-97056108D01*
X128586229Y-97032690D01*
X128561555Y-97028241D01*
X128472226Y-97017742D01*
X128392419Y-97018971D01*
X128314326Y-97031906D01*
X128279183Y-97038696D01*
X128233745Y-97039713D01*
X128202430Y-97027182D01*
X128182277Y-97000395D01*
X128175893Y-96972148D01*
X128185379Y-96940924D01*
X128194708Y-96927499D01*
X128228943Y-96903967D01*
X128281565Y-96886095D01*
X128350081Y-96874599D01*
X128432000Y-96870192D01*
X128529150Y-96874179D01*
G37*
X126579803Y-96898811D02*
X126584752Y-96905495D01*
X126590596Y-96916066D01*
X126595057Y-96930153D01*
X126598321Y-96950478D01*
X126600574Y-96979765D01*
X126602002Y-97020737D01*
X126602792Y-97076117D01*
X126603129Y-97148628D01*
X126603200Y-97240994D01*
X126603171Y-97306911D01*
X126602939Y-97385228D01*
X126602319Y-97445496D01*
X126601126Y-97490393D01*
X126599179Y-97522602D01*
X126596294Y-97544800D01*
X126592288Y-97559669D01*
X126586979Y-97569889D01*
X126580183Y-97578138D01*
X126575668Y-97582795D01*
X126567438Y-97589282D01*
X126556078Y-97594194D01*
X126538810Y-97597749D01*
X126512855Y-97600167D01*
X126475436Y-97601667D01*
X126423773Y-97602467D01*
X126355089Y-97602787D01*
X126266606Y-97602845D01*
X126246931Y-97602838D01*
X126159906Y-97602572D01*
X126092254Y-97601806D01*
X126041299Y-97600392D01*
X126004367Y-97598180D01*
X125978783Y-97595022D01*
X125961871Y-97590769D01*
X125950957Y-97585271D01*
X125940464Y-97575285D01*
X125927203Y-97544168D01*
X125928386Y-97508280D01*
X125944550Y-97476733D01*
X125946739Y-97474457D01*
X125955427Y-97468189D01*
X125968769Y-97463523D01*
X125989752Y-97460227D01*
X126021363Y-97458068D01*
X126066590Y-97456814D01*
X126128420Y-97456231D01*
X126209839Y-97456089D01*
X126456445Y-97456089D01*
X126456445Y-97298045D01*
X126294006Y-97298045D01*
X126258338Y-97297964D01*
X126202568Y-97297167D01*
X126163430Y-97295162D01*
X126136976Y-97291521D01*
X126119259Y-97285812D01*
X126106329Y-97277607D01*
X126102686Y-97274423D01*
X126084278Y-97243448D01*
X126083644Y-97207112D01*
X126101183Y-97173493D01*
X126101245Y-97173424D01*
X126110916Y-97164798D01*
X126124209Y-97158742D01*
X126144917Y-97154811D01*
X126176828Y-97152556D01*
X126223734Y-97151531D01*
X126289424Y-97151289D01*
X126457571Y-97151289D01*
X126454186Y-97086378D01*
X126450800Y-97021467D01*
X126208723Y-97018414D01*
X126183707Y-97018086D01*
X126102087Y-97016606D01*
X126039768Y-97014222D01*
X125994154Y-97010227D01*
X125962652Y-97003913D01*
X125942667Y-96994574D01*
X125931604Y-96981503D01*
X125926869Y-96963992D01*
X125925867Y-96941335D01*
X125925873Y-96938970D01*
X125927027Y-96918939D01*
X125931824Y-96903146D01*
X125942632Y-96891090D01*
X125961817Y-96882267D01*
X125991745Y-96876175D01*
X126034783Y-96872311D01*
X126093299Y-96870174D01*
X126169657Y-96869260D01*
X126266226Y-96869067D01*
X126556406Y-96869067D01*
X126579803Y-96898811D01*
G36*
X126579803Y-96898811D02*
G01*
X126584752Y-96905495D01*
X126590596Y-96916066D01*
X126595057Y-96930153D01*
X126598321Y-96950478D01*
X126600574Y-96979765D01*
X126602002Y-97020737D01*
X126602792Y-97076117D01*
X126603129Y-97148628D01*
X126603200Y-97240994D01*
X126603171Y-97306911D01*
X126602939Y-97385228D01*
X126602319Y-97445496D01*
X126601126Y-97490393D01*
X126599179Y-97522602D01*
X126596294Y-97544800D01*
X126592288Y-97559669D01*
X126586979Y-97569889D01*
X126580183Y-97578138D01*
X126575668Y-97582795D01*
X126567438Y-97589282D01*
X126556078Y-97594194D01*
X126538810Y-97597749D01*
X126512855Y-97600167D01*
X126475436Y-97601667D01*
X126423773Y-97602467D01*
X126355089Y-97602787D01*
X126266606Y-97602845D01*
X126246931Y-97602838D01*
X126159906Y-97602572D01*
X126092254Y-97601806D01*
X126041299Y-97600392D01*
X126004367Y-97598180D01*
X125978783Y-97595022D01*
X125961871Y-97590769D01*
X125950957Y-97585271D01*
X125940464Y-97575285D01*
X125927203Y-97544168D01*
X125928386Y-97508280D01*
X125944550Y-97476733D01*
X125946739Y-97474457D01*
X125955427Y-97468189D01*
X125968769Y-97463523D01*
X125989752Y-97460227D01*
X126021363Y-97458068D01*
X126066590Y-97456814D01*
X126128420Y-97456231D01*
X126209839Y-97456089D01*
X126456445Y-97456089D01*
X126456445Y-97298045D01*
X126294006Y-97298045D01*
X126258338Y-97297964D01*
X126202568Y-97297167D01*
X126163430Y-97295162D01*
X126136976Y-97291521D01*
X126119259Y-97285812D01*
X126106329Y-97277607D01*
X126102686Y-97274423D01*
X126084278Y-97243448D01*
X126083644Y-97207112D01*
X126101183Y-97173493D01*
X126101245Y-97173424D01*
X126110916Y-97164798D01*
X126124209Y-97158742D01*
X126144917Y-97154811D01*
X126176828Y-97152556D01*
X126223734Y-97151531D01*
X126289424Y-97151289D01*
X126457571Y-97151289D01*
X126454186Y-97086378D01*
X126450800Y-97021467D01*
X126208723Y-97018414D01*
X126183707Y-97018086D01*
X126102087Y-97016606D01*
X126039768Y-97014222D01*
X125994154Y-97010227D01*
X125962652Y-97003913D01*
X125942667Y-96994574D01*
X125931604Y-96981503D01*
X125926869Y-96963992D01*
X125925867Y-96941335D01*
X125925873Y-96938970D01*
X125927027Y-96918939D01*
X125931824Y-96903146D01*
X125942632Y-96891090D01*
X125961817Y-96882267D01*
X125991745Y-96876175D01*
X126034783Y-96872311D01*
X126093299Y-96870174D01*
X126169657Y-96869260D01*
X126266226Y-96869067D01*
X126556406Y-96869067D01*
X126579803Y-96898811D01*
G37*
X131256734Y-96869083D02*
X131333831Y-96869275D01*
X131392777Y-96869860D01*
X131436364Y-96871051D01*
X131467383Y-96873064D01*
X131488625Y-96876112D01*
X131502882Y-96880409D01*
X131512945Y-96886172D01*
X131521606Y-96893612D01*
X131523391Y-96895293D01*
X131530635Y-96902832D01*
X131536277Y-96911850D01*
X131540517Y-96924984D01*
X131543556Y-96944872D01*
X131545594Y-96974151D01*
X131546830Y-97015458D01*
X131547465Y-97071431D01*
X131547700Y-97144707D01*
X131547734Y-97237923D01*
X131547697Y-97310713D01*
X131547448Y-97388889D01*
X131546812Y-97449103D01*
X131545615Y-97493982D01*
X131543684Y-97526152D01*
X131540846Y-97548239D01*
X131536927Y-97562870D01*
X131531755Y-97572670D01*
X131525156Y-97580267D01*
X131521822Y-97583444D01*
X131513300Y-97589554D01*
X131501298Y-97594229D01*
X131483087Y-97597659D01*
X131455940Y-97600036D01*
X131417129Y-97601552D01*
X131363924Y-97602398D01*
X131293598Y-97602765D01*
X131203422Y-97602845D01*
X131161314Y-97602833D01*
X131080167Y-97602651D01*
X131017675Y-97602098D01*
X130971109Y-97600982D01*
X130937741Y-97599113D01*
X130914844Y-97596298D01*
X130899688Y-97592346D01*
X130889546Y-97587066D01*
X130881689Y-97580267D01*
X130866963Y-97558667D01*
X130859111Y-97529467D01*
X130864610Y-97505560D01*
X130881689Y-97478667D01*
X130886668Y-97474059D01*
X130896443Y-97467772D01*
X130910559Y-97463146D01*
X130932054Y-97459930D01*
X130963968Y-97457870D01*
X131009342Y-97456712D01*
X131071213Y-97456202D01*
X131152622Y-97456089D01*
X131400978Y-97456089D01*
X131400978Y-97298045D01*
X131239801Y-97298045D01*
X131203983Y-97297899D01*
X131138359Y-97296176D01*
X131091118Y-97291741D01*
X131059383Y-97283637D01*
X131040277Y-97270906D01*
X131030923Y-97252592D01*
X131028445Y-97227738D01*
X131029242Y-97207482D01*
X131034494Y-97185656D01*
X131047288Y-97170304D01*
X131070628Y-97160309D01*
X131107517Y-97154553D01*
X131160959Y-97151919D01*
X131233958Y-97151289D01*
X131402105Y-97151289D01*
X131398719Y-97086378D01*
X131395334Y-97021467D01*
X131147617Y-97018418D01*
X131085026Y-97017539D01*
X131016565Y-97016095D01*
X130965661Y-97014164D01*
X130929408Y-97011514D01*
X130904901Y-97007910D01*
X130889235Y-97003121D01*
X130879506Y-96996913D01*
X130873491Y-96990510D01*
X130860482Y-96958828D01*
X130864043Y-96923142D01*
X130883818Y-96892084D01*
X130887069Y-96889161D01*
X130896049Y-96882810D01*
X130908153Y-96877957D01*
X130926159Y-96874403D01*
X130952847Y-96871946D01*
X130990997Y-96870385D01*
X131043386Y-96869518D01*
X131112794Y-96869146D01*
X131202001Y-96869067D01*
X131256734Y-96869083D01*
G36*
X131256734Y-96869083D02*
G01*
X131333831Y-96869275D01*
X131392777Y-96869860D01*
X131436364Y-96871051D01*
X131467383Y-96873064D01*
X131488625Y-96876112D01*
X131502882Y-96880409D01*
X131512945Y-96886172D01*
X131521606Y-96893612D01*
X131523391Y-96895293D01*
X131530635Y-96902832D01*
X131536277Y-96911850D01*
X131540517Y-96924984D01*
X131543556Y-96944872D01*
X131545594Y-96974151D01*
X131546830Y-97015458D01*
X131547465Y-97071431D01*
X131547700Y-97144707D01*
X131547734Y-97237923D01*
X131547697Y-97310713D01*
X131547448Y-97388889D01*
X131546812Y-97449103D01*
X131545615Y-97493982D01*
X131543684Y-97526152D01*
X131540846Y-97548239D01*
X131536927Y-97562870D01*
X131531755Y-97572670D01*
X131525156Y-97580267D01*
X131521822Y-97583444D01*
X131513300Y-97589554D01*
X131501298Y-97594229D01*
X131483087Y-97597659D01*
X131455940Y-97600036D01*
X131417129Y-97601552D01*
X131363924Y-97602398D01*
X131293598Y-97602765D01*
X131203422Y-97602845D01*
X131161314Y-97602833D01*
X131080167Y-97602651D01*
X131017675Y-97602098D01*
X130971109Y-97600982D01*
X130937741Y-97599113D01*
X130914844Y-97596298D01*
X130899688Y-97592346D01*
X130889546Y-97587066D01*
X130881689Y-97580267D01*
X130866963Y-97558667D01*
X130859111Y-97529467D01*
X130864610Y-97505560D01*
X130881689Y-97478667D01*
X130886668Y-97474059D01*
X130896443Y-97467772D01*
X130910559Y-97463146D01*
X130932054Y-97459930D01*
X130963968Y-97457870D01*
X131009342Y-97456712D01*
X131071213Y-97456202D01*
X131152622Y-97456089D01*
X131400978Y-97456089D01*
X131400978Y-97298045D01*
X131239801Y-97298045D01*
X131203983Y-97297899D01*
X131138359Y-97296176D01*
X131091118Y-97291741D01*
X131059383Y-97283637D01*
X131040277Y-97270906D01*
X131030923Y-97252592D01*
X131028445Y-97227738D01*
X131029242Y-97207482D01*
X131034494Y-97185656D01*
X131047288Y-97170304D01*
X131070628Y-97160309D01*
X131107517Y-97154553D01*
X131160959Y-97151919D01*
X131233958Y-97151289D01*
X131402105Y-97151289D01*
X131398719Y-97086378D01*
X131395334Y-97021467D01*
X131147617Y-97018418D01*
X131085026Y-97017539D01*
X131016565Y-97016095D01*
X130965661Y-97014164D01*
X130929408Y-97011514D01*
X130904901Y-97007910D01*
X130889235Y-97003121D01*
X130879506Y-96996913D01*
X130873491Y-96990510D01*
X130860482Y-96958828D01*
X130864043Y-96923142D01*
X130883818Y-96892084D01*
X130887069Y-96889161D01*
X130896049Y-96882810D01*
X130908153Y-96877957D01*
X130926159Y-96874403D01*
X130952847Y-96871946D01*
X130990997Y-96870385D01*
X131043386Y-96869518D01*
X131112794Y-96869146D01*
X131202001Y-96869067D01*
X131256734Y-96869083D01*
G37*
X122689702Y-96878478D02*
X122707663Y-96896989D01*
X122728263Y-96928071D01*
X122753095Y-96973756D01*
X122783750Y-97036078D01*
X122821820Y-97117071D01*
X122836454Y-97148454D01*
X122866203Y-97211638D01*
X122892297Y-97266244D01*
X122913292Y-97309290D01*
X122927739Y-97337793D01*
X122934191Y-97348770D01*
X122935550Y-97348189D01*
X122945542Y-97334242D01*
X122962833Y-97304704D01*
X122985430Y-97263087D01*
X123011338Y-97212903D01*
X123027311Y-97181414D01*
X123056261Y-97126061D01*
X123078749Y-97087044D01*
X123096965Y-97061566D01*
X123113096Y-97046831D01*
X123129330Y-97040042D01*
X123147857Y-97038400D01*
X123158360Y-97038875D01*
X123174476Y-97043082D01*
X123189790Y-97053946D01*
X123206388Y-97074219D01*
X123226357Y-97106654D01*
X123251783Y-97154004D01*
X123284752Y-97219022D01*
X123294485Y-97238277D01*
X123318943Y-97284946D01*
X123339178Y-97321109D01*
X123353311Y-97343497D01*
X123359460Y-97348845D01*
X123360827Y-97345573D01*
X123370202Y-97324664D01*
X123387062Y-97287725D01*
X123409979Y-97237874D01*
X123437520Y-97178226D01*
X123468255Y-97111898D01*
X123494970Y-97054677D01*
X123524593Y-96992688D01*
X123547664Y-96946949D01*
X123565643Y-96914908D01*
X123579990Y-96894014D01*
X123592166Y-96881718D01*
X123603632Y-96875466D01*
X123613042Y-96872574D01*
X123638147Y-96872425D01*
X123665290Y-96887768D01*
X123666590Y-96888753D01*
X123688674Y-96911388D01*
X123699723Y-96933613D01*
X123699769Y-96934253D01*
X123695228Y-96951915D01*
X123682364Y-96986481D01*
X123662605Y-97034826D01*
X123637381Y-97093825D01*
X123608119Y-97160355D01*
X123576250Y-97231291D01*
X123543201Y-97303507D01*
X123510401Y-97373880D01*
X123479280Y-97439285D01*
X123451265Y-97496597D01*
X123427786Y-97542692D01*
X123410272Y-97574446D01*
X123400151Y-97588733D01*
X123365743Y-97602102D01*
X123324046Y-97595741D01*
X123318681Y-97591044D01*
X123302852Y-97568893D01*
X123280650Y-97532132D01*
X123254233Y-97484415D01*
X123225760Y-97429393D01*
X123145986Y-97270150D01*
X123072799Y-97416742D01*
X123063103Y-97436032D01*
X123036125Y-97488380D01*
X123012096Y-97533170D01*
X122993332Y-97566154D01*
X122982146Y-97583089D01*
X122981000Y-97584332D01*
X122952879Y-97599619D01*
X122917817Y-97601302D01*
X122886776Y-97588733D01*
X122884350Y-97585884D01*
X122872090Y-97565259D01*
X122852352Y-97527708D01*
X122826448Y-97475880D01*
X122795685Y-97412423D01*
X122761375Y-97339985D01*
X122724825Y-97261216D01*
X122704585Y-97217093D01*
X122667812Y-97136365D01*
X122639355Y-97072687D01*
X122618331Y-97023752D01*
X122603854Y-96987257D01*
X122595039Y-96960895D01*
X122591004Y-96942361D01*
X122590862Y-96929352D01*
X122593730Y-96919561D01*
X122608387Y-96898678D01*
X122634990Y-96878377D01*
X122635745Y-96878035D01*
X122655335Y-96871034D01*
X122672790Y-96870504D01*
X122689702Y-96878478D01*
G36*
X122689702Y-96878478D02*
G01*
X122707663Y-96896989D01*
X122728263Y-96928071D01*
X122753095Y-96973756D01*
X122783750Y-97036078D01*
X122821820Y-97117071D01*
X122836454Y-97148454D01*
X122866203Y-97211638D01*
X122892297Y-97266244D01*
X122913292Y-97309290D01*
X122927739Y-97337793D01*
X122934191Y-97348770D01*
X122935550Y-97348189D01*
X122945542Y-97334242D01*
X122962833Y-97304704D01*
X122985430Y-97263087D01*
X123011338Y-97212903D01*
X123027311Y-97181414D01*
X123056261Y-97126061D01*
X123078749Y-97087044D01*
X123096965Y-97061566D01*
X123113096Y-97046831D01*
X123129330Y-97040042D01*
X123147857Y-97038400D01*
X123158360Y-97038875D01*
X123174476Y-97043082D01*
X123189790Y-97053946D01*
X123206388Y-97074219D01*
X123226357Y-97106654D01*
X123251783Y-97154004D01*
X123284752Y-97219022D01*
X123294485Y-97238277D01*
X123318943Y-97284946D01*
X123339178Y-97321109D01*
X123353311Y-97343497D01*
X123359460Y-97348845D01*
X123360827Y-97345573D01*
X123370202Y-97324664D01*
X123387062Y-97287725D01*
X123409979Y-97237874D01*
X123437520Y-97178226D01*
X123468255Y-97111898D01*
X123494970Y-97054677D01*
X123524593Y-96992688D01*
X123547664Y-96946949D01*
X123565643Y-96914908D01*
X123579990Y-96894014D01*
X123592166Y-96881718D01*
X123603632Y-96875466D01*
X123613042Y-96872574D01*
X123638147Y-96872425D01*
X123665290Y-96887768D01*
X123666590Y-96888753D01*
X123688674Y-96911388D01*
X123699723Y-96933613D01*
X123699769Y-96934253D01*
X123695228Y-96951915D01*
X123682364Y-96986481D01*
X123662605Y-97034826D01*
X123637381Y-97093825D01*
X123608119Y-97160355D01*
X123576250Y-97231291D01*
X123543201Y-97303507D01*
X123510401Y-97373880D01*
X123479280Y-97439285D01*
X123451265Y-97496597D01*
X123427786Y-97542692D01*
X123410272Y-97574446D01*
X123400151Y-97588733D01*
X123365743Y-97602102D01*
X123324046Y-97595741D01*
X123318681Y-97591044D01*
X123302852Y-97568893D01*
X123280650Y-97532132D01*
X123254233Y-97484415D01*
X123225760Y-97429393D01*
X123145986Y-97270150D01*
X123072799Y-97416742D01*
X123063103Y-97436032D01*
X123036125Y-97488380D01*
X123012096Y-97533170D01*
X122993332Y-97566154D01*
X122982146Y-97583089D01*
X122981000Y-97584332D01*
X122952879Y-97599619D01*
X122917817Y-97601302D01*
X122886776Y-97588733D01*
X122884350Y-97585884D01*
X122872090Y-97565259D01*
X122852352Y-97527708D01*
X122826448Y-97475880D01*
X122795685Y-97412423D01*
X122761375Y-97339985D01*
X122724825Y-97261216D01*
X122704585Y-97217093D01*
X122667812Y-97136365D01*
X122639355Y-97072687D01*
X122618331Y-97023752D01*
X122603854Y-96987257D01*
X122595039Y-96960895D01*
X122591004Y-96942361D01*
X122590862Y-96929352D01*
X122593730Y-96919561D01*
X122608387Y-96898678D01*
X122634990Y-96878377D01*
X122635745Y-96878035D01*
X122655335Y-96871034D01*
X122672790Y-96870504D01*
X122689702Y-96878478D01*
G37*
X130240853Y-96869936D02*
X130307100Y-96875366D01*
X130362400Y-96884964D01*
X130413283Y-96899825D01*
X130484595Y-96932958D01*
X130535752Y-96975640D01*
X130566575Y-97027705D01*
X130576889Y-97088983D01*
X130575952Y-97120232D01*
X130570160Y-97145029D01*
X130555353Y-97166699D01*
X130527380Y-97194049D01*
X130519402Y-97201378D01*
X130495692Y-97222281D01*
X130473298Y-97239251D01*
X130449265Y-97253205D01*
X130420637Y-97265056D01*
X130384460Y-97275720D01*
X130337780Y-97286111D01*
X130277641Y-97297146D01*
X130201090Y-97309738D01*
X130105171Y-97324804D01*
X130086808Y-97327838D01*
X130024478Y-97341458D01*
X129979260Y-97357192D01*
X129952976Y-97374263D01*
X129947447Y-97391897D01*
X129950068Y-97396168D01*
X129968000Y-97411233D01*
X129996126Y-97427867D01*
X130008926Y-97433857D01*
X130030224Y-97441050D01*
X130056610Y-97445827D01*
X130092454Y-97448646D01*
X130142128Y-97449964D01*
X130210000Y-97450237D01*
X130227785Y-97450164D01*
X130295406Y-97449053D01*
X130360345Y-97446828D01*
X130415970Y-97443762D01*
X130455651Y-97440127D01*
X130491162Y-97436059D01*
X130520415Y-97435276D01*
X130539315Y-97439876D01*
X130554429Y-97450551D01*
X130558085Y-97454144D01*
X130574427Y-97485918D01*
X130573107Y-97521572D01*
X130554150Y-97552190D01*
X130533780Y-97563796D01*
X130497796Y-97576491D01*
X130455372Y-97586541D01*
X130451922Y-97587140D01*
X130409252Y-97592356D01*
X130351866Y-97596730D01*
X130286849Y-97599818D01*
X130221289Y-97601177D01*
X130205057Y-97601218D01*
X130106744Y-97598741D01*
X130026692Y-97590735D01*
X129961513Y-97576203D01*
X129907817Y-97554149D01*
X129862216Y-97523576D01*
X129821323Y-97483486D01*
X129801202Y-97457259D01*
X129789576Y-97427712D01*
X129786667Y-97387995D01*
X129786808Y-97376026D01*
X129790681Y-97343345D01*
X129803065Y-97316819D01*
X129828230Y-97285971D01*
X129849442Y-97263831D01*
X129875838Y-97241285D01*
X129905555Y-97222917D01*
X129941785Y-97207661D01*
X129987717Y-97194449D01*
X130046544Y-97182214D01*
X130121456Y-97169889D01*
X130215645Y-97156406D01*
X130260957Y-97149396D01*
X130328911Y-97134837D01*
X130378047Y-97118337D01*
X130407614Y-97100439D01*
X130416864Y-97081685D01*
X130405048Y-97062615D01*
X130371416Y-97043771D01*
X130368370Y-97042557D01*
X130322011Y-97030479D01*
X130259361Y-97022279D01*
X130185927Y-97018119D01*
X130107217Y-97018161D01*
X130028739Y-97022569D01*
X129956000Y-97031505D01*
X129952073Y-97032154D01*
X129903257Y-97039861D01*
X129871005Y-97043473D01*
X129850008Y-97042876D01*
X129834954Y-97037954D01*
X129820534Y-97028596D01*
X129819364Y-97027725D01*
X129794847Y-96997351D01*
X129790054Y-96961850D01*
X129805860Y-96927269D01*
X129810406Y-96922813D01*
X129840020Y-96907673D01*
X129887002Y-96894550D01*
X129947306Y-96883750D01*
X130016888Y-96875581D01*
X130091703Y-96870351D01*
X130167706Y-96868367D01*
X130240853Y-96869936D01*
G36*
X130240853Y-96869936D02*
G01*
X130307100Y-96875366D01*
X130362400Y-96884964D01*
X130413283Y-96899825D01*
X130484595Y-96932958D01*
X130535752Y-96975640D01*
X130566575Y-97027705D01*
X130576889Y-97088983D01*
X130575952Y-97120232D01*
X130570160Y-97145029D01*
X130555353Y-97166699D01*
X130527380Y-97194049D01*
X130519402Y-97201378D01*
X130495692Y-97222281D01*
X130473298Y-97239251D01*
X130449265Y-97253205D01*
X130420637Y-97265056D01*
X130384460Y-97275720D01*
X130337780Y-97286111D01*
X130277641Y-97297146D01*
X130201090Y-97309738D01*
X130105171Y-97324804D01*
X130086808Y-97327838D01*
X130024478Y-97341458D01*
X129979260Y-97357192D01*
X129952976Y-97374263D01*
X129947447Y-97391897D01*
X129950068Y-97396168D01*
X129968000Y-97411233D01*
X129996126Y-97427867D01*
X130008926Y-97433857D01*
X130030224Y-97441050D01*
X130056610Y-97445827D01*
X130092454Y-97448646D01*
X130142128Y-97449964D01*
X130210000Y-97450237D01*
X130227785Y-97450164D01*
X130295406Y-97449053D01*
X130360345Y-97446828D01*
X130415970Y-97443762D01*
X130455651Y-97440127D01*
X130491162Y-97436059D01*
X130520415Y-97435276D01*
X130539315Y-97439876D01*
X130554429Y-97450551D01*
X130558085Y-97454144D01*
X130574427Y-97485918D01*
X130573107Y-97521572D01*
X130554150Y-97552190D01*
X130533780Y-97563796D01*
X130497796Y-97576491D01*
X130455372Y-97586541D01*
X130451922Y-97587140D01*
X130409252Y-97592356D01*
X130351866Y-97596730D01*
X130286849Y-97599818D01*
X130221289Y-97601177D01*
X130205057Y-97601218D01*
X130106744Y-97598741D01*
X130026692Y-97590735D01*
X129961513Y-97576203D01*
X129907817Y-97554149D01*
X129862216Y-97523576D01*
X129821323Y-97483486D01*
X129801202Y-97457259D01*
X129789576Y-97427712D01*
X129786667Y-97387995D01*
X129786808Y-97376026D01*
X129790681Y-97343345D01*
X129803065Y-97316819D01*
X129828230Y-97285971D01*
X129849442Y-97263831D01*
X129875838Y-97241285D01*
X129905555Y-97222917D01*
X129941785Y-97207661D01*
X129987717Y-97194449D01*
X130046544Y-97182214D01*
X130121456Y-97169889D01*
X130215645Y-97156406D01*
X130260957Y-97149396D01*
X130328911Y-97134837D01*
X130378047Y-97118337D01*
X130407614Y-97100439D01*
X130416864Y-97081685D01*
X130405048Y-97062615D01*
X130371416Y-97043771D01*
X130368370Y-97042557D01*
X130322011Y-97030479D01*
X130259361Y-97022279D01*
X130185927Y-97018119D01*
X130107217Y-97018161D01*
X130028739Y-97022569D01*
X129956000Y-97031505D01*
X129952073Y-97032154D01*
X129903257Y-97039861D01*
X129871005Y-97043473D01*
X129850008Y-97042876D01*
X129834954Y-97037954D01*
X129820534Y-97028596D01*
X129819364Y-97027725D01*
X129794847Y-96997351D01*
X129790054Y-96961850D01*
X129805860Y-96927269D01*
X129810406Y-96922813D01*
X129840020Y-96907673D01*
X129887002Y-96894550D01*
X129947306Y-96883750D01*
X130016888Y-96875581D01*
X130091703Y-96870351D01*
X130167706Y-96868367D01*
X130240853Y-96869936D01*
G37*
X126388711Y-92562033D02*
X126484268Y-92579523D01*
X126648558Y-92624564D01*
X126802589Y-92687656D01*
X126948509Y-92769915D01*
X127088466Y-92872457D01*
X127224608Y-92996399D01*
X127268473Y-93041661D01*
X127380758Y-93173865D01*
X127473972Y-93311832D01*
X127550719Y-93459750D01*
X127613603Y-93621803D01*
X127617420Y-93633391D01*
X127667507Y-93819392D01*
X127700899Y-94015521D01*
X127717584Y-94217568D01*
X127717551Y-94421325D01*
X127700791Y-94622581D01*
X127667292Y-94817128D01*
X127617044Y-95000756D01*
X127573190Y-95118053D01*
X127495348Y-95280951D01*
X127401828Y-95434866D01*
X127294822Y-95576671D01*
X127176519Y-95703239D01*
X127049111Y-95811441D01*
X126971606Y-95864120D01*
X126844725Y-95933750D01*
X126707243Y-95992468D01*
X126565716Y-96037587D01*
X126426702Y-96066422D01*
X126412597Y-96068106D01*
X126369153Y-96071434D01*
X126311723Y-96074275D01*
X126246122Y-96076373D01*
X126178167Y-96077468D01*
X126051378Y-96075140D01*
X125903673Y-96062136D01*
X125765779Y-96037133D01*
X125632014Y-95999318D01*
X125608562Y-95990889D01*
X125560612Y-95971408D01*
X125504140Y-95946473D01*
X125442379Y-95917722D01*
X125378563Y-95886790D01*
X125315926Y-95855315D01*
X125257703Y-95824934D01*
X125207127Y-95797283D01*
X125167433Y-95773999D01*
X125141854Y-95756718D01*
X125133625Y-95747079D01*
X125135076Y-95743984D01*
X125146250Y-95724079D01*
X125167134Y-95688420D01*
X125196265Y-95639459D01*
X125232181Y-95579646D01*
X125273420Y-95511433D01*
X125318517Y-95437271D01*
X125499785Y-95140008D01*
X125546315Y-95184539D01*
X125637723Y-95262865D01*
X125751334Y-95337439D01*
X125869122Y-95391474D01*
X125989559Y-95424290D01*
X126111117Y-95435211D01*
X126152585Y-95433868D01*
X126270080Y-95415612D01*
X126380089Y-95376617D01*
X126481430Y-95317670D01*
X126572921Y-95239557D01*
X126653380Y-95143064D01*
X126721627Y-95028978D01*
X126737908Y-94994724D01*
X126783982Y-94871240D01*
X126819106Y-94732918D01*
X126843197Y-94583561D01*
X126856173Y-94426973D01*
X126857949Y-94266956D01*
X126848443Y-94107314D01*
X126827572Y-93951850D01*
X126795252Y-93804366D01*
X126751399Y-93668667D01*
X126713982Y-93582076D01*
X126649185Y-93468688D01*
X126573772Y-93375070D01*
X126487418Y-93300959D01*
X126389795Y-93246094D01*
X126280577Y-93210212D01*
X126159439Y-93193051D01*
X126090038Y-93191880D01*
X125967168Y-93206141D01*
X125851664Y-93241241D01*
X125744953Y-93296682D01*
X125648464Y-93371964D01*
X125632720Y-93386440D01*
X125602150Y-93412962D01*
X125579809Y-93430138D01*
X125569691Y-93434787D01*
X125567706Y-93432597D01*
X125553241Y-93413721D01*
X125529400Y-93380397D01*
X125498029Y-93335380D01*
X125460974Y-93281425D01*
X125420083Y-93221285D01*
X125377202Y-93157718D01*
X125334178Y-93093476D01*
X125292857Y-93031315D01*
X125255086Y-92973991D01*
X125222712Y-92924257D01*
X125197582Y-92884868D01*
X125181542Y-92858580D01*
X125176439Y-92848147D01*
X125181050Y-92843941D01*
X125200267Y-92838933D01*
X125209838Y-92836386D01*
X125237809Y-92825249D01*
X125279448Y-92806802D01*
X125330995Y-92782725D01*
X125388690Y-92754699D01*
X125399957Y-92749154D01*
X125577687Y-92669889D01*
X125747490Y-92610385D01*
X125911430Y-92570245D01*
X126071571Y-92549071D01*
X126229977Y-92546466D01*
X126388711Y-92562033D01*
G36*
X126388711Y-92562033D02*
G01*
X126484268Y-92579523D01*
X126648558Y-92624564D01*
X126802589Y-92687656D01*
X126948509Y-92769915D01*
X127088466Y-92872457D01*
X127224608Y-92996399D01*
X127268473Y-93041661D01*
X127380758Y-93173865D01*
X127473972Y-93311832D01*
X127550719Y-93459750D01*
X127613603Y-93621803D01*
X127617420Y-93633391D01*
X127667507Y-93819392D01*
X127700899Y-94015521D01*
X127717584Y-94217568D01*
X127717551Y-94421325D01*
X127700791Y-94622581D01*
X127667292Y-94817128D01*
X127617044Y-95000756D01*
X127573190Y-95118053D01*
X127495348Y-95280951D01*
X127401828Y-95434866D01*
X127294822Y-95576671D01*
X127176519Y-95703239D01*
X127049111Y-95811441D01*
X126971606Y-95864120D01*
X126844725Y-95933750D01*
X126707243Y-95992468D01*
X126565716Y-96037587D01*
X126426702Y-96066422D01*
X126412597Y-96068106D01*
X126369153Y-96071434D01*
X126311723Y-96074275D01*
X126246122Y-96076373D01*
X126178167Y-96077468D01*
X126051378Y-96075140D01*
X125903673Y-96062136D01*
X125765779Y-96037133D01*
X125632014Y-95999318D01*
X125608562Y-95990889D01*
X125560612Y-95971408D01*
X125504140Y-95946473D01*
X125442379Y-95917722D01*
X125378563Y-95886790D01*
X125315926Y-95855315D01*
X125257703Y-95824934D01*
X125207127Y-95797283D01*
X125167433Y-95773999D01*
X125141854Y-95756718D01*
X125133625Y-95747079D01*
X125135076Y-95743984D01*
X125146250Y-95724079D01*
X125167134Y-95688420D01*
X125196265Y-95639459D01*
X125232181Y-95579646D01*
X125273420Y-95511433D01*
X125318517Y-95437271D01*
X125499785Y-95140008D01*
X125546315Y-95184539D01*
X125637723Y-95262865D01*
X125751334Y-95337439D01*
X125869122Y-95391474D01*
X125989559Y-95424290D01*
X126111117Y-95435211D01*
X126152585Y-95433868D01*
X126270080Y-95415612D01*
X126380089Y-95376617D01*
X126481430Y-95317670D01*
X126572921Y-95239557D01*
X126653380Y-95143064D01*
X126721627Y-95028978D01*
X126737908Y-94994724D01*
X126783982Y-94871240D01*
X126819106Y-94732918D01*
X126843197Y-94583561D01*
X126856173Y-94426973D01*
X126857949Y-94266956D01*
X126848443Y-94107314D01*
X126827572Y-93951850D01*
X126795252Y-93804366D01*
X126751399Y-93668667D01*
X126713982Y-93582076D01*
X126649185Y-93468688D01*
X126573772Y-93375070D01*
X126487418Y-93300959D01*
X126389795Y-93246094D01*
X126280577Y-93210212D01*
X126159439Y-93193051D01*
X126090038Y-93191880D01*
X125967168Y-93206141D01*
X125851664Y-93241241D01*
X125744953Y-93296682D01*
X125648464Y-93371964D01*
X125632720Y-93386440D01*
X125602150Y-93412962D01*
X125579809Y-93430138D01*
X125569691Y-93434787D01*
X125567706Y-93432597D01*
X125553241Y-93413721D01*
X125529400Y-93380397D01*
X125498029Y-93335380D01*
X125460974Y-93281425D01*
X125420083Y-93221285D01*
X125377202Y-93157718D01*
X125334178Y-93093476D01*
X125292857Y-93031315D01*
X125255086Y-92973991D01*
X125222712Y-92924257D01*
X125197582Y-92884868D01*
X125181542Y-92858580D01*
X125176439Y-92848147D01*
X125181050Y-92843941D01*
X125200267Y-92838933D01*
X125209838Y-92836386D01*
X125237809Y-92825249D01*
X125279448Y-92806802D01*
X125330995Y-92782725D01*
X125388690Y-92754699D01*
X125399957Y-92749154D01*
X125577687Y-92669889D01*
X125747490Y-92610385D01*
X125911430Y-92570245D01*
X126071571Y-92549071D01*
X126229977Y-92546466D01*
X126388711Y-92562033D01*
G37*
X122585994Y-94842711D02*
X122585268Y-94920158D01*
X122576689Y-95071594D01*
X122557833Y-95208283D01*
X122527837Y-95334276D01*
X122485836Y-95453625D01*
X122430969Y-95570381D01*
X122364167Y-95681179D01*
X122273363Y-95794739D01*
X122169708Y-95890211D01*
X122053887Y-95967073D01*
X121926586Y-96024797D01*
X121788489Y-96062858D01*
X121750793Y-96068666D01*
X121671752Y-96074396D01*
X121583629Y-96074583D01*
X121494236Y-96069539D01*
X121411384Y-96059578D01*
X121342887Y-96045012D01*
X121312035Y-96035364D01*
X121234730Y-96005123D01*
X121157679Y-95967617D01*
X121088200Y-95926614D01*
X121033615Y-95885879D01*
X121010916Y-95866505D01*
X120988201Y-95848662D01*
X120976779Y-95841778D01*
X120975537Y-95843424D01*
X120972728Y-95861205D01*
X120970776Y-95894370D01*
X120970045Y-95937733D01*
X120970045Y-96033689D01*
X120111896Y-96033689D01*
X120146161Y-95972974D01*
X120151355Y-95963868D01*
X120159715Y-95949249D01*
X120167288Y-95935173D01*
X120174112Y-95920540D01*
X120180227Y-95904249D01*
X120185673Y-95885198D01*
X120190487Y-95862286D01*
X120194708Y-95834413D01*
X120198377Y-95800478D01*
X120201531Y-95759379D01*
X120204211Y-95710015D01*
X120206454Y-95651286D01*
X120208299Y-95582090D01*
X120209787Y-95501326D01*
X120210955Y-95407894D01*
X120211844Y-95300692D01*
X120212491Y-95178620D01*
X120212936Y-95040576D01*
X120213218Y-94885459D01*
X120213375Y-94712168D01*
X120213448Y-94519603D01*
X120213474Y-94306662D01*
X120213485Y-94170530D01*
X121015200Y-94170530D01*
X121015200Y-95320721D01*
X121085756Y-95367089D01*
X121126417Y-95390791D01*
X121180546Y-95416639D01*
X121229689Y-95434829D01*
X121293165Y-95450551D01*
X121389331Y-95461541D01*
X121473900Y-95453365D01*
X121547219Y-95425805D01*
X121609637Y-95378642D01*
X121661502Y-95311658D01*
X121703160Y-95224633D01*
X121734962Y-95117350D01*
X121737545Y-95105009D01*
X121746000Y-95043772D01*
X121751663Y-94966692D01*
X121754576Y-94879002D01*
X121754783Y-94785934D01*
X121752330Y-94692720D01*
X121747261Y-94604594D01*
X121739619Y-94526788D01*
X121729448Y-94464533D01*
X121728167Y-94458666D01*
X121699126Y-94348121D01*
X121664610Y-94257575D01*
X121623456Y-94184953D01*
X121574499Y-94128181D01*
X121516574Y-94085184D01*
X121484620Y-94069615D01*
X121411784Y-94050722D01*
X121330443Y-94047465D01*
X121245319Y-94059389D01*
X121161133Y-94086040D01*
X121082608Y-94126962D01*
X121015200Y-94170530D01*
X120213485Y-94170530D01*
X120213493Y-94072245D01*
X120213689Y-92387378D01*
X121119017Y-92387378D01*
X121094585Y-92424067D01*
X121088318Y-92433647D01*
X121062208Y-92479981D01*
X121044469Y-92527102D01*
X121032908Y-92582251D01*
X121025331Y-92652667D01*
X121024839Y-92659650D01*
X121023062Y-92697641D01*
X121021444Y-92751576D01*
X121019999Y-92818703D01*
X121018740Y-92896271D01*
X121017680Y-92981528D01*
X121016829Y-93071724D01*
X121016203Y-93164107D01*
X121015812Y-93255925D01*
X121015670Y-93344427D01*
X121015790Y-93426862D01*
X121016183Y-93500479D01*
X121016862Y-93562526D01*
X121017841Y-93610251D01*
X121019132Y-93640904D01*
X121020747Y-93651733D01*
X121028957Y-93647333D01*
X121050647Y-93632362D01*
X121080014Y-93610448D01*
X121128879Y-93576236D01*
X121217125Y-93529714D01*
X121315916Y-93496046D01*
X121428510Y-93474231D01*
X121558164Y-93463265D01*
X121650670Y-93462219D01*
X121772011Y-93472014D01*
X121882099Y-93496174D01*
X121985389Y-93535785D01*
X122086338Y-93591932D01*
X122131503Y-93622883D01*
X122236911Y-93714115D01*
X122328538Y-93823106D01*
X122406332Y-93949726D01*
X122470241Y-94093845D01*
X122520214Y-94255332D01*
X122556198Y-94434059D01*
X122578143Y-94629895D01*
X122583900Y-94785934D01*
X122585994Y-94842711D01*
G36*
X122585994Y-94842711D02*
G01*
X122585268Y-94920158D01*
X122576689Y-95071594D01*
X122557833Y-95208283D01*
X122527837Y-95334276D01*
X122485836Y-95453625D01*
X122430969Y-95570381D01*
X122364167Y-95681179D01*
X122273363Y-95794739D01*
X122169708Y-95890211D01*
X122053887Y-95967073D01*
X121926586Y-96024797D01*
X121788489Y-96062858D01*
X121750793Y-96068666D01*
X121671752Y-96074396D01*
X121583629Y-96074583D01*
X121494236Y-96069539D01*
X121411384Y-96059578D01*
X121342887Y-96045012D01*
X121312035Y-96035364D01*
X121234730Y-96005123D01*
X121157679Y-95967617D01*
X121088200Y-95926614D01*
X121033615Y-95885879D01*
X121010916Y-95866505D01*
X120988201Y-95848662D01*
X120976779Y-95841778D01*
X120975537Y-95843424D01*
X120972728Y-95861205D01*
X120970776Y-95894370D01*
X120970045Y-95937733D01*
X120970045Y-96033689D01*
X120111896Y-96033689D01*
X120146161Y-95972974D01*
X120151355Y-95963868D01*
X120159715Y-95949249D01*
X120167288Y-95935173D01*
X120174112Y-95920540D01*
X120180227Y-95904249D01*
X120185673Y-95885198D01*
X120190487Y-95862286D01*
X120194708Y-95834413D01*
X120198377Y-95800478D01*
X120201531Y-95759379D01*
X120204211Y-95710015D01*
X120206454Y-95651286D01*
X120208299Y-95582090D01*
X120209787Y-95501326D01*
X120210955Y-95407894D01*
X120211844Y-95300692D01*
X120212491Y-95178620D01*
X120212936Y-95040576D01*
X120213218Y-94885459D01*
X120213375Y-94712168D01*
X120213448Y-94519603D01*
X120213474Y-94306662D01*
X120213485Y-94170530D01*
X121015200Y-94170530D01*
X121015200Y-95320721D01*
X121085756Y-95367089D01*
X121126417Y-95390791D01*
X121180546Y-95416639D01*
X121229689Y-95434829D01*
X121293165Y-95450551D01*
X121389331Y-95461541D01*
X121473900Y-95453365D01*
X121547219Y-95425805D01*
X121609637Y-95378642D01*
X121661502Y-95311658D01*
X121703160Y-95224633D01*
X121734962Y-95117350D01*
X121737545Y-95105009D01*
X121746000Y-95043772D01*
X121751663Y-94966692D01*
X121754576Y-94879002D01*
X121754783Y-94785934D01*
X121752330Y-94692720D01*
X121747261Y-94604594D01*
X121739619Y-94526788D01*
X121729448Y-94464533D01*
X121728167Y-94458666D01*
X121699126Y-94348121D01*
X121664610Y-94257575D01*
X121623456Y-94184953D01*
X121574499Y-94128181D01*
X121516574Y-94085184D01*
X121484620Y-94069615D01*
X121411784Y-94050722D01*
X121330443Y-94047465D01*
X121245319Y-94059389D01*
X121161133Y-94086040D01*
X121082608Y-94126962D01*
X121015200Y-94170530D01*
X120213485Y-94170530D01*
X120213493Y-94072245D01*
X120213689Y-92387378D01*
X121119017Y-92387378D01*
X121094585Y-92424067D01*
X121088318Y-92433647D01*
X121062208Y-92479981D01*
X121044469Y-92527102D01*
X121032908Y-92582251D01*
X121025331Y-92652667D01*
X121024839Y-92659650D01*
X121023062Y-92697641D01*
X121021444Y-92751576D01*
X121019999Y-92818703D01*
X121018740Y-92896271D01*
X121017680Y-92981528D01*
X121016829Y-93071724D01*
X121016203Y-93164107D01*
X121015812Y-93255925D01*
X121015670Y-93344427D01*
X121015790Y-93426862D01*
X121016183Y-93500479D01*
X121016862Y-93562526D01*
X121017841Y-93610251D01*
X121019132Y-93640904D01*
X121020747Y-93651733D01*
X121028957Y-93647333D01*
X121050647Y-93632362D01*
X121080014Y-93610448D01*
X121128879Y-93576236D01*
X121217125Y-93529714D01*
X121315916Y-93496046D01*
X121428510Y-93474231D01*
X121558164Y-93463265D01*
X121650670Y-93462219D01*
X121772011Y-93472014D01*
X121882099Y-93496174D01*
X121985389Y-93535785D01*
X122086338Y-93591932D01*
X122131503Y-93622883D01*
X122236911Y-93714115D01*
X122328538Y-93823106D01*
X122406332Y-93949726D01*
X122470241Y-94093845D01*
X122520214Y-94255332D01*
X122556198Y-94434059D01*
X122578143Y-94629895D01*
X122583900Y-94785934D01*
X122585994Y-94842711D01*
G37*
X125127755Y-95243467D02*
X125127261Y-95277363D01*
X125123632Y-95352202D01*
X125116022Y-95414401D01*
X125103688Y-95470984D01*
X125059313Y-95597076D01*
X124996400Y-95711679D01*
X124916238Y-95812568D01*
X124819740Y-95898924D01*
X124707822Y-95969932D01*
X124581397Y-96024776D01*
X124441378Y-96062638D01*
X124405149Y-96068351D01*
X124326155Y-96074313D01*
X124237841Y-96074646D01*
X124148075Y-96069659D01*
X124064722Y-96059666D01*
X123995651Y-96044978D01*
X123909187Y-96014749D01*
X123799286Y-95960057D01*
X123701956Y-95892543D01*
X123639867Y-95841556D01*
X123636605Y-95937622D01*
X123633343Y-96033689D01*
X123210450Y-96033689D01*
X123199543Y-96033686D01*
X123105056Y-96033380D01*
X123018331Y-96032616D01*
X122941837Y-96031451D01*
X122878043Y-96029942D01*
X122829418Y-96028147D01*
X122798433Y-96026121D01*
X122787556Y-96023922D01*
X122787578Y-96023463D01*
X122794614Y-96007910D01*
X122810434Y-95985071D01*
X122814734Y-95979638D01*
X122825777Y-95965606D01*
X122835311Y-95952186D01*
X122843461Y-95937722D01*
X122850352Y-95920556D01*
X122856111Y-95899034D01*
X122860862Y-95871498D01*
X122864731Y-95836292D01*
X122867844Y-95791760D01*
X122870325Y-95736246D01*
X122872300Y-95668093D01*
X122873894Y-95585645D01*
X122875234Y-95487246D01*
X122876444Y-95371239D01*
X122877649Y-95235968D01*
X122878595Y-95124586D01*
X123679378Y-95124586D01*
X123679378Y-95320462D01*
X123724048Y-95376973D01*
X123736785Y-95392212D01*
X123783604Y-95434844D01*
X123844255Y-95470672D01*
X123854897Y-95475850D01*
X123893676Y-95492745D01*
X123928692Y-95502909D01*
X123968722Y-95508325D01*
X124022541Y-95510978D01*
X124040648Y-95511383D01*
X124116011Y-95508540D01*
X124176743Y-95496620D01*
X124228452Y-95474037D01*
X124276746Y-95439211D01*
X124281803Y-95434798D01*
X124330272Y-95379160D01*
X124358459Y-95315333D01*
X124367752Y-95240282D01*
X124360520Y-95168693D01*
X124335796Y-95105645D01*
X124291249Y-95047758D01*
X124236319Y-95000808D01*
X124163894Y-94960961D01*
X124077340Y-94933263D01*
X123974670Y-94917096D01*
X123853894Y-94911842D01*
X123845007Y-94911857D01*
X123789660Y-94912655D01*
X123742736Y-94914488D01*
X123708953Y-94917111D01*
X123693028Y-94920274D01*
X123688943Y-94926741D01*
X123684572Y-94948875D01*
X123681604Y-94987988D01*
X123679914Y-95045939D01*
X123679378Y-95124586D01*
X122878595Y-95124586D01*
X122878975Y-95079778D01*
X122880228Y-94937012D01*
X122881651Y-94791942D01*
X122883176Y-94666027D01*
X122884933Y-94557436D01*
X122887051Y-94464334D01*
X122889660Y-94384891D01*
X122892890Y-94317273D01*
X122896869Y-94259649D01*
X122901728Y-94210185D01*
X122907597Y-94167050D01*
X122914604Y-94128410D01*
X122922880Y-94092434D01*
X122932554Y-94057289D01*
X122943756Y-94021142D01*
X122956616Y-93982161D01*
X122972090Y-93939091D01*
X123014994Y-93846871D01*
X123068735Y-93767099D01*
X123137576Y-93692965D01*
X123215185Y-93629405D01*
X123319761Y-93567725D01*
X123439244Y-93520202D01*
X123574508Y-93486567D01*
X123726426Y-93466552D01*
X123895872Y-93459889D01*
X123953890Y-93460287D01*
X124019398Y-93462335D01*
X124080693Y-93466704D01*
X124142097Y-93474035D01*
X124207932Y-93484969D01*
X124282520Y-93500147D01*
X124370184Y-93520209D01*
X124475245Y-93545797D01*
X124503806Y-93552820D01*
X124579054Y-93570776D01*
X124649388Y-93586820D01*
X124710567Y-93600028D01*
X124758354Y-93609474D01*
X124788511Y-93614231D01*
X124816783Y-93617910D01*
X124843060Y-93623187D01*
X124853059Y-93627942D01*
X124849952Y-93636781D01*
X124839194Y-93664072D01*
X124821864Y-93706906D01*
X124799126Y-93762425D01*
X124772147Y-93827772D01*
X124742090Y-93900089D01*
X124735493Y-93915879D01*
X124696907Y-94006484D01*
X124665768Y-94076217D01*
X124641917Y-94125405D01*
X124625198Y-94154374D01*
X124615454Y-94163452D01*
X124607766Y-94161405D01*
X124581415Y-94151760D01*
X124542982Y-94136190D01*
X124497822Y-94116815D01*
X124403293Y-94078814D01*
X124266480Y-94037780D01*
X124125289Y-94012612D01*
X124087314Y-94008611D01*
X123984059Y-94006447D01*
X123896952Y-94019622D01*
X123825129Y-94048756D01*
X123767731Y-94094466D01*
X123723896Y-94157372D01*
X123692762Y-94238092D01*
X123673470Y-94337245D01*
X123666050Y-94396224D01*
X123827936Y-94389445D01*
X123954495Y-94387813D01*
X124105951Y-94394194D01*
X124254396Y-94408777D01*
X124390578Y-94430882D01*
X124455245Y-94445821D01*
X124587490Y-94488741D01*
X124709762Y-94545340D01*
X124819685Y-94614017D01*
X124914883Y-94693170D01*
X124992980Y-94781196D01*
X125051599Y-94876493D01*
X125075595Y-94928864D01*
X125101232Y-94999590D01*
X125117478Y-95070812D01*
X125125822Y-95149712D01*
X125127690Y-95240282D01*
X125127755Y-95243467D01*
G36*
X125127755Y-95243467D02*
G01*
X125127261Y-95277363D01*
X125123632Y-95352202D01*
X125116022Y-95414401D01*
X125103688Y-95470984D01*
X125059313Y-95597076D01*
X124996400Y-95711679D01*
X124916238Y-95812568D01*
X124819740Y-95898924D01*
X124707822Y-95969932D01*
X124581397Y-96024776D01*
X124441378Y-96062638D01*
X124405149Y-96068351D01*
X124326155Y-96074313D01*
X124237841Y-96074646D01*
X124148075Y-96069659D01*
X124064722Y-96059666D01*
X123995651Y-96044978D01*
X123909187Y-96014749D01*
X123799286Y-95960057D01*
X123701956Y-95892543D01*
X123639867Y-95841556D01*
X123636605Y-95937622D01*
X123633343Y-96033689D01*
X123210450Y-96033689D01*
X123199543Y-96033686D01*
X123105056Y-96033380D01*
X123018331Y-96032616D01*
X122941837Y-96031451D01*
X122878043Y-96029942D01*
X122829418Y-96028147D01*
X122798433Y-96026121D01*
X122787556Y-96023922D01*
X122787578Y-96023463D01*
X122794614Y-96007910D01*
X122810434Y-95985071D01*
X122814734Y-95979638D01*
X122825777Y-95965606D01*
X122835311Y-95952186D01*
X122843461Y-95937722D01*
X122850352Y-95920556D01*
X122856111Y-95899034D01*
X122860862Y-95871498D01*
X122864731Y-95836292D01*
X122867844Y-95791760D01*
X122870325Y-95736246D01*
X122872300Y-95668093D01*
X122873894Y-95585645D01*
X122875234Y-95487246D01*
X122876444Y-95371239D01*
X122877649Y-95235968D01*
X122878595Y-95124586D01*
X123679378Y-95124586D01*
X123679378Y-95320462D01*
X123724048Y-95376973D01*
X123736785Y-95392212D01*
X123783604Y-95434844D01*
X123844255Y-95470672D01*
X123854897Y-95475850D01*
X123893676Y-95492745D01*
X123928692Y-95502909D01*
X123968722Y-95508325D01*
X124022541Y-95510978D01*
X124040648Y-95511383D01*
X124116011Y-95508540D01*
X124176743Y-95496620D01*
X124228452Y-95474037D01*
X124276746Y-95439211D01*
X124281803Y-95434798D01*
X124330272Y-95379160D01*
X124358459Y-95315333D01*
X124367752Y-95240282D01*
X124360520Y-95168693D01*
X124335796Y-95105645D01*
X124291249Y-95047758D01*
X124236319Y-95000808D01*
X124163894Y-94960961D01*
X124077340Y-94933263D01*
X123974670Y-94917096D01*
X123853894Y-94911842D01*
X123845007Y-94911857D01*
X123789660Y-94912655D01*
X123742736Y-94914488D01*
X123708953Y-94917111D01*
X123693028Y-94920274D01*
X123688943Y-94926741D01*
X123684572Y-94948875D01*
X123681604Y-94987988D01*
X123679914Y-95045939D01*
X123679378Y-95124586D01*
X122878595Y-95124586D01*
X122878975Y-95079778D01*
X122880228Y-94937012D01*
X122881651Y-94791942D01*
X122883176Y-94666027D01*
X122884933Y-94557436D01*
X122887051Y-94464334D01*
X122889660Y-94384891D01*
X122892890Y-94317273D01*
X122896869Y-94259649D01*
X122901728Y-94210185D01*
X122907597Y-94167050D01*
X122914604Y-94128410D01*
X122922880Y-94092434D01*
X122932554Y-94057289D01*
X122943756Y-94021142D01*
X122956616Y-93982161D01*
X122972090Y-93939091D01*
X123014994Y-93846871D01*
X123068735Y-93767099D01*
X123137576Y-93692965D01*
X123215185Y-93629405D01*
X123319761Y-93567725D01*
X123439244Y-93520202D01*
X123574508Y-93486567D01*
X123726426Y-93466552D01*
X123895872Y-93459889D01*
X123953890Y-93460287D01*
X124019398Y-93462335D01*
X124080693Y-93466704D01*
X124142097Y-93474035D01*
X124207932Y-93484969D01*
X124282520Y-93500147D01*
X124370184Y-93520209D01*
X124475245Y-93545797D01*
X124503806Y-93552820D01*
X124579054Y-93570776D01*
X124649388Y-93586820D01*
X124710567Y-93600028D01*
X124758354Y-93609474D01*
X124788511Y-93614231D01*
X124816783Y-93617910D01*
X124843060Y-93623187D01*
X124853059Y-93627942D01*
X124849952Y-93636781D01*
X124839194Y-93664072D01*
X124821864Y-93706906D01*
X124799126Y-93762425D01*
X124772147Y-93827772D01*
X124742090Y-93900089D01*
X124735493Y-93915879D01*
X124696907Y-94006484D01*
X124665768Y-94076217D01*
X124641917Y-94125405D01*
X124625198Y-94154374D01*
X124615454Y-94163452D01*
X124607766Y-94161405D01*
X124581415Y-94151760D01*
X124542982Y-94136190D01*
X124497822Y-94116815D01*
X124403293Y-94078814D01*
X124266480Y-94037780D01*
X124125289Y-94012612D01*
X124087314Y-94008611D01*
X123984059Y-94006447D01*
X123896952Y-94019622D01*
X123825129Y-94048756D01*
X123767731Y-94094466D01*
X123723896Y-94157372D01*
X123692762Y-94238092D01*
X123673470Y-94337245D01*
X123666050Y-94396224D01*
X123827936Y-94389445D01*
X123954495Y-94387813D01*
X124105951Y-94394194D01*
X124254396Y-94408777D01*
X124390578Y-94430882D01*
X124455245Y-94445821D01*
X124587490Y-94488741D01*
X124709762Y-94545340D01*
X124819685Y-94614017D01*
X124914883Y-94693170D01*
X124992980Y-94781196D01*
X125051599Y-94876493D01*
X125075595Y-94928864D01*
X125101232Y-94999590D01*
X125117478Y-95070812D01*
X125125822Y-95149712D01*
X125127690Y-95240282D01*
X125127755Y-95243467D01*
G37*
X132675614Y-92711792D02*
X132676059Y-92843011D01*
X132676362Y-92990216D01*
X132676548Y-93154349D01*
X132676642Y-93336352D01*
X132676671Y-93537165D01*
X132676661Y-93757732D01*
X132676636Y-93998992D01*
X132676622Y-94261889D01*
X132676622Y-94304040D01*
X132676646Y-94564668D01*
X132676685Y-94803796D01*
X132676708Y-95022360D01*
X132676687Y-95221295D01*
X132676593Y-95401535D01*
X132676395Y-95564015D01*
X132676063Y-95709670D01*
X132675569Y-95839434D01*
X132674883Y-95954243D01*
X132673976Y-96055030D01*
X132672817Y-96142730D01*
X132671378Y-96218279D01*
X132669629Y-96282611D01*
X132667540Y-96336661D01*
X132665083Y-96381363D01*
X132662227Y-96417652D01*
X132658943Y-96446463D01*
X132655202Y-96468731D01*
X132650974Y-96485390D01*
X132646229Y-96497375D01*
X132640939Y-96505621D01*
X132635073Y-96511062D01*
X132628602Y-96514634D01*
X132621497Y-96517270D01*
X132613728Y-96519906D01*
X132605266Y-96523477D01*
X132600908Y-96525145D01*
X132592395Y-96527111D01*
X132579694Y-96528911D01*
X132561885Y-96530555D01*
X132538049Y-96532047D01*
X132507266Y-96533397D01*
X132468617Y-96534611D01*
X132421182Y-96535697D01*
X132364043Y-96536661D01*
X132296279Y-96537511D01*
X132216971Y-96538253D01*
X132125199Y-96538897D01*
X132020044Y-96539447D01*
X131900587Y-96539913D01*
X131765908Y-96540300D01*
X131615088Y-96540616D01*
X131447206Y-96540869D01*
X131261345Y-96541066D01*
X131056583Y-96541213D01*
X130832002Y-96541318D01*
X130586682Y-96541389D01*
X130319704Y-96541432D01*
X130281321Y-96541437D01*
X130015922Y-96541480D01*
X129772050Y-96541525D01*
X129548783Y-96541548D01*
X129345196Y-96541524D01*
X129160367Y-96541430D01*
X128993373Y-96541243D01*
X128843290Y-96540939D01*
X128709196Y-96540494D01*
X128590166Y-96539885D01*
X128485279Y-96539089D01*
X128393610Y-96538080D01*
X128314237Y-96536837D01*
X128246237Y-96535335D01*
X128188686Y-96533551D01*
X128140662Y-96531461D01*
X128101240Y-96529042D01*
X128069499Y-96526270D01*
X128044514Y-96523121D01*
X128025364Y-96519572D01*
X128011123Y-96515598D01*
X128000871Y-96511178D01*
X127993682Y-96506286D01*
X127988635Y-96500900D01*
X127984805Y-96494996D01*
X127981271Y-96488549D01*
X127977108Y-96481537D01*
X127976025Y-96479687D01*
X127973813Y-96474180D01*
X127971786Y-96465868D01*
X127969938Y-96453809D01*
X127968261Y-96437063D01*
X127966745Y-96414687D01*
X127965383Y-96385740D01*
X127964167Y-96349280D01*
X127963089Y-96304367D01*
X127962140Y-96250057D01*
X127961312Y-96185410D01*
X127960597Y-96109484D01*
X127959987Y-96021338D01*
X127959942Y-96012493D01*
X128251378Y-96012493D01*
X128255260Y-96013765D01*
X128278520Y-96015791D01*
X128320874Y-96017626D01*
X128380132Y-96019227D01*
X128454107Y-96020549D01*
X128540610Y-96021548D01*
X128637452Y-96022180D01*
X128742445Y-96022400D01*
X129440651Y-96022400D01*
X130595090Y-96022400D01*
X130594456Y-95946200D01*
X130595574Y-95904160D01*
X130601304Y-95868334D01*
X130613890Y-95830772D01*
X130635568Y-95782577D01*
X130638789Y-95775897D01*
X130664188Y-95726359D01*
X130690996Y-95678369D01*
X130713917Y-95641466D01*
X130718485Y-95634834D01*
X130740516Y-95603593D01*
X130772693Y-95558654D01*
X130813457Y-95502147D01*
X130861245Y-95436204D01*
X130914498Y-95362957D01*
X130971655Y-95284536D01*
X131031155Y-95203072D01*
X131091437Y-95120698D01*
X131150940Y-95039544D01*
X131208105Y-94961742D01*
X131261370Y-94889423D01*
X131309174Y-94824718D01*
X131349957Y-94769759D01*
X131382158Y-94726676D01*
X131404216Y-94697602D01*
X131414571Y-94684667D01*
X131419044Y-94680351D01*
X131423236Y-94678312D01*
X131426643Y-94680926D01*
X131429325Y-94689986D01*
X131431341Y-94707285D01*
X131432748Y-94734614D01*
X131433605Y-94773765D01*
X131433970Y-94826533D01*
X131433903Y-94894707D01*
X131433460Y-94980082D01*
X131432702Y-95084449D01*
X131431685Y-95209600D01*
X131431308Y-95254300D01*
X131430169Y-95375395D01*
X131428972Y-95476688D01*
X131427636Y-95560262D01*
X131426077Y-95628204D01*
X131424215Y-95682599D01*
X131421966Y-95725532D01*
X131419248Y-95759089D01*
X131415979Y-95785355D01*
X131412078Y-95806416D01*
X131407461Y-95824357D01*
X131399192Y-95850770D01*
X131375583Y-95912772D01*
X131349685Y-95965573D01*
X131324535Y-96002645D01*
X131323339Y-96004075D01*
X131321168Y-96008424D01*
X131323328Y-96012026D01*
X131331644Y-96014951D01*
X131347940Y-96017269D01*
X131374041Y-96019051D01*
X131411771Y-96020367D01*
X131462956Y-96021286D01*
X131529420Y-96021878D01*
X131612987Y-96022215D01*
X131715483Y-96022365D01*
X131838732Y-96022400D01*
X132370296Y-96022400D01*
X132331523Y-95964783D01*
X132325432Y-95955893D01*
X132314976Y-95941069D01*
X132305579Y-95927422D01*
X132297183Y-95913765D01*
X132289733Y-95898911D01*
X132283173Y-95881670D01*
X132277446Y-95860855D01*
X132272495Y-95835280D01*
X132268266Y-95803755D01*
X132264701Y-95765093D01*
X132261744Y-95718107D01*
X132259340Y-95661608D01*
X132257431Y-95594409D01*
X132255962Y-95515322D01*
X132254876Y-95423160D01*
X132254118Y-95316734D01*
X132253630Y-95194857D01*
X132253358Y-95056341D01*
X132253243Y-94899999D01*
X132253231Y-94724642D01*
X132253265Y-94529082D01*
X132253289Y-94312133D01*
X132253280Y-94189513D01*
X132253243Y-93984447D01*
X132253227Y-93800116D01*
X132253288Y-93635334D01*
X132253484Y-93488916D01*
X132253870Y-93359674D01*
X132254505Y-93246422D01*
X132255444Y-93147975D01*
X132256745Y-93063144D01*
X132258464Y-92990744D01*
X132260659Y-92929589D01*
X132263385Y-92878492D01*
X132266701Y-92836267D01*
X132270662Y-92801727D01*
X132275325Y-92773686D01*
X132280747Y-92750958D01*
X132286986Y-92732356D01*
X132294097Y-92716693D01*
X132302138Y-92702784D01*
X132311166Y-92689441D01*
X132321236Y-92675479D01*
X132332407Y-92659711D01*
X132372197Y-92601867D01*
X131312314Y-92601867D01*
X131350311Y-92664966D01*
X131364993Y-92690005D01*
X131379531Y-92717586D01*
X131391627Y-92745700D01*
X131401532Y-92776551D01*
X131409494Y-92812344D01*
X131415761Y-92855283D01*
X131420582Y-92907574D01*
X131424206Y-92971419D01*
X131426881Y-93049025D01*
X131428857Y-93142594D01*
X131430382Y-93254333D01*
X131431704Y-93386445D01*
X131432613Y-93506434D01*
X131433020Y-93623063D01*
X131432767Y-93718531D01*
X131431857Y-93792556D01*
X131430293Y-93844855D01*
X131428079Y-93875149D01*
X131425220Y-93883156D01*
X131422161Y-93879858D01*
X131404006Y-93858408D01*
X131374275Y-93821889D01*
X131334639Y-93772442D01*
X131286771Y-93712207D01*
X131232343Y-93643327D01*
X131173027Y-93567943D01*
X131110495Y-93488196D01*
X131046421Y-93406228D01*
X130982475Y-93324180D01*
X130920331Y-93244194D01*
X130861661Y-93168411D01*
X130808137Y-93098973D01*
X130761430Y-93038021D01*
X130723214Y-92987696D01*
X130695161Y-92950140D01*
X130678943Y-92927495D01*
X130633635Y-92855212D01*
X130593661Y-92775463D01*
X130572130Y-92707188D01*
X130568827Y-92649844D01*
X130574116Y-92601867D01*
X129442356Y-92602117D01*
X129481867Y-92632722D01*
X129491248Y-92640089D01*
X129554183Y-92694438D01*
X129622997Y-92762259D01*
X129699596Y-92845516D01*
X129785888Y-92946178D01*
X129803052Y-92966847D01*
X129843833Y-93016409D01*
X129893588Y-93077326D01*
X129950955Y-93147898D01*
X130014569Y-93226424D01*
X130083069Y-93311204D01*
X130155090Y-93400537D01*
X130229270Y-93492722D01*
X130244517Y-93511702D01*
X130304246Y-93586060D01*
X130378653Y-93678848D01*
X130451131Y-93769388D01*
X130520314Y-93855978D01*
X130584841Y-93936918D01*
X130643347Y-94010506D01*
X130694470Y-94075044D01*
X130736847Y-94128829D01*
X130769115Y-94170162D01*
X130789910Y-94197342D01*
X130797869Y-94208668D01*
X130796111Y-94212771D01*
X130783230Y-94233334D01*
X130758885Y-94269561D01*
X130724247Y-94319824D01*
X130680486Y-94382492D01*
X130628775Y-94455936D01*
X130570284Y-94538527D01*
X130506184Y-94628636D01*
X130437646Y-94724631D01*
X130365843Y-94824885D01*
X130291944Y-94927768D01*
X130217121Y-95031650D01*
X130142545Y-95134901D01*
X130069387Y-95235892D01*
X129998819Y-95332994D01*
X129932011Y-95424577D01*
X129870135Y-95509011D01*
X129814361Y-95584667D01*
X129765862Y-95649916D01*
X129725807Y-95703128D01*
X129695369Y-95742673D01*
X129674944Y-95768026D01*
X129628899Y-95822295D01*
X129578612Y-95878775D01*
X129531815Y-95928669D01*
X129440651Y-96022400D01*
X128742445Y-96022400D01*
X128811356Y-96022349D01*
X128909607Y-96022091D01*
X128999030Y-96021637D01*
X129077333Y-96021010D01*
X129142223Y-96020235D01*
X129191411Y-96019335D01*
X129222604Y-96018334D01*
X129233511Y-96017257D01*
X129232322Y-96014037D01*
X129222176Y-95996452D01*
X129205040Y-95970158D01*
X129196540Y-95957691D01*
X129187329Y-95943622D01*
X129179233Y-95929351D01*
X129172185Y-95913479D01*
X129166117Y-95894609D01*
X129160961Y-95871341D01*
X129156651Y-95842278D01*
X129153119Y-95806021D01*
X129150297Y-95761170D01*
X129148118Y-95706328D01*
X129146514Y-95640097D01*
X129145419Y-95561077D01*
X129144765Y-95467871D01*
X129144484Y-95359079D01*
X129144509Y-95233303D01*
X129144772Y-95089145D01*
X129145206Y-94925207D01*
X129145745Y-94740089D01*
X129146279Y-94561232D01*
X129146805Y-94402374D01*
X129147350Y-94263316D01*
X129147945Y-94142665D01*
X129148619Y-94039028D01*
X129149403Y-93951011D01*
X129150326Y-93877223D01*
X129151419Y-93816269D01*
X129152712Y-93766757D01*
X129154235Y-93727293D01*
X129156019Y-93696484D01*
X129158092Y-93672938D01*
X129160486Y-93655260D01*
X129163230Y-93642059D01*
X129166356Y-93631940D01*
X129169892Y-93623511D01*
X129173791Y-93615375D01*
X129193438Y-93578544D01*
X129212225Y-93548391D01*
X129213272Y-93546908D01*
X129227602Y-93524659D01*
X129233511Y-93511702D01*
X129232504Y-93511249D01*
X129215305Y-93509803D01*
X129178656Y-93508480D01*
X129124962Y-93507316D01*
X129056630Y-93506347D01*
X128976064Y-93505611D01*
X128885670Y-93505142D01*
X128787853Y-93504978D01*
X128342195Y-93504978D01*
X128339120Y-94681845D01*
X128336045Y-95858711D01*
X128309407Y-95917622D01*
X128297485Y-95942183D01*
X128280246Y-95972434D01*
X128267074Y-95989560D01*
X128259076Y-95997591D01*
X128251378Y-96012493D01*
X127959942Y-96012493D01*
X127959474Y-95920029D01*
X127959050Y-95804617D01*
X127958706Y-95674160D01*
X127958434Y-95527716D01*
X127958227Y-95364344D01*
X127958076Y-95183101D01*
X127957972Y-94983048D01*
X127957908Y-94763241D01*
X127957876Y-94522739D01*
X127957867Y-94260602D01*
X127957867Y-92069031D01*
X127996249Y-92030649D01*
X128023355Y-92006911D01*
X128050253Y-91995111D01*
X128086560Y-91992267D01*
X128138489Y-91992267D01*
X128138489Y-92080206D01*
X128140427Y-92130102D01*
X128159199Y-92240523D01*
X128196217Y-92341987D01*
X128249369Y-92433152D01*
X128316546Y-92512673D01*
X128395638Y-92579205D01*
X128484534Y-92631406D01*
X128581125Y-92667930D01*
X128683300Y-92687434D01*
X128788950Y-92688573D01*
X128895964Y-92670005D01*
X129002232Y-92630384D01*
X129099219Y-92572516D01*
X129184293Y-92497684D01*
X129253015Y-92409615D01*
X129303918Y-92310616D01*
X129335535Y-92202993D01*
X129346400Y-92089054D01*
X129346400Y-91992267D01*
X130966753Y-91992267D01*
X131177897Y-91992280D01*
X131382020Y-91992330D01*
X131565686Y-91992430D01*
X131729991Y-91992592D01*
X131876029Y-91992829D01*
X132004894Y-91993153D01*
X132117683Y-91993575D01*
X132215488Y-91994109D01*
X132299404Y-91994767D01*
X132370527Y-91995561D01*
X132429950Y-91996504D01*
X132478768Y-91997608D01*
X132518077Y-91998884D01*
X132548969Y-92000347D01*
X132572541Y-92002007D01*
X132589886Y-92003878D01*
X132602099Y-92005972D01*
X132610275Y-92008300D01*
X132615508Y-92010876D01*
X132621504Y-92014445D01*
X132628279Y-92017978D01*
X132634478Y-92021488D01*
X132640126Y-92025918D01*
X132645247Y-92032208D01*
X132649869Y-92041301D01*
X132654015Y-92054139D01*
X132657713Y-92071662D01*
X132660987Y-92094813D01*
X132663863Y-92124534D01*
X132666367Y-92161765D01*
X132668524Y-92207449D01*
X132670360Y-92262527D01*
X132671900Y-92327941D01*
X132673170Y-92404633D01*
X132674195Y-92493544D01*
X132675001Y-92595617D01*
X132675034Y-92601867D01*
X132675614Y-92711792D01*
G36*
X132675614Y-92711792D02*
G01*
X132676059Y-92843011D01*
X132676362Y-92990216D01*
X132676548Y-93154349D01*
X132676642Y-93336352D01*
X132676671Y-93537165D01*
X132676661Y-93757732D01*
X132676636Y-93998992D01*
X132676622Y-94261889D01*
X132676622Y-94304040D01*
X132676646Y-94564668D01*
X132676685Y-94803796D01*
X132676708Y-95022360D01*
X132676687Y-95221295D01*
X132676593Y-95401535D01*
X132676395Y-95564015D01*
X132676063Y-95709670D01*
X132675569Y-95839434D01*
X132674883Y-95954243D01*
X132673976Y-96055030D01*
X132672817Y-96142730D01*
X132671378Y-96218279D01*
X132669629Y-96282611D01*
X132667540Y-96336661D01*
X132665083Y-96381363D01*
X132662227Y-96417652D01*
X132658943Y-96446463D01*
X132655202Y-96468731D01*
X132650974Y-96485390D01*
X132646229Y-96497375D01*
X132640939Y-96505621D01*
X132635073Y-96511062D01*
X132628602Y-96514634D01*
X132621497Y-96517270D01*
X132613728Y-96519906D01*
X132605266Y-96523477D01*
X132600908Y-96525145D01*
X132592395Y-96527111D01*
X132579694Y-96528911D01*
X132561885Y-96530555D01*
X132538049Y-96532047D01*
X132507266Y-96533397D01*
X132468617Y-96534611D01*
X132421182Y-96535697D01*
X132364043Y-96536661D01*
X132296279Y-96537511D01*
X132216971Y-96538253D01*
X132125199Y-96538897D01*
X132020044Y-96539447D01*
X131900587Y-96539913D01*
X131765908Y-96540300D01*
X131615088Y-96540616D01*
X131447206Y-96540869D01*
X131261345Y-96541066D01*
X131056583Y-96541213D01*
X130832002Y-96541318D01*
X130586682Y-96541389D01*
X130319704Y-96541432D01*
X130281321Y-96541437D01*
X130015922Y-96541480D01*
X129772050Y-96541525D01*
X129548783Y-96541548D01*
X129345196Y-96541524D01*
X129160367Y-96541430D01*
X128993373Y-96541243D01*
X128843290Y-96540939D01*
X128709196Y-96540494D01*
X128590166Y-96539885D01*
X128485279Y-96539089D01*
X128393610Y-96538080D01*
X128314237Y-96536837D01*
X128246237Y-96535335D01*
X128188686Y-96533551D01*
X128140662Y-96531461D01*
X128101240Y-96529042D01*
X128069499Y-96526270D01*
X128044514Y-96523121D01*
X128025364Y-96519572D01*
X128011123Y-96515598D01*
X128000871Y-96511178D01*
X127993682Y-96506286D01*
X127988635Y-96500900D01*
X127984805Y-96494996D01*
X127981271Y-96488549D01*
X127977108Y-96481537D01*
X127976025Y-96479687D01*
X127973813Y-96474180D01*
X127971786Y-96465868D01*
X127969938Y-96453809D01*
X127968261Y-96437063D01*
X127966745Y-96414687D01*
X127965383Y-96385740D01*
X127964167Y-96349280D01*
X127963089Y-96304367D01*
X127962140Y-96250057D01*
X127961312Y-96185410D01*
X127960597Y-96109484D01*
X127959987Y-96021338D01*
X127959942Y-96012493D01*
X128251378Y-96012493D01*
X128255260Y-96013765D01*
X128278520Y-96015791D01*
X128320874Y-96017626D01*
X128380132Y-96019227D01*
X128454107Y-96020549D01*
X128540610Y-96021548D01*
X128637452Y-96022180D01*
X128742445Y-96022400D01*
X129440651Y-96022400D01*
X130595090Y-96022400D01*
X130594456Y-95946200D01*
X130595574Y-95904160D01*
X130601304Y-95868334D01*
X130613890Y-95830772D01*
X130635568Y-95782577D01*
X130638789Y-95775897D01*
X130664188Y-95726359D01*
X130690996Y-95678369D01*
X130713917Y-95641466D01*
X130718485Y-95634834D01*
X130740516Y-95603593D01*
X130772693Y-95558654D01*
X130813457Y-95502147D01*
X130861245Y-95436204D01*
X130914498Y-95362957D01*
X130971655Y-95284536D01*
X131031155Y-95203072D01*
X131091437Y-95120698D01*
X131150940Y-95039544D01*
X131208105Y-94961742D01*
X131261370Y-94889423D01*
X131309174Y-94824718D01*
X131349957Y-94769759D01*
X131382158Y-94726676D01*
X131404216Y-94697602D01*
X131414571Y-94684667D01*
X131419044Y-94680351D01*
X131423236Y-94678312D01*
X131426643Y-94680926D01*
X131429325Y-94689986D01*
X131431341Y-94707285D01*
X131432748Y-94734614D01*
X131433605Y-94773765D01*
X131433970Y-94826533D01*
X131433903Y-94894707D01*
X131433460Y-94980082D01*
X131432702Y-95084449D01*
X131431685Y-95209600D01*
X131431308Y-95254300D01*
X131430169Y-95375395D01*
X131428972Y-95476688D01*
X131427636Y-95560262D01*
X131426077Y-95628204D01*
X131424215Y-95682599D01*
X131421966Y-95725532D01*
X131419248Y-95759089D01*
X131415979Y-95785355D01*
X131412078Y-95806416D01*
X131407461Y-95824357D01*
X131399192Y-95850770D01*
X131375583Y-95912772D01*
X131349685Y-95965573D01*
X131324535Y-96002645D01*
X131323339Y-96004075D01*
X131321168Y-96008424D01*
X131323328Y-96012026D01*
X131331644Y-96014951D01*
X131347940Y-96017269D01*
X131374041Y-96019051D01*
X131411771Y-96020367D01*
X131462956Y-96021286D01*
X131529420Y-96021878D01*
X131612987Y-96022215D01*
X131715483Y-96022365D01*
X131838732Y-96022400D01*
X132370296Y-96022400D01*
X132331523Y-95964783D01*
X132325432Y-95955893D01*
X132314976Y-95941069D01*
X132305579Y-95927422D01*
X132297183Y-95913765D01*
X132289733Y-95898911D01*
X132283173Y-95881670D01*
X132277446Y-95860855D01*
X132272495Y-95835280D01*
X132268266Y-95803755D01*
X132264701Y-95765093D01*
X132261744Y-95718107D01*
X132259340Y-95661608D01*
X132257431Y-95594409D01*
X132255962Y-95515322D01*
X132254876Y-95423160D01*
X132254118Y-95316734D01*
X132253630Y-95194857D01*
X132253358Y-95056341D01*
X132253243Y-94899999D01*
X132253231Y-94724642D01*
X132253265Y-94529082D01*
X132253289Y-94312133D01*
X132253280Y-94189513D01*
X132253243Y-93984447D01*
X132253227Y-93800116D01*
X132253288Y-93635334D01*
X132253484Y-93488916D01*
X132253870Y-93359674D01*
X132254505Y-93246422D01*
X132255444Y-93147975D01*
X132256745Y-93063144D01*
X132258464Y-92990744D01*
X132260659Y-92929589D01*
X132263385Y-92878492D01*
X132266701Y-92836267D01*
X132270662Y-92801727D01*
X132275325Y-92773686D01*
X132280747Y-92750958D01*
X132286986Y-92732356D01*
X132294097Y-92716693D01*
X132302138Y-92702784D01*
X132311166Y-92689441D01*
X132321236Y-92675479D01*
X132332407Y-92659711D01*
X132372197Y-92601867D01*
X131312314Y-92601867D01*
X131350311Y-92664966D01*
X131364993Y-92690005D01*
X131379531Y-92717586D01*
X131391627Y-92745700D01*
X131401532Y-92776551D01*
X131409494Y-92812344D01*
X131415761Y-92855283D01*
X131420582Y-92907574D01*
X131424206Y-92971419D01*
X131426881Y-93049025D01*
X131428857Y-93142594D01*
X131430382Y-93254333D01*
X131431704Y-93386445D01*
X131432613Y-93506434D01*
X131433020Y-93623063D01*
X131432767Y-93718531D01*
X131431857Y-93792556D01*
X131430293Y-93844855D01*
X131428079Y-93875149D01*
X131425220Y-93883156D01*
X131422161Y-93879858D01*
X131404006Y-93858408D01*
X131374275Y-93821889D01*
X131334639Y-93772442D01*
X131286771Y-93712207D01*
X131232343Y-93643327D01*
X131173027Y-93567943D01*
X131110495Y-93488196D01*
X131046421Y-93406228D01*
X130982475Y-93324180D01*
X130920331Y-93244194D01*
X130861661Y-93168411D01*
X130808137Y-93098973D01*
X130761430Y-93038021D01*
X130723214Y-92987696D01*
X130695161Y-92950140D01*
X130678943Y-92927495D01*
X130633635Y-92855212D01*
X130593661Y-92775463D01*
X130572130Y-92707188D01*
X130568827Y-92649844D01*
X130574116Y-92601867D01*
X129442356Y-92602117D01*
X129481867Y-92632722D01*
X129491248Y-92640089D01*
X129554183Y-92694438D01*
X129622997Y-92762259D01*
X129699596Y-92845516D01*
X129785888Y-92946178D01*
X129803052Y-92966847D01*
X129843833Y-93016409D01*
X129893588Y-93077326D01*
X129950955Y-93147898D01*
X130014569Y-93226424D01*
X130083069Y-93311204D01*
X130155090Y-93400537D01*
X130229270Y-93492722D01*
X130244517Y-93511702D01*
X130304246Y-93586060D01*
X130378653Y-93678848D01*
X130451131Y-93769388D01*
X130520314Y-93855978D01*
X130584841Y-93936918D01*
X130643347Y-94010506D01*
X130694470Y-94075044D01*
X130736847Y-94128829D01*
X130769115Y-94170162D01*
X130789910Y-94197342D01*
X130797869Y-94208668D01*
X130796111Y-94212771D01*
X130783230Y-94233334D01*
X130758885Y-94269561D01*
X130724247Y-94319824D01*
X130680486Y-94382492D01*
X130628775Y-94455936D01*
X130570284Y-94538527D01*
X130506184Y-94628636D01*
X130437646Y-94724631D01*
X130365843Y-94824885D01*
X130291944Y-94927768D01*
X130217121Y-95031650D01*
X130142545Y-95134901D01*
X130069387Y-95235892D01*
X129998819Y-95332994D01*
X129932011Y-95424577D01*
X129870135Y-95509011D01*
X129814361Y-95584667D01*
X129765862Y-95649916D01*
X129725807Y-95703128D01*
X129695369Y-95742673D01*
X129674944Y-95768026D01*
X129628899Y-95822295D01*
X129578612Y-95878775D01*
X129531815Y-95928669D01*
X129440651Y-96022400D01*
X128742445Y-96022400D01*
X128811356Y-96022349D01*
X128909607Y-96022091D01*
X128999030Y-96021637D01*
X129077333Y-96021010D01*
X129142223Y-96020235D01*
X129191411Y-96019335D01*
X129222604Y-96018334D01*
X129233511Y-96017257D01*
X129232322Y-96014037D01*
X129222176Y-95996452D01*
X129205040Y-95970158D01*
X129196540Y-95957691D01*
X129187329Y-95943622D01*
X129179233Y-95929351D01*
X129172185Y-95913479D01*
X129166117Y-95894609D01*
X129160961Y-95871341D01*
X129156651Y-95842278D01*
X129153119Y-95806021D01*
X129150297Y-95761170D01*
X129148118Y-95706328D01*
X129146514Y-95640097D01*
X129145419Y-95561077D01*
X129144765Y-95467871D01*
X129144484Y-95359079D01*
X129144509Y-95233303D01*
X129144772Y-95089145D01*
X129145206Y-94925207D01*
X129145745Y-94740089D01*
X129146279Y-94561232D01*
X129146805Y-94402374D01*
X129147350Y-94263316D01*
X129147945Y-94142665D01*
X129148619Y-94039028D01*
X129149403Y-93951011D01*
X129150326Y-93877223D01*
X129151419Y-93816269D01*
X129152712Y-93766757D01*
X129154235Y-93727293D01*
X129156019Y-93696484D01*
X129158092Y-93672938D01*
X129160486Y-93655260D01*
X129163230Y-93642059D01*
X129166356Y-93631940D01*
X129169892Y-93623511D01*
X129173791Y-93615375D01*
X129193438Y-93578544D01*
X129212225Y-93548391D01*
X129213272Y-93546908D01*
X129227602Y-93524659D01*
X129233511Y-93511702D01*
X129232504Y-93511249D01*
X129215305Y-93509803D01*
X129178656Y-93508480D01*
X129124962Y-93507316D01*
X129056630Y-93506347D01*
X128976064Y-93505611D01*
X128885670Y-93505142D01*
X128787853Y-93504978D01*
X128342195Y-93504978D01*
X128339120Y-94681845D01*
X128336045Y-95858711D01*
X128309407Y-95917622D01*
X128297485Y-95942183D01*
X128280246Y-95972434D01*
X128267074Y-95989560D01*
X128259076Y-95997591D01*
X128251378Y-96012493D01*
X127959942Y-96012493D01*
X127959474Y-95920029D01*
X127959050Y-95804617D01*
X127958706Y-95674160D01*
X127958434Y-95527716D01*
X127958227Y-95364344D01*
X127958076Y-95183101D01*
X127957972Y-94983048D01*
X127957908Y-94763241D01*
X127957876Y-94522739D01*
X127957867Y-94260602D01*
X127957867Y-92069031D01*
X127996249Y-92030649D01*
X128023355Y-92006911D01*
X128050253Y-91995111D01*
X128086560Y-91992267D01*
X128138489Y-91992267D01*
X128138489Y-92080206D01*
X128140427Y-92130102D01*
X128159199Y-92240523D01*
X128196217Y-92341987D01*
X128249369Y-92433152D01*
X128316546Y-92512673D01*
X128395638Y-92579205D01*
X128484534Y-92631406D01*
X128581125Y-92667930D01*
X128683300Y-92687434D01*
X128788950Y-92688573D01*
X128895964Y-92670005D01*
X129002232Y-92630384D01*
X129099219Y-92572516D01*
X129184293Y-92497684D01*
X129253015Y-92409615D01*
X129303918Y-92310616D01*
X129335535Y-92202993D01*
X129346400Y-92089054D01*
X129346400Y-91992267D01*
X130966753Y-91992267D01*
X131177897Y-91992280D01*
X131382020Y-91992330D01*
X131565686Y-91992430D01*
X131729991Y-91992592D01*
X131876029Y-91992829D01*
X132004894Y-91993153D01*
X132117683Y-91993575D01*
X132215488Y-91994109D01*
X132299404Y-91994767D01*
X132370527Y-91995561D01*
X132429950Y-91996504D01*
X132478768Y-91997608D01*
X132518077Y-91998884D01*
X132548969Y-92000347D01*
X132572541Y-92002007D01*
X132589886Y-92003878D01*
X132602099Y-92005972D01*
X132610275Y-92008300D01*
X132615508Y-92010876D01*
X132621504Y-92014445D01*
X132628279Y-92017978D01*
X132634478Y-92021488D01*
X132640126Y-92025918D01*
X132645247Y-92032208D01*
X132649869Y-92041301D01*
X132654015Y-92054139D01*
X132657713Y-92071662D01*
X132660987Y-92094813D01*
X132663863Y-92124534D01*
X132666367Y-92161765D01*
X132668524Y-92207449D01*
X132670360Y-92262527D01*
X132671900Y-92327941D01*
X132673170Y-92404633D01*
X132674195Y-92493544D01*
X132675001Y-92595617D01*
X132675034Y-92601867D01*
X132675614Y-92711792D01*
G37*
%TD*%
M02*
