%TF.GenerationSoftware,KiCad,Pcbnew,9.0.7*%
%TF.CreationDate,2026-01-31T17:49:56-05:00*%
%TF.ProjectId,ProJect 1 LED Torch,50726f4a-6563-4742-9031-204c45442054,1*%
%TF.SameCoordinates,Original*%
%TF.FileFunction,Legend,Bot*%
%TF.FilePolarity,Positive*%
%FSLAX46Y46*%
G04 Gerber Fmt 4.6, Leading zero omitted, Abs format (unit mm)*
G04 Created by KiCad (PCBNEW 9.0.7) date 2026-01-31 17:49:56*
%MOMM*%
%LPD*%
G01*
G04 APERTURE LIST*
%ADD10C,0.100000*%
%ADD11C,0.010000*%
%ADD12C,1.700000*%
%ADD13R,1.800000X1.800000*%
%ADD14C,1.800000*%
%ADD15C,1.400000*%
G04 APERTURE END LIST*
D10*
X101830963Y-116372419D02*
X101497630Y-117372419D01*
X101497630Y-117372419D02*
X101164297Y-116372419D01*
X100450011Y-117324800D02*
X100545249Y-117372419D01*
X100545249Y-117372419D02*
X100735725Y-117372419D01*
X100735725Y-117372419D02*
X100830963Y-117324800D01*
X100830963Y-117324800D02*
X100878582Y-117229561D01*
X100878582Y-117229561D02*
X100878582Y-116848609D01*
X100878582Y-116848609D02*
X100830963Y-116753371D01*
X100830963Y-116753371D02*
X100735725Y-116705752D01*
X100735725Y-116705752D02*
X100545249Y-116705752D01*
X100545249Y-116705752D02*
X100450011Y-116753371D01*
X100450011Y-116753371D02*
X100402392Y-116848609D01*
X100402392Y-116848609D02*
X100402392Y-116943847D01*
X100402392Y-116943847D02*
X100878582Y-117039085D01*
X99973820Y-117372419D02*
X99973820Y-116705752D01*
X99973820Y-116896228D02*
X99926201Y-116800990D01*
X99926201Y-116800990D02*
X99878582Y-116753371D01*
X99878582Y-116753371D02*
X99783344Y-116705752D01*
X99783344Y-116705752D02*
X99688106Y-116705752D01*
X99402391Y-117324800D02*
X99307153Y-117372419D01*
X99307153Y-117372419D02*
X99116677Y-117372419D01*
X99116677Y-117372419D02*
X99021439Y-117324800D01*
X99021439Y-117324800D02*
X98973820Y-117229561D01*
X98973820Y-117229561D02*
X98973820Y-117181942D01*
X98973820Y-117181942D02*
X99021439Y-117086704D01*
X99021439Y-117086704D02*
X99116677Y-117039085D01*
X99116677Y-117039085D02*
X99259534Y-117039085D01*
X99259534Y-117039085D02*
X99354772Y-116991466D01*
X99354772Y-116991466D02*
X99402391Y-116896228D01*
X99402391Y-116896228D02*
X99402391Y-116848609D01*
X99402391Y-116848609D02*
X99354772Y-116753371D01*
X99354772Y-116753371D02*
X99259534Y-116705752D01*
X99259534Y-116705752D02*
X99116677Y-116705752D01*
X99116677Y-116705752D02*
X99021439Y-116753371D01*
X98545248Y-117372419D02*
X98545248Y-116705752D01*
X98545248Y-116372419D02*
X98592867Y-116420038D01*
X98592867Y-116420038D02*
X98545248Y-116467657D01*
X98545248Y-116467657D02*
X98497629Y-116420038D01*
X98497629Y-116420038D02*
X98545248Y-116372419D01*
X98545248Y-116372419D02*
X98545248Y-116467657D01*
X97926201Y-117372419D02*
X98021439Y-117324800D01*
X98021439Y-117324800D02*
X98069058Y-117277180D01*
X98069058Y-117277180D02*
X98116677Y-117181942D01*
X98116677Y-117181942D02*
X98116677Y-116896228D01*
X98116677Y-116896228D02*
X98069058Y-116800990D01*
X98069058Y-116800990D02*
X98021439Y-116753371D01*
X98021439Y-116753371D02*
X97926201Y-116705752D01*
X97926201Y-116705752D02*
X97783344Y-116705752D01*
X97783344Y-116705752D02*
X97688106Y-116753371D01*
X97688106Y-116753371D02*
X97640487Y-116800990D01*
X97640487Y-116800990D02*
X97592868Y-116896228D01*
X97592868Y-116896228D02*
X97592868Y-117181942D01*
X97592868Y-117181942D02*
X97640487Y-117277180D01*
X97640487Y-117277180D02*
X97688106Y-117324800D01*
X97688106Y-117324800D02*
X97783344Y-117372419D01*
X97783344Y-117372419D02*
X97926201Y-117372419D01*
X97164296Y-116705752D02*
X97164296Y-117372419D01*
X97164296Y-116800990D02*
X97116677Y-116753371D01*
X97116677Y-116753371D02*
X97021439Y-116705752D01*
X97021439Y-116705752D02*
X96878582Y-116705752D01*
X96878582Y-116705752D02*
X96783344Y-116753371D01*
X96783344Y-116753371D02*
X96735725Y-116848609D01*
X96735725Y-116848609D02*
X96735725Y-117372419D01*
X94973820Y-117372419D02*
X95545248Y-117372419D01*
X95259534Y-117372419D02*
X95259534Y-116372419D01*
X95259534Y-116372419D02*
X95354772Y-116515276D01*
X95354772Y-116515276D02*
X95450010Y-116610514D01*
X95450010Y-116610514D02*
X95545248Y-116658133D01*
X94545248Y-117277180D02*
X94497629Y-117324800D01*
X94497629Y-117324800D02*
X94545248Y-117372419D01*
X94545248Y-117372419D02*
X94592867Y-117324800D01*
X94592867Y-117324800D02*
X94545248Y-117277180D01*
X94545248Y-117277180D02*
X94545248Y-117372419D01*
X93878582Y-116372419D02*
X93783344Y-116372419D01*
X93783344Y-116372419D02*
X93688106Y-116420038D01*
X93688106Y-116420038D02*
X93640487Y-116467657D01*
X93640487Y-116467657D02*
X93592868Y-116562895D01*
X93592868Y-116562895D02*
X93545249Y-116753371D01*
X93545249Y-116753371D02*
X93545249Y-116991466D01*
X93545249Y-116991466D02*
X93592868Y-117181942D01*
X93592868Y-117181942D02*
X93640487Y-117277180D01*
X93640487Y-117277180D02*
X93688106Y-117324800D01*
X93688106Y-117324800D02*
X93783344Y-117372419D01*
X93783344Y-117372419D02*
X93878582Y-117372419D01*
X93878582Y-117372419D02*
X93973820Y-117324800D01*
X93973820Y-117324800D02*
X94021439Y-117277180D01*
X94021439Y-117277180D02*
X94069058Y-117181942D01*
X94069058Y-117181942D02*
X94116677Y-116991466D01*
X94116677Y-116991466D02*
X94116677Y-116753371D01*
X94116677Y-116753371D02*
X94069058Y-116562895D01*
X94069058Y-116562895D02*
X94021439Y-116467657D01*
X94021439Y-116467657D02*
X93973820Y-116420038D01*
X93973820Y-116420038D02*
X93878582Y-116372419D01*
D11*
%TO.C,REF\u002A\u002A*%
X94855406Y-114774949D02*
X94881127Y-114790647D01*
X94907778Y-114812227D01*
X94907778Y-115459684D01*
X94881127Y-115481264D01*
X94849767Y-115498739D01*
X94813966Y-115499575D01*
X94782528Y-115479082D01*
X94778652Y-115474416D01*
X94773186Y-115464949D01*
X94768979Y-115451267D01*
X94765867Y-115430748D01*
X94763687Y-115400768D01*
X94762276Y-115358704D01*
X94761471Y-115301932D01*
X94761107Y-115227830D01*
X94761022Y-115133773D01*
X94761022Y-114812227D01*
X94787673Y-114790647D01*
X94811386Y-114775877D01*
X94834400Y-114769067D01*
X94855406Y-114774949D01*
G36*
X94855406Y-114774949D02*
G01*
X94881127Y-114790647D01*
X94907778Y-114812227D01*
X94907778Y-115459684D01*
X94881127Y-115481264D01*
X94849767Y-115498739D01*
X94813966Y-115499575D01*
X94782528Y-115479082D01*
X94778652Y-115474416D01*
X94773186Y-115464949D01*
X94768979Y-115451267D01*
X94765867Y-115430748D01*
X94763687Y-115400768D01*
X94762276Y-115358704D01*
X94761471Y-115301932D01*
X94761107Y-115227830D01*
X94761022Y-115133773D01*
X94761022Y-114812227D01*
X94787673Y-114790647D01*
X94811386Y-114775877D01*
X94834400Y-114769067D01*
X94855406Y-114774949D01*
G37*
X101986137Y-114773463D02*
X102020291Y-114796776D01*
X102048000Y-114824485D01*
X102048000Y-115137537D01*
X102047959Y-115221567D01*
X102047701Y-115295789D01*
X102047030Y-115352541D01*
X102045752Y-115394512D01*
X102043673Y-115424389D01*
X102040599Y-115444861D01*
X102036334Y-115458614D01*
X102030684Y-115468337D01*
X102023455Y-115476717D01*
X101991991Y-115498181D01*
X101956826Y-115499947D01*
X101923822Y-115480267D01*
X101918516Y-115474398D01*
X101913066Y-115465314D01*
X101908900Y-115451973D01*
X101905846Y-115431757D01*
X101903732Y-115402049D01*
X101902386Y-115360232D01*
X101901638Y-115303689D01*
X101901314Y-115229802D01*
X101901245Y-115135956D01*
X101901284Y-115060294D01*
X101901539Y-114982385D01*
X101902183Y-114922375D01*
X101903387Y-114877648D01*
X101905324Y-114845585D01*
X101908164Y-114823571D01*
X101912079Y-114808987D01*
X101917242Y-114799218D01*
X101923822Y-114791645D01*
X101953006Y-114772623D01*
X101986137Y-114773463D01*
G36*
X101986137Y-114773463D02*
G01*
X102020291Y-114796776D01*
X102048000Y-114824485D01*
X102048000Y-115137537D01*
X102047959Y-115221567D01*
X102047701Y-115295789D01*
X102047030Y-115352541D01*
X102045752Y-115394512D01*
X102043673Y-115424389D01*
X102040599Y-115444861D01*
X102036334Y-115458614D01*
X102030684Y-115468337D01*
X102023455Y-115476717D01*
X101991991Y-115498181D01*
X101956826Y-115499947D01*
X101923822Y-115480267D01*
X101918516Y-115474398D01*
X101913066Y-115465314D01*
X101908900Y-115451973D01*
X101905846Y-115431757D01*
X101903732Y-115402049D01*
X101902386Y-115360232D01*
X101901638Y-115303689D01*
X101901314Y-115229802D01*
X101901245Y-115135956D01*
X101901284Y-115060294D01*
X101901539Y-114982385D01*
X101902183Y-114922375D01*
X101903387Y-114877648D01*
X101905324Y-114845585D01*
X101908164Y-114823571D01*
X101912079Y-114808987D01*
X101917242Y-114799218D01*
X101923822Y-114791645D01*
X101953006Y-114772623D01*
X101986137Y-114773463D01*
G37*
X101454562Y-109532850D02*
X101537313Y-109560053D01*
X101612406Y-109605484D01*
X101684298Y-109671302D01*
X101722846Y-109715567D01*
X101762256Y-109773961D01*
X101787446Y-109834586D01*
X101800861Y-109903865D01*
X101804948Y-109988222D01*
X101804669Y-110034307D01*
X101802460Y-110075450D01*
X101796894Y-110107582D01*
X101786586Y-110138122D01*
X101770148Y-110174489D01*
X101756200Y-110201728D01*
X101697665Y-110287429D01*
X101625619Y-110356617D01*
X101541947Y-110407741D01*
X101448531Y-110439250D01*
X101415434Y-110446225D01*
X101374960Y-110453094D01*
X101341999Y-110454919D01*
X101307698Y-110451947D01*
X101263200Y-110444426D01*
X101211934Y-110432002D01*
X101121434Y-110394112D01*
X101042345Y-110339836D01*
X100976528Y-110271770D01*
X100925840Y-110192511D01*
X100892140Y-110104654D01*
X100877286Y-110010795D01*
X100883136Y-109913530D01*
X100909399Y-109817220D01*
X100954418Y-109728494D01*
X101015373Y-109653419D01*
X101090184Y-109593641D01*
X101176768Y-109550809D01*
X101273043Y-109526571D01*
X101376928Y-109522576D01*
X101454562Y-109532850D01*
G36*
X101454562Y-109532850D02*
G01*
X101537313Y-109560053D01*
X101612406Y-109605484D01*
X101684298Y-109671302D01*
X101722846Y-109715567D01*
X101762256Y-109773961D01*
X101787446Y-109834586D01*
X101800861Y-109903865D01*
X101804948Y-109988222D01*
X101804669Y-110034307D01*
X101802460Y-110075450D01*
X101796894Y-110107582D01*
X101786586Y-110138122D01*
X101770148Y-110174489D01*
X101756200Y-110201728D01*
X101697665Y-110287429D01*
X101625619Y-110356617D01*
X101541947Y-110407741D01*
X101448531Y-110439250D01*
X101415434Y-110446225D01*
X101374960Y-110453094D01*
X101341999Y-110454919D01*
X101307698Y-110451947D01*
X101263200Y-110444426D01*
X101211934Y-110432002D01*
X101121434Y-110394112D01*
X101042345Y-110339836D01*
X100976528Y-110271770D01*
X100925840Y-110192511D01*
X100892140Y-110104654D01*
X100877286Y-110010795D01*
X100883136Y-109913530D01*
X100909399Y-109817220D01*
X100954418Y-109728494D01*
X101015373Y-109653419D01*
X101090184Y-109593641D01*
X101176768Y-109550809D01*
X101273043Y-109526571D01*
X101376928Y-109522576D01*
X101454562Y-109532850D01*
G37*
X94155767Y-114769068D02*
X94249890Y-114769158D01*
X94324405Y-114769498D01*
X94381811Y-114770239D01*
X94424611Y-114771535D01*
X94455304Y-114773537D01*
X94476391Y-114776396D01*
X94490373Y-114780266D01*
X94499750Y-114785298D01*
X94507022Y-114791645D01*
X94525828Y-114824362D01*
X94527275Y-114861939D01*
X94510917Y-114895178D01*
X94509557Y-114896631D01*
X94498354Y-114904992D01*
X94481252Y-114910547D01*
X94454082Y-114913840D01*
X94412678Y-114915418D01*
X94352873Y-114915822D01*
X94213511Y-114915822D01*
X94213511Y-115179589D01*
X94213436Y-115255417D01*
X94213028Y-115322083D01*
X94212046Y-115371867D01*
X94210250Y-115407784D01*
X94207399Y-115432850D01*
X94203253Y-115450081D01*
X94197571Y-115462492D01*
X94190114Y-115473100D01*
X94187824Y-115475906D01*
X94156646Y-115498548D01*
X94122266Y-115500112D01*
X94089334Y-115480267D01*
X94082355Y-115472191D01*
X94076883Y-115461593D01*
X94072863Y-115445749D01*
X94070072Y-115421773D01*
X94068288Y-115386774D01*
X94067289Y-115337864D01*
X94066852Y-115272154D01*
X94066756Y-115186756D01*
X94066756Y-114915822D01*
X93920820Y-114915822D01*
X93909720Y-114915821D01*
X93853202Y-114915596D01*
X93814358Y-114914457D01*
X93788965Y-114911657D01*
X93772804Y-114906450D01*
X93761652Y-114898089D01*
X93751289Y-114885826D01*
X93735441Y-114855138D01*
X93738543Y-114821358D01*
X93764187Y-114788822D01*
X93769129Y-114785105D01*
X93779338Y-114780269D01*
X93794764Y-114776506D01*
X93817886Y-114773683D01*
X93851183Y-114771670D01*
X93897137Y-114770333D01*
X93958228Y-114769542D01*
X94036935Y-114769163D01*
X94135740Y-114769067D01*
X94155767Y-114769068D01*
G36*
X94155767Y-114769068D02*
G01*
X94249890Y-114769158D01*
X94324405Y-114769498D01*
X94381811Y-114770239D01*
X94424611Y-114771535D01*
X94455304Y-114773537D01*
X94476391Y-114776396D01*
X94490373Y-114780266D01*
X94499750Y-114785298D01*
X94507022Y-114791645D01*
X94525828Y-114824362D01*
X94527275Y-114861939D01*
X94510917Y-114895178D01*
X94509557Y-114896631D01*
X94498354Y-114904992D01*
X94481252Y-114910547D01*
X94454082Y-114913840D01*
X94412678Y-114915418D01*
X94352873Y-114915822D01*
X94213511Y-114915822D01*
X94213511Y-115179589D01*
X94213436Y-115255417D01*
X94213028Y-115322083D01*
X94212046Y-115371867D01*
X94210250Y-115407784D01*
X94207399Y-115432850D01*
X94203253Y-115450081D01*
X94197571Y-115462492D01*
X94190114Y-115473100D01*
X94187824Y-115475906D01*
X94156646Y-115498548D01*
X94122266Y-115500112D01*
X94089334Y-115480267D01*
X94082355Y-115472191D01*
X94076883Y-115461593D01*
X94072863Y-115445749D01*
X94070072Y-115421773D01*
X94068288Y-115386774D01*
X94067289Y-115337864D01*
X94066852Y-115272154D01*
X94066756Y-115186756D01*
X94066756Y-114915822D01*
X93920820Y-114915822D01*
X93909720Y-114915821D01*
X93853202Y-114915596D01*
X93814358Y-114914457D01*
X93788965Y-114911657D01*
X93772804Y-114906450D01*
X93761652Y-114898089D01*
X93751289Y-114885826D01*
X93735441Y-114855138D01*
X93738543Y-114821358D01*
X93764187Y-114788822D01*
X93769129Y-114785105D01*
X93779338Y-114780269D01*
X93794764Y-114776506D01*
X93817886Y-114773683D01*
X93851183Y-114771670D01*
X93897137Y-114770333D01*
X93958228Y-114769542D01*
X94036935Y-114769163D01*
X94135740Y-114769067D01*
X94155767Y-114769068D01*
G37*
X93479734Y-114791645D02*
X93485366Y-114797835D01*
X93490456Y-114806041D01*
X93494543Y-114817817D01*
X93497721Y-114835276D01*
X93500087Y-114860530D01*
X93501738Y-114895690D01*
X93502769Y-114942869D01*
X93503277Y-115004177D01*
X93503359Y-115081727D01*
X93503109Y-115177631D01*
X93502625Y-115294000D01*
X93502557Y-115308175D01*
X93501971Y-115369937D01*
X93500648Y-115413620D01*
X93498103Y-115443001D01*
X93493848Y-115461855D01*
X93487396Y-115473959D01*
X93478262Y-115483089D01*
X93444804Y-115500506D01*
X93409856Y-115497604D01*
X93378953Y-115473100D01*
X93369944Y-115459897D01*
X93362492Y-115441361D01*
X93358124Y-115415333D01*
X93356069Y-115376787D01*
X93355556Y-115320700D01*
X93355556Y-115198045D01*
X92858845Y-115198045D01*
X92858845Y-115332871D01*
X92858772Y-115368662D01*
X92858009Y-115414992D01*
X92855833Y-115445526D01*
X92851536Y-115464557D01*
X92844412Y-115476374D01*
X92833755Y-115485271D01*
X92801504Y-115500341D01*
X92766217Y-115497673D01*
X92735486Y-115473100D01*
X92730831Y-115466845D01*
X92724895Y-115456321D01*
X92720364Y-115442391D01*
X92717048Y-115422317D01*
X92714759Y-115393360D01*
X92713308Y-115352780D01*
X92712505Y-115297840D01*
X92712162Y-115225799D01*
X92712089Y-115133920D01*
X92712089Y-114824485D01*
X92739798Y-114796776D01*
X92771177Y-114774533D01*
X92804406Y-114771844D01*
X92836267Y-114791645D01*
X92844553Y-114801415D01*
X92851965Y-114817307D01*
X92856302Y-114841275D01*
X92858338Y-114878148D01*
X92858845Y-114932756D01*
X92858845Y-115051289D01*
X93355556Y-115051289D01*
X93355556Y-114935776D01*
X93355994Y-114884078D01*
X93357958Y-114849554D01*
X93362474Y-114826978D01*
X93370567Y-114811126D01*
X93383265Y-114796776D01*
X93414643Y-114774533D01*
X93447872Y-114771844D01*
X93479734Y-114791645D01*
G36*
X93479734Y-114791645D02*
G01*
X93485366Y-114797835D01*
X93490456Y-114806041D01*
X93494543Y-114817817D01*
X93497721Y-114835276D01*
X93500087Y-114860530D01*
X93501738Y-114895690D01*
X93502769Y-114942869D01*
X93503277Y-115004177D01*
X93503359Y-115081727D01*
X93503109Y-115177631D01*
X93502625Y-115294000D01*
X93502557Y-115308175D01*
X93501971Y-115369937D01*
X93500648Y-115413620D01*
X93498103Y-115443001D01*
X93493848Y-115461855D01*
X93487396Y-115473959D01*
X93478262Y-115483089D01*
X93444804Y-115500506D01*
X93409856Y-115497604D01*
X93378953Y-115473100D01*
X93369944Y-115459897D01*
X93362492Y-115441361D01*
X93358124Y-115415333D01*
X93356069Y-115376787D01*
X93355556Y-115320700D01*
X93355556Y-115198045D01*
X92858845Y-115198045D01*
X92858845Y-115332871D01*
X92858772Y-115368662D01*
X92858009Y-115414992D01*
X92855833Y-115445526D01*
X92851536Y-115464557D01*
X92844412Y-115476374D01*
X92833755Y-115485271D01*
X92801504Y-115500341D01*
X92766217Y-115497673D01*
X92735486Y-115473100D01*
X92730831Y-115466845D01*
X92724895Y-115456321D01*
X92720364Y-115442391D01*
X92717048Y-115422317D01*
X92714759Y-115393360D01*
X92713308Y-115352780D01*
X92712505Y-115297840D01*
X92712162Y-115225799D01*
X92712089Y-115133920D01*
X92712089Y-114824485D01*
X92739798Y-114796776D01*
X92771177Y-114774533D01*
X92804406Y-114771844D01*
X92836267Y-114791645D01*
X92844553Y-114801415D01*
X92851965Y-114817307D01*
X92856302Y-114841275D01*
X92858338Y-114878148D01*
X92858845Y-114932756D01*
X92858845Y-115051289D01*
X93355556Y-115051289D01*
X93355556Y-114935776D01*
X93355994Y-114884078D01*
X93357958Y-114849554D01*
X93362474Y-114826978D01*
X93370567Y-114811126D01*
X93383265Y-114796776D01*
X93414643Y-114774533D01*
X93447872Y-114771844D01*
X93479734Y-114791645D01*
G37*
X98185133Y-115380396D02*
X98183163Y-115413175D01*
X98180235Y-115436095D01*
X98176158Y-115451897D01*
X98170743Y-115463319D01*
X98163803Y-115473100D01*
X98140406Y-115502845D01*
X97974714Y-115502251D01*
X97939918Y-115501953D01*
X97841435Y-115498522D01*
X97760473Y-115490839D01*
X97693379Y-115478282D01*
X97636496Y-115460227D01*
X97586169Y-115436052D01*
X97582810Y-115434135D01*
X97524998Y-115397417D01*
X97482644Y-115360451D01*
X97449828Y-115316966D01*
X97420628Y-115260689D01*
X97416346Y-115251073D01*
X97393769Y-115187887D01*
X97388034Y-115142333D01*
X97537279Y-115142333D01*
X97542892Y-115167061D01*
X97548618Y-115182939D01*
X97581548Y-115242847D01*
X97628886Y-115288600D01*
X97692652Y-115321736D01*
X97774861Y-115343790D01*
X97777655Y-115344292D01*
X97823940Y-115350255D01*
X97880336Y-115354483D01*
X97935274Y-115356089D01*
X98029156Y-115356089D01*
X98029156Y-114915822D01*
X97941667Y-114916270D01*
X97874747Y-114918746D01*
X97782349Y-114929998D01*
X97703034Y-114949537D01*
X97641060Y-114976511D01*
X97610120Y-114997240D01*
X97582000Y-115027006D01*
X97558660Y-115069434D01*
X97551533Y-115085400D01*
X97539709Y-115117902D01*
X97537279Y-115142333D01*
X97388034Y-115142333D01*
X97386797Y-115132509D01*
X97395399Y-115077483D01*
X97419541Y-115015351D01*
X97420337Y-115013658D01*
X97460788Y-114944236D01*
X97511473Y-114887638D01*
X97574198Y-114843070D01*
X97650774Y-114809741D01*
X97743009Y-114786861D01*
X97852712Y-114773636D01*
X97981691Y-114769275D01*
X97985263Y-114769270D01*
X98045283Y-114769410D01*
X98087214Y-114770446D01*
X98115328Y-114773040D01*
X98133897Y-114777853D01*
X98147194Y-114785544D01*
X98159491Y-114796776D01*
X98187200Y-114824485D01*
X98187200Y-115133920D01*
X98187175Y-115195526D01*
X98186950Y-115274311D01*
X98186332Y-115335021D01*
X98185775Y-115356089D01*
X98185133Y-115380396D01*
G36*
X98185133Y-115380396D02*
G01*
X98183163Y-115413175D01*
X98180235Y-115436095D01*
X98176158Y-115451897D01*
X98170743Y-115463319D01*
X98163803Y-115473100D01*
X98140406Y-115502845D01*
X97974714Y-115502251D01*
X97939918Y-115501953D01*
X97841435Y-115498522D01*
X97760473Y-115490839D01*
X97693379Y-115478282D01*
X97636496Y-115460227D01*
X97586169Y-115436052D01*
X97582810Y-115434135D01*
X97524998Y-115397417D01*
X97482644Y-115360451D01*
X97449828Y-115316966D01*
X97420628Y-115260689D01*
X97416346Y-115251073D01*
X97393769Y-115187887D01*
X97388034Y-115142333D01*
X97537279Y-115142333D01*
X97542892Y-115167061D01*
X97548618Y-115182939D01*
X97581548Y-115242847D01*
X97628886Y-115288600D01*
X97692652Y-115321736D01*
X97774861Y-115343790D01*
X97777655Y-115344292D01*
X97823940Y-115350255D01*
X97880336Y-115354483D01*
X97935274Y-115356089D01*
X98029156Y-115356089D01*
X98029156Y-114915822D01*
X97941667Y-114916270D01*
X97874747Y-114918746D01*
X97782349Y-114929998D01*
X97703034Y-114949537D01*
X97641060Y-114976511D01*
X97610120Y-114997240D01*
X97582000Y-115027006D01*
X97558660Y-115069434D01*
X97551533Y-115085400D01*
X97539709Y-115117902D01*
X97537279Y-115142333D01*
X97388034Y-115142333D01*
X97386797Y-115132509D01*
X97395399Y-115077483D01*
X97419541Y-115015351D01*
X97420337Y-115013658D01*
X97460788Y-114944236D01*
X97511473Y-114887638D01*
X97574198Y-114843070D01*
X97650774Y-114809741D01*
X97743009Y-114786861D01*
X97852712Y-114773636D01*
X97981691Y-114769275D01*
X97985263Y-114769270D01*
X98045283Y-114769410D01*
X98087214Y-114770446D01*
X98115328Y-114773040D01*
X98133897Y-114777853D01*
X98147194Y-114785544D01*
X98159491Y-114796776D01*
X98187200Y-114824485D01*
X98187200Y-115133920D01*
X98187175Y-115195526D01*
X98186950Y-115274311D01*
X98186332Y-115335021D01*
X98185775Y-115356089D01*
X98185133Y-115380396D01*
G37*
X105276817Y-114954427D02*
X105276870Y-115035041D01*
X105276622Y-115135956D01*
X105276583Y-115211617D01*
X105276328Y-115289526D01*
X105275684Y-115349536D01*
X105274480Y-115394264D01*
X105272543Y-115426326D01*
X105269703Y-115448340D01*
X105265788Y-115462924D01*
X105260626Y-115472694D01*
X105254045Y-115480267D01*
X105247077Y-115486501D01*
X105234079Y-115493801D01*
X105214931Y-115498554D01*
X105185528Y-115501292D01*
X105141762Y-115502545D01*
X105079528Y-115502845D01*
X105030582Y-115502469D01*
X104923722Y-115498041D01*
X104834494Y-115487953D01*
X104759696Y-115471365D01*
X104696125Y-115447435D01*
X104640579Y-115415321D01*
X104589854Y-115374182D01*
X104583866Y-115368330D01*
X104546999Y-115319821D01*
X104515899Y-115259013D01*
X104494417Y-115194769D01*
X104489136Y-115156026D01*
X104636353Y-115156026D01*
X104654635Y-115206961D01*
X104684305Y-115252878D01*
X104731002Y-115295287D01*
X104792392Y-115325090D01*
X104871538Y-115344226D01*
X104873028Y-115344464D01*
X104921999Y-115350256D01*
X104980693Y-115354396D01*
X105036734Y-115356004D01*
X105129867Y-115356089D01*
X105129867Y-114915822D01*
X105053667Y-114915808D01*
X105050639Y-114915817D01*
X104999519Y-114917782D01*
X104939416Y-114922507D01*
X104882708Y-114929035D01*
X104832750Y-114938331D01*
X104757998Y-114964600D01*
X104700489Y-115003899D01*
X104658988Y-115056933D01*
X104637771Y-115108200D01*
X104636353Y-115156026D01*
X104489136Y-115156026D01*
X104486400Y-115135956D01*
X104487679Y-115114739D01*
X104499991Y-115057323D01*
X104522520Y-114997413D01*
X104551750Y-114943363D01*
X104584167Y-114903532D01*
X104603708Y-114886510D01*
X104658420Y-114847322D01*
X104718723Y-114817193D01*
X104787919Y-114795232D01*
X104869311Y-114780550D01*
X104966200Y-114772259D01*
X105081889Y-114769467D01*
X105121371Y-114769066D01*
X105167082Y-114768653D01*
X105202883Y-114770457D01*
X105229974Y-114776739D01*
X105249556Y-114789759D01*
X105262830Y-114811778D01*
X105270998Y-114845055D01*
X105275260Y-114891851D01*
X105275857Y-114915822D01*
X105276817Y-114954427D01*
G36*
X105276817Y-114954427D02*
G01*
X105276870Y-115035041D01*
X105276622Y-115135956D01*
X105276583Y-115211617D01*
X105276328Y-115289526D01*
X105275684Y-115349536D01*
X105274480Y-115394264D01*
X105272543Y-115426326D01*
X105269703Y-115448340D01*
X105265788Y-115462924D01*
X105260626Y-115472694D01*
X105254045Y-115480267D01*
X105247077Y-115486501D01*
X105234079Y-115493801D01*
X105214931Y-115498554D01*
X105185528Y-115501292D01*
X105141762Y-115502545D01*
X105079528Y-115502845D01*
X105030582Y-115502469D01*
X104923722Y-115498041D01*
X104834494Y-115487953D01*
X104759696Y-115471365D01*
X104696125Y-115447435D01*
X104640579Y-115415321D01*
X104589854Y-115374182D01*
X104583866Y-115368330D01*
X104546999Y-115319821D01*
X104515899Y-115259013D01*
X104494417Y-115194769D01*
X104489136Y-115156026D01*
X104636353Y-115156026D01*
X104654635Y-115206961D01*
X104684305Y-115252878D01*
X104731002Y-115295287D01*
X104792392Y-115325090D01*
X104871538Y-115344226D01*
X104873028Y-115344464D01*
X104921999Y-115350256D01*
X104980693Y-115354396D01*
X105036734Y-115356004D01*
X105129867Y-115356089D01*
X105129867Y-114915822D01*
X105053667Y-114915808D01*
X105050639Y-114915817D01*
X104999519Y-114917782D01*
X104939416Y-114922507D01*
X104882708Y-114929035D01*
X104832750Y-114938331D01*
X104757998Y-114964600D01*
X104700489Y-115003899D01*
X104658988Y-115056933D01*
X104637771Y-115108200D01*
X104636353Y-115156026D01*
X104489136Y-115156026D01*
X104486400Y-115135956D01*
X104487679Y-115114739D01*
X104499991Y-115057323D01*
X104522520Y-114997413D01*
X104551750Y-114943363D01*
X104584167Y-114903532D01*
X104603708Y-114886510D01*
X104658420Y-114847322D01*
X104718723Y-114817193D01*
X104787919Y-114795232D01*
X104869311Y-114780550D01*
X104966200Y-114772259D01*
X105081889Y-114769467D01*
X105121371Y-114769066D01*
X105167082Y-114768653D01*
X105202883Y-114770457D01*
X105229974Y-114776739D01*
X105249556Y-114789759D01*
X105262830Y-114811778D01*
X105270998Y-114845055D01*
X105275260Y-114891851D01*
X105275857Y-114915822D01*
X105276817Y-114954427D01*
G37*
X100331893Y-114767892D02*
X100343301Y-114774029D01*
X100353850Y-114784691D01*
X100365136Y-114798811D01*
X100369589Y-114804772D01*
X100375588Y-114815268D01*
X100380167Y-114829093D01*
X100383519Y-114848998D01*
X100385833Y-114877732D01*
X100387301Y-114918045D01*
X100388113Y-114972687D01*
X100388460Y-115044407D01*
X100388534Y-115135956D01*
X100388511Y-115194486D01*
X100388292Y-115273573D01*
X100387683Y-115334516D01*
X100386492Y-115380062D01*
X100384529Y-115412963D01*
X100381603Y-115435968D01*
X100377523Y-115451826D01*
X100372097Y-115463286D01*
X100365136Y-115473100D01*
X100334708Y-115497493D01*
X100299765Y-115500372D01*
X100262784Y-115481282D01*
X100258600Y-115477807D01*
X100250424Y-115469279D01*
X100244364Y-115457728D01*
X100239981Y-115439896D01*
X100236839Y-115412524D01*
X100234502Y-115372354D01*
X100232531Y-115316128D01*
X100230489Y-115240589D01*
X100224845Y-115021458D01*
X99959556Y-115262099D01*
X99885722Y-115328875D01*
X99820542Y-115386991D01*
X99768348Y-115431949D01*
X99727273Y-115464871D01*
X99695455Y-115486879D01*
X99671026Y-115499094D01*
X99652124Y-115502639D01*
X99636883Y-115498636D01*
X99623439Y-115488207D01*
X99609927Y-115472474D01*
X99603682Y-115463991D01*
X99598050Y-115453413D01*
X99593839Y-115439255D01*
X99590887Y-115418803D01*
X99589032Y-115389342D01*
X99588113Y-115348161D01*
X99587968Y-115292544D01*
X99588435Y-115219779D01*
X99589352Y-115127151D01*
X99592667Y-114812199D01*
X99619318Y-114790633D01*
X99645383Y-114774441D01*
X99678241Y-114771670D01*
X99712772Y-114790623D01*
X99717084Y-114794208D01*
X99725216Y-114802737D01*
X99731245Y-114814329D01*
X99735606Y-114832235D01*
X99738734Y-114859706D01*
X99741063Y-114899994D01*
X99743029Y-114956351D01*
X99745067Y-115032029D01*
X99750711Y-115251878D01*
X99931334Y-115088084D01*
X100018072Y-115009451D01*
X100093843Y-114941058D01*
X100155980Y-114885708D01*
X100206078Y-114842338D01*
X100245735Y-114809881D01*
X100276548Y-114787273D01*
X100300114Y-114773448D01*
X100318030Y-114767343D01*
X100331893Y-114767892D01*
G36*
X100331893Y-114767892D02*
G01*
X100343301Y-114774029D01*
X100353850Y-114784691D01*
X100365136Y-114798811D01*
X100369589Y-114804772D01*
X100375588Y-114815268D01*
X100380167Y-114829093D01*
X100383519Y-114848998D01*
X100385833Y-114877732D01*
X100387301Y-114918045D01*
X100388113Y-114972687D01*
X100388460Y-115044407D01*
X100388534Y-115135956D01*
X100388511Y-115194486D01*
X100388292Y-115273573D01*
X100387683Y-115334516D01*
X100386492Y-115380062D01*
X100384529Y-115412963D01*
X100381603Y-115435968D01*
X100377523Y-115451826D01*
X100372097Y-115463286D01*
X100365136Y-115473100D01*
X100334708Y-115497493D01*
X100299765Y-115500372D01*
X100262784Y-115481282D01*
X100258600Y-115477807D01*
X100250424Y-115469279D01*
X100244364Y-115457728D01*
X100239981Y-115439896D01*
X100236839Y-115412524D01*
X100234502Y-115372354D01*
X100232531Y-115316128D01*
X100230489Y-115240589D01*
X100224845Y-115021458D01*
X99959556Y-115262099D01*
X99885722Y-115328875D01*
X99820542Y-115386991D01*
X99768348Y-115431949D01*
X99727273Y-115464871D01*
X99695455Y-115486879D01*
X99671026Y-115499094D01*
X99652124Y-115502639D01*
X99636883Y-115498636D01*
X99623439Y-115488207D01*
X99609927Y-115472474D01*
X99603682Y-115463991D01*
X99598050Y-115453413D01*
X99593839Y-115439255D01*
X99590887Y-115418803D01*
X99589032Y-115389342D01*
X99588113Y-115348161D01*
X99587968Y-115292544D01*
X99588435Y-115219779D01*
X99589352Y-115127151D01*
X99592667Y-114812199D01*
X99619318Y-114790633D01*
X99645383Y-114774441D01*
X99678241Y-114771670D01*
X99712772Y-114790623D01*
X99717084Y-114794208D01*
X99725216Y-114802737D01*
X99731245Y-114814329D01*
X99735606Y-114832235D01*
X99738734Y-114859706D01*
X99741063Y-114899994D01*
X99743029Y-114956351D01*
X99745067Y-115032029D01*
X99750711Y-115251878D01*
X99931334Y-115088084D01*
X100018072Y-115009451D01*
X100093843Y-114941058D01*
X100155980Y-114885708D01*
X100206078Y-114842338D01*
X100245735Y-114809881D01*
X100276548Y-114787273D01*
X100300114Y-114773448D01*
X100318030Y-114767343D01*
X100331893Y-114767892D01*
G37*
X101129150Y-114774179D02*
X101235157Y-114790494D01*
X101328969Y-114818545D01*
X101407765Y-114857452D01*
X101468719Y-114906334D01*
X101494789Y-114939195D01*
X101524297Y-114988394D01*
X101549568Y-115042252D01*
X101567218Y-115093419D01*
X101573858Y-115134544D01*
X101572298Y-115154259D01*
X101559357Y-115205592D01*
X101536194Y-115262118D01*
X101506302Y-115316035D01*
X101473173Y-115359539D01*
X101462977Y-115369887D01*
X101395892Y-115421662D01*
X101315766Y-115461554D01*
X101229556Y-115485956D01*
X101174592Y-115494068D01*
X101081139Y-115500673D01*
X100991358Y-115498586D01*
X100908869Y-115488340D01*
X100837286Y-115470470D01*
X100780228Y-115445508D01*
X100741311Y-115413988D01*
X100739936Y-115412012D01*
X100732848Y-115386786D01*
X100728609Y-115339535D01*
X100727200Y-115270071D01*
X100728060Y-115207838D01*
X100732780Y-115160456D01*
X100744470Y-115128353D01*
X100766239Y-115108800D01*
X100801198Y-115099070D01*
X100852456Y-115096433D01*
X100923123Y-115098161D01*
X100971743Y-115101173D01*
X101021939Y-115109366D01*
X101054433Y-115123419D01*
X101071892Y-115144654D01*
X101076983Y-115174394D01*
X101076877Y-115178936D01*
X101068175Y-115213730D01*
X101044165Y-115237147D01*
X101002900Y-115250347D01*
X100942431Y-115254489D01*
X100873956Y-115254489D01*
X100873956Y-115292841D01*
X100874006Y-115301976D01*
X100876227Y-115319227D01*
X100885494Y-115329521D01*
X100906875Y-115336459D01*
X100945436Y-115343641D01*
X100950910Y-115344575D01*
X101047860Y-115354478D01*
X101137852Y-115351559D01*
X101218760Y-115336829D01*
X101288459Y-115311299D01*
X101344824Y-115275978D01*
X101385729Y-115231879D01*
X101409051Y-115180012D01*
X101412663Y-115121388D01*
X101407145Y-115092494D01*
X101380461Y-115036604D01*
X101334273Y-114990945D01*
X101269291Y-114956108D01*
X101186229Y-114932690D01*
X101161555Y-114928241D01*
X101072226Y-114917742D01*
X100992419Y-114918971D01*
X100914326Y-114931906D01*
X100879183Y-114938696D01*
X100833745Y-114939713D01*
X100802430Y-114927182D01*
X100782277Y-114900395D01*
X100775893Y-114872148D01*
X100785379Y-114840924D01*
X100794708Y-114827499D01*
X100828943Y-114803967D01*
X100881565Y-114786095D01*
X100950081Y-114774599D01*
X101032000Y-114770192D01*
X101129150Y-114774179D01*
G36*
X101129150Y-114774179D02*
G01*
X101235157Y-114790494D01*
X101328969Y-114818545D01*
X101407765Y-114857452D01*
X101468719Y-114906334D01*
X101494789Y-114939195D01*
X101524297Y-114988394D01*
X101549568Y-115042252D01*
X101567218Y-115093419D01*
X101573858Y-115134544D01*
X101572298Y-115154259D01*
X101559357Y-115205592D01*
X101536194Y-115262118D01*
X101506302Y-115316035D01*
X101473173Y-115359539D01*
X101462977Y-115369887D01*
X101395892Y-115421662D01*
X101315766Y-115461554D01*
X101229556Y-115485956D01*
X101174592Y-115494068D01*
X101081139Y-115500673D01*
X100991358Y-115498586D01*
X100908869Y-115488340D01*
X100837286Y-115470470D01*
X100780228Y-115445508D01*
X100741311Y-115413988D01*
X100739936Y-115412012D01*
X100732848Y-115386786D01*
X100728609Y-115339535D01*
X100727200Y-115270071D01*
X100728060Y-115207838D01*
X100732780Y-115160456D01*
X100744470Y-115128353D01*
X100766239Y-115108800D01*
X100801198Y-115099070D01*
X100852456Y-115096433D01*
X100923123Y-115098161D01*
X100971743Y-115101173D01*
X101021939Y-115109366D01*
X101054433Y-115123419D01*
X101071892Y-115144654D01*
X101076983Y-115174394D01*
X101076877Y-115178936D01*
X101068175Y-115213730D01*
X101044165Y-115237147D01*
X101002900Y-115250347D01*
X100942431Y-115254489D01*
X100873956Y-115254489D01*
X100873956Y-115292841D01*
X100874006Y-115301976D01*
X100876227Y-115319227D01*
X100885494Y-115329521D01*
X100906875Y-115336459D01*
X100945436Y-115343641D01*
X100950910Y-115344575D01*
X101047860Y-115354478D01*
X101137852Y-115351559D01*
X101218760Y-115336829D01*
X101288459Y-115311299D01*
X101344824Y-115275978D01*
X101385729Y-115231879D01*
X101409051Y-115180012D01*
X101412663Y-115121388D01*
X101407145Y-115092494D01*
X101380461Y-115036604D01*
X101334273Y-114990945D01*
X101269291Y-114956108D01*
X101186229Y-114932690D01*
X101161555Y-114928241D01*
X101072226Y-114917742D01*
X100992419Y-114918971D01*
X100914326Y-114931906D01*
X100879183Y-114938696D01*
X100833745Y-114939713D01*
X100802430Y-114927182D01*
X100782277Y-114900395D01*
X100775893Y-114872148D01*
X100785379Y-114840924D01*
X100794708Y-114827499D01*
X100828943Y-114803967D01*
X100881565Y-114786095D01*
X100950081Y-114774599D01*
X101032000Y-114770192D01*
X101129150Y-114774179D01*
G37*
X99179803Y-114798811D02*
X99184752Y-114805495D01*
X99190596Y-114816066D01*
X99195057Y-114830153D01*
X99198321Y-114850478D01*
X99200574Y-114879765D01*
X99202002Y-114920737D01*
X99202792Y-114976117D01*
X99203129Y-115048628D01*
X99203200Y-115140994D01*
X99203171Y-115206911D01*
X99202939Y-115285228D01*
X99202319Y-115345496D01*
X99201126Y-115390393D01*
X99199179Y-115422602D01*
X99196294Y-115444800D01*
X99192288Y-115459669D01*
X99186979Y-115469889D01*
X99180183Y-115478138D01*
X99175668Y-115482795D01*
X99167438Y-115489282D01*
X99156078Y-115494194D01*
X99138810Y-115497749D01*
X99112855Y-115500167D01*
X99075436Y-115501667D01*
X99023773Y-115502467D01*
X98955089Y-115502787D01*
X98866606Y-115502845D01*
X98846931Y-115502838D01*
X98759906Y-115502572D01*
X98692254Y-115501806D01*
X98641299Y-115500392D01*
X98604367Y-115498180D01*
X98578783Y-115495022D01*
X98561871Y-115490769D01*
X98550957Y-115485271D01*
X98540464Y-115475285D01*
X98527203Y-115444168D01*
X98528386Y-115408280D01*
X98544550Y-115376733D01*
X98546739Y-115374457D01*
X98555427Y-115368189D01*
X98568769Y-115363523D01*
X98589752Y-115360227D01*
X98621363Y-115358068D01*
X98666590Y-115356814D01*
X98728420Y-115356231D01*
X98809839Y-115356089D01*
X99056445Y-115356089D01*
X99056445Y-115198045D01*
X98894006Y-115198045D01*
X98858338Y-115197964D01*
X98802568Y-115197167D01*
X98763430Y-115195162D01*
X98736976Y-115191521D01*
X98719259Y-115185812D01*
X98706329Y-115177607D01*
X98702686Y-115174423D01*
X98684278Y-115143448D01*
X98683644Y-115107112D01*
X98701183Y-115073493D01*
X98701245Y-115073424D01*
X98710916Y-115064798D01*
X98724209Y-115058742D01*
X98744917Y-115054811D01*
X98776828Y-115052556D01*
X98823734Y-115051531D01*
X98889424Y-115051289D01*
X99057571Y-115051289D01*
X99054186Y-114986378D01*
X99050800Y-114921467D01*
X98808723Y-114918414D01*
X98783707Y-114918086D01*
X98702087Y-114916606D01*
X98639768Y-114914222D01*
X98594154Y-114910227D01*
X98562652Y-114903913D01*
X98542667Y-114894574D01*
X98531604Y-114881503D01*
X98526869Y-114863992D01*
X98525867Y-114841335D01*
X98525873Y-114838970D01*
X98527027Y-114818939D01*
X98531824Y-114803146D01*
X98542632Y-114791090D01*
X98561817Y-114782267D01*
X98591745Y-114776175D01*
X98634783Y-114772311D01*
X98693299Y-114770174D01*
X98769657Y-114769260D01*
X98866226Y-114769067D01*
X99156406Y-114769067D01*
X99179803Y-114798811D01*
G36*
X99179803Y-114798811D02*
G01*
X99184752Y-114805495D01*
X99190596Y-114816066D01*
X99195057Y-114830153D01*
X99198321Y-114850478D01*
X99200574Y-114879765D01*
X99202002Y-114920737D01*
X99202792Y-114976117D01*
X99203129Y-115048628D01*
X99203200Y-115140994D01*
X99203171Y-115206911D01*
X99202939Y-115285228D01*
X99202319Y-115345496D01*
X99201126Y-115390393D01*
X99199179Y-115422602D01*
X99196294Y-115444800D01*
X99192288Y-115459669D01*
X99186979Y-115469889D01*
X99180183Y-115478138D01*
X99175668Y-115482795D01*
X99167438Y-115489282D01*
X99156078Y-115494194D01*
X99138810Y-115497749D01*
X99112855Y-115500167D01*
X99075436Y-115501667D01*
X99023773Y-115502467D01*
X98955089Y-115502787D01*
X98866606Y-115502845D01*
X98846931Y-115502838D01*
X98759906Y-115502572D01*
X98692254Y-115501806D01*
X98641299Y-115500392D01*
X98604367Y-115498180D01*
X98578783Y-115495022D01*
X98561871Y-115490769D01*
X98550957Y-115485271D01*
X98540464Y-115475285D01*
X98527203Y-115444168D01*
X98528386Y-115408280D01*
X98544550Y-115376733D01*
X98546739Y-115374457D01*
X98555427Y-115368189D01*
X98568769Y-115363523D01*
X98589752Y-115360227D01*
X98621363Y-115358068D01*
X98666590Y-115356814D01*
X98728420Y-115356231D01*
X98809839Y-115356089D01*
X99056445Y-115356089D01*
X99056445Y-115198045D01*
X98894006Y-115198045D01*
X98858338Y-115197964D01*
X98802568Y-115197167D01*
X98763430Y-115195162D01*
X98736976Y-115191521D01*
X98719259Y-115185812D01*
X98706329Y-115177607D01*
X98702686Y-115174423D01*
X98684278Y-115143448D01*
X98683644Y-115107112D01*
X98701183Y-115073493D01*
X98701245Y-115073424D01*
X98710916Y-115064798D01*
X98724209Y-115058742D01*
X98744917Y-115054811D01*
X98776828Y-115052556D01*
X98823734Y-115051531D01*
X98889424Y-115051289D01*
X99057571Y-115051289D01*
X99054186Y-114986378D01*
X99050800Y-114921467D01*
X98808723Y-114918414D01*
X98783707Y-114918086D01*
X98702087Y-114916606D01*
X98639768Y-114914222D01*
X98594154Y-114910227D01*
X98562652Y-114903913D01*
X98542667Y-114894574D01*
X98531604Y-114881503D01*
X98526869Y-114863992D01*
X98525867Y-114841335D01*
X98525873Y-114838970D01*
X98527027Y-114818939D01*
X98531824Y-114803146D01*
X98542632Y-114791090D01*
X98561817Y-114782267D01*
X98591745Y-114776175D01*
X98634783Y-114772311D01*
X98693299Y-114770174D01*
X98769657Y-114769260D01*
X98866226Y-114769067D01*
X99156406Y-114769067D01*
X99179803Y-114798811D01*
G37*
X103856734Y-114769083D02*
X103933831Y-114769275D01*
X103992777Y-114769860D01*
X104036364Y-114771051D01*
X104067383Y-114773064D01*
X104088625Y-114776112D01*
X104102882Y-114780409D01*
X104112945Y-114786172D01*
X104121606Y-114793612D01*
X104123391Y-114795293D01*
X104130635Y-114802832D01*
X104136277Y-114811850D01*
X104140517Y-114824984D01*
X104143556Y-114844872D01*
X104145594Y-114874151D01*
X104146830Y-114915458D01*
X104147465Y-114971431D01*
X104147700Y-115044707D01*
X104147734Y-115137923D01*
X104147697Y-115210713D01*
X104147448Y-115288889D01*
X104146812Y-115349103D01*
X104145615Y-115393982D01*
X104143684Y-115426152D01*
X104140846Y-115448239D01*
X104136927Y-115462870D01*
X104131755Y-115472670D01*
X104125156Y-115480267D01*
X104121822Y-115483444D01*
X104113300Y-115489554D01*
X104101298Y-115494229D01*
X104083087Y-115497659D01*
X104055940Y-115500036D01*
X104017129Y-115501552D01*
X103963924Y-115502398D01*
X103893598Y-115502765D01*
X103803422Y-115502845D01*
X103761314Y-115502833D01*
X103680167Y-115502651D01*
X103617675Y-115502098D01*
X103571109Y-115500982D01*
X103537741Y-115499113D01*
X103514844Y-115496298D01*
X103499688Y-115492346D01*
X103489546Y-115487066D01*
X103481689Y-115480267D01*
X103466963Y-115458667D01*
X103459111Y-115429467D01*
X103464610Y-115405560D01*
X103481689Y-115378667D01*
X103486668Y-115374059D01*
X103496443Y-115367772D01*
X103510559Y-115363146D01*
X103532054Y-115359930D01*
X103563968Y-115357870D01*
X103609342Y-115356712D01*
X103671213Y-115356202D01*
X103752622Y-115356089D01*
X104000978Y-115356089D01*
X104000978Y-115198045D01*
X103839801Y-115198045D01*
X103803983Y-115197899D01*
X103738359Y-115196176D01*
X103691118Y-115191741D01*
X103659383Y-115183637D01*
X103640277Y-115170906D01*
X103630923Y-115152592D01*
X103628445Y-115127738D01*
X103629242Y-115107482D01*
X103634494Y-115085656D01*
X103647288Y-115070304D01*
X103670628Y-115060309D01*
X103707517Y-115054553D01*
X103760959Y-115051919D01*
X103833958Y-115051289D01*
X104002105Y-115051289D01*
X103998719Y-114986378D01*
X103995334Y-114921467D01*
X103747617Y-114918418D01*
X103685026Y-114917539D01*
X103616565Y-114916095D01*
X103565661Y-114914164D01*
X103529408Y-114911514D01*
X103504901Y-114907910D01*
X103489235Y-114903121D01*
X103479506Y-114896913D01*
X103473491Y-114890510D01*
X103460482Y-114858828D01*
X103464043Y-114823142D01*
X103483818Y-114792084D01*
X103487069Y-114789161D01*
X103496049Y-114782810D01*
X103508153Y-114777957D01*
X103526159Y-114774403D01*
X103552847Y-114771946D01*
X103590997Y-114770385D01*
X103643386Y-114769518D01*
X103712794Y-114769146D01*
X103802001Y-114769067D01*
X103856734Y-114769083D01*
G36*
X103856734Y-114769083D02*
G01*
X103933831Y-114769275D01*
X103992777Y-114769860D01*
X104036364Y-114771051D01*
X104067383Y-114773064D01*
X104088625Y-114776112D01*
X104102882Y-114780409D01*
X104112945Y-114786172D01*
X104121606Y-114793612D01*
X104123391Y-114795293D01*
X104130635Y-114802832D01*
X104136277Y-114811850D01*
X104140517Y-114824984D01*
X104143556Y-114844872D01*
X104145594Y-114874151D01*
X104146830Y-114915458D01*
X104147465Y-114971431D01*
X104147700Y-115044707D01*
X104147734Y-115137923D01*
X104147697Y-115210713D01*
X104147448Y-115288889D01*
X104146812Y-115349103D01*
X104145615Y-115393982D01*
X104143684Y-115426152D01*
X104140846Y-115448239D01*
X104136927Y-115462870D01*
X104131755Y-115472670D01*
X104125156Y-115480267D01*
X104121822Y-115483444D01*
X104113300Y-115489554D01*
X104101298Y-115494229D01*
X104083087Y-115497659D01*
X104055940Y-115500036D01*
X104017129Y-115501552D01*
X103963924Y-115502398D01*
X103893598Y-115502765D01*
X103803422Y-115502845D01*
X103761314Y-115502833D01*
X103680167Y-115502651D01*
X103617675Y-115502098D01*
X103571109Y-115500982D01*
X103537741Y-115499113D01*
X103514844Y-115496298D01*
X103499688Y-115492346D01*
X103489546Y-115487066D01*
X103481689Y-115480267D01*
X103466963Y-115458667D01*
X103459111Y-115429467D01*
X103464610Y-115405560D01*
X103481689Y-115378667D01*
X103486668Y-115374059D01*
X103496443Y-115367772D01*
X103510559Y-115363146D01*
X103532054Y-115359930D01*
X103563968Y-115357870D01*
X103609342Y-115356712D01*
X103671213Y-115356202D01*
X103752622Y-115356089D01*
X104000978Y-115356089D01*
X104000978Y-115198045D01*
X103839801Y-115198045D01*
X103803983Y-115197899D01*
X103738359Y-115196176D01*
X103691118Y-115191741D01*
X103659383Y-115183637D01*
X103640277Y-115170906D01*
X103630923Y-115152592D01*
X103628445Y-115127738D01*
X103629242Y-115107482D01*
X103634494Y-115085656D01*
X103647288Y-115070304D01*
X103670628Y-115060309D01*
X103707517Y-115054553D01*
X103760959Y-115051919D01*
X103833958Y-115051289D01*
X104002105Y-115051289D01*
X103998719Y-114986378D01*
X103995334Y-114921467D01*
X103747617Y-114918418D01*
X103685026Y-114917539D01*
X103616565Y-114916095D01*
X103565661Y-114914164D01*
X103529408Y-114911514D01*
X103504901Y-114907910D01*
X103489235Y-114903121D01*
X103479506Y-114896913D01*
X103473491Y-114890510D01*
X103460482Y-114858828D01*
X103464043Y-114823142D01*
X103483818Y-114792084D01*
X103487069Y-114789161D01*
X103496049Y-114782810D01*
X103508153Y-114777957D01*
X103526159Y-114774403D01*
X103552847Y-114771946D01*
X103590997Y-114770385D01*
X103643386Y-114769518D01*
X103712794Y-114769146D01*
X103802001Y-114769067D01*
X103856734Y-114769083D01*
G37*
X95289702Y-114778478D02*
X95307663Y-114796989D01*
X95328263Y-114828071D01*
X95353095Y-114873756D01*
X95383750Y-114936078D01*
X95421820Y-115017071D01*
X95436454Y-115048454D01*
X95466203Y-115111638D01*
X95492297Y-115166244D01*
X95513292Y-115209290D01*
X95527739Y-115237793D01*
X95534191Y-115248770D01*
X95535550Y-115248189D01*
X95545542Y-115234242D01*
X95562833Y-115204704D01*
X95585430Y-115163087D01*
X95611338Y-115112903D01*
X95627311Y-115081414D01*
X95656261Y-115026061D01*
X95678749Y-114987044D01*
X95696965Y-114961566D01*
X95713096Y-114946831D01*
X95729330Y-114940042D01*
X95747857Y-114938400D01*
X95758360Y-114938875D01*
X95774476Y-114943082D01*
X95789790Y-114953946D01*
X95806388Y-114974219D01*
X95826357Y-115006654D01*
X95851783Y-115054004D01*
X95884752Y-115119022D01*
X95894485Y-115138277D01*
X95918943Y-115184946D01*
X95939178Y-115221109D01*
X95953311Y-115243497D01*
X95959460Y-115248845D01*
X95960827Y-115245573D01*
X95970202Y-115224664D01*
X95987062Y-115187725D01*
X96009979Y-115137874D01*
X96037520Y-115078226D01*
X96068255Y-115011898D01*
X96094970Y-114954677D01*
X96124593Y-114892688D01*
X96147664Y-114846949D01*
X96165643Y-114814908D01*
X96179990Y-114794014D01*
X96192166Y-114781718D01*
X96203632Y-114775466D01*
X96213042Y-114772574D01*
X96238147Y-114772425D01*
X96265290Y-114787768D01*
X96266590Y-114788753D01*
X96288674Y-114811388D01*
X96299723Y-114833613D01*
X96299769Y-114834253D01*
X96295228Y-114851915D01*
X96282364Y-114886481D01*
X96262605Y-114934826D01*
X96237381Y-114993825D01*
X96208119Y-115060355D01*
X96176250Y-115131291D01*
X96143201Y-115203507D01*
X96110401Y-115273880D01*
X96079280Y-115339285D01*
X96051265Y-115396597D01*
X96027786Y-115442692D01*
X96010272Y-115474446D01*
X96000151Y-115488733D01*
X95965743Y-115502102D01*
X95924046Y-115495741D01*
X95918681Y-115491044D01*
X95902852Y-115468893D01*
X95880650Y-115432132D01*
X95854233Y-115384415D01*
X95825760Y-115329393D01*
X95745986Y-115170150D01*
X95672799Y-115316742D01*
X95663103Y-115336032D01*
X95636125Y-115388380D01*
X95612096Y-115433170D01*
X95593332Y-115466154D01*
X95582146Y-115483089D01*
X95581000Y-115484332D01*
X95552879Y-115499619D01*
X95517817Y-115501302D01*
X95486776Y-115488733D01*
X95484350Y-115485884D01*
X95472090Y-115465259D01*
X95452352Y-115427708D01*
X95426448Y-115375880D01*
X95395685Y-115312423D01*
X95361375Y-115239985D01*
X95324825Y-115161216D01*
X95304585Y-115117093D01*
X95267812Y-115036365D01*
X95239355Y-114972687D01*
X95218331Y-114923752D01*
X95203854Y-114887257D01*
X95195039Y-114860895D01*
X95191004Y-114842361D01*
X95190862Y-114829352D01*
X95193730Y-114819561D01*
X95208387Y-114798678D01*
X95234990Y-114778377D01*
X95235745Y-114778035D01*
X95255335Y-114771034D01*
X95272790Y-114770504D01*
X95289702Y-114778478D01*
G36*
X95289702Y-114778478D02*
G01*
X95307663Y-114796989D01*
X95328263Y-114828071D01*
X95353095Y-114873756D01*
X95383750Y-114936078D01*
X95421820Y-115017071D01*
X95436454Y-115048454D01*
X95466203Y-115111638D01*
X95492297Y-115166244D01*
X95513292Y-115209290D01*
X95527739Y-115237793D01*
X95534191Y-115248770D01*
X95535550Y-115248189D01*
X95545542Y-115234242D01*
X95562833Y-115204704D01*
X95585430Y-115163087D01*
X95611338Y-115112903D01*
X95627311Y-115081414D01*
X95656261Y-115026061D01*
X95678749Y-114987044D01*
X95696965Y-114961566D01*
X95713096Y-114946831D01*
X95729330Y-114940042D01*
X95747857Y-114938400D01*
X95758360Y-114938875D01*
X95774476Y-114943082D01*
X95789790Y-114953946D01*
X95806388Y-114974219D01*
X95826357Y-115006654D01*
X95851783Y-115054004D01*
X95884752Y-115119022D01*
X95894485Y-115138277D01*
X95918943Y-115184946D01*
X95939178Y-115221109D01*
X95953311Y-115243497D01*
X95959460Y-115248845D01*
X95960827Y-115245573D01*
X95970202Y-115224664D01*
X95987062Y-115187725D01*
X96009979Y-115137874D01*
X96037520Y-115078226D01*
X96068255Y-115011898D01*
X96094970Y-114954677D01*
X96124593Y-114892688D01*
X96147664Y-114846949D01*
X96165643Y-114814908D01*
X96179990Y-114794014D01*
X96192166Y-114781718D01*
X96203632Y-114775466D01*
X96213042Y-114772574D01*
X96238147Y-114772425D01*
X96265290Y-114787768D01*
X96266590Y-114788753D01*
X96288674Y-114811388D01*
X96299723Y-114833613D01*
X96299769Y-114834253D01*
X96295228Y-114851915D01*
X96282364Y-114886481D01*
X96262605Y-114934826D01*
X96237381Y-114993825D01*
X96208119Y-115060355D01*
X96176250Y-115131291D01*
X96143201Y-115203507D01*
X96110401Y-115273880D01*
X96079280Y-115339285D01*
X96051265Y-115396597D01*
X96027786Y-115442692D01*
X96010272Y-115474446D01*
X96000151Y-115488733D01*
X95965743Y-115502102D01*
X95924046Y-115495741D01*
X95918681Y-115491044D01*
X95902852Y-115468893D01*
X95880650Y-115432132D01*
X95854233Y-115384415D01*
X95825760Y-115329393D01*
X95745986Y-115170150D01*
X95672799Y-115316742D01*
X95663103Y-115336032D01*
X95636125Y-115388380D01*
X95612096Y-115433170D01*
X95593332Y-115466154D01*
X95582146Y-115483089D01*
X95581000Y-115484332D01*
X95552879Y-115499619D01*
X95517817Y-115501302D01*
X95486776Y-115488733D01*
X95484350Y-115485884D01*
X95472090Y-115465259D01*
X95452352Y-115427708D01*
X95426448Y-115375880D01*
X95395685Y-115312423D01*
X95361375Y-115239985D01*
X95324825Y-115161216D01*
X95304585Y-115117093D01*
X95267812Y-115036365D01*
X95239355Y-114972687D01*
X95218331Y-114923752D01*
X95203854Y-114887257D01*
X95195039Y-114860895D01*
X95191004Y-114842361D01*
X95190862Y-114829352D01*
X95193730Y-114819561D01*
X95208387Y-114798678D01*
X95234990Y-114778377D01*
X95235745Y-114778035D01*
X95255335Y-114771034D01*
X95272790Y-114770504D01*
X95289702Y-114778478D01*
G37*
X102840853Y-114769936D02*
X102907100Y-114775366D01*
X102962400Y-114784964D01*
X103013283Y-114799825D01*
X103084595Y-114832958D01*
X103135752Y-114875640D01*
X103166575Y-114927705D01*
X103176889Y-114988983D01*
X103175952Y-115020232D01*
X103170160Y-115045029D01*
X103155353Y-115066699D01*
X103127380Y-115094049D01*
X103119402Y-115101378D01*
X103095692Y-115122281D01*
X103073298Y-115139251D01*
X103049265Y-115153205D01*
X103020637Y-115165056D01*
X102984460Y-115175720D01*
X102937780Y-115186111D01*
X102877641Y-115197146D01*
X102801090Y-115209738D01*
X102705171Y-115224804D01*
X102686808Y-115227838D01*
X102624478Y-115241458D01*
X102579260Y-115257192D01*
X102552976Y-115274263D01*
X102547447Y-115291897D01*
X102550068Y-115296168D01*
X102568000Y-115311233D01*
X102596126Y-115327867D01*
X102608926Y-115333857D01*
X102630224Y-115341050D01*
X102656610Y-115345827D01*
X102692454Y-115348646D01*
X102742128Y-115349964D01*
X102810000Y-115350237D01*
X102827785Y-115350164D01*
X102895406Y-115349053D01*
X102960345Y-115346828D01*
X103015970Y-115343762D01*
X103055651Y-115340127D01*
X103091162Y-115336059D01*
X103120415Y-115335276D01*
X103139315Y-115339876D01*
X103154429Y-115350551D01*
X103158085Y-115354144D01*
X103174427Y-115385918D01*
X103173107Y-115421572D01*
X103154150Y-115452190D01*
X103133780Y-115463796D01*
X103097796Y-115476491D01*
X103055372Y-115486541D01*
X103051922Y-115487140D01*
X103009252Y-115492356D01*
X102951866Y-115496730D01*
X102886849Y-115499818D01*
X102821289Y-115501177D01*
X102805057Y-115501218D01*
X102706744Y-115498741D01*
X102626692Y-115490735D01*
X102561513Y-115476203D01*
X102507817Y-115454149D01*
X102462216Y-115423576D01*
X102421323Y-115383486D01*
X102401202Y-115357259D01*
X102389576Y-115327712D01*
X102386667Y-115287995D01*
X102386808Y-115276026D01*
X102390681Y-115243345D01*
X102403065Y-115216819D01*
X102428230Y-115185971D01*
X102449442Y-115163831D01*
X102475838Y-115141285D01*
X102505555Y-115122917D01*
X102541785Y-115107661D01*
X102587717Y-115094449D01*
X102646544Y-115082214D01*
X102721456Y-115069889D01*
X102815645Y-115056406D01*
X102860957Y-115049396D01*
X102928911Y-115034837D01*
X102978047Y-115018337D01*
X103007614Y-115000439D01*
X103016864Y-114981685D01*
X103005048Y-114962615D01*
X102971416Y-114943771D01*
X102968370Y-114942557D01*
X102922011Y-114930479D01*
X102859361Y-114922279D01*
X102785927Y-114918119D01*
X102707217Y-114918161D01*
X102628739Y-114922569D01*
X102556000Y-114931505D01*
X102552073Y-114932154D01*
X102503257Y-114939861D01*
X102471005Y-114943473D01*
X102450008Y-114942876D01*
X102434954Y-114937954D01*
X102420534Y-114928596D01*
X102419364Y-114927725D01*
X102394847Y-114897351D01*
X102390054Y-114861850D01*
X102405860Y-114827269D01*
X102410406Y-114822813D01*
X102440020Y-114807673D01*
X102487002Y-114794550D01*
X102547306Y-114783750D01*
X102616888Y-114775581D01*
X102691703Y-114770351D01*
X102767706Y-114768367D01*
X102840853Y-114769936D01*
G36*
X102840853Y-114769936D02*
G01*
X102907100Y-114775366D01*
X102962400Y-114784964D01*
X103013283Y-114799825D01*
X103084595Y-114832958D01*
X103135752Y-114875640D01*
X103166575Y-114927705D01*
X103176889Y-114988983D01*
X103175952Y-115020232D01*
X103170160Y-115045029D01*
X103155353Y-115066699D01*
X103127380Y-115094049D01*
X103119402Y-115101378D01*
X103095692Y-115122281D01*
X103073298Y-115139251D01*
X103049265Y-115153205D01*
X103020637Y-115165056D01*
X102984460Y-115175720D01*
X102937780Y-115186111D01*
X102877641Y-115197146D01*
X102801090Y-115209738D01*
X102705171Y-115224804D01*
X102686808Y-115227838D01*
X102624478Y-115241458D01*
X102579260Y-115257192D01*
X102552976Y-115274263D01*
X102547447Y-115291897D01*
X102550068Y-115296168D01*
X102568000Y-115311233D01*
X102596126Y-115327867D01*
X102608926Y-115333857D01*
X102630224Y-115341050D01*
X102656610Y-115345827D01*
X102692454Y-115348646D01*
X102742128Y-115349964D01*
X102810000Y-115350237D01*
X102827785Y-115350164D01*
X102895406Y-115349053D01*
X102960345Y-115346828D01*
X103015970Y-115343762D01*
X103055651Y-115340127D01*
X103091162Y-115336059D01*
X103120415Y-115335276D01*
X103139315Y-115339876D01*
X103154429Y-115350551D01*
X103158085Y-115354144D01*
X103174427Y-115385918D01*
X103173107Y-115421572D01*
X103154150Y-115452190D01*
X103133780Y-115463796D01*
X103097796Y-115476491D01*
X103055372Y-115486541D01*
X103051922Y-115487140D01*
X103009252Y-115492356D01*
X102951866Y-115496730D01*
X102886849Y-115499818D01*
X102821289Y-115501177D01*
X102805057Y-115501218D01*
X102706744Y-115498741D01*
X102626692Y-115490735D01*
X102561513Y-115476203D01*
X102507817Y-115454149D01*
X102462216Y-115423576D01*
X102421323Y-115383486D01*
X102401202Y-115357259D01*
X102389576Y-115327712D01*
X102386667Y-115287995D01*
X102386808Y-115276026D01*
X102390681Y-115243345D01*
X102403065Y-115216819D01*
X102428230Y-115185971D01*
X102449442Y-115163831D01*
X102475838Y-115141285D01*
X102505555Y-115122917D01*
X102541785Y-115107661D01*
X102587717Y-115094449D01*
X102646544Y-115082214D01*
X102721456Y-115069889D01*
X102815645Y-115056406D01*
X102860957Y-115049396D01*
X102928911Y-115034837D01*
X102978047Y-115018337D01*
X103007614Y-115000439D01*
X103016864Y-114981685D01*
X103005048Y-114962615D01*
X102971416Y-114943771D01*
X102968370Y-114942557D01*
X102922011Y-114930479D01*
X102859361Y-114922279D01*
X102785927Y-114918119D01*
X102707217Y-114918161D01*
X102628739Y-114922569D01*
X102556000Y-114931505D01*
X102552073Y-114932154D01*
X102503257Y-114939861D01*
X102471005Y-114943473D01*
X102450008Y-114942876D01*
X102434954Y-114937954D01*
X102420534Y-114928596D01*
X102419364Y-114927725D01*
X102394847Y-114897351D01*
X102390054Y-114861850D01*
X102405860Y-114827269D01*
X102410406Y-114822813D01*
X102440020Y-114807673D01*
X102487002Y-114794550D01*
X102547306Y-114783750D01*
X102616888Y-114775581D01*
X102691703Y-114770351D01*
X102767706Y-114768367D01*
X102840853Y-114769936D01*
G37*
X98988711Y-110462033D02*
X99084268Y-110479523D01*
X99248558Y-110524564D01*
X99402589Y-110587656D01*
X99548509Y-110669915D01*
X99688466Y-110772457D01*
X99824608Y-110896399D01*
X99868473Y-110941661D01*
X99980758Y-111073865D01*
X100073972Y-111211832D01*
X100150719Y-111359750D01*
X100213603Y-111521803D01*
X100217420Y-111533391D01*
X100267507Y-111719392D01*
X100300899Y-111915521D01*
X100317584Y-112117568D01*
X100317551Y-112321325D01*
X100300791Y-112522581D01*
X100267292Y-112717128D01*
X100217044Y-112900756D01*
X100173190Y-113018053D01*
X100095348Y-113180951D01*
X100001828Y-113334866D01*
X99894822Y-113476671D01*
X99776519Y-113603239D01*
X99649111Y-113711441D01*
X99571606Y-113764120D01*
X99444725Y-113833750D01*
X99307243Y-113892468D01*
X99165716Y-113937587D01*
X99026702Y-113966422D01*
X99012597Y-113968106D01*
X98969153Y-113971434D01*
X98911723Y-113974275D01*
X98846122Y-113976373D01*
X98778167Y-113977468D01*
X98651378Y-113975140D01*
X98503673Y-113962136D01*
X98365779Y-113937133D01*
X98232014Y-113899318D01*
X98208562Y-113890889D01*
X98160612Y-113871408D01*
X98104140Y-113846473D01*
X98042379Y-113817722D01*
X97978563Y-113786790D01*
X97915926Y-113755315D01*
X97857703Y-113724934D01*
X97807127Y-113697283D01*
X97767433Y-113673999D01*
X97741854Y-113656718D01*
X97733625Y-113647079D01*
X97735076Y-113643984D01*
X97746250Y-113624079D01*
X97767134Y-113588420D01*
X97796265Y-113539459D01*
X97832181Y-113479646D01*
X97873420Y-113411433D01*
X97918517Y-113337271D01*
X98099785Y-113040008D01*
X98146315Y-113084539D01*
X98237723Y-113162865D01*
X98351334Y-113237439D01*
X98469122Y-113291474D01*
X98589559Y-113324290D01*
X98711117Y-113335211D01*
X98752585Y-113333868D01*
X98870080Y-113315612D01*
X98980089Y-113276617D01*
X99081430Y-113217670D01*
X99172921Y-113139557D01*
X99253380Y-113043064D01*
X99321627Y-112928978D01*
X99337908Y-112894724D01*
X99383982Y-112771240D01*
X99419106Y-112632918D01*
X99443197Y-112483561D01*
X99456173Y-112326973D01*
X99457949Y-112166956D01*
X99448443Y-112007314D01*
X99427572Y-111851850D01*
X99395252Y-111704366D01*
X99351399Y-111568667D01*
X99313982Y-111482076D01*
X99249185Y-111368688D01*
X99173772Y-111275070D01*
X99087418Y-111200959D01*
X98989795Y-111146094D01*
X98880577Y-111110212D01*
X98759439Y-111093051D01*
X98690038Y-111091880D01*
X98567168Y-111106141D01*
X98451664Y-111141241D01*
X98344953Y-111196682D01*
X98248464Y-111271964D01*
X98232720Y-111286440D01*
X98202150Y-111312962D01*
X98179809Y-111330138D01*
X98169691Y-111334787D01*
X98167706Y-111332597D01*
X98153241Y-111313721D01*
X98129400Y-111280397D01*
X98098029Y-111235380D01*
X98060974Y-111181425D01*
X98020083Y-111121285D01*
X97977202Y-111057718D01*
X97934178Y-110993476D01*
X97892857Y-110931315D01*
X97855086Y-110873991D01*
X97822712Y-110824257D01*
X97797582Y-110784868D01*
X97781542Y-110758580D01*
X97776439Y-110748147D01*
X97781050Y-110743941D01*
X97800267Y-110738933D01*
X97809838Y-110736386D01*
X97837809Y-110725249D01*
X97879448Y-110706802D01*
X97930995Y-110682725D01*
X97988690Y-110654699D01*
X97999957Y-110649154D01*
X98177687Y-110569889D01*
X98347490Y-110510385D01*
X98511430Y-110470245D01*
X98671571Y-110449071D01*
X98829977Y-110446466D01*
X98988711Y-110462033D01*
G36*
X98988711Y-110462033D02*
G01*
X99084268Y-110479523D01*
X99248558Y-110524564D01*
X99402589Y-110587656D01*
X99548509Y-110669915D01*
X99688466Y-110772457D01*
X99824608Y-110896399D01*
X99868473Y-110941661D01*
X99980758Y-111073865D01*
X100073972Y-111211832D01*
X100150719Y-111359750D01*
X100213603Y-111521803D01*
X100217420Y-111533391D01*
X100267507Y-111719392D01*
X100300899Y-111915521D01*
X100317584Y-112117568D01*
X100317551Y-112321325D01*
X100300791Y-112522581D01*
X100267292Y-112717128D01*
X100217044Y-112900756D01*
X100173190Y-113018053D01*
X100095348Y-113180951D01*
X100001828Y-113334866D01*
X99894822Y-113476671D01*
X99776519Y-113603239D01*
X99649111Y-113711441D01*
X99571606Y-113764120D01*
X99444725Y-113833750D01*
X99307243Y-113892468D01*
X99165716Y-113937587D01*
X99026702Y-113966422D01*
X99012597Y-113968106D01*
X98969153Y-113971434D01*
X98911723Y-113974275D01*
X98846122Y-113976373D01*
X98778167Y-113977468D01*
X98651378Y-113975140D01*
X98503673Y-113962136D01*
X98365779Y-113937133D01*
X98232014Y-113899318D01*
X98208562Y-113890889D01*
X98160612Y-113871408D01*
X98104140Y-113846473D01*
X98042379Y-113817722D01*
X97978563Y-113786790D01*
X97915926Y-113755315D01*
X97857703Y-113724934D01*
X97807127Y-113697283D01*
X97767433Y-113673999D01*
X97741854Y-113656718D01*
X97733625Y-113647079D01*
X97735076Y-113643984D01*
X97746250Y-113624079D01*
X97767134Y-113588420D01*
X97796265Y-113539459D01*
X97832181Y-113479646D01*
X97873420Y-113411433D01*
X97918517Y-113337271D01*
X98099785Y-113040008D01*
X98146315Y-113084539D01*
X98237723Y-113162865D01*
X98351334Y-113237439D01*
X98469122Y-113291474D01*
X98589559Y-113324290D01*
X98711117Y-113335211D01*
X98752585Y-113333868D01*
X98870080Y-113315612D01*
X98980089Y-113276617D01*
X99081430Y-113217670D01*
X99172921Y-113139557D01*
X99253380Y-113043064D01*
X99321627Y-112928978D01*
X99337908Y-112894724D01*
X99383982Y-112771240D01*
X99419106Y-112632918D01*
X99443197Y-112483561D01*
X99456173Y-112326973D01*
X99457949Y-112166956D01*
X99448443Y-112007314D01*
X99427572Y-111851850D01*
X99395252Y-111704366D01*
X99351399Y-111568667D01*
X99313982Y-111482076D01*
X99249185Y-111368688D01*
X99173772Y-111275070D01*
X99087418Y-111200959D01*
X98989795Y-111146094D01*
X98880577Y-111110212D01*
X98759439Y-111093051D01*
X98690038Y-111091880D01*
X98567168Y-111106141D01*
X98451664Y-111141241D01*
X98344953Y-111196682D01*
X98248464Y-111271964D01*
X98232720Y-111286440D01*
X98202150Y-111312962D01*
X98179809Y-111330138D01*
X98169691Y-111334787D01*
X98167706Y-111332597D01*
X98153241Y-111313721D01*
X98129400Y-111280397D01*
X98098029Y-111235380D01*
X98060974Y-111181425D01*
X98020083Y-111121285D01*
X97977202Y-111057718D01*
X97934178Y-110993476D01*
X97892857Y-110931315D01*
X97855086Y-110873991D01*
X97822712Y-110824257D01*
X97797582Y-110784868D01*
X97781542Y-110758580D01*
X97776439Y-110748147D01*
X97781050Y-110743941D01*
X97800267Y-110738933D01*
X97809838Y-110736386D01*
X97837809Y-110725249D01*
X97879448Y-110706802D01*
X97930995Y-110682725D01*
X97988690Y-110654699D01*
X97999957Y-110649154D01*
X98177687Y-110569889D01*
X98347490Y-110510385D01*
X98511430Y-110470245D01*
X98671571Y-110449071D01*
X98829977Y-110446466D01*
X98988711Y-110462033D01*
G37*
X95185994Y-112742711D02*
X95185268Y-112820158D01*
X95176689Y-112971594D01*
X95157833Y-113108283D01*
X95127837Y-113234276D01*
X95085836Y-113353625D01*
X95030969Y-113470381D01*
X94964167Y-113581179D01*
X94873363Y-113694739D01*
X94769708Y-113790211D01*
X94653887Y-113867073D01*
X94526586Y-113924797D01*
X94388489Y-113962858D01*
X94350793Y-113968666D01*
X94271752Y-113974396D01*
X94183629Y-113974583D01*
X94094236Y-113969539D01*
X94011384Y-113959578D01*
X93942887Y-113945012D01*
X93912035Y-113935364D01*
X93834730Y-113905123D01*
X93757679Y-113867617D01*
X93688200Y-113826614D01*
X93633615Y-113785879D01*
X93610916Y-113766505D01*
X93588201Y-113748662D01*
X93576779Y-113741778D01*
X93575537Y-113743424D01*
X93572728Y-113761205D01*
X93570776Y-113794370D01*
X93570045Y-113837733D01*
X93570045Y-113933689D01*
X92711896Y-113933689D01*
X92746161Y-113872974D01*
X92751355Y-113863868D01*
X92759715Y-113849249D01*
X92767288Y-113835173D01*
X92774112Y-113820540D01*
X92780227Y-113804249D01*
X92785673Y-113785198D01*
X92790487Y-113762286D01*
X92794708Y-113734413D01*
X92798377Y-113700478D01*
X92801531Y-113659379D01*
X92804211Y-113610015D01*
X92806454Y-113551286D01*
X92808299Y-113482090D01*
X92809787Y-113401326D01*
X92810955Y-113307894D01*
X92811844Y-113200692D01*
X92812491Y-113078620D01*
X92812936Y-112940576D01*
X92813218Y-112785459D01*
X92813375Y-112612168D01*
X92813448Y-112419603D01*
X92813474Y-112206662D01*
X92813485Y-112070530D01*
X93615200Y-112070530D01*
X93615200Y-113220721D01*
X93685756Y-113267089D01*
X93726417Y-113290791D01*
X93780546Y-113316639D01*
X93829689Y-113334829D01*
X93893165Y-113350551D01*
X93989331Y-113361541D01*
X94073900Y-113353365D01*
X94147219Y-113325805D01*
X94209637Y-113278642D01*
X94261502Y-113211658D01*
X94303160Y-113124633D01*
X94334962Y-113017350D01*
X94337545Y-113005009D01*
X94346000Y-112943772D01*
X94351663Y-112866692D01*
X94354576Y-112779002D01*
X94354783Y-112685934D01*
X94352330Y-112592720D01*
X94347261Y-112504594D01*
X94339619Y-112426788D01*
X94329448Y-112364533D01*
X94328167Y-112358666D01*
X94299126Y-112248121D01*
X94264610Y-112157575D01*
X94223456Y-112084953D01*
X94174499Y-112028181D01*
X94116574Y-111985184D01*
X94084620Y-111969615D01*
X94011784Y-111950722D01*
X93930443Y-111947465D01*
X93845319Y-111959389D01*
X93761133Y-111986040D01*
X93682608Y-112026962D01*
X93615200Y-112070530D01*
X92813485Y-112070530D01*
X92813493Y-111972245D01*
X92813689Y-110287378D01*
X93719017Y-110287378D01*
X93694585Y-110324067D01*
X93688318Y-110333647D01*
X93662208Y-110379981D01*
X93644469Y-110427102D01*
X93632908Y-110482251D01*
X93625331Y-110552667D01*
X93624839Y-110559650D01*
X93623062Y-110597641D01*
X93621444Y-110651576D01*
X93619999Y-110718703D01*
X93618740Y-110796271D01*
X93617680Y-110881528D01*
X93616829Y-110971724D01*
X93616203Y-111064107D01*
X93615812Y-111155925D01*
X93615670Y-111244427D01*
X93615790Y-111326862D01*
X93616183Y-111400479D01*
X93616862Y-111462526D01*
X93617841Y-111510251D01*
X93619132Y-111540904D01*
X93620747Y-111551733D01*
X93628957Y-111547333D01*
X93650647Y-111532362D01*
X93680014Y-111510448D01*
X93728879Y-111476236D01*
X93817125Y-111429714D01*
X93915916Y-111396046D01*
X94028510Y-111374231D01*
X94158164Y-111363265D01*
X94250670Y-111362219D01*
X94372011Y-111372014D01*
X94482099Y-111396174D01*
X94585389Y-111435785D01*
X94686338Y-111491932D01*
X94731503Y-111522883D01*
X94836911Y-111614115D01*
X94928538Y-111723106D01*
X95006332Y-111849726D01*
X95070241Y-111993845D01*
X95120214Y-112155332D01*
X95156198Y-112334059D01*
X95178143Y-112529895D01*
X95183900Y-112685934D01*
X95185994Y-112742711D01*
G36*
X95185994Y-112742711D02*
G01*
X95185268Y-112820158D01*
X95176689Y-112971594D01*
X95157833Y-113108283D01*
X95127837Y-113234276D01*
X95085836Y-113353625D01*
X95030969Y-113470381D01*
X94964167Y-113581179D01*
X94873363Y-113694739D01*
X94769708Y-113790211D01*
X94653887Y-113867073D01*
X94526586Y-113924797D01*
X94388489Y-113962858D01*
X94350793Y-113968666D01*
X94271752Y-113974396D01*
X94183629Y-113974583D01*
X94094236Y-113969539D01*
X94011384Y-113959578D01*
X93942887Y-113945012D01*
X93912035Y-113935364D01*
X93834730Y-113905123D01*
X93757679Y-113867617D01*
X93688200Y-113826614D01*
X93633615Y-113785879D01*
X93610916Y-113766505D01*
X93588201Y-113748662D01*
X93576779Y-113741778D01*
X93575537Y-113743424D01*
X93572728Y-113761205D01*
X93570776Y-113794370D01*
X93570045Y-113837733D01*
X93570045Y-113933689D01*
X92711896Y-113933689D01*
X92746161Y-113872974D01*
X92751355Y-113863868D01*
X92759715Y-113849249D01*
X92767288Y-113835173D01*
X92774112Y-113820540D01*
X92780227Y-113804249D01*
X92785673Y-113785198D01*
X92790487Y-113762286D01*
X92794708Y-113734413D01*
X92798377Y-113700478D01*
X92801531Y-113659379D01*
X92804211Y-113610015D01*
X92806454Y-113551286D01*
X92808299Y-113482090D01*
X92809787Y-113401326D01*
X92810955Y-113307894D01*
X92811844Y-113200692D01*
X92812491Y-113078620D01*
X92812936Y-112940576D01*
X92813218Y-112785459D01*
X92813375Y-112612168D01*
X92813448Y-112419603D01*
X92813474Y-112206662D01*
X92813485Y-112070530D01*
X93615200Y-112070530D01*
X93615200Y-113220721D01*
X93685756Y-113267089D01*
X93726417Y-113290791D01*
X93780546Y-113316639D01*
X93829689Y-113334829D01*
X93893165Y-113350551D01*
X93989331Y-113361541D01*
X94073900Y-113353365D01*
X94147219Y-113325805D01*
X94209637Y-113278642D01*
X94261502Y-113211658D01*
X94303160Y-113124633D01*
X94334962Y-113017350D01*
X94337545Y-113005009D01*
X94346000Y-112943772D01*
X94351663Y-112866692D01*
X94354576Y-112779002D01*
X94354783Y-112685934D01*
X94352330Y-112592720D01*
X94347261Y-112504594D01*
X94339619Y-112426788D01*
X94329448Y-112364533D01*
X94328167Y-112358666D01*
X94299126Y-112248121D01*
X94264610Y-112157575D01*
X94223456Y-112084953D01*
X94174499Y-112028181D01*
X94116574Y-111985184D01*
X94084620Y-111969615D01*
X94011784Y-111950722D01*
X93930443Y-111947465D01*
X93845319Y-111959389D01*
X93761133Y-111986040D01*
X93682608Y-112026962D01*
X93615200Y-112070530D01*
X92813485Y-112070530D01*
X92813493Y-111972245D01*
X92813689Y-110287378D01*
X93719017Y-110287378D01*
X93694585Y-110324067D01*
X93688318Y-110333647D01*
X93662208Y-110379981D01*
X93644469Y-110427102D01*
X93632908Y-110482251D01*
X93625331Y-110552667D01*
X93624839Y-110559650D01*
X93623062Y-110597641D01*
X93621444Y-110651576D01*
X93619999Y-110718703D01*
X93618740Y-110796271D01*
X93617680Y-110881528D01*
X93616829Y-110971724D01*
X93616203Y-111064107D01*
X93615812Y-111155925D01*
X93615670Y-111244427D01*
X93615790Y-111326862D01*
X93616183Y-111400479D01*
X93616862Y-111462526D01*
X93617841Y-111510251D01*
X93619132Y-111540904D01*
X93620747Y-111551733D01*
X93628957Y-111547333D01*
X93650647Y-111532362D01*
X93680014Y-111510448D01*
X93728879Y-111476236D01*
X93817125Y-111429714D01*
X93915916Y-111396046D01*
X94028510Y-111374231D01*
X94158164Y-111363265D01*
X94250670Y-111362219D01*
X94372011Y-111372014D01*
X94482099Y-111396174D01*
X94585389Y-111435785D01*
X94686338Y-111491932D01*
X94731503Y-111522883D01*
X94836911Y-111614115D01*
X94928538Y-111723106D01*
X95006332Y-111849726D01*
X95070241Y-111993845D01*
X95120214Y-112155332D01*
X95156198Y-112334059D01*
X95178143Y-112529895D01*
X95183900Y-112685934D01*
X95185994Y-112742711D01*
G37*
X97727755Y-113143467D02*
X97727261Y-113177363D01*
X97723632Y-113252202D01*
X97716022Y-113314401D01*
X97703688Y-113370984D01*
X97659313Y-113497076D01*
X97596400Y-113611679D01*
X97516238Y-113712568D01*
X97419740Y-113798924D01*
X97307822Y-113869932D01*
X97181397Y-113924776D01*
X97041378Y-113962638D01*
X97005149Y-113968351D01*
X96926155Y-113974313D01*
X96837841Y-113974646D01*
X96748075Y-113969659D01*
X96664722Y-113959666D01*
X96595651Y-113944978D01*
X96509187Y-113914749D01*
X96399286Y-113860057D01*
X96301956Y-113792543D01*
X96239867Y-113741556D01*
X96236605Y-113837622D01*
X96233343Y-113933689D01*
X95810450Y-113933689D01*
X95799543Y-113933686D01*
X95705056Y-113933380D01*
X95618331Y-113932616D01*
X95541837Y-113931451D01*
X95478043Y-113929942D01*
X95429418Y-113928147D01*
X95398433Y-113926121D01*
X95387556Y-113923922D01*
X95387578Y-113923463D01*
X95394614Y-113907910D01*
X95410434Y-113885071D01*
X95414734Y-113879638D01*
X95425777Y-113865606D01*
X95435311Y-113852186D01*
X95443461Y-113837722D01*
X95450352Y-113820556D01*
X95456111Y-113799034D01*
X95460862Y-113771498D01*
X95464731Y-113736292D01*
X95467844Y-113691760D01*
X95470325Y-113636246D01*
X95472300Y-113568093D01*
X95473894Y-113485645D01*
X95475234Y-113387246D01*
X95476444Y-113271239D01*
X95477649Y-113135968D01*
X95478595Y-113024586D01*
X96279378Y-113024586D01*
X96279378Y-113220462D01*
X96324048Y-113276973D01*
X96336785Y-113292212D01*
X96383604Y-113334844D01*
X96444255Y-113370672D01*
X96454897Y-113375850D01*
X96493676Y-113392745D01*
X96528692Y-113402909D01*
X96568722Y-113408325D01*
X96622541Y-113410978D01*
X96640648Y-113411383D01*
X96716011Y-113408540D01*
X96776743Y-113396620D01*
X96828452Y-113374037D01*
X96876746Y-113339211D01*
X96881803Y-113334798D01*
X96930272Y-113279160D01*
X96958459Y-113215333D01*
X96967752Y-113140282D01*
X96960520Y-113068693D01*
X96935796Y-113005645D01*
X96891249Y-112947758D01*
X96836319Y-112900808D01*
X96763894Y-112860961D01*
X96677340Y-112833263D01*
X96574670Y-112817096D01*
X96453894Y-112811842D01*
X96445007Y-112811857D01*
X96389660Y-112812655D01*
X96342736Y-112814488D01*
X96308953Y-112817111D01*
X96293028Y-112820274D01*
X96288943Y-112826741D01*
X96284572Y-112848875D01*
X96281604Y-112887988D01*
X96279914Y-112945939D01*
X96279378Y-113024586D01*
X95478595Y-113024586D01*
X95478975Y-112979778D01*
X95480228Y-112837012D01*
X95481651Y-112691942D01*
X95483176Y-112566027D01*
X95484933Y-112457436D01*
X95487051Y-112364334D01*
X95489660Y-112284891D01*
X95492890Y-112217273D01*
X95496869Y-112159649D01*
X95501728Y-112110185D01*
X95507597Y-112067050D01*
X95514604Y-112028410D01*
X95522880Y-111992434D01*
X95532554Y-111957289D01*
X95543756Y-111921142D01*
X95556616Y-111882161D01*
X95572090Y-111839091D01*
X95614994Y-111746871D01*
X95668735Y-111667099D01*
X95737576Y-111592965D01*
X95815185Y-111529405D01*
X95919761Y-111467725D01*
X96039244Y-111420202D01*
X96174508Y-111386567D01*
X96326426Y-111366552D01*
X96495872Y-111359889D01*
X96553890Y-111360287D01*
X96619398Y-111362335D01*
X96680693Y-111366704D01*
X96742097Y-111374035D01*
X96807932Y-111384969D01*
X96882520Y-111400147D01*
X96970184Y-111420209D01*
X97075245Y-111445797D01*
X97103806Y-111452820D01*
X97179054Y-111470776D01*
X97249388Y-111486820D01*
X97310567Y-111500028D01*
X97358354Y-111509474D01*
X97388511Y-111514231D01*
X97416783Y-111517910D01*
X97443060Y-111523187D01*
X97453059Y-111527942D01*
X97449952Y-111536781D01*
X97439194Y-111564072D01*
X97421864Y-111606906D01*
X97399126Y-111662425D01*
X97372147Y-111727772D01*
X97342090Y-111800089D01*
X97335493Y-111815879D01*
X97296907Y-111906484D01*
X97265768Y-111976217D01*
X97241917Y-112025405D01*
X97225198Y-112054374D01*
X97215454Y-112063452D01*
X97207766Y-112061405D01*
X97181415Y-112051760D01*
X97142982Y-112036190D01*
X97097822Y-112016815D01*
X97003293Y-111978814D01*
X96866480Y-111937780D01*
X96725289Y-111912612D01*
X96687314Y-111908611D01*
X96584059Y-111906447D01*
X96496952Y-111919622D01*
X96425129Y-111948756D01*
X96367731Y-111994466D01*
X96323896Y-112057372D01*
X96292762Y-112138092D01*
X96273470Y-112237245D01*
X96266050Y-112296224D01*
X96427936Y-112289445D01*
X96554495Y-112287813D01*
X96705951Y-112294194D01*
X96854396Y-112308777D01*
X96990578Y-112330882D01*
X97055245Y-112345821D01*
X97187490Y-112388741D01*
X97309762Y-112445340D01*
X97419685Y-112514017D01*
X97514883Y-112593170D01*
X97592980Y-112681196D01*
X97651599Y-112776493D01*
X97675595Y-112828864D01*
X97701232Y-112899590D01*
X97717478Y-112970812D01*
X97725822Y-113049712D01*
X97727690Y-113140282D01*
X97727755Y-113143467D01*
G36*
X97727755Y-113143467D02*
G01*
X97727261Y-113177363D01*
X97723632Y-113252202D01*
X97716022Y-113314401D01*
X97703688Y-113370984D01*
X97659313Y-113497076D01*
X97596400Y-113611679D01*
X97516238Y-113712568D01*
X97419740Y-113798924D01*
X97307822Y-113869932D01*
X97181397Y-113924776D01*
X97041378Y-113962638D01*
X97005149Y-113968351D01*
X96926155Y-113974313D01*
X96837841Y-113974646D01*
X96748075Y-113969659D01*
X96664722Y-113959666D01*
X96595651Y-113944978D01*
X96509187Y-113914749D01*
X96399286Y-113860057D01*
X96301956Y-113792543D01*
X96239867Y-113741556D01*
X96236605Y-113837622D01*
X96233343Y-113933689D01*
X95810450Y-113933689D01*
X95799543Y-113933686D01*
X95705056Y-113933380D01*
X95618331Y-113932616D01*
X95541837Y-113931451D01*
X95478043Y-113929942D01*
X95429418Y-113928147D01*
X95398433Y-113926121D01*
X95387556Y-113923922D01*
X95387578Y-113923463D01*
X95394614Y-113907910D01*
X95410434Y-113885071D01*
X95414734Y-113879638D01*
X95425777Y-113865606D01*
X95435311Y-113852186D01*
X95443461Y-113837722D01*
X95450352Y-113820556D01*
X95456111Y-113799034D01*
X95460862Y-113771498D01*
X95464731Y-113736292D01*
X95467844Y-113691760D01*
X95470325Y-113636246D01*
X95472300Y-113568093D01*
X95473894Y-113485645D01*
X95475234Y-113387246D01*
X95476444Y-113271239D01*
X95477649Y-113135968D01*
X95478595Y-113024586D01*
X96279378Y-113024586D01*
X96279378Y-113220462D01*
X96324048Y-113276973D01*
X96336785Y-113292212D01*
X96383604Y-113334844D01*
X96444255Y-113370672D01*
X96454897Y-113375850D01*
X96493676Y-113392745D01*
X96528692Y-113402909D01*
X96568722Y-113408325D01*
X96622541Y-113410978D01*
X96640648Y-113411383D01*
X96716011Y-113408540D01*
X96776743Y-113396620D01*
X96828452Y-113374037D01*
X96876746Y-113339211D01*
X96881803Y-113334798D01*
X96930272Y-113279160D01*
X96958459Y-113215333D01*
X96967752Y-113140282D01*
X96960520Y-113068693D01*
X96935796Y-113005645D01*
X96891249Y-112947758D01*
X96836319Y-112900808D01*
X96763894Y-112860961D01*
X96677340Y-112833263D01*
X96574670Y-112817096D01*
X96453894Y-112811842D01*
X96445007Y-112811857D01*
X96389660Y-112812655D01*
X96342736Y-112814488D01*
X96308953Y-112817111D01*
X96293028Y-112820274D01*
X96288943Y-112826741D01*
X96284572Y-112848875D01*
X96281604Y-112887988D01*
X96279914Y-112945939D01*
X96279378Y-113024586D01*
X95478595Y-113024586D01*
X95478975Y-112979778D01*
X95480228Y-112837012D01*
X95481651Y-112691942D01*
X95483176Y-112566027D01*
X95484933Y-112457436D01*
X95487051Y-112364334D01*
X95489660Y-112284891D01*
X95492890Y-112217273D01*
X95496869Y-112159649D01*
X95501728Y-112110185D01*
X95507597Y-112067050D01*
X95514604Y-112028410D01*
X95522880Y-111992434D01*
X95532554Y-111957289D01*
X95543756Y-111921142D01*
X95556616Y-111882161D01*
X95572090Y-111839091D01*
X95614994Y-111746871D01*
X95668735Y-111667099D01*
X95737576Y-111592965D01*
X95815185Y-111529405D01*
X95919761Y-111467725D01*
X96039244Y-111420202D01*
X96174508Y-111386567D01*
X96326426Y-111366552D01*
X96495872Y-111359889D01*
X96553890Y-111360287D01*
X96619398Y-111362335D01*
X96680693Y-111366704D01*
X96742097Y-111374035D01*
X96807932Y-111384969D01*
X96882520Y-111400147D01*
X96970184Y-111420209D01*
X97075245Y-111445797D01*
X97103806Y-111452820D01*
X97179054Y-111470776D01*
X97249388Y-111486820D01*
X97310567Y-111500028D01*
X97358354Y-111509474D01*
X97388511Y-111514231D01*
X97416783Y-111517910D01*
X97443060Y-111523187D01*
X97453059Y-111527942D01*
X97449952Y-111536781D01*
X97439194Y-111564072D01*
X97421864Y-111606906D01*
X97399126Y-111662425D01*
X97372147Y-111727772D01*
X97342090Y-111800089D01*
X97335493Y-111815879D01*
X97296907Y-111906484D01*
X97265768Y-111976217D01*
X97241917Y-112025405D01*
X97225198Y-112054374D01*
X97215454Y-112063452D01*
X97207766Y-112061405D01*
X97181415Y-112051760D01*
X97142982Y-112036190D01*
X97097822Y-112016815D01*
X97003293Y-111978814D01*
X96866480Y-111937780D01*
X96725289Y-111912612D01*
X96687314Y-111908611D01*
X96584059Y-111906447D01*
X96496952Y-111919622D01*
X96425129Y-111948756D01*
X96367731Y-111994466D01*
X96323896Y-112057372D01*
X96292762Y-112138092D01*
X96273470Y-112237245D01*
X96266050Y-112296224D01*
X96427936Y-112289445D01*
X96554495Y-112287813D01*
X96705951Y-112294194D01*
X96854396Y-112308777D01*
X96990578Y-112330882D01*
X97055245Y-112345821D01*
X97187490Y-112388741D01*
X97309762Y-112445340D01*
X97419685Y-112514017D01*
X97514883Y-112593170D01*
X97592980Y-112681196D01*
X97651599Y-112776493D01*
X97675595Y-112828864D01*
X97701232Y-112899590D01*
X97717478Y-112970812D01*
X97725822Y-113049712D01*
X97727690Y-113140282D01*
X97727755Y-113143467D01*
G37*
X105275614Y-110611792D02*
X105276059Y-110743011D01*
X105276362Y-110890216D01*
X105276548Y-111054349D01*
X105276642Y-111236352D01*
X105276671Y-111437165D01*
X105276661Y-111657732D01*
X105276636Y-111898992D01*
X105276622Y-112161889D01*
X105276622Y-112204040D01*
X105276646Y-112464668D01*
X105276685Y-112703796D01*
X105276708Y-112922360D01*
X105276687Y-113121295D01*
X105276593Y-113301535D01*
X105276395Y-113464015D01*
X105276063Y-113609670D01*
X105275569Y-113739434D01*
X105274883Y-113854243D01*
X105273976Y-113955030D01*
X105272817Y-114042730D01*
X105271378Y-114118279D01*
X105269629Y-114182611D01*
X105267540Y-114236661D01*
X105265083Y-114281363D01*
X105262227Y-114317652D01*
X105258943Y-114346463D01*
X105255202Y-114368731D01*
X105250974Y-114385390D01*
X105246229Y-114397375D01*
X105240939Y-114405621D01*
X105235073Y-114411062D01*
X105228602Y-114414634D01*
X105221497Y-114417270D01*
X105213728Y-114419906D01*
X105205266Y-114423477D01*
X105200908Y-114425145D01*
X105192395Y-114427111D01*
X105179694Y-114428911D01*
X105161885Y-114430555D01*
X105138049Y-114432047D01*
X105107266Y-114433397D01*
X105068617Y-114434611D01*
X105021182Y-114435697D01*
X104964043Y-114436661D01*
X104896279Y-114437511D01*
X104816971Y-114438253D01*
X104725199Y-114438897D01*
X104620044Y-114439447D01*
X104500587Y-114439913D01*
X104365908Y-114440300D01*
X104215088Y-114440616D01*
X104047206Y-114440869D01*
X103861345Y-114441066D01*
X103656583Y-114441213D01*
X103432002Y-114441318D01*
X103186682Y-114441389D01*
X102919704Y-114441432D01*
X102881321Y-114441437D01*
X102615922Y-114441480D01*
X102372050Y-114441525D01*
X102148783Y-114441548D01*
X101945196Y-114441524D01*
X101760367Y-114441430D01*
X101593373Y-114441243D01*
X101443290Y-114440939D01*
X101309196Y-114440494D01*
X101190166Y-114439885D01*
X101085279Y-114439089D01*
X100993610Y-114438080D01*
X100914237Y-114436837D01*
X100846237Y-114435335D01*
X100788686Y-114433551D01*
X100740662Y-114431461D01*
X100701240Y-114429042D01*
X100669499Y-114426270D01*
X100644514Y-114423121D01*
X100625364Y-114419572D01*
X100611123Y-114415598D01*
X100600871Y-114411178D01*
X100593682Y-114406286D01*
X100588635Y-114400900D01*
X100584805Y-114394996D01*
X100581271Y-114388549D01*
X100577108Y-114381537D01*
X100576025Y-114379687D01*
X100573813Y-114374180D01*
X100571786Y-114365868D01*
X100569938Y-114353809D01*
X100568261Y-114337063D01*
X100566745Y-114314687D01*
X100565383Y-114285740D01*
X100564167Y-114249280D01*
X100563089Y-114204367D01*
X100562140Y-114150057D01*
X100561312Y-114085410D01*
X100560597Y-114009484D01*
X100559987Y-113921338D01*
X100559942Y-113912493D01*
X100851378Y-113912493D01*
X100855260Y-113913765D01*
X100878520Y-113915791D01*
X100920874Y-113917626D01*
X100980132Y-113919227D01*
X101054107Y-113920549D01*
X101140610Y-113921548D01*
X101237452Y-113922180D01*
X101342445Y-113922400D01*
X102040651Y-113922400D01*
X103195090Y-113922400D01*
X103194456Y-113846200D01*
X103195574Y-113804160D01*
X103201304Y-113768334D01*
X103213890Y-113730772D01*
X103235568Y-113682577D01*
X103238789Y-113675897D01*
X103264188Y-113626359D01*
X103290996Y-113578369D01*
X103313917Y-113541466D01*
X103318485Y-113534834D01*
X103340516Y-113503593D01*
X103372693Y-113458654D01*
X103413457Y-113402147D01*
X103461245Y-113336204D01*
X103514498Y-113262957D01*
X103571655Y-113184536D01*
X103631155Y-113103072D01*
X103691437Y-113020698D01*
X103750940Y-112939544D01*
X103808105Y-112861742D01*
X103861370Y-112789423D01*
X103909174Y-112724718D01*
X103949957Y-112669759D01*
X103982158Y-112626676D01*
X104004216Y-112597602D01*
X104014571Y-112584667D01*
X104019044Y-112580351D01*
X104023236Y-112578312D01*
X104026643Y-112580926D01*
X104029325Y-112589986D01*
X104031341Y-112607285D01*
X104032748Y-112634614D01*
X104033605Y-112673765D01*
X104033970Y-112726533D01*
X104033903Y-112794707D01*
X104033460Y-112880082D01*
X104032702Y-112984449D01*
X104031685Y-113109600D01*
X104031308Y-113154300D01*
X104030169Y-113275395D01*
X104028972Y-113376688D01*
X104027636Y-113460262D01*
X104026077Y-113528204D01*
X104024215Y-113582599D01*
X104021966Y-113625532D01*
X104019248Y-113659089D01*
X104015979Y-113685355D01*
X104012078Y-113706416D01*
X104007461Y-113724357D01*
X103999192Y-113750770D01*
X103975583Y-113812772D01*
X103949685Y-113865573D01*
X103924535Y-113902645D01*
X103923339Y-113904075D01*
X103921168Y-113908424D01*
X103923328Y-113912026D01*
X103931644Y-113914951D01*
X103947940Y-113917269D01*
X103974041Y-113919051D01*
X104011771Y-113920367D01*
X104062956Y-113921286D01*
X104129420Y-113921878D01*
X104212987Y-113922215D01*
X104315483Y-113922365D01*
X104438732Y-113922400D01*
X104970296Y-113922400D01*
X104931523Y-113864783D01*
X104925432Y-113855893D01*
X104914976Y-113841069D01*
X104905579Y-113827422D01*
X104897183Y-113813765D01*
X104889733Y-113798911D01*
X104883173Y-113781670D01*
X104877446Y-113760855D01*
X104872495Y-113735280D01*
X104868266Y-113703755D01*
X104864701Y-113665093D01*
X104861744Y-113618107D01*
X104859340Y-113561608D01*
X104857431Y-113494409D01*
X104855962Y-113415322D01*
X104854876Y-113323160D01*
X104854118Y-113216734D01*
X104853630Y-113094857D01*
X104853358Y-112956341D01*
X104853243Y-112799999D01*
X104853231Y-112624642D01*
X104853265Y-112429082D01*
X104853289Y-112212133D01*
X104853280Y-112089513D01*
X104853243Y-111884447D01*
X104853227Y-111700116D01*
X104853288Y-111535334D01*
X104853484Y-111388916D01*
X104853870Y-111259674D01*
X104854505Y-111146422D01*
X104855444Y-111047975D01*
X104856745Y-110963144D01*
X104858464Y-110890744D01*
X104860659Y-110829589D01*
X104863385Y-110778492D01*
X104866701Y-110736267D01*
X104870662Y-110701727D01*
X104875325Y-110673686D01*
X104880747Y-110650958D01*
X104886986Y-110632356D01*
X104894097Y-110616693D01*
X104902138Y-110602784D01*
X104911166Y-110589441D01*
X104921236Y-110575479D01*
X104932407Y-110559711D01*
X104972197Y-110501867D01*
X103912314Y-110501867D01*
X103950311Y-110564966D01*
X103964993Y-110590005D01*
X103979531Y-110617586D01*
X103991627Y-110645700D01*
X104001532Y-110676551D01*
X104009494Y-110712344D01*
X104015761Y-110755283D01*
X104020582Y-110807574D01*
X104024206Y-110871419D01*
X104026881Y-110949025D01*
X104028857Y-111042594D01*
X104030382Y-111154333D01*
X104031704Y-111286445D01*
X104032613Y-111406434D01*
X104033020Y-111523063D01*
X104032767Y-111618531D01*
X104031857Y-111692556D01*
X104030293Y-111744855D01*
X104028079Y-111775149D01*
X104025220Y-111783156D01*
X104022161Y-111779858D01*
X104004006Y-111758408D01*
X103974275Y-111721889D01*
X103934639Y-111672442D01*
X103886771Y-111612207D01*
X103832343Y-111543327D01*
X103773027Y-111467943D01*
X103710495Y-111388196D01*
X103646421Y-111306228D01*
X103582475Y-111224180D01*
X103520331Y-111144194D01*
X103461661Y-111068411D01*
X103408137Y-110998973D01*
X103361430Y-110938021D01*
X103323214Y-110887696D01*
X103295161Y-110850140D01*
X103278943Y-110827495D01*
X103233635Y-110755212D01*
X103193661Y-110675463D01*
X103172130Y-110607188D01*
X103168827Y-110549844D01*
X103174116Y-110501867D01*
X102042356Y-110502117D01*
X102081867Y-110532722D01*
X102091248Y-110540089D01*
X102154183Y-110594438D01*
X102222997Y-110662259D01*
X102299596Y-110745516D01*
X102385888Y-110846178D01*
X102403052Y-110866847D01*
X102443833Y-110916409D01*
X102493588Y-110977326D01*
X102550955Y-111047898D01*
X102614569Y-111126424D01*
X102683069Y-111211204D01*
X102755090Y-111300537D01*
X102829270Y-111392722D01*
X102844517Y-111411702D01*
X102904246Y-111486060D01*
X102978653Y-111578848D01*
X103051131Y-111669388D01*
X103120314Y-111755978D01*
X103184841Y-111836918D01*
X103243347Y-111910506D01*
X103294470Y-111975044D01*
X103336847Y-112028829D01*
X103369115Y-112070162D01*
X103389910Y-112097342D01*
X103397869Y-112108668D01*
X103396111Y-112112771D01*
X103383230Y-112133334D01*
X103358885Y-112169561D01*
X103324247Y-112219824D01*
X103280486Y-112282492D01*
X103228775Y-112355936D01*
X103170284Y-112438527D01*
X103106184Y-112528636D01*
X103037646Y-112624631D01*
X102965843Y-112724885D01*
X102891944Y-112827768D01*
X102817121Y-112931650D01*
X102742545Y-113034901D01*
X102669387Y-113135892D01*
X102598819Y-113232994D01*
X102532011Y-113324577D01*
X102470135Y-113409011D01*
X102414361Y-113484667D01*
X102365862Y-113549916D01*
X102325807Y-113603128D01*
X102295369Y-113642673D01*
X102274944Y-113668026D01*
X102228899Y-113722295D01*
X102178612Y-113778775D01*
X102131815Y-113828669D01*
X102040651Y-113922400D01*
X101342445Y-113922400D01*
X101411356Y-113922349D01*
X101509607Y-113922091D01*
X101599030Y-113921637D01*
X101677333Y-113921010D01*
X101742223Y-113920235D01*
X101791411Y-113919335D01*
X101822604Y-113918334D01*
X101833511Y-113917257D01*
X101832322Y-113914037D01*
X101822176Y-113896452D01*
X101805040Y-113870158D01*
X101796540Y-113857691D01*
X101787329Y-113843622D01*
X101779233Y-113829351D01*
X101772185Y-113813479D01*
X101766117Y-113794609D01*
X101760961Y-113771341D01*
X101756651Y-113742278D01*
X101753119Y-113706021D01*
X101750297Y-113661170D01*
X101748118Y-113606328D01*
X101746514Y-113540097D01*
X101745419Y-113461077D01*
X101744765Y-113367871D01*
X101744484Y-113259079D01*
X101744509Y-113133303D01*
X101744772Y-112989145D01*
X101745206Y-112825207D01*
X101745745Y-112640089D01*
X101746279Y-112461232D01*
X101746805Y-112302374D01*
X101747350Y-112163316D01*
X101747945Y-112042665D01*
X101748619Y-111939028D01*
X101749403Y-111851011D01*
X101750326Y-111777223D01*
X101751419Y-111716269D01*
X101752712Y-111666757D01*
X101754235Y-111627293D01*
X101756019Y-111596484D01*
X101758092Y-111572938D01*
X101760486Y-111555260D01*
X101763230Y-111542059D01*
X101766356Y-111531940D01*
X101769892Y-111523511D01*
X101773791Y-111515375D01*
X101793438Y-111478544D01*
X101812225Y-111448391D01*
X101813272Y-111446908D01*
X101827602Y-111424659D01*
X101833511Y-111411702D01*
X101832504Y-111411249D01*
X101815305Y-111409803D01*
X101778656Y-111408480D01*
X101724962Y-111407316D01*
X101656630Y-111406347D01*
X101576064Y-111405611D01*
X101485670Y-111405142D01*
X101387853Y-111404978D01*
X100942195Y-111404978D01*
X100939120Y-112581845D01*
X100936045Y-113758711D01*
X100909407Y-113817622D01*
X100897485Y-113842183D01*
X100880246Y-113872434D01*
X100867074Y-113889560D01*
X100859076Y-113897591D01*
X100851378Y-113912493D01*
X100559942Y-113912493D01*
X100559474Y-113820029D01*
X100559050Y-113704617D01*
X100558706Y-113574160D01*
X100558434Y-113427716D01*
X100558227Y-113264344D01*
X100558076Y-113083101D01*
X100557972Y-112883048D01*
X100557908Y-112663241D01*
X100557876Y-112422739D01*
X100557867Y-112160602D01*
X100557867Y-109969031D01*
X100596249Y-109930649D01*
X100623355Y-109906911D01*
X100650253Y-109895111D01*
X100686560Y-109892267D01*
X100738489Y-109892267D01*
X100738489Y-109980206D01*
X100740427Y-110030102D01*
X100759199Y-110140523D01*
X100796217Y-110241987D01*
X100849369Y-110333152D01*
X100916546Y-110412673D01*
X100995638Y-110479205D01*
X101084534Y-110531406D01*
X101181125Y-110567930D01*
X101283300Y-110587434D01*
X101388950Y-110588573D01*
X101495964Y-110570005D01*
X101602232Y-110530384D01*
X101699219Y-110472516D01*
X101784293Y-110397684D01*
X101853015Y-110309615D01*
X101903918Y-110210616D01*
X101935535Y-110102993D01*
X101946400Y-109989054D01*
X101946400Y-109892267D01*
X103566753Y-109892267D01*
X103777897Y-109892280D01*
X103982020Y-109892330D01*
X104165686Y-109892430D01*
X104329991Y-109892592D01*
X104476029Y-109892829D01*
X104604894Y-109893153D01*
X104717683Y-109893575D01*
X104815488Y-109894109D01*
X104899404Y-109894767D01*
X104970527Y-109895561D01*
X105029950Y-109896504D01*
X105078768Y-109897608D01*
X105118077Y-109898884D01*
X105148969Y-109900347D01*
X105172541Y-109902007D01*
X105189886Y-109903878D01*
X105202099Y-109905972D01*
X105210275Y-109908300D01*
X105215508Y-109910876D01*
X105221504Y-109914445D01*
X105228279Y-109917978D01*
X105234478Y-109921488D01*
X105240126Y-109925918D01*
X105245247Y-109932208D01*
X105249869Y-109941301D01*
X105254015Y-109954139D01*
X105257713Y-109971662D01*
X105260987Y-109994813D01*
X105263863Y-110024534D01*
X105266367Y-110061765D01*
X105268524Y-110107449D01*
X105270360Y-110162527D01*
X105271900Y-110227941D01*
X105273170Y-110304633D01*
X105274195Y-110393544D01*
X105275001Y-110495617D01*
X105275034Y-110501867D01*
X105275614Y-110611792D01*
G36*
X105275614Y-110611792D02*
G01*
X105276059Y-110743011D01*
X105276362Y-110890216D01*
X105276548Y-111054349D01*
X105276642Y-111236352D01*
X105276671Y-111437165D01*
X105276661Y-111657732D01*
X105276636Y-111898992D01*
X105276622Y-112161889D01*
X105276622Y-112204040D01*
X105276646Y-112464668D01*
X105276685Y-112703796D01*
X105276708Y-112922360D01*
X105276687Y-113121295D01*
X105276593Y-113301535D01*
X105276395Y-113464015D01*
X105276063Y-113609670D01*
X105275569Y-113739434D01*
X105274883Y-113854243D01*
X105273976Y-113955030D01*
X105272817Y-114042730D01*
X105271378Y-114118279D01*
X105269629Y-114182611D01*
X105267540Y-114236661D01*
X105265083Y-114281363D01*
X105262227Y-114317652D01*
X105258943Y-114346463D01*
X105255202Y-114368731D01*
X105250974Y-114385390D01*
X105246229Y-114397375D01*
X105240939Y-114405621D01*
X105235073Y-114411062D01*
X105228602Y-114414634D01*
X105221497Y-114417270D01*
X105213728Y-114419906D01*
X105205266Y-114423477D01*
X105200908Y-114425145D01*
X105192395Y-114427111D01*
X105179694Y-114428911D01*
X105161885Y-114430555D01*
X105138049Y-114432047D01*
X105107266Y-114433397D01*
X105068617Y-114434611D01*
X105021182Y-114435697D01*
X104964043Y-114436661D01*
X104896279Y-114437511D01*
X104816971Y-114438253D01*
X104725199Y-114438897D01*
X104620044Y-114439447D01*
X104500587Y-114439913D01*
X104365908Y-114440300D01*
X104215088Y-114440616D01*
X104047206Y-114440869D01*
X103861345Y-114441066D01*
X103656583Y-114441213D01*
X103432002Y-114441318D01*
X103186682Y-114441389D01*
X102919704Y-114441432D01*
X102881321Y-114441437D01*
X102615922Y-114441480D01*
X102372050Y-114441525D01*
X102148783Y-114441548D01*
X101945196Y-114441524D01*
X101760367Y-114441430D01*
X101593373Y-114441243D01*
X101443290Y-114440939D01*
X101309196Y-114440494D01*
X101190166Y-114439885D01*
X101085279Y-114439089D01*
X100993610Y-114438080D01*
X100914237Y-114436837D01*
X100846237Y-114435335D01*
X100788686Y-114433551D01*
X100740662Y-114431461D01*
X100701240Y-114429042D01*
X100669499Y-114426270D01*
X100644514Y-114423121D01*
X100625364Y-114419572D01*
X100611123Y-114415598D01*
X100600871Y-114411178D01*
X100593682Y-114406286D01*
X100588635Y-114400900D01*
X100584805Y-114394996D01*
X100581271Y-114388549D01*
X100577108Y-114381537D01*
X100576025Y-114379687D01*
X100573813Y-114374180D01*
X100571786Y-114365868D01*
X100569938Y-114353809D01*
X100568261Y-114337063D01*
X100566745Y-114314687D01*
X100565383Y-114285740D01*
X100564167Y-114249280D01*
X100563089Y-114204367D01*
X100562140Y-114150057D01*
X100561312Y-114085410D01*
X100560597Y-114009484D01*
X100559987Y-113921338D01*
X100559942Y-113912493D01*
X100851378Y-113912493D01*
X100855260Y-113913765D01*
X100878520Y-113915791D01*
X100920874Y-113917626D01*
X100980132Y-113919227D01*
X101054107Y-113920549D01*
X101140610Y-113921548D01*
X101237452Y-113922180D01*
X101342445Y-113922400D01*
X102040651Y-113922400D01*
X103195090Y-113922400D01*
X103194456Y-113846200D01*
X103195574Y-113804160D01*
X103201304Y-113768334D01*
X103213890Y-113730772D01*
X103235568Y-113682577D01*
X103238789Y-113675897D01*
X103264188Y-113626359D01*
X103290996Y-113578369D01*
X103313917Y-113541466D01*
X103318485Y-113534834D01*
X103340516Y-113503593D01*
X103372693Y-113458654D01*
X103413457Y-113402147D01*
X103461245Y-113336204D01*
X103514498Y-113262957D01*
X103571655Y-113184536D01*
X103631155Y-113103072D01*
X103691437Y-113020698D01*
X103750940Y-112939544D01*
X103808105Y-112861742D01*
X103861370Y-112789423D01*
X103909174Y-112724718D01*
X103949957Y-112669759D01*
X103982158Y-112626676D01*
X104004216Y-112597602D01*
X104014571Y-112584667D01*
X104019044Y-112580351D01*
X104023236Y-112578312D01*
X104026643Y-112580926D01*
X104029325Y-112589986D01*
X104031341Y-112607285D01*
X104032748Y-112634614D01*
X104033605Y-112673765D01*
X104033970Y-112726533D01*
X104033903Y-112794707D01*
X104033460Y-112880082D01*
X104032702Y-112984449D01*
X104031685Y-113109600D01*
X104031308Y-113154300D01*
X104030169Y-113275395D01*
X104028972Y-113376688D01*
X104027636Y-113460262D01*
X104026077Y-113528204D01*
X104024215Y-113582599D01*
X104021966Y-113625532D01*
X104019248Y-113659089D01*
X104015979Y-113685355D01*
X104012078Y-113706416D01*
X104007461Y-113724357D01*
X103999192Y-113750770D01*
X103975583Y-113812772D01*
X103949685Y-113865573D01*
X103924535Y-113902645D01*
X103923339Y-113904075D01*
X103921168Y-113908424D01*
X103923328Y-113912026D01*
X103931644Y-113914951D01*
X103947940Y-113917269D01*
X103974041Y-113919051D01*
X104011771Y-113920367D01*
X104062956Y-113921286D01*
X104129420Y-113921878D01*
X104212987Y-113922215D01*
X104315483Y-113922365D01*
X104438732Y-113922400D01*
X104970296Y-113922400D01*
X104931523Y-113864783D01*
X104925432Y-113855893D01*
X104914976Y-113841069D01*
X104905579Y-113827422D01*
X104897183Y-113813765D01*
X104889733Y-113798911D01*
X104883173Y-113781670D01*
X104877446Y-113760855D01*
X104872495Y-113735280D01*
X104868266Y-113703755D01*
X104864701Y-113665093D01*
X104861744Y-113618107D01*
X104859340Y-113561608D01*
X104857431Y-113494409D01*
X104855962Y-113415322D01*
X104854876Y-113323160D01*
X104854118Y-113216734D01*
X104853630Y-113094857D01*
X104853358Y-112956341D01*
X104853243Y-112799999D01*
X104853231Y-112624642D01*
X104853265Y-112429082D01*
X104853289Y-112212133D01*
X104853280Y-112089513D01*
X104853243Y-111884447D01*
X104853227Y-111700116D01*
X104853288Y-111535334D01*
X104853484Y-111388916D01*
X104853870Y-111259674D01*
X104854505Y-111146422D01*
X104855444Y-111047975D01*
X104856745Y-110963144D01*
X104858464Y-110890744D01*
X104860659Y-110829589D01*
X104863385Y-110778492D01*
X104866701Y-110736267D01*
X104870662Y-110701727D01*
X104875325Y-110673686D01*
X104880747Y-110650958D01*
X104886986Y-110632356D01*
X104894097Y-110616693D01*
X104902138Y-110602784D01*
X104911166Y-110589441D01*
X104921236Y-110575479D01*
X104932407Y-110559711D01*
X104972197Y-110501867D01*
X103912314Y-110501867D01*
X103950311Y-110564966D01*
X103964993Y-110590005D01*
X103979531Y-110617586D01*
X103991627Y-110645700D01*
X104001532Y-110676551D01*
X104009494Y-110712344D01*
X104015761Y-110755283D01*
X104020582Y-110807574D01*
X104024206Y-110871419D01*
X104026881Y-110949025D01*
X104028857Y-111042594D01*
X104030382Y-111154333D01*
X104031704Y-111286445D01*
X104032613Y-111406434D01*
X104033020Y-111523063D01*
X104032767Y-111618531D01*
X104031857Y-111692556D01*
X104030293Y-111744855D01*
X104028079Y-111775149D01*
X104025220Y-111783156D01*
X104022161Y-111779858D01*
X104004006Y-111758408D01*
X103974275Y-111721889D01*
X103934639Y-111672442D01*
X103886771Y-111612207D01*
X103832343Y-111543327D01*
X103773027Y-111467943D01*
X103710495Y-111388196D01*
X103646421Y-111306228D01*
X103582475Y-111224180D01*
X103520331Y-111144194D01*
X103461661Y-111068411D01*
X103408137Y-110998973D01*
X103361430Y-110938021D01*
X103323214Y-110887696D01*
X103295161Y-110850140D01*
X103278943Y-110827495D01*
X103233635Y-110755212D01*
X103193661Y-110675463D01*
X103172130Y-110607188D01*
X103168827Y-110549844D01*
X103174116Y-110501867D01*
X102042356Y-110502117D01*
X102081867Y-110532722D01*
X102091248Y-110540089D01*
X102154183Y-110594438D01*
X102222997Y-110662259D01*
X102299596Y-110745516D01*
X102385888Y-110846178D01*
X102403052Y-110866847D01*
X102443833Y-110916409D01*
X102493588Y-110977326D01*
X102550955Y-111047898D01*
X102614569Y-111126424D01*
X102683069Y-111211204D01*
X102755090Y-111300537D01*
X102829270Y-111392722D01*
X102844517Y-111411702D01*
X102904246Y-111486060D01*
X102978653Y-111578848D01*
X103051131Y-111669388D01*
X103120314Y-111755978D01*
X103184841Y-111836918D01*
X103243347Y-111910506D01*
X103294470Y-111975044D01*
X103336847Y-112028829D01*
X103369115Y-112070162D01*
X103389910Y-112097342D01*
X103397869Y-112108668D01*
X103396111Y-112112771D01*
X103383230Y-112133334D01*
X103358885Y-112169561D01*
X103324247Y-112219824D01*
X103280486Y-112282492D01*
X103228775Y-112355936D01*
X103170284Y-112438527D01*
X103106184Y-112528636D01*
X103037646Y-112624631D01*
X102965843Y-112724885D01*
X102891944Y-112827768D01*
X102817121Y-112931650D01*
X102742545Y-113034901D01*
X102669387Y-113135892D01*
X102598819Y-113232994D01*
X102532011Y-113324577D01*
X102470135Y-113409011D01*
X102414361Y-113484667D01*
X102365862Y-113549916D01*
X102325807Y-113603128D01*
X102295369Y-113642673D01*
X102274944Y-113668026D01*
X102228899Y-113722295D01*
X102178612Y-113778775D01*
X102131815Y-113828669D01*
X102040651Y-113922400D01*
X101342445Y-113922400D01*
X101411356Y-113922349D01*
X101509607Y-113922091D01*
X101599030Y-113921637D01*
X101677333Y-113921010D01*
X101742223Y-113920235D01*
X101791411Y-113919335D01*
X101822604Y-113918334D01*
X101833511Y-113917257D01*
X101832322Y-113914037D01*
X101822176Y-113896452D01*
X101805040Y-113870158D01*
X101796540Y-113857691D01*
X101787329Y-113843622D01*
X101779233Y-113829351D01*
X101772185Y-113813479D01*
X101766117Y-113794609D01*
X101760961Y-113771341D01*
X101756651Y-113742278D01*
X101753119Y-113706021D01*
X101750297Y-113661170D01*
X101748118Y-113606328D01*
X101746514Y-113540097D01*
X101745419Y-113461077D01*
X101744765Y-113367871D01*
X101744484Y-113259079D01*
X101744509Y-113133303D01*
X101744772Y-112989145D01*
X101745206Y-112825207D01*
X101745745Y-112640089D01*
X101746279Y-112461232D01*
X101746805Y-112302374D01*
X101747350Y-112163316D01*
X101747945Y-112042665D01*
X101748619Y-111939028D01*
X101749403Y-111851011D01*
X101750326Y-111777223D01*
X101751419Y-111716269D01*
X101752712Y-111666757D01*
X101754235Y-111627293D01*
X101756019Y-111596484D01*
X101758092Y-111572938D01*
X101760486Y-111555260D01*
X101763230Y-111542059D01*
X101766356Y-111531940D01*
X101769892Y-111523511D01*
X101773791Y-111515375D01*
X101793438Y-111478544D01*
X101812225Y-111448391D01*
X101813272Y-111446908D01*
X101827602Y-111424659D01*
X101833511Y-111411702D01*
X101832504Y-111411249D01*
X101815305Y-111409803D01*
X101778656Y-111408480D01*
X101724962Y-111407316D01*
X101656630Y-111406347D01*
X101576064Y-111405611D01*
X101485670Y-111405142D01*
X101387853Y-111404978D01*
X100942195Y-111404978D01*
X100939120Y-112581845D01*
X100936045Y-113758711D01*
X100909407Y-113817622D01*
X100897485Y-113842183D01*
X100880246Y-113872434D01*
X100867074Y-113889560D01*
X100859076Y-113897591D01*
X100851378Y-113912493D01*
X100559942Y-113912493D01*
X100559474Y-113820029D01*
X100559050Y-113704617D01*
X100558706Y-113574160D01*
X100558434Y-113427716D01*
X100558227Y-113264344D01*
X100558076Y-113083101D01*
X100557972Y-112883048D01*
X100557908Y-112663241D01*
X100557876Y-112422739D01*
X100557867Y-112160602D01*
X100557867Y-109969031D01*
X100596249Y-109930649D01*
X100623355Y-109906911D01*
X100650253Y-109895111D01*
X100686560Y-109892267D01*
X100738489Y-109892267D01*
X100738489Y-109980206D01*
X100740427Y-110030102D01*
X100759199Y-110140523D01*
X100796217Y-110241987D01*
X100849369Y-110333152D01*
X100916546Y-110412673D01*
X100995638Y-110479205D01*
X101084534Y-110531406D01*
X101181125Y-110567930D01*
X101283300Y-110587434D01*
X101388950Y-110588573D01*
X101495964Y-110570005D01*
X101602232Y-110530384D01*
X101699219Y-110472516D01*
X101784293Y-110397684D01*
X101853015Y-110309615D01*
X101903918Y-110210616D01*
X101935535Y-110102993D01*
X101946400Y-109989054D01*
X101946400Y-109892267D01*
X103566753Y-109892267D01*
X103777897Y-109892280D01*
X103982020Y-109892330D01*
X104165686Y-109892430D01*
X104329991Y-109892592D01*
X104476029Y-109892829D01*
X104604894Y-109893153D01*
X104717683Y-109893575D01*
X104815488Y-109894109D01*
X104899404Y-109894767D01*
X104970527Y-109895561D01*
X105029950Y-109896504D01*
X105078768Y-109897608D01*
X105118077Y-109898884D01*
X105148969Y-109900347D01*
X105172541Y-109902007D01*
X105189886Y-109903878D01*
X105202099Y-109905972D01*
X105210275Y-109908300D01*
X105215508Y-109910876D01*
X105221504Y-109914445D01*
X105228279Y-109917978D01*
X105234478Y-109921488D01*
X105240126Y-109925918D01*
X105245247Y-109932208D01*
X105249869Y-109941301D01*
X105254015Y-109954139D01*
X105257713Y-109971662D01*
X105260987Y-109994813D01*
X105263863Y-110024534D01*
X105266367Y-110061765D01*
X105268524Y-110107449D01*
X105270360Y-110162527D01*
X105271900Y-110227941D01*
X105273170Y-110304633D01*
X105274195Y-110393544D01*
X105275001Y-110495617D01*
X105275034Y-110501867D01*
X105275614Y-110611792D01*
G37*
%TD*%
%LPC*%
D12*
%TO.C,SW1*%
X73750000Y-110786740D03*
X80250000Y-110786740D03*
X73750000Y-115286740D03*
X80250000Y-115286740D03*
%TD*%
D13*
%TO.C,D1*%
X56000000Y-114311740D03*
D14*
X56000000Y-111771740D03*
%TD*%
D15*
%TO.C,R1*%
X69500000Y-109226740D03*
X69500000Y-116846740D03*
%TD*%
%LPD*%
M02*
