%TF.GenerationSoftware,KiCad,Pcbnew,9.0.7*%
%TF.CreationDate,2026-03-07T13:37:36-05:00*%
%TF.ProjectId,Tiny Solar supply,54696e79-2053-46f6-9c61-722073757070,rev?*%
%TF.SameCoordinates,Original*%
%TF.FileFunction,Legend,Bot*%
%TF.FilePolarity,Positive*%
%FSLAX46Y46*%
G04 Gerber Fmt 4.6, Leading zero omitted, Abs format (unit mm)*
G04 Created by KiCad (PCBNEW 9.0.7) date 2026-03-07 13:37:36*
%MOMM*%
%LPD*%
G01*
G04 APERTURE LIST*
%ADD10C,0.100000*%
%ADD11C,0.010000*%
%ADD12R,1.700000X1.700000*%
%ADD13C,1.700000*%
G04 APERTURE END LIST*
D10*
X105077520Y-101061395D02*
X104810853Y-101861395D01*
X104810853Y-101861395D02*
X104544187Y-101061395D01*
X103972758Y-101823300D02*
X104048949Y-101861395D01*
X104048949Y-101861395D02*
X104201330Y-101861395D01*
X104201330Y-101861395D02*
X104277520Y-101823300D01*
X104277520Y-101823300D02*
X104315616Y-101747109D01*
X104315616Y-101747109D02*
X104315616Y-101442347D01*
X104315616Y-101442347D02*
X104277520Y-101366157D01*
X104277520Y-101366157D02*
X104201330Y-101328061D01*
X104201330Y-101328061D02*
X104048949Y-101328061D01*
X104048949Y-101328061D02*
X103972758Y-101366157D01*
X103972758Y-101366157D02*
X103934663Y-101442347D01*
X103934663Y-101442347D02*
X103934663Y-101518538D01*
X103934663Y-101518538D02*
X104315616Y-101594728D01*
X103591806Y-101861395D02*
X103591806Y-101328061D01*
X103591806Y-101480442D02*
X103553711Y-101404252D01*
X103553711Y-101404252D02*
X103515616Y-101366157D01*
X103515616Y-101366157D02*
X103439425Y-101328061D01*
X103439425Y-101328061D02*
X103363235Y-101328061D01*
X103134664Y-101823300D02*
X103058473Y-101861395D01*
X103058473Y-101861395D02*
X102906092Y-101861395D01*
X102906092Y-101861395D02*
X102829902Y-101823300D01*
X102829902Y-101823300D02*
X102791806Y-101747109D01*
X102791806Y-101747109D02*
X102791806Y-101709014D01*
X102791806Y-101709014D02*
X102829902Y-101632823D01*
X102829902Y-101632823D02*
X102906092Y-101594728D01*
X102906092Y-101594728D02*
X103020378Y-101594728D01*
X103020378Y-101594728D02*
X103096568Y-101556633D01*
X103096568Y-101556633D02*
X103134664Y-101480442D01*
X103134664Y-101480442D02*
X103134664Y-101442347D01*
X103134664Y-101442347D02*
X103096568Y-101366157D01*
X103096568Y-101366157D02*
X103020378Y-101328061D01*
X103020378Y-101328061D02*
X102906092Y-101328061D01*
X102906092Y-101328061D02*
X102829902Y-101366157D01*
X102448949Y-101861395D02*
X102448949Y-101328061D01*
X102448949Y-101061395D02*
X102487045Y-101099490D01*
X102487045Y-101099490D02*
X102448949Y-101137585D01*
X102448949Y-101137585D02*
X102410854Y-101099490D01*
X102410854Y-101099490D02*
X102448949Y-101061395D01*
X102448949Y-101061395D02*
X102448949Y-101137585D01*
X101953712Y-101861395D02*
X102029902Y-101823300D01*
X102029902Y-101823300D02*
X102067997Y-101785204D01*
X102067997Y-101785204D02*
X102106093Y-101709014D01*
X102106093Y-101709014D02*
X102106093Y-101480442D01*
X102106093Y-101480442D02*
X102067997Y-101404252D01*
X102067997Y-101404252D02*
X102029902Y-101366157D01*
X102029902Y-101366157D02*
X101953712Y-101328061D01*
X101953712Y-101328061D02*
X101839426Y-101328061D01*
X101839426Y-101328061D02*
X101763235Y-101366157D01*
X101763235Y-101366157D02*
X101725140Y-101404252D01*
X101725140Y-101404252D02*
X101687045Y-101480442D01*
X101687045Y-101480442D02*
X101687045Y-101709014D01*
X101687045Y-101709014D02*
X101725140Y-101785204D01*
X101725140Y-101785204D02*
X101763235Y-101823300D01*
X101763235Y-101823300D02*
X101839426Y-101861395D01*
X101839426Y-101861395D02*
X101953712Y-101861395D01*
X101344187Y-101328061D02*
X101344187Y-101861395D01*
X101344187Y-101404252D02*
X101306092Y-101366157D01*
X101306092Y-101366157D02*
X101229902Y-101328061D01*
X101229902Y-101328061D02*
X101115616Y-101328061D01*
X101115616Y-101328061D02*
X101039425Y-101366157D01*
X101039425Y-101366157D02*
X101001330Y-101442347D01*
X101001330Y-101442347D02*
X101001330Y-101861395D01*
X99591806Y-101861395D02*
X100048949Y-101861395D01*
X99820377Y-101861395D02*
X99820377Y-101061395D01*
X99820377Y-101061395D02*
X99896568Y-101175680D01*
X99896568Y-101175680D02*
X99972758Y-101251871D01*
X99972758Y-101251871D02*
X100048949Y-101289966D01*
X99248948Y-101785204D02*
X99210853Y-101823300D01*
X99210853Y-101823300D02*
X99248948Y-101861395D01*
X99248948Y-101861395D02*
X99287044Y-101823300D01*
X99287044Y-101823300D02*
X99248948Y-101785204D01*
X99248948Y-101785204D02*
X99248948Y-101861395D01*
X98715615Y-101061395D02*
X98639425Y-101061395D01*
X98639425Y-101061395D02*
X98563234Y-101099490D01*
X98563234Y-101099490D02*
X98525139Y-101137585D01*
X98525139Y-101137585D02*
X98487044Y-101213776D01*
X98487044Y-101213776D02*
X98448949Y-101366157D01*
X98448949Y-101366157D02*
X98448949Y-101556633D01*
X98448949Y-101556633D02*
X98487044Y-101709014D01*
X98487044Y-101709014D02*
X98525139Y-101785204D01*
X98525139Y-101785204D02*
X98563234Y-101823300D01*
X98563234Y-101823300D02*
X98639425Y-101861395D01*
X98639425Y-101861395D02*
X98715615Y-101861395D01*
X98715615Y-101861395D02*
X98791806Y-101823300D01*
X98791806Y-101823300D02*
X98829901Y-101785204D01*
X98829901Y-101785204D02*
X98867996Y-101709014D01*
X98867996Y-101709014D02*
X98906092Y-101556633D01*
X98906092Y-101556633D02*
X98906092Y-101366157D01*
X98906092Y-101366157D02*
X98867996Y-101213776D01*
X98867996Y-101213776D02*
X98829901Y-101137585D01*
X98829901Y-101137585D02*
X98791806Y-101099490D01*
X98791806Y-101099490D02*
X98715615Y-101061395D01*
X105077520Y-102349350D02*
X104620377Y-102349350D01*
X104848949Y-103149350D02*
X104848949Y-102349350D01*
X104353710Y-103149350D02*
X104353710Y-102616016D01*
X104353710Y-102349350D02*
X104391806Y-102387445D01*
X104391806Y-102387445D02*
X104353710Y-102425540D01*
X104353710Y-102425540D02*
X104315615Y-102387445D01*
X104315615Y-102387445D02*
X104353710Y-102349350D01*
X104353710Y-102349350D02*
X104353710Y-102425540D01*
X103972758Y-102616016D02*
X103972758Y-103149350D01*
X103972758Y-102692207D02*
X103934663Y-102654112D01*
X103934663Y-102654112D02*
X103858473Y-102616016D01*
X103858473Y-102616016D02*
X103744187Y-102616016D01*
X103744187Y-102616016D02*
X103667996Y-102654112D01*
X103667996Y-102654112D02*
X103629901Y-102730302D01*
X103629901Y-102730302D02*
X103629901Y-103149350D01*
X103325139Y-102616016D02*
X103134663Y-103149350D01*
X102944186Y-102616016D02*
X103134663Y-103149350D01*
X103134663Y-103149350D02*
X103210853Y-103339826D01*
X103210853Y-103339826D02*
X103248948Y-103377921D01*
X103248948Y-103377921D02*
X103325139Y-103416016D01*
X102067996Y-103111255D02*
X101953710Y-103149350D01*
X101953710Y-103149350D02*
X101763234Y-103149350D01*
X101763234Y-103149350D02*
X101687043Y-103111255D01*
X101687043Y-103111255D02*
X101648948Y-103073159D01*
X101648948Y-103073159D02*
X101610853Y-102996969D01*
X101610853Y-102996969D02*
X101610853Y-102920778D01*
X101610853Y-102920778D02*
X101648948Y-102844588D01*
X101648948Y-102844588D02*
X101687043Y-102806493D01*
X101687043Y-102806493D02*
X101763234Y-102768397D01*
X101763234Y-102768397D02*
X101915615Y-102730302D01*
X101915615Y-102730302D02*
X101991805Y-102692207D01*
X101991805Y-102692207D02*
X102029900Y-102654112D01*
X102029900Y-102654112D02*
X102067996Y-102577921D01*
X102067996Y-102577921D02*
X102067996Y-102501731D01*
X102067996Y-102501731D02*
X102029900Y-102425540D01*
X102029900Y-102425540D02*
X101991805Y-102387445D01*
X101991805Y-102387445D02*
X101915615Y-102349350D01*
X101915615Y-102349350D02*
X101725138Y-102349350D01*
X101725138Y-102349350D02*
X101610853Y-102387445D01*
X101153710Y-103149350D02*
X101229900Y-103111255D01*
X101229900Y-103111255D02*
X101267995Y-103073159D01*
X101267995Y-103073159D02*
X101306091Y-102996969D01*
X101306091Y-102996969D02*
X101306091Y-102768397D01*
X101306091Y-102768397D02*
X101267995Y-102692207D01*
X101267995Y-102692207D02*
X101229900Y-102654112D01*
X101229900Y-102654112D02*
X101153710Y-102616016D01*
X101153710Y-102616016D02*
X101039424Y-102616016D01*
X101039424Y-102616016D02*
X100963233Y-102654112D01*
X100963233Y-102654112D02*
X100925138Y-102692207D01*
X100925138Y-102692207D02*
X100887043Y-102768397D01*
X100887043Y-102768397D02*
X100887043Y-102996969D01*
X100887043Y-102996969D02*
X100925138Y-103073159D01*
X100925138Y-103073159D02*
X100963233Y-103111255D01*
X100963233Y-103111255D02*
X101039424Y-103149350D01*
X101039424Y-103149350D02*
X101153710Y-103149350D01*
X100429900Y-103149350D02*
X100506090Y-103111255D01*
X100506090Y-103111255D02*
X100544185Y-103035064D01*
X100544185Y-103035064D02*
X100544185Y-102349350D01*
X99782280Y-103149350D02*
X99782280Y-102730302D01*
X99782280Y-102730302D02*
X99820375Y-102654112D01*
X99820375Y-102654112D02*
X99896566Y-102616016D01*
X99896566Y-102616016D02*
X100048947Y-102616016D01*
X100048947Y-102616016D02*
X100125137Y-102654112D01*
X99782280Y-103111255D02*
X99858471Y-103149350D01*
X99858471Y-103149350D02*
X100048947Y-103149350D01*
X100048947Y-103149350D02*
X100125137Y-103111255D01*
X100125137Y-103111255D02*
X100163233Y-103035064D01*
X100163233Y-103035064D02*
X100163233Y-102958874D01*
X100163233Y-102958874D02*
X100125137Y-102882683D01*
X100125137Y-102882683D02*
X100048947Y-102844588D01*
X100048947Y-102844588D02*
X99858471Y-102844588D01*
X99858471Y-102844588D02*
X99782280Y-102806493D01*
X99401327Y-103149350D02*
X99401327Y-102616016D01*
X99401327Y-102768397D02*
X99363232Y-102692207D01*
X99363232Y-102692207D02*
X99325137Y-102654112D01*
X99325137Y-102654112D02*
X99248946Y-102616016D01*
X99248946Y-102616016D02*
X99172756Y-102616016D01*
X98296565Y-103149350D02*
X98296565Y-102349350D01*
X98296565Y-102349350D02*
X97991803Y-102349350D01*
X97991803Y-102349350D02*
X97915613Y-102387445D01*
X97915613Y-102387445D02*
X97877518Y-102425540D01*
X97877518Y-102425540D02*
X97839422Y-102501731D01*
X97839422Y-102501731D02*
X97839422Y-102616016D01*
X97839422Y-102616016D02*
X97877518Y-102692207D01*
X97877518Y-102692207D02*
X97915613Y-102730302D01*
X97915613Y-102730302D02*
X97991803Y-102768397D01*
X97991803Y-102768397D02*
X98296565Y-102768397D01*
X97382280Y-103149350D02*
X97458470Y-103111255D01*
X97458470Y-103111255D02*
X97496565Y-103073159D01*
X97496565Y-103073159D02*
X97534661Y-102996969D01*
X97534661Y-102996969D02*
X97534661Y-102768397D01*
X97534661Y-102768397D02*
X97496565Y-102692207D01*
X97496565Y-102692207D02*
X97458470Y-102654112D01*
X97458470Y-102654112D02*
X97382280Y-102616016D01*
X97382280Y-102616016D02*
X97267994Y-102616016D01*
X97267994Y-102616016D02*
X97191803Y-102654112D01*
X97191803Y-102654112D02*
X97153708Y-102692207D01*
X97153708Y-102692207D02*
X97115613Y-102768397D01*
X97115613Y-102768397D02*
X97115613Y-102996969D01*
X97115613Y-102996969D02*
X97153708Y-103073159D01*
X97153708Y-103073159D02*
X97191803Y-103111255D01*
X97191803Y-103111255D02*
X97267994Y-103149350D01*
X97267994Y-103149350D02*
X97382280Y-103149350D01*
X96848946Y-102616016D02*
X96696565Y-103149350D01*
X96696565Y-103149350D02*
X96544184Y-102768397D01*
X96544184Y-102768397D02*
X96391803Y-103149350D01*
X96391803Y-103149350D02*
X96239422Y-102616016D01*
X95629898Y-103111255D02*
X95706089Y-103149350D01*
X95706089Y-103149350D02*
X95858470Y-103149350D01*
X95858470Y-103149350D02*
X95934660Y-103111255D01*
X95934660Y-103111255D02*
X95972756Y-103035064D01*
X95972756Y-103035064D02*
X95972756Y-102730302D01*
X95972756Y-102730302D02*
X95934660Y-102654112D01*
X95934660Y-102654112D02*
X95858470Y-102616016D01*
X95858470Y-102616016D02*
X95706089Y-102616016D01*
X95706089Y-102616016D02*
X95629898Y-102654112D01*
X95629898Y-102654112D02*
X95591803Y-102730302D01*
X95591803Y-102730302D02*
X95591803Y-102806493D01*
X95591803Y-102806493D02*
X95972756Y-102882683D01*
X95248946Y-103149350D02*
X95248946Y-102616016D01*
X95248946Y-102768397D02*
X95210851Y-102692207D01*
X95210851Y-102692207D02*
X95172756Y-102654112D01*
X95172756Y-102654112D02*
X95096565Y-102616016D01*
X95096565Y-102616016D02*
X95020375Y-102616016D01*
X94182280Y-103111255D02*
X94067994Y-103149350D01*
X94067994Y-103149350D02*
X93877518Y-103149350D01*
X93877518Y-103149350D02*
X93801327Y-103111255D01*
X93801327Y-103111255D02*
X93763232Y-103073159D01*
X93763232Y-103073159D02*
X93725137Y-102996969D01*
X93725137Y-102996969D02*
X93725137Y-102920778D01*
X93725137Y-102920778D02*
X93763232Y-102844588D01*
X93763232Y-102844588D02*
X93801327Y-102806493D01*
X93801327Y-102806493D02*
X93877518Y-102768397D01*
X93877518Y-102768397D02*
X94029899Y-102730302D01*
X94029899Y-102730302D02*
X94106089Y-102692207D01*
X94106089Y-102692207D02*
X94144184Y-102654112D01*
X94144184Y-102654112D02*
X94182280Y-102577921D01*
X94182280Y-102577921D02*
X94182280Y-102501731D01*
X94182280Y-102501731D02*
X94144184Y-102425540D01*
X94144184Y-102425540D02*
X94106089Y-102387445D01*
X94106089Y-102387445D02*
X94029899Y-102349350D01*
X94029899Y-102349350D02*
X93839422Y-102349350D01*
X93839422Y-102349350D02*
X93725137Y-102387445D01*
X93039422Y-102616016D02*
X93039422Y-103149350D01*
X93382279Y-102616016D02*
X93382279Y-103035064D01*
X93382279Y-103035064D02*
X93344184Y-103111255D01*
X93344184Y-103111255D02*
X93267994Y-103149350D01*
X93267994Y-103149350D02*
X93153708Y-103149350D01*
X93153708Y-103149350D02*
X93077517Y-103111255D01*
X93077517Y-103111255D02*
X93039422Y-103073159D01*
X92658469Y-102616016D02*
X92658469Y-103416016D01*
X92658469Y-102654112D02*
X92582279Y-102616016D01*
X92582279Y-102616016D02*
X92429898Y-102616016D01*
X92429898Y-102616016D02*
X92353707Y-102654112D01*
X92353707Y-102654112D02*
X92315612Y-102692207D01*
X92315612Y-102692207D02*
X92277517Y-102768397D01*
X92277517Y-102768397D02*
X92277517Y-102996969D01*
X92277517Y-102996969D02*
X92315612Y-103073159D01*
X92315612Y-103073159D02*
X92353707Y-103111255D01*
X92353707Y-103111255D02*
X92429898Y-103149350D01*
X92429898Y-103149350D02*
X92582279Y-103149350D01*
X92582279Y-103149350D02*
X92658469Y-103111255D01*
X91934659Y-102616016D02*
X91934659Y-103416016D01*
X91934659Y-102654112D02*
X91858469Y-102616016D01*
X91858469Y-102616016D02*
X91706088Y-102616016D01*
X91706088Y-102616016D02*
X91629897Y-102654112D01*
X91629897Y-102654112D02*
X91591802Y-102692207D01*
X91591802Y-102692207D02*
X91553707Y-102768397D01*
X91553707Y-102768397D02*
X91553707Y-102996969D01*
X91553707Y-102996969D02*
X91591802Y-103073159D01*
X91591802Y-103073159D02*
X91629897Y-103111255D01*
X91629897Y-103111255D02*
X91706088Y-103149350D01*
X91706088Y-103149350D02*
X91858469Y-103149350D01*
X91858469Y-103149350D02*
X91934659Y-103111255D01*
X91096564Y-103149350D02*
X91172754Y-103111255D01*
X91172754Y-103111255D02*
X91210849Y-103035064D01*
X91210849Y-103035064D02*
X91210849Y-102349350D01*
X90867992Y-102616016D02*
X90677516Y-103149350D01*
X90487039Y-102616016D02*
X90677516Y-103149350D01*
X90677516Y-103149350D02*
X90753706Y-103339826D01*
X90753706Y-103339826D02*
X90791801Y-103377921D01*
X90791801Y-103377921D02*
X90867992Y-103416016D01*
X104506091Y-104361114D02*
X104544187Y-104399210D01*
X104544187Y-104399210D02*
X104658472Y-104437305D01*
X104658472Y-104437305D02*
X104734663Y-104437305D01*
X104734663Y-104437305D02*
X104848949Y-104399210D01*
X104848949Y-104399210D02*
X104925139Y-104323019D01*
X104925139Y-104323019D02*
X104963234Y-104246829D01*
X104963234Y-104246829D02*
X105001330Y-104094448D01*
X105001330Y-104094448D02*
X105001330Y-103980162D01*
X105001330Y-103980162D02*
X104963234Y-103827781D01*
X104963234Y-103827781D02*
X104925139Y-103751590D01*
X104925139Y-103751590D02*
X104848949Y-103675400D01*
X104848949Y-103675400D02*
X104734663Y-103637305D01*
X104734663Y-103637305D02*
X104658472Y-103637305D01*
X104658472Y-103637305D02*
X104544187Y-103675400D01*
X104544187Y-103675400D02*
X104506091Y-103713495D01*
X104163234Y-104437305D02*
X104163234Y-103903971D01*
X104163234Y-104056352D02*
X104125139Y-103980162D01*
X104125139Y-103980162D02*
X104087044Y-103942067D01*
X104087044Y-103942067D02*
X104010853Y-103903971D01*
X104010853Y-103903971D02*
X103934663Y-103903971D01*
X103363234Y-104399210D02*
X103439425Y-104437305D01*
X103439425Y-104437305D02*
X103591806Y-104437305D01*
X103591806Y-104437305D02*
X103667996Y-104399210D01*
X103667996Y-104399210D02*
X103706092Y-104323019D01*
X103706092Y-104323019D02*
X103706092Y-104018257D01*
X103706092Y-104018257D02*
X103667996Y-103942067D01*
X103667996Y-103942067D02*
X103591806Y-103903971D01*
X103591806Y-103903971D02*
X103439425Y-103903971D01*
X103439425Y-103903971D02*
X103363234Y-103942067D01*
X103363234Y-103942067D02*
X103325139Y-104018257D01*
X103325139Y-104018257D02*
X103325139Y-104094448D01*
X103325139Y-104094448D02*
X103706092Y-104170638D01*
X102639425Y-104437305D02*
X102639425Y-104018257D01*
X102639425Y-104018257D02*
X102677520Y-103942067D01*
X102677520Y-103942067D02*
X102753711Y-103903971D01*
X102753711Y-103903971D02*
X102906092Y-103903971D01*
X102906092Y-103903971D02*
X102982282Y-103942067D01*
X102639425Y-104399210D02*
X102715616Y-104437305D01*
X102715616Y-104437305D02*
X102906092Y-104437305D01*
X102906092Y-104437305D02*
X102982282Y-104399210D01*
X102982282Y-104399210D02*
X103020378Y-104323019D01*
X103020378Y-104323019D02*
X103020378Y-104246829D01*
X103020378Y-104246829D02*
X102982282Y-104170638D01*
X102982282Y-104170638D02*
X102906092Y-104132543D01*
X102906092Y-104132543D02*
X102715616Y-104132543D01*
X102715616Y-104132543D02*
X102639425Y-104094448D01*
X102372758Y-103903971D02*
X102067996Y-103903971D01*
X102258472Y-103637305D02*
X102258472Y-104323019D01*
X102258472Y-104323019D02*
X102220377Y-104399210D01*
X102220377Y-104399210D02*
X102144187Y-104437305D01*
X102144187Y-104437305D02*
X102067996Y-104437305D01*
X101496567Y-104399210D02*
X101572758Y-104437305D01*
X101572758Y-104437305D02*
X101725139Y-104437305D01*
X101725139Y-104437305D02*
X101801329Y-104399210D01*
X101801329Y-104399210D02*
X101839425Y-104323019D01*
X101839425Y-104323019D02*
X101839425Y-104018257D01*
X101839425Y-104018257D02*
X101801329Y-103942067D01*
X101801329Y-103942067D02*
X101725139Y-103903971D01*
X101725139Y-103903971D02*
X101572758Y-103903971D01*
X101572758Y-103903971D02*
X101496567Y-103942067D01*
X101496567Y-103942067D02*
X101458472Y-104018257D01*
X101458472Y-104018257D02*
X101458472Y-104094448D01*
X101458472Y-104094448D02*
X101839425Y-104170638D01*
X100772758Y-104437305D02*
X100772758Y-103637305D01*
X100772758Y-104399210D02*
X100848949Y-104437305D01*
X100848949Y-104437305D02*
X101001330Y-104437305D01*
X101001330Y-104437305D02*
X101077520Y-104399210D01*
X101077520Y-104399210D02*
X101115615Y-104361114D01*
X101115615Y-104361114D02*
X101153711Y-104284924D01*
X101153711Y-104284924D02*
X101153711Y-104056352D01*
X101153711Y-104056352D02*
X101115615Y-103980162D01*
X101115615Y-103980162D02*
X101077520Y-103942067D01*
X101077520Y-103942067D02*
X101001330Y-103903971D01*
X101001330Y-103903971D02*
X100848949Y-103903971D01*
X100848949Y-103903971D02*
X100772758Y-103942067D01*
X99782281Y-104437305D02*
X99782281Y-103637305D01*
X99782281Y-103942067D02*
X99706091Y-103903971D01*
X99706091Y-103903971D02*
X99553710Y-103903971D01*
X99553710Y-103903971D02*
X99477519Y-103942067D01*
X99477519Y-103942067D02*
X99439424Y-103980162D01*
X99439424Y-103980162D02*
X99401329Y-104056352D01*
X99401329Y-104056352D02*
X99401329Y-104284924D01*
X99401329Y-104284924D02*
X99439424Y-104361114D01*
X99439424Y-104361114D02*
X99477519Y-104399210D01*
X99477519Y-104399210D02*
X99553710Y-104437305D01*
X99553710Y-104437305D02*
X99706091Y-104437305D01*
X99706091Y-104437305D02*
X99782281Y-104399210D01*
X99134662Y-103903971D02*
X98944186Y-104437305D01*
X98753709Y-103903971D02*
X98944186Y-104437305D01*
X98944186Y-104437305D02*
X99020376Y-104627781D01*
X99020376Y-104627781D02*
X99058471Y-104665876D01*
X99058471Y-104665876D02*
X99134662Y-104703971D01*
X97382280Y-104361114D02*
X97420376Y-104399210D01*
X97420376Y-104399210D02*
X97534661Y-104437305D01*
X97534661Y-104437305D02*
X97610852Y-104437305D01*
X97610852Y-104437305D02*
X97725138Y-104399210D01*
X97725138Y-104399210D02*
X97801328Y-104323019D01*
X97801328Y-104323019D02*
X97839423Y-104246829D01*
X97839423Y-104246829D02*
X97877519Y-104094448D01*
X97877519Y-104094448D02*
X97877519Y-103980162D01*
X97877519Y-103980162D02*
X97839423Y-103827781D01*
X97839423Y-103827781D02*
X97801328Y-103751590D01*
X97801328Y-103751590D02*
X97725138Y-103675400D01*
X97725138Y-103675400D02*
X97610852Y-103637305D01*
X97610852Y-103637305D02*
X97534661Y-103637305D01*
X97534661Y-103637305D02*
X97420376Y-103675400D01*
X97420376Y-103675400D02*
X97382280Y-103713495D01*
X96925138Y-104437305D02*
X97001328Y-104399210D01*
X97001328Y-104399210D02*
X97039423Y-104323019D01*
X97039423Y-104323019D02*
X97039423Y-103637305D01*
X96315613Y-104399210D02*
X96391804Y-104437305D01*
X96391804Y-104437305D02*
X96544185Y-104437305D01*
X96544185Y-104437305D02*
X96620375Y-104399210D01*
X96620375Y-104399210D02*
X96658471Y-104323019D01*
X96658471Y-104323019D02*
X96658471Y-104018257D01*
X96658471Y-104018257D02*
X96620375Y-103942067D01*
X96620375Y-103942067D02*
X96544185Y-103903971D01*
X96544185Y-103903971D02*
X96391804Y-103903971D01*
X96391804Y-103903971D02*
X96315613Y-103942067D01*
X96315613Y-103942067D02*
X96277518Y-104018257D01*
X96277518Y-104018257D02*
X96277518Y-104094448D01*
X96277518Y-104094448D02*
X96658471Y-104170638D01*
X95934661Y-104437305D02*
X95934661Y-103903971D01*
X95934661Y-103980162D02*
X95896566Y-103942067D01*
X95896566Y-103942067D02*
X95820376Y-103903971D01*
X95820376Y-103903971D02*
X95706090Y-103903971D01*
X95706090Y-103903971D02*
X95629899Y-103942067D01*
X95629899Y-103942067D02*
X95591804Y-104018257D01*
X95591804Y-104018257D02*
X95591804Y-104437305D01*
X95591804Y-104018257D02*
X95553709Y-103942067D01*
X95553709Y-103942067D02*
X95477518Y-103903971D01*
X95477518Y-103903971D02*
X95363233Y-103903971D01*
X95363233Y-103903971D02*
X95287042Y-103942067D01*
X95287042Y-103942067D02*
X95248947Y-104018257D01*
X95248947Y-104018257D02*
X95248947Y-104437305D01*
X94563232Y-104399210D02*
X94639423Y-104437305D01*
X94639423Y-104437305D02*
X94791804Y-104437305D01*
X94791804Y-104437305D02*
X94867994Y-104399210D01*
X94867994Y-104399210D02*
X94906090Y-104323019D01*
X94906090Y-104323019D02*
X94906090Y-104018257D01*
X94906090Y-104018257D02*
X94867994Y-103942067D01*
X94867994Y-103942067D02*
X94791804Y-103903971D01*
X94791804Y-103903971D02*
X94639423Y-103903971D01*
X94639423Y-103903971D02*
X94563232Y-103942067D01*
X94563232Y-103942067D02*
X94525137Y-104018257D01*
X94525137Y-104018257D02*
X94525137Y-104094448D01*
X94525137Y-104094448D02*
X94906090Y-104170638D01*
X94182280Y-103903971D02*
X94182280Y-104437305D01*
X94182280Y-103980162D02*
X94144185Y-103942067D01*
X94144185Y-103942067D02*
X94067995Y-103903971D01*
X94067995Y-103903971D02*
X93953709Y-103903971D01*
X93953709Y-103903971D02*
X93877518Y-103942067D01*
X93877518Y-103942067D02*
X93839423Y-104018257D01*
X93839423Y-104018257D02*
X93839423Y-104437305D01*
X93496566Y-104399210D02*
X93420375Y-104437305D01*
X93420375Y-104437305D02*
X93267994Y-104437305D01*
X93267994Y-104437305D02*
X93191804Y-104399210D01*
X93191804Y-104399210D02*
X93153708Y-104323019D01*
X93153708Y-104323019D02*
X93153708Y-104284924D01*
X93153708Y-104284924D02*
X93191804Y-104208733D01*
X93191804Y-104208733D02*
X93267994Y-104170638D01*
X93267994Y-104170638D02*
X93382280Y-104170638D01*
X93382280Y-104170638D02*
X93458470Y-104132543D01*
X93458470Y-104132543D02*
X93496566Y-104056352D01*
X93496566Y-104056352D02*
X93496566Y-104018257D01*
X93496566Y-104018257D02*
X93458470Y-103942067D01*
X93458470Y-103942067D02*
X93382280Y-103903971D01*
X93382280Y-103903971D02*
X93267994Y-103903971D01*
X93267994Y-103903971D02*
X93191804Y-103942067D01*
X92315613Y-103637305D02*
X92048946Y-104437305D01*
X92048946Y-104437305D02*
X91782280Y-103637305D01*
X91172756Y-104437305D02*
X91172756Y-104018257D01*
X91172756Y-104018257D02*
X91210851Y-103942067D01*
X91210851Y-103942067D02*
X91287042Y-103903971D01*
X91287042Y-103903971D02*
X91439423Y-103903971D01*
X91439423Y-103903971D02*
X91515613Y-103942067D01*
X91172756Y-104399210D02*
X91248947Y-104437305D01*
X91248947Y-104437305D02*
X91439423Y-104437305D01*
X91439423Y-104437305D02*
X91515613Y-104399210D01*
X91515613Y-104399210D02*
X91553709Y-104323019D01*
X91553709Y-104323019D02*
X91553709Y-104246829D01*
X91553709Y-104246829D02*
X91515613Y-104170638D01*
X91515613Y-104170638D02*
X91439423Y-104132543D01*
X91439423Y-104132543D02*
X91248947Y-104132543D01*
X91248947Y-104132543D02*
X91172756Y-104094448D01*
X90677518Y-104437305D02*
X90753708Y-104399210D01*
X90753708Y-104399210D02*
X90791803Y-104323019D01*
X90791803Y-104323019D02*
X90791803Y-103637305D01*
X90067993Y-104399210D02*
X90144184Y-104437305D01*
X90144184Y-104437305D02*
X90296565Y-104437305D01*
X90296565Y-104437305D02*
X90372755Y-104399210D01*
X90372755Y-104399210D02*
X90410851Y-104323019D01*
X90410851Y-104323019D02*
X90410851Y-104018257D01*
X90410851Y-104018257D02*
X90372755Y-103942067D01*
X90372755Y-103942067D02*
X90296565Y-103903971D01*
X90296565Y-103903971D02*
X90144184Y-103903971D01*
X90144184Y-103903971D02*
X90067993Y-103942067D01*
X90067993Y-103942067D02*
X90029898Y-104018257D01*
X90029898Y-104018257D02*
X90029898Y-104094448D01*
X90029898Y-104094448D02*
X90410851Y-104170638D01*
X89687041Y-103903971D02*
X89687041Y-104437305D01*
X89687041Y-103980162D02*
X89648946Y-103942067D01*
X89648946Y-103942067D02*
X89572756Y-103903971D01*
X89572756Y-103903971D02*
X89458470Y-103903971D01*
X89458470Y-103903971D02*
X89382279Y-103942067D01*
X89382279Y-103942067D02*
X89344184Y-104018257D01*
X89344184Y-104018257D02*
X89344184Y-104437305D01*
X89001327Y-104399210D02*
X88925136Y-104437305D01*
X88925136Y-104437305D02*
X88772755Y-104437305D01*
X88772755Y-104437305D02*
X88696565Y-104399210D01*
X88696565Y-104399210D02*
X88658469Y-104323019D01*
X88658469Y-104323019D02*
X88658469Y-104284924D01*
X88658469Y-104284924D02*
X88696565Y-104208733D01*
X88696565Y-104208733D02*
X88772755Y-104170638D01*
X88772755Y-104170638D02*
X88887041Y-104170638D01*
X88887041Y-104170638D02*
X88963231Y-104132543D01*
X88963231Y-104132543D02*
X89001327Y-104056352D01*
X89001327Y-104056352D02*
X89001327Y-104018257D01*
X89001327Y-104018257D02*
X88963231Y-103942067D01*
X88963231Y-103942067D02*
X88887041Y-103903971D01*
X88887041Y-103903971D02*
X88772755Y-103903971D01*
X88772755Y-103903971D02*
X88696565Y-103942067D01*
X87820374Y-103903971D02*
X87515612Y-103903971D01*
X87706088Y-104437305D02*
X87706088Y-103751590D01*
X87706088Y-103751590D02*
X87667993Y-103675400D01*
X87667993Y-103675400D02*
X87591803Y-103637305D01*
X87591803Y-103637305D02*
X87515612Y-103637305D01*
X87134660Y-104437305D02*
X87210850Y-104399210D01*
X87210850Y-104399210D02*
X87248945Y-104361114D01*
X87248945Y-104361114D02*
X87287041Y-104284924D01*
X87287041Y-104284924D02*
X87287041Y-104056352D01*
X87287041Y-104056352D02*
X87248945Y-103980162D01*
X87248945Y-103980162D02*
X87210850Y-103942067D01*
X87210850Y-103942067D02*
X87134660Y-103903971D01*
X87134660Y-103903971D02*
X87020374Y-103903971D01*
X87020374Y-103903971D02*
X86944183Y-103942067D01*
X86944183Y-103942067D02*
X86906088Y-103980162D01*
X86906088Y-103980162D02*
X86867993Y-104056352D01*
X86867993Y-104056352D02*
X86867993Y-104284924D01*
X86867993Y-104284924D02*
X86906088Y-104361114D01*
X86906088Y-104361114D02*
X86944183Y-104399210D01*
X86944183Y-104399210D02*
X87020374Y-104437305D01*
X87020374Y-104437305D02*
X87134660Y-104437305D01*
X86525135Y-104437305D02*
X86525135Y-103903971D01*
X86525135Y-104056352D02*
X86487040Y-103980162D01*
X86487040Y-103980162D02*
X86448945Y-103942067D01*
X86448945Y-103942067D02*
X86372754Y-103903971D01*
X86372754Y-103903971D02*
X86296564Y-103903971D01*
X85420373Y-104018257D02*
X85153707Y-104018257D01*
X85039421Y-104437305D02*
X85420373Y-104437305D01*
X85420373Y-104437305D02*
X85420373Y-103637305D01*
X85420373Y-103637305D02*
X85039421Y-103637305D01*
X84582278Y-104437305D02*
X84658468Y-104399210D01*
X84658468Y-104399210D02*
X84696563Y-104323019D01*
X84696563Y-104323019D02*
X84696563Y-103637305D01*
X83972753Y-104399210D02*
X84048944Y-104437305D01*
X84048944Y-104437305D02*
X84201325Y-104437305D01*
X84201325Y-104437305D02*
X84277515Y-104399210D01*
X84277515Y-104399210D02*
X84315611Y-104323019D01*
X84315611Y-104323019D02*
X84315611Y-104018257D01*
X84315611Y-104018257D02*
X84277515Y-103942067D01*
X84277515Y-103942067D02*
X84201325Y-103903971D01*
X84201325Y-103903971D02*
X84048944Y-103903971D01*
X84048944Y-103903971D02*
X83972753Y-103942067D01*
X83972753Y-103942067D02*
X83934658Y-104018257D01*
X83934658Y-104018257D02*
X83934658Y-104094448D01*
X83934658Y-104094448D02*
X84315611Y-104170638D01*
X83591801Y-104437305D02*
X83591801Y-103637305D01*
X83515611Y-104132543D02*
X83287039Y-104437305D01*
X83287039Y-103903971D02*
X83591801Y-104208733D01*
X83058468Y-103903971D02*
X82753706Y-103903971D01*
X82944182Y-103637305D02*
X82944182Y-104323019D01*
X82944182Y-104323019D02*
X82906087Y-104399210D01*
X82906087Y-104399210D02*
X82829897Y-104437305D01*
X82829897Y-104437305D02*
X82753706Y-104437305D01*
X82372754Y-104437305D02*
X82448944Y-104399210D01*
X82448944Y-104399210D02*
X82487039Y-104361114D01*
X82487039Y-104361114D02*
X82525135Y-104284924D01*
X82525135Y-104284924D02*
X82525135Y-104056352D01*
X82525135Y-104056352D02*
X82487039Y-103980162D01*
X82487039Y-103980162D02*
X82448944Y-103942067D01*
X82448944Y-103942067D02*
X82372754Y-103903971D01*
X82372754Y-103903971D02*
X82258468Y-103903971D01*
X82258468Y-103903971D02*
X82182277Y-103942067D01*
X82182277Y-103942067D02*
X82144182Y-103980162D01*
X82144182Y-103980162D02*
X82106087Y-104056352D01*
X82106087Y-104056352D02*
X82106087Y-104284924D01*
X82106087Y-104284924D02*
X82144182Y-104361114D01*
X82144182Y-104361114D02*
X82182277Y-104399210D01*
X82182277Y-104399210D02*
X82258468Y-104437305D01*
X82258468Y-104437305D02*
X82372754Y-104437305D01*
X81763229Y-104437305D02*
X81763229Y-103903971D01*
X81763229Y-104056352D02*
X81725134Y-103980162D01*
X81725134Y-103980162D02*
X81687039Y-103942067D01*
X81687039Y-103942067D02*
X81610848Y-103903971D01*
X81610848Y-103903971D02*
X81534658Y-103903971D01*
X104506091Y-105649069D02*
X104544187Y-105687165D01*
X104544187Y-105687165D02*
X104658472Y-105725260D01*
X104658472Y-105725260D02*
X104734663Y-105725260D01*
X104734663Y-105725260D02*
X104848949Y-105687165D01*
X104848949Y-105687165D02*
X104925139Y-105610974D01*
X104925139Y-105610974D02*
X104963234Y-105534784D01*
X104963234Y-105534784D02*
X105001330Y-105382403D01*
X105001330Y-105382403D02*
X105001330Y-105268117D01*
X105001330Y-105268117D02*
X104963234Y-105115736D01*
X104963234Y-105115736D02*
X104925139Y-105039545D01*
X104925139Y-105039545D02*
X104848949Y-104963355D01*
X104848949Y-104963355D02*
X104734663Y-104925260D01*
X104734663Y-104925260D02*
X104658472Y-104925260D01*
X104658472Y-104925260D02*
X104544187Y-104963355D01*
X104544187Y-104963355D02*
X104506091Y-105001450D01*
X104048949Y-105725260D02*
X104125139Y-105687165D01*
X104125139Y-105687165D02*
X104163234Y-105649069D01*
X104163234Y-105649069D02*
X104201330Y-105572879D01*
X104201330Y-105572879D02*
X104201330Y-105344307D01*
X104201330Y-105344307D02*
X104163234Y-105268117D01*
X104163234Y-105268117D02*
X104125139Y-105230022D01*
X104125139Y-105230022D02*
X104048949Y-105191926D01*
X104048949Y-105191926D02*
X103934663Y-105191926D01*
X103934663Y-105191926D02*
X103858472Y-105230022D01*
X103858472Y-105230022D02*
X103820377Y-105268117D01*
X103820377Y-105268117D02*
X103782282Y-105344307D01*
X103782282Y-105344307D02*
X103782282Y-105572879D01*
X103782282Y-105572879D02*
X103820377Y-105649069D01*
X103820377Y-105649069D02*
X103858472Y-105687165D01*
X103858472Y-105687165D02*
X103934663Y-105725260D01*
X103934663Y-105725260D02*
X104048949Y-105725260D01*
X103439424Y-105191926D02*
X103439424Y-105991926D01*
X103439424Y-105230022D02*
X103363234Y-105191926D01*
X103363234Y-105191926D02*
X103210853Y-105191926D01*
X103210853Y-105191926D02*
X103134662Y-105230022D01*
X103134662Y-105230022D02*
X103096567Y-105268117D01*
X103096567Y-105268117D02*
X103058472Y-105344307D01*
X103058472Y-105344307D02*
X103058472Y-105572879D01*
X103058472Y-105572879D02*
X103096567Y-105649069D01*
X103096567Y-105649069D02*
X103134662Y-105687165D01*
X103134662Y-105687165D02*
X103210853Y-105725260D01*
X103210853Y-105725260D02*
X103363234Y-105725260D01*
X103363234Y-105725260D02*
X103439424Y-105687165D01*
X102715614Y-105725260D02*
X102715614Y-105191926D01*
X102715614Y-104925260D02*
X102753710Y-104963355D01*
X102753710Y-104963355D02*
X102715614Y-105001450D01*
X102715614Y-105001450D02*
X102677519Y-104963355D01*
X102677519Y-104963355D02*
X102715614Y-104925260D01*
X102715614Y-104925260D02*
X102715614Y-105001450D01*
X102029900Y-105687165D02*
X102106091Y-105725260D01*
X102106091Y-105725260D02*
X102258472Y-105725260D01*
X102258472Y-105725260D02*
X102334662Y-105687165D01*
X102334662Y-105687165D02*
X102372758Y-105610974D01*
X102372758Y-105610974D02*
X102372758Y-105306212D01*
X102372758Y-105306212D02*
X102334662Y-105230022D01*
X102334662Y-105230022D02*
X102258472Y-105191926D01*
X102258472Y-105191926D02*
X102106091Y-105191926D01*
X102106091Y-105191926D02*
X102029900Y-105230022D01*
X102029900Y-105230022D02*
X101991805Y-105306212D01*
X101991805Y-105306212D02*
X101991805Y-105382403D01*
X101991805Y-105382403D02*
X102372758Y-105458593D01*
X101306091Y-105725260D02*
X101306091Y-104925260D01*
X101306091Y-105687165D02*
X101382282Y-105725260D01*
X101382282Y-105725260D02*
X101534663Y-105725260D01*
X101534663Y-105725260D02*
X101610853Y-105687165D01*
X101610853Y-105687165D02*
X101648948Y-105649069D01*
X101648948Y-105649069D02*
X101687044Y-105572879D01*
X101687044Y-105572879D02*
X101687044Y-105344307D01*
X101687044Y-105344307D02*
X101648948Y-105268117D01*
X101648948Y-105268117D02*
X101610853Y-105230022D01*
X101610853Y-105230022D02*
X101534663Y-105191926D01*
X101534663Y-105191926D02*
X101382282Y-105191926D01*
X101382282Y-105191926D02*
X101306091Y-105230022D01*
X100315614Y-105725260D02*
X100315614Y-105191926D01*
X100315614Y-104925260D02*
X100353710Y-104963355D01*
X100353710Y-104963355D02*
X100315614Y-105001450D01*
X100315614Y-105001450D02*
X100277519Y-104963355D01*
X100277519Y-104963355D02*
X100315614Y-104925260D01*
X100315614Y-104925260D02*
X100315614Y-105001450D01*
X99934662Y-105191926D02*
X99934662Y-105725260D01*
X99934662Y-105268117D02*
X99896567Y-105230022D01*
X99896567Y-105230022D02*
X99820377Y-105191926D01*
X99820377Y-105191926D02*
X99706091Y-105191926D01*
X99706091Y-105191926D02*
X99629900Y-105230022D01*
X99629900Y-105230022D02*
X99591805Y-105306212D01*
X99591805Y-105306212D02*
X99591805Y-105725260D01*
X99325138Y-105191926D02*
X99020376Y-105191926D01*
X99210852Y-104925260D02*
X99210852Y-105610974D01*
X99210852Y-105610974D02*
X99172757Y-105687165D01*
X99172757Y-105687165D02*
X99096567Y-105725260D01*
X99096567Y-105725260D02*
X99020376Y-105725260D01*
X98639424Y-105725260D02*
X98715614Y-105687165D01*
X98715614Y-105687165D02*
X98753709Y-105649069D01*
X98753709Y-105649069D02*
X98791805Y-105572879D01*
X98791805Y-105572879D02*
X98791805Y-105344307D01*
X98791805Y-105344307D02*
X98753709Y-105268117D01*
X98753709Y-105268117D02*
X98715614Y-105230022D01*
X98715614Y-105230022D02*
X98639424Y-105191926D01*
X98639424Y-105191926D02*
X98525138Y-105191926D01*
X98525138Y-105191926D02*
X98448947Y-105230022D01*
X98448947Y-105230022D02*
X98410852Y-105268117D01*
X98410852Y-105268117D02*
X98372757Y-105344307D01*
X98372757Y-105344307D02*
X98372757Y-105572879D01*
X98372757Y-105572879D02*
X98410852Y-105649069D01*
X98410852Y-105649069D02*
X98448947Y-105687165D01*
X98448947Y-105687165D02*
X98525138Y-105725260D01*
X98525138Y-105725260D02*
X98639424Y-105725260D01*
X97420375Y-105725260D02*
X97420375Y-104925260D01*
X96963232Y-105725260D02*
X97306090Y-105268117D01*
X96963232Y-104925260D02*
X97420375Y-105382403D01*
X96620375Y-105725260D02*
X96620375Y-105191926D01*
X96620375Y-104925260D02*
X96658471Y-104963355D01*
X96658471Y-104963355D02*
X96620375Y-105001450D01*
X96620375Y-105001450D02*
X96582280Y-104963355D01*
X96582280Y-104963355D02*
X96620375Y-104925260D01*
X96620375Y-104925260D02*
X96620375Y-105001450D01*
X95782280Y-105649069D02*
X95820376Y-105687165D01*
X95820376Y-105687165D02*
X95934661Y-105725260D01*
X95934661Y-105725260D02*
X96010852Y-105725260D01*
X96010852Y-105725260D02*
X96125138Y-105687165D01*
X96125138Y-105687165D02*
X96201328Y-105610974D01*
X96201328Y-105610974D02*
X96239423Y-105534784D01*
X96239423Y-105534784D02*
X96277519Y-105382403D01*
X96277519Y-105382403D02*
X96277519Y-105268117D01*
X96277519Y-105268117D02*
X96239423Y-105115736D01*
X96239423Y-105115736D02*
X96201328Y-105039545D01*
X96201328Y-105039545D02*
X96125138Y-104963355D01*
X96125138Y-104963355D02*
X96010852Y-104925260D01*
X96010852Y-104925260D02*
X95934661Y-104925260D01*
X95934661Y-104925260D02*
X95820376Y-104963355D01*
X95820376Y-104963355D02*
X95782280Y-105001450D01*
X95096566Y-105725260D02*
X95096566Y-105306212D01*
X95096566Y-105306212D02*
X95134661Y-105230022D01*
X95134661Y-105230022D02*
X95210852Y-105191926D01*
X95210852Y-105191926D02*
X95363233Y-105191926D01*
X95363233Y-105191926D02*
X95439423Y-105230022D01*
X95096566Y-105687165D02*
X95172757Y-105725260D01*
X95172757Y-105725260D02*
X95363233Y-105725260D01*
X95363233Y-105725260D02*
X95439423Y-105687165D01*
X95439423Y-105687165D02*
X95477519Y-105610974D01*
X95477519Y-105610974D02*
X95477519Y-105534784D01*
X95477519Y-105534784D02*
X95439423Y-105458593D01*
X95439423Y-105458593D02*
X95363233Y-105420498D01*
X95363233Y-105420498D02*
X95172757Y-105420498D01*
X95172757Y-105420498D02*
X95096566Y-105382403D01*
X94372756Y-105725260D02*
X94372756Y-104925260D01*
X94372756Y-105687165D02*
X94448947Y-105725260D01*
X94448947Y-105725260D02*
X94601328Y-105725260D01*
X94601328Y-105725260D02*
X94677518Y-105687165D01*
X94677518Y-105687165D02*
X94715613Y-105649069D01*
X94715613Y-105649069D02*
X94753709Y-105572879D01*
X94753709Y-105572879D02*
X94753709Y-105344307D01*
X94753709Y-105344307D02*
X94715613Y-105268117D01*
X94715613Y-105268117D02*
X94677518Y-105230022D01*
X94677518Y-105230022D02*
X94601328Y-105191926D01*
X94601328Y-105191926D02*
X94448947Y-105191926D01*
X94448947Y-105191926D02*
X94372756Y-105230022D01*
X93267994Y-105268117D02*
X93344184Y-105230022D01*
X93344184Y-105230022D02*
X93382279Y-105191926D01*
X93382279Y-105191926D02*
X93420375Y-105115736D01*
X93420375Y-105115736D02*
X93420375Y-105077641D01*
X93420375Y-105077641D02*
X93382279Y-105001450D01*
X93382279Y-105001450D02*
X93344184Y-104963355D01*
X93344184Y-104963355D02*
X93267994Y-104925260D01*
X93267994Y-104925260D02*
X93115613Y-104925260D01*
X93115613Y-104925260D02*
X93039422Y-104963355D01*
X93039422Y-104963355D02*
X93001327Y-105001450D01*
X93001327Y-105001450D02*
X92963232Y-105077641D01*
X92963232Y-105077641D02*
X92963232Y-105115736D01*
X92963232Y-105115736D02*
X93001327Y-105191926D01*
X93001327Y-105191926D02*
X93039422Y-105230022D01*
X93039422Y-105230022D02*
X93115613Y-105268117D01*
X93115613Y-105268117D02*
X93267994Y-105268117D01*
X93267994Y-105268117D02*
X93344184Y-105306212D01*
X93344184Y-105306212D02*
X93382279Y-105344307D01*
X93382279Y-105344307D02*
X93420375Y-105420498D01*
X93420375Y-105420498D02*
X93420375Y-105572879D01*
X93420375Y-105572879D02*
X93382279Y-105649069D01*
X93382279Y-105649069D02*
X93344184Y-105687165D01*
X93344184Y-105687165D02*
X93267994Y-105725260D01*
X93267994Y-105725260D02*
X93115613Y-105725260D01*
X93115613Y-105725260D02*
X93039422Y-105687165D01*
X93039422Y-105687165D02*
X93001327Y-105649069D01*
X93001327Y-105649069D02*
X92963232Y-105572879D01*
X92963232Y-105572879D02*
X92963232Y-105420498D01*
X92963232Y-105420498D02*
X93001327Y-105344307D01*
X93001327Y-105344307D02*
X93039422Y-105306212D01*
X93039422Y-105306212D02*
X93115613Y-105268117D01*
X92010850Y-105725260D02*
X92010850Y-104925260D01*
X92010850Y-105230022D02*
X91934660Y-105191926D01*
X91934660Y-105191926D02*
X91782279Y-105191926D01*
X91782279Y-105191926D02*
X91706088Y-105230022D01*
X91706088Y-105230022D02*
X91667993Y-105268117D01*
X91667993Y-105268117D02*
X91629898Y-105344307D01*
X91629898Y-105344307D02*
X91629898Y-105572879D01*
X91629898Y-105572879D02*
X91667993Y-105649069D01*
X91667993Y-105649069D02*
X91706088Y-105687165D01*
X91706088Y-105687165D02*
X91782279Y-105725260D01*
X91782279Y-105725260D02*
X91934660Y-105725260D01*
X91934660Y-105725260D02*
X92010850Y-105687165D01*
X91363231Y-105191926D02*
X91172755Y-105725260D01*
X90982278Y-105191926D02*
X91172755Y-105725260D01*
X91172755Y-105725260D02*
X91248945Y-105915736D01*
X91248945Y-105915736D02*
X91287040Y-105953831D01*
X91287040Y-105953831D02*
X91363231Y-105991926D01*
X89801326Y-105306212D02*
X89687040Y-105344307D01*
X89687040Y-105344307D02*
X89648945Y-105382403D01*
X89648945Y-105382403D02*
X89610849Y-105458593D01*
X89610849Y-105458593D02*
X89610849Y-105572879D01*
X89610849Y-105572879D02*
X89648945Y-105649069D01*
X89648945Y-105649069D02*
X89687040Y-105687165D01*
X89687040Y-105687165D02*
X89763230Y-105725260D01*
X89763230Y-105725260D02*
X90067992Y-105725260D01*
X90067992Y-105725260D02*
X90067992Y-104925260D01*
X90067992Y-104925260D02*
X89801326Y-104925260D01*
X89801326Y-104925260D02*
X89725135Y-104963355D01*
X89725135Y-104963355D02*
X89687040Y-105001450D01*
X89687040Y-105001450D02*
X89648945Y-105077641D01*
X89648945Y-105077641D02*
X89648945Y-105153831D01*
X89648945Y-105153831D02*
X89687040Y-105230022D01*
X89687040Y-105230022D02*
X89725135Y-105268117D01*
X89725135Y-105268117D02*
X89801326Y-105306212D01*
X89801326Y-105306212D02*
X90067992Y-105306212D01*
X88925135Y-105725260D02*
X88925135Y-105306212D01*
X88925135Y-105306212D02*
X88963230Y-105230022D01*
X88963230Y-105230022D02*
X89039421Y-105191926D01*
X89039421Y-105191926D02*
X89191802Y-105191926D01*
X89191802Y-105191926D02*
X89267992Y-105230022D01*
X88925135Y-105687165D02*
X89001326Y-105725260D01*
X89001326Y-105725260D02*
X89191802Y-105725260D01*
X89191802Y-105725260D02*
X89267992Y-105687165D01*
X89267992Y-105687165D02*
X89306088Y-105610974D01*
X89306088Y-105610974D02*
X89306088Y-105534784D01*
X89306088Y-105534784D02*
X89267992Y-105458593D01*
X89267992Y-105458593D02*
X89191802Y-105420498D01*
X89191802Y-105420498D02*
X89001326Y-105420498D01*
X89001326Y-105420498D02*
X88925135Y-105382403D01*
X88544182Y-105191926D02*
X88544182Y-105725260D01*
X88544182Y-105268117D02*
X88506087Y-105230022D01*
X88506087Y-105230022D02*
X88429897Y-105191926D01*
X88429897Y-105191926D02*
X88315611Y-105191926D01*
X88315611Y-105191926D02*
X88239420Y-105230022D01*
X88239420Y-105230022D02*
X88201325Y-105306212D01*
X88201325Y-105306212D02*
X88201325Y-105725260D01*
X87820372Y-105725260D02*
X87820372Y-104925260D01*
X87744182Y-105420498D02*
X87515610Y-105725260D01*
X87515610Y-105191926D02*
X87820372Y-105496688D01*
X87058468Y-105725260D02*
X87134658Y-105687165D01*
X87134658Y-105687165D02*
X87172753Y-105649069D01*
X87172753Y-105649069D02*
X87210849Y-105572879D01*
X87210849Y-105572879D02*
X87210849Y-105344307D01*
X87210849Y-105344307D02*
X87172753Y-105268117D01*
X87172753Y-105268117D02*
X87134658Y-105230022D01*
X87134658Y-105230022D02*
X87058468Y-105191926D01*
X87058468Y-105191926D02*
X86944182Y-105191926D01*
X86944182Y-105191926D02*
X86867991Y-105230022D01*
X86867991Y-105230022D02*
X86829896Y-105268117D01*
X86829896Y-105268117D02*
X86791801Y-105344307D01*
X86791801Y-105344307D02*
X86791801Y-105572879D01*
X86791801Y-105572879D02*
X86829896Y-105649069D01*
X86829896Y-105649069D02*
X86867991Y-105687165D01*
X86867991Y-105687165D02*
X86944182Y-105725260D01*
X86944182Y-105725260D02*
X87058468Y-105725260D01*
X86334658Y-105725260D02*
X86410848Y-105687165D01*
X86410848Y-105687165D02*
X86448943Y-105610974D01*
X86448943Y-105610974D02*
X86448943Y-104925260D01*
X85725133Y-105687165D02*
X85801324Y-105725260D01*
X85801324Y-105725260D02*
X85953705Y-105725260D01*
X85953705Y-105725260D02*
X86029895Y-105687165D01*
X86029895Y-105687165D02*
X86067991Y-105610974D01*
X86067991Y-105610974D02*
X86067991Y-105306212D01*
X86067991Y-105306212D02*
X86029895Y-105230022D01*
X86029895Y-105230022D02*
X85953705Y-105191926D01*
X85953705Y-105191926D02*
X85801324Y-105191926D01*
X85801324Y-105191926D02*
X85725133Y-105230022D01*
X85725133Y-105230022D02*
X85687038Y-105306212D01*
X85687038Y-105306212D02*
X85687038Y-105382403D01*
X85687038Y-105382403D02*
X86067991Y-105458593D01*
X84582276Y-104925260D02*
X84429895Y-104925260D01*
X84429895Y-104925260D02*
X84353705Y-104963355D01*
X84353705Y-104963355D02*
X84277514Y-105039545D01*
X84277514Y-105039545D02*
X84239419Y-105191926D01*
X84239419Y-105191926D02*
X84239419Y-105458593D01*
X84239419Y-105458593D02*
X84277514Y-105610974D01*
X84277514Y-105610974D02*
X84353705Y-105687165D01*
X84353705Y-105687165D02*
X84429895Y-105725260D01*
X84429895Y-105725260D02*
X84582276Y-105725260D01*
X84582276Y-105725260D02*
X84658467Y-105687165D01*
X84658467Y-105687165D02*
X84734657Y-105610974D01*
X84734657Y-105610974D02*
X84772753Y-105458593D01*
X84772753Y-105458593D02*
X84772753Y-105191926D01*
X84772753Y-105191926D02*
X84734657Y-105039545D01*
X84734657Y-105039545D02*
X84658467Y-104963355D01*
X84658467Y-104963355D02*
X84582276Y-104925260D01*
X83782277Y-105725260D02*
X83858467Y-105687165D01*
X83858467Y-105687165D02*
X83896562Y-105610974D01*
X83896562Y-105610974D02*
X83896562Y-104925260D01*
X83363229Y-105725260D02*
X83439419Y-105687165D01*
X83439419Y-105687165D02*
X83477514Y-105649069D01*
X83477514Y-105649069D02*
X83515610Y-105572879D01*
X83515610Y-105572879D02*
X83515610Y-105344307D01*
X83515610Y-105344307D02*
X83477514Y-105268117D01*
X83477514Y-105268117D02*
X83439419Y-105230022D01*
X83439419Y-105230022D02*
X83363229Y-105191926D01*
X83363229Y-105191926D02*
X83248943Y-105191926D01*
X83248943Y-105191926D02*
X83172752Y-105230022D01*
X83172752Y-105230022D02*
X83134657Y-105268117D01*
X83134657Y-105268117D02*
X83096562Y-105344307D01*
X83096562Y-105344307D02*
X83096562Y-105572879D01*
X83096562Y-105572879D02*
X83134657Y-105649069D01*
X83134657Y-105649069D02*
X83172752Y-105687165D01*
X83172752Y-105687165D02*
X83248943Y-105725260D01*
X83248943Y-105725260D02*
X83363229Y-105725260D01*
X82753704Y-105191926D02*
X82753704Y-105725260D01*
X82753704Y-105268117D02*
X82715609Y-105230022D01*
X82715609Y-105230022D02*
X82639419Y-105191926D01*
X82639419Y-105191926D02*
X82525133Y-105191926D01*
X82525133Y-105191926D02*
X82448942Y-105230022D01*
X82448942Y-105230022D02*
X82410847Y-105306212D01*
X82410847Y-105306212D02*
X82410847Y-105725260D01*
X82029894Y-105725260D02*
X82029894Y-105191926D01*
X82029894Y-104925260D02*
X82067990Y-104963355D01*
X82067990Y-104963355D02*
X82029894Y-105001450D01*
X82029894Y-105001450D02*
X81991799Y-104963355D01*
X81991799Y-104963355D02*
X82029894Y-104925260D01*
X82029894Y-104925260D02*
X82029894Y-105001450D01*
X81534657Y-105725260D02*
X81610847Y-105687165D01*
X81610847Y-105687165D02*
X81648942Y-105610974D01*
X81648942Y-105610974D02*
X81648942Y-104925260D01*
X80887037Y-105191926D02*
X80887037Y-105725260D01*
X81229894Y-105191926D02*
X81229894Y-105610974D01*
X81229894Y-105610974D02*
X81191799Y-105687165D01*
X81191799Y-105687165D02*
X81115609Y-105725260D01*
X81115609Y-105725260D02*
X81001323Y-105725260D01*
X81001323Y-105725260D02*
X80925132Y-105687165D01*
X80925132Y-105687165D02*
X80887037Y-105649069D01*
X80163227Y-105725260D02*
X80163227Y-105306212D01*
X80163227Y-105306212D02*
X80201322Y-105230022D01*
X80201322Y-105230022D02*
X80277513Y-105191926D01*
X80277513Y-105191926D02*
X80429894Y-105191926D01*
X80429894Y-105191926D02*
X80506084Y-105230022D01*
X80163227Y-105687165D02*
X80239418Y-105725260D01*
X80239418Y-105725260D02*
X80429894Y-105725260D01*
X80429894Y-105725260D02*
X80506084Y-105687165D01*
X80506084Y-105687165D02*
X80544180Y-105610974D01*
X80544180Y-105610974D02*
X80544180Y-105534784D01*
X80544180Y-105534784D02*
X80506084Y-105458593D01*
X80506084Y-105458593D02*
X80429894Y-105420498D01*
X80429894Y-105420498D02*
X80239418Y-105420498D01*
X80239418Y-105420498D02*
X80163227Y-105382403D01*
X76708000Y-100076000D02*
X106172000Y-100076000D01*
X106172000Y-108229400D01*
X76708000Y-108229400D01*
X76708000Y-100076000D01*
D11*
%TO.C,REF\u002A\u002A*%
X88063614Y-94631792D02*
X88064059Y-94763011D01*
X88064362Y-94910216D01*
X88064548Y-95074349D01*
X88064642Y-95256352D01*
X88064671Y-95457165D01*
X88064661Y-95677732D01*
X88064636Y-95918992D01*
X88064622Y-96181889D01*
X88064622Y-96224040D01*
X88064646Y-96484668D01*
X88064685Y-96723796D01*
X88064708Y-96942360D01*
X88064687Y-97141295D01*
X88064593Y-97321535D01*
X88064395Y-97484015D01*
X88064063Y-97629670D01*
X88063569Y-97759434D01*
X88062883Y-97874243D01*
X88061976Y-97975030D01*
X88060817Y-98062730D01*
X88059378Y-98138279D01*
X88057629Y-98202611D01*
X88055540Y-98256661D01*
X88053083Y-98301363D01*
X88050227Y-98337652D01*
X88046943Y-98366463D01*
X88043202Y-98388731D01*
X88038974Y-98405390D01*
X88034229Y-98417375D01*
X88028939Y-98425621D01*
X88023073Y-98431062D01*
X88016602Y-98434634D01*
X88009497Y-98437270D01*
X88001728Y-98439906D01*
X87993266Y-98443477D01*
X87988908Y-98445145D01*
X87980395Y-98447111D01*
X87967694Y-98448911D01*
X87949885Y-98450555D01*
X87926049Y-98452047D01*
X87895266Y-98453397D01*
X87856617Y-98454611D01*
X87809182Y-98455697D01*
X87752043Y-98456661D01*
X87684279Y-98457511D01*
X87604971Y-98458253D01*
X87513199Y-98458897D01*
X87408044Y-98459447D01*
X87288587Y-98459913D01*
X87153908Y-98460300D01*
X87003088Y-98460616D01*
X86835206Y-98460869D01*
X86649345Y-98461066D01*
X86444583Y-98461213D01*
X86220002Y-98461318D01*
X85974682Y-98461389D01*
X85707704Y-98461432D01*
X85669321Y-98461437D01*
X85403922Y-98461480D01*
X85160050Y-98461525D01*
X84936783Y-98461548D01*
X84733196Y-98461524D01*
X84548367Y-98461430D01*
X84381373Y-98461243D01*
X84231290Y-98460939D01*
X84097196Y-98460494D01*
X83978166Y-98459885D01*
X83873279Y-98459089D01*
X83781610Y-98458080D01*
X83702237Y-98456837D01*
X83634237Y-98455335D01*
X83576686Y-98453551D01*
X83528662Y-98451461D01*
X83489240Y-98449042D01*
X83457499Y-98446270D01*
X83432514Y-98443121D01*
X83413364Y-98439572D01*
X83399123Y-98435598D01*
X83388871Y-98431178D01*
X83381682Y-98426286D01*
X83376635Y-98420900D01*
X83372805Y-98414996D01*
X83369271Y-98408549D01*
X83365108Y-98401537D01*
X83364025Y-98399687D01*
X83361813Y-98394180D01*
X83359786Y-98385868D01*
X83357938Y-98373809D01*
X83356261Y-98357063D01*
X83354745Y-98334687D01*
X83353383Y-98305740D01*
X83352167Y-98269280D01*
X83351089Y-98224367D01*
X83350140Y-98170057D01*
X83349312Y-98105410D01*
X83348597Y-98029484D01*
X83347987Y-97941338D01*
X83347942Y-97932493D01*
X83639378Y-97932493D01*
X83643260Y-97933765D01*
X83666520Y-97935791D01*
X83708874Y-97937626D01*
X83768132Y-97939227D01*
X83842107Y-97940549D01*
X83928610Y-97941548D01*
X84025452Y-97942180D01*
X84130445Y-97942400D01*
X84828651Y-97942400D01*
X85983090Y-97942400D01*
X85982456Y-97866200D01*
X85983574Y-97824160D01*
X85989304Y-97788334D01*
X86001890Y-97750772D01*
X86023568Y-97702577D01*
X86026789Y-97695897D01*
X86052188Y-97646359D01*
X86078996Y-97598369D01*
X86101917Y-97561466D01*
X86106485Y-97554834D01*
X86128516Y-97523593D01*
X86160693Y-97478654D01*
X86201457Y-97422147D01*
X86249245Y-97356204D01*
X86302498Y-97282957D01*
X86359655Y-97204536D01*
X86419155Y-97123072D01*
X86479437Y-97040698D01*
X86538940Y-96959544D01*
X86596105Y-96881742D01*
X86649370Y-96809423D01*
X86697174Y-96744718D01*
X86737957Y-96689759D01*
X86770158Y-96646676D01*
X86792216Y-96617602D01*
X86802571Y-96604667D01*
X86807044Y-96600351D01*
X86811236Y-96598312D01*
X86814643Y-96600926D01*
X86817325Y-96609986D01*
X86819341Y-96627285D01*
X86820748Y-96654614D01*
X86821605Y-96693765D01*
X86821970Y-96746533D01*
X86821903Y-96814707D01*
X86821460Y-96900082D01*
X86820702Y-97004449D01*
X86819685Y-97129600D01*
X86819308Y-97174300D01*
X86818169Y-97295395D01*
X86816972Y-97396688D01*
X86815636Y-97480262D01*
X86814077Y-97548204D01*
X86812215Y-97602599D01*
X86809966Y-97645532D01*
X86807248Y-97679089D01*
X86803979Y-97705355D01*
X86800078Y-97726416D01*
X86795461Y-97744357D01*
X86787192Y-97770770D01*
X86763583Y-97832772D01*
X86737685Y-97885573D01*
X86712535Y-97922645D01*
X86711339Y-97924075D01*
X86709168Y-97928424D01*
X86711328Y-97932026D01*
X86719644Y-97934951D01*
X86735940Y-97937269D01*
X86762041Y-97939051D01*
X86799771Y-97940367D01*
X86850956Y-97941286D01*
X86917420Y-97941878D01*
X87000987Y-97942215D01*
X87103483Y-97942365D01*
X87226732Y-97942400D01*
X87758296Y-97942400D01*
X87719523Y-97884783D01*
X87713432Y-97875893D01*
X87702976Y-97861069D01*
X87693579Y-97847422D01*
X87685183Y-97833765D01*
X87677733Y-97818911D01*
X87671173Y-97801670D01*
X87665446Y-97780855D01*
X87660495Y-97755280D01*
X87656266Y-97723755D01*
X87652701Y-97685093D01*
X87649744Y-97638107D01*
X87647340Y-97581608D01*
X87645431Y-97514409D01*
X87643962Y-97435322D01*
X87642876Y-97343160D01*
X87642118Y-97236734D01*
X87641630Y-97114857D01*
X87641358Y-96976341D01*
X87641243Y-96819999D01*
X87641231Y-96644642D01*
X87641265Y-96449082D01*
X87641289Y-96232133D01*
X87641280Y-96109513D01*
X87641243Y-95904447D01*
X87641227Y-95720116D01*
X87641288Y-95555334D01*
X87641484Y-95408916D01*
X87641870Y-95279674D01*
X87642505Y-95166422D01*
X87643444Y-95067975D01*
X87644745Y-94983144D01*
X87646464Y-94910744D01*
X87648659Y-94849589D01*
X87651385Y-94798492D01*
X87654701Y-94756267D01*
X87658662Y-94721727D01*
X87663325Y-94693686D01*
X87668747Y-94670958D01*
X87674986Y-94652356D01*
X87682097Y-94636693D01*
X87690138Y-94622784D01*
X87699166Y-94609441D01*
X87709236Y-94595479D01*
X87720407Y-94579711D01*
X87760197Y-94521867D01*
X86700314Y-94521867D01*
X86738311Y-94584966D01*
X86752993Y-94610005D01*
X86767531Y-94637586D01*
X86779627Y-94665700D01*
X86789532Y-94696551D01*
X86797494Y-94732344D01*
X86803761Y-94775283D01*
X86808582Y-94827574D01*
X86812206Y-94891419D01*
X86814881Y-94969025D01*
X86816857Y-95062594D01*
X86818382Y-95174333D01*
X86819704Y-95306445D01*
X86820613Y-95426434D01*
X86821020Y-95543063D01*
X86820767Y-95638531D01*
X86819857Y-95712556D01*
X86818293Y-95764855D01*
X86816079Y-95795149D01*
X86813220Y-95803156D01*
X86810161Y-95799858D01*
X86792006Y-95778408D01*
X86762275Y-95741889D01*
X86722639Y-95692442D01*
X86674771Y-95632207D01*
X86620343Y-95563327D01*
X86561027Y-95487943D01*
X86498495Y-95408196D01*
X86434421Y-95326228D01*
X86370475Y-95244180D01*
X86308331Y-95164194D01*
X86249661Y-95088411D01*
X86196137Y-95018973D01*
X86149430Y-94958021D01*
X86111214Y-94907696D01*
X86083161Y-94870140D01*
X86066943Y-94847495D01*
X86021635Y-94775212D01*
X85981661Y-94695463D01*
X85960130Y-94627188D01*
X85956827Y-94569844D01*
X85962116Y-94521867D01*
X84830356Y-94522117D01*
X84869867Y-94552722D01*
X84879248Y-94560089D01*
X84942183Y-94614438D01*
X85010997Y-94682259D01*
X85087596Y-94765516D01*
X85173888Y-94866178D01*
X85191052Y-94886847D01*
X85231833Y-94936409D01*
X85281588Y-94997326D01*
X85338955Y-95067898D01*
X85402569Y-95146424D01*
X85471069Y-95231204D01*
X85543090Y-95320537D01*
X85617270Y-95412722D01*
X85632517Y-95431702D01*
X85692246Y-95506060D01*
X85766653Y-95598848D01*
X85839131Y-95689388D01*
X85908314Y-95775978D01*
X85972841Y-95856918D01*
X86031347Y-95930506D01*
X86082470Y-95995044D01*
X86124847Y-96048829D01*
X86157115Y-96090162D01*
X86177910Y-96117342D01*
X86185869Y-96128668D01*
X86184111Y-96132771D01*
X86171230Y-96153334D01*
X86146885Y-96189561D01*
X86112247Y-96239824D01*
X86068486Y-96302492D01*
X86016775Y-96375936D01*
X85958284Y-96458527D01*
X85894184Y-96548636D01*
X85825646Y-96644631D01*
X85753843Y-96744885D01*
X85679944Y-96847768D01*
X85605121Y-96951650D01*
X85530545Y-97054901D01*
X85457387Y-97155892D01*
X85386819Y-97252994D01*
X85320011Y-97344577D01*
X85258135Y-97429011D01*
X85202361Y-97504667D01*
X85153862Y-97569916D01*
X85113807Y-97623128D01*
X85083369Y-97662673D01*
X85062944Y-97688026D01*
X85016899Y-97742295D01*
X84966612Y-97798775D01*
X84919815Y-97848669D01*
X84828651Y-97942400D01*
X84130445Y-97942400D01*
X84199356Y-97942349D01*
X84297607Y-97942091D01*
X84387030Y-97941637D01*
X84465333Y-97941010D01*
X84530223Y-97940235D01*
X84579411Y-97939335D01*
X84610604Y-97938334D01*
X84621511Y-97937257D01*
X84620322Y-97934037D01*
X84610176Y-97916452D01*
X84593040Y-97890158D01*
X84584540Y-97877691D01*
X84575329Y-97863622D01*
X84567233Y-97849351D01*
X84560185Y-97833479D01*
X84554117Y-97814609D01*
X84548961Y-97791341D01*
X84544651Y-97762278D01*
X84541119Y-97726021D01*
X84538297Y-97681170D01*
X84536118Y-97626328D01*
X84534514Y-97560097D01*
X84533419Y-97481077D01*
X84532765Y-97387871D01*
X84532484Y-97279079D01*
X84532509Y-97153303D01*
X84532772Y-97009145D01*
X84533206Y-96845207D01*
X84533745Y-96660089D01*
X84534279Y-96481232D01*
X84534805Y-96322374D01*
X84535350Y-96183316D01*
X84535945Y-96062665D01*
X84536619Y-95959028D01*
X84537403Y-95871011D01*
X84538326Y-95797223D01*
X84539419Y-95736269D01*
X84540712Y-95686757D01*
X84542235Y-95647293D01*
X84544019Y-95616484D01*
X84546092Y-95592938D01*
X84548486Y-95575260D01*
X84551230Y-95562059D01*
X84554356Y-95551940D01*
X84557892Y-95543511D01*
X84561791Y-95535375D01*
X84581438Y-95498544D01*
X84600225Y-95468391D01*
X84601272Y-95466908D01*
X84615602Y-95444659D01*
X84621511Y-95431702D01*
X84620504Y-95431249D01*
X84603305Y-95429803D01*
X84566656Y-95428480D01*
X84512962Y-95427316D01*
X84444630Y-95426347D01*
X84364064Y-95425611D01*
X84273670Y-95425142D01*
X84175853Y-95424978D01*
X83730195Y-95424978D01*
X83727120Y-96601845D01*
X83724045Y-97778711D01*
X83697407Y-97837622D01*
X83685485Y-97862183D01*
X83668246Y-97892434D01*
X83655074Y-97909560D01*
X83647076Y-97917591D01*
X83639378Y-97932493D01*
X83347942Y-97932493D01*
X83347474Y-97840029D01*
X83347050Y-97724617D01*
X83346706Y-97594160D01*
X83346434Y-97447716D01*
X83346227Y-97284344D01*
X83346076Y-97103101D01*
X83345972Y-96903048D01*
X83345908Y-96683241D01*
X83345876Y-96442739D01*
X83345867Y-96180602D01*
X83345867Y-93989031D01*
X83384249Y-93950649D01*
X83411355Y-93926911D01*
X83438253Y-93915111D01*
X83474560Y-93912267D01*
X83526489Y-93912267D01*
X83526489Y-94000206D01*
X83528427Y-94050102D01*
X83547199Y-94160523D01*
X83584217Y-94261987D01*
X83637369Y-94353152D01*
X83704546Y-94432673D01*
X83783638Y-94499205D01*
X83872534Y-94551406D01*
X83969125Y-94587930D01*
X84071300Y-94607434D01*
X84176950Y-94608573D01*
X84283964Y-94590005D01*
X84390232Y-94550384D01*
X84487219Y-94492516D01*
X84572293Y-94417684D01*
X84641015Y-94329615D01*
X84691918Y-94230616D01*
X84723535Y-94122993D01*
X84734400Y-94009054D01*
X84734400Y-93912267D01*
X86354753Y-93912267D01*
X86565897Y-93912280D01*
X86770020Y-93912330D01*
X86953686Y-93912430D01*
X87117991Y-93912592D01*
X87264029Y-93912829D01*
X87392894Y-93913153D01*
X87505683Y-93913575D01*
X87603488Y-93914109D01*
X87687404Y-93914767D01*
X87758527Y-93915561D01*
X87817950Y-93916504D01*
X87866768Y-93917608D01*
X87906077Y-93918884D01*
X87936969Y-93920347D01*
X87960541Y-93922007D01*
X87977886Y-93923878D01*
X87990099Y-93925972D01*
X87998275Y-93928300D01*
X88003508Y-93930876D01*
X88009504Y-93934445D01*
X88016279Y-93937978D01*
X88022478Y-93941488D01*
X88028126Y-93945918D01*
X88033247Y-93952208D01*
X88037869Y-93961301D01*
X88042015Y-93974139D01*
X88045713Y-93991662D01*
X88048987Y-94014813D01*
X88051863Y-94044534D01*
X88054367Y-94081765D01*
X88056524Y-94127449D01*
X88058360Y-94182527D01*
X88059900Y-94247941D01*
X88061170Y-94324633D01*
X88062195Y-94413544D01*
X88063001Y-94515617D01*
X88063034Y-94521867D01*
X88063614Y-94631792D01*
G36*
X88063614Y-94631792D02*
G01*
X88064059Y-94763011D01*
X88064362Y-94910216D01*
X88064548Y-95074349D01*
X88064642Y-95256352D01*
X88064671Y-95457165D01*
X88064661Y-95677732D01*
X88064636Y-95918992D01*
X88064622Y-96181889D01*
X88064622Y-96224040D01*
X88064646Y-96484668D01*
X88064685Y-96723796D01*
X88064708Y-96942360D01*
X88064687Y-97141295D01*
X88064593Y-97321535D01*
X88064395Y-97484015D01*
X88064063Y-97629670D01*
X88063569Y-97759434D01*
X88062883Y-97874243D01*
X88061976Y-97975030D01*
X88060817Y-98062730D01*
X88059378Y-98138279D01*
X88057629Y-98202611D01*
X88055540Y-98256661D01*
X88053083Y-98301363D01*
X88050227Y-98337652D01*
X88046943Y-98366463D01*
X88043202Y-98388731D01*
X88038974Y-98405390D01*
X88034229Y-98417375D01*
X88028939Y-98425621D01*
X88023073Y-98431062D01*
X88016602Y-98434634D01*
X88009497Y-98437270D01*
X88001728Y-98439906D01*
X87993266Y-98443477D01*
X87988908Y-98445145D01*
X87980395Y-98447111D01*
X87967694Y-98448911D01*
X87949885Y-98450555D01*
X87926049Y-98452047D01*
X87895266Y-98453397D01*
X87856617Y-98454611D01*
X87809182Y-98455697D01*
X87752043Y-98456661D01*
X87684279Y-98457511D01*
X87604971Y-98458253D01*
X87513199Y-98458897D01*
X87408044Y-98459447D01*
X87288587Y-98459913D01*
X87153908Y-98460300D01*
X87003088Y-98460616D01*
X86835206Y-98460869D01*
X86649345Y-98461066D01*
X86444583Y-98461213D01*
X86220002Y-98461318D01*
X85974682Y-98461389D01*
X85707704Y-98461432D01*
X85669321Y-98461437D01*
X85403922Y-98461480D01*
X85160050Y-98461525D01*
X84936783Y-98461548D01*
X84733196Y-98461524D01*
X84548367Y-98461430D01*
X84381373Y-98461243D01*
X84231290Y-98460939D01*
X84097196Y-98460494D01*
X83978166Y-98459885D01*
X83873279Y-98459089D01*
X83781610Y-98458080D01*
X83702237Y-98456837D01*
X83634237Y-98455335D01*
X83576686Y-98453551D01*
X83528662Y-98451461D01*
X83489240Y-98449042D01*
X83457499Y-98446270D01*
X83432514Y-98443121D01*
X83413364Y-98439572D01*
X83399123Y-98435598D01*
X83388871Y-98431178D01*
X83381682Y-98426286D01*
X83376635Y-98420900D01*
X83372805Y-98414996D01*
X83369271Y-98408549D01*
X83365108Y-98401537D01*
X83364025Y-98399687D01*
X83361813Y-98394180D01*
X83359786Y-98385868D01*
X83357938Y-98373809D01*
X83356261Y-98357063D01*
X83354745Y-98334687D01*
X83353383Y-98305740D01*
X83352167Y-98269280D01*
X83351089Y-98224367D01*
X83350140Y-98170057D01*
X83349312Y-98105410D01*
X83348597Y-98029484D01*
X83347987Y-97941338D01*
X83347942Y-97932493D01*
X83639378Y-97932493D01*
X83643260Y-97933765D01*
X83666520Y-97935791D01*
X83708874Y-97937626D01*
X83768132Y-97939227D01*
X83842107Y-97940549D01*
X83928610Y-97941548D01*
X84025452Y-97942180D01*
X84130445Y-97942400D01*
X84828651Y-97942400D01*
X85983090Y-97942400D01*
X85982456Y-97866200D01*
X85983574Y-97824160D01*
X85989304Y-97788334D01*
X86001890Y-97750772D01*
X86023568Y-97702577D01*
X86026789Y-97695897D01*
X86052188Y-97646359D01*
X86078996Y-97598369D01*
X86101917Y-97561466D01*
X86106485Y-97554834D01*
X86128516Y-97523593D01*
X86160693Y-97478654D01*
X86201457Y-97422147D01*
X86249245Y-97356204D01*
X86302498Y-97282957D01*
X86359655Y-97204536D01*
X86419155Y-97123072D01*
X86479437Y-97040698D01*
X86538940Y-96959544D01*
X86596105Y-96881742D01*
X86649370Y-96809423D01*
X86697174Y-96744718D01*
X86737957Y-96689759D01*
X86770158Y-96646676D01*
X86792216Y-96617602D01*
X86802571Y-96604667D01*
X86807044Y-96600351D01*
X86811236Y-96598312D01*
X86814643Y-96600926D01*
X86817325Y-96609986D01*
X86819341Y-96627285D01*
X86820748Y-96654614D01*
X86821605Y-96693765D01*
X86821970Y-96746533D01*
X86821903Y-96814707D01*
X86821460Y-96900082D01*
X86820702Y-97004449D01*
X86819685Y-97129600D01*
X86819308Y-97174300D01*
X86818169Y-97295395D01*
X86816972Y-97396688D01*
X86815636Y-97480262D01*
X86814077Y-97548204D01*
X86812215Y-97602599D01*
X86809966Y-97645532D01*
X86807248Y-97679089D01*
X86803979Y-97705355D01*
X86800078Y-97726416D01*
X86795461Y-97744357D01*
X86787192Y-97770770D01*
X86763583Y-97832772D01*
X86737685Y-97885573D01*
X86712535Y-97922645D01*
X86711339Y-97924075D01*
X86709168Y-97928424D01*
X86711328Y-97932026D01*
X86719644Y-97934951D01*
X86735940Y-97937269D01*
X86762041Y-97939051D01*
X86799771Y-97940367D01*
X86850956Y-97941286D01*
X86917420Y-97941878D01*
X87000987Y-97942215D01*
X87103483Y-97942365D01*
X87226732Y-97942400D01*
X87758296Y-97942400D01*
X87719523Y-97884783D01*
X87713432Y-97875893D01*
X87702976Y-97861069D01*
X87693579Y-97847422D01*
X87685183Y-97833765D01*
X87677733Y-97818911D01*
X87671173Y-97801670D01*
X87665446Y-97780855D01*
X87660495Y-97755280D01*
X87656266Y-97723755D01*
X87652701Y-97685093D01*
X87649744Y-97638107D01*
X87647340Y-97581608D01*
X87645431Y-97514409D01*
X87643962Y-97435322D01*
X87642876Y-97343160D01*
X87642118Y-97236734D01*
X87641630Y-97114857D01*
X87641358Y-96976341D01*
X87641243Y-96819999D01*
X87641231Y-96644642D01*
X87641265Y-96449082D01*
X87641289Y-96232133D01*
X87641280Y-96109513D01*
X87641243Y-95904447D01*
X87641227Y-95720116D01*
X87641288Y-95555334D01*
X87641484Y-95408916D01*
X87641870Y-95279674D01*
X87642505Y-95166422D01*
X87643444Y-95067975D01*
X87644745Y-94983144D01*
X87646464Y-94910744D01*
X87648659Y-94849589D01*
X87651385Y-94798492D01*
X87654701Y-94756267D01*
X87658662Y-94721727D01*
X87663325Y-94693686D01*
X87668747Y-94670958D01*
X87674986Y-94652356D01*
X87682097Y-94636693D01*
X87690138Y-94622784D01*
X87699166Y-94609441D01*
X87709236Y-94595479D01*
X87720407Y-94579711D01*
X87760197Y-94521867D01*
X86700314Y-94521867D01*
X86738311Y-94584966D01*
X86752993Y-94610005D01*
X86767531Y-94637586D01*
X86779627Y-94665700D01*
X86789532Y-94696551D01*
X86797494Y-94732344D01*
X86803761Y-94775283D01*
X86808582Y-94827574D01*
X86812206Y-94891419D01*
X86814881Y-94969025D01*
X86816857Y-95062594D01*
X86818382Y-95174333D01*
X86819704Y-95306445D01*
X86820613Y-95426434D01*
X86821020Y-95543063D01*
X86820767Y-95638531D01*
X86819857Y-95712556D01*
X86818293Y-95764855D01*
X86816079Y-95795149D01*
X86813220Y-95803156D01*
X86810161Y-95799858D01*
X86792006Y-95778408D01*
X86762275Y-95741889D01*
X86722639Y-95692442D01*
X86674771Y-95632207D01*
X86620343Y-95563327D01*
X86561027Y-95487943D01*
X86498495Y-95408196D01*
X86434421Y-95326228D01*
X86370475Y-95244180D01*
X86308331Y-95164194D01*
X86249661Y-95088411D01*
X86196137Y-95018973D01*
X86149430Y-94958021D01*
X86111214Y-94907696D01*
X86083161Y-94870140D01*
X86066943Y-94847495D01*
X86021635Y-94775212D01*
X85981661Y-94695463D01*
X85960130Y-94627188D01*
X85956827Y-94569844D01*
X85962116Y-94521867D01*
X84830356Y-94522117D01*
X84869867Y-94552722D01*
X84879248Y-94560089D01*
X84942183Y-94614438D01*
X85010997Y-94682259D01*
X85087596Y-94765516D01*
X85173888Y-94866178D01*
X85191052Y-94886847D01*
X85231833Y-94936409D01*
X85281588Y-94997326D01*
X85338955Y-95067898D01*
X85402569Y-95146424D01*
X85471069Y-95231204D01*
X85543090Y-95320537D01*
X85617270Y-95412722D01*
X85632517Y-95431702D01*
X85692246Y-95506060D01*
X85766653Y-95598848D01*
X85839131Y-95689388D01*
X85908314Y-95775978D01*
X85972841Y-95856918D01*
X86031347Y-95930506D01*
X86082470Y-95995044D01*
X86124847Y-96048829D01*
X86157115Y-96090162D01*
X86177910Y-96117342D01*
X86185869Y-96128668D01*
X86184111Y-96132771D01*
X86171230Y-96153334D01*
X86146885Y-96189561D01*
X86112247Y-96239824D01*
X86068486Y-96302492D01*
X86016775Y-96375936D01*
X85958284Y-96458527D01*
X85894184Y-96548636D01*
X85825646Y-96644631D01*
X85753843Y-96744885D01*
X85679944Y-96847768D01*
X85605121Y-96951650D01*
X85530545Y-97054901D01*
X85457387Y-97155892D01*
X85386819Y-97252994D01*
X85320011Y-97344577D01*
X85258135Y-97429011D01*
X85202361Y-97504667D01*
X85153862Y-97569916D01*
X85113807Y-97623128D01*
X85083369Y-97662673D01*
X85062944Y-97688026D01*
X85016899Y-97742295D01*
X84966612Y-97798775D01*
X84919815Y-97848669D01*
X84828651Y-97942400D01*
X84130445Y-97942400D01*
X84199356Y-97942349D01*
X84297607Y-97942091D01*
X84387030Y-97941637D01*
X84465333Y-97941010D01*
X84530223Y-97940235D01*
X84579411Y-97939335D01*
X84610604Y-97938334D01*
X84621511Y-97937257D01*
X84620322Y-97934037D01*
X84610176Y-97916452D01*
X84593040Y-97890158D01*
X84584540Y-97877691D01*
X84575329Y-97863622D01*
X84567233Y-97849351D01*
X84560185Y-97833479D01*
X84554117Y-97814609D01*
X84548961Y-97791341D01*
X84544651Y-97762278D01*
X84541119Y-97726021D01*
X84538297Y-97681170D01*
X84536118Y-97626328D01*
X84534514Y-97560097D01*
X84533419Y-97481077D01*
X84532765Y-97387871D01*
X84532484Y-97279079D01*
X84532509Y-97153303D01*
X84532772Y-97009145D01*
X84533206Y-96845207D01*
X84533745Y-96660089D01*
X84534279Y-96481232D01*
X84534805Y-96322374D01*
X84535350Y-96183316D01*
X84535945Y-96062665D01*
X84536619Y-95959028D01*
X84537403Y-95871011D01*
X84538326Y-95797223D01*
X84539419Y-95736269D01*
X84540712Y-95686757D01*
X84542235Y-95647293D01*
X84544019Y-95616484D01*
X84546092Y-95592938D01*
X84548486Y-95575260D01*
X84551230Y-95562059D01*
X84554356Y-95551940D01*
X84557892Y-95543511D01*
X84561791Y-95535375D01*
X84581438Y-95498544D01*
X84600225Y-95468391D01*
X84601272Y-95466908D01*
X84615602Y-95444659D01*
X84621511Y-95431702D01*
X84620504Y-95431249D01*
X84603305Y-95429803D01*
X84566656Y-95428480D01*
X84512962Y-95427316D01*
X84444630Y-95426347D01*
X84364064Y-95425611D01*
X84273670Y-95425142D01*
X84175853Y-95424978D01*
X83730195Y-95424978D01*
X83727120Y-96601845D01*
X83724045Y-97778711D01*
X83697407Y-97837622D01*
X83685485Y-97862183D01*
X83668246Y-97892434D01*
X83655074Y-97909560D01*
X83647076Y-97917591D01*
X83639378Y-97932493D01*
X83347942Y-97932493D01*
X83347474Y-97840029D01*
X83347050Y-97724617D01*
X83346706Y-97594160D01*
X83346434Y-97447716D01*
X83346227Y-97284344D01*
X83346076Y-97103101D01*
X83345972Y-96903048D01*
X83345908Y-96683241D01*
X83345876Y-96442739D01*
X83345867Y-96180602D01*
X83345867Y-93989031D01*
X83384249Y-93950649D01*
X83411355Y-93926911D01*
X83438253Y-93915111D01*
X83474560Y-93912267D01*
X83526489Y-93912267D01*
X83526489Y-94000206D01*
X83528427Y-94050102D01*
X83547199Y-94160523D01*
X83584217Y-94261987D01*
X83637369Y-94353152D01*
X83704546Y-94432673D01*
X83783638Y-94499205D01*
X83872534Y-94551406D01*
X83969125Y-94587930D01*
X84071300Y-94607434D01*
X84176950Y-94608573D01*
X84283964Y-94590005D01*
X84390232Y-94550384D01*
X84487219Y-94492516D01*
X84572293Y-94417684D01*
X84641015Y-94329615D01*
X84691918Y-94230616D01*
X84723535Y-94122993D01*
X84734400Y-94009054D01*
X84734400Y-93912267D01*
X86354753Y-93912267D01*
X86565897Y-93912280D01*
X86770020Y-93912330D01*
X86953686Y-93912430D01*
X87117991Y-93912592D01*
X87264029Y-93912829D01*
X87392894Y-93913153D01*
X87505683Y-93913575D01*
X87603488Y-93914109D01*
X87687404Y-93914767D01*
X87758527Y-93915561D01*
X87817950Y-93916504D01*
X87866768Y-93917608D01*
X87906077Y-93918884D01*
X87936969Y-93920347D01*
X87960541Y-93922007D01*
X87977886Y-93923878D01*
X87990099Y-93925972D01*
X87998275Y-93928300D01*
X88003508Y-93930876D01*
X88009504Y-93934445D01*
X88016279Y-93937978D01*
X88022478Y-93941488D01*
X88028126Y-93945918D01*
X88033247Y-93952208D01*
X88037869Y-93961301D01*
X88042015Y-93974139D01*
X88045713Y-93991662D01*
X88048987Y-94014813D01*
X88051863Y-94044534D01*
X88054367Y-94081765D01*
X88056524Y-94127449D01*
X88058360Y-94182527D01*
X88059900Y-94247941D01*
X88061170Y-94324633D01*
X88062195Y-94413544D01*
X88063001Y-94515617D01*
X88063034Y-94521867D01*
X88063614Y-94631792D01*
G37*
X80515755Y-97163467D02*
X80515261Y-97197363D01*
X80511632Y-97272202D01*
X80504022Y-97334401D01*
X80491688Y-97390984D01*
X80447313Y-97517076D01*
X80384400Y-97631679D01*
X80304238Y-97732568D01*
X80207740Y-97818924D01*
X80095822Y-97889932D01*
X79969397Y-97944776D01*
X79829378Y-97982638D01*
X79793149Y-97988351D01*
X79714155Y-97994313D01*
X79625841Y-97994646D01*
X79536075Y-97989659D01*
X79452722Y-97979666D01*
X79383651Y-97964978D01*
X79297187Y-97934749D01*
X79187286Y-97880057D01*
X79089956Y-97812543D01*
X79027867Y-97761556D01*
X79024605Y-97857622D01*
X79021343Y-97953689D01*
X78598450Y-97953689D01*
X78587543Y-97953686D01*
X78493056Y-97953380D01*
X78406331Y-97952616D01*
X78329837Y-97951451D01*
X78266043Y-97949942D01*
X78217418Y-97948147D01*
X78186433Y-97946121D01*
X78175556Y-97943922D01*
X78175578Y-97943463D01*
X78182614Y-97927910D01*
X78198434Y-97905071D01*
X78202734Y-97899638D01*
X78213777Y-97885606D01*
X78223311Y-97872186D01*
X78231461Y-97857722D01*
X78238352Y-97840556D01*
X78244111Y-97819034D01*
X78248862Y-97791498D01*
X78252731Y-97756292D01*
X78255844Y-97711760D01*
X78258325Y-97656246D01*
X78260300Y-97588093D01*
X78261894Y-97505645D01*
X78263234Y-97407246D01*
X78264444Y-97291239D01*
X78265649Y-97155968D01*
X78266595Y-97044586D01*
X79067378Y-97044586D01*
X79067378Y-97240462D01*
X79112048Y-97296973D01*
X79124785Y-97312212D01*
X79171604Y-97354844D01*
X79232255Y-97390672D01*
X79242897Y-97395850D01*
X79281676Y-97412745D01*
X79316692Y-97422909D01*
X79356722Y-97428325D01*
X79410541Y-97430978D01*
X79428648Y-97431383D01*
X79504011Y-97428540D01*
X79564743Y-97416620D01*
X79616452Y-97394037D01*
X79664746Y-97359211D01*
X79669803Y-97354798D01*
X79718272Y-97299160D01*
X79746459Y-97235333D01*
X79755752Y-97160282D01*
X79748520Y-97088693D01*
X79723796Y-97025645D01*
X79679249Y-96967758D01*
X79624319Y-96920808D01*
X79551894Y-96880961D01*
X79465340Y-96853263D01*
X79362670Y-96837096D01*
X79241894Y-96831842D01*
X79233007Y-96831857D01*
X79177660Y-96832655D01*
X79130736Y-96834488D01*
X79096953Y-96837111D01*
X79081028Y-96840274D01*
X79076943Y-96846741D01*
X79072572Y-96868875D01*
X79069604Y-96907988D01*
X79067914Y-96965939D01*
X79067378Y-97044586D01*
X78266595Y-97044586D01*
X78266975Y-96999778D01*
X78268228Y-96857012D01*
X78269651Y-96711942D01*
X78271176Y-96586027D01*
X78272933Y-96477436D01*
X78275051Y-96384334D01*
X78277660Y-96304891D01*
X78280890Y-96237273D01*
X78284869Y-96179649D01*
X78289728Y-96130185D01*
X78295597Y-96087050D01*
X78302604Y-96048410D01*
X78310880Y-96012434D01*
X78320554Y-95977289D01*
X78331756Y-95941142D01*
X78344616Y-95902161D01*
X78360090Y-95859091D01*
X78402994Y-95766871D01*
X78456735Y-95687099D01*
X78525576Y-95612965D01*
X78603185Y-95549405D01*
X78707761Y-95487725D01*
X78827244Y-95440202D01*
X78962508Y-95406567D01*
X79114426Y-95386552D01*
X79283872Y-95379889D01*
X79341890Y-95380287D01*
X79407398Y-95382335D01*
X79468693Y-95386704D01*
X79530097Y-95394035D01*
X79595932Y-95404969D01*
X79670520Y-95420147D01*
X79758184Y-95440209D01*
X79863245Y-95465797D01*
X79891806Y-95472820D01*
X79967054Y-95490776D01*
X80037388Y-95506820D01*
X80098567Y-95520028D01*
X80146354Y-95529474D01*
X80176511Y-95534231D01*
X80204783Y-95537910D01*
X80231060Y-95543187D01*
X80241059Y-95547942D01*
X80237952Y-95556781D01*
X80227194Y-95584072D01*
X80209864Y-95626906D01*
X80187126Y-95682425D01*
X80160147Y-95747772D01*
X80130090Y-95820089D01*
X80123493Y-95835879D01*
X80084907Y-95926484D01*
X80053768Y-95996217D01*
X80029917Y-96045405D01*
X80013198Y-96074374D01*
X80003454Y-96083452D01*
X79995766Y-96081405D01*
X79969415Y-96071760D01*
X79930982Y-96056190D01*
X79885822Y-96036815D01*
X79791293Y-95998814D01*
X79654480Y-95957780D01*
X79513289Y-95932612D01*
X79475314Y-95928611D01*
X79372059Y-95926447D01*
X79284952Y-95939622D01*
X79213129Y-95968756D01*
X79155731Y-96014466D01*
X79111896Y-96077372D01*
X79080762Y-96158092D01*
X79061470Y-96257245D01*
X79054050Y-96316224D01*
X79215936Y-96309445D01*
X79342495Y-96307813D01*
X79493951Y-96314194D01*
X79642396Y-96328777D01*
X79778578Y-96350882D01*
X79843245Y-96365821D01*
X79975490Y-96408741D01*
X80097762Y-96465340D01*
X80207685Y-96534017D01*
X80302883Y-96613170D01*
X80380980Y-96701196D01*
X80439599Y-96796493D01*
X80463595Y-96848864D01*
X80489232Y-96919590D01*
X80505478Y-96990812D01*
X80513822Y-97069712D01*
X80515690Y-97160282D01*
X80515755Y-97163467D01*
G36*
X80515755Y-97163467D02*
G01*
X80515261Y-97197363D01*
X80511632Y-97272202D01*
X80504022Y-97334401D01*
X80491688Y-97390984D01*
X80447313Y-97517076D01*
X80384400Y-97631679D01*
X80304238Y-97732568D01*
X80207740Y-97818924D01*
X80095822Y-97889932D01*
X79969397Y-97944776D01*
X79829378Y-97982638D01*
X79793149Y-97988351D01*
X79714155Y-97994313D01*
X79625841Y-97994646D01*
X79536075Y-97989659D01*
X79452722Y-97979666D01*
X79383651Y-97964978D01*
X79297187Y-97934749D01*
X79187286Y-97880057D01*
X79089956Y-97812543D01*
X79027867Y-97761556D01*
X79024605Y-97857622D01*
X79021343Y-97953689D01*
X78598450Y-97953689D01*
X78587543Y-97953686D01*
X78493056Y-97953380D01*
X78406331Y-97952616D01*
X78329837Y-97951451D01*
X78266043Y-97949942D01*
X78217418Y-97948147D01*
X78186433Y-97946121D01*
X78175556Y-97943922D01*
X78175578Y-97943463D01*
X78182614Y-97927910D01*
X78198434Y-97905071D01*
X78202734Y-97899638D01*
X78213777Y-97885606D01*
X78223311Y-97872186D01*
X78231461Y-97857722D01*
X78238352Y-97840556D01*
X78244111Y-97819034D01*
X78248862Y-97791498D01*
X78252731Y-97756292D01*
X78255844Y-97711760D01*
X78258325Y-97656246D01*
X78260300Y-97588093D01*
X78261894Y-97505645D01*
X78263234Y-97407246D01*
X78264444Y-97291239D01*
X78265649Y-97155968D01*
X78266595Y-97044586D01*
X79067378Y-97044586D01*
X79067378Y-97240462D01*
X79112048Y-97296973D01*
X79124785Y-97312212D01*
X79171604Y-97354844D01*
X79232255Y-97390672D01*
X79242897Y-97395850D01*
X79281676Y-97412745D01*
X79316692Y-97422909D01*
X79356722Y-97428325D01*
X79410541Y-97430978D01*
X79428648Y-97431383D01*
X79504011Y-97428540D01*
X79564743Y-97416620D01*
X79616452Y-97394037D01*
X79664746Y-97359211D01*
X79669803Y-97354798D01*
X79718272Y-97299160D01*
X79746459Y-97235333D01*
X79755752Y-97160282D01*
X79748520Y-97088693D01*
X79723796Y-97025645D01*
X79679249Y-96967758D01*
X79624319Y-96920808D01*
X79551894Y-96880961D01*
X79465340Y-96853263D01*
X79362670Y-96837096D01*
X79241894Y-96831842D01*
X79233007Y-96831857D01*
X79177660Y-96832655D01*
X79130736Y-96834488D01*
X79096953Y-96837111D01*
X79081028Y-96840274D01*
X79076943Y-96846741D01*
X79072572Y-96868875D01*
X79069604Y-96907988D01*
X79067914Y-96965939D01*
X79067378Y-97044586D01*
X78266595Y-97044586D01*
X78266975Y-96999778D01*
X78268228Y-96857012D01*
X78269651Y-96711942D01*
X78271176Y-96586027D01*
X78272933Y-96477436D01*
X78275051Y-96384334D01*
X78277660Y-96304891D01*
X78280890Y-96237273D01*
X78284869Y-96179649D01*
X78289728Y-96130185D01*
X78295597Y-96087050D01*
X78302604Y-96048410D01*
X78310880Y-96012434D01*
X78320554Y-95977289D01*
X78331756Y-95941142D01*
X78344616Y-95902161D01*
X78360090Y-95859091D01*
X78402994Y-95766871D01*
X78456735Y-95687099D01*
X78525576Y-95612965D01*
X78603185Y-95549405D01*
X78707761Y-95487725D01*
X78827244Y-95440202D01*
X78962508Y-95406567D01*
X79114426Y-95386552D01*
X79283872Y-95379889D01*
X79341890Y-95380287D01*
X79407398Y-95382335D01*
X79468693Y-95386704D01*
X79530097Y-95394035D01*
X79595932Y-95404969D01*
X79670520Y-95420147D01*
X79758184Y-95440209D01*
X79863245Y-95465797D01*
X79891806Y-95472820D01*
X79967054Y-95490776D01*
X80037388Y-95506820D01*
X80098567Y-95520028D01*
X80146354Y-95529474D01*
X80176511Y-95534231D01*
X80204783Y-95537910D01*
X80231060Y-95543187D01*
X80241059Y-95547942D01*
X80237952Y-95556781D01*
X80227194Y-95584072D01*
X80209864Y-95626906D01*
X80187126Y-95682425D01*
X80160147Y-95747772D01*
X80130090Y-95820089D01*
X80123493Y-95835879D01*
X80084907Y-95926484D01*
X80053768Y-95996217D01*
X80029917Y-96045405D01*
X80013198Y-96074374D01*
X80003454Y-96083452D01*
X79995766Y-96081405D01*
X79969415Y-96071760D01*
X79930982Y-96056190D01*
X79885822Y-96036815D01*
X79791293Y-95998814D01*
X79654480Y-95957780D01*
X79513289Y-95932612D01*
X79475314Y-95928611D01*
X79372059Y-95926447D01*
X79284952Y-95939622D01*
X79213129Y-95968756D01*
X79155731Y-96014466D01*
X79111896Y-96077372D01*
X79080762Y-96158092D01*
X79061470Y-96257245D01*
X79054050Y-96316224D01*
X79215936Y-96309445D01*
X79342495Y-96307813D01*
X79493951Y-96314194D01*
X79642396Y-96328777D01*
X79778578Y-96350882D01*
X79843245Y-96365821D01*
X79975490Y-96408741D01*
X80097762Y-96465340D01*
X80207685Y-96534017D01*
X80302883Y-96613170D01*
X80380980Y-96701196D01*
X80439599Y-96796493D01*
X80463595Y-96848864D01*
X80489232Y-96919590D01*
X80505478Y-96990812D01*
X80513822Y-97069712D01*
X80515690Y-97160282D01*
X80515755Y-97163467D01*
G37*
X77973994Y-96762711D02*
X77973268Y-96840158D01*
X77964689Y-96991594D01*
X77945833Y-97128283D01*
X77915837Y-97254276D01*
X77873836Y-97373625D01*
X77818969Y-97490381D01*
X77752167Y-97601179D01*
X77661363Y-97714739D01*
X77557708Y-97810211D01*
X77441887Y-97887073D01*
X77314586Y-97944797D01*
X77176489Y-97982858D01*
X77138793Y-97988666D01*
X77059752Y-97994396D01*
X76971629Y-97994583D01*
X76882236Y-97989539D01*
X76799384Y-97979578D01*
X76730887Y-97965012D01*
X76700035Y-97955364D01*
X76622730Y-97925123D01*
X76545679Y-97887617D01*
X76476200Y-97846614D01*
X76421615Y-97805879D01*
X76398916Y-97786505D01*
X76376201Y-97768662D01*
X76364779Y-97761778D01*
X76363537Y-97763424D01*
X76360728Y-97781205D01*
X76358776Y-97814370D01*
X76358045Y-97857733D01*
X76358045Y-97953689D01*
X75499896Y-97953689D01*
X75534161Y-97892974D01*
X75539355Y-97883868D01*
X75547715Y-97869249D01*
X75555288Y-97855173D01*
X75562112Y-97840540D01*
X75568227Y-97824249D01*
X75573673Y-97805198D01*
X75578487Y-97782286D01*
X75582708Y-97754413D01*
X75586377Y-97720478D01*
X75589531Y-97679379D01*
X75592211Y-97630015D01*
X75594454Y-97571286D01*
X75596299Y-97502090D01*
X75597787Y-97421326D01*
X75598955Y-97327894D01*
X75599844Y-97220692D01*
X75600491Y-97098620D01*
X75600936Y-96960576D01*
X75601218Y-96805459D01*
X75601375Y-96632168D01*
X75601448Y-96439603D01*
X75601474Y-96226662D01*
X75601485Y-96090530D01*
X76403200Y-96090530D01*
X76403200Y-97240721D01*
X76473756Y-97287089D01*
X76514417Y-97310791D01*
X76568546Y-97336639D01*
X76617689Y-97354829D01*
X76681165Y-97370551D01*
X76777331Y-97381541D01*
X76861900Y-97373365D01*
X76935219Y-97345805D01*
X76997637Y-97298642D01*
X77049502Y-97231658D01*
X77091160Y-97144633D01*
X77122962Y-97037350D01*
X77125545Y-97025009D01*
X77134000Y-96963772D01*
X77139663Y-96886692D01*
X77142576Y-96799002D01*
X77142783Y-96705934D01*
X77140330Y-96612720D01*
X77135261Y-96524594D01*
X77127619Y-96446788D01*
X77117448Y-96384533D01*
X77116167Y-96378666D01*
X77087126Y-96268121D01*
X77052610Y-96177575D01*
X77011456Y-96104953D01*
X76962499Y-96048181D01*
X76904574Y-96005184D01*
X76872620Y-95989615D01*
X76799784Y-95970722D01*
X76718443Y-95967465D01*
X76633319Y-95979389D01*
X76549133Y-96006040D01*
X76470608Y-96046962D01*
X76403200Y-96090530D01*
X75601485Y-96090530D01*
X75601493Y-95992245D01*
X75601689Y-94307378D01*
X76507017Y-94307378D01*
X76482585Y-94344067D01*
X76476318Y-94353647D01*
X76450208Y-94399981D01*
X76432469Y-94447102D01*
X76420908Y-94502251D01*
X76413331Y-94572667D01*
X76412839Y-94579650D01*
X76411062Y-94617641D01*
X76409444Y-94671576D01*
X76407999Y-94738703D01*
X76406740Y-94816271D01*
X76405680Y-94901528D01*
X76404829Y-94991724D01*
X76404203Y-95084107D01*
X76403812Y-95175925D01*
X76403670Y-95264427D01*
X76403790Y-95346862D01*
X76404183Y-95420479D01*
X76404862Y-95482526D01*
X76405841Y-95530251D01*
X76407132Y-95560904D01*
X76408747Y-95571733D01*
X76416957Y-95567333D01*
X76438647Y-95552362D01*
X76468014Y-95530448D01*
X76516879Y-95496236D01*
X76605125Y-95449714D01*
X76703916Y-95416046D01*
X76816510Y-95394231D01*
X76946164Y-95383265D01*
X77038670Y-95382219D01*
X77160011Y-95392014D01*
X77270099Y-95416174D01*
X77373389Y-95455785D01*
X77474338Y-95511932D01*
X77519503Y-95542883D01*
X77624911Y-95634115D01*
X77716538Y-95743106D01*
X77794332Y-95869726D01*
X77858241Y-96013845D01*
X77908214Y-96175332D01*
X77944198Y-96354059D01*
X77966143Y-96549895D01*
X77971900Y-96705934D01*
X77973994Y-96762711D01*
G36*
X77973994Y-96762711D02*
G01*
X77973268Y-96840158D01*
X77964689Y-96991594D01*
X77945833Y-97128283D01*
X77915837Y-97254276D01*
X77873836Y-97373625D01*
X77818969Y-97490381D01*
X77752167Y-97601179D01*
X77661363Y-97714739D01*
X77557708Y-97810211D01*
X77441887Y-97887073D01*
X77314586Y-97944797D01*
X77176489Y-97982858D01*
X77138793Y-97988666D01*
X77059752Y-97994396D01*
X76971629Y-97994583D01*
X76882236Y-97989539D01*
X76799384Y-97979578D01*
X76730887Y-97965012D01*
X76700035Y-97955364D01*
X76622730Y-97925123D01*
X76545679Y-97887617D01*
X76476200Y-97846614D01*
X76421615Y-97805879D01*
X76398916Y-97786505D01*
X76376201Y-97768662D01*
X76364779Y-97761778D01*
X76363537Y-97763424D01*
X76360728Y-97781205D01*
X76358776Y-97814370D01*
X76358045Y-97857733D01*
X76358045Y-97953689D01*
X75499896Y-97953689D01*
X75534161Y-97892974D01*
X75539355Y-97883868D01*
X75547715Y-97869249D01*
X75555288Y-97855173D01*
X75562112Y-97840540D01*
X75568227Y-97824249D01*
X75573673Y-97805198D01*
X75578487Y-97782286D01*
X75582708Y-97754413D01*
X75586377Y-97720478D01*
X75589531Y-97679379D01*
X75592211Y-97630015D01*
X75594454Y-97571286D01*
X75596299Y-97502090D01*
X75597787Y-97421326D01*
X75598955Y-97327894D01*
X75599844Y-97220692D01*
X75600491Y-97098620D01*
X75600936Y-96960576D01*
X75601218Y-96805459D01*
X75601375Y-96632168D01*
X75601448Y-96439603D01*
X75601474Y-96226662D01*
X75601485Y-96090530D01*
X76403200Y-96090530D01*
X76403200Y-97240721D01*
X76473756Y-97287089D01*
X76514417Y-97310791D01*
X76568546Y-97336639D01*
X76617689Y-97354829D01*
X76681165Y-97370551D01*
X76777331Y-97381541D01*
X76861900Y-97373365D01*
X76935219Y-97345805D01*
X76997637Y-97298642D01*
X77049502Y-97231658D01*
X77091160Y-97144633D01*
X77122962Y-97037350D01*
X77125545Y-97025009D01*
X77134000Y-96963772D01*
X77139663Y-96886692D01*
X77142576Y-96799002D01*
X77142783Y-96705934D01*
X77140330Y-96612720D01*
X77135261Y-96524594D01*
X77127619Y-96446788D01*
X77117448Y-96384533D01*
X77116167Y-96378666D01*
X77087126Y-96268121D01*
X77052610Y-96177575D01*
X77011456Y-96104953D01*
X76962499Y-96048181D01*
X76904574Y-96005184D01*
X76872620Y-95989615D01*
X76799784Y-95970722D01*
X76718443Y-95967465D01*
X76633319Y-95979389D01*
X76549133Y-96006040D01*
X76470608Y-96046962D01*
X76403200Y-96090530D01*
X75601485Y-96090530D01*
X75601493Y-95992245D01*
X75601689Y-94307378D01*
X76507017Y-94307378D01*
X76482585Y-94344067D01*
X76476318Y-94353647D01*
X76450208Y-94399981D01*
X76432469Y-94447102D01*
X76420908Y-94502251D01*
X76413331Y-94572667D01*
X76412839Y-94579650D01*
X76411062Y-94617641D01*
X76409444Y-94671576D01*
X76407999Y-94738703D01*
X76406740Y-94816271D01*
X76405680Y-94901528D01*
X76404829Y-94991724D01*
X76404203Y-95084107D01*
X76403812Y-95175925D01*
X76403670Y-95264427D01*
X76403790Y-95346862D01*
X76404183Y-95420479D01*
X76404862Y-95482526D01*
X76405841Y-95530251D01*
X76407132Y-95560904D01*
X76408747Y-95571733D01*
X76416957Y-95567333D01*
X76438647Y-95552362D01*
X76468014Y-95530448D01*
X76516879Y-95496236D01*
X76605125Y-95449714D01*
X76703916Y-95416046D01*
X76816510Y-95394231D01*
X76946164Y-95383265D01*
X77038670Y-95382219D01*
X77160011Y-95392014D01*
X77270099Y-95416174D01*
X77373389Y-95455785D01*
X77474338Y-95511932D01*
X77519503Y-95542883D01*
X77624911Y-95634115D01*
X77716538Y-95743106D01*
X77794332Y-95869726D01*
X77858241Y-96013845D01*
X77908214Y-96175332D01*
X77944198Y-96354059D01*
X77966143Y-96549895D01*
X77971900Y-96705934D01*
X77973994Y-96762711D01*
G37*
X81776711Y-94482033D02*
X81872268Y-94499523D01*
X82036558Y-94544564D01*
X82190589Y-94607656D01*
X82336509Y-94689915D01*
X82476466Y-94792457D01*
X82612608Y-94916399D01*
X82656473Y-94961661D01*
X82768758Y-95093865D01*
X82861972Y-95231832D01*
X82938719Y-95379750D01*
X83001603Y-95541803D01*
X83005420Y-95553391D01*
X83055507Y-95739392D01*
X83088899Y-95935521D01*
X83105584Y-96137568D01*
X83105551Y-96341325D01*
X83088791Y-96542581D01*
X83055292Y-96737128D01*
X83005044Y-96920756D01*
X82961190Y-97038053D01*
X82883348Y-97200951D01*
X82789828Y-97354866D01*
X82682822Y-97496671D01*
X82564519Y-97623239D01*
X82437111Y-97731441D01*
X82359606Y-97784120D01*
X82232725Y-97853750D01*
X82095243Y-97912468D01*
X81953716Y-97957587D01*
X81814702Y-97986422D01*
X81800597Y-97988106D01*
X81757153Y-97991434D01*
X81699723Y-97994275D01*
X81634122Y-97996373D01*
X81566167Y-97997468D01*
X81439378Y-97995140D01*
X81291673Y-97982136D01*
X81153779Y-97957133D01*
X81020014Y-97919318D01*
X80996562Y-97910889D01*
X80948612Y-97891408D01*
X80892140Y-97866473D01*
X80830379Y-97837722D01*
X80766563Y-97806790D01*
X80703926Y-97775315D01*
X80645703Y-97744934D01*
X80595127Y-97717283D01*
X80555433Y-97693999D01*
X80529854Y-97676718D01*
X80521625Y-97667079D01*
X80523076Y-97663984D01*
X80534250Y-97644079D01*
X80555134Y-97608420D01*
X80584265Y-97559459D01*
X80620181Y-97499646D01*
X80661420Y-97431433D01*
X80706517Y-97357271D01*
X80887785Y-97060008D01*
X80934315Y-97104539D01*
X81025723Y-97182865D01*
X81139334Y-97257439D01*
X81257122Y-97311474D01*
X81377559Y-97344290D01*
X81499117Y-97355211D01*
X81540585Y-97353868D01*
X81658080Y-97335612D01*
X81768089Y-97296617D01*
X81869430Y-97237670D01*
X81960921Y-97159557D01*
X82041380Y-97063064D01*
X82109627Y-96948978D01*
X82125908Y-96914724D01*
X82171982Y-96791240D01*
X82207106Y-96652918D01*
X82231197Y-96503561D01*
X82244173Y-96346973D01*
X82245949Y-96186956D01*
X82236443Y-96027314D01*
X82215572Y-95871850D01*
X82183252Y-95724366D01*
X82139399Y-95588667D01*
X82101982Y-95502076D01*
X82037185Y-95388688D01*
X81961772Y-95295070D01*
X81875418Y-95220959D01*
X81777795Y-95166094D01*
X81668577Y-95130212D01*
X81547439Y-95113051D01*
X81478038Y-95111880D01*
X81355168Y-95126141D01*
X81239664Y-95161241D01*
X81132953Y-95216682D01*
X81036464Y-95291964D01*
X81020720Y-95306440D01*
X80990150Y-95332962D01*
X80967809Y-95350138D01*
X80957691Y-95354787D01*
X80955706Y-95352597D01*
X80941241Y-95333721D01*
X80917400Y-95300397D01*
X80886029Y-95255380D01*
X80848974Y-95201425D01*
X80808083Y-95141285D01*
X80765202Y-95077718D01*
X80722178Y-95013476D01*
X80680857Y-94951315D01*
X80643086Y-94893991D01*
X80610712Y-94844257D01*
X80585582Y-94804868D01*
X80569542Y-94778580D01*
X80564439Y-94768147D01*
X80569050Y-94763941D01*
X80588267Y-94758933D01*
X80597838Y-94756386D01*
X80625809Y-94745249D01*
X80667448Y-94726802D01*
X80718995Y-94702725D01*
X80776690Y-94674699D01*
X80787957Y-94669154D01*
X80965687Y-94589889D01*
X81135490Y-94530385D01*
X81299430Y-94490245D01*
X81459571Y-94469071D01*
X81617977Y-94466466D01*
X81776711Y-94482033D01*
G36*
X81776711Y-94482033D02*
G01*
X81872268Y-94499523D01*
X82036558Y-94544564D01*
X82190589Y-94607656D01*
X82336509Y-94689915D01*
X82476466Y-94792457D01*
X82612608Y-94916399D01*
X82656473Y-94961661D01*
X82768758Y-95093865D01*
X82861972Y-95231832D01*
X82938719Y-95379750D01*
X83001603Y-95541803D01*
X83005420Y-95553391D01*
X83055507Y-95739392D01*
X83088899Y-95935521D01*
X83105584Y-96137568D01*
X83105551Y-96341325D01*
X83088791Y-96542581D01*
X83055292Y-96737128D01*
X83005044Y-96920756D01*
X82961190Y-97038053D01*
X82883348Y-97200951D01*
X82789828Y-97354866D01*
X82682822Y-97496671D01*
X82564519Y-97623239D01*
X82437111Y-97731441D01*
X82359606Y-97784120D01*
X82232725Y-97853750D01*
X82095243Y-97912468D01*
X81953716Y-97957587D01*
X81814702Y-97986422D01*
X81800597Y-97988106D01*
X81757153Y-97991434D01*
X81699723Y-97994275D01*
X81634122Y-97996373D01*
X81566167Y-97997468D01*
X81439378Y-97995140D01*
X81291673Y-97982136D01*
X81153779Y-97957133D01*
X81020014Y-97919318D01*
X80996562Y-97910889D01*
X80948612Y-97891408D01*
X80892140Y-97866473D01*
X80830379Y-97837722D01*
X80766563Y-97806790D01*
X80703926Y-97775315D01*
X80645703Y-97744934D01*
X80595127Y-97717283D01*
X80555433Y-97693999D01*
X80529854Y-97676718D01*
X80521625Y-97667079D01*
X80523076Y-97663984D01*
X80534250Y-97644079D01*
X80555134Y-97608420D01*
X80584265Y-97559459D01*
X80620181Y-97499646D01*
X80661420Y-97431433D01*
X80706517Y-97357271D01*
X80887785Y-97060008D01*
X80934315Y-97104539D01*
X81025723Y-97182865D01*
X81139334Y-97257439D01*
X81257122Y-97311474D01*
X81377559Y-97344290D01*
X81499117Y-97355211D01*
X81540585Y-97353868D01*
X81658080Y-97335612D01*
X81768089Y-97296617D01*
X81869430Y-97237670D01*
X81960921Y-97159557D01*
X82041380Y-97063064D01*
X82109627Y-96948978D01*
X82125908Y-96914724D01*
X82171982Y-96791240D01*
X82207106Y-96652918D01*
X82231197Y-96503561D01*
X82244173Y-96346973D01*
X82245949Y-96186956D01*
X82236443Y-96027314D01*
X82215572Y-95871850D01*
X82183252Y-95724366D01*
X82139399Y-95588667D01*
X82101982Y-95502076D01*
X82037185Y-95388688D01*
X81961772Y-95295070D01*
X81875418Y-95220959D01*
X81777795Y-95166094D01*
X81668577Y-95130212D01*
X81547439Y-95113051D01*
X81478038Y-95111880D01*
X81355168Y-95126141D01*
X81239664Y-95161241D01*
X81132953Y-95216682D01*
X81036464Y-95291964D01*
X81020720Y-95306440D01*
X80990150Y-95332962D01*
X80967809Y-95350138D01*
X80957691Y-95354787D01*
X80955706Y-95352597D01*
X80941241Y-95333721D01*
X80917400Y-95300397D01*
X80886029Y-95255380D01*
X80848974Y-95201425D01*
X80808083Y-95141285D01*
X80765202Y-95077718D01*
X80722178Y-95013476D01*
X80680857Y-94951315D01*
X80643086Y-94893991D01*
X80610712Y-94844257D01*
X80585582Y-94804868D01*
X80569542Y-94778580D01*
X80564439Y-94768147D01*
X80569050Y-94763941D01*
X80588267Y-94758933D01*
X80597838Y-94756386D01*
X80625809Y-94745249D01*
X80667448Y-94726802D01*
X80718995Y-94702725D01*
X80776690Y-94674699D01*
X80787957Y-94669154D01*
X80965687Y-94589889D01*
X81135490Y-94530385D01*
X81299430Y-94490245D01*
X81459571Y-94469071D01*
X81617977Y-94466466D01*
X81776711Y-94482033D01*
G37*
X85628853Y-98789936D02*
X85695100Y-98795366D01*
X85750400Y-98804964D01*
X85801283Y-98819825D01*
X85872595Y-98852958D01*
X85923752Y-98895640D01*
X85954575Y-98947705D01*
X85964889Y-99008983D01*
X85963952Y-99040232D01*
X85958160Y-99065029D01*
X85943353Y-99086699D01*
X85915380Y-99114049D01*
X85907402Y-99121378D01*
X85883692Y-99142281D01*
X85861298Y-99159251D01*
X85837265Y-99173205D01*
X85808637Y-99185056D01*
X85772460Y-99195720D01*
X85725780Y-99206111D01*
X85665641Y-99217146D01*
X85589090Y-99229738D01*
X85493171Y-99244804D01*
X85474808Y-99247838D01*
X85412478Y-99261458D01*
X85367260Y-99277192D01*
X85340976Y-99294263D01*
X85335447Y-99311897D01*
X85338068Y-99316168D01*
X85356000Y-99331233D01*
X85384126Y-99347867D01*
X85396926Y-99353857D01*
X85418224Y-99361050D01*
X85444610Y-99365827D01*
X85480454Y-99368646D01*
X85530128Y-99369964D01*
X85598000Y-99370237D01*
X85615785Y-99370164D01*
X85683406Y-99369053D01*
X85748345Y-99366828D01*
X85803970Y-99363762D01*
X85843651Y-99360127D01*
X85879162Y-99356059D01*
X85908415Y-99355276D01*
X85927315Y-99359876D01*
X85942429Y-99370551D01*
X85946085Y-99374144D01*
X85962427Y-99405918D01*
X85961107Y-99441572D01*
X85942150Y-99472190D01*
X85921780Y-99483796D01*
X85885796Y-99496491D01*
X85843372Y-99506541D01*
X85839922Y-99507140D01*
X85797252Y-99512356D01*
X85739866Y-99516730D01*
X85674849Y-99519818D01*
X85609289Y-99521177D01*
X85593057Y-99521218D01*
X85494744Y-99518741D01*
X85414692Y-99510735D01*
X85349513Y-99496203D01*
X85295817Y-99474149D01*
X85250216Y-99443576D01*
X85209323Y-99403486D01*
X85189202Y-99377259D01*
X85177576Y-99347712D01*
X85174667Y-99307995D01*
X85174808Y-99296026D01*
X85178681Y-99263345D01*
X85191065Y-99236819D01*
X85216230Y-99205971D01*
X85237442Y-99183831D01*
X85263838Y-99161285D01*
X85293555Y-99142917D01*
X85329785Y-99127661D01*
X85375717Y-99114449D01*
X85434544Y-99102214D01*
X85509456Y-99089889D01*
X85603645Y-99076406D01*
X85648957Y-99069396D01*
X85716911Y-99054837D01*
X85766047Y-99038337D01*
X85795614Y-99020439D01*
X85804864Y-99001685D01*
X85793048Y-98982615D01*
X85759416Y-98963771D01*
X85756370Y-98962557D01*
X85710011Y-98950479D01*
X85647361Y-98942279D01*
X85573927Y-98938119D01*
X85495217Y-98938161D01*
X85416739Y-98942569D01*
X85344000Y-98951505D01*
X85340073Y-98952154D01*
X85291257Y-98959861D01*
X85259005Y-98963473D01*
X85238008Y-98962876D01*
X85222954Y-98957954D01*
X85208534Y-98948596D01*
X85207364Y-98947725D01*
X85182847Y-98917351D01*
X85178054Y-98881850D01*
X85193860Y-98847269D01*
X85198406Y-98842813D01*
X85228020Y-98827673D01*
X85275002Y-98814550D01*
X85335306Y-98803750D01*
X85404888Y-98795581D01*
X85479703Y-98790351D01*
X85555706Y-98788367D01*
X85628853Y-98789936D01*
G36*
X85628853Y-98789936D02*
G01*
X85695100Y-98795366D01*
X85750400Y-98804964D01*
X85801283Y-98819825D01*
X85872595Y-98852958D01*
X85923752Y-98895640D01*
X85954575Y-98947705D01*
X85964889Y-99008983D01*
X85963952Y-99040232D01*
X85958160Y-99065029D01*
X85943353Y-99086699D01*
X85915380Y-99114049D01*
X85907402Y-99121378D01*
X85883692Y-99142281D01*
X85861298Y-99159251D01*
X85837265Y-99173205D01*
X85808637Y-99185056D01*
X85772460Y-99195720D01*
X85725780Y-99206111D01*
X85665641Y-99217146D01*
X85589090Y-99229738D01*
X85493171Y-99244804D01*
X85474808Y-99247838D01*
X85412478Y-99261458D01*
X85367260Y-99277192D01*
X85340976Y-99294263D01*
X85335447Y-99311897D01*
X85338068Y-99316168D01*
X85356000Y-99331233D01*
X85384126Y-99347867D01*
X85396926Y-99353857D01*
X85418224Y-99361050D01*
X85444610Y-99365827D01*
X85480454Y-99368646D01*
X85530128Y-99369964D01*
X85598000Y-99370237D01*
X85615785Y-99370164D01*
X85683406Y-99369053D01*
X85748345Y-99366828D01*
X85803970Y-99363762D01*
X85843651Y-99360127D01*
X85879162Y-99356059D01*
X85908415Y-99355276D01*
X85927315Y-99359876D01*
X85942429Y-99370551D01*
X85946085Y-99374144D01*
X85962427Y-99405918D01*
X85961107Y-99441572D01*
X85942150Y-99472190D01*
X85921780Y-99483796D01*
X85885796Y-99496491D01*
X85843372Y-99506541D01*
X85839922Y-99507140D01*
X85797252Y-99512356D01*
X85739866Y-99516730D01*
X85674849Y-99519818D01*
X85609289Y-99521177D01*
X85593057Y-99521218D01*
X85494744Y-99518741D01*
X85414692Y-99510735D01*
X85349513Y-99496203D01*
X85295817Y-99474149D01*
X85250216Y-99443576D01*
X85209323Y-99403486D01*
X85189202Y-99377259D01*
X85177576Y-99347712D01*
X85174667Y-99307995D01*
X85174808Y-99296026D01*
X85178681Y-99263345D01*
X85191065Y-99236819D01*
X85216230Y-99205971D01*
X85237442Y-99183831D01*
X85263838Y-99161285D01*
X85293555Y-99142917D01*
X85329785Y-99127661D01*
X85375717Y-99114449D01*
X85434544Y-99102214D01*
X85509456Y-99089889D01*
X85603645Y-99076406D01*
X85648957Y-99069396D01*
X85716911Y-99054837D01*
X85766047Y-99038337D01*
X85795614Y-99020439D01*
X85804864Y-99001685D01*
X85793048Y-98982615D01*
X85759416Y-98963771D01*
X85756370Y-98962557D01*
X85710011Y-98950479D01*
X85647361Y-98942279D01*
X85573927Y-98938119D01*
X85495217Y-98938161D01*
X85416739Y-98942569D01*
X85344000Y-98951505D01*
X85340073Y-98952154D01*
X85291257Y-98959861D01*
X85259005Y-98963473D01*
X85238008Y-98962876D01*
X85222954Y-98957954D01*
X85208534Y-98948596D01*
X85207364Y-98947725D01*
X85182847Y-98917351D01*
X85178054Y-98881850D01*
X85193860Y-98847269D01*
X85198406Y-98842813D01*
X85228020Y-98827673D01*
X85275002Y-98814550D01*
X85335306Y-98803750D01*
X85404888Y-98795581D01*
X85479703Y-98790351D01*
X85555706Y-98788367D01*
X85628853Y-98789936D01*
G37*
X78077702Y-98798478D02*
X78095663Y-98816989D01*
X78116263Y-98848071D01*
X78141095Y-98893756D01*
X78171750Y-98956078D01*
X78209820Y-99037071D01*
X78224454Y-99068454D01*
X78254203Y-99131638D01*
X78280297Y-99186244D01*
X78301292Y-99229290D01*
X78315739Y-99257793D01*
X78322191Y-99268770D01*
X78323550Y-99268189D01*
X78333542Y-99254242D01*
X78350833Y-99224704D01*
X78373430Y-99183087D01*
X78399338Y-99132903D01*
X78415311Y-99101414D01*
X78444261Y-99046061D01*
X78466749Y-99007044D01*
X78484965Y-98981566D01*
X78501096Y-98966831D01*
X78517330Y-98960042D01*
X78535857Y-98958400D01*
X78546360Y-98958875D01*
X78562476Y-98963082D01*
X78577790Y-98973946D01*
X78594388Y-98994219D01*
X78614357Y-99026654D01*
X78639783Y-99074004D01*
X78672752Y-99139022D01*
X78682485Y-99158277D01*
X78706943Y-99204946D01*
X78727178Y-99241109D01*
X78741311Y-99263497D01*
X78747460Y-99268845D01*
X78748827Y-99265573D01*
X78758202Y-99244664D01*
X78775062Y-99207725D01*
X78797979Y-99157874D01*
X78825520Y-99098226D01*
X78856255Y-99031898D01*
X78882970Y-98974677D01*
X78912593Y-98912688D01*
X78935664Y-98866949D01*
X78953643Y-98834908D01*
X78967990Y-98814014D01*
X78980166Y-98801718D01*
X78991632Y-98795466D01*
X79001042Y-98792574D01*
X79026147Y-98792425D01*
X79053290Y-98807768D01*
X79054590Y-98808753D01*
X79076674Y-98831388D01*
X79087723Y-98853613D01*
X79087769Y-98854253D01*
X79083228Y-98871915D01*
X79070364Y-98906481D01*
X79050605Y-98954826D01*
X79025381Y-99013825D01*
X78996119Y-99080355D01*
X78964250Y-99151291D01*
X78931201Y-99223507D01*
X78898401Y-99293880D01*
X78867280Y-99359285D01*
X78839265Y-99416597D01*
X78815786Y-99462692D01*
X78798272Y-99494446D01*
X78788151Y-99508733D01*
X78753743Y-99522102D01*
X78712046Y-99515741D01*
X78706681Y-99511044D01*
X78690852Y-99488893D01*
X78668650Y-99452132D01*
X78642233Y-99404415D01*
X78613760Y-99349393D01*
X78533986Y-99190150D01*
X78460799Y-99336742D01*
X78451103Y-99356032D01*
X78424125Y-99408380D01*
X78400096Y-99453170D01*
X78381332Y-99486154D01*
X78370146Y-99503089D01*
X78369000Y-99504332D01*
X78340879Y-99519619D01*
X78305817Y-99521302D01*
X78274776Y-99508733D01*
X78272350Y-99505884D01*
X78260090Y-99485259D01*
X78240352Y-99447708D01*
X78214448Y-99395880D01*
X78183685Y-99332423D01*
X78149375Y-99259985D01*
X78112825Y-99181216D01*
X78092585Y-99137093D01*
X78055812Y-99056365D01*
X78027355Y-98992687D01*
X78006331Y-98943752D01*
X77991854Y-98907257D01*
X77983039Y-98880895D01*
X77979004Y-98862361D01*
X77978862Y-98849352D01*
X77981730Y-98839561D01*
X77996387Y-98818678D01*
X78022990Y-98798377D01*
X78023745Y-98798035D01*
X78043335Y-98791034D01*
X78060790Y-98790504D01*
X78077702Y-98798478D01*
G36*
X78077702Y-98798478D02*
G01*
X78095663Y-98816989D01*
X78116263Y-98848071D01*
X78141095Y-98893756D01*
X78171750Y-98956078D01*
X78209820Y-99037071D01*
X78224454Y-99068454D01*
X78254203Y-99131638D01*
X78280297Y-99186244D01*
X78301292Y-99229290D01*
X78315739Y-99257793D01*
X78322191Y-99268770D01*
X78323550Y-99268189D01*
X78333542Y-99254242D01*
X78350833Y-99224704D01*
X78373430Y-99183087D01*
X78399338Y-99132903D01*
X78415311Y-99101414D01*
X78444261Y-99046061D01*
X78466749Y-99007044D01*
X78484965Y-98981566D01*
X78501096Y-98966831D01*
X78517330Y-98960042D01*
X78535857Y-98958400D01*
X78546360Y-98958875D01*
X78562476Y-98963082D01*
X78577790Y-98973946D01*
X78594388Y-98994219D01*
X78614357Y-99026654D01*
X78639783Y-99074004D01*
X78672752Y-99139022D01*
X78682485Y-99158277D01*
X78706943Y-99204946D01*
X78727178Y-99241109D01*
X78741311Y-99263497D01*
X78747460Y-99268845D01*
X78748827Y-99265573D01*
X78758202Y-99244664D01*
X78775062Y-99207725D01*
X78797979Y-99157874D01*
X78825520Y-99098226D01*
X78856255Y-99031898D01*
X78882970Y-98974677D01*
X78912593Y-98912688D01*
X78935664Y-98866949D01*
X78953643Y-98834908D01*
X78967990Y-98814014D01*
X78980166Y-98801718D01*
X78991632Y-98795466D01*
X79001042Y-98792574D01*
X79026147Y-98792425D01*
X79053290Y-98807768D01*
X79054590Y-98808753D01*
X79076674Y-98831388D01*
X79087723Y-98853613D01*
X79087769Y-98854253D01*
X79083228Y-98871915D01*
X79070364Y-98906481D01*
X79050605Y-98954826D01*
X79025381Y-99013825D01*
X78996119Y-99080355D01*
X78964250Y-99151291D01*
X78931201Y-99223507D01*
X78898401Y-99293880D01*
X78867280Y-99359285D01*
X78839265Y-99416597D01*
X78815786Y-99462692D01*
X78798272Y-99494446D01*
X78788151Y-99508733D01*
X78753743Y-99522102D01*
X78712046Y-99515741D01*
X78706681Y-99511044D01*
X78690852Y-99488893D01*
X78668650Y-99452132D01*
X78642233Y-99404415D01*
X78613760Y-99349393D01*
X78533986Y-99190150D01*
X78460799Y-99336742D01*
X78451103Y-99356032D01*
X78424125Y-99408380D01*
X78400096Y-99453170D01*
X78381332Y-99486154D01*
X78370146Y-99503089D01*
X78369000Y-99504332D01*
X78340879Y-99519619D01*
X78305817Y-99521302D01*
X78274776Y-99508733D01*
X78272350Y-99505884D01*
X78260090Y-99485259D01*
X78240352Y-99447708D01*
X78214448Y-99395880D01*
X78183685Y-99332423D01*
X78149375Y-99259985D01*
X78112825Y-99181216D01*
X78092585Y-99137093D01*
X78055812Y-99056365D01*
X78027355Y-98992687D01*
X78006331Y-98943752D01*
X77991854Y-98907257D01*
X77983039Y-98880895D01*
X77979004Y-98862361D01*
X77978862Y-98849352D01*
X77981730Y-98839561D01*
X77996387Y-98818678D01*
X78022990Y-98798377D01*
X78023745Y-98798035D01*
X78043335Y-98791034D01*
X78060790Y-98790504D01*
X78077702Y-98798478D01*
G37*
X86644734Y-98789083D02*
X86721831Y-98789275D01*
X86780777Y-98789860D01*
X86824364Y-98791051D01*
X86855383Y-98793064D01*
X86876625Y-98796112D01*
X86890882Y-98800409D01*
X86900945Y-98806172D01*
X86909606Y-98813612D01*
X86911391Y-98815293D01*
X86918635Y-98822832D01*
X86924277Y-98831850D01*
X86928517Y-98844984D01*
X86931556Y-98864872D01*
X86933594Y-98894151D01*
X86934830Y-98935458D01*
X86935465Y-98991431D01*
X86935700Y-99064707D01*
X86935734Y-99157923D01*
X86935697Y-99230713D01*
X86935448Y-99308889D01*
X86934812Y-99369103D01*
X86933615Y-99413982D01*
X86931684Y-99446152D01*
X86928846Y-99468239D01*
X86924927Y-99482870D01*
X86919755Y-99492670D01*
X86913156Y-99500267D01*
X86909822Y-99503444D01*
X86901300Y-99509554D01*
X86889298Y-99514229D01*
X86871087Y-99517659D01*
X86843940Y-99520036D01*
X86805129Y-99521552D01*
X86751924Y-99522398D01*
X86681598Y-99522765D01*
X86591422Y-99522845D01*
X86549314Y-99522833D01*
X86468167Y-99522651D01*
X86405675Y-99522098D01*
X86359109Y-99520982D01*
X86325741Y-99519113D01*
X86302844Y-99516298D01*
X86287688Y-99512346D01*
X86277546Y-99507066D01*
X86269689Y-99500267D01*
X86254963Y-99478667D01*
X86247111Y-99449467D01*
X86252610Y-99425560D01*
X86269689Y-99398667D01*
X86274668Y-99394059D01*
X86284443Y-99387772D01*
X86298559Y-99383146D01*
X86320054Y-99379930D01*
X86351968Y-99377870D01*
X86397342Y-99376712D01*
X86459213Y-99376202D01*
X86540622Y-99376089D01*
X86788978Y-99376089D01*
X86788978Y-99218045D01*
X86627801Y-99218045D01*
X86591983Y-99217899D01*
X86526359Y-99216176D01*
X86479118Y-99211741D01*
X86447383Y-99203637D01*
X86428277Y-99190906D01*
X86418923Y-99172592D01*
X86416445Y-99147738D01*
X86417242Y-99127482D01*
X86422494Y-99105656D01*
X86435288Y-99090304D01*
X86458628Y-99080309D01*
X86495517Y-99074553D01*
X86548959Y-99071919D01*
X86621958Y-99071289D01*
X86790105Y-99071289D01*
X86786719Y-99006378D01*
X86783334Y-98941467D01*
X86535617Y-98938418D01*
X86473026Y-98937539D01*
X86404565Y-98936095D01*
X86353661Y-98934164D01*
X86317408Y-98931514D01*
X86292901Y-98927910D01*
X86277235Y-98923121D01*
X86267506Y-98916913D01*
X86261491Y-98910510D01*
X86248482Y-98878828D01*
X86252043Y-98843142D01*
X86271818Y-98812084D01*
X86275069Y-98809161D01*
X86284049Y-98802810D01*
X86296153Y-98797957D01*
X86314159Y-98794403D01*
X86340847Y-98791946D01*
X86378997Y-98790385D01*
X86431386Y-98789518D01*
X86500794Y-98789146D01*
X86590001Y-98789067D01*
X86644734Y-98789083D01*
G36*
X86644734Y-98789083D02*
G01*
X86721831Y-98789275D01*
X86780777Y-98789860D01*
X86824364Y-98791051D01*
X86855383Y-98793064D01*
X86876625Y-98796112D01*
X86890882Y-98800409D01*
X86900945Y-98806172D01*
X86909606Y-98813612D01*
X86911391Y-98815293D01*
X86918635Y-98822832D01*
X86924277Y-98831850D01*
X86928517Y-98844984D01*
X86931556Y-98864872D01*
X86933594Y-98894151D01*
X86934830Y-98935458D01*
X86935465Y-98991431D01*
X86935700Y-99064707D01*
X86935734Y-99157923D01*
X86935697Y-99230713D01*
X86935448Y-99308889D01*
X86934812Y-99369103D01*
X86933615Y-99413982D01*
X86931684Y-99446152D01*
X86928846Y-99468239D01*
X86924927Y-99482870D01*
X86919755Y-99492670D01*
X86913156Y-99500267D01*
X86909822Y-99503444D01*
X86901300Y-99509554D01*
X86889298Y-99514229D01*
X86871087Y-99517659D01*
X86843940Y-99520036D01*
X86805129Y-99521552D01*
X86751924Y-99522398D01*
X86681598Y-99522765D01*
X86591422Y-99522845D01*
X86549314Y-99522833D01*
X86468167Y-99522651D01*
X86405675Y-99522098D01*
X86359109Y-99520982D01*
X86325741Y-99519113D01*
X86302844Y-99516298D01*
X86287688Y-99512346D01*
X86277546Y-99507066D01*
X86269689Y-99500267D01*
X86254963Y-99478667D01*
X86247111Y-99449467D01*
X86252610Y-99425560D01*
X86269689Y-99398667D01*
X86274668Y-99394059D01*
X86284443Y-99387772D01*
X86298559Y-99383146D01*
X86320054Y-99379930D01*
X86351968Y-99377870D01*
X86397342Y-99376712D01*
X86459213Y-99376202D01*
X86540622Y-99376089D01*
X86788978Y-99376089D01*
X86788978Y-99218045D01*
X86627801Y-99218045D01*
X86591983Y-99217899D01*
X86526359Y-99216176D01*
X86479118Y-99211741D01*
X86447383Y-99203637D01*
X86428277Y-99190906D01*
X86418923Y-99172592D01*
X86416445Y-99147738D01*
X86417242Y-99127482D01*
X86422494Y-99105656D01*
X86435288Y-99090304D01*
X86458628Y-99080309D01*
X86495517Y-99074553D01*
X86548959Y-99071919D01*
X86621958Y-99071289D01*
X86790105Y-99071289D01*
X86786719Y-99006378D01*
X86783334Y-98941467D01*
X86535617Y-98938418D01*
X86473026Y-98937539D01*
X86404565Y-98936095D01*
X86353661Y-98934164D01*
X86317408Y-98931514D01*
X86292901Y-98927910D01*
X86277235Y-98923121D01*
X86267506Y-98916913D01*
X86261491Y-98910510D01*
X86248482Y-98878828D01*
X86252043Y-98843142D01*
X86271818Y-98812084D01*
X86275069Y-98809161D01*
X86284049Y-98802810D01*
X86296153Y-98797957D01*
X86314159Y-98794403D01*
X86340847Y-98791946D01*
X86378997Y-98790385D01*
X86431386Y-98789518D01*
X86500794Y-98789146D01*
X86590001Y-98789067D01*
X86644734Y-98789083D01*
G37*
X81967803Y-98818811D02*
X81972752Y-98825495D01*
X81978596Y-98836066D01*
X81983057Y-98850153D01*
X81986321Y-98870478D01*
X81988574Y-98899765D01*
X81990002Y-98940737D01*
X81990792Y-98996117D01*
X81991129Y-99068628D01*
X81991200Y-99160994D01*
X81991171Y-99226911D01*
X81990939Y-99305228D01*
X81990319Y-99365496D01*
X81989126Y-99410393D01*
X81987179Y-99442602D01*
X81984294Y-99464800D01*
X81980288Y-99479669D01*
X81974979Y-99489889D01*
X81968183Y-99498138D01*
X81963668Y-99502795D01*
X81955438Y-99509282D01*
X81944078Y-99514194D01*
X81926810Y-99517749D01*
X81900855Y-99520167D01*
X81863436Y-99521667D01*
X81811773Y-99522467D01*
X81743089Y-99522787D01*
X81654606Y-99522845D01*
X81634931Y-99522838D01*
X81547906Y-99522572D01*
X81480254Y-99521806D01*
X81429299Y-99520392D01*
X81392367Y-99518180D01*
X81366783Y-99515022D01*
X81349871Y-99510769D01*
X81338957Y-99505271D01*
X81328464Y-99495285D01*
X81315203Y-99464168D01*
X81316386Y-99428280D01*
X81332550Y-99396733D01*
X81334739Y-99394457D01*
X81343427Y-99388189D01*
X81356769Y-99383523D01*
X81377752Y-99380227D01*
X81409363Y-99378068D01*
X81454590Y-99376814D01*
X81516420Y-99376231D01*
X81597839Y-99376089D01*
X81844445Y-99376089D01*
X81844445Y-99218045D01*
X81682006Y-99218045D01*
X81646338Y-99217964D01*
X81590568Y-99217167D01*
X81551430Y-99215162D01*
X81524976Y-99211521D01*
X81507259Y-99205812D01*
X81494329Y-99197607D01*
X81490686Y-99194423D01*
X81472278Y-99163448D01*
X81471644Y-99127112D01*
X81489183Y-99093493D01*
X81489245Y-99093424D01*
X81498916Y-99084798D01*
X81512209Y-99078742D01*
X81532917Y-99074811D01*
X81564828Y-99072556D01*
X81611734Y-99071531D01*
X81677424Y-99071289D01*
X81845571Y-99071289D01*
X81842186Y-99006378D01*
X81838800Y-98941467D01*
X81596723Y-98938414D01*
X81571707Y-98938086D01*
X81490087Y-98936606D01*
X81427768Y-98934222D01*
X81382154Y-98930227D01*
X81350652Y-98923913D01*
X81330667Y-98914574D01*
X81319604Y-98901503D01*
X81314869Y-98883992D01*
X81313867Y-98861335D01*
X81313873Y-98858970D01*
X81315027Y-98838939D01*
X81319824Y-98823146D01*
X81330632Y-98811090D01*
X81349817Y-98802267D01*
X81379745Y-98796175D01*
X81422783Y-98792311D01*
X81481299Y-98790174D01*
X81557657Y-98789260D01*
X81654226Y-98789067D01*
X81944406Y-98789067D01*
X81967803Y-98818811D01*
G36*
X81967803Y-98818811D02*
G01*
X81972752Y-98825495D01*
X81978596Y-98836066D01*
X81983057Y-98850153D01*
X81986321Y-98870478D01*
X81988574Y-98899765D01*
X81990002Y-98940737D01*
X81990792Y-98996117D01*
X81991129Y-99068628D01*
X81991200Y-99160994D01*
X81991171Y-99226911D01*
X81990939Y-99305228D01*
X81990319Y-99365496D01*
X81989126Y-99410393D01*
X81987179Y-99442602D01*
X81984294Y-99464800D01*
X81980288Y-99479669D01*
X81974979Y-99489889D01*
X81968183Y-99498138D01*
X81963668Y-99502795D01*
X81955438Y-99509282D01*
X81944078Y-99514194D01*
X81926810Y-99517749D01*
X81900855Y-99520167D01*
X81863436Y-99521667D01*
X81811773Y-99522467D01*
X81743089Y-99522787D01*
X81654606Y-99522845D01*
X81634931Y-99522838D01*
X81547906Y-99522572D01*
X81480254Y-99521806D01*
X81429299Y-99520392D01*
X81392367Y-99518180D01*
X81366783Y-99515022D01*
X81349871Y-99510769D01*
X81338957Y-99505271D01*
X81328464Y-99495285D01*
X81315203Y-99464168D01*
X81316386Y-99428280D01*
X81332550Y-99396733D01*
X81334739Y-99394457D01*
X81343427Y-99388189D01*
X81356769Y-99383523D01*
X81377752Y-99380227D01*
X81409363Y-99378068D01*
X81454590Y-99376814D01*
X81516420Y-99376231D01*
X81597839Y-99376089D01*
X81844445Y-99376089D01*
X81844445Y-99218045D01*
X81682006Y-99218045D01*
X81646338Y-99217964D01*
X81590568Y-99217167D01*
X81551430Y-99215162D01*
X81524976Y-99211521D01*
X81507259Y-99205812D01*
X81494329Y-99197607D01*
X81490686Y-99194423D01*
X81472278Y-99163448D01*
X81471644Y-99127112D01*
X81489183Y-99093493D01*
X81489245Y-99093424D01*
X81498916Y-99084798D01*
X81512209Y-99078742D01*
X81532917Y-99074811D01*
X81564828Y-99072556D01*
X81611734Y-99071531D01*
X81677424Y-99071289D01*
X81845571Y-99071289D01*
X81842186Y-99006378D01*
X81838800Y-98941467D01*
X81596723Y-98938414D01*
X81571707Y-98938086D01*
X81490087Y-98936606D01*
X81427768Y-98934222D01*
X81382154Y-98930227D01*
X81350652Y-98923913D01*
X81330667Y-98914574D01*
X81319604Y-98901503D01*
X81314869Y-98883992D01*
X81313867Y-98861335D01*
X81313873Y-98858970D01*
X81315027Y-98838939D01*
X81319824Y-98823146D01*
X81330632Y-98811090D01*
X81349817Y-98802267D01*
X81379745Y-98796175D01*
X81422783Y-98792311D01*
X81481299Y-98790174D01*
X81557657Y-98789260D01*
X81654226Y-98789067D01*
X81944406Y-98789067D01*
X81967803Y-98818811D01*
G37*
X83917150Y-98794179D02*
X84023157Y-98810494D01*
X84116969Y-98838545D01*
X84195765Y-98877452D01*
X84256719Y-98926334D01*
X84282789Y-98959195D01*
X84312297Y-99008394D01*
X84337568Y-99062252D01*
X84355218Y-99113419D01*
X84361858Y-99154544D01*
X84360298Y-99174259D01*
X84347357Y-99225592D01*
X84324194Y-99282118D01*
X84294302Y-99336035D01*
X84261173Y-99379539D01*
X84250977Y-99389887D01*
X84183892Y-99441662D01*
X84103766Y-99481554D01*
X84017556Y-99505956D01*
X83962592Y-99514068D01*
X83869139Y-99520673D01*
X83779358Y-99518586D01*
X83696869Y-99508340D01*
X83625286Y-99490470D01*
X83568228Y-99465508D01*
X83529311Y-99433988D01*
X83527936Y-99432012D01*
X83520848Y-99406786D01*
X83516609Y-99359535D01*
X83515200Y-99290071D01*
X83516060Y-99227838D01*
X83520780Y-99180456D01*
X83532470Y-99148353D01*
X83554239Y-99128800D01*
X83589198Y-99119070D01*
X83640456Y-99116433D01*
X83711123Y-99118161D01*
X83759743Y-99121173D01*
X83809939Y-99129366D01*
X83842433Y-99143419D01*
X83859892Y-99164654D01*
X83864983Y-99194394D01*
X83864877Y-99198936D01*
X83856175Y-99233730D01*
X83832165Y-99257147D01*
X83790900Y-99270347D01*
X83730431Y-99274489D01*
X83661956Y-99274489D01*
X83661956Y-99312841D01*
X83662006Y-99321976D01*
X83664227Y-99339227D01*
X83673494Y-99349521D01*
X83694875Y-99356459D01*
X83733436Y-99363641D01*
X83738910Y-99364575D01*
X83835860Y-99374478D01*
X83925852Y-99371559D01*
X84006760Y-99356829D01*
X84076459Y-99331299D01*
X84132824Y-99295978D01*
X84173729Y-99251879D01*
X84197051Y-99200012D01*
X84200663Y-99141388D01*
X84195145Y-99112494D01*
X84168461Y-99056604D01*
X84122273Y-99010945D01*
X84057291Y-98976108D01*
X83974229Y-98952690D01*
X83949555Y-98948241D01*
X83860226Y-98937742D01*
X83780419Y-98938971D01*
X83702326Y-98951906D01*
X83667183Y-98958696D01*
X83621745Y-98959713D01*
X83590430Y-98947182D01*
X83570277Y-98920395D01*
X83563893Y-98892148D01*
X83573379Y-98860924D01*
X83582708Y-98847499D01*
X83616943Y-98823967D01*
X83669565Y-98806095D01*
X83738081Y-98794599D01*
X83820000Y-98790192D01*
X83917150Y-98794179D01*
G36*
X83917150Y-98794179D02*
G01*
X84023157Y-98810494D01*
X84116969Y-98838545D01*
X84195765Y-98877452D01*
X84256719Y-98926334D01*
X84282789Y-98959195D01*
X84312297Y-99008394D01*
X84337568Y-99062252D01*
X84355218Y-99113419D01*
X84361858Y-99154544D01*
X84360298Y-99174259D01*
X84347357Y-99225592D01*
X84324194Y-99282118D01*
X84294302Y-99336035D01*
X84261173Y-99379539D01*
X84250977Y-99389887D01*
X84183892Y-99441662D01*
X84103766Y-99481554D01*
X84017556Y-99505956D01*
X83962592Y-99514068D01*
X83869139Y-99520673D01*
X83779358Y-99518586D01*
X83696869Y-99508340D01*
X83625286Y-99490470D01*
X83568228Y-99465508D01*
X83529311Y-99433988D01*
X83527936Y-99432012D01*
X83520848Y-99406786D01*
X83516609Y-99359535D01*
X83515200Y-99290071D01*
X83516060Y-99227838D01*
X83520780Y-99180456D01*
X83532470Y-99148353D01*
X83554239Y-99128800D01*
X83589198Y-99119070D01*
X83640456Y-99116433D01*
X83711123Y-99118161D01*
X83759743Y-99121173D01*
X83809939Y-99129366D01*
X83842433Y-99143419D01*
X83859892Y-99164654D01*
X83864983Y-99194394D01*
X83864877Y-99198936D01*
X83856175Y-99233730D01*
X83832165Y-99257147D01*
X83790900Y-99270347D01*
X83730431Y-99274489D01*
X83661956Y-99274489D01*
X83661956Y-99312841D01*
X83662006Y-99321976D01*
X83664227Y-99339227D01*
X83673494Y-99349521D01*
X83694875Y-99356459D01*
X83733436Y-99363641D01*
X83738910Y-99364575D01*
X83835860Y-99374478D01*
X83925852Y-99371559D01*
X84006760Y-99356829D01*
X84076459Y-99331299D01*
X84132824Y-99295978D01*
X84173729Y-99251879D01*
X84197051Y-99200012D01*
X84200663Y-99141388D01*
X84195145Y-99112494D01*
X84168461Y-99056604D01*
X84122273Y-99010945D01*
X84057291Y-98976108D01*
X83974229Y-98952690D01*
X83949555Y-98948241D01*
X83860226Y-98937742D01*
X83780419Y-98938971D01*
X83702326Y-98951906D01*
X83667183Y-98958696D01*
X83621745Y-98959713D01*
X83590430Y-98947182D01*
X83570277Y-98920395D01*
X83563893Y-98892148D01*
X83573379Y-98860924D01*
X83582708Y-98847499D01*
X83616943Y-98823967D01*
X83669565Y-98806095D01*
X83738081Y-98794599D01*
X83820000Y-98790192D01*
X83917150Y-98794179D01*
G37*
X83119893Y-98787892D02*
X83131301Y-98794029D01*
X83141850Y-98804691D01*
X83153136Y-98818811D01*
X83157589Y-98824772D01*
X83163588Y-98835268D01*
X83168167Y-98849093D01*
X83171519Y-98868998D01*
X83173833Y-98897732D01*
X83175301Y-98938045D01*
X83176113Y-98992687D01*
X83176460Y-99064407D01*
X83176534Y-99155956D01*
X83176511Y-99214486D01*
X83176292Y-99293573D01*
X83175683Y-99354516D01*
X83174492Y-99400062D01*
X83172529Y-99432963D01*
X83169603Y-99455968D01*
X83165523Y-99471826D01*
X83160097Y-99483286D01*
X83153136Y-99493100D01*
X83122708Y-99517493D01*
X83087765Y-99520372D01*
X83050784Y-99501282D01*
X83046600Y-99497807D01*
X83038424Y-99489279D01*
X83032364Y-99477728D01*
X83027981Y-99459896D01*
X83024839Y-99432524D01*
X83022502Y-99392354D01*
X83020531Y-99336128D01*
X83018489Y-99260589D01*
X83012845Y-99041458D01*
X82747556Y-99282099D01*
X82673722Y-99348875D01*
X82608542Y-99406991D01*
X82556348Y-99451949D01*
X82515273Y-99484871D01*
X82483455Y-99506879D01*
X82459026Y-99519094D01*
X82440124Y-99522639D01*
X82424883Y-99518636D01*
X82411439Y-99508207D01*
X82397927Y-99492474D01*
X82391682Y-99483991D01*
X82386050Y-99473413D01*
X82381839Y-99459255D01*
X82378887Y-99438803D01*
X82377032Y-99409342D01*
X82376113Y-99368161D01*
X82375968Y-99312544D01*
X82376435Y-99239779D01*
X82377352Y-99147151D01*
X82380667Y-98832199D01*
X82407318Y-98810633D01*
X82433383Y-98794441D01*
X82466241Y-98791670D01*
X82500772Y-98810623D01*
X82505084Y-98814208D01*
X82513216Y-98822737D01*
X82519245Y-98834329D01*
X82523606Y-98852235D01*
X82526734Y-98879706D01*
X82529063Y-98919994D01*
X82531029Y-98976351D01*
X82533067Y-99052029D01*
X82538711Y-99271878D01*
X82719334Y-99108084D01*
X82806072Y-99029451D01*
X82881843Y-98961058D01*
X82943980Y-98905708D01*
X82994078Y-98862338D01*
X83033735Y-98829881D01*
X83064548Y-98807273D01*
X83088114Y-98793448D01*
X83106030Y-98787343D01*
X83119893Y-98787892D01*
G36*
X83119893Y-98787892D02*
G01*
X83131301Y-98794029D01*
X83141850Y-98804691D01*
X83153136Y-98818811D01*
X83157589Y-98824772D01*
X83163588Y-98835268D01*
X83168167Y-98849093D01*
X83171519Y-98868998D01*
X83173833Y-98897732D01*
X83175301Y-98938045D01*
X83176113Y-98992687D01*
X83176460Y-99064407D01*
X83176534Y-99155956D01*
X83176511Y-99214486D01*
X83176292Y-99293573D01*
X83175683Y-99354516D01*
X83174492Y-99400062D01*
X83172529Y-99432963D01*
X83169603Y-99455968D01*
X83165523Y-99471826D01*
X83160097Y-99483286D01*
X83153136Y-99493100D01*
X83122708Y-99517493D01*
X83087765Y-99520372D01*
X83050784Y-99501282D01*
X83046600Y-99497807D01*
X83038424Y-99489279D01*
X83032364Y-99477728D01*
X83027981Y-99459896D01*
X83024839Y-99432524D01*
X83022502Y-99392354D01*
X83020531Y-99336128D01*
X83018489Y-99260589D01*
X83012845Y-99041458D01*
X82747556Y-99282099D01*
X82673722Y-99348875D01*
X82608542Y-99406991D01*
X82556348Y-99451949D01*
X82515273Y-99484871D01*
X82483455Y-99506879D01*
X82459026Y-99519094D01*
X82440124Y-99522639D01*
X82424883Y-99518636D01*
X82411439Y-99508207D01*
X82397927Y-99492474D01*
X82391682Y-99483991D01*
X82386050Y-99473413D01*
X82381839Y-99459255D01*
X82378887Y-99438803D01*
X82377032Y-99409342D01*
X82376113Y-99368161D01*
X82375968Y-99312544D01*
X82376435Y-99239779D01*
X82377352Y-99147151D01*
X82380667Y-98832199D01*
X82407318Y-98810633D01*
X82433383Y-98794441D01*
X82466241Y-98791670D01*
X82500772Y-98810623D01*
X82505084Y-98814208D01*
X82513216Y-98822737D01*
X82519245Y-98834329D01*
X82523606Y-98852235D01*
X82526734Y-98879706D01*
X82529063Y-98919994D01*
X82531029Y-98976351D01*
X82533067Y-99052029D01*
X82538711Y-99271878D01*
X82719334Y-99108084D01*
X82806072Y-99029451D01*
X82881843Y-98961058D01*
X82943980Y-98905708D01*
X82994078Y-98862338D01*
X83033735Y-98829881D01*
X83064548Y-98807273D01*
X83088114Y-98793448D01*
X83106030Y-98787343D01*
X83119893Y-98787892D01*
G37*
X88064817Y-98974427D02*
X88064870Y-99055041D01*
X88064622Y-99155956D01*
X88064583Y-99231617D01*
X88064328Y-99309526D01*
X88063684Y-99369536D01*
X88062480Y-99414264D01*
X88060543Y-99446326D01*
X88057703Y-99468340D01*
X88053788Y-99482924D01*
X88048626Y-99492694D01*
X88042045Y-99500267D01*
X88035077Y-99506501D01*
X88022079Y-99513801D01*
X88002931Y-99518554D01*
X87973528Y-99521292D01*
X87929762Y-99522545D01*
X87867528Y-99522845D01*
X87818582Y-99522469D01*
X87711722Y-99518041D01*
X87622494Y-99507953D01*
X87547696Y-99491365D01*
X87484125Y-99467435D01*
X87428579Y-99435321D01*
X87377854Y-99394182D01*
X87371866Y-99388330D01*
X87334999Y-99339821D01*
X87303899Y-99279013D01*
X87282417Y-99214769D01*
X87277136Y-99176026D01*
X87424353Y-99176026D01*
X87442635Y-99226961D01*
X87472305Y-99272878D01*
X87519002Y-99315287D01*
X87580392Y-99345090D01*
X87659538Y-99364226D01*
X87661028Y-99364464D01*
X87709999Y-99370256D01*
X87768693Y-99374396D01*
X87824734Y-99376004D01*
X87917867Y-99376089D01*
X87917867Y-98935822D01*
X87841667Y-98935808D01*
X87838639Y-98935817D01*
X87787519Y-98937782D01*
X87727416Y-98942507D01*
X87670708Y-98949035D01*
X87620750Y-98958331D01*
X87545998Y-98984600D01*
X87488489Y-99023899D01*
X87446988Y-99076933D01*
X87425771Y-99128200D01*
X87424353Y-99176026D01*
X87277136Y-99176026D01*
X87274400Y-99155956D01*
X87275679Y-99134739D01*
X87287991Y-99077323D01*
X87310520Y-99017413D01*
X87339750Y-98963363D01*
X87372167Y-98923532D01*
X87391708Y-98906510D01*
X87446420Y-98867322D01*
X87506723Y-98837193D01*
X87575919Y-98815232D01*
X87657311Y-98800550D01*
X87754200Y-98792259D01*
X87869889Y-98789467D01*
X87909371Y-98789066D01*
X87955082Y-98788653D01*
X87990883Y-98790457D01*
X88017974Y-98796739D01*
X88037556Y-98809759D01*
X88050830Y-98831778D01*
X88058998Y-98865055D01*
X88063260Y-98911851D01*
X88063857Y-98935822D01*
X88064817Y-98974427D01*
G36*
X88064817Y-98974427D02*
G01*
X88064870Y-99055041D01*
X88064622Y-99155956D01*
X88064583Y-99231617D01*
X88064328Y-99309526D01*
X88063684Y-99369536D01*
X88062480Y-99414264D01*
X88060543Y-99446326D01*
X88057703Y-99468340D01*
X88053788Y-99482924D01*
X88048626Y-99492694D01*
X88042045Y-99500267D01*
X88035077Y-99506501D01*
X88022079Y-99513801D01*
X88002931Y-99518554D01*
X87973528Y-99521292D01*
X87929762Y-99522545D01*
X87867528Y-99522845D01*
X87818582Y-99522469D01*
X87711722Y-99518041D01*
X87622494Y-99507953D01*
X87547696Y-99491365D01*
X87484125Y-99467435D01*
X87428579Y-99435321D01*
X87377854Y-99394182D01*
X87371866Y-99388330D01*
X87334999Y-99339821D01*
X87303899Y-99279013D01*
X87282417Y-99214769D01*
X87277136Y-99176026D01*
X87424353Y-99176026D01*
X87442635Y-99226961D01*
X87472305Y-99272878D01*
X87519002Y-99315287D01*
X87580392Y-99345090D01*
X87659538Y-99364226D01*
X87661028Y-99364464D01*
X87709999Y-99370256D01*
X87768693Y-99374396D01*
X87824734Y-99376004D01*
X87917867Y-99376089D01*
X87917867Y-98935822D01*
X87841667Y-98935808D01*
X87838639Y-98935817D01*
X87787519Y-98937782D01*
X87727416Y-98942507D01*
X87670708Y-98949035D01*
X87620750Y-98958331D01*
X87545998Y-98984600D01*
X87488489Y-99023899D01*
X87446988Y-99076933D01*
X87425771Y-99128200D01*
X87424353Y-99176026D01*
X87277136Y-99176026D01*
X87274400Y-99155956D01*
X87275679Y-99134739D01*
X87287991Y-99077323D01*
X87310520Y-99017413D01*
X87339750Y-98963363D01*
X87372167Y-98923532D01*
X87391708Y-98906510D01*
X87446420Y-98867322D01*
X87506723Y-98837193D01*
X87575919Y-98815232D01*
X87657311Y-98800550D01*
X87754200Y-98792259D01*
X87869889Y-98789467D01*
X87909371Y-98789066D01*
X87955082Y-98788653D01*
X87990883Y-98790457D01*
X88017974Y-98796739D01*
X88037556Y-98809759D01*
X88050830Y-98831778D01*
X88058998Y-98865055D01*
X88063260Y-98911851D01*
X88063857Y-98935822D01*
X88064817Y-98974427D01*
G37*
X80973133Y-99400396D02*
X80971163Y-99433175D01*
X80968235Y-99456095D01*
X80964158Y-99471897D01*
X80958743Y-99483319D01*
X80951803Y-99493100D01*
X80928406Y-99522845D01*
X80762714Y-99522251D01*
X80727918Y-99521953D01*
X80629435Y-99518522D01*
X80548473Y-99510839D01*
X80481379Y-99498282D01*
X80424496Y-99480227D01*
X80374169Y-99456052D01*
X80370810Y-99454135D01*
X80312998Y-99417417D01*
X80270644Y-99380451D01*
X80237828Y-99336966D01*
X80208628Y-99280689D01*
X80204346Y-99271073D01*
X80181769Y-99207887D01*
X80176034Y-99162333D01*
X80325279Y-99162333D01*
X80330892Y-99187061D01*
X80336618Y-99202939D01*
X80369548Y-99262847D01*
X80416886Y-99308600D01*
X80480652Y-99341736D01*
X80562861Y-99363790D01*
X80565655Y-99364292D01*
X80611940Y-99370255D01*
X80668336Y-99374483D01*
X80723274Y-99376089D01*
X80817156Y-99376089D01*
X80817156Y-98935822D01*
X80729667Y-98936270D01*
X80662747Y-98938746D01*
X80570349Y-98949998D01*
X80491034Y-98969537D01*
X80429060Y-98996511D01*
X80398120Y-99017240D01*
X80370000Y-99047006D01*
X80346660Y-99089434D01*
X80339533Y-99105400D01*
X80327709Y-99137902D01*
X80325279Y-99162333D01*
X80176034Y-99162333D01*
X80174797Y-99152509D01*
X80183399Y-99097483D01*
X80207541Y-99035351D01*
X80208337Y-99033658D01*
X80248788Y-98964236D01*
X80299473Y-98907638D01*
X80362198Y-98863070D01*
X80438774Y-98829741D01*
X80531009Y-98806861D01*
X80640712Y-98793636D01*
X80769691Y-98789275D01*
X80773263Y-98789270D01*
X80833283Y-98789410D01*
X80875214Y-98790446D01*
X80903328Y-98793040D01*
X80921897Y-98797853D01*
X80935194Y-98805544D01*
X80947491Y-98816776D01*
X80975200Y-98844485D01*
X80975200Y-99153920D01*
X80975175Y-99215526D01*
X80974950Y-99294311D01*
X80974332Y-99355021D01*
X80973775Y-99376089D01*
X80973133Y-99400396D01*
G36*
X80973133Y-99400396D02*
G01*
X80971163Y-99433175D01*
X80968235Y-99456095D01*
X80964158Y-99471897D01*
X80958743Y-99483319D01*
X80951803Y-99493100D01*
X80928406Y-99522845D01*
X80762714Y-99522251D01*
X80727918Y-99521953D01*
X80629435Y-99518522D01*
X80548473Y-99510839D01*
X80481379Y-99498282D01*
X80424496Y-99480227D01*
X80374169Y-99456052D01*
X80370810Y-99454135D01*
X80312998Y-99417417D01*
X80270644Y-99380451D01*
X80237828Y-99336966D01*
X80208628Y-99280689D01*
X80204346Y-99271073D01*
X80181769Y-99207887D01*
X80176034Y-99162333D01*
X80325279Y-99162333D01*
X80330892Y-99187061D01*
X80336618Y-99202939D01*
X80369548Y-99262847D01*
X80416886Y-99308600D01*
X80480652Y-99341736D01*
X80562861Y-99363790D01*
X80565655Y-99364292D01*
X80611940Y-99370255D01*
X80668336Y-99374483D01*
X80723274Y-99376089D01*
X80817156Y-99376089D01*
X80817156Y-98935822D01*
X80729667Y-98936270D01*
X80662747Y-98938746D01*
X80570349Y-98949998D01*
X80491034Y-98969537D01*
X80429060Y-98996511D01*
X80398120Y-99017240D01*
X80370000Y-99047006D01*
X80346660Y-99089434D01*
X80339533Y-99105400D01*
X80327709Y-99137902D01*
X80325279Y-99162333D01*
X80176034Y-99162333D01*
X80174797Y-99152509D01*
X80183399Y-99097483D01*
X80207541Y-99035351D01*
X80208337Y-99033658D01*
X80248788Y-98964236D01*
X80299473Y-98907638D01*
X80362198Y-98863070D01*
X80438774Y-98829741D01*
X80531009Y-98806861D01*
X80640712Y-98793636D01*
X80769691Y-98789275D01*
X80773263Y-98789270D01*
X80833283Y-98789410D01*
X80875214Y-98790446D01*
X80903328Y-98793040D01*
X80921897Y-98797853D01*
X80935194Y-98805544D01*
X80947491Y-98816776D01*
X80975200Y-98844485D01*
X80975200Y-99153920D01*
X80975175Y-99215526D01*
X80974950Y-99294311D01*
X80974332Y-99355021D01*
X80973775Y-99376089D01*
X80973133Y-99400396D01*
G37*
X76267734Y-98811645D02*
X76273366Y-98817835D01*
X76278456Y-98826041D01*
X76282543Y-98837817D01*
X76285721Y-98855276D01*
X76288087Y-98880530D01*
X76289738Y-98915690D01*
X76290769Y-98962869D01*
X76291277Y-99024177D01*
X76291359Y-99101727D01*
X76291109Y-99197631D01*
X76290625Y-99314000D01*
X76290557Y-99328175D01*
X76289971Y-99389937D01*
X76288648Y-99433620D01*
X76286103Y-99463001D01*
X76281848Y-99481855D01*
X76275396Y-99493959D01*
X76266262Y-99503089D01*
X76232804Y-99520506D01*
X76197856Y-99517604D01*
X76166953Y-99493100D01*
X76157944Y-99479897D01*
X76150492Y-99461361D01*
X76146124Y-99435333D01*
X76144069Y-99396787D01*
X76143556Y-99340700D01*
X76143556Y-99218045D01*
X75646845Y-99218045D01*
X75646845Y-99352871D01*
X75646772Y-99388662D01*
X75646009Y-99434992D01*
X75643833Y-99465526D01*
X75639536Y-99484557D01*
X75632412Y-99496374D01*
X75621755Y-99505271D01*
X75589504Y-99520341D01*
X75554217Y-99517673D01*
X75523486Y-99493100D01*
X75518831Y-99486845D01*
X75512895Y-99476321D01*
X75508364Y-99462391D01*
X75505048Y-99442317D01*
X75502759Y-99413360D01*
X75501308Y-99372780D01*
X75500505Y-99317840D01*
X75500162Y-99245799D01*
X75500089Y-99153920D01*
X75500089Y-98844485D01*
X75527798Y-98816776D01*
X75559177Y-98794533D01*
X75592406Y-98791844D01*
X75624267Y-98811645D01*
X75632553Y-98821415D01*
X75639965Y-98837307D01*
X75644302Y-98861275D01*
X75646338Y-98898148D01*
X75646845Y-98952756D01*
X75646845Y-99071289D01*
X76143556Y-99071289D01*
X76143556Y-98955776D01*
X76143994Y-98904078D01*
X76145958Y-98869554D01*
X76150474Y-98846978D01*
X76158567Y-98831126D01*
X76171265Y-98816776D01*
X76202643Y-98794533D01*
X76235872Y-98791844D01*
X76267734Y-98811645D01*
G36*
X76267734Y-98811645D02*
G01*
X76273366Y-98817835D01*
X76278456Y-98826041D01*
X76282543Y-98837817D01*
X76285721Y-98855276D01*
X76288087Y-98880530D01*
X76289738Y-98915690D01*
X76290769Y-98962869D01*
X76291277Y-99024177D01*
X76291359Y-99101727D01*
X76291109Y-99197631D01*
X76290625Y-99314000D01*
X76290557Y-99328175D01*
X76289971Y-99389937D01*
X76288648Y-99433620D01*
X76286103Y-99463001D01*
X76281848Y-99481855D01*
X76275396Y-99493959D01*
X76266262Y-99503089D01*
X76232804Y-99520506D01*
X76197856Y-99517604D01*
X76166953Y-99493100D01*
X76157944Y-99479897D01*
X76150492Y-99461361D01*
X76146124Y-99435333D01*
X76144069Y-99396787D01*
X76143556Y-99340700D01*
X76143556Y-99218045D01*
X75646845Y-99218045D01*
X75646845Y-99352871D01*
X75646772Y-99388662D01*
X75646009Y-99434992D01*
X75643833Y-99465526D01*
X75639536Y-99484557D01*
X75632412Y-99496374D01*
X75621755Y-99505271D01*
X75589504Y-99520341D01*
X75554217Y-99517673D01*
X75523486Y-99493100D01*
X75518831Y-99486845D01*
X75512895Y-99476321D01*
X75508364Y-99462391D01*
X75505048Y-99442317D01*
X75502759Y-99413360D01*
X75501308Y-99372780D01*
X75500505Y-99317840D01*
X75500162Y-99245799D01*
X75500089Y-99153920D01*
X75500089Y-98844485D01*
X75527798Y-98816776D01*
X75559177Y-98794533D01*
X75592406Y-98791844D01*
X75624267Y-98811645D01*
X75632553Y-98821415D01*
X75639965Y-98837307D01*
X75644302Y-98861275D01*
X75646338Y-98898148D01*
X75646845Y-98952756D01*
X75646845Y-99071289D01*
X76143556Y-99071289D01*
X76143556Y-98955776D01*
X76143994Y-98904078D01*
X76145958Y-98869554D01*
X76150474Y-98846978D01*
X76158567Y-98831126D01*
X76171265Y-98816776D01*
X76202643Y-98794533D01*
X76235872Y-98791844D01*
X76267734Y-98811645D01*
G37*
X76943767Y-98789068D02*
X77037890Y-98789158D01*
X77112405Y-98789498D01*
X77169811Y-98790239D01*
X77212611Y-98791535D01*
X77243304Y-98793537D01*
X77264391Y-98796396D01*
X77278373Y-98800266D01*
X77287750Y-98805298D01*
X77295022Y-98811645D01*
X77313828Y-98844362D01*
X77315275Y-98881939D01*
X77298917Y-98915178D01*
X77297557Y-98916631D01*
X77286354Y-98924992D01*
X77269252Y-98930547D01*
X77242082Y-98933840D01*
X77200678Y-98935418D01*
X77140873Y-98935822D01*
X77001511Y-98935822D01*
X77001511Y-99199589D01*
X77001436Y-99275417D01*
X77001028Y-99342083D01*
X77000046Y-99391867D01*
X76998250Y-99427784D01*
X76995399Y-99452850D01*
X76991253Y-99470081D01*
X76985571Y-99482492D01*
X76978114Y-99493100D01*
X76975824Y-99495906D01*
X76944646Y-99518548D01*
X76910266Y-99520112D01*
X76877334Y-99500267D01*
X76870355Y-99492191D01*
X76864883Y-99481593D01*
X76860863Y-99465749D01*
X76858072Y-99441773D01*
X76856288Y-99406774D01*
X76855289Y-99357864D01*
X76854852Y-99292154D01*
X76854756Y-99206756D01*
X76854756Y-98935822D01*
X76708820Y-98935822D01*
X76697720Y-98935821D01*
X76641202Y-98935596D01*
X76602358Y-98934457D01*
X76576965Y-98931657D01*
X76560804Y-98926450D01*
X76549652Y-98918089D01*
X76539289Y-98905826D01*
X76523441Y-98875138D01*
X76526543Y-98841358D01*
X76552187Y-98808822D01*
X76557129Y-98805105D01*
X76567338Y-98800269D01*
X76582764Y-98796506D01*
X76605886Y-98793683D01*
X76639183Y-98791670D01*
X76685137Y-98790333D01*
X76746228Y-98789542D01*
X76824935Y-98789163D01*
X76923740Y-98789067D01*
X76943767Y-98789068D01*
G36*
X76943767Y-98789068D02*
G01*
X77037890Y-98789158D01*
X77112405Y-98789498D01*
X77169811Y-98790239D01*
X77212611Y-98791535D01*
X77243304Y-98793537D01*
X77264391Y-98796396D01*
X77278373Y-98800266D01*
X77287750Y-98805298D01*
X77295022Y-98811645D01*
X77313828Y-98844362D01*
X77315275Y-98881939D01*
X77298917Y-98915178D01*
X77297557Y-98916631D01*
X77286354Y-98924992D01*
X77269252Y-98930547D01*
X77242082Y-98933840D01*
X77200678Y-98935418D01*
X77140873Y-98935822D01*
X77001511Y-98935822D01*
X77001511Y-99199589D01*
X77001436Y-99275417D01*
X77001028Y-99342083D01*
X77000046Y-99391867D01*
X76998250Y-99427784D01*
X76995399Y-99452850D01*
X76991253Y-99470081D01*
X76985571Y-99482492D01*
X76978114Y-99493100D01*
X76975824Y-99495906D01*
X76944646Y-99518548D01*
X76910266Y-99520112D01*
X76877334Y-99500267D01*
X76870355Y-99492191D01*
X76864883Y-99481593D01*
X76860863Y-99465749D01*
X76858072Y-99441773D01*
X76856288Y-99406774D01*
X76855289Y-99357864D01*
X76854852Y-99292154D01*
X76854756Y-99206756D01*
X76854756Y-98935822D01*
X76708820Y-98935822D01*
X76697720Y-98935821D01*
X76641202Y-98935596D01*
X76602358Y-98934457D01*
X76576965Y-98931657D01*
X76560804Y-98926450D01*
X76549652Y-98918089D01*
X76539289Y-98905826D01*
X76523441Y-98875138D01*
X76526543Y-98841358D01*
X76552187Y-98808822D01*
X76557129Y-98805105D01*
X76567338Y-98800269D01*
X76582764Y-98796506D01*
X76605886Y-98793683D01*
X76639183Y-98791670D01*
X76685137Y-98790333D01*
X76746228Y-98789542D01*
X76824935Y-98789163D01*
X76923740Y-98789067D01*
X76943767Y-98789068D01*
G37*
X84242562Y-93552850D02*
X84325313Y-93580053D01*
X84400406Y-93625484D01*
X84472298Y-93691302D01*
X84510846Y-93735567D01*
X84550256Y-93793961D01*
X84575446Y-93854586D01*
X84588861Y-93923865D01*
X84592948Y-94008222D01*
X84592669Y-94054307D01*
X84590460Y-94095450D01*
X84584894Y-94127582D01*
X84574586Y-94158122D01*
X84558148Y-94194489D01*
X84544200Y-94221728D01*
X84485665Y-94307429D01*
X84413619Y-94376617D01*
X84329947Y-94427741D01*
X84236531Y-94459250D01*
X84203434Y-94466225D01*
X84162960Y-94473094D01*
X84129999Y-94474919D01*
X84095698Y-94471947D01*
X84051200Y-94464426D01*
X83999934Y-94452002D01*
X83909434Y-94414112D01*
X83830345Y-94359836D01*
X83764528Y-94291770D01*
X83713840Y-94212511D01*
X83680140Y-94124654D01*
X83665286Y-94030795D01*
X83671136Y-93933530D01*
X83697399Y-93837220D01*
X83742418Y-93748494D01*
X83803373Y-93673419D01*
X83878184Y-93613641D01*
X83964768Y-93570809D01*
X84061043Y-93546571D01*
X84164928Y-93542576D01*
X84242562Y-93552850D01*
G36*
X84242562Y-93552850D02*
G01*
X84325313Y-93580053D01*
X84400406Y-93625484D01*
X84472298Y-93691302D01*
X84510846Y-93735567D01*
X84550256Y-93793961D01*
X84575446Y-93854586D01*
X84588861Y-93923865D01*
X84592948Y-94008222D01*
X84592669Y-94054307D01*
X84590460Y-94095450D01*
X84584894Y-94127582D01*
X84574586Y-94158122D01*
X84558148Y-94194489D01*
X84544200Y-94221728D01*
X84485665Y-94307429D01*
X84413619Y-94376617D01*
X84329947Y-94427741D01*
X84236531Y-94459250D01*
X84203434Y-94466225D01*
X84162960Y-94473094D01*
X84129999Y-94474919D01*
X84095698Y-94471947D01*
X84051200Y-94464426D01*
X83999934Y-94452002D01*
X83909434Y-94414112D01*
X83830345Y-94359836D01*
X83764528Y-94291770D01*
X83713840Y-94212511D01*
X83680140Y-94124654D01*
X83665286Y-94030795D01*
X83671136Y-93933530D01*
X83697399Y-93837220D01*
X83742418Y-93748494D01*
X83803373Y-93673419D01*
X83878184Y-93613641D01*
X83964768Y-93570809D01*
X84061043Y-93546571D01*
X84164928Y-93542576D01*
X84242562Y-93552850D01*
G37*
X84774137Y-98793463D02*
X84808291Y-98816776D01*
X84836000Y-98844485D01*
X84836000Y-99157537D01*
X84835959Y-99241567D01*
X84835701Y-99315789D01*
X84835030Y-99372541D01*
X84833752Y-99414512D01*
X84831673Y-99444389D01*
X84828599Y-99464861D01*
X84824334Y-99478614D01*
X84818684Y-99488337D01*
X84811455Y-99496717D01*
X84779991Y-99518181D01*
X84744826Y-99519947D01*
X84711822Y-99500267D01*
X84706516Y-99494398D01*
X84701066Y-99485314D01*
X84696900Y-99471973D01*
X84693846Y-99451757D01*
X84691732Y-99422049D01*
X84690386Y-99380232D01*
X84689638Y-99323689D01*
X84689314Y-99249802D01*
X84689245Y-99155956D01*
X84689284Y-99080294D01*
X84689539Y-99002385D01*
X84690183Y-98942375D01*
X84691387Y-98897648D01*
X84693324Y-98865585D01*
X84696164Y-98843571D01*
X84700079Y-98828987D01*
X84705242Y-98819218D01*
X84711822Y-98811645D01*
X84741006Y-98792623D01*
X84774137Y-98793463D01*
G36*
X84774137Y-98793463D02*
G01*
X84808291Y-98816776D01*
X84836000Y-98844485D01*
X84836000Y-99157537D01*
X84835959Y-99241567D01*
X84835701Y-99315789D01*
X84835030Y-99372541D01*
X84833752Y-99414512D01*
X84831673Y-99444389D01*
X84828599Y-99464861D01*
X84824334Y-99478614D01*
X84818684Y-99488337D01*
X84811455Y-99496717D01*
X84779991Y-99518181D01*
X84744826Y-99519947D01*
X84711822Y-99500267D01*
X84706516Y-99494398D01*
X84701066Y-99485314D01*
X84696900Y-99471973D01*
X84693846Y-99451757D01*
X84691732Y-99422049D01*
X84690386Y-99380232D01*
X84689638Y-99323689D01*
X84689314Y-99249802D01*
X84689245Y-99155956D01*
X84689284Y-99080294D01*
X84689539Y-99002385D01*
X84690183Y-98942375D01*
X84691387Y-98897648D01*
X84693324Y-98865585D01*
X84696164Y-98843571D01*
X84700079Y-98828987D01*
X84705242Y-98819218D01*
X84711822Y-98811645D01*
X84741006Y-98792623D01*
X84774137Y-98793463D01*
G37*
X77643406Y-98794949D02*
X77669127Y-98810647D01*
X77695778Y-98832227D01*
X77695778Y-99479684D01*
X77669127Y-99501264D01*
X77637767Y-99518739D01*
X77601966Y-99519575D01*
X77570528Y-99499082D01*
X77566652Y-99494416D01*
X77561186Y-99484949D01*
X77556979Y-99471267D01*
X77553867Y-99450748D01*
X77551687Y-99420768D01*
X77550276Y-99378704D01*
X77549471Y-99321932D01*
X77549107Y-99247830D01*
X77549022Y-99153773D01*
X77549022Y-98832227D01*
X77575673Y-98810647D01*
X77599386Y-98795877D01*
X77622400Y-98789067D01*
X77643406Y-98794949D01*
G36*
X77643406Y-98794949D02*
G01*
X77669127Y-98810647D01*
X77695778Y-98832227D01*
X77695778Y-99479684D01*
X77669127Y-99501264D01*
X77637767Y-99518739D01*
X77601966Y-99519575D01*
X77570528Y-99499082D01*
X77566652Y-99494416D01*
X77561186Y-99484949D01*
X77556979Y-99471267D01*
X77553867Y-99450748D01*
X77551687Y-99420768D01*
X77550276Y-99378704D01*
X77549471Y-99321932D01*
X77549107Y-99247830D01*
X77549022Y-99153773D01*
X77549022Y-98832227D01*
X77575673Y-98810647D01*
X77599386Y-98795877D01*
X77622400Y-98789067D01*
X77643406Y-98794949D01*
G37*
%TD*%
%LPC*%
D12*
%TO.C,J1*%
X107375000Y-99309000D03*
D13*
X107375000Y-101849000D03*
%TD*%
D12*
%TO.C,J2*%
X71441000Y-105156000D03*
D13*
X71441000Y-102616000D03*
%TD*%
%TO.C,J4*%
X71441000Y-96012000D03*
D12*
X71441000Y-98552000D03*
%TD*%
%LPD*%
M02*
