%TF.GenerationSoftware,KiCad,Pcbnew,9.0.7*%
%TF.CreationDate,2026-03-07T13:37:36-05:00*%
%TF.ProjectId,Tiny Solar supply,54696e79-2053-46f6-9c61-722073757070,rev?*%
%TF.SameCoordinates,Original*%
%TF.FileFunction,Copper,L1,Top*%
%TF.FilePolarity,Positive*%
%FSLAX46Y46*%
G04 Gerber Fmt 4.6, Leading zero omitted, Abs format (unit mm)*
G04 Created by KiCad (PCBNEW 9.0.7) date 2026-03-07 13:37:36*
%MOMM*%
%LPD*%
G01*
G04 APERTURE LIST*
G04 Aperture macros list*
%AMRoundRect*
0 Rectangle with rounded corners*
0 $1 Rounding radius*
0 $2 $3 $4 $5 $6 $7 $8 $9 X,Y pos of 4 corners*
0 Add a 4 corners polygon primitive as box body*
4,1,4,$2,$3,$4,$5,$6,$7,$8,$9,$2,$3,0*
0 Add four circle primitives for the rounded corners*
1,1,$1+$1,$2,$3*
1,1,$1+$1,$4,$5*
1,1,$1+$1,$6,$7*
1,1,$1+$1,$8,$9*
0 Add four rect primitives between the rounded corners*
20,1,$1+$1,$2,$3,$4,$5,0*
20,1,$1+$1,$4,$5,$6,$7,0*
20,1,$1+$1,$6,$7,$8,$9,0*
20,1,$1+$1,$8,$9,$2,$3,0*%
G04 Aperture macros list end*
%TA.AperFunction,SMDPad,CuDef*%
%ADD10RoundRect,0.250000X0.970000X0.310000X-0.970000X0.310000X-0.970000X-0.310000X0.970000X-0.310000X0*%
%TD*%
%TA.AperFunction,ComponentPad*%
%ADD11R,1.700000X1.700000*%
%TD*%
%TA.AperFunction,ComponentPad*%
%ADD12C,1.700000*%
%TD*%
%TA.AperFunction,SMDPad,CuDef*%
%ADD13R,1.181100X0.558800*%
%TD*%
%TA.AperFunction,SMDPad,CuDef*%
%ADD14RoundRect,0.250000X-0.450000X0.262500X-0.450000X-0.262500X0.450000X-0.262500X0.450000X0.262500X0*%
%TD*%
%TA.AperFunction,SMDPad,CuDef*%
%ADD15RoundRect,0.250000X0.450000X-0.262500X0.450000X0.262500X-0.450000X0.262500X-0.450000X-0.262500X0*%
%TD*%
%TA.AperFunction,SMDPad,CuDef*%
%ADD16RoundRect,0.250000X0.262500X0.450000X-0.262500X0.450000X-0.262500X-0.450000X0.262500X-0.450000X0*%
%TD*%
%TA.AperFunction,SMDPad,CuDef*%
%ADD17RoundRect,0.150000X-0.587500X-0.150000X0.587500X-0.150000X0.587500X0.150000X-0.587500X0.150000X0*%
%TD*%
%TA.AperFunction,SMDPad,CuDef*%
%ADD18R,2.667000X3.302000*%
%TD*%
%TA.AperFunction,SMDPad,CuDef*%
%ADD19RoundRect,0.250000X1.000000X0.650000X-1.000000X0.650000X-1.000000X-0.650000X1.000000X-0.650000X0*%
%TD*%
%TA.AperFunction,SMDPad,CuDef*%
%ADD20RoundRect,0.250000X-0.475000X0.250000X-0.475000X-0.250000X0.475000X-0.250000X0.475000X0.250000X0*%
%TD*%
%TA.AperFunction,SMDPad,CuDef*%
%ADD21RoundRect,0.250000X0.325000X0.650000X-0.325000X0.650000X-0.325000X-0.650000X0.325000X-0.650000X0*%
%TD*%
%TA.AperFunction,ViaPad*%
%ADD22C,0.600000*%
%TD*%
%TA.AperFunction,Conductor*%
%ADD23C,0.200000*%
%TD*%
%TA.AperFunction,Conductor*%
%ADD24C,0.250000*%
%TD*%
G04 APERTURE END LIST*
D10*
%TO.P,J3,1,Pin_1*%
%TO.N,Net-(J3-Pin_1)*%
X83680000Y-100330000D03*
%TO.P,J3,2,Pin_2*%
%TO.N,/BAT_P*%
X75070000Y-100330000D03*
%TD*%
D11*
%TO.P,J1,1,Pin_1*%
%TO.N,GNDD*%
X107375000Y-99309000D03*
D12*
%TO.P,J1,2,Pin_2*%
%TO.N,/OUT_P*%
X107375000Y-101849000D03*
%TD*%
D11*
%TO.P,J2,1,Pin_1*%
%TO.N,/BAT_P*%
X71441000Y-105156000D03*
D12*
%TO.P,J2,2,Pin_2*%
%TO.N,GNDD*%
X71441000Y-102616000D03*
%TD*%
%TO.P,J4,2,Pin_2*%
%TO.N,GNDD*%
X71441000Y-96012000D03*
D11*
%TO.P,J4,1,Pin_1*%
%TO.N,/SOLAR_P*%
X71441000Y-98552000D03*
%TD*%
D13*
%TO.P,U1,1,SW*%
%TO.N,Net-(U1-FB)*%
X96361250Y-103058001D03*
%TO.P,U1,2,GND*%
%TO.N,GNDD*%
X96361250Y-102108000D03*
%TO.P,U1,3,FB*%
%TO.N,Net-(U1-FB)*%
X96361250Y-101157999D03*
%TO.P,U1,4,SHDN*%
%TO.N,Net-(Q1-D)*%
X93630750Y-101157999D03*
%TO.P,U1,5,VIN*%
%TO.N,Net-(J3-Pin_1)*%
X93630750Y-103058001D03*
%TD*%
D14*
%TO.P,R4,1*%
%TO.N,/SOLAR_P*%
X79756000Y-106255500D03*
%TO.P,R4,2*%
%TO.N,GNDD*%
X79756000Y-108080500D03*
%TD*%
%TO.P,R3,1*%
%TO.N,Net-(J3-Pin_1)*%
X88392000Y-101105500D03*
%TO.P,R3,2*%
%TO.N,Net-(Q1-D)*%
X88392000Y-102930500D03*
%TD*%
D15*
%TO.P,R2,1*%
%TO.N,Net-(U1-FB)*%
X100584000Y-105560500D03*
%TO.P,R2,2*%
%TO.N,GNDD*%
X100584000Y-103735500D03*
%TD*%
D16*
%TO.P,R1,1*%
%TO.N,/OUT_P*%
X102512500Y-100076000D03*
%TO.P,R1,2*%
%TO.N,Net-(U1-FB)*%
X100687500Y-100076000D03*
%TD*%
D17*
%TO.P,Q1,1,G*%
%TO.N,/SOLAR_P*%
X83898500Y-106238000D03*
%TO.P,Q1,2,S*%
%TO.N,GNDD*%
X83898500Y-108138000D03*
%TO.P,Q1,3,D*%
%TO.N,Net-(Q1-D)*%
X85773500Y-107188000D03*
%TD*%
D18*
%TO.P,L1,1,1*%
%TO.N,Net-(D1-A)*%
X92735400Y-95504000D03*
%TO.P,L1,2,2*%
%TO.N,Net-(J3-Pin_1)*%
X87604600Y-95504000D03*
%TD*%
D19*
%TO.P,D1,1,K*%
%TO.N,/OUT_P*%
X101060000Y-95504000D03*
%TO.P,D1,2,A*%
%TO.N,Net-(D1-A)*%
X97060000Y-95504000D03*
%TD*%
D20*
%TO.P,C3,1*%
%TO.N,/OUT_P*%
X104140000Y-103718000D03*
%TO.P,C3,2*%
%TO.N,Net-(U1-FB)*%
X104140000Y-105618000D03*
%TD*%
D21*
%TO.P,C2,1*%
%TO.N,/OUT_P*%
X94947000Y-106638000D03*
%TO.P,C2,2*%
%TO.N,GNDD*%
X91997000Y-106638000D03*
%TD*%
D20*
%TO.P,C1,1*%
%TO.N,Net-(J3-Pin_1)*%
X89408000Y-106238000D03*
%TO.P,C1,2*%
%TO.N,GNDD*%
X89408000Y-108138000D03*
%TD*%
D19*
%TO.P,D2,1,K*%
%TO.N,/BAT_P*%
X79724000Y-94488000D03*
%TO.P,D2,2,A*%
%TO.N,/SOLAR_P*%
X75724000Y-94488000D03*
%TD*%
D22*
%TO.N,GNDD*%
X104775000Y-99695000D03*
X97790000Y-101600000D03*
X99060000Y-104140000D03*
X74295000Y-104140000D03*
%TD*%
D23*
%TO.N,GNDD*%
X105161000Y-99309000D02*
X104775000Y-99695000D01*
X107375000Y-99309000D02*
X105161000Y-99309000D01*
X97282000Y-102108000D02*
X97790000Y-101600000D01*
X96361250Y-102108000D02*
X97282000Y-102108000D01*
X99464500Y-103735500D02*
X99060000Y-104140000D01*
X100584000Y-103735500D02*
X99464500Y-103735500D01*
X96012000Y-102108000D02*
X96361250Y-102108000D01*
X91997000Y-106123000D02*
X96012000Y-102108000D01*
X91997000Y-106638000D02*
X91997000Y-106123000D01*
X83841000Y-108080500D02*
X83898500Y-108138000D01*
X79756000Y-108080500D02*
X83841000Y-108080500D01*
X72965000Y-104140000D02*
X74295000Y-104140000D01*
X71441000Y-102616000D02*
X72965000Y-104140000D01*
X83898500Y-108138000D02*
X89408000Y-108138000D01*
X90497000Y-108138000D02*
X91997000Y-106638000D01*
X89408000Y-108138000D02*
X90497000Y-108138000D01*
%TO.N,Net-(U1-FB)*%
X96774000Y-100076000D02*
X100687500Y-100076000D01*
X96361250Y-100488750D02*
X96774000Y-100076000D01*
X96361250Y-101157999D02*
X96361250Y-100488750D01*
D24*
%TO.N,/BAT_P*%
X79724000Y-95536000D02*
X79724000Y-94488000D01*
X75070000Y-100190000D02*
X79724000Y-95536000D01*
X75070000Y-100330000D02*
X75070000Y-100190000D01*
D23*
%TO.N,Net-(J3-Pin_1)*%
X85024632Y-98985368D02*
X85164632Y-98985368D01*
X83680000Y-100330000D02*
X85024632Y-98985368D01*
X85164632Y-98985368D02*
X85103300Y-98924036D01*
D24*
%TO.N,/BAT_P*%
X75951000Y-101211000D02*
X75070000Y-100330000D01*
X75951000Y-105156000D02*
X75951000Y-101211000D01*
D23*
%TO.N,Net-(U1-FB)*%
X97705499Y-103058001D02*
X99605501Y-101157999D01*
X96361250Y-103058001D02*
X97705499Y-103058001D01*
%TO.N,Net-(J3-Pin_1)*%
X85103300Y-98924036D02*
X85103300Y-96735300D01*
X87284764Y-101105500D02*
X85164632Y-98985368D01*
X88392000Y-101105500D02*
X87284764Y-101105500D01*
X85103300Y-96735300D02*
X86334600Y-95504000D01*
X89802500Y-99695000D02*
X88392000Y-101105500D01*
X94522300Y-99695000D02*
X89802500Y-99695000D01*
X94522300Y-102166451D02*
X94522300Y-99695000D01*
X93630750Y-103058001D02*
X94522300Y-102166451D01*
%TO.N,Net-(U1-FB)*%
X96894599Y-101157999D02*
X96361250Y-101157999D01*
D24*
%TO.N,/OUT_P*%
X107375000Y-107255000D02*
X107375000Y-101849000D01*
X106680000Y-107950000D02*
X107375000Y-107255000D01*
X96259000Y-107950000D02*
X106680000Y-107950000D01*
X94947000Y-106638000D02*
X96259000Y-107950000D01*
X105506000Y-103718000D02*
X107375000Y-101849000D01*
X104140000Y-103718000D02*
X105506000Y-103718000D01*
%TO.N,/BAT_P*%
X71441000Y-105156000D02*
X75951000Y-105156000D01*
%TO.N,/SOLAR_P*%
X78061500Y-107950000D02*
X79756000Y-106255500D01*
X70231000Y-107696000D02*
X70485000Y-107950000D01*
X70231000Y-99762000D02*
X70231000Y-107696000D01*
X71441000Y-98552000D02*
X70231000Y-99762000D01*
X70485000Y-107950000D02*
X78061500Y-107950000D01*
X69850000Y-96961000D02*
X71441000Y-98552000D01*
X69850000Y-94615000D02*
X69850000Y-96961000D01*
X69977000Y-94488000D02*
X69850000Y-94615000D01*
%TO.N,/OUT_P*%
X100624300Y-95504000D02*
X101060000Y-95504000D01*
D23*
%TO.N,Net-(D1-A)*%
X97060000Y-95504000D02*
X91465400Y-95504000D01*
D24*
%TO.N,/OUT_P*%
X101060000Y-98623500D02*
X102512500Y-100076000D01*
X101060000Y-95504000D02*
X101060000Y-98623500D01*
X102512500Y-102090500D02*
X104140000Y-103718000D01*
X102512500Y-100076000D02*
X102512500Y-102090500D01*
D23*
%TO.N,Net-(U1-FB)*%
X100641500Y-105618000D02*
X100584000Y-105560500D01*
X104140000Y-105618000D02*
X100641500Y-105618000D01*
X99605501Y-101157999D02*
X100687500Y-100076000D01*
X98863749Y-105560500D02*
X96361250Y-103058001D01*
X100584000Y-105560500D02*
X98863749Y-105560500D01*
%TO.N,Net-(Q1-D)*%
X91121000Y-103667749D02*
X93630750Y-101157999D01*
X91121000Y-106036160D02*
X91121000Y-103667749D01*
X89969160Y-107188000D02*
X91121000Y-106036160D01*
X85773500Y-107188000D02*
X89969160Y-107188000D01*
%TO.N,Net-(J3-Pin_1)*%
X89408000Y-102121500D02*
X88392000Y-101105500D01*
X89408000Y-106238000D02*
X89408000Y-102121500D01*
%TO.N,Net-(Q1-D)*%
X88392000Y-104569500D02*
X88392000Y-102930500D01*
X85773500Y-107188000D02*
X88392000Y-104569500D01*
D24*
%TO.N,/SOLAR_P*%
X79253500Y-105753000D02*
X79756000Y-106255500D01*
X81722000Y-106238000D02*
X83898500Y-106238000D01*
X81704500Y-106255500D02*
X81722000Y-106238000D01*
X79756000Y-106255500D02*
X81704500Y-106255500D01*
X80175000Y-105836500D02*
X79756000Y-106255500D01*
X75724000Y-94488000D02*
X69977000Y-94488000D01*
%TD*%
M02*
