%TF.GenerationSoftware,KiCad,Pcbnew,9.0.7*%
%TF.CreationDate,2026-03-07T13:37:36-05:00*%
%TF.ProjectId,Tiny Solar supply,54696e79-2053-46f6-9c61-722073757070,rev?*%
%TF.SameCoordinates,Original*%
%TF.FileFunction,Copper,L2,Bot*%
%TF.FilePolarity,Positive*%
%FSLAX46Y46*%
G04 Gerber Fmt 4.6, Leading zero omitted, Abs format (unit mm)*
G04 Created by KiCad (PCBNEW 9.0.7) date 2026-03-07 13:37:36*
%MOMM*%
%LPD*%
G01*
G04 APERTURE LIST*
%TA.AperFunction,ComponentPad*%
%ADD10R,1.700000X1.700000*%
%TD*%
%TA.AperFunction,ComponentPad*%
%ADD11C,1.700000*%
%TD*%
%TA.AperFunction,ViaPad*%
%ADD12C,0.600000*%
%TD*%
G04 APERTURE END LIST*
D10*
%TO.P,J1,1,Pin_1*%
%TO.N,GNDD*%
X107375000Y-99309000D03*
D11*
%TO.P,J1,2,Pin_2*%
%TO.N,/OUT_P*%
X107375000Y-101849000D03*
%TD*%
D10*
%TO.P,J2,1,Pin_1*%
%TO.N,/BAT_P*%
X71441000Y-105156000D03*
D11*
%TO.P,J2,2,Pin_2*%
%TO.N,GNDD*%
X71441000Y-102616000D03*
%TD*%
%TO.P,J4,2,Pin_2*%
%TO.N,GNDD*%
X71441000Y-96012000D03*
D10*
%TO.P,J4,1,Pin_1*%
%TO.N,/SOLAR_P*%
X71441000Y-98552000D03*
%TD*%
D12*
%TO.N,GNDD*%
X104775000Y-99695000D03*
X97790000Y-101600000D03*
X99060000Y-104140000D03*
X74295000Y-104140000D03*
%TD*%
%TA.AperFunction,Conductor*%
%TO.N,GNDD*%
G36*
X107893039Y-92094685D02*
G01*
X107938794Y-92147489D01*
X107950000Y-92199000D01*
X107950000Y-97835000D01*
X107930315Y-97902039D01*
X107877511Y-97947794D01*
X107826000Y-97959000D01*
X107625000Y-97959000D01*
X107625000Y-98875988D01*
X107567993Y-98843075D01*
X107440826Y-98809000D01*
X107309174Y-98809000D01*
X107182007Y-98843075D01*
X107125000Y-98875988D01*
X107125000Y-97959000D01*
X106477155Y-97959000D01*
X106417627Y-97965401D01*
X106417620Y-97965403D01*
X106282913Y-98015645D01*
X106282906Y-98015649D01*
X106167812Y-98101809D01*
X106167809Y-98101812D01*
X106081649Y-98216906D01*
X106081645Y-98216913D01*
X106031403Y-98351620D01*
X106031401Y-98351627D01*
X106025000Y-98411155D01*
X106025000Y-99059000D01*
X106941988Y-99059000D01*
X106909075Y-99116007D01*
X106875000Y-99243174D01*
X106875000Y-99374826D01*
X106909075Y-99501993D01*
X106941988Y-99559000D01*
X106025000Y-99559000D01*
X106025000Y-100206844D01*
X106031401Y-100266372D01*
X106031403Y-100266379D01*
X106081645Y-100401086D01*
X106081649Y-100401093D01*
X106167809Y-100516187D01*
X106167812Y-100516190D01*
X106282906Y-100602350D01*
X106282913Y-100602354D01*
X106414470Y-100651422D01*
X106470404Y-100693293D01*
X106494821Y-100758758D01*
X106479969Y-100827031D01*
X106458819Y-100855285D01*
X106344889Y-100969215D01*
X106219951Y-101141179D01*
X106123444Y-101330585D01*
X106057753Y-101532760D01*
X106024500Y-101742713D01*
X106024500Y-101955286D01*
X106055351Y-102150075D01*
X106057754Y-102165243D01*
X106104461Y-102308993D01*
X106123444Y-102367414D01*
X106219951Y-102556820D01*
X106344890Y-102728786D01*
X106495213Y-102879109D01*
X106667179Y-103004048D01*
X106667181Y-103004049D01*
X106667184Y-103004051D01*
X106856588Y-103100557D01*
X107058757Y-103166246D01*
X107268713Y-103199500D01*
X107268714Y-103199500D01*
X107481286Y-103199500D01*
X107481287Y-103199500D01*
X107691243Y-103166246D01*
X107787685Y-103134909D01*
X107857522Y-103132915D01*
X107917355Y-103168995D01*
X107948184Y-103231695D01*
X107950000Y-103252841D01*
X107950000Y-108461000D01*
X107930315Y-108528039D01*
X107877511Y-108573794D01*
X107826000Y-108585000D01*
X69974000Y-108585000D01*
X69906961Y-108565315D01*
X69861206Y-108512511D01*
X69850000Y-108461000D01*
X69850000Y-106130281D01*
X69869685Y-106063242D01*
X69922489Y-106017487D01*
X69991647Y-106007543D01*
X70055203Y-106036568D01*
X70092977Y-106095346D01*
X70095084Y-106105941D01*
X70095124Y-106105932D01*
X70096907Y-106113479D01*
X70147202Y-106248328D01*
X70147206Y-106248335D01*
X70233452Y-106363544D01*
X70233455Y-106363547D01*
X70348664Y-106449793D01*
X70348671Y-106449797D01*
X70483517Y-106500091D01*
X70483516Y-106500091D01*
X70490444Y-106500835D01*
X70543127Y-106506500D01*
X72338872Y-106506499D01*
X72398483Y-106500091D01*
X72533331Y-106449796D01*
X72648546Y-106363546D01*
X72734796Y-106248331D01*
X72785091Y-106113483D01*
X72791500Y-106053873D01*
X72791499Y-105131336D01*
X75098000Y-105131336D01*
X75098000Y-106325000D01*
X76600000Y-106325000D01*
X77598000Y-106325000D01*
X79100000Y-106325000D01*
X80098000Y-106325000D01*
X81600000Y-106325000D01*
X82598000Y-106325000D01*
X84100000Y-106325000D01*
X85098000Y-106325000D01*
X86600000Y-106325000D01*
X87598000Y-106325000D01*
X89100000Y-106325000D01*
X90098000Y-106325000D01*
X91600000Y-106325000D01*
X92598000Y-106325000D01*
X94100000Y-106325000D01*
X95098000Y-106325000D01*
X96600000Y-106325000D01*
X97598000Y-106325000D01*
X99100000Y-106325000D01*
X99100000Y-105414000D01*
X98969493Y-105414000D01*
X98950095Y-105412473D01*
X98771310Y-105384156D01*
X98752390Y-105379614D01*
X98580235Y-105323678D01*
X98562258Y-105316232D01*
X98400974Y-105234053D01*
X98384384Y-105223886D01*
X98237940Y-105117489D01*
X98223144Y-105104852D01*
X98095148Y-104976856D01*
X98082511Y-104962060D01*
X98021999Y-104878772D01*
X100098000Y-104878772D01*
X100098000Y-106325000D01*
X101600000Y-106325000D01*
X102598000Y-106325000D01*
X104100000Y-106325000D01*
X105098000Y-106325000D01*
X106600000Y-106325000D01*
X106600000Y-104823000D01*
X105098000Y-104823000D01*
X105098000Y-106325000D01*
X104100000Y-106325000D01*
X104100000Y-104823000D01*
X102598000Y-104823000D01*
X102598000Y-106325000D01*
X101600000Y-106325000D01*
X101600000Y-104823000D01*
X100138521Y-104823000D01*
X100098000Y-104878772D01*
X98021999Y-104878772D01*
X97981479Y-104823000D01*
X97598000Y-104823000D01*
X97598000Y-106325000D01*
X96600000Y-106325000D01*
X96600000Y-104823000D01*
X95098000Y-104823000D01*
X95098000Y-106325000D01*
X94100000Y-106325000D01*
X94100000Y-104823000D01*
X92598000Y-104823000D01*
X92598000Y-106325000D01*
X91600000Y-106325000D01*
X91600000Y-104823000D01*
X90098000Y-104823000D01*
X90098000Y-106325000D01*
X89100000Y-106325000D01*
X89100000Y-104823000D01*
X87598000Y-104823000D01*
X87598000Y-106325000D01*
X86600000Y-106325000D01*
X86600000Y-104823000D01*
X85098000Y-104823000D01*
X85098000Y-106325000D01*
X84100000Y-106325000D01*
X84100000Y-104823000D01*
X82598000Y-104823000D01*
X82598000Y-106325000D01*
X81600000Y-106325000D01*
X81600000Y-104823000D01*
X80098000Y-104823000D01*
X80098000Y-106325000D01*
X79100000Y-106325000D01*
X79100000Y-104823000D01*
X77598000Y-104823000D01*
X77598000Y-106325000D01*
X76600000Y-106325000D01*
X76600000Y-104823000D01*
X75373521Y-104823000D01*
X75272489Y-104962060D01*
X75259852Y-104976856D01*
X75131856Y-105104852D01*
X75117059Y-105117490D01*
X75098000Y-105131336D01*
X72791499Y-105131336D01*
X72791499Y-104258128D01*
X72785091Y-104198517D01*
X72734796Y-104063669D01*
X72734795Y-104063668D01*
X72734793Y-104063664D01*
X72648547Y-103948455D01*
X72648544Y-103948452D01*
X72533335Y-103862206D01*
X72533328Y-103862202D01*
X72398482Y-103811908D01*
X72398483Y-103811908D01*
X72338883Y-103805501D01*
X72338881Y-103805500D01*
X72338873Y-103805500D01*
X72338865Y-103805500D01*
X72328309Y-103805500D01*
X72261270Y-103785815D01*
X72240628Y-103769181D01*
X71570408Y-103098962D01*
X71633993Y-103081925D01*
X71748007Y-103016099D01*
X71841099Y-102923007D01*
X71906925Y-102808993D01*
X71923962Y-102745408D01*
X72556270Y-103377717D01*
X72556270Y-103377716D01*
X72595622Y-103323554D01*
X72684734Y-103148663D01*
X75098000Y-103148663D01*
X75117060Y-103162511D01*
X75131856Y-103175148D01*
X75259852Y-103303144D01*
X75272489Y-103317940D01*
X75378886Y-103464384D01*
X75389053Y-103480974D01*
X75471232Y-103642258D01*
X75478678Y-103660235D01*
X75532213Y-103825000D01*
X76600000Y-103825000D01*
X77598000Y-103825000D01*
X79100000Y-103825000D01*
X80098000Y-103825000D01*
X81600000Y-103825000D01*
X82598000Y-103825000D01*
X84100000Y-103825000D01*
X85098000Y-103825000D01*
X86600000Y-103825000D01*
X87598000Y-103825000D01*
X89100000Y-103825000D01*
X90098000Y-103825000D01*
X91600000Y-103825000D01*
X92598000Y-103825000D01*
X94100000Y-103825000D01*
X95098000Y-103825000D01*
X96600000Y-103825000D01*
X96600000Y-102859470D01*
X97598000Y-102859470D01*
X97598000Y-103825000D01*
X97822787Y-103825000D01*
X97876322Y-103660235D01*
X97883768Y-103642258D01*
X97965947Y-103480974D01*
X97976114Y-103464384D01*
X98022001Y-103401226D01*
X100098000Y-103401226D01*
X100143886Y-103464384D01*
X100154053Y-103480974D01*
X100236232Y-103642258D01*
X100243678Y-103660235D01*
X100297213Y-103825000D01*
X101600000Y-103825000D01*
X102598000Y-103825000D01*
X104100000Y-103825000D01*
X105098000Y-103825000D01*
X106099342Y-103825000D01*
X106096435Y-103822974D01*
X105892731Y-103674975D01*
X105888843Y-103672032D01*
X105865684Y-103653773D01*
X105861919Y-103650683D01*
X105832112Y-103625222D01*
X105828473Y-103621988D01*
X105806868Y-103602014D01*
X105803364Y-103598644D01*
X105625356Y-103420636D01*
X105621986Y-103417132D01*
X105602012Y-103395527D01*
X105598778Y-103391888D01*
X105573317Y-103362081D01*
X105570227Y-103358316D01*
X105551968Y-103335157D01*
X105549025Y-103331269D01*
X105401026Y-103127565D01*
X105398240Y-103123568D01*
X105381874Y-103099073D01*
X105379250Y-103094973D01*
X105358769Y-103061550D01*
X105356307Y-103057350D01*
X105341917Y-103031654D01*
X105339622Y-103027361D01*
X105225314Y-102803019D01*
X105223189Y-102798636D01*
X105210846Y-102771861D01*
X105208891Y-102767392D01*
X105193893Y-102731175D01*
X105192121Y-102726647D01*
X105181936Y-102699037D01*
X105180342Y-102694440D01*
X105102545Y-102455007D01*
X105101131Y-102450347D01*
X105098000Y-102439244D01*
X105098000Y-103825000D01*
X104100000Y-103825000D01*
X104100000Y-102323000D01*
X102598000Y-102323000D01*
X102598000Y-103825000D01*
X101600000Y-103825000D01*
X101600000Y-102323000D01*
X100098000Y-102323000D01*
X100098000Y-103401226D01*
X98022001Y-103401226D01*
X98082511Y-103317940D01*
X98095148Y-103303144D01*
X98223144Y-103175148D01*
X98237940Y-103162511D01*
X98384384Y-103056114D01*
X98400974Y-103045947D01*
X98562258Y-102963768D01*
X98580235Y-102956322D01*
X98752390Y-102900386D01*
X98771310Y-102895844D01*
X98950095Y-102867527D01*
X98969493Y-102866000D01*
X99100000Y-102866000D01*
X99100000Y-102323000D01*
X98839460Y-102323000D01*
X98767489Y-102422060D01*
X98754852Y-102436856D01*
X98626856Y-102564852D01*
X98612060Y-102577489D01*
X98465616Y-102683886D01*
X98449026Y-102694053D01*
X98287742Y-102776232D01*
X98269765Y-102783678D01*
X98097610Y-102839614D01*
X98078690Y-102844156D01*
X97899905Y-102872473D01*
X97880507Y-102874000D01*
X97699493Y-102874000D01*
X97680095Y-102872473D01*
X97598000Y-102859470D01*
X96600000Y-102859470D01*
X96600000Y-102323000D01*
X95098000Y-102323000D01*
X95098000Y-103825000D01*
X94100000Y-103825000D01*
X94100000Y-102323000D01*
X92598000Y-102323000D01*
X92598000Y-103825000D01*
X91600000Y-103825000D01*
X91600000Y-102323000D01*
X90098000Y-102323000D01*
X90098000Y-103825000D01*
X89100000Y-103825000D01*
X89100000Y-102323000D01*
X87598000Y-102323000D01*
X87598000Y-103825000D01*
X86600000Y-103825000D01*
X86600000Y-102323000D01*
X85098000Y-102323000D01*
X85098000Y-103825000D01*
X84100000Y-103825000D01*
X84100000Y-102323000D01*
X82598000Y-102323000D01*
X82598000Y-103825000D01*
X81600000Y-103825000D01*
X81600000Y-102323000D01*
X80098000Y-102323000D01*
X80098000Y-103825000D01*
X79100000Y-103825000D01*
X79100000Y-102323000D01*
X77598000Y-102323000D01*
X77598000Y-103825000D01*
X76600000Y-103825000D01*
X76600000Y-102323000D01*
X75098000Y-102323000D01*
X75098000Y-103148663D01*
X72684734Y-103148663D01*
X72692095Y-103134217D01*
X72757757Y-102932130D01*
X72757757Y-102932127D01*
X72791000Y-102722246D01*
X72791000Y-102509753D01*
X72757757Y-102299872D01*
X72757757Y-102299869D01*
X72692095Y-102097782D01*
X72595624Y-101908449D01*
X72556270Y-101854282D01*
X72556269Y-101854282D01*
X71923962Y-102486590D01*
X71906925Y-102423007D01*
X71841099Y-102308993D01*
X71748007Y-102215901D01*
X71633993Y-102150075D01*
X71570409Y-102133037D01*
X72202716Y-101500728D01*
X72148550Y-101461375D01*
X71959217Y-101364904D01*
X71757129Y-101299242D01*
X71547246Y-101266000D01*
X71334754Y-101266000D01*
X71124872Y-101299242D01*
X71124869Y-101299242D01*
X70922782Y-101364904D01*
X70733439Y-101461380D01*
X70679282Y-101500727D01*
X70679282Y-101500728D01*
X71311591Y-102133037D01*
X71248007Y-102150075D01*
X71133993Y-102215901D01*
X71040901Y-102308993D01*
X70975075Y-102423007D01*
X70958037Y-102486591D01*
X70325728Y-101854282D01*
X70325727Y-101854282D01*
X70286380Y-101908439D01*
X70189904Y-102097782D01*
X70124242Y-102299869D01*
X70124242Y-102299872D01*
X70096473Y-102475198D01*
X70066544Y-102538333D01*
X70007232Y-102575264D01*
X69937370Y-102574266D01*
X69879137Y-102535656D01*
X69851023Y-102471692D01*
X69850000Y-102455800D01*
X69850000Y-100774039D01*
X72900416Y-100774039D01*
X72968697Y-100823647D01*
X73004001Y-100863376D01*
X73072072Y-100984924D01*
X73193622Y-101052997D01*
X73233351Y-101088301D01*
X73405321Y-101325000D01*
X74100000Y-101325000D01*
X75098000Y-101325000D01*
X76600000Y-101325000D01*
X77598000Y-101325000D01*
X79100000Y-101325000D01*
X80098000Y-101325000D01*
X81600000Y-101325000D01*
X82598000Y-101325000D01*
X84100000Y-101325000D01*
X85098000Y-101325000D01*
X86600000Y-101325000D01*
X87598000Y-101325000D01*
X89100000Y-101325000D01*
X90098000Y-101325000D01*
X91600000Y-101325000D01*
X92598000Y-101325000D01*
X94100000Y-101325000D01*
X95098000Y-101325000D01*
X96543676Y-101325000D01*
X96545844Y-101311310D01*
X96550386Y-101292390D01*
X96600000Y-101139691D01*
X96600000Y-100340529D01*
X97598000Y-100340529D01*
X97680095Y-100327527D01*
X97699493Y-100326000D01*
X97880507Y-100326000D01*
X97899905Y-100327527D01*
X98078690Y-100355844D01*
X98097610Y-100360386D01*
X98269765Y-100416322D01*
X98287742Y-100423768D01*
X98449026Y-100505947D01*
X98465616Y-100516114D01*
X98612060Y-100622511D01*
X98626856Y-100635148D01*
X98754852Y-100763144D01*
X98767489Y-100777940D01*
X98873886Y-100924384D01*
X98884053Y-100940974D01*
X98966232Y-101102258D01*
X98973678Y-101120235D01*
X99029614Y-101292390D01*
X99034156Y-101311310D01*
X99036324Y-101325000D01*
X99100000Y-101325000D01*
X100098000Y-101325000D01*
X101600000Y-101325000D01*
X102598000Y-101325000D01*
X104100000Y-101325000D01*
X104100000Y-100779263D01*
X104099384Y-100778886D01*
X103952940Y-100672489D01*
X103938144Y-100659852D01*
X103810148Y-100531856D01*
X103797511Y-100517060D01*
X103691114Y-100370616D01*
X103680947Y-100354026D01*
X103598768Y-100192742D01*
X103591322Y-100174765D01*
X103535386Y-100002610D01*
X103530844Y-99983690D01*
X103505393Y-99823000D01*
X102598000Y-99823000D01*
X102598000Y-101325000D01*
X101600000Y-101325000D01*
X101600000Y-99823000D01*
X100098000Y-99823000D01*
X100098000Y-101325000D01*
X99100000Y-101325000D01*
X99100000Y-99823000D01*
X97598000Y-99823000D01*
X97598000Y-100340529D01*
X96600000Y-100340529D01*
X96600000Y-99823000D01*
X95098000Y-99823000D01*
X95098000Y-101325000D01*
X94100000Y-101325000D01*
X94100000Y-99823000D01*
X92598000Y-99823000D01*
X92598000Y-101325000D01*
X91600000Y-101325000D01*
X91600000Y-99823000D01*
X90098000Y-99823000D01*
X90098000Y-101325000D01*
X89100000Y-101325000D01*
X89100000Y-99823000D01*
X87598000Y-99823000D01*
X87598000Y-101325000D01*
X86600000Y-101325000D01*
X86600000Y-99823000D01*
X85098000Y-99823000D01*
X85098000Y-101325000D01*
X84100000Y-101325000D01*
X84100000Y-99823000D01*
X82598000Y-99823000D01*
X82598000Y-101325000D01*
X81600000Y-101325000D01*
X81600000Y-99823000D01*
X80098000Y-99823000D01*
X80098000Y-101325000D01*
X79100000Y-101325000D01*
X79100000Y-99823000D01*
X77598000Y-99823000D01*
X77598000Y-101325000D01*
X76600000Y-101325000D01*
X76600000Y-99823000D01*
X75098000Y-99823000D01*
X75098000Y-101325000D01*
X74100000Y-101325000D01*
X74100000Y-99823000D01*
X73733101Y-99823000D01*
X73731071Y-99829012D01*
X73657413Y-100026502D01*
X73654025Y-100034682D01*
X73631767Y-100083419D01*
X73627805Y-100091333D01*
X73593628Y-100153923D01*
X73589110Y-100161537D01*
X73560146Y-100206604D01*
X73555098Y-100213874D01*
X73426114Y-100386173D01*
X73420561Y-100393064D01*
X73385481Y-100433549D01*
X73379449Y-100440028D01*
X73329028Y-100490449D01*
X73322549Y-100496481D01*
X73282064Y-100531561D01*
X73275173Y-100537114D01*
X73102874Y-100666098D01*
X73095604Y-100671146D01*
X73050537Y-100700110D01*
X73042923Y-100704628D01*
X72980333Y-100738805D01*
X72972419Y-100742767D01*
X72923682Y-100765025D01*
X72915502Y-100768413D01*
X72900416Y-100774039D01*
X69850000Y-100774039D01*
X69850000Y-99526281D01*
X69869685Y-99459242D01*
X69922489Y-99413487D01*
X69991647Y-99403543D01*
X70055203Y-99432568D01*
X70092977Y-99491346D01*
X70095084Y-99501941D01*
X70095124Y-99501932D01*
X70096907Y-99509479D01*
X70147202Y-99644328D01*
X70147206Y-99644335D01*
X70233452Y-99759544D01*
X70233455Y-99759547D01*
X70348664Y-99845793D01*
X70348671Y-99845797D01*
X70483517Y-99896091D01*
X70483516Y-99896091D01*
X70490444Y-99896835D01*
X70543127Y-99902500D01*
X72338872Y-99902499D01*
X72398483Y-99896091D01*
X72533331Y-99845796D01*
X72648546Y-99759546D01*
X72734796Y-99644331D01*
X72785091Y-99509483D01*
X72791500Y-99449873D01*
X72791499Y-97654128D01*
X72785091Y-97594517D01*
X72782441Y-97587413D01*
X72734797Y-97459671D01*
X72734793Y-97459664D01*
X72648547Y-97344455D01*
X72648544Y-97344452D01*
X72619888Y-97323000D01*
X73745887Y-97323000D01*
X73747153Y-97327172D01*
X73749168Y-97334648D01*
X73763516Y-97395363D01*
X73765061Y-97402955D01*
X73772972Y-97449160D01*
X73774041Y-97456833D01*
X73785212Y-97560755D01*
X73785523Y-97564064D01*
X73787135Y-97584101D01*
X73787357Y-97587413D01*
X73788786Y-97614095D01*
X73788919Y-97617413D01*
X73789455Y-97637464D01*
X73789499Y-97640778D01*
X73789500Y-98825000D01*
X74100000Y-98825000D01*
X75098000Y-98825000D01*
X76600000Y-98825000D01*
X77598000Y-98825000D01*
X79100000Y-98825000D01*
X80098000Y-98825000D01*
X81600000Y-98825000D01*
X82598000Y-98825000D01*
X84100000Y-98825000D01*
X85098000Y-98825000D01*
X86600000Y-98825000D01*
X87598000Y-98825000D01*
X89100000Y-98825000D01*
X90098000Y-98825000D01*
X91600000Y-98825000D01*
X92598000Y-98825000D01*
X94100000Y-98825000D01*
X95098000Y-98825000D01*
X96600000Y-98825000D01*
X97598000Y-98825000D01*
X99100000Y-98825000D01*
X100098000Y-98825000D01*
X101600000Y-98825000D01*
X102598000Y-98825000D01*
X103843292Y-98825000D01*
X103938144Y-98730148D01*
X103952940Y-98717511D01*
X104099384Y-98611114D01*
X104100000Y-98610736D01*
X104100000Y-97323000D01*
X102598000Y-97323000D01*
X102598000Y-98825000D01*
X101600000Y-98825000D01*
X101600000Y-97323000D01*
X100098000Y-97323000D01*
X100098000Y-98825000D01*
X99100000Y-98825000D01*
X99100000Y-97323000D01*
X97598000Y-97323000D01*
X97598000Y-98825000D01*
X96600000Y-98825000D01*
X96600000Y-97323000D01*
X95098000Y-97323000D01*
X95098000Y-98825000D01*
X94100000Y-98825000D01*
X94100000Y-97323000D01*
X92598000Y-97323000D01*
X92598000Y-98825000D01*
X91600000Y-98825000D01*
X91600000Y-97323000D01*
X90098000Y-97323000D01*
X90098000Y-98825000D01*
X89100000Y-98825000D01*
X89100000Y-97323000D01*
X87598000Y-97323000D01*
X87598000Y-98825000D01*
X86600000Y-98825000D01*
X86600000Y-97323000D01*
X85098000Y-97323000D01*
X85098000Y-98825000D01*
X84100000Y-98825000D01*
X84100000Y-97323000D01*
X82598000Y-97323000D01*
X82598000Y-98825000D01*
X81600000Y-98825000D01*
X81600000Y-97323000D01*
X80098000Y-97323000D01*
X80098000Y-98825000D01*
X79100000Y-98825000D01*
X79100000Y-97323000D01*
X77598000Y-97323000D01*
X77598000Y-98825000D01*
X76600000Y-98825000D01*
X76600000Y-97323000D01*
X75098000Y-97323000D01*
X75098000Y-98825000D01*
X74100000Y-98825000D01*
X74100000Y-97323000D01*
X73745887Y-97323000D01*
X72619888Y-97323000D01*
X72533335Y-97258206D01*
X72533328Y-97258202D01*
X72398482Y-97207908D01*
X72398483Y-97207908D01*
X72338883Y-97201501D01*
X72338881Y-97201500D01*
X72338873Y-97201500D01*
X72338865Y-97201500D01*
X72328309Y-97201500D01*
X72261270Y-97181815D01*
X72240628Y-97165181D01*
X71570408Y-96494962D01*
X71633993Y-96477925D01*
X71748007Y-96412099D01*
X71841099Y-96319007D01*
X71906925Y-96204993D01*
X71923962Y-96141408D01*
X72556270Y-96773717D01*
X72556270Y-96773716D01*
X72595622Y-96719554D01*
X72692095Y-96530217D01*
X72757757Y-96328130D01*
X72757757Y-96328127D01*
X72791000Y-96118246D01*
X72791000Y-95905753D01*
X72757757Y-95695872D01*
X72757757Y-95695869D01*
X72692095Y-95493782D01*
X72595624Y-95304449D01*
X72556270Y-95250282D01*
X72556269Y-95250282D01*
X71923962Y-95882590D01*
X71906925Y-95819007D01*
X71841099Y-95704993D01*
X71748007Y-95611901D01*
X71633993Y-95546075D01*
X71570409Y-95529037D01*
X72202716Y-94896728D01*
X72148550Y-94857375D01*
X72081086Y-94823000D01*
X73469954Y-94823000D01*
X73473648Y-94829595D01*
X73475944Y-94833890D01*
X73590214Y-95058154D01*
X73592340Y-95062537D01*
X73604669Y-95089281D01*
X73606619Y-95093739D01*
X73621621Y-95129955D01*
X73623396Y-95134491D01*
X73633595Y-95162136D01*
X73635191Y-95166737D01*
X73712974Y-95406130D01*
X73714389Y-95410794D01*
X73722391Y-95439171D01*
X73723621Y-95443887D01*
X73732769Y-95482004D01*
X73733811Y-95486756D01*
X73739551Y-95515619D01*
X73740406Y-95520407D01*
X73779777Y-95768980D01*
X73780445Y-95773804D01*
X73783905Y-95803038D01*
X73784381Y-95807875D01*
X73787459Y-95846954D01*
X73787746Y-95851819D01*
X73788904Y-95881271D01*
X73789000Y-95886143D01*
X73789000Y-96137857D01*
X73788904Y-96142729D01*
X73787746Y-96172181D01*
X73787459Y-96177046D01*
X73784381Y-96216125D01*
X73783905Y-96220962D01*
X73780445Y-96250196D01*
X73779777Y-96255021D01*
X73768693Y-96325000D01*
X74100000Y-96325000D01*
X75098000Y-96325000D01*
X76600000Y-96325000D01*
X77598000Y-96325000D01*
X79100000Y-96325000D01*
X80098000Y-96325000D01*
X81600000Y-96325000D01*
X82598000Y-96325000D01*
X84100000Y-96325000D01*
X85098000Y-96325000D01*
X86600000Y-96325000D01*
X87598000Y-96325000D01*
X89100000Y-96325000D01*
X90098000Y-96325000D01*
X91600000Y-96325000D01*
X92598000Y-96325000D01*
X94100000Y-96325000D01*
X95098000Y-96325000D01*
X96600000Y-96325000D01*
X97598000Y-96325000D01*
X99100000Y-96325000D01*
X100098000Y-96325000D01*
X101600000Y-96325000D01*
X102598000Y-96325000D01*
X104100000Y-96325000D01*
X105098000Y-96325000D01*
X106600000Y-96325000D01*
X106600000Y-94823000D01*
X105098000Y-94823000D01*
X105098000Y-96325000D01*
X104100000Y-96325000D01*
X104100000Y-94823000D01*
X102598000Y-94823000D01*
X102598000Y-96325000D01*
X101600000Y-96325000D01*
X101600000Y-94823000D01*
X100098000Y-94823000D01*
X100098000Y-96325000D01*
X99100000Y-96325000D01*
X99100000Y-94823000D01*
X97598000Y-94823000D01*
X97598000Y-96325000D01*
X96600000Y-96325000D01*
X96600000Y-94823000D01*
X95098000Y-94823000D01*
X95098000Y-96325000D01*
X94100000Y-96325000D01*
X94100000Y-94823000D01*
X92598000Y-94823000D01*
X92598000Y-96325000D01*
X91600000Y-96325000D01*
X91600000Y-94823000D01*
X90098000Y-94823000D01*
X90098000Y-96325000D01*
X89100000Y-96325000D01*
X89100000Y-94823000D01*
X87598000Y-94823000D01*
X87598000Y-96325000D01*
X86600000Y-96325000D01*
X86600000Y-94823000D01*
X85098000Y-94823000D01*
X85098000Y-96325000D01*
X84100000Y-96325000D01*
X84100000Y-94823000D01*
X82598000Y-94823000D01*
X82598000Y-96325000D01*
X81600000Y-96325000D01*
X81600000Y-94823000D01*
X80098000Y-94823000D01*
X80098000Y-96325000D01*
X79100000Y-96325000D01*
X79100000Y-94823000D01*
X77598000Y-94823000D01*
X77598000Y-96325000D01*
X76600000Y-96325000D01*
X76600000Y-94823000D01*
X75098000Y-94823000D01*
X75098000Y-96325000D01*
X74100000Y-96325000D01*
X74100000Y-94823000D01*
X73469954Y-94823000D01*
X72081086Y-94823000D01*
X71959217Y-94760904D01*
X71757129Y-94695242D01*
X71547246Y-94662000D01*
X71334754Y-94662000D01*
X71124872Y-94695242D01*
X71124869Y-94695242D01*
X70922782Y-94760904D01*
X70733439Y-94857380D01*
X70679282Y-94896727D01*
X70679282Y-94896728D01*
X71311591Y-95529037D01*
X71248007Y-95546075D01*
X71133993Y-95611901D01*
X71040901Y-95704993D01*
X70975075Y-95819007D01*
X70958037Y-95882591D01*
X70325728Y-95250282D01*
X70325727Y-95250282D01*
X70286380Y-95304439D01*
X70189904Y-95493782D01*
X70124242Y-95695869D01*
X70124242Y-95695872D01*
X70096473Y-95871198D01*
X70066544Y-95934333D01*
X70007232Y-95971264D01*
X69937370Y-95970266D01*
X69879137Y-95931656D01*
X69851023Y-95867692D01*
X69850000Y-95851800D01*
X69850000Y-93825000D01*
X72598000Y-93825000D01*
X74100000Y-93825000D01*
X75098000Y-93825000D01*
X76600000Y-93825000D01*
X77598000Y-93825000D01*
X79100000Y-93825000D01*
X80098000Y-93825000D01*
X81600000Y-93825000D01*
X82598000Y-93825000D01*
X84100000Y-93825000D01*
X85098000Y-93825000D01*
X86600000Y-93825000D01*
X87598000Y-93825000D01*
X89100000Y-93825000D01*
X90098000Y-93825000D01*
X91600000Y-93825000D01*
X92598000Y-93825000D01*
X94100000Y-93825000D01*
X95098000Y-93825000D01*
X96600000Y-93825000D01*
X97598000Y-93825000D01*
X99100000Y-93825000D01*
X100098000Y-93825000D01*
X101600000Y-93825000D01*
X102598000Y-93825000D01*
X104100000Y-93825000D01*
X105098000Y-93825000D01*
X106600000Y-93825000D01*
X106600000Y-93199000D01*
X105098000Y-93199000D01*
X105098000Y-93825000D01*
X104100000Y-93825000D01*
X104100000Y-93199000D01*
X102598000Y-93199000D01*
X102598000Y-93825000D01*
X101600000Y-93825000D01*
X101600000Y-93199000D01*
X100098000Y-93199000D01*
X100098000Y-93825000D01*
X99100000Y-93825000D01*
X99100000Y-93199000D01*
X97598000Y-93199000D01*
X97598000Y-93825000D01*
X96600000Y-93825000D01*
X96600000Y-93199000D01*
X95098000Y-93199000D01*
X95098000Y-93825000D01*
X94100000Y-93825000D01*
X94100000Y-93199000D01*
X92598000Y-93199000D01*
X92598000Y-93825000D01*
X91600000Y-93825000D01*
X91600000Y-93199000D01*
X90098000Y-93199000D01*
X90098000Y-93825000D01*
X89100000Y-93825000D01*
X89100000Y-93199000D01*
X87598000Y-93199000D01*
X87598000Y-93825000D01*
X86600000Y-93825000D01*
X86600000Y-93199000D01*
X85098000Y-93199000D01*
X85098000Y-93825000D01*
X84100000Y-93825000D01*
X84100000Y-93199000D01*
X82598000Y-93199000D01*
X82598000Y-93825000D01*
X81600000Y-93825000D01*
X81600000Y-93199000D01*
X80098000Y-93199000D01*
X80098000Y-93825000D01*
X79100000Y-93825000D01*
X79100000Y-93199000D01*
X77598000Y-93199000D01*
X77598000Y-93825000D01*
X76600000Y-93825000D01*
X76600000Y-93199000D01*
X75098000Y-93199000D01*
X75098000Y-93825000D01*
X74100000Y-93825000D01*
X74100000Y-93199000D01*
X72598000Y-93199000D01*
X72598000Y-93825000D01*
X69850000Y-93825000D01*
X69850000Y-92199000D01*
X69869685Y-92131961D01*
X69922489Y-92086206D01*
X69974000Y-92075000D01*
X107826000Y-92075000D01*
X107893039Y-92094685D01*
G37*
%TD.AperFunction*%
%TA.AperFunction,Conductor*%
G36*
X70055203Y-102682486D02*
G01*
X70092977Y-102741264D01*
X70096473Y-102756801D01*
X70124242Y-102932127D01*
X70124242Y-102932130D01*
X70189904Y-103134217D01*
X70286375Y-103323550D01*
X70325728Y-103377716D01*
X70958037Y-102745408D01*
X70975075Y-102808993D01*
X71040901Y-102923007D01*
X71133993Y-103016099D01*
X71248007Y-103081925D01*
X71311590Y-103098962D01*
X70641370Y-103769181D01*
X70580047Y-103802666D01*
X70553698Y-103805500D01*
X70543134Y-103805500D01*
X70543123Y-103805501D01*
X70483516Y-103811908D01*
X70348671Y-103862202D01*
X70348664Y-103862206D01*
X70233455Y-103948452D01*
X70233452Y-103948455D01*
X70147206Y-104063664D01*
X70147202Y-104063671D01*
X70096908Y-104198517D01*
X70095126Y-104206062D01*
X70092915Y-104205539D01*
X70070551Y-104259532D01*
X70013158Y-104299380D01*
X69943333Y-104301873D01*
X69883244Y-104266220D01*
X69851970Y-104203741D01*
X69850000Y-104181725D01*
X69850000Y-102776199D01*
X69869685Y-102709160D01*
X69922489Y-102663405D01*
X69991647Y-102653461D01*
X70055203Y-102682486D01*
G37*
%TD.AperFunction*%
%TA.AperFunction,Conductor*%
G36*
X70055203Y-96078486D02*
G01*
X70092977Y-96137264D01*
X70096473Y-96152801D01*
X70124242Y-96328127D01*
X70124242Y-96328130D01*
X70189904Y-96530217D01*
X70286375Y-96719550D01*
X70325728Y-96773716D01*
X70958037Y-96141408D01*
X70975075Y-96204993D01*
X71040901Y-96319007D01*
X71133993Y-96412099D01*
X71248007Y-96477925D01*
X71311590Y-96494962D01*
X70641370Y-97165181D01*
X70580047Y-97198666D01*
X70553698Y-97201500D01*
X70543134Y-97201500D01*
X70543123Y-97201501D01*
X70483516Y-97207908D01*
X70348671Y-97258202D01*
X70348664Y-97258206D01*
X70233455Y-97344452D01*
X70233452Y-97344455D01*
X70147206Y-97459664D01*
X70147202Y-97459671D01*
X70096908Y-97594517D01*
X70095126Y-97602062D01*
X70092915Y-97601539D01*
X70070551Y-97655532D01*
X70013158Y-97695380D01*
X69943333Y-97697873D01*
X69883244Y-97662220D01*
X69851970Y-97599741D01*
X69850000Y-97577725D01*
X69850000Y-96172199D01*
X69869685Y-96105160D01*
X69922489Y-96059405D01*
X69991647Y-96049461D01*
X70055203Y-96078486D01*
G37*
%TD.AperFunction*%
%TD*%
M02*
